<svg xmlns="http://www.w3.org/2000/svg" viewBox="0 0 150 150"><path fill="#0c7ade" d="M0 0h150v150H0z"><title>bg</title></path><path fill="#f1f1f1" d="m52.6 39-2.4 6.4-5.6 28L42.2 87 39 100.6c0 1.6 1.6 3.2 2.4 4 1.6 2.4 4 4 6.4 4.8l5.6 1.6 3.2-1.6 6.4-8.8 8-14.4.8-.8.8 15.2c.8.8 0 2.4 1.6 4l4.8 3.2 7.2 3.2c2.4 0 5.6.8 8-.8 3.2-2.4 5.6-6.4 7.2-10.4 5.5-12.1 8.7-25.1 9.6-38.4 0-6.4-3.2-12.8-8.8-16.8A29 29 0 0 0 88.6 39l-3.2.8c-1.6.8-4 2.4-4.8 4.8l-.8 4.8c0 2.4 1.6 4.8 2.4 6.4l3.2.8c4 0 7.2.8 10.4 2.4l.8.8v4.8L93.4 83l-5.6 11.2-1.6.8-.8-8c-1.6-4.8-2.4-10.4-5.6-14.4l-5.6-4c-1.6 0-3.2 1.6-4 2.4l-4.8 6.4-8 12-1.6-.8 1.6-6.4 1.6-4.8 2.4-8L67 50.2l-.8-2.4-3.2-4a19 19 0 0 0-8.8-4.8h-1.6Z"><title>w</title></path></svg>