<svg xmlns="http://www.w3.org/2000/svg" width="683" height="683" viewBox="0 0 512 512"><g fill="#bf3808"><path d="M341 24c4-1 8 0 11 3l7 14c4 7 9 13 16 17l19 8c2 1 5 1 6 3s1 5-1 6h-11c-8-1-15-3-23-6-12-5-21-15-27-27-3-5-2-14 3-18m1 3l-2 7c0 3 0 6 2 8 3 5 6 10 10 13 2 4 6 5 9 7 9 6 19 8 29 10 2 0 5 1 7-1-9-6-21-8-29-15-8-6-13-15-17-24-2-3-5-7-9-5zM177 29c3 0 6 1 7 3 4 4 5 10 2 15-5 12-14 22-26 28-7 5-15 7-23 9h-9c-4-1-3-6 0-8 11-5 23-9 31-18 5-6 8-13 11-21 1-3 3-7 7-8m-4 10l-10 20c-4 2-6 6-10 9-7 3-14 8-21 10l-3 3h7c14-3 28-9 37-20 4-4 8-9 10-15 2-5 2-12-4-14-3 2-5 4-6 7zM401 142c3-4 10-4 12 0 1 5-2 11-2 16 0 9 5 18 3 27-2 6-7 9-10 14-3 3-3 8-3 13 5 2 10 4 14 8l10 13 6-3c10 1 19 3 28 2l-8 1c-6 0-13-2-19 0-4 1-7 4-9 7-5 5-5 12-9 17-2 2-6 2-9 3h-6c2 4 5 9 10 10l12-5c6-5 5-14 10-19 3-3 7-2 11-2l3 2-8 1 8 11c3 4 5 8 6 13l3 3c6 3 11 8 16 13 4 4 6 10 11 14l15 6c2 1 1 3 1 5l-5 2 1-2 1-2c-7-3-16-5-20-12-6-8-13-16-22-22-8-5-18-2-27-1-8 0-16 1-22-5-7-6-11-14-17-21-8-9-15-22-28-25l-11-1v2l-1-5c6 0 12-1 17 2l10 6c3 0 5-2 7-4-6-3-11-7-18-8-5-2-11-3-17-3v-3c8 0 16 1 24 4l14-2c-1-7-1-16 5-22 5-4 10-8 11-14 2-7-2-13-2-20 0-5 2-10 4-14m0 9c-2 7 2 14 2 21 1 5-2 9-4 13-4 5-11 7-12 14-2 7 0 15-1 23-1 3-3 5-5 6l-6 3 10 12c7-4 13-10 14-18s-3-16 0-24c2-7 10-10 11-17 2-9-3-18-2-27 0-5 2-10 1-15-5 0-7 5-8 9m-27 66l8 5 1-6-9 1m29 0l-1 13 7 6c3 2 4 6 6 9l7-10c-4-8-11-16-19-18m-3 16l-1 2c5 6 8 13 11 21l3-4-4-10c-2-4-5-7-9-9m-13 12l8 11 11 1c-1-7-5-13-9-19l-10 7m46 4l-3 9 5 12h12c-2-8-8-15-14-21m-16 22c5 1 10 0 15-1l-4-8c-3 4-7 7-11 9z"/><path d="M247 159c4-2 9-3 13-1 0 6-5 11-6 17 0 6 3 12 3 19-1 7-4 13-7 19-3 3-2 8-2 12h11c10-4 19-10 30-12l3-15c0-7-4-14-3-22 2-4 7-3 10-1 4 3 7 7 9 12 4 7 3 15 2 22 6 0 11 1 16 3v4l-2-1c-11-4-23-2-35 1-8 2-15 6-22 9l-2 1 10 6c2 1 5 2 7 1l18-5 18 1 7-5-1 6-17 14c-7 4-15 11-24 11-9 1-17-4-26-5-5-1-9 0-14 1l2 4 1 12c6 1 12 1 17 3 13 5 29 4 41-4l16-15v5l-2 5-2-2-3 4 20 26 10 16 2 6a90 90 0 011 46c-2 6-6 13-2 19 1 4 6 6 10 4 4-1 6-4 7-7l2-4c0-7-1-13-3-19-2-10-4-19-8-28a68 68 0 01-4-25c2-6 3-12 7-17 4-6 11-11 17-15l-9-15c-2-3-6-5-10-6l-2-4c4 1 8 2 11 5l7 8 16 24c6 8 16 14 26 13 13 0 26-3 39-2l7 4-3 1c-15-4-31 1-46 1-10-1-18-7-24-14-6 3-12 7-14 13-2 3-2 7-1 10 2 15 10 28 13 43 2 7 2 15 2 23l-2 13c-4 4-6 10-11 14l-8 5c2 1 4 3 7 2 5-1 11-3 15-7 4-2 5-7 6-11h7v1h-3c-1 4-3 8-6 11-4 5-10 6-15 9 6 2 12 1 18-1l3-1 2 2c-10 6-23 7-33 0-2-2-5-4-8-3l-13-1 5 7 1 2c5 7 13 11 21 12h17c8-1 14-6 20-10l2 3-8 7-4 6c-3 6-4 13-4 20 1 10 6 20 15 24 4 3 8 3 12 2 0-1 1-4-1-5-4-6-8-11-9-18-1-8 4-16 10-21v4c-2 4-6 8-7 13 0 6 3 12 7 17 2 2 4 5 4 8-1 4-6 7-10 6-16-2-26-19-24-34 0-7 2-14 5-21l-5 3c-2 5-5 9-9 12-9 6-19 9-30 9l-12-3c-4 8-6 16-8 24-1 3-4 4-6 2-5-6-6-14-5-22l-12 2c1 4 4 8 4 12 0 2-2 3-4 2l-12-3-16-2-3 2c-4 3-8 7-9 12l-3 12c-2 3-7 2-10 0-3-4-3-9-4-14l-11-4h-4c-10 1-19 0-28-4l-13-10c-1 6-1 13-4 19-1 5-7 8-12 9-2 0-4-2-4-4 0-8 3-17 2-25-1-5-2-10-5-15-7 5-17 6-24 1 1 9-1 18-5 26l-3-1c4-9 6-20 4-30-2-8-7-15-13-20l-3 7-2 4c4 3 7 7 9 12 1 9 0 18-6 25l-2-2c5-6 5-15 4-23-1-4-4-6-7-9-7 9-15 17-26 21-9 4-20 5-30 4-22-4-39-27-36-49 2-16 8-32 18-44l5-1-1 1c-5 6-9 13-12 21-5 11-8 23-6 34 2 14 12 26 25 32 11 5 25 3 36-1 17-7 29-23 33-41 1-6 2-12 1-19-1-11-3-23-7-34-3-7-7-14-13-19-2-3-5-3-8-3-3 6 0 11 1 17 3 7 4 15 6 22l3 16c0 10-1 21-6 30-4 8-12 13-21 15-6 2-13 3-19-1-9-4-14-15-12-24 2-12 6-25 14-34l13-16 2 4c-4 4-9 8-11 13s-3 11-2 17c0 4 2 8 5 12 5 7 13 12 22 13l6 1 3-11c-4-1-9-1-13-3-5-4-10-9-11-16-2-8 1-16 2-24l4 5c-5 8-5 20 2 27-2-8-2-17-1-25l4 4c-2 8-2 17 3 24 2 4 7 4 11 4l-5-10-1-12 5 2c-2 5-1 10 1 14 2-4 2-8 1-13v-5l-4-14 2-2c-4-6-6-13-8-21-1-3-2-8 1-11 5-2 12 0 15 4 13 12 16 30 18 46l1 6c1 2 1 5 4 5 9 0 19 1 28-3l4 3v-4c3-2 5-5 6-8 5-9 14-15 21-21l6-8c4-2 2-7 3-11l-2 2 1-10c2 4 5 9 4 14-1 6-5 11-10 15-6 6-13 11-18 18-9 12-12 28-9 42l5 19 4 18-1 13a139 139 0 00-2 10c3-1 6-1 8-3l4-9 1-18c-1-8-5-15-7-23-2-9-3-18-1-27s7-17 12-24c7-8 18-12 23-22 5-9 6-20 5-30l-18 3-1-4c7 0 15-1 22-4 10-5 20-13 28-21-6 11-16 18-27 24 0 11 0 23-5 33-4 7-11 12-17 18-8 5-13 13-17 21l7 5c0-4 1-9 3-13h2c-3 8 0 16-3 23-2 5-7 6-11 8l2 10c6-1 13-2 17-8 5-8 4-17 4-26 1-8 6-15 13-18-4 4-9 8-9 14l-1 23 14 5c-1-7-2-14 1-20l1 12c0 3 1 9 5 9h11l-2-9-4-14c5 6 7 14 10 21l14-7-5-14 8 12c6-4 11-9 18-11s14-1 19-5l19-7c0-8-1-16 2-23 3-8 5-16 5-25-14-6-29-14-38-27l15 12c7 4 14 8 22 10 0-4 0-9-2-13l-5-4c-9-4-16-11-22-18 8 5 15 11 24 15-4-10-12-18-20-26l-8-8-14 2c-7 0-13-2-19-4-5-2-11-2-17-2-2 5-5 9-10 12-6 5-13 7-20 8-7 2-14 1-22 4l-3-5c12 0 25-1 36-6 8-3 15-9 17-17 2-7-1-14-6-19-5-6-13-8-20-9l1 9c-2-4-2-9-3-14l10-4-11-4v-3c6 0 12 4 17 5v-14c1-5 4-8 7-13 2-4 4-9 4-14s-2-9-1-14 4-10 7-14m1 4l-4 10c-2 5 1 11 0 16 0 8-4 14-8 21-5 4-3 11-2 16l11-1c0-5-1-11 2-15 4-5 6-11 7-17 0-6-3-11-3-17l3-12 2-4c-3 1-6 1-8 3m45 14c-1 6 1 12 2 18l-2 16 14-1v-13c0-8-5-15-11-19v-1h-3m-65 55l-8 4 14 5c3 2 6 0 8 0 9-3 18-1 25 4 4 2 6 5 10 6 5 2 11 1 16-3l-6-5-13-8c-10-7-23-8-35-6-4 0-7 2-11 3m56 5l12 10 19-14c-11-3-22-1-31 4m-45 8c2 3 6 2 10 2 5-1 11 0 16 1-7-6-18-7-26-3m59 28l3 4 19 20c2 4 3 7 6 10 4 12 7 25 5 38-2 9-7 17-7 27 0 7 1 14 6 20l2 1c7 6 16 7 25 6 8-2 16-8 20-16 4-9 4-19 3-28-1-19-14-35-15-54 0-8 3-16 10-20 2-1 5-2 6-4l-6-9-5 3c-1 1-3 1-3 3-15 8-19 28-12 42l1 7 8 26c2 8 4 16 1 23-1 7-7 13-14 13-8 0-14-9-12-17 2-9 6-18 6-27s-1-19-3-28c-4-11-11-22-19-31-3-6-8-11-13-17l-12 8M59 400c-1 4-2 9 0 14 2 7 8 14 16 14 9 0 19-2 26-10-13-1-26-8-31-20-3-6-3-13-3-20-4 7-6 14-8 22m260-14c-4 2-9 3-13 6-11 5-20 16-20 28-1 4 0 8-2 12-2 6-8 11-13 14-4 2-7 6-9 9-7 7-9 17-6 26l6 3c2-7 3-15 8-21 8-9 21-12 26-24 5-8 2-19 7-27 6-9 17-12 27-15l-8-11h-3m-175 4l7 6c2 2 5 2 7 3l9 4 2-11c-8-2-17-2-25-2m-9 1l-1 14c4 2 8 3 10 7 4 6 6 13 11 19 4-5 2-12 0-18-2-10-9-20-20-22m52 5c-2 5-2 10-1 15 3-1 8-3 8-7s-4-7-7-8m93 4c-6 2-10 7-16 10-6 4-12 8-19 9-10 2-19-1-28-3l-6-3-7 11 12 5c10 5 22 4 33 1 10-2 18-8 26-13l8-4 2-6 7-11c-4 1-8 1-12 4m47 2c4 2 9 2 13 3l-2-5c-4-1-8 1-11 2m-172 0c3 5 3 12 7 17l9 13-4-24c-2-4-8-5-12-6m152 10c8 6 18 7 28 7 4-1 7-4 11-7-3-4-8-3-13-4l-13-4c-5 1-9 5-13 8m-175-3c4 6 10 11 13 18 2 3 2 7 5 9 5 5 14 3 19 0l-8-11c-1 3-1 6-4 8-2 2-5 1-6-1l-10-19c-2-2-6-3-9-4m173 7c-2 6-2 12-2 18 9 2 17-1 25-6l3-5-12-2-14-5m20 28l-1 5c-1 6-1 13 3 19 3-6 4-13 6-19 3-5 5-10 9-14 5-5 12-8 19-11a828 828 0 00-13-8c-11 4-20 16-23 28m-51-22c2 4 4 7 8 8v-12l-8 4m-17 9c2 5 5 10 10 12 5-1 9-5 12-9l-8-9-14 6m-65-3c3 5 8 9 13 13 4 3 9 6 14 7-3-5-8-8-10-14-2-4-6-7-10-8l-7 2m162 3c-5 3-10 6-13 11 8 2 16 3 24 1 8-3 18-7 21-16h-16c-6-1-11 2-16 4m-164 1l4 13c0 5 4 7 8 10 6 5 13 8 21 9 10 2 20-1 29-4 3-1 5-4 6-7l4-5c-14 2-28 6-43 4-12-2-20-12-29-20m22 0c3 7 8 12 14 16 5 1 10 0 15-1l-7-10-7-1c-5 0-10-2-15-4m26 4l7 11 16-3-7-11-16 3m80 0c-5 3-11 2-17 2l-3 7c7 3 16 4 22-1l5-10-7 2m-33 21c8 1 16 2 23 5-1-6-6-14-13-13l-10 8m-40 9l7 2v-4l-7 2z"/><path d="M96 212l2 5v6l14-1 7 5c-14-3-31-1-43 8s-20 24-21 40c-2 13 2 27 9 39l2-12c1-6 2-11 1-17-2-12 3-24 11-33 9-9 22-14 35-12 7 2 13 6 19 9l11-6-4-5-8-6 7 1h5l4 1-5 3 2 2c3 4 9 0 12-2 4-2 5-6 5-10h4l-2 9 4-2c6-4 14-8 23-9l-1 4c-5 0-9 2-13 4h12l1-2-1 7c-7-2-13-1-20 0-13 3-27 7-37 17l13 5 17-8c7-2 15-3 23-3l-1 5-8-1c-10 1-19 4-28 10l9 8-8-1 2-1c-5-4-10-7-16-9-12-4-25-6-37-1-10 4-18 12-23 22-4 12-4 25-8 37l-7-7v2a68 68 0 01-1-63c4-7 10-13 16-18s13-7 20-9l1-3c1-2 2-5 1-8m-4 35c-4 4-7 9-8 15l10-5 5-4 6-10c-5 0-10 1-13 4m11 7c4-4 7-8 12-10-6-2-11 4-12 10m7-2l14 2 5-2-9-6c-4 1-8 3-10 6m-40 30l9-15c1-6 3-11 6-16-10 7-16 19-15 31zM222 254h2l1 10c-2 4-6 7-10 8-5 2-12 4-18 4l-25 1-12-5c18 1 37 3 55-3l5-5v2l2-2-1-4 3 1-2-7z"/><path d="M88 282c4-7 11-13 19-14s15 2 22 3l-9 2c-7-2-14-2-20 1l4 6 2 3 3 11c2 7 1 14-3 20-3 6-8 9-13 12l-10 2h-3l-1 10-1-5-4 6h-3c4-6 4-13 5-20 2-12 5-25 12-37m2 3c0 4 3 8 4 12l-2 7c0 3-2 4-4 6l-7 1-2 13h11l3-3c12-4 17-19 11-30 1-2-1-3-1-5l-5-10c-3 3-7 5-8 9m-2 5c-2 4-4 7-4 12l1-1-2 5h5c3-4 3-9 1-13l-1-3zM233 294l11-11c-2 5-6 9-10 14-5 4-11 8-18 10-5 2-11 1-16 1l-1-3c6 0 12 0 18-2s11-5 16-9zM137 306c7-1 15 2 18 8 2 5-1 12-7 13h-13c-5 0-9-7-8-12s6-8 10-9zM397 314c5-1 10 1 15 4s6 13 1 17c-4 3-9 1-13 0-4 0-10 0-13-4-4-8 3-15 10-17z"/></g><g fill="#f38100"><path d="M342 27c4-2 7 2 9 5 4 9 9 18 17 24 8 7 20 9 29 15-12-2-23-5-33-12-5-4-9-9-12-15-2-4-4-8-8-10v-1l1-5-3-1zM179 32c6 2 6 9 4 14-2 6-6 11-10 15a69 69 0 01-37 20h-7l3-3-1 2c8-2 15-4 22-8 9-5 17-14 22-23 2-3 2-6 2-9v-1l2-7zM207 120c6 0 11-2 16-5 0 8-2 15-7 22l-2-1c-1-3-2-7-5-9-6-5-15-3-20 2l-14 14-6-1 11-10c2-5 6-9 11-11s11-1 16-1zM328 118c5-1 10-1 15 1 7 2 10 8 16 11 4 3 8 4 13 5-6 7-15 10-24 10l5-6c2-4 1-8-1-11-4-3-9-5-13-6-8-1-16 2-23 0-2 0-3-2-4-4h16zM323 145c9 3 18 4 27 4l-5 13c-6 23-5 48 0 71-4-7-5-15-6-22l-1-42c0-4 1-9-2-12-2-2-5-2-8-2v3l-5-13zM181 154c9 0 18-1 26-5l-3 27c0 23 4 46 8 68l-9-30-3-39c0-5-1-10-5-13-3-2-7 0-10 1l-4-9zM247 173c1-4 4-6 7-9l-3 12c0 6 3 11 3 17-1 6-3 12-7 17-3 4-2 10-2 15l-11 1c-1-5-3-12 2-16s8-9 10-15c4-7 1-14 1-22zM296 178c6 4 11 11 11 19v13l-14 1 2-16 1 6c2-2 3-5 3-8l-3-15zM89 188c8 7 15 13 20 22 3 3 3 8 3 12l-14 1v-6-8l-8-12-1-9zM151 207c1-5 5-8 9-11l-5 13c0 7 5 12 6 18 0 4-1 8-5 10-3 2-9 6-12 2 5-2 9-6 10-11 1-7-5-14-3-21z"/><path d="M345 213a63 63 0 0134 11c-1 2-3 4-6 4l-10-6c-5-3-11-2-17-2l-1-7zM374 217l9-1-1 6-8-5zM403 217c8 2 15 10 19 18l-7 10c-2-3-3-7-6-9l-7-6 1-13zM347 223l11 1-6 1 3 9c5 4 10 7 14 12 10 10 15 25 27 34 4 4 10 5 16 5 12 0 23-3 35-2 6 0 11 3 15 7 4 5 5 11 9 15 6 6 14 9 22 7l-1 2c-7 3-16 0-22-3-7-4-8-13-13-19l-7-4c-13-1-26 2-39 2-10 1-20-5-26-13l-16-24-7-8c-3-3-7-4-11-5l-4-15v-2z"/><path d="M474 223c3 0 2 4 1 5-2 6-7 10-13 13-6 4-13 2-20 3-4 0-8-1-11 2-5 5-4 14-10 19l-12 5c-5-1-8-6-10-10h6l-3 1 5 4c4 0 8-2 11-4 6-5 5-15 11-20 4-3 9-4 14-3 7 0 16 1 22-3 4-3 9-6 9-12zM388 236c5-2 8-7 11-11-1 8-7 14-14 18l-10-12 6-3c-1 4 2 8 7 8zM214 234l-1-8 11 4-10 4zM176 233c4-2 8-4 13-4v2l-1 2h-12zM220 236l8-4c2 2 2 5 4 5 10 1 21-2 31 1 6 2 10 8 17 8 3 1 5-1 7-3l6 5c-5 4-11 5-16 3-4-1-6-4-10-6-7-5-16-7-25-4-2 0-5 2-8 0l-14-5zM284 237c9-5 20-7 31-4l-19 14-12-10zM77 245c7-7 16-9 25-10 7-1 13 1 20 3 4 2 8 4 13 4 2 0 3-2 4-4l4 5-11 6c-6-3-12-7-19-9-13-2-26 3-35 12-8 9-13 21-11 33 1 6 0 11-1 17-4-10-5-21-2-31 1-9 5-19 13-26z"/><path d="M387 245l10-7c4 6 8 12 9 19l-11-1-8-11zM92 247c3-3 8-4 13-4l-6 10-5 4-10 5c1-6 4-11 8-15zM239 245c8-4 19-3 26 3-5-1-11-2-16-1-4 0-8 1-10-2zM110 252c2-3 6-5 10-6l9 6-5 2-14-2zM433 249c6 6 12 13 14 21h-12l-5-12 3-9zM147 263c9-6 18-9 28-10l8 1-2 3c-7 1-14 2-20 6l-4 4 2 5-3-1-9-8zM219 253l3 1 2 7-3-1-2-7zM134 260c6 2 11 5 16 9l-2 1-19 1c-7-1-14-4-22-3s-15 7-19 14c-7 12-10 25-12 37-1 7-1 14-5 20-3 4-9 7-14 7l-31 2c-6 1-10 7-15 11-1 1-2 0-3-1v-5c5-3 9-7 15-8 12-4 25 0 37-5 4-2 7-6 8-10 6-13 5-27 11-40 4-11 12-21 23-26 11-4 22 2 33-2l-1-2zM298 273l12-8c5 6 10 11 13 17-4-3-9-7-15-8-3 0-5 2-7 3l-3-4zM370 271l5-3 6 9c-1 2-4 3-6 4-7 4-10 12-10 20 1 19 14 35 15 54 1 9 1 19-3 28-4 8-12 14-20 16-9 1-18 0-25-6 7 2 14 5 21 4 8-2 17-7 20-16 4-9 4-19 2-28-4-15-10-30-12-46-1-6-2-13 0-19s7-11 10-17h-3z"/><path d="M100 274c6-3 13-3 20-1l-16 7-4-6zM90 285c1-4 5-6 8-9l5 10c-5 3-8 6-9 11-1-4-4-8-4-12zM88 290l1 3-4 8-1 1c0-5 2-8 4-12zM81 311l7-1-2 8 4 6H79l2-13zM469 318c8 7 16 14 22 23 8 10 11 22 13 34 1 13 0 26-6 37-4 10-12 18-22 22-14 6-32 7-45-1 8 1 17 2 25 1s15-3 22-7c7-5 13-11 17-19 3-9 5-17 5-26a91 91 0 00-13-42c-3-4-7-6-11-5-5 1-3 6-3 9-3-2-4-4-4-7v-15-4zM205 325l18-3c1 10 0 21-5 30-5 10-16 14-23 22-5 7-10 15-12 24s-1 18 1 27c2 8 6 15 7 23l-1 18-4 9c-2 2-5 2-8 3l1-3c4-1 5-6 6-10 3-15-3-29-6-44-4-14-2-29 5-42 7-10 18-15 26-24 6-5 8-13 7-21 0-3-2-6-5-7l-7 1v-3zM74 339l4-6 1 5c0 6 1 12 3 17l-13 16c-8 9-12 22-14 34-2 9 3 20 12 24 6 4 13 3 19 1 9-2 17-7 21-15 5-9 6-20 6-30 1 7 3 15 2 22-1 8-3 16-9 21-6 6-14 11-23 12-8 0-16-1-23-5-8-6-13-17-13-28-1-13 5-26 12-36 4-5 9-10 10-17 0-3-4-4-7-4 4-4 10-6 12-11z"/><path d="M204 339l2-2c-1 4 1 9-3 11l1-9zM446 344h5c0 3 0 6-2 9l-8 11c-5 6-9 13-11 21-2 5-3 11-2 16-2-10 0-21 4-30 2-8 8-13 13-19l1-8zM468 345l2 4c3 14 2 30-6 43-3 3-6 8-11 9l-12 1c4-5 9-10 12-16s5-13 6-19l4-9c3-4 4-9 5-13zM73 372c2-5 7-9 11-13l1 2c-1 8-4 16-2 24 1 7 6 12 11 16-6-2-10-7-15-12-2-2-5-3-8-3v3c-1-6 0-12 2-17z"/><path d="M91 393c-7-7-7-19-2-27l1 2c-1 8-1 17 1 25zM188 392c4-8 9-16 17-21l-5 13h-2c-2 4-3 9-3 13l-7-5zM478 385c3-4 3-10 5-14l1 17c0 10-7 20-16 25-7 3-15 6-22 4-6-1-11-6-13-11 9 0 17-1 26-3s16-9 19-18zM97 396c-5-7-5-16-3-24l8 6 1 12 5 10c-4 0-9 0-11-4zM434 382l9-4c-1 8-6 15-12 20-1-5 1-11 3-16zM108 394c-2-4-3-9-1-14l2 1c1 5 1 9-1 13zM371 396c5-4 7-10 11-14l9 3c-1 4-2 9-6 11-4 4-10 6-15 7-3 1-5-1-7-2l8-5zM166 386l4-1v4l-4-3zM319 386h3l8 11c-10 3-21 6-27 15-5 8-2 19-7 27-5 12-18 15-26 24-5 6-6 14-8 21l-6-3c4-6 5-13 9-19s11-9 17-14c6-4 11-10 12-17 2-10 3-21 11-28 6-5 13-7 17-14l-3-3zM401 386h7c0 4 0 9-3 12l-10 6-3 1c4-6 9-12 9-19zM135 391c11 2 18 12 20 22 2 6 4 13 0 18-5-6-7-13-11-19-2-4-6-5-10-7l1-14zM327 402c3-1 7-3 11-2l2 5c-4-1-9-1-13-3zM343 402l13 1c3-1 6 1 8 3l-16 3-5-7zM228 407c2 2 4 5 7 5 4 0 5-3 7-5l2 9h-11c-4 0-5-6-5-9z"/><path d="M132 409c3 1 7 2 9 4l10 19c1 2 4 3 6 1 3-2 3-5 4-8l8 11c-5 3-14 5-19 0-3-2-3-6-5-9-3-7-9-12-13-18zM131 414c6 5 11 12 13 20 2 10 0 21-4 30-3 6-9 10-16 12s-13 1-20 1l-15 3 1-6c6-1 12-3 18-2 7 0 14 0 21-3l6-7c6-8 7-18 5-28-1-6-5-10-9-14l-3 1 3-7zM305 416l14 5 12 2-3 5c-8 5-16 8-25 6 0-6 0-12 2-18zM401 423l8-7 11 15c-6 5-11 13-10 21 1 7 5 12 9 18 2 1 1 4 1 5-8-4-14-11-15-20-1-8 3-16 4-24 0-4-4-8-8-8zM274 422l8-4v12c-4-1-6-4-8-8zM352 419l9 5c-7 3-14 6-19 11-4 4-6 9-9 14-2 6-3 13-6 19-4-6-4-13-3-19v8c4-8 6-17 12-24 4-6 11-9 16-14zM192 428l7-2c4 1 8 4 10 8 2 6 7 9 10 14-5-1-10-4-14-7-5-4-10-8-13-13z"/><path d="M354 431c5-2 10-5 16-4h16c-3 9-13 13-21 16-8 2-16 1-24-1 3-5 8-8 13-11zM238 436l16-3 7 11-16 3-7-11zM194 445l9 7c6 3 13 7 20 7 12 3 24-1 35-6-1 3-3 6-6 7-9 3-19 6-29 4-8-1-15-4-21-9-4-3-8-5-8-10zM285 457l10-8c7-1 12 7 13 13-7-3-15-4-23-5zM245 466l7-2v4l-7-2z"/></g><g fill="#fbaf59"><path d="M342 27l3 1-1 5-4 1 2-7zM173 39c1-3 3-5 6-7l-2 7h-4zM344 34c4 2 6 6 8 10 3 6 7 11 12 15 10 7 21 10 33 12-2 2-5 1-7 1-10-2-20-4-29-10-3-2-7-3-9-7-3-7-8-13-8-21zM163 59c7-4 10-13 14-19 0 3 0 6-2 9-5 9-13 18-22 23-7 4-14 6-22 8l1-2c7-2 14-7 21-10 4-3 6-7 10-9zM306 116l6 1v1c1 2 2 4 4 4 7 2 15-1 23 0 4 1 9 3 13 6 2 3 3 7 1 11l-5 6h-3l-17-7-13-12-7-8v4l-2-6zM189 129c5-5 14-7 20-2 3 2 4 6 5 9l2 1-3 1c-5 2-10 5-16 6-8 1-15 1-22-1l14-14zM409 142c1 5-1 10-1 15-1 9 4 18 2 27-1 7-9 10-11 17-3 8 1 16 0 24-3 4-6 9-11 11-5 0-8-4-7-8 2-1 4-3 5-6 1-8-1-16 1-23v18c3-5 2-11 4-17 3-8 12-11 15-18 2-6 1-12 0-18-1-7-1-15 3-22zM328 155c3 0 6 0 8 2 3 3 2 8 2 12l1 42c1 7 2 15 6 22 5 9 8 18 15 25l-7-14c4 1 8 3 10 6l9 15c-6 4-13 9-17 15-4 5-5 11-7 17l-5 8-10-16-20-26 3-4 2 2a290 290 0 0010-35c3-18 2-36 1-54l-1-14v-3zM248 163c2-2 5-2 8-3l-2 4c-3 3-6 5-7 9 0 8 3 15-1 22-2 6-5 11-10 15 4-7 8-13 8-21 1-5-2-11 0-16l4-10zM185 163c3-1 7-3 10-1 4 3 5 8 5 13l3 39 9 30c2 7 4 14 8 20l-5 5c-18 6-37 4-55 3h-1l-2-5 4-4c6-4 13-5 20-6l-3 8c5-6 7-12 10-18 3-8 5-17 6-26 2-20 0-40-9-58zM293 177h3v1l3 15c0 3-1 6-3 8l-1-6c-1-6-3-12-2-18zM86 192l3-4 1 9 8 12v8l-2-5c-3-4-8-8-10-13 0-3-2-5 0-7zM149 202c2-4 7-6 11-7v1c-4 3-8 6-9 11-2 7 4 14 3 21-1 5-5 9-10 11l-2-2 5-3c2-1 4-3 3-5-1-4-4-8-4-12-1-5-1-11 3-15z"/><path d="M324 215l2 1-1 8-7 5-18-1-18 5c-2 1-5 0-7-1l-10-6 2-1 9-1c12-4 24-7 36-8l12-1zM352 225l6-1c13 3 20 16 28 25 6 7 10 15 17 21 6 6 14 5 22 5 9-1 19-4 27 1 9 6 16 14 22 22 4 7 13 9 20 12l-1 2c-8 2-16-1-22-7-4-4-5-10-9-15-4-4-9-7-15-7-12-1-23 2-35 2-6 0-12-1-16-5-12-9-17-24-27-34-4-5-9-8-14-12l-3-9z"/><path d="M459 232c6-2 10-7 15-9 0 6-5 9-9 12-6 4-15 3-22 3-5-1-10 0-14 3-6 5-5 15-11 20-3 2-7 4-11 4l-5-4 3-1c3-1 7-1 9-3 4-5 4-12 9-17 4-2 9-4 14-4l19-2-5-1 8-1zM103 229c8-1 16 0 23 1l5 2 8 6c-1 2-2 4-4 4-5 0-9-2-13-4-7-2-13-4-20-3-9 1-18 3-25 10-8 7-12 17-13 26-3 10-2 21 2 31l-2 12c-7-12-11-26-9-39v5l5-15a49 49 0 0143-36zM228 232c4-1 7-3 11-3l23 4 12 2 13 8c-2 2-4 4-7 3-7 0-11-6-17-8-10-3-21 0-31-1-2 0-2-3-4-5z"/><path d="M307 244l17-14-4 21-16 15c-12 8-28 9-41 4-5-2-11-2-17-3l-1-12c6 0 12 0 17 2 8 2 16 4 24 3 9-2 17-8 21-16zM168 238c7-1 13-2 20 0l-4 11c-8 0-16 1-23 3l-17 8-13-5c10-10 24-14 37-17zM216 239c7 1 15 3 20 9 5 5 8 12 6 19-2 8-9 14-17 17-11 5-24 6-36 6-5-5-11-10-17-13l25-1-16 2c10 2 20 1 30-1 6-1 13-3 16-8 2-4 1-8 0-11l-2 6-1-10h-2l-3-1-2-5-1-9zM97 259c12-5 25-3 37 1l1 2c-11 4-22-2-33 2-11 5-19 15-23 26-6 13-5 27-11 40-1 4-4 8-8 10-12 5-25 1-37 5-6 1-10 5-15 8l1-3c4-4 9-8 15-9 11-1 24 0 35-4 5-2 8-8 10-13 4-17 4-34 13-49 4-7 12-10 18-16h-3z"/><path d="M244 271c6 0 12 0 17 2 6 2 12 4 19 4l14-2 8 8c8 8 16 16 20 26-9-4-16-10-24-15 6 7 13 14 22 18l5 4c2 4 2 9 2 13-8-2-15-6-22-10l-15-12c9 13 24 21 38 27 0 9-2 17-5 25-3 7-2 15-2 23l-19 7c-5 4-12 3-19 5s-12 7-18 11l-8-12 5 14-14 7c-3-7-5-15-10-21l4 14c-2 2-3 5-7 5-3 0-5-3-7-5l-1-12c-3 6-2 13-1 20l-14-5 1-23c0-6 5-10 9-14-7 3-12 10-13 18 0 9 1 18-4 26-4 6-11 7-17 8l-2-10c4-2 9-3 11-8 3-7 0-15 3-23l5-13c6-6 13-11 17-18 5-10 5-22 5-33 11-6 21-13 27-24-8 8-18 16-28 21-7 3-15 4-22 4l-3-9c7 0 14 0 20-3 5-3 11-7 13-12 4-5 8-9 10-14l-11 11c-5 4-10 7-16 9s-12 2-18 2l-7-10c8-3 15-2 22-4 7-1 14-3 20-8 5-3 8-7 10-12m22 54c-6 1-12 3-17 6-13 8-22 23-20 38 0 7 6 14 14 15 6 0 12-3 17-6 3-3 6-6 10-7 3-1 6 0 8 2l17 10c7 2 16 0 18-8 4-15-1-34-15-43-9-7-21-9-32-7z"/><path d="M367 274c0-2 2-2 3-3h3c-3 6-8 11-10 17s-1 13 0 19c2 16 8 31 12 46 2 9 2 19-2 28-3 9-12 14-20 16-7 1-14-2-21-4l-2-1-2-20 4-16c5-14 3-29-2-43l-4-6c-3-3-4-6-6-10l-19-20c2-1 4-3 7-3 6 1 11 5 15 8 8 9 15 20 19 31 2 9 3 19 3 28s-4 18-6 27c-2 8 4 17 12 17 7 0 13-6 14-13 3-7 1-15-1-23l-8-26-1-7c0-10 0-20 4-29l8-13zM94 297c1-5 4-8 9-11 0 2 2 3 1 5-1 7-1 14-4 20l-7 10-3 3-4-6 2-8c2-2 4-3 4-6l2-7zM205 328l7-1c3 1 5 4 5 7 1 8-1 16-7 21-8 9-19 14-26 24-7 13-9 28-5 42 3 15 9 29 6 44-1 4-2 9-6 10l1-7v2c2-4 3-8 3-13 1-11-3-22-6-32-3-9-3-18-2-27 0-5 1-9 3-13 3-6 8-11 12-15 3-4 7-7 9-12 5-4 9-9 10-15 1-5-2-10-4-14v-1zM103 330c3 0 6 0 8 3 6 5 10 12 13 19a129 129 0 016 53v-2l-8 18c-4 5-9 11-15 15-7 5-15 8-23 9-9 2-19-1-27-6-8-6-16-15-17-26-2-14 2-29 9-42l5-11 1-1 7-9c3 0 7 1 7 4-1 7-6 12-10 17-7 10-13 23-12 36 0 11 5 22 13 28 7 4 15 5 23 5 9-1 17-6 23-12 6-5 8-13 9-21 1-7-1-15-2-22l-3-16c3-9 0-18-2-27-2-3-2-7-1-11l-4-1zM476 335c4-1 8 1 11 5 5 6 8 14 10 21l3 21c0 9-2 17-5 26-4 8-10 14-17 19-7 4-14 6-22 7s-17 0-25-1l-8-4c-3-6-6-12-7-18-2-7 0-14 1-21 3-18 13-35 28-44l-2-1 3-1-1 8c-5 6-11 11-13 19-4 9-6 20-4 30s10 19 20 20c8 1 16-2 23-6 8-4 14-12 15-22 2-8 1-16 0-24-2-9-7-18-13-25 0-3-2-8 3-9z"/><path d="M344 376c-4-6 0-13 2-19 4 6 9 12 15 16-1 3-3 6-7 7-4 2-9 0-10-4zM71 386c3 0 6 1 8 3 5 5 9 10 15 12 4 2 9 2 13 3l-3 11-6-1 6-1-11-3c-6-2-12-6-17-9-3-4-5-8-5-12v-3zM395 386h6c0 7-5 13-9 19-6 2-12 3-18 1 5-3 11-4 15-9 3-3 5-7 6-11zM306 392c4-3 9-4 13-6l3 3c-4 7-11 9-17 14-8 7-9 18-11 28-1 7-6 13-12 17-6 5-13 8-17 14s-5 13-9 19c-3-9-1-19 6-26 9-5 20-10 25-20 5-7 2-17 6-26 3-7 8-12 13-17zM144 390c8 0 17 0 25 2l-2 11-9-4c-2-1-5-1-7-3l-7-6zM187 396c3 1 7 4 7 8s-5 6-8 7c-1-5-1-10 1-15zM280 400c4-3 8-3 12-4l-7 11-2 6-8 4c-8 5-16 11-26 13-11 3-23 4-33-1l-12-5 7-11 6 3c8 7 19 7 29 6 14-2 25-12 34-22z"/><path d="M397 406l10-5v12c-6 4-12 9-20 10-8-2-17-3-25-6-5-1-9-5-13-6l-1-2 16-3c10 7 23 6 33 0zM155 402c4 1 10 2 12 6l4 24-9-13c-4-5-4-12-7-17zM307 412c4-3 8-7 13-8l13 4c5 1 10 0 13 4-4 3-7 6-11 7-10 0-20-1-28-7zM348 416l4 3c-5 5-12 8-16 14-6 7-8 16-12 24v-8l1-5v2c4-8 9-16 16-22l7-8zM128 421l3-1c4 4 8 8 9 14 2 10 1 20-5 28 2-9 5-19 0-27v2c-2-5-5-9-9-12l2-4zM401 423c4 0 8 4 8 8-1 8-5 16-4 24 1 9 7 16 15 20-4 1-8 1-12-2-3-6-8-11-10-18-2-9-1-18-1-26l4-6zM257 431l14-6 8 9c-3 4-7 8-12 9-5-2-8-7-10-12zM190 432c9 8 17 18 29 20 15 2 29-2 43-4l-4 5c-11 5-23 9-35 6-7 0-14-4-20-7l-9-7-4-13z"/><path d="M212 432c5 2 10 4 15 4l7 1 7 10c-5 1-10 2-15 1-6-4-11-9-14-16zM318 436l7-2-5 10c-6 5-15 4-22 1l3-7c6 0 12 1 17-2z"/></g><g fill="#ffe492"><path d="M340 34l4-1v1c0 8 5 14 8 21-4-3-7-8-10-13-2-2-2-5-2-8zM163 59l10-20h4v1c-4 6-7 15-14 19zM308 118l7 8 13 12 17 7c-16 2-33-8-37-23v-4zM197 144c6-1 11-4 16-6-3 6-10 9-17 11-11 2-25 3-34-5l7-2 6 1c7 2 14 2 22 1zM401 151c1-4 3-9 8-9-4 7-4 15-3 22 1 6 2 12 0 18-3 7-12 10-15 18-2 6-1 12-4 17v-18c1-7 8-9 12-14 2-4 5-8 4-13 0-7-4-14-2-21zM289 216c12-3 24-5 35-1l-12 1c-12 1-24 4-36 8l-9 1c7-3 14-7 22-9zM76 235c12-9 29-11 43-8l7 3c-7-1-15-2-23-1-11 1-23 5-30 14-6 6-11 14-13 22l-5 15v-5c1-16 9-31 21-40zM239 229c12-2 25-1 35 6l-12-2-23-4zM432 233c6-2 13 0 19 0l5 1-19 2c-5 0-10 2-14 4 2-3 5-6 9-7zM283 255c9 0 17-7 24-11-4 8-12 14-21 16-8 1-16-1-24-3-5-2-11-2-17-2l-2-4c5-1 9-2 14-1 9 1 17 6 26 5zM227 258c1 3 2 7 0 11-3 5-10 7-16 8-10 2-20 3-30 1l16-2c6 0 13-2 18-4 4-1 8-4 10-8l2-6zM74 281c5-10 13-18 23-22h3c-6 6-14 9-18 16-9 15-9 32-13 49-2 5-5 11-10 13-11 4-24 3-35 4-6 1-11 5-15 9 2-4 4-7 7-9 8-4 17-2 25-3 7-1 14-2 19-7 4-3 5-8 6-13 4-12 4-25 8-37zM355 316c-7-14-3-34 12-42l-8 13c-4 9-4 19-4 29zM100 311c3-6 3-13 4-20 6 11 1 26-11 30l7-10zM216 307c7-2 13-6 18-10-2 5-8 9-13 12-6 3-13 3-20 3l-1-4c5 0 11 1 16-1zM326 307l4 6c5 14 7 29 2 43l-4 16 2 20c-5-6-6-13-6-20 0-10 5-18 7-27 2-13-1-26-5-38zM104 347c-1-6-4-11-1-17l4 1c-1 4-1 8 1 11 2 9 5 18 2 27-2-7-3-15-6-22zM410 403c-1-23 12-48 33-58l2 1a66 66 0 00-28 44c-1 7-3 14-1 21 1 6 4 12 7 18-8-6-13-16-13-26zM181 376c5-7 12-12 18-18-2 5-6 8-9 12-4 4-9 9-12 15-2 4-3 8-3 13-1 9-1 18 2 27 3 10 7 21 6 32 0 5-1 9-3 13v-2l1-13-4-18-5-19c-3-14 0-30 9-42zM54 360l-5 11c-7 13-11 28-9 42 1 11 9 20 17 26 8 5 18 8 27 6a54 54 0 0038-24l8-18v2c-4 18-16 34-33 41-11 4-25 6-36 1-13-6-23-18-25-32-2-11 1-23 6-34 3-8 7-15 12-21zM286 420c0-12 9-23 20-28-5 5-10 10-13 17-4 9-1 19-6 26-5 10-16 15-25 20 2-3 5-7 9-9 5-3 11-8 13-14 2-4 1-8 2-12z"/><path d="M76 401c5 3 11 7 17 9l11 3-6 1c-9-1-17-6-22-13zM264 410c6-3 10-8 16-10-9 10-20 20-34 22-10 1-21 1-29-6 9 2 18 5 28 3 7-1 13-5 19-9zM349 411c4 1 8 5 13 6 8 3 17 4 25 6h-17c-8-1-16-5-21-12zM325 444c3-12 12-24 23-28l-7 8c-7 6-12 14-16 22v-2zM397 429c0 8-1 17 1 26 2 7 7 12 10 18-9-4-14-14-15-24 0-7 1-14 4-20zM135 435c5 8 2 18 0 27l-6 7c-7 3-14 3-21 3-6-1-12 1-18 2 2-3 5-5 8-6h19c5 0 9-3 12-6 6-7 7-16 6-25v-2z"/></g><g fill="#970800"><path d="M314 83c7-7 18-10 28-9 7 1 14 2 21 6 9 6 17 15 20 26v15c-2 8-7 16-14 21l-12 6c-3 1-4 4-5 6-4 7-6 15-7 23v36a125 125 0 002 12 129 129 0 006 19l7 14c-7-7-10-16-15-25-5-23-6-48 0-71l5-13c-9 0-18-1-27-4l5 13 1 14c1 18 2 36-1 54-2 10-4 20-8 30v-5l4-21 1-6 1-8a454 454 0 00-1-50c0-7-3-14-5-21-1-3-4-5-6-7-8-7-12-18-12-28s4-20 12-27m18-5a32 32 0 00-26 33c6 4 14 4 21 3v-7l3-7c6-5 17-5 22 1 3 4 3 10 2 14l-2 4c3 4 7 8 12 10 3 2 7 2 11 2 4-7 7-14 5-22-2-11-10-21-20-26-8-5-18-7-28-5m2 24c-2 2-7 4-4 8v4c7 0 13 1 19 3 2-3 3-6 2-10-2-7-12-10-17-5m-28 14l2 6c4 15 21 25 37 23h3c9 0 18-3 24-10-5-1-9-2-13-5-6-3-9-9-16-11-5-2-10-2-15-1h-16v-1l-6-1zM175 81c9-3 20-3 29 0 11 4 19 14 21 25 3 8 1 17-2 25-2 6-6 10-11 14l-2 6c-2 14-3 28-2 42l3 25c0 2 0 4 2 5v3l1 8c1 5 1 10 3 14l2 5 2 7 1 4a346 346 0 00-2 0c-4-6-6-13-8-20-4-22-8-45-8-68l3-27c-8 4-17 5-26 5l4 9c9 18 11 38 9 58-1 9-3 18-6 26-3 6-5 12-10 18l3-8 2-3 1-5 4-11 1-7v-2l1-4 1-29c-2-14-5-29-15-41-4-3-10-3-15-6-12-8-19-24-15-39 5-13 16-25 29-29m-16 15c-5 4-8 11-10 17-3 10 1 20 8 28l9-2c6-2 10-8 13-13l-4-5c-1-4-2-9 1-13 4-6 13-8 19-5 4 2 6 6 7 9v4c5 1 11 0 17-2l3-5c-1-10-8-19-17-23-6-4-14-4-22-3-9 2-18 5-24 13m23 10l2 2c-5-1-8 5-8 9h3c-2 2 0 5 2 6l9-5 9-3c0-4-3-8-7-10-3-1-7 0-10 1m25 14c-5 0-11-1-16 1s-9 6-11 11l-11 10-7 2c9 8 23 7 34 5 7-2 14-5 17-11l3-1c5-7 7-14 7-22-5 3-10 5-16 5zM83 189c2-2 6-5 9-3 8 7 16 14 21 23 2 4 3 9 2 14 8 2 17 4 23 10l-7-1a227 227 0 00-12-5l-7-5c0-4 0-9-3-12-5-9-12-15-20-22l-3 4c-2 2 0 4 0 7 2 5 7 9 10 13 1 3 0 6-1 8 0-8-9-12-12-19-1-4-3-9 0-12z"/><path d="M142 213c-1-10 6-19 16-20 2-1 5 0 6 2 0 5-4 9-5 14 0 7 5 12 6 18h-4c-1-6-6-11-6-18l5-13v-1c-4 1-9 3-11 7-4 4-4 10-3 15 0 4 3 8 4 12 1 2-1 4-3 5l-4-1 4-3c-2-6-5-11-5-17zM472 221c2-1 6-2 7 1 2 4 0 9-3 12-4 5-10 10-17 12-4 2-9 1-14 0l-3-2c7-1 14 1 20-3 6-3 11-7 13-13 1-1 2-5-1-5-5 2-9 7-15 9-9 1-18-1-28-2 9-4 17 1 26-1 6-1 9-7 15-8zM129 271a73 73 0 0130 1h1l12 5a77 77 0 0120 18 78 78 0 0113 30v4a288 288 0 01-2 19l-6 8 4-15c3-12 0-24-5-35-7-14-20-26-35-31-10-3-21-3-31-1-9 1-17 4-24 9l-2-3 16-7 9-2z"/><path d="M123 286c8-3 16-3 24-4 12 1 24 3 33 10 6 5 10 12 12 18 5 13 4 26 1 38-2 10-10 18-18 23l-21 6c-7 2-13 0-20 0l-1 1c-2-16-5-34-18-46-3-4-10-6-15-4-3 3-2 8-1 11 2 8 4 15 8 21l-2 2c-5-5-8-11-10-17-3-6-2-13-2-19 5-3 10-6 13-12 4-6 5-13 3-20l14-8m14 20c-4 1-9 4-10 9s3 12 8 12h13c6-1 9-8 7-13-3-6-11-9-18-8zM369 294l12-2c9 2 17 7 26 8 8 2 16 1 24 1 6 1 13 1 17 6 6 4 10 11 11 18 0 6-2 12-4 17-1 5-2 11-6 15-4 7-10 12-12 20 12-4 21-14 26-26l6-14c0 3 1 5 4 7 6 7 11 16 13 25 1 8 2 16 0 24-1 10-7 18-15 22-7 4-15 7-23 6-10-1-18-10-20-20-1-5 0-11 2-16 2-8 6-15 11-21l8-11c2-3 2-6 2-9h-5l-3 1a62 62 0 00-33 58c0 10 5 20 13 26l8 4c13 8 31 7 45 1 10-4 18-12 22-22a76 76 0 00-7-72c-6-8-14-15-22-22v4c-1-4-3-9-6-12-3-6-5-12-9-17l3-1c5 6 6 15 13 19 6 3 15 6 22 3l5-2c-1 3-3 5-6 6-6 2-13-1-19-2 12 11 24 22 30 37 5 16 8 34 3 50-3 16-15 29-30 35-10 4-22 6-33 3-7-1-13-4-18-8l-4 2v-4l-11-15-2-3v-12l-10 5-2-2 10-6c3-3 3-8 3-12h-10v-1h10l3-10c-9 0-19-2-27-6 0-8 0-16-2-23-3-15-11-28-13-43-1-3-1-7 1-10l-1 1m28 20c-7 2-14 9-10 17 3 4 9 4 13 4 4 1 9 3 13 0 5-4 4-14-1-17s-10-5-15-4m71 31c-1 4-2 9-5 13l-4 9c-1 6-3 13-6 19s-8 11-12 16l12-1c5-1 8-6 11-9 8-13 9-29 6-43l-2-4m6 7v22c-1 8-5 16-10 23l10-9c3-5 4-11 4-17 1-4 2-7 1-11l-5-8m-26 23l-5 15-11 13c1 0 3 0 4-2 9-8 17-19 19-31l-7 5m30 10c-3 9-10 16-19 18s-17 3-26 3c2 5 7 10 13 11 7 2 15-1 22-4 9-5 16-15 16-25l-1-17c-2 4-2 10-5 14m-44-3c-2 5-4 11-3 16 6-5 11-12 12-20l-9 4zM85 301l4-8c2 4 2 9-1 13h-5l2-5zM348 297l1 6c-2 3-4 5-4 8l-2-6 5-8zM59 311l7 7c-1 5-2 10-6 13-5 5-12 6-19 7-8 1-17-1-25 3-3 2-5 5-7 9l-1 3v5c1 1 2 2 3 1 5-4 9-10 15-11l31-2c5 0 11-3 14-7h3c-2 5-8 7-12 11l-7 9-5 1 7-10H42c-6 1-12 0-18 2-5 2-7 7-12 10-3 2-9-1-8-6 1-7 4-15 11-18 8-5 18-3 27-4 5-1 12-2 16-6 3-2 4-5 5-8l-4-7v-2zM266 325c11-2 23 0 32 7 14 9 19 28 15 43-2 8-11 10-18 8l-17-10c-2-2-5-3-8-2-4 1-7 4-10 7-5 3-11 6-17 6-8-1-14-8-14-15-2-15 7-30 20-38 5-3 11-5 17-6m-7 6c-16 3-28 20-27 37 0 4 3 8 6 11h11c7-2 11-7 17-11 4-2 9-2 13 1 6 3 11 8 17 10 4 2 9 1 13-2l2-8c1-10-2-20-8-27-5-7-13-11-21-13-8-1-15 0-23 2zM80 328h3c-2 6-1 12 0 18 2 11 9 21 18 28 2 2 5 2 8 2v5l-2-1-5-2-8-6-4-4-1-2-4-5-1-2-2-4c-2-5-3-11-3-17l1-10zM347 353c4 6 8 14 16 16l-2 4c-6-4-11-10-15-16l1-4zM141 386c12 1 25-1 35-9-1 3-3 6-6 8l-4 1c-9 4-19 3-28 3-3 0-3-3-4-5l7 2zM115 465c5 0 8-2 12-5l2 2c-3 3-7 6-12 6H98c-3 1-6 3-8 6l-1 6 15-3c7 0 13 1 20-1s13-6 16-12l3 1c-5 10-16 15-27 15-6 1-13-1-19 1l-8 2c-2 0-3-3-3-5 0-6 4-10 10-12s13-2 19-1z"/></g><g fill="#e9ccb1"><path d="M332 78c10-2 20 0 28 5 10 5 18 15 20 26 2 8-1 15-5 22-4 0-8 0-11-2-5-2-9-6-12-10l2-4c3 9 16 8 19 0 3-4 1-10-1-14-4-8-11-13-19-17-4-3-7-5-12-6h-9zM159 96c6-8 15-11 24-13 8-1 16-1 22 3 9 4 16 13 17 23l-3 5c-6 2-12 3-17 2v-4c4-1 9-3 10-8 2-5-2-10-6-13-8-5-19-6-28-5-7 1-13 7-19 10zM306 111c-1-3 0-7 1-10v6c6 4 12 3 19 2l1-2v7c-7 1-15 1-21-3zM175 121l4 5c-3 5-7 11-13 13l-9 2c5-4 10-6 14-11l4-9z"/></g><g fill="#fffcf5"><path d="M307 101c3-12 13-21 25-23h9c5 1 8 3 12 6 8 4 15 9 19 17 2 4 4 10 1 14-3 8-16 9-19 0 1-4 1-10-2-14-5-6-16-6-22-1l-3 7-1 2c-7 1-13 2-19-2v-6zM159 96c6-3 12-9 19-10 9-1 20 0 28 5 4 3 8 8 6 13-1 5-6 7-10 8-1-3-3-7-7-9-6-3-15-1-19 5-3 4-2 9-1 13l-4 9c-4 5-9 7-14 11-7-8-11-18-8-28 2-6 5-13 10-17z"/><path d="M334 102l5 1c-1 4-6 5-9 7-3-4 2-6 4-8zM342 102c3-1 3 1 3 3-1-1-4-1-3-3zM187 107c1-1 4 0 3 2-1 1-4 0-3-2zM176 117c0-4 3-10 8-9l1 2c-1 3-4 5-6 7h-3z"/></g><g fill="#4a0000"><path d="M334 102c5-5 15-2 17 5 1 4 0 7-2 10-6-2-12-3-19-3v-4c3-2 8-3 9-7l-5-1m8 0c-1 2 2 2 3 3 0-2 0-4-3-3zM182 106c3-1 7-2 10-1 4 2 7 6 7 10l-9 3-9 5c-2-1-4-4-2-6s5-4 6-7l-1-2-2-2m5 1c-1 2 2 3 3 2 1-2-2-3-3-2z"/></g><g fill="#6e0000"><path d="M130 274a57 57 0 0166 32c5 11 8 23 5 35l-4 15c-7 6-16 12-21 21-10 8-23 10-35 9l-7-2-1-6 1-1c7 0 13 2 20 0l21-6c8-5 16-13 18-23 3-12 4-25-1-38-2-6-6-13-12-18-9-7-21-9-33-10-8 1-16 1-24 4l-14 8-3-11c7-5 15-8 24-9zM370 293c2-6 8-10 14-13 6 7 14 13 24 14 15 0 31-5 46-1 4 5 6 11 9 17 3 3 5 8 6 12v15l-6 14c-5 12-14 22-26 26 2-8 8-13 12-20 4-4 5-10 6-15 2-5 4-11 4-17-1-7-5-14-11-18-4-5-11-5-17-6-8 0-16 1-24-1-9-1-17-6-26-8l-12 2 1-1zM345 311c0-3 2-5 4-8 0 7 1 13 3 19 4 9 6 18 8 28 2 6 3 12 3 19-8-2-12-10-16-16 3-14 2-28-2-42zM83 328l10-2c0 6-1 13 2 19 2 6 5 12 10 17l4 14c-3 0-6 0-8-2a45 45 0 01-18-46zM384 369c8 4 18 6 27 6l-3 10h-17l-9-3 2-13z"/></g><g fill="#cd0600"><path d="M259 331c8-2 15-3 23-2l-5 4v9c-2 4-8 5-11 2l-1-11c-1-2-4-2-6-2zM258 361c8-4 19-5 28-2 9 4 16 11 23 18-4 3-9 4-13 2-6-2-11-7-17-10-4-3-9-3-13-1-6 4-10 9-17 11h-11c7-6 11-14 20-18z"/></g><path fill="#ea2919" d="M282 329c8 2 16 6 21 13 6 7 9 17 8 27l-2 8c-7-7-14-14-23-18-9-3-20-2-28 2-9 4-13 12-20 18-3-3-6-7-6-11-1-17 11-34 27-37 2 0 5 0 6 2l1 11c3 3 9 2 11-2v-9l5-4z"/></svg>