<svg width="683" height="683" viewBox="0 0 512 512" xmlns="http://www.w3.org/2000/svg"><g fill="#e1ba9a"><path d="M153 45h2l-2 1v-1zM353 47l1 1-1-1zM143 55c0-1 0-2 2-2l-2 2zM163 53c2 0 2 4 0 4v-4zM341 57l1-1v1h-1zM161 62l1-1-1 1zM135 63l1-1-1 1zM369 62zM158 66l1-1-1 1zM131 67l1-1-1 1zM150 74l1-1-1 1zM121 75l1-1-1 1zM118 77l1-1-1 1zM135 84l1-1-1 1zM105 85l1-1-1 1zM335 84h2l-2 1v-1zM168 85h2v1l-2-1zM324 89l1-1-1 1zM97 89h0zM379 89l1 1-1-1zM93 92zM118 92l2-1v1h-2zM182 91l1 1-1-1zM115 93l2-1v1h-2zM387 92l2 1h-2v-1zM412 92l1 1-1-1zM90 94l1-1-1 1zM112 94l2-1v1h-2zM390 93l2 1h-2v-1zM109 95l2-1v1h-2zM121 95l1-1-1 1zM393 94l2 1h-2v-1zM89 96h1v1l-1-1zM188 96zM98 98l3-1c-1 2-2 2-3 1zM90 98zM389 101l1 1-1-1zM307 104l1-1-1 1zM387 105c7 8 10 19 8 29-1 8-3 16-9 21-5 2-11 2-17 3 4-1 7-3 10-6 4-4 8-9 9-15 4-10 3-22-1-32zM192 106l5 10c3 9 4 18 1 27-3 11-12 21-24 26-5 2-10-2-15-3l15-4c6-3 10-8 14-13 5-8 7-18 6-28l-2-15zM301 115h1l-1 2v-2zM300 122c-1-1-1-2 1-3l-1 3zM398 122l1 4c0 5 0 11-2 15l1-10v-9zM107 132v-8c2 5 2 11 5 17 5 9 13 16 22 20-5-1-11-1-16-3-7-7-10-17-11-26zM299 128c-1-1-1-4 1-4l-1 4zM104 130c-2 0-2-4 0-4v4zM202 126h1v12h-1v-12zM303 130c3 6 5 13 10 18 6 9 16 15 27 16l-10 5c-3 0-5-1-7-3-6-4-12-8-15-14-4-7-6-15-5-22zM354 132l4-1 2 2-5 3-1-4zM300 141l1 2h-1v-2zM106 144l1 2h-1v-2zM200 144h1c1 1-1 4-2 4l1-4zM395 148l1-2v2h-1zM107 147l1 2h-1v-2zM198 151l1-1-1 1zM303 150l1 2h-1v-2zM393 152l1-1-1 1zM198 153v-1 1zM391 155l1-1-1 1zM110 163l1 2-1-1v-1zM388 164l1-1-1 1zM315 165zM386 166zM111 166v0zM315 170h1l-1 2v-2zM314 173h1l-1 2v-2zM131 176l3 1c-1 1-2 0-3-1zM135 177l2 1h-2v-1zM358 181l1-1-1 1zM146 185zM190 187c1 0 3 3 2 4l-2-4zM150 188l1 1-1-1zM349 191l2-2c0 1 0 2-2 2zM155 192l1 1-1-1zM161 197l1 1-1-1zM196 198l1 1-1-1zM293 204c1-2 5-1 7-1l-1 1h-6zM207 204h11v1h-11v-1zM233 207h2v1l-2-1zM331 209l1-1v2l-1-1zM256 210h12l-12 1v-1zM365 216h2v1l-2-1zM368 217h2v1l-2-1zM373 219h2v1l-2-1zM441 268c1 0 3 3 2 4-2-1-2-2-2-4zM104 284l1-10-1 10zM445 279h1v2l-1-2zM445 303l1-2v2h-1zM87 326l1 2h-1v-2zM88 332l1 3c-1-1-2-2-1-3zM90 343l1 2h-1v-2zM381 361c2-1 4-2 6 0h-6zM323 366l1-2v2l-1 6-1-1 1-5zM302 368c2 0 1 3 0 4v-4zM189 378l5 2-3-1v2l-2-3zM301 388v-8 8zM367 383l1-1v1h-1zM232 384l1 5c-2 0-2-4-1-5zM145 386l1 2h-1v-2zM368 387l1 2h-1v-2zM328 390l4-1c-1 2-3 1-4 1zM146 390l1 2h-1v-2zM290 392l2 4c-2 0-3-2-2-4zM380 393l1-1-1 1zM147 394l1 2h-1v-2zM302 395l1 2-1-2zM204 398l1 9-1-9zM149 401l1 2h-1v-2zM219 406l1 1-1-1zM287 408l3-1c0 2-2 1-3 1zM152 408l1 2h-1v-2zM205 410h1v2l-1-2zM224 411l1 1-1-1zM283 420l1 1-1-1zM295 425h10-10zM343 439v2-2zM190 444l2 1h-2v-1zM220 446zM315 445l2-1v1h-2z"/></g><g fill="#940701"><path d="M155 45c4 0 8 4 8 8v4l-1 4-1 1-2 3-1 1-7 7-1 1c-4 3-9 7-14 9l-1 1-15 7-2 1h-1l-2 1h-1l-2 1h-1l-2 1-5 1-2 1h-1l-3 1-7 1-1-1v-2-2l1-1 2-1 1-1 3-2h1l7-4 1-1 12-7 1-1 2-1 1-1 9-7 1-1 3-3 1-1 7-7 2-2 1-1v-1a24 24 0 019-6m-2 5c-9 8-16 18-26 25l-14 9-7 5c-4 1-7 4-11 6 11-2 23-6 33-11 12-7 24-14 31-26 2-2 1-5-1-7l1-1h-1c-2-2-4-2-5 0zM342 56c-1-6 6-13 11-9l1 1 15 14 1 1 10 8c6 6 13 10 20 15l12 6 1 1c2 1 1 3 1 5-1 2-4 1-6 0-4-1-9-1-13-3l-2-1h-1l-2-1h-1l-2-1-7-2-1-1c-10-5-21-11-30-19-3-4-7-8-7-13v-1m5-5l-1 3v5c2 5 7 9 11 13 15 11 32 20 50 22l-12-8c-4-2-7-5-12-6-1-2-3-5-6-5-6-8-15-13-21-21-2-2-5-6-9-3zM143 106c7-3 16-1 23 3 10 7 14 22 8 33l-11 11c-7 2-14 3-20 1-7-1-13-4-16-10-5-8-5-19 0-27 3-6 9-9 16-11m-9 8c-3 2-4 5-5 7h-1c-2 6-3 14 1 20l4-5c-2 4-1 8 2 11 3 4 9 8 14 5l8-1v-1l5-2c6-1 9-8 11-13 0-3 1-5-1-7l-8-5 7 2c3-3 0-6-1-9-5-5-12-9-19-8-6-1-13 1-17 6z"/><path d="M104 130l3 2c1 9 4 19 11 26 5 2 11 2 16 3l25 5c5 1 10 5 15 3 12-5 21-15 24-26l2 1-1 4v2l-1 1v2c-4 6-8 11-14 14l1 7 1 2v1l1 2 3 8 2 4 4 7 1 1 3 6 2 2 1 2 1 2 2 4 7 14 2 4c3 9 8 18 10 28-2-1-3-4-4-6-2-9-7-17-11-25-6-14-15-27-23-41l-7-19-6 2c-3 1-4 5-7 6l-22 1c4 5 10 8 15 12 15 14 29 28 40 45l14 22 5 13a273 273 0 00-14-22l-2-3-6-10a105 105 0 00-8-10l-11-13-4-4-12-11-1-1-5-4-1-1-4-3-1-1-3-2-1-1-9-7-2-1h-1l-3-1h-1l-3-1-6-1-10-7v-2l-1-2c-1-2 1-4 3-5-2-3-5-6-5-9l-1-2v-1l-1-2-1-6-1-4v-4m10 31l1 4c3 5 9 6 14 7 13 4 26 6 39 2-3-3-8-4-12-4-5-3-11-3-17-5l-25-4zM396 131h2l-1 10v2l-1 2v1l-1 2-1 3-1 1-1 2-1 1-1 1c-2 2-1 4-1 6v1l-1 1-1 1-1 1c-6 4-13 5-19 8-4 0-6 4-8 6l-1 1-7 8-2 2-7 8c-4 3-6 7-10 9l-1 1-4 3-9 8-9 9-11 13-3 6c-4 4-7 9-9 14l-5 2 7-13c6-8 10-16 17-23 11-11 24-21 35-33l17-19c-8 1-16 2-24 1-2 0-3-2-4-3l-9-5-4 10v1c-7 16-17 30-25 46a746 746 0 00-17 39h-4l3-8a168 168 0 017-16l5-10 4-8 2-5 6-10 2-4 1-1 9-15 5-13 1-2v-1l1-2 1-3-1-1-1-1c-2-2-6-4-7-7 0-1 0-3-2-3l2-3c3 6 9 10 15 14 2 2 4 3 7 3l10-5 29-6c6-1 12-1 17-3 6-5 8-13 9-21l1-3m-17 29l-28 5c-6 1-11 2-16 6-2 0-2 2-3 3h1c7 2 14 0 20 0l21-6c5-2 10-4 13-9l-8 1zM341 265c4-2 9-2 14-2h16a160 160 0 009 2l13 7 4 4 6 7c3 4 4 9 6 14l1 16c-1 8-3 16-8 22-7 10-17 18-28 21l-8 2h-15a115 115 0 01-10-2 426 426 0 01-10-3c-6-4-12-8-17-14l-4-8v-1l-2-5-1-15v-5c1-7 3-14 7-20l3-5 7-5 4-4 9-4 4-2m17 17l-8 17-5 12c4 1 4-3 6-5 3-8 8-16 10-24h-3m-10 3l-8 15c-1 2-2 5-1 7 3 1 4-4 5-6 2-6 7-11 8-17l-4 1m53 2c-1 6 1 13-1 20-2 10-8 18-15 25-6 5-14 9-22 10-12 2-25 0-36-7l-9-9c-3-3-4-6-6-10-2 4-1 9 1 13 1 4 2 8 5 10 4 4 8 9 14 11 8 3 16 6 24 6 8-1 16-1 23-5l13-7c3-4 7-7 9-12 3-5 6-11 6-17 2-6 0-12-1-19-1-3-2-7-5-9m-38 2c-2 5-6 10-6 15 4 0 5-4 6-7 1-2 4-6 0-8m-26 1c-2 4-4 8-4 12h3c2-4 4-7 4-12h-3zM142 272l7-2c7-1 13-1 19 1 0 11 7 20 14 28 5 7 13 11 19 17l-9 18c-2 5-7 8-11 12-6 3-12 7-19 7-10 2-22 1-31-5-6-4-12-9-16-15-3-5-4-10-8-14-1 8 0 17 5 25 4 8 10 16 18 19 12 6 26 5 38 3a47 47 0 0032-29c3-5 3-12 5-18 2 2 1 6 1 9-1 9-6 17-11 25l-4 3-12 9-2 2-4 1-11 2h-19c-8-2-16-5-23-10-6-6-11-13-14-21a117 117 0 01-2-23v-4l2-7 4-8 5-9 9-7 4-3c4-2 9-5 14-6m4 25l-17 23-1 6c1-1 3-1 3-3l12-17c2-3 6-6 6-10l-3 1m-13 3l-7 11c0 1-1 4 1 4l5-5c2-4 6-7 5-12l-4 2m9 15c-1 1-2 5 1 4 2-1 3-4 4-6l9-11-2-3-12 16m16-9c-2 2-5 5-5 9h3l6-9h-4zM225 291c3 1 4 3 6 5l12 12c4 2 8 5 13 3 7-4 12-10 17-16 2-2 4-5 7-3l-11 16c-4 5-9 10-16 11-5 0-10-3-14-6l-13-17c-1-1-3-4-1-5z"/></g><g fill="#ffdf8d"><path d="M153 50c1-2 3-2 5 0-4 2-6 6-9 8l-15 14c-6 5-13 11-21 12l14-9c10-7 17-17 26-25zM347 51c4-3 7 1 9 3 6 8 15 13 21 21-5-1-9-5-13-8l-17-16zM316 180h3c0 8-6 14-9 20a1054 1054 0 00-32 53l13-27c8-16 18-30 25-46zM160 191v-2l8 4 14 14 18 23a311 311 0 0114 28l-14-22c-11-17-25-31-40-45zM236 223c7-5 16-9 25-9h2l-8 4c-6 1-11 4-17 6l-2-1zM124 236c9-12 24-18 39-21h2l-6 3c-10 3-19 8-28 13l-7 5zM338 220v-3l12 12-6-1-6-8zM381 227c20 10 32 30 34 52v4l-8-22c-4-8-9-16-15-22l-11-12zM327 231l9 4c10 6 16 17 19 27-4-1-6-6-8-9-4-10-13-15-20-22zM364 248c-1-2-2-5-1-7 5 6 9 13 10 22h-3l-1-1-5-14zM172 272c1-10 5-20 12-27 0 5-3 8-4 13-3 7-4 15-1 23s10 15 16 21c9 7 19 14 26 23 4 7 7 15 4 23l-1-11c-2-8-9-13-14-19-10-8-20-14-28-24-5-6-11-13-10-22zM96 256c10-6 21-8 32-7-8 3-18 3-26 8-11 5-20 14-22 26-1 8-1 17 2 25 3 5 6 10 7 15-8-8-14-20-14-32 0-7 1-15 5-21s10-10 16-14zM435 270l-8-13c11 8 16 21 17 34 0 12-7 24-18 29 3-5 9-9 11-15 4-11 3-24-2-35zM393 272l-5-15c5 5 9 12 9 19l-4-4zM302 269l6-1c-4 4-10 8-16 9h-2l12-8zM287 313c1-8 6-16 12-21h2c-3 6-9 11-10 18-2 8 1 15-1 23-1 4-3 9-7 11 2-5 5-9 5-14-1-6-2-11-1-17zM250 306c9 1 16-8 24-12l-1 1c-5 6-10 12-17 16-5 2-9-1-13-3l-12-12-1-1c8 2 13 9 20 11zM258 337c4-7 10-13 17-16h1l-7 7-11 9zM96 349c5 3 8 8 13 12l14 10h-3c-11-3-20-12-24-22zM245 355l3 3c-1 12 0 25-2 37-1 9-3 19-10 25-1 2-4 3-6 4 6-6 9-14 11-22 3-16 1-32 4-47zM345 357l4 1c0 11-1 21-3 32-3 6-5 13-10 18-1 2-3 3-5 3 5-7 8-14 10-22 3-10 3-21 4-32zM263 358h2c-4 15-4 31-4 46 0 9 3 17 8 25l6 9c-10-4-14-15-17-25v-20l1-19c0-6 2-11 4-16zM314 372c3-4 4-9 6-14v8c-1 7-5 14-8 21-2 3-3 6-6 8l-1-3 9-20z"/><path d="M223 380c-5-6-13-11-14-19l12 11c2 2 5 4 6 7 3 5 2 11 5 15l6 9-2 4c-3-2-6-5-7-8-3-6-2-13-6-19zM373 390c6-7 13-16 23-16-4 3-10 5-14 9l-7 12-2-5zM148 380l3 1c2 11 5 22 10 32l1 7c-8-12-12-25-14-39v-1z"/></g><g fill="#fdaf5a"><path d="M158 50h1l-1 1c-3 7-8 12-14 17-10 8-21 15-33 20l-5 1 7-5c8-1 15-7 21-12l15-14c3-2 5-6 9-8zM346 54l1-3 17 16c4 3 8 7 13 8 3 0 5 3 6 5-6-1-12-5-18-8-7-5-15-10-19-18zM361 84h2v1l-2-1zM102 97l2-1v1h-2zM396 145l1-2v2h-1zM351 165l28-5c-3 3-7 3-11 4-11 5-23 8-35 10h-1c1-1 1-3 3-3 5-4 10-5 16-6zM114 161l25 4c6 2 12 2 17 5-6 2-13 1-20 0l-21-5-1-4zM185 174h1v2l-1-2zM186 177h1v2l-1-2zM316 179c3-1 7-1 10 1 3 3 3 7 2 11-3 8-9 14-14 20-6 6-11 13-16 21-3 6-8 12-10 19l-7 13-7 1 4-12a1054 1054 0 0131-53c4-6 10-12 10-20h-3v-1z"/><path d="M163 185c3-3 8-2 11 0a238 238 0 0138 53c3 6 5 12 9 17 1 2 2 5 4 6-2-10-7-19-10-28l15 6c-2-4-6-7-10-9l-4-5c-1-2 1-5 3-5l7 2c8 3 15 9 21 14l6 4-5-8c11-5 24-5 34 2l-6 3c-4 1-9 1-12 3h7l3 2c1 8-7 10-12 12l-16-2c7 6 18 6 27 5l-3 8-12-2c4 3 10 4 15 5 11 2 21-6 28-14l11-1-1 11-3 4-6 1-12 8h2c-5 2-12 2-17 5 8 0 16-2 23-4l12-5c4 0 10-1 14 2l-7 5c-10 3-20 7-26 16-4 5-6 12-8 19-6 2-13 3-18 8-6 4-10 11-14 17-4-3-8-5-11-9-3-3-4-7-6-11-8-10-16-18-26-26l-13-11c-3-4-4-9-4-14l11 7c-2-5-6-8-9-12l12-14 8 12c1 4 3 7 6 9l-5-13c0-2 0-4-2-6-3-8-7-15-12-22l-18-23-14-14-8-4 3-4m62 106c-2 1 0 4 1 5l13 17c4 3 9 6 14 6 7-1 12-6 16-11l11-16c-3-2-5 1-7 3l1-1c-8 4-15 13-24 12-7-2-12-9-20-11l1 1c-2-2-3-4-6-5zM284 205c1-1 2-2 3-1l-3 1z"/><path d="M200 205h6l-4 2-2-2zM221 205c1-1 5-1 5 1l-5-1zM280 206c1-1 2-2 3-1l-3 1zM276 207c1-1 2-2 3-1l-3 1zM236 208h2v1l-2-1zM167 211c0-2 3-2 4-1l-4 1zM241 210h2v1l-2-1zM343 212c1-1 2 0 3 1l-3-1zM261 214h6c3 2 8 3 10 6s0 5-3 6c-7-1-14-2-21 1l-8 2-7-5c6-2 11-5 17-6l8-4h-2zM163 215l4-1c3 2 8 2 8 7l-21 3c-8 2-16 6-21 12-3 3-8 6-11 2l2-2 7-5c9-5 18-10 28-13l6-3h-2zM326 218l7-4 5 3v3l6 8-17-1c-1-3-2-6-1-9zM360 215c1-1 2 0 3 1l-3-1zM362 222c1-2 4-1 6-1 5 1 9 3 13 6l11 12c6 6 11 14 15 22l8 22v-4l1 9h-7l-6-6c-2-8-3-17-9-23 0-4 0-9-2-13s-5-7-9-10l-19-10c-1-1-3-2-2-4zM129 226c0-2 1-2 2-2l-2 2zM175 233c5-3 11-3 17-3l2 2c-3 5-9 7-13 11s-6 8-8 13l-11-4c2-8 6-15 13-19zM318 231l6-1 3 1c7 7 16 12 20 22 2 3 4 8 8 9v1c-5 0-10 0-14 2-4-6-7-13-12-18-2-4-5-6-8-9-3-1-5-4-3-7zM357 236l6 5c-1 2 0 5 1 7l5 14h-3c-4-6-8-12-9-19v-7zM184 245l3-2c2 0 7 1 5 5-3 6-8 11-9 19-2 9 1 20 9 26l17 15c8 5 14 13 18 21 3 6 5 12 3 19-1 5-3 10-6 14l-5-2c5-7 6-15 5-23l1 11c3-8 0-16-4-23-7-9-17-16-26-23-6-6-13-13-16-21s-2-16 1-23c1-5 4-8 4-13zM106 248c1-1 2-2 3-1l-3 1zM295 248l5-1c-3 7-8 12-14 15 2-5 5-10 9-14zM103 248h2l-2 1v-1zM128 249c7 0 13 1 19 3l8 7c0 2 1 4-1 5-6 1-12-1-18-3-10-4-21-4-31-1s-19 13-21 24c-1 9 1 18 5 25l10 11c1 4-1 7-4 9l-6-6c-1-5-4-10-7-15-3-8-3-17-2-25 2-12 11-21 22-26 8-5 18-5 26-8zM424 266c-3-5-6-10-5-16 3 2 7 4 8 7l8 13c5 11 6 24 2 35-2 6-8 10-11 15l-1 2-3-2 1-8c3-5 8-7 11-12 2-6 3-13 0-18-2-7-7-11-10-16z"/><path d="M378 256l4-3 6 4 5 15-13-7-2-9zM109 272c2-1 6-2 7 2s-1 9-1 14l-5 9c-3-8-3-17-1-25zM444 275h1v2l-1-2zM419 277v4c-2 0-2-3 0-4zM446 283c2 0 2 3 1 4l-1-4zM71 286h1v8c-2-2 0-5-1-8zM93 297c-1-3-2-7 0-10v10zM299 292l3-2c1 2 2 4 1 7l-7 12c-2 5-2 11-2 16 0 9-3 19-9 26l-5 5-2-4 5-8c4-2 6-7 7-11 2-8-1-15 1-23 1-7 7-12 10-18h-2zM419 299c-2-1-2-5 0-5v5zM444 306l1-2v2h-1zM276 321l2 5-7 5-11 9-4-1 1-2h1l11-9 7-7zM417 331c-1-1 0-2 1-3 1 2 0 3-1 3zM416 338l1-4c1 1 1 4-1 4zM240 336l8 7c-1 2-1 5-3 7l-2 1h-4c1-5 2-10 1-15zM414 347l1-6c0 2 1 6-1 6zM94 343c2 0 5 0 6 3l11 13 17 13h-5l-3-1h3l-14-10c-5-4-8-9-13-12l-2-6zM308 347l4-2 7 11c2 3 2 7 2 10h-1v-8c-2 5-3 10-6 14l-9 20c-1-4-2-9 0-14 2-1 4-3 4-6 3-8-2-16-1-25zM413 349c2 1 2 4 0 4v-4zM201 356c1-3 3-4 5-6l1 4 2 7c1 8 9 13 14 19 4 6 3 13 6 19 1 3 4 6 7 8l-2 6c-5-2-9-5-11-9-5-7-4-16-10-22-5-4-10-8-13-13l1-13zM325 357c1-2 4 1 2 3l-2-3z"/><path d="M248 358l2 8-1 32c0 10-2 19-8 27-5 7-13 10-20 13-9 2-19 2-28 0-10-3-19-10-28-15l-3-3-1-7c-5-10-8-21-10-32l-3-1c3-3 7-3 10 0l4 9c4 12 13 24 25 29 9 7 20 11 31 10 4 0 8-2 12-4 2-1 5-2 6-4 7-6 9-16 10-25 2-12 1-25 2-37zM265 358h1c1 7 0 13-1 19-2 11-1 21 1 32 1 4 3 9 7 12 3 3 8 4 12 5 10 3 21 4 30-1 7-3 12-8 16-14 2 0 4-1 5-3 5-5 7-12 10-18 2-11 3-21 3-32a115 115 0 005 1c-1 14-3 29-7 43-4 12-11 23-21 31l-7 6c-13 7-30 6-44-1l-6-9c-5-8-8-16-8-25 0-15 0-31 4-46zM387 373c4-3 7-7 12-8 2-1 4 0 5 1-2 3-4 6-8 8-10 0-17 9-23 16l-1-3 5-8c3-2 7-3 10-6z"/><path d="M339 374c0-1 2-3 2-1v3l-2-2zM119 374l3 1c-1 1-2 0-3-1zM301 377l1-3-1 3zM124 375h1l6 1c-2 0-6 1-7-1zM320 377zM142 376c2 0 2 0 2 2l-2-2zM359 386c0-2 0-5 2-6 0 2 0 5-2 6zM323 382c1 1 2 2 1 3l-1-3zM334 385l1-2-1 2zM170 385c0-2 3-2 3 0h-3zM195 386v7c-2-2-2-5 0-7zM337 390l1-2-1 2zM358 392l1-4c1 1 1 4-1 4zM234 392l1 2h-1v-2zM301 392l1 2-1-2zM274 396c-1-3 3-2 2 0h-2zM335 396l1-2-1 2zM188 396c1-2 3-2 4 0h-4zM237 397l2-2c2 1-1 5-2 2zM274 397c2 3 1 7 1 10l-1-10zM292 397c1 2 2 5 0 7v-7zM334 399l1-2-1 2zM276 411zM196 420l2 1h-2v-1zM201 422l2 1h-2v-1zM204 423l2 1h-1l-1-1zM209 424l4 1c-1 1-4 1-4-1zM217 425l4-1c0 2-3 2-4 1zM291 424h2v1l-2-1zM228 444l2-1v1h-2zM278 443a263 263 0 010 1v-1zM318 444l2-1v1h-2zM281 444c2 0 4 0 6 2-2 1-5 0-6-2zM193 445l4 1c-1 1-4 1-4-1zM311 446l3-1c-1 1-2 2-3 1zM200 446l5 1c-1 1-5 1-5-1zM213 447l5-1c0 2-4 2-5 1zM290 446l3 1c-1 1-2 0-3-1zM305 447l3-1c-1 1-2 2-3 1z"/></g><g fill="#fffcf5"><path d="M146 52v-1 1zM328 91c11-5 24-6 36-2 9 2 18 7 23 16 4 10 5 22 1 32-1 6-5 11-9 15-3 3-6 5-10 6l-29 6c-11-1-21-7-27-16-5-5-7-12-10-18 0-17 9-33 25-39m21 14c-10 2-19 8-22 18-5 13 6 29 19 31 8 1 17-1 24-6 11-7 12-26 2-36-6-5-15-9-23-7zM129 94c10-6 23-9 34-7 12 2 23 9 29 19l2 15c1 10-1 20-6 28-4 5-8 10-14 13l-15 4-25-5c-9-4-17-11-22-20-3-6-3-12-5-17 2-13 11-24 22-30m14 12c-7 2-13 5-16 11-5 8-5 19 0 27 3 6 9 9 16 10 6 2 13 1 20-1l11-11c6-11 2-26-8-33-7-4-16-6-23-3zM305 106h1l-1 2v-2z"/><path d="M334 117c2-4 9-7 13-3 2 3 1 7 0 10-3 2-5 4-8 4-4-2-7-7-5-11zM129 121c1-2 2-5 5-7 4 1 8 2 9 6 2 4-1 7-4 9-2 0-6 0-8-2l-2-6zM335 134c2-4 8-5 12-4 7 3 9 14 4 20-7 3-14-2-16-8v-8zM138 131l7 1c3 1 5 4 7 7 1 4 1 9-3 13-5 3-11-1-14-5-3-3-4-7-2-11l5-5zM104 134l1 4c-2 0-2-3-1-4zM154 134l6 2c2 4 3 8 2 12l-5 2-4-12 1-4zM355 136l5-3c3 5 5 11 2 16l-4-2c-2-3-2-7-3-11zM306 155c2 0 2 2 2 3l-2-3zM133 223l1-1h1l-2 1zM110 247c0-1 1-2 3-1l-3 1zM176 386h2v1l-2-1zM304 398h4c-1 2-3 1-4 0zM279 401l2 2-2-2zM230 415c1-1 3 2 1 2l-1-2zM347 420l1-2v2h-1z"/></g><g fill="#f38203"><path d="M158 51c2 2 3 5 1 7-7 12-19 19-31 26-10 5-22 9-33 11 4-2 7-5 11-6l5-1c12-5 23-12 33-20 6-5 11-10 14-17zM346 59v-5c4 8 12 13 19 18 6 3 12 7 18 8 5 1 8 4 12 6l12 8c-18-2-35-11-50-22-4-4-9-8-11-13zM379 160l8-1c-3 5-8 7-13 9l-21 6c-6 0-13 2-20 0 12-2 24-5 35-10 4-1 8-1 11-4zM115 165l21 5c7 1 14 2 20 0 4 0 9 1 12 4-13 4-26 2-39-2-5-1-11-2-14-7z"/><path d="M316 179l4-10 9 5c1 1 2 3 4 3 8 1 16 0 24-1l-17 19c-11 12-24 22-35 33-7 7-11 15-17 23 2-7 7-13 10-19 5-8 10-15 16-21 5-6 11-12 14-20 1-4 1-8-2-11-3-2-7-2-10-1zM174 172l6-2 7 19c8 14 17 27 23 41 4 8 9 16 11 25-4-5-6-11-9-17-5-11-12-21-19-31-5-8-11-16-19-22-3-2-8-3-11 0l-3 4v2c-5-4-11-7-15-12l22-1c3-1 4-5 7-6zM275 210c7-1 15-4 22-2l-6 10-16-8zM203 209c13-2 27 0 40 5l-10 7c-9-5-19-8-29-10l-1-2zM327 212l6 2-7 4c-1 3 0 6 1 9-4-1-7-4-9-7l9-8zM167 214l11-1 11 13c-11 2-23 0-34 4-9 3-17 8-22 15h-15l4-7c3 4 8 1 11-2 5-6 13-10 21-12l21-3c0-5-5-5-8-7zM267 214c4 0 8 0 12 2 4 1 8 3 10 7l-4 8-11-5c3-1 5-3 3-6s-7-4-10-6zM206 215c7 1 14 3 20 7l-7-2c-2 0-4 3-3 5l4 5-7-1-7-14zM342 216c9 0 18 2 26 5-2 0-5-1-6 1s1 3 2 4l19 10c4 3 7 6 9 10s2 9 2 13l-7-11c-3-4-8-7-12-9-4-3-8-3-13-4-3-1-6-4-8-7l-12-12zM298 242l11-13 15 1-6 1c-2 3 0 6 3 7 3 3 6 5 8 9-5-3-9-6-15-6-5-1-11 2-16 2v-1z"/><path d="M156 233c5-2 11-2 16-2-7 5-11 12-13 20l-14-3c1-6 6-11 11-15zM338 231c7 0 14 1 19 5v7c1 7 5 13 9 19h-8c-2-7-5-14-9-20l-11-11zM187 243l10-7 6 10c-4 7-11 12-14 20-2 8 0 17 7 22l15 12 18 19c4 5 7 12 8 19 0 12-4 24-12 33l-8-7 2-4 5 2c3-4 5-9 6-14 2-7 0-13-3-19-4-8-10-16-18-21l-17-15c-8-6-11-17-9-26 1-8 6-13 9-19 2-4-3-5-5-5zM137 247c2-4 5-7 8-8l-4 8h-4zM366 239c6 1 10 4 15 7l3 5c-4-3-9-4-13-6l-5-6zM271 240l9 1-5 11c-4 2-9 2-13 2 5-2 13-4 12-12l-3-2zM405 242l14 8c-1 6 2 11 5 16s8 9 10 16c3 5 2 12 0 18-3 5-8 7-11 12l-1 8 3 2-7 2c-1-6-3-12 0-17 2-3 6-4 7-8 5-6 4-15 0-21-1-4-4-7-7-10-3-2-3-6-5-9l-8-17zM304 246c4-2 9-2 14-1 0 7-3 14-7 19l1-11-11 1 3-8zM320 252l2-5c3 1 5 3 7 6l-9-1zM373 249l9 4-4 3 2 9-4-1-3-15zM147 252c8 1 17 3 24 7l-3 12c-6-2-12-2-19-1-10-3-21-8-33-6-12 1-23 10-26 21-2 7 0 14 3 20 3 5 7 8 11 11l1 18-1 1c-4-1-6-4-9-6 3-2 5-5 4-9l-10-11c-4-7-6-16-5-25 2-11 11-21 21-24s21-3 31 1c6 2 12 4 18 3 2-1 1-3 1-5l-8-7zM320 256c3-1 7 0 10 1 4 1 5 6 7 10l-9 4-16-2 8-13z"/><path d="M111 269c4-2 8-2 13-2v14l-9 7c0-5 2-10 1-14s-5-3-7-2c0-1 0-3 2-3zM127 268c5 0 11 1 15 4-5 1-10 4-14 6-3-3-2-7-1-10zM403 282l6 6h7l-2 16-5-7c-2-5-3-10-6-14v-1zM302 290c4-3 8-4 12-5-4 6-6 13-7 20-4 2-6 7-7 12v14c0 8-4 15-8 21-4 5-8 10-10 16-1 6-1 13 2 18 2 5 5 9 5 14 1 1 0 3-1 4l-7-6c-3-5-7-9-7-15l1-22 3-9 2 4 5-5c6-7 9-17 9-26 0-5 0-11 2-16l7-12c1-3 0-5-1-7zM96 303c0-6 4-12 8-15l2 17-2 7c-3-3-6-5-8-9zM411 309c4 10 5 21 1 31-3 7-11 12-18 15-6 3-14 3-20 1a50 50 0 0036-43l1-4z"/><path d="M303 328c-1-6-1-13 4-18l1 15c0 2-3 3-5 3zM275 321l8-3c1 5 2 9 1 14-3 2-8 3-11 6-5 4-7 11-12 15l-7-9 2-5 4 1 11-9 7-5-2-5h-1zM210 323l8 9c3 4 4 10 3 15-4 0-7-4-8-7l-3-17zM206 328c6 8 0 17 1 26l-1-4c-2 2-4 3-5 6l-1 13-5-7v-9c5-8 10-16 11-25zM91 330l15 9c3 8 8 15 14 21 7 5 15 8 23 10l-1 3h-17l-2-1h5l-17-13-11-13c-1-3-4-3-6-3-2-4-2-9-3-13zM304 332l6-2v1c0 4 0 9 2 14l-4 2c-1 9 4 17 1 25 0 3-2 5-4 6v-17c-1-5-4-8-7-12l6-17z"/><path d="M269 348c3-5 7-10 13-11l-8 15-5-4zM323 355c-3-6-8-10-9-16 5 6 11 10 17 14l-8 2zM248 343l10 11 1 6c-3-1-3-6-6-7-2-3-5-3-8-3 2-2 2-5 3-7zM211 344l9 7c-1 4-3 7-6 10-5-4-5-11-3-17zM397 357c5-1 9-5 13-8v4c-1 4-3 9-6 13-1-1-3-2-5-1-5 1-8 5-12 8-3 3-7 4-10 6l-5 8c-3-7 3-15 9-18l6-2c1-2 2-5 4-6l6-4zM238 351h5c-2 3-2 7-2 10l-3-4v-6zM296 352l6 9v3c-5 3-11 6-14 11l-3 3c0-5 1-9 3-14l8-12z"/><path d="M246 353c2 1 5 2 6 4 3 5 3 11 3 17 0 12 0 23-2 34-1 10-6 20-14 26-11 9-26 11-40 9-13-2-25-10-34-20 9 5 18 12 28 15 9 2 19 2 28 0 7-3 15-6 20-13 6-8 8-17 8-27a434 434 0 00-1-40l-3-3 1-2zM263 358c1-2 3-5 6-5 3 2 2 6 2 9v25c0 9-1 19 3 27 2 5 6 9 11 12-4-1-9-2-12-5-4-3-6-8-7-12-2-11-3-21-1-32 1-6 2-12 1-19h-3zM326 378c0-9 4-17 8-24l7 2-1 10c0 2-2 4-4 6-3 4-4 9-6 14h-2l-2-8z"/><path d="M179 365l12-9c1 4 1 8 3 11 4 6 9 12 15 17 4 3 6 8 7 12s-1 8-3 11c0 2-2 3-4 4-3-8 1-17-3-25-3-6-10-9-16-12-4-1-8-5-11-9zM363 358h3l9 2-14 14 2-16zM354 359h6l-4 27c-2 10-5 20-10 30-6 10-15 20-27 23l7-6c10-8 17-19 21-31 4-14 6-29 7-43zM235 361h1c1 2 4 4 4 6l-1 15c-4-2-9-5-11-9 3-3 5-7 7-12zM146 370h16c2 1 2 4 3 6 1 9 4 17 8 24l14 18c-12-5-21-17-25-29l-4-9c-3-3-7-3-10 0v1l-2-11zM167 370c9 3 18 7 23 16 2 2 1 4 1 6-4 0-7-5-10-7l-11-4-2-3-1-8z"/><path d="M201 395c1-2 0-5 3-6 0 2 1 6-3 6z"/></g><g fill="#b23c24"><path d="M148 83h12v1h-12v-1zM341 84c0-2 3-2 4-1l-4 1zM353 83c1-1 5-1 5 1l-5-1zM397 117c2 1 2 2 1 3l-1-3zM143 120l1 6c6-4 13-5 20-3l8 5c2 2 1 4 1 7l-13 1-6-2-1 4-1 1c-2-3-4-6-7-7l-7-1 1-2c3-2 6-5 4-9zM339 128c3 0 5-2 8-4 6-1 14-2 20 3l1 2-10 2-4 1 1 4c1 4 1 8 3 11l4 2c-3 1-8 3-11 1 5-6 3-17-4-20-4-1-10 0-12 4v8c-2-2-5-4-4-7l8-7zM299 134l1 4c-2 0-2-3-1-4zM389 162c0-2-1-4 1-6 0 2 1 5-1 6zM127 175l3 1c-1 1-2 1-3-1z"/></g><g fill="#6b0101"><path d="M345 83h8l5 1h3l2 1c5 0 8 3 12 5 6 2 11 6 14 11l1 1 7 13v2l1 3v11h-2l-1 3c2-10-1-21-8-29-5-9-14-14-23-16-12-4-25-3-36 2-16 6-25 22-25 39-1 7 1 15 5 22l-2 3a34 34 0 01-3-5l-2-7-1-2v-3l-1-4v-6l1-4a147 147 0 011-5v-2l1-2c0-2 1-6 3-7l1-2 1-2 1-1c4-6 9-11 16-14l1-1c3-1 6-3 10-3l2-1h4l4-1zM136 87l12-3h12l8 1 2 1c5 0 8 3 12 5l1 1 5 4 1 1c7 7 13 18 13 29v12l-1 6h-1l-2-1c3-9 2-18-1-27l-5-10c-6-10-17-17-29-19-11-2-24 1-34 7a41 41 0 00-22 38l-3-2v-4c0-12 8-24 17-31l1-1 14-7z"/><path d="M349 105c8-2 17 2 23 7 10 10 9 29-2 36-7 5-16 7-24 6-13-2-24-18-19-31 3-10 12-16 22-18m-15 12c-2 4 1 9 5 11l-8 7c-1 3 2 5 4 7 2 6 9 11 16 8 3 2 8 0 11-1 4-2 8-3 10-6 1-3 4-6 3-9s-5-5-8-7c-6-5-14-4-20-3 1-3 2-7 0-10-4-4-11-1-13 3zM134 114c4-5 11-7 17-6 7-1 14 3 19 8 1 3 4 6 1 9l-7-2c-7-2-14-1-20 3l-1-6c-1-4-5-5-9-6zM128 121h1l2 6c2 2 6 2 8 2l-1 2-5 5-4 5c-4-6-3-14-1-20zM401 287c3 2 4 6 5 9 1 7 3 13 1 19 0 6-3 12-6 17-2 5-6 8-9 12l-13 7c-7 4-15 4-23 5-8 0-16-3-24-6-6-2-10-7-14-11-3-2-4-6-5-10-2-4-3-9-1-13 2 4 3 7 6 10l9 9c11 7 24 9 36 7 8-1 16-5 22-10 7-7 13-15 15-25 2-7 0-14 1-20zM201 316l4 3c-2 6-2 13-5 18l-5 10c-7 9-16 17-27 19-12 2-26 3-38-3-8-3-14-11-18-19-5-8-6-17-5-25 4 4 5 9 8 14 4 6 10 11 16 15 9 6 21 7 31 5 7 0 13-4 19-7 4-4 9-7 11-12l9-18z"/></g><g fill="#ae300b"><path d="M367 127c3 2 7 4 8 7s-2 6-3 9c-2 3-6 4-10 6 3-5 1-11-2-16l-2-2 10-2-1-2zM160 136l13-1c-2 5-5 12-11 13 1-4 0-8-2-12zM152 139l1-1 4 12v1l-8 1c4-4 4-9 3-13zM83 262c4-4 9-8 14-10l-1 4c-6 4-12 8-16 14s-5 14-5 21a50 50 0 0020 38c3 2 5 5 9 6l1-1 1 5-15-9a76 76 0 005 19 39 39 0 0029 24v2h-3l-3-1c-5 0-9-4-14-6-6-5-10-12-13-20l-1-3-1-2-1-8-1-3v-4l-1-2c-6-6-11-14-14-22l-1-10v-8c-1-5 1-9 3-13s4-8 8-11zM410 353l3-4v4l-3 9c-3 8-9 13-16 17-5 3-11 7-13 13l-1 1-3 5h-4c-2-3-4-5-4-9l-1-2v-5c0-4 3-8 5-12 3-2 5-4 9-4l-1 3c-6 3-12 11-9 18a60 60 0 003 8l7-12c4-4 10-6 14-9 4-2 6-5 8-8 3-4 5-9 6-13zM302 361h3v17c-2 5-1 10 0 14l1 3c3-2 4-5 6-8 3-7 7-14 8-21h3l-1 5a72 72 0 01-2 6c-3 8-7 15-12 21h-4l-1-1-1-2v-1l-1-2a375 375 0 000-12 228 228 0 001-12c-7 3-11 9-16 15l4 9c-1 2 0 4 2 4v8l-2 3-3 1-6-5-2-2v-1l2-2 7 6c1-1 2-3 1-4 0-5-3-9-5-14v-6l4-5c3-5 9-8 14-11v-3z"/></g><g fill="#c54d03"><path d="M287 204h12l-2 4c-7-2-15 1-22 2l16 8-2 5c-2-4-6-6-10-7-4-2-8-2-12-2h-6c-9 0-18 4-25 9l2 1 7 5 8-2c7-3 14-2 21-1l11 5-5 10-9-1h-7c3-2 8-2 12-3l6-3c-10-7-23-7-34-2l5 8-6-4c-6-5-13-11-21-14-6-4-13-6-20-7l-2-4c10 2 20 5 29 10l10-7c-13-5-27-7-40-5l-1-2 4-2h1a160 160 0 0114 0l5 1 7 1 2 1h1l2 1 3 1 2 1 4 1 9-1 12-1c2-2 5-3 8-3l3-1h1l3-1h1l3-1z"/><path d="M174 209l4 4-11 1-4 1a66 66 0 00-41 23l-4 7h15c5-7 13-12 22-15 11-4 23-2 34-4l3 4c-6 0-12 0-17 3-7 4-11 11-13 19l11 4c2-5 4-9 8-13s10-6 13-11l3 4-10 7-3 2c-7 7-11 17-12 27-1 9 5 16 10 22 8 10 18 16 28 24 5 6 12 11 14 19 1 8 0 16-5 23l-2 4 8 7c8-9 12-21 12-33-1-7-4-14-8-19l-18-19-15-12c-7-5-9-14-7-22 3-8 10-13 14-20l2 4-12 14c3 4 7 7 9 12l-11-7c0 5 1 10 4 14l13 11c10 8 18 16 26 26 2 4 3 8 6 11 3 4 7 6 11 9 4-6 8-13 14-17 5-5 12-6 18-8 2-7 4-14 8-19 6-9 16-13 26-16l-3 5a40 40 0 00-15 7c-6 5-11 13-12 21-1 6 0 11 1 17 0 5-3 9-5 14l-5 8-3 9-1 22c0 6 4 10 7 15l-2 2c-2-1-3-2-3-4 1-2-3-3-2 0v1l1 10 1 4 1 2c1 3 4 6 6 7l1 1 7 3 2 1h12c7-1 12-5 17-9 6-4 9-11 12-17l1-2v-1l1-2 1-4 1-2 3-12v-3c0-2-2 0-2 1l-4 9-1 2-2 4-4 1-4-5c1-1 0-2-1-3v-10l1-6 3-6c2-2-1-5-2-3l-1 7-1 2h-2c0-3 0-7-2-10l-7-11c-2-5-2-10-2-14l4 8c1 6 6 10 9 16l8-2 3 1c-4 7-8 15-8 24l2 8h2c2-5 3-10 6-14 2-2 4-4 4-6l1-10 4 1c-1 11-1 22-4 32-2 8-5 15-10 22a38 38 0 01-46 15c-5-3-9-7-11-12-4-8-3-18-3-27v-25c0-3 1-7-2-9-3 0-5 3-6 5-2 5-4 10-4 16l-1 19v20c3 10 7 21 17 25 14 7 31 8 44 1 12-3 21-13 27-23 5-10 8-20 10-30l4-27a189 189 0 01-9-1h12l-2 16 14-14-9-2 8-2c6 2 14 2 20-1 7-3 15-8 18-15 4-10 3-21-1-31l-1 4-1-16 5 7 2-16-1-9c-2-22-14-42-34-52a96 96 0 00-39-11l12 12c2 3 5 6 8 7 5 1 9 1 13 4 4 2 9 5 12 9l7 11c6 6 7 15 9 23v1l-6-7c0-7-4-14-9-19l-6-4-9-4 3 15-5-1h2a36 36 0 00-16-27c-5-4-12-5-19-5l11 11c4 6 7 13 9 20h8a223 223 0 014 1h-15v-1c-3-10-9-21-19-27a42 42 0 00-12-5l-15-1 9-9c2 3 5 6 9 7l17 1 6 1a65 65 0 00-17-15l-6-2 4-3 1 1 4 2h7l3 1c5 0 10 0 14 2l3 1h2l2 1h1l2 1 3 1 2 1c8 2 14 7 21 12 7 7 17 9 24 15 6 4 12 7 15 13l6 8c0 2 0 3 2 4l1 3 1 2v2l1 2v2l1 4c0 5 1 10-1 14l-1 2v1l-1 2c-1 5-5 8-8 11-5 6-12 8-18 11-1 1-2 2-1 3v3l-1 4-1 3-1 6v1l-1 1-3 4v-4c-4 3-8 7-13 8l-6 4c-2 1-3 4-4 6l-6 2 1-3 4-5h1c-2-2-4-1-6 0l-10 7c-4 4-6 9-10 12-2 1-2 4-2 6v2l-1 4c-1 7-3 13-6 19l-4 7-1 2c-3 6-8 11-13 15-4 3-9 7-14 8l-2 1h-1l-2 1h-1l-3 1h-3l-3 1h-12l-3-1h-3c-2-2-4-2-6-2h-1l-2-1c-7-1-12-7-17-12l-5-14c-3 5-5 11-10 16-4 4-10 8-16 10l-2 1h-1l-7 2h-2l-5 1h-8l-5-1h-3l-4-1h-1l-2-1-7-2c-6-3-11-8-16-12s-9-10-13-16l-1-4-1-2-2-5-1-2-1-5-1-2v-2a169 169 0 01-1-4l-1-2-1-8c0-2 0-2-2-2h-11l-6-1v-2h17l1-3h3l2 11a91 91 0 0017 42c9 10 21 18 34 20 14 2 29 0 40-9 8-6 13-16 14-26 2-11 2-22 2-34 0-6 0-12-3-17-1-2-4-3-6-4l-1 2c-3 15-1 31-4 47-2 8-5 16-11 22-4 2-8 4-12 4-11 1-22-3-31-10l-14-18c-4-7-7-15-8-24-1-2-1-5-3-6l11-2c1 2 4 2 6 3l-2-4 2-2c3 4 7 8 11 9 6 3 13 6 16 12 4 8 0 17 3 25 2-1 4-2 4-4 2-3 4-7 3-11s-3-9-7-12c-6-5-11-11-15-17-2-3-2-7-3-11l4-3v9l5 7c3 5 8 9 13 13 6 6 5 15 10 22 2 4 6 7 11 9a113 113 0 004-10l-6-9c-3-4-2-10-5-15-1-3-4-5-6-7l-12-11-2-7c-1-9 5-18-1-26 0-3 1-7-1-9l-4-3c-6-6-14-10-19-17-7-8-14-17-14-28l3-12c-7-4-16-6-24-7-6-2-12-3-19-3-11-1-22 1-32 7l1-4 6-3 2-1h1l3-1h1l3-1c3-8 9-15 16-20l2-2 1-1h1l2-1 5-4c9-3 18-8 27-7l4-1 3-1m-18 24c-5 4-10 9-11 15l14 3c2-8 6-15 13-20-5 0-11 0-16 2m-19 14h4l4-8c-3 1-6 4-8 8m229-8l5 6c4 2 9 3 13 6l-3-5c-5-3-9-6-15-7m39 3l8 17c2 3 2 7 5 9 3 3 6 6 7 10 4 6 5 15 0 21-1 4-5 5-7 8-3 5-1 11 0 17l7-2 1-2c11-5 18-17 18-29-1-13-6-26-17-34-1-3-5-5-8-7l-14-8m13 32l1 3c-2 1-2 4 0 4v13c-2 0-2 4 0 5l-1 2c2 0 4-3 5-5 3-4 2-9 1-14-2-3-3-6-6-8m-143 47c-7 3-13 9-17 16h-1l-1 2-2 5 7 9c5-4 7-11 12-15 3-3 8-4 11-6 1-5 0-9-1-14l-8 3m-65 2l3 17c1 3 4 7 8 7 1-5 0-11-3-15l-8-9m30 13c1 5 0 10-1 15h-1v6l3 4c0-3 0-7 2-10l2-1c3 0 6 0 8 3 3 1 3 6 6 7l-1-6-10-11-8-7m29 12l5 4 8-15c-6 1-10 6-13 11m-58-4c-2 6-2 13 3 17 3-3 5-6 6-10l-9-7m24 17c-2 5-4 9-7 12 2 4 7 7 11 9l1-15c0-2-3-4-4-6h-1m-68 9l1 8 2 3 11 4c3 2 6 7 10 7 0-2 1-4-1-6-5-9-14-13-23-16m22 8l2 3 4 5c-2 2-2 5 0 7l-3 3c-1-2-3-2-4 0-4-3-6-7-10-9v-1h-2l-3-1c0-2-3-2-3 0l7 15c5 7 11 15 19 20v1h2l3 1v1h3l1 1h4c0 2 3 2 4 1h4c1 1 4 1 4-1 4 0 8-4 10-7 2 0 0-3-1-2l-5-3-1-1-4-4-1-1-1-1-3 8-6 2-3-3v-2h-1v-3l-1-9h-5c-2-4-1-9 2-13-1-2-5-4-7-5l-5-2m43 5v1c-1 1-1 5 1 5l1 3v2h1l2 3c1 3 4-1 2-2v-9l-7-3m-31 12c4 0 3-4 3-6-3 1-2 4-3 6z"/><path d="M213 229l7 1c4 2 8 5 10 9l-15-6-2-4zM298 243c5 0 11-3 16-2 6 0 10 3 15 6 5 5 8 12 12 18l-4 2c-2-4-3-9-7-10-3-1-7-2-10-1l-8 13 16 2-4 4c-4-3-10-2-14-2l-12 5c-7 2-15 4-23 4 5-3 12-3 17-5a34 34 0 0019-13c4-5 7-12 7-19-5-1-10-1-14 1l-3 8c-7 8-17 16-28 14-5-1-11-2-15-5l12 2h4l7-1 5-2c6-3 11-8 14-15l-5 1 3-6v1m22 9l9 1c-2-3-4-5-7-6l-2 5z"/><path d="M246 252l16 2c4 0 9 0 13-2l-2 5c-9 1-20 1-27-5zM90 285c3-11 14-20 26-21 12-2 23 3 33 6l-7 2c-4-3-10-4-15-4-1 3-2 7 1 10l-4 3v-14c-5 0-9 0-13 2-2 0-2 2-2 3-2 8-2 17 1 25l-4 8-2-17c-4 3-8 9-8 15 2 4 5 6 8 9v4c-4-3-8-6-11-11-3-6-5-13-3-20m3 2c-2 3-1 7 0 10 3-5 6-10 11-13l1-10v-2c-6 3-10 9-12 15zM358 282h3c-2 8-7 16-10 24-2 2-2 6-6 5l5-12 8-17zM348 285l4-1c-1 6-6 11-8 17-1 2-2 7-5 6-1-2 0-5 1-7l8-15zM363 289c4 2 1 6 0 8-1 3-2 7-6 7 0-5 4-10 6-15zM337 290h3c0 5-2 8-4 12h-3c0-4 2-8 4-12zM146 297l3-1c0 4-4 7-6 10l-12 17c0 2-2 2-3 3l1-6 17-23zM133 300l4-2c1 5-3 8-5 12l-5 5c-2 0-1-3-1-4l7-11zM142 315l12-16 2 3-9 11c-1 2-2 5-4 6-3 1-2-3-1-4zM158 306h4l-6 9h-3c0-4 3-7 5-9zM300 317c1-5 3-10 7-12v5c-5 5-5 12-4 18 2 0 5-1 5-3l2 5-6 2-6 17c3 4 6 7 7 12h-3l-6-9-8 12c-2 5-3 9-3 14l3-3-4 5v6c-3-5-3-12-2-18 2-6 6-11 10-16 4-6 8-13 8-21v-14z"/></g></svg>