<svg width="683" height="683" viewBox="0 0 512 512" xmlns="http://www.w3.org/2000/svg"><g fill="#fffbf4"><path d="M301 27c-2-2 2-4 4-4l-4 4zM149 125c2-2 5-1 8-1 2 0 5-1 7 1h-15zM316 153c3-3 7-6 12-5-3 3-4 7-4 12 2 7 9 13 16 13 4 0 8-1 11-4s4-7 5-10c6 4 4 14-2 17-7 3-15 2-22 2-5-1-11-4-13-9s-3-11-3-16zM169 149c4-1 10-1 12 3 2 7 1 13-3 18-3 6-10 9-15 12-11 3-23-1-30-10 1-5 2-11 7-13 1 3 1 7 4 10 6 6 18 7 25 1 5-6 5-16 0-21zM343 184c2-2 5-1 7-1-1 2-5 1-7 1zM148 185c2 0 5-1 6 2-1-1-5 0-6-2zM211 405c2 0 2 4 0 4v-4z"/></g><g fill="#a43a0d"><path d="M337 124h13v1h-13v-1zM351 125c1-1 2 0 3 1l-3-1zM76 223c3-1 0 3 0 0zM415 243h14c5 0 10 1 13 4v7l-1 2h-2l-2 1-12 3c-12 5-25 11-35 20l-12 10c-2 3-6 5-7 9l1 8-1 1-3-10c13-20 35-34 58-42 4-2 9-1 13-4 1-3-3-4-6-5l-3-1c-11-1-23 2-32 8-15 8-29 18-40 30-9 10-18 23-17 37-1 5 2 10 7 12l4 2h-6l-3-1-5-7v-17h-1l10-17c3-2 4-7 0-9v-4l6 5 5-5 1-2-7-9 2-6 1-2 1 5 1 4 4 5h2l8-8 18-13c8-4 15-9 24-10l2-1zM132 288c0-2-1-5 1-6 1 2 0 4-1 6z"/><path d="M146 317l4-1h1l6 2v1h-8c2 4 2 9 1 13l5-1 2-9 2-2 1 1v2c-1 3-3 7-1 10 1 7 7 11 12 14 6 4 13 7 19 12 5 4 7 9 10 14l4 15 2-2c2-1 3-2 3-5 3-11-2-23-12-29l-15-11-8-7-1-9c3 3 2 7 5 10l13 7v-8l-4-9c3 2 5 5 6 9l2 10 5 5 4 4 1-4c2-6 1-12 0-17 4 6 4 14 3 21-2 3 0 7 3 9l4-5c2-4 5-8 3-12-1-8-6-13-9-20 4 3 5 7 8 11 6 10 10 21 10 33 0 8-2 16 2 23 4 6 11 9 16 14l3 3c2-7-2-13-6-19-3-3-6-6-5-10v-25c-2-6-1-14-6-19l-3-7c4 3 6 8 9 12l3 18c3-1 5-3 6-5l-3-5v-9c2 4 2 9 6 11 3-5 7-10 13-12l-2 3c-5 3-8 10-11 15l-6 5-2 2-1 14c3-3 7-6 11-7 5-2 9-6 12-11 2-3 2-7 2-10l7-13 10-12v2c-4 7-10 13-12 21-4 11-2 23-2 34 1 7-2 13-5 19l-3 4c4 0 8 0 11-3 6-4 8-12 9-19 1-6-1-13-1-19 1-7 1-14 5-20 4-8 15-11 17-20l3-4c0 4-2 8-4 12 4-1 7-4 10-7l-1 4c-3 4-8 7-12 8h-1c-5 3-10 8-11 14 11-5 24-3 33-12 5-4 7-10 9-15 0 5-2 10-4 14-3 5-9 8-14 11-4 1-6 3-7 6-2 3-4 6-4 9 6-1 12-5 16-9l9-10c-1 4-3 8-6 11-4 6-11 9-17 12h-2c0 4 1 8 3 10l9-2c2-1 4-2 4-4l4-10 11-17 4-6-2 8c-4 8-11 15-13 24-1 6 0 14 5 18 2 2 5 2 7 2-3-7-4-16 1-23 4-9 16-14 17-25l3-1v3c-1 9-8 14-14 19-6 7-1 19 8 19 3 0 7 1 8-2-3-3-7-5-7-10-1-7 4-14 7-20 3-4 2-8 1-13l1-3 2 6v10l-1 2-5 10-2 8c1 4 5 6 8 8v4l-2 2-2 1h-10c-5 0-9-5-11-9 1-2-2-2-1 0v7l3 6c0 2 0 4-2 4h-4c-6 1-11-4-12-10l-1-2v-2c1-1 0-4-2-2s-5 3-8 3l-1 1 1 1c5 2 10 6 11 11v4l-2 2h-13l-12-6c-2-2-4-5-7-6v5l-1 1-1 2-2 4c-3 4-8 9-13 8h-5c-2 1-5-1-4-4l1-2c3-4 6-9 7-14 2-7 1-15 1-23h-1l-4 5 3 6 1 11-2 5h-6c-2-3-3-7-6-9l-5-4c-2 2-5 3-4 6l4 4 1 1 5 10v9l-2 4h-4l-5-7c-3-3-8-5-11-9-4 2-5 7-8 10h-5v-2l-1-3v-1-8l1-4v-1l1-2c1-3 3-7 6-9v-3c-3 2-8 3-10 6-2 1-1 3-1 4 1 2-1 3-2 4l-1 1-2 1-2 1h-4l-1-4-1-5v-1l-1-2-1 1v1l-1 2v1c-2 1-1 3 0 5v1c0 1 0 3 2 3l11 9 2 3v5c-5 2-11 1-16 0l-1-1-2-1c-3-1-6-4-7-7s-3-5-3-8l-1-2-1-5c-2 0-3 2-3 3h-6l-9-10c-2-3-5-3-8-4l-2-1c-2 0-3-3-6-3v5l-1 1c-2 4-6 7-10 10-2 0-5 0-5-2l-1-2c-1-5 3-8 2-13l-1-2v-1l-1-2v-1l-1-3v-2l-1-2v-3-2-3a406 406 0 012-5c-4-3-7-6-7-11v-6c0-3 0-5 2-7l1-2 3 1c-4 6-5 15 1 21 5 5 12 5 18 4a59 59 0 0012-3l-4-6c-6 0-12 2-17-1-3-2-3-7-1-10h3c-1 2-3 5-1 7s7 3 8 0c2-5 0-10-1-14m14 27c0 4 0 9 2 13l9 8c5 5 9 12 12 18 2 5 2 11 5 16 2 5 8 8 13 8h7c-4-5-10-7-13-13-5-7-3-16-7-23-2-6-10-9-12-15-1-3-3-5-5-5v-1l-11-6m-14 3v10c-1 4 1 8 4 11 3 4 9 4 13 7 4 2 6 6 9 9v1l3 1c1-5 0-10-2-14l-13-13c-3-4-3-9-3-13l-11 1m-15 0v3h-1v1c-1 7 4 14 4 22l-2 8 1 2c4-1 7-4 9-8 3-4-3-9-1-14 2-4 2-9 2-13-4 0-8-2-12-1m158 6l-6 2c-1 9 1 18 1 27 4 7 12 13 20 15l8-1c1-1 0-3-1-4-3-4-8-6-12-10-4-6-6-14-4-21l5-10-11 2m-70 3c-1 4-4 7-7 9l2 10c4-2 8-4 9-8s-1-9-1-13c-2-1-2 2-3 2m-39 0c2 4 6 6 9 8-1-4-6-6-9-8m12 11l2 11c4-3 1-8-2-11m55 10c5 3 9 7 12 12 3-5 2-12-2-17l-10 5m-28 27l7-10-3-12c-4 6-7 14-4 22z"/></g><g fill="#fdb05a"><path d="M145 126c1-1 1-2 3-1l-3 1zM165 125c2-1 2 0 3 1l-3-1zM333 125h2l-2 1v-1zM153 128l8 1v3l-14 3-15 8c5-8 15-10 21-15zM358 136c5 1 7 6 11 8h1v5c-5-3-8-9-12-13zM126 141h1l-1 2v-2zM187 143h1v2l-1-2zM313 149c-1-1 0-2 1-3l-1 3zM124 147h1l-1 2v-2zM374 149h1v10h-1v-10zM125 165l1 2h-1v-2zM318 174c2 5 1 10 0 15v-15zM351 183l3-1c-1 1-2 2-3 1zM180 196h1v2l-1-2zM316 204c-1-1 0-2 1-3l-1 3zM26 208c1-1 2 0 3 1l-3-1zM31 209c1-1 4-1 4 1l-4-1zM36 210c1-1 2 0 3 1l-3-1zM314 210h1l-1 2v-2zM187 214h1v2l-1-2zM172 217l1 2h-1v-2zM235 219h13v1h-13v-1zM227 221c1-1 2-2 3-1l-3 1zM256 220c1-1 2 0 3 1l-3-1zM325 222l1-2v2h-1zM190 221h1v2l-1-2zM264 221h2v1l-2-1zM174 222l1 2h-1v-2zM207 223h8l-8 1v-1zM305 223c2-1 2 0 3 1l-3-1zM192 226l3 1-1 1-2-2zM282 226c1-1 3-1 4 1-1 1-3 1-4-1zM323 228l1-2v2h-1z"/><path d="M184 227c4 8 9 17 18 21l4 2-5-8c9-2 20-4 29-1l-11 7 8-3 12-3c12-2 23-7 35-8l22-2 3-1h2c-1 2-3 4-6 4l-19 1c-9 0-17 4-25 8a59 59 0 00-14 10l15-6c7-2 14-4 21-4-4 5-10 7-15 11l17-8c4-1 9-1 13 2l-8 8c6-2 11-7 15-12l4-1-5 7c3-1 4-3 5-5l2-1 2 1 13-18c0 5-2 11 0 16l1 10 2-4c1 2 4 4 2 7-8-1-16 1-23 5-7 5-12 14-13 23 0 9 4 18 11 24a35 35 0 0042 1v17l5 7c-1 4-1 8-3 11-6 8-13 14-17 22-2 5-3 10-1 16l1 6c-5-4-6-12-5-18 2-9 9-16 13-24l2-8-4 6-11 17-4 10c0 2-2 3-4 4l-7-3c-2-1-3-3-3-5 6-3 13-6 17-12 3-3 5-7 6-11l-9 10c-4 1-8 3-12 2v-2c1-3 3-5 7-6 5-3 11-6 14-11 2-4 4-9 4-14-2 5-4 11-9 15-7 2-14 7-21 5-4 0-2-4-1-7h1c3 1 7 1 9-2 2-1 2-4 3-6l1-4c-3 3-6 6-10 7 2-4 4-8 4-12l-3 4-7 5c-5 3-10 5-14 10-5 5-8 13-7 21l-1 23-1-18 1-15c2-7 7-13 10-20v-3-2l-10 12-7 13-14 13c-1 2-3 3-6 2l-2-3 6-5c3-1 4-4 6-6 3-2 7-5 5-9l2-3c-6 2-10 7-13 12-4-2-4-7-6-11v11c-3-3-3-7-6-10-3-4-5-9-9-12l3 7c1 6 2 11 1 17l-2 21c0-7 1-15-2-23-3-6-6-12-11-17v2c-3-4-4-8-8-11 3 7 8 12 9 20 2 4-1 8-3 12l-7-1v-3c1-7 1-15-3-21 1 5 2 11 0 17h-5l-5-5-2-10c-1-4-3-7-6-9l4 9v8l-13-7c-3-3-2-7-5-10l1 9c-1 4 1 7 4 10l11 8c-12-5-24-12-30-24v5c-2-3 0-7 1-10 6-1 10-8 11-13 8 6 19 9 29 7 11-2 22-11 24-23 3-15-7-32-22-36-13-2-27 1-35 12-3 3-4 7-5 10l-8-9 10-13c5-5 11-8 18-10l2 6v-3c2-8 1-16 0-24m55 55l-3 18c-1 6 0 13 1 19 1 5 5 10 9 13 5 3 12 4 17 1 7-4 11-10 12-18 2-10 0-20-2-30l-1-4c-2-1-3 1-3 2l-7 10c-3 2-6 3-10 2-4-3-6-8-9-11l-2-3-2 1z"/><path d="M205 232c5-2 10-1 15-2l20 1c-3 3-8 2-12 2l-23-1zM87 232c1-2 3-1 4-1h8v1H87zM107 234h2v1l-2-1zM88 239l15 3c9 2 15 9 22 13l20 20c6 7 13 13 15 22 1 4 2 10-2 13-5 3-10 2-15 1l-5-8v-6c4-1 7 2 9 4l3 3 1 1c1-5-1-9-3-13-4-10-10-20-18-28-12-12-26-20-42-25zM160 241l1-1-1 1zM326 243l1 1 8 13c-4-1-9-3-10-8-1-2 0-4 1-6zM413 243h2l-2 1v-1zM430 246l3 1c-4 4-10 4-14 6-9 3-17 7-25 12-12 9-24 19-32 31-5 6-8 13-9 20 0 4 1 8 5 9l9-2-3 5c-4 1-9 3-14 2-3-1-5-5-5-8 0-12 6-22 13-31l22-22c9-5 17-11 27-15 7-4 16-4 24-6l-1-2zM442 249c2 0 2 5 0 5v-5zM437 257l2-1v1h-2zM346 269l12 11-5 5-6-5-1-5v-6z"/><path d="M132 291l1 8h-1v-8zM132 306c-1-1 0-2 1-3l-1 3zM132 315l2-3 2 5c-2 5-6 9-6 15 0 5 5 7 9 8 5 1 10-1 13 3l-5 1c-5-2-11-2-15-6-4-3-4-9-2-13 1-4 3-7 2-10zM357 340h1c0 3 1 7-1 10v-10zM160 344l11 6v1c1 7 4 13 9 18 2 2 4 4 4 6 2 7 1 14 5 20 3 5 9 7 12 12-5 0-11-3-13-8-3-5-3-11-5-16-3-6-7-13-12-18l-9-8c-2-4-2-9-2-13zM127 347h1l-1 2v-2zM130 350h1l5 1-1 12c-2-4-1-9-5-12v-1zM289 353l11-2-5 10c-2 7 0 15 4 21 4 4 9 6 12 10 1 1 2 3 1 4l-8 1-9-8c-4-3-5-9-6-14-2-7-1-15 0-22zM356 353l1-2v2h-1zM126 352h1v2h-1v-2zM146 352l4 1 3 11c4 3 9 4 12 8l-13-5c-3-3-4-7-6-10v-5zM127 357l1 2h-1v-2zM128 361l1 3c-1-1-2-2-1-3zM130 368l1 2h-1v-2zM152 374l2 1h-2v-1zM331 377c-1-2 2-2 1 0h-1zM197 380l1-1 1 2-2-1zM212 384c0-1-1-3 1-4 1 1 1 4-1 4zM196 383l1-2v2h-1z"/><path d="M304 382l1-1v2l-1-1zM199 382l1 5c-2 0-1-4-1-5zM315 382l1 2h-1v-2zM129 383l1 2h-1v-2zM196 389c-1-2-2-4 0-5v5zM353 386l2-1v1h-2zM216 386h1l-1 2v-2zM343 386h9c-2 2-6 0-9 1v-1zM215 393c-1-1-1-4 1-4l-1 4zM205 391l2-1v1h-2zM257 392h3c0 2-3 2-3 0zM280 396l1-2v2h-1zM215 402l1 3c-1-1-2-2-1-3zM256 402h1l-1 2v-2zM192 408l2 1h-2v-1zM260 408h5c0 2-5 2-5 0z"/></g><g fill="#710201"><path d="M148 125h17l3 1c3 0 6 3 8 4l1 1 7 7 1 1 2 4 1 2 1 1v17l-1 2c0 3-2 5-3 7l-1 1c-2 4-7 6-8 10l1 2c1 3 3 7 3 11l1 2c2 2 2 5 3 8s3 5 3 8a427 427 0 013 7l1 2 1 3 2 2v2l2 3 3 6 1 4c-9-8-12-20-17-31l-10-29-14 4 4 7c8 11 13 23 17 36l4 21v3a44 44 0 01-3-9 142 142 0 00-3-14l-1-1-2-6-1-2-1-1v-2l-1-2-1-1v-2l-2-4-13-21-1-1-1-1c-1-3-4-2-6-2h-2l-2-1-4-1c-3-3-8-5-10-9l-1-1c-1-2-3-3-3-6l-1-2-1-5v-6-5l1-2v-3l1-1 1-2v-1l1-1 2-3 1-1 3-3 1-1 10-5 3-1m3 3c-10 2-19 8-22 17l-1 1c-1 4-2 9-1 14 1-1 2-1 2-3 5-9 14-16 24-19 10-2 19 0 28 3-5-10-19-15-30-13m-21 37c-1 3 1 5 3 7 7 9 19 13 30 10 12-1 21-12 23-23 1-4 1-9-1-13-9-5-20-7-30-5-12 2-22 12-25 24zM335 125h16l3 1 3 1c5 2 9 4 11 8l1 1 1 2 1 1c2 3 3 6 3 10v10l-1 6-1 1-4 7c-2 1-4 2-4 4l-10 5-3 1h-1c-2 0-5-1-7 1l-2 3-6 12-5 12-1 1-3 8-1 2-1 4-1 2v1a63 63 0 00-4 19l-2 2v-8c2-8 3-16 6-23 4-12 10-24 16-35-6-1-12-4-17-6v7c-1 15-4 30-10 44a63 63 0 01-13 17l2-5 5-7 2-4 1-3 1-3 4-12 1-2v-2l1-2a115 115 0 001-5v-3l1-4v-5c1-5 2-10 0-15l-1-2-2-4v-1l-1-2v-2l-1-2v-5-2-5l1-3 2-6c1 0 3-1 2-3v-1c3-2 6-7 10-8l4-2h1l2-1m-4 5c-4 1-6 4-8 7 9-3 18-3 27 1 10 5 17 16 18 27 4-5 4-12 2-18v-3h-1c-1-6-6-11-11-13-8-5-19-5-27-1m-12 14c-2 2-2 6-3 9 0 5 1 11 3 16s8 8 13 9c4 2 9 2 13 2 7 0 15-3 20-9 1-8-2-16-6-22-9-12-28-14-40-5z"/><path d="M328 148c3-3 6-5 10-5 6-1 12 1 16 6 2 3 2 6 2 10-1 3-2 7-5 10s-7 4-11 4c-7 0-14-6-16-13 0-5 1-9 4-12m7-1c-3 2-8 5-8 10 0 9 12 16 20 11 5-3 7-11 4-16-3-6-10-6-16-5zM140 159c1-14 20-20 29-10 5 5 5 15 0 21-7 6-19 5-25-1-3-3-3-7-4-10m16-11c-6 0-14 6-12 13 0 2 1 5 3 7 7 5 19 3 22-5 3-5-1-11-6-14l-7-1zM455 201c5-1 9-4 13-4-1 3-5 4-8 5l-19 14-3-2 17-13zM483 202l12-3c-1 2-4 3-6 4-13 4-24 12-35 19l-8 6c-2 0-2-2-2-4 9-5 18-13 28-17l2-1 9-4zM44 200l6 1a83 83 0 0124 10v3h-3l-21-11c-3 0-5-1-6-3zM18 209l5-1h3l3 1h2l4 1h1l3 1c4 0 7 2 11 3l16 7v3c-5 0-9-4-13-5l-1-1-15-5-2-1-6-1-2-1a301 301 0 00-6-1h-3zM298 262a34 34 0 0142 4c3 2 5 6 6 9l1 5v13l-10 17c-12 9-29 8-41-1-7-6-11-15-11-24 1-9 6-18 13-23m18-4l-11 3c-3 1-7 3-10 7-2 3-5 5-6 9 0 4 0 8 2 11 2 4 4 8 8 10 3 2 5 5 9 5 6 1 13 1 18-1 6-2 9-7 12-12l2-13-5-12c-4-5-12-7-19-7zM162 280c1-3 2-7 5-10 4 4 1 11 3 16l4 9 7 5c7 6 17 5 26 3 6-3 11-9 15-15l2 6c-2 12-13 21-24 23-10 2-21-1-29-7l-1-1c1-10-2-20-8-29z"/></g><g fill="#eac697"><path d="M328 128c0-1 3-3 4-2l-4 2zM331 130c8-4 19-4 27 1 5 2 10 7 11 13-4-2-6-7-11-8l-13-5-14-1zM129 145c3-9 12-15 22-17h2c-6 5-16 7-21 15l-3 2zM176 130l1 1-1-1zM134 132l1-1-1 1zM130 136zM368 135l1 1-1-1zM316 140l2-3c1 2-1 3-2 3zM184 138l1 1-1-1zM370 138l1 1-1-1zM127 140l1-1-1 1zM319 144c12-9 31-7 40 5 4 6 7 14 6 22-5 6-13 9-20 9-4 0-9 0-13-2 7 0 15 1 22-2 6-3 8-13 2-17 0-4 0-7-2-10-4-5-10-7-16-6-4 0-7 2-10 5-5-1-9 2-12 5 1-3 1-7 3-9zM130 165c3-12 13-22 25-24 10-2 21 0 30 5 2 4 2 9 1 13-2 11-11 22-23 23 5-3 12-6 15-12 4-5 5-11 3-18-2-4-8-4-12-3-9-10-28-4-29 10-5 2-6 8-7 13-2-2-4-4-3-7zM189 149h1v12h-1v-12zM124 160c-2-1-2-6 0-6v6zM312 154h1v2h-1v-2zM313 161l1 2h-1v-2zM188 165l1-2v2h-1zM314 165l1 2h-1v-2zM372 166l1-1-1 1zM315 168l2 4c-1 0-3-3-2-4zM184 173l1-1-1 1zM129 173l1 1-1-1zM364 177c0-2 2-3 4-4l-4 4zM176 183h1v2l-1-2zM144 184l2 1h-2v-1zM312 229c6-14 9-29 10-44l3 2c1 7 0 13-2 19l-7 22-13 18-2-1 11-16zM335 199l6-12-6 12zM155 188zM163 194c5-1 7 3 9 6l12 27c1 8 2 16 0 24l-4-21c-4-13-9-25-17-36zM317 198c-1-1-1-4 1-4l-1 4z"/><path d="M315 206h1l-1 2v-2zM472 206h2l-2 1v-1zM18 209c-2-1 0-2 1-2s4-1 4 1l-5 1zM21 209l3 1c-1 1-2 0-3-1zM27 210l2 1h-2v-1zM169 210l2 4c-2 0-3-3-2-4zM329 212l1-1-1 1zM35 212l2 1h-2v-1zM437 214h1l3 2c-1 2-5 0-4-2zM52 218l1 1-1-1zM194 230a97 97 0 0148 0l-2 1-20-1c-5 1-10 0-15 2l-9 1-2-3zM249 237c12-5 24-7 37-7l13 1-3 1-22 2c-12 1-23 6-35 8l-12 3c7-4 14-6 22-8zM81 233c0-1 1-2 3-1l-3 1zM79 234zM175 236h4l1 4-15 7c-4 3-8 9-14 11h-4c8-9 17-17 28-22zM77 239v-2 2zM114 237zM162 240l2-2-2 2zM82 240l6-1c16 5 30 13 42 25 8 8 14 18 18 28 2 4 4 8 3 13l-1-1c-2-9-8-17-13-25-8-11-18-19-29-26l-26-13zM79 242zM419 242h10v1h-10v-1zM81 243l1 1-1-1zM83 244l1 1-1-1zM327 244c4 3 8 7 10 11l-2 2-8-13zM87 246l1 1-1-1zM398 254c9-6 21-9 32-8l1 2c-8 2-17 2-24 6-10 4-18 10-27 15l-22 22c-7 9-13 19-13 31 0 3 2 7 5 8 5 1 10-1 14-2-4 5-10 6-16 5-5-2-8-7-7-12-1-14 8-27 17-37 11-12 25-22 40-30zM89 247l1 1-1-1zM129 247l1 1-1-1zM93 249l6 3-6-3zM135 252l1 1-1-1zM101 253l1 1-1-1zM345 266l7 3 7 9-1 2-12-11-1-3zM356 266c2 0 2 3 1 4l-1-4zM361 275h2-2zM130 276l1 1-1-1zM131 310c-1-2 0-3 1-3l-1 3zM128 319l4-4c1 3-1 6-2 10-2 4-2 10 2 13 4 4 10 4 15 6-6 1-13 1-18-4-6-6-5-15-1-21zM124 318h1l-1 2v-2zM122 333c-2 0-2-5 0-6v6zM282 327v3c-3 7-8 13-10 20l-1 15 1 18c0 6-2 12-6 17l-3 1c3-6 6-12 5-19 0-11-2-23 2-34 2-8 8-14 12-21zM159 328c6 12 18 19 30 24 8 5 14 13 15 22l2 12-2 2-4-15c-3-5-5-10-10-14-6-5-13-8-19-12-5-3-11-7-12-14v-5zM309 329c-1 2-1 5-3 6-2 3-6 3-9 2 4-1 9-4 12-8zM217 334c5 5 8 11 11 17 3 8 2 16 2 23 0 6 0 12 4 17 3 6 9 9 11 15-5-5-12-8-16-14-4-7-2-15-2-23 0-12-4-23-10-33v-2zM249 357c3-5 6-12 11-15 2 4-2 7-5 9-2 2-3 5-6 6zM130 351c4 3 3 8 5 12 1 3 3 5 3 8-1 4-2 8-6 10l2-8c0-8-5-15-4-22zM146 357c2 3 3 7 6 10l13 5c3 3 8 7 7 12-3-3-5-7-9-9-4-3-10-3-13-7-3-3-5-7-4-11zM129 365l1 2h-1v-2z"/><path d="M264 365h1c0 8 1 16-1 23v-1l-1-11 1-11zM146 372l1 1h-1v-1zM145 377l1-1-1 1zM313 378c2-2 3 1 2 2l-2-2zM357 380c2 0 2 3 0 3v-3zM209 389l1-1-1 1zM172 389h3c0 2-3 2-3 0zM245 389l1 1-1-1zM196 390l2 3c-2 0-2-2-2-3zM181 391l1 2h-1v-2zM215 401c-2-1-2-6 0-7v7zM316 394h1v2h-1v-2zM328 394h4c0 2-4 2-4 0zM251 400h1v9h-1v-9zM217 407h3c0 2-3 2-3 0z"/></g><g fill="#f48103"><path d="M151 128c11-2 25 3 30 13-9-3-18-5-28-3-10 3-19 10-24 19 0 2-1 2-2 3-1-5 0-10 1-14l1-1 3-2 15-8 14-3v-3l-8-1h-2zM323 137c2-3 4-6 8-7l14 1 13 5c4 4 7 10 12 13v-2c2 6 2 13-2 18-1-11-8-22-18-27-9-4-18-4-27-1zM322 178c5 2 11 5 17 6-6 11-12 23-16 35-3 7-4 15-6 23l-1 2c-2-5 0-11 0-16l7-22c2-6 3-12 2-19l-3-2v-7zM159 187l14-4 10 29c5 11 8 23 17 31l2 5c-9-4-14-13-18-21l-12-27c-2-3-4-7-9-6l-4-7zM231 223c10-1 20-1 30 1 4 1 9 1 12 4l-13 2c-6 1-12-3-18-4-4-1-8 0-11-3zM297 227c4-2 8 0 12 0l-1 3-11-3zM242 230c3 0 6 1 8 3l-12 5c-3 1-7-1-11-1-9-2-19 0-28 2l-3-6 9-1 23 1c4 0 9 1 12-2l2-1zM301 231c2 0 4 1 5 3l-5 7c-7-1-14-2-22-1-7 1-15 1-22 4l-15 6 9-6c8-4 16-8 25-8l19-1c3 0 5-2 6-4zM80 237c8-3 18-3 26 0 15 7 26 17 37 27 7 7 14 15 19 23 4 7 6 15 4 23-3 5-10 6-15 6h-1l-7-5c5 1 10 2 15-1 4-3 3-9 2-13-2-9-9-15-15-22l-20-20c-7-4-13-11-22-13l-15-3-6 1-2-3zM320 240l2-1 4 4c-1 2-2 4-1 6 1 5 6 7 10 8l2-2c2 3 5 7 3 11-4-4-9-7-14-9-1-4-3-7-7-9l1-8zM331 239c10 3 17 13 20 23l1 3c-3-1-7-3-9-6l-6-10c-3-3-6-6-6-10zM165 247l15-7 1 5c-5 2-11 4-16 8l-13 15c-3-2-5-3-6-6l1-4h4c6-2 10-8 14-11z"/><path d="M275 247c4-5 12-7 17-3l-4 5c-4-3-9-3-13-2zM433 247c3 1 7 2 6 5-4 3-9 2-13 4-23 8-45 22-58 42-4 5-6 11-7 17 2-4 4-9 7-12 2 6 3 14-1 20l-9 2c-4-1-5-5-5-9 1-7 4-14 9-20 8-12 20-22 32-31 8-5 16-9 25-12 4-2 10-2 14-6zM262 293l7-10c-1 5-2 10-6 13-3 3-9 4-13 1s-6-8-7-13c3 3 5 8 9 11 4 1 7 0 10-2zM135 284c5 4 10 10 12 17-2-2-5-5-9-4v6l-3-8v-11zM347 284c4 2 3 7 0 9v-9zM135 308l6 7-4 9c-2 3-2 8 1 10 5 3 11 1 17 1l4 6-7 2c-3-4-8-2-13-3-4-1-9-3-9-8 0-6 4-10 6-15l-2-5 1-4zM160 321c3-4 8-7 10-12l1 1c-1 5-5 12-11 13v-2z"/><path d="M144 318l2-1c1 4 3 9 1 14-1 3-6 2-8 0s0-5 1-7l4-6zM149 319h8v3l-2 9-5 1c1-4 1-9-1-13zM294 329l7-5c-2 9-13 12-17 20-4 6-4 13-5 20 0 6 2 13 1 19-1 7-3 15-9 19-3 3-7 3-11 3l3-4 3-1c4-5 6-11 6-17l1-23c-1-8 2-16 7-21 4-5 9-7 14-10zM178 344c-3-3-5-6-4-10l8 7 15 11c10 6 15 18 12 29 0 3-1 4-3 5l-2-12c-1-9-7-17-15-22l-11-8zM343 334l3 1 3 3-1 5c-1 11-13 16-17 25-5 7-4 16-1 23-2 0-5 0-7-2l-1-6c-2-6-1-11 1-16 4-8 11-14 17-22 2-3 2-7 3-11zM231 336c5 5 4 13 6 19v25c-1 4 2 7 5 10 4 6 8 12 6 19l-3-3c-2-6-8-9-11-15-4-5-4-11-4-17l2-21c1-6 0-11-1-17z"/><path d="M285 351c1-6 6-11 11-14-1 3-3 7 1 7 7 2 14-3 21-5-9 9-22 7-33 12zM351 345c1-2 1-5 3-7 1 5 2 9-1 13-3 6-8 13-7 20 0 5 4 7 7 10-1 3-5 2-8 2-9 0-14-12-8-19 6-5 13-10 14-19zM237 341c3 3 3 7 6 10v-2l3 5c-1 2-3 4-6 5l-3-18zM146 347l11-1c0 4 0 9 3 13l13 13c2 4 3 9 2 14l-3-1v-1c1-5-4-9-7-12-3-4-8-5-12-8l-3-11-4-1v-5zM131 347c4-1 8 1 12 1 0 4 0 9-2 13-2 5 4 10 1 14-2 4-5 7-9 8l-1-2c4-2 5-6 6-10 0-3-2-5-3-8l1-12-5-1v-3zM200 349h5l-1 4-4-4zM251 363l14-13c0 3 0 7-2 10-3 5-7 9-12 11-4 1-8 4-11 7l1-14 2-2 2 3c3 1 5 0 6-2zM171 351c2 0 4 2 5 5 2 6 10 9 12 15 4 7 2 16 7 23 3 6 9 8 13 13h-7c-3-5-9-7-12-12-4-6-3-13-5-20 0-2-2-4-4-6-5-5-8-11-9-18zM211 362c-3-2-5-6-3-9v3l7 1-4 5zM283 355l6-2c-1 7-2 15 0 22 1 5 2 11 6 14l9 8c-8-2-16-8-20-15 0-9-2-18-1-27zM219 356c1 0 1-3 3-2 0 4 2 9 1 13s-5 6-9 8l-2-10c3-2 6-5 7-9zM298 364c0-3 2-6 4-9v2c4 1 8-1 12-2-4 4-10 8-16 9zM180 356c3 2 8 4 9 8-3-2-7-4-9-8zM192 367c3 3 6 8 2 11l-2-11zM298 368h2c0 2 1 4 3 5l7 3-9 2c-2-2-3-6-3-10zM247 377l10-5c4 5 5 12 2 17-3-5-7-9-12-12zM219 404c-3-8 0-16 4-22l3 12-7 10z"/></g><g fill="#4a0000"><path d="M335 147c6-1 13-1 16 5 3 5 1 13-4 16-8 5-20-2-20-11 0-5 5-8 8-10zM156 148l7 1c5 3 9 9 6 14-3 8-15 10-22 5-2-2-3-5-3-7-2-7 6-13 12-13z"/></g><g fill="#c0330a"><path d="M230 220h26l3 1h5l2 1 15 3 1 1c1 2 3 2 4 1 6-3 13-5 19-4l3 1h2l-1 3c-4 0-8-2-12 0l11 3-2 4c-1-2-3-3-5-3h-2l-13-1c-13 0-25 2-37 7-8 2-15 4-22 8l-8 3 11-7c-9-3-20-1-29 1l5 8-4-2-2-5-1-4c9-2 19-4 28-2 4 0 8 2 11 1l12-5c-2-2-5-3-8-3a97 97 0 00-48 0v-2l1-1c3-2 8-3 12-3l8-1c4 0 8-3 12-2l3-1m1 3c3 3 7 2 11 3 6 1 12 5 18 4l13-2c-3-3-8-3-12-4-10-2-20-2-30-1zM320 240c0-4 1-8 3-11l4 5c8 2 16 7 21 13l7 14-1 2-2 6-7-3 1 3v6c-1-3-3-7-6-9 2-4-1-8-3-11-2-4-6-8-10-11l-1-1-4-4-2 1m11-1c0 4 3 7 6 10l6 10c2 3 6 5 9 6l-1-3c-3-10-10-20-20-23zM177 230l1 1 1 5h-4c-11 5-20 13-28 22l-1 4c1 3 3 4 6 6l13-15c5-4 11-6 16-8l1 3c-7 2-13 5-18 10l-10 13 8 9c6 9 9 19 8 29-2 5-7 8-10 12l-1-1-2 2v-3-1l-6-2c5 0 12-1 15-6 2-8 0-16-4-23-5-8-12-16-19-23h2l-3-5c4-3 6-8 9-11l9-7 1-1h1l2-2v-1l6-3 7-4zM257 244c7-3 15-3 22-4 8-1 15 0 22 1l-2 5c-1 2-2 4-5 5l5-7-4 1c-4 5-9 10-15 12l8-8 4-5c-5-4-13-2-17 3l-17 8c5-4 11-6 15-11-7 0-14 2-21 4l-15 6 5-4 15-6zM316 244l1-2v8l2-2c4 2 6 5 7 9h-5c2-3-1-5-2-7l-2 4-1-10zM309 268c4 0 9-1 12 3 3 2 5 5 3 8-1 6-7 7-11 9-7 2-14-5-11-11 1-4 4-7 7-9zM190 270c9-2 18 6 16 15 0 6-8 11-13 6-4-3-9-6-10-11 0-5 3-9 7-10zM135 295l3 8 5 8 7 5-4 1-2 1-4 6h-3l4-9-6-7-1 4-2 3-4 4-3-1 6-8 1-3v-1l1-3v-3l2 1v-6zM361 315c1-6 3-12 7-17l3 10 1-1h1c0 5 1 11-1 16-3 6-8 12-15 13v5l-2-6a1091 1091 0 01-4 10v-3l-3 1 1-5-3-3h6l-4-2c6 1 12 0 16-5l3-5c4-6 3-14 1-20-3 3-5 8-7 12z"/></g><g fill="#960801"><path d="M84 232h15c3 0 6 0 8 2l2 1 5 2 1 1c5 2 10 6 14 9l1 1 5 4 1 1 6 6 3 5h-2c-11-10-22-20-37-27-8-3-18-3-26 0l2 3 26 13c11 7 21 15 29 26 5 8 11 16 13 25l-3-3c-2-7-7-13-12-17v17l-2-1v-1l-1-8v-3c1-2 2-4 1-6l-2-5-1-1c-6-8-14-13-22-19l-6-3-1-1-2-1-6-3-3-1-1-1h-1l-1-1-3-1-1-1h-1l-1-1h-1l-1-1-2-1v-2-2-2l2-1 1-1h1l3-1zM167 270c8-11 22-14 35-12 15 4 25 21 22 36l-2-6c-4 6-9 12-15 15-9 2-19 3-26-3l-7-5-4-9c-2-5 1-12-3-16m23 0c-4 1-7 5-7 10 1 5 6 8 10 11 5 5 13 0 13-6 2-9-7-17-16-15zM316 258c7 0 15 2 19 7l5 12-2 13c-3 5-6 10-12 12-5 2-12 2-18 1-4 0-6-3-9-5-4-2-6-6-8-10-2-3-2-7-2-11 1-4 4-6 6-9 3-4 7-6 10-7l11-3m-7 10c-3 2-6 5-7 9-3 6 4 13 11 11 4-2 10-3 11-9 2-3 0-6-3-8-3-4-8-3-12-3zM239 282l2-1 2 3c1 5 3 10 7 13s10 2 13-1c4-3 5-8 6-13 0-1 1-3 3-2l1 4c2 10 4 20 2 30-1 8-5 14-12 18-5 3-12 2-17-1-4-3-8-8-9-13-1-6-2-13-1-19l3-18m1 36l4 8c4 4 11 6 17 4 5-2 8-8 11-13 1-8 0-17-1-25l-3 4c-3 5-11 8-17 6-5-2-7-7-10-11-2 9-2 18-1 27z"/></g><g fill="#f83428"><path d="M240 318c-1-9-1-18 1-27 3 4 5 9 10 11 6 2 14-1 17-6l3-4c1 8 2 17 1 25h-2c-3-6-11-8-18-7-5 1-8 5-12 8z"/><path d="M252 315c4-1 8 3 6 6-1 5-11 5-10-1 0-3 2-4 4-5z"/></g><path fill="#cc0700" d="M240 318c4-3 7-7 12-8 7-1 15 1 18 7h2c-3 5-6 11-11 13-6 2-13 0-17-4l-4-8m12-3c-2 1-4 2-4 5-1 6 9 6 10 1 2-3-2-7-6-6z"/></svg>