<svg width="683" height="683" viewBox="0 0 512 512" xmlns="http://www.w3.org/2000/svg"><g fill="#b4b4b3"><path d="M279 72h9v1h-9v-1zM388 76c0-2 5-2 5 0h-5zM382 76h2l-2 1v-1zM397 76c1-1 4-1 4 1l-4-1zM410 80zM369 82l1-1-1 1zM255 86l1-1-1 1zM362 89l1-1-1 1zM420 89v0zM252 91h1l-1 2v-2zM420 91l1 1-1-1zM422 96h1v2l-1-2zM250 106c0-3-1-6 1-8v8h-1zM423 103c2 0 2 3 0 3v-3zM421 115l1-2v2h-1zM359 115l1 2h-1v-2zM361 119zM417 121l1-1-1 1zM365 123zM415 124v-1 1zM372 128zM411 136l1-2v2h-1zM381 136l1 3c-1-1-2-1-1-3zM408 146l1-2v2h-1zM381 152h1l-1 2v-2zM380 156zM310 158a173 173 0 001 0h-1zM401 161l1-1-1 1zM374 166zM395 170l1-1-1 1zM300 177l2-2c0 1 0 2-2 2zM361 177zM381 185zM377 188zM373 191l1-1-1 1zM346 192l1-1-1 1zM253 194c-1-1 2-3 3-2l-3 2zM400 192c2 0 6-1 7 1l-7-1zM344 195zM168 200c4-3 9-4 13-5l-13 5zM415 195h2v1l-2-1zM367 197zM418 196zM420 197zM341 200l1-1-1 1zM423 199l1 1-1-1zM163 203c0-2 3-3 4-2l-4 2zM436 211l1 1-1-1zM439 215l1 1-1-1zM71 259c10-8 22-12 34-15l-2 5-12 3c-11 3-21 10-25 20l-3 6-4-5c1-7 7-10 12-14zM34 251c0-2 3-2 3 0h-3zM44 254l1 1-1-1zM475 278l1-1-1 1zM471 279l3-1c-5 2-2 9-6 12l3-11zM37 279l1 1-1-1zM47 293l1 1-1-1zM450 306l10-7c-9 18-22 33-36 47-8 9-18 15-27 22a91 91 0 00-5-6l14-11c2-1 3-2 3-4 6 1 13-2 15-8 2-2 2-6-1-7-4-3-8 1-12 3-7-2-15-2-22-5-4-1-7-2-10-1l12-2c6 2 13 2 19 2 8-1 14-6 18-13l22-10zM68 308c6 3 13 4 20 4l13 6H90l-18-3-4-7zM108 338c6 6 6 15 4 22l-8-6 3-5c3-3 3-7 1-11zM208 338h26v1h-19l5 9c-1 4 0 7 1 10l-5 6c-2 2-5 1-8 0 2 0 5 0 6-2 2-2 3-6 2-9l-8-15zM263 340l3-1c1 3 3 7 2 10 0 4-4 6-7 6-5 0-10-4-14-7 5 2 10 5 16 3 3-3 1-8 0-11zM369 373l7-4v3l3 6c-4 3-9 5-15 7-4 0-8-2-12 0-4 1-5 6-8 8-6 3-13 5-19 6l3-7 19-8 22-11zM307 398l2-3c-1 3 1 5 3 7-18 4-36 5-54 4l14-3c5 1 10 1 14-2v2l14-3c2 0 5 0 7-2z"/><path d="M172 397c11 3 22 7 33 8 27 4 53 6 80 4 17-1 33-4 49-9l6-1c2 0 2 3 2 5-3 6-10 9-16 10 2-2 4-3 5-6l-17 4a228 228 0 01-68 6l-22-2c-12-2-25-2-37-8l-16-8 1-3zM168 402c-2 0-2-3 0-3v3zM345 401c2-1 2 3 0 3v-3zM329 417l2-1v1h-2zM326 418l2-1v1h-2zM194 419l2 1h-2v-1zM320 420l2-1v1h-2zM309 423l2-1v1h-2zM304 424l2-1v1h-2zM298 425l3-1c-1 2-2 2-3 1zM290 426l4-1c0 2-3 2-4 1zM279 427l7-1c-1 2-5 1-7 1zM251 427h22v1h-22v-1z"/></g><g fill="#6f0302"><path d="M265 76c5-2 9-3 14-3a169 169 0 0113 0l2 1c6 1 12 4 16 9l5 8 1 4v13a70 70 0 01-4 8l-1 6 1 14v15l-1 3a3598 3598 0 01-1 4v1l-1 2-5 10-1 2v1l-1 1-2 2c-2 4-6 7-9 10l-4 4a29 29 0 01-7 6l-3 3-9 9-3 4-9 12-2 3-5 12-1 1c2-15 11-27 21-38l17-15c6-7 13-14 18-22 4-8 5-17 5-26v-19c-6 2-11 5-17 5l-7 1 3 9c3 10 3 22-2 31-3 7-9 11-14 16l-10 7c-8 8-18 14-27 21l5 11c4 10 3 21 1 32-3 9-9 18-17 22-11-2-22 0-33 3-4 1-9 4-14 3l-13-5-4-4-9-8-3-8-2-3a75 75 0 01-2-21l1-2 1-7 1-1v12c0 5 0 11 3 15 5 7 9 14 17 17 10 6 23 4 34 1 8-2 17-3 24-7 5-4 8-10 8-16 1-6 2-12 0-18-2-9-7-17-14-24-3-2-7-3-10-6h3l3 1c6 2 12 6 17 11l10-7 5-4 2-1 4-3 3-2 1-1 2-2 9-7 2-2c4-4 8-7 11-12 3-3 4-8 6-13v-4-4l-1-3-2-10-1-5c-1-2-3-2-5-3h-4-2l-2-1h-1l-4-2a21 21 0 01-13-13l-1-4v-9l1-3v-1l1-2 2-5 1-1 2-2c2 0 3-1 3-3s3-3 4-4m9 1c-8 2-16 8-18 16h-1v5c5 2 11 2 17 3 14 2 28 2 42-1 0-9-7-19-16-21-7-4-16-4-24-2m-20 24c-1 12 10 20 21 22 9 1 19 2 28-3 6-3 10-10 11-17-8 1-15 3-22 2h-7l-4 7c-7 7-21 4-23-6-1-3-1-6-4-5m7 2c-1 4 3 9 8 10 4 0 8 0 11-3v-5l-19-2zM384 76h13l4 1h1l5 2a7 7 0 014 2l3 2c0 2 1 3 3 3l3 3v2l1 1v1l1 2v1l1 2v8l-1 7-1 2-3 5-1 1-2 2v1c-2 3-2 7-3 10l-1 2-1 5-1 2v1l-1 2v1l-1 2-5 11-1 1-5 8-1 1a78 78 0 01-14 15l-3 2-1 1-3 2-1 1a21 21 0 00-6 6l-3 4c-2 1-1 2 0 2l-4 6-4-1c4-8 9-15 16-21 6-3 12-8 16-14 12-13 20-29 22-47l-12 4h-15l1 3v4c2 7 2 16-2 22-5 12-18 18-27 27-9 8-13 19-20 29-3 4-5 9-9 12l5-10 7-11 3-5v-1l1-1a86 86 0 014-7l1-1 3-4 6-6a44 44 0 016-5l10-8 1-1 1-1 1-1a37 37 0 006-10v-1l1-2v-13l-1-3a328 328 0 01-1-6l-7-2h-1a29 29 0 01-10-8l-1-1-1-2-1-2-1-4v-10c0-4 2-9 4-12l1-1 6-6 1-1 5-2 2-1h1l2-1h2l2-1m-12 8c-5 3-9 8-11 14v4c15 4 30 4 45 3l14-4c-1-7-4-13-10-16-11-8-26-8-38-1m-11 21c-1 4 0 9 3 13 5 5 11 8 18 9 9 1 19 0 28-4 6-4 10-11 10-18l-13 2-13 1-3 8c-6 6-18 6-24-1-2-3-2-6-3-10h-3m6 1v3c2 3 5 7 9 8 4 0 9 0 12-3 1-1 3-3 3-5-5-3-10 0-15-2l-9-1zM424 202h2l3 2 7 7 1 1 2 3 1 1c1 2 3 4 3 7l1 2v1l2 7-1 11c-2 3-6 4-9 5-4 1-8 4-11 7-4 4-8 9-9 16l-4 13a55 55 0 01-24 4c-6 0-11-2-15-4l-6-2-12-9-7-11 1-2c4 7 10 10 17 13 10 4 22 4 32 0 5-4 9-8 12-14 2-3 6-5 10-6l14-11c2-4 4-8 4-12-1-7-2-14-6-19l-8-10zM305 244l26-1v2c-14 0-29 0-41 8-7 3-12 7-19 9l-17 1v-2c7 0 14 0 20-3 10-5 19-13 31-14zM88 312l8 1 7 2 6 2a76 76 0 0022 6c8 3 17 4 25 5l4 1 8 1 4 3a488 488 0 01-71-15l-13-6zM411 335c4-2 8-6 12-3 3 1 3 5 1 7-2 6-9 9-15 8-1-1-3-2-3-4 0-4 3-6 5-8m6-2l-8 7v4c1 2 4 2 5 1 5-1 10-5 10-11-1-2-5-2-7-1zM133 336c4-1 8 1 10 4 3 3 7 6 6 11 0 2-3 2-5 2-6-1-12-6-13-13-1-2 0-4 2-4m0 1c-2 4 2 9 5 11s6 4 9 3c1-3-1-5-2-7-3-4-7-8-12-7zM379 337c3-1 6-2 8 1 2 2 2 6 0 8-3 4-9 8-15 7-3 0-4-5-3-8 2-4 6-7 10-8m-7 8c-2 1-2 4-1 6 5 2 11-2 14-6 2-2 2-5 0-7-5-1-10 3-13 7zM332 342c4-2 9-2 12 1 2 2 3 5 1 8-3 7-14 11-21 6-5-6 2-14 8-15m1 1c-3 2-7 4-8 7-1 2-1 6 2 7 7 2 16-2 17-10 0-5-7-5-11-4zM171 345c2-2 5-3 7-3l-2 2c-1 1-3 2-3 4 1 6 7 9 12 10l7-2h3l-3 1c-3 4-10 3-14 0-4-2-8-7-7-12zM220 348c2-2 5-4 8-3 5 0 11 1 14 6 2 2 2 6 1 8-2 4-8 4-12 4l-10-5c-1-3-2-6-1-10m4-1c-4 2-3 9 1 11 4 3 10 4 15 2 3-2 2-7-1-9-3-4-10-5-15-4zM279 346c5-1 12-1 16 4 4 4 1 10-3 13-6 3-14 2-18-4-3-4-1-12 5-13m1 1c-4 1-7 6-5 10 4 8 18 7 20-2 0-7-9-9-15-8zM125 360c6-1 11 2 15 6 2 2 2 5 1 7-1 3-4 3-6 2-4-1-9-4-11-8-1-2-1-5 1-7m1 2v5c2 4 7 7 12 7 2-1 3-4 1-5-2-5-8-8-13-7zM162 365c3-1 7 0 9 1 4 1 8 5 9 8s-1 6-3 6c-8 2-17-5-15-13v-2m2 2c-2 3 1 7 4 9s7 4 10 1c1-3-1-5-3-6-3-3-7-5-11-4zM345 367c3-1 8-2 10 1 0 3 0 5-2 7-4 4-10 5-16 4-2 0-2-4-1-6 2-3 6-5 9-6m-8 8c-1 3 2 3 4 3 5 0 11-2 12-8l-3-2c-5 0-11 2-13 7zM205 371c4-1 9 0 13 2 2 2 4 4 4 7s-3 5-5 5c-6 0-12-2-15-7 0-3 0-6 3-7m0 6c1 4 6 5 9 6 3 0 5-1 6-3-1-6-9-8-15-7-2 0-1 3 0 4zM293 379c2-8 11-9 17-7 5 1 4 7 1 10-5 2-11 3-16 1l-2-4m9-6c-3 1-6 3-7 6 1 3 4 3 6 3 3 0 6 0 9-2 1-1 3-4 1-6s-6-1-9-1zM252 373c4-1 8 0 11 1 3 0 6 2 6 5 0 2-1 4-3 4-4 3-9 3-14 2-3 0-6-3-6-7 1-3 4-4 6-5m0 2l-3 3c-1 2 0 4 2 5h11c2 0 5-1 5-4-2-5-10-5-15-4zM231 393c3-2 7-2 10-1s6 3 6 7c0 3-4 4-6 4-5 1-11-1-12-6l2-4m0 4c2 5 10 6 14 3 1-4-4-6-7-6-3-1-7-1-7 3zM268 397c1-2 4-5 7-5 4 0 9 0 12 4 1 1 0 3-1 5-4 3-9 3-14 2-1-1-4-3-4-6m3 0c-1 2 1 4 3 4 4 1 9 1 11-2 1-3-3-5-5-5-3-1-8-1-9 3z"/></g><g fill="#fdb05a"><path d="M292 73h2v1l-2-1zM274 77c8-2 17-2 24 2 3 4 9 7 9 13-1 3-4 4-7 4-12 3-24 1-36 0-3 0-6-1-8-3 2-8 10-14 18-16m-8 8c-2 1-3 4-2 6h4l11-3c2-1 4-3 4-5l-2-3c-6-1-11 1-15 5zM372 84c12-7 27-7 38 1 1 2 3 4 2 7-2 3-6 5-9 6-14 2-28 2-42 0 2-6 6-11 11-14m0 5c-1 2-1 4 1 5l10-3c2-1 4-3 4-6l-4-1c-4-1-9 1-11 5zM258 83l3-3c0 2-1 3-3 3zM285 127l7-1 6 9c2 1 4 3 4 5 1 7 1 14-1 20-4 11-12 20-20 28-5 4-9 10-12 15-10 11-19 23-21 38l1-1 5-12c7 2 10 8 16 12l-10-13c0-2-1-5 1-6 5-2 10-1 14-1 4 2 7 7 11 10l-7-13c7 0 13 5 19 8-2-4-6-7-10-9-5-2-11-2-16-3 0-2-1-5 1-6 5-4 11-5 17-5 7 1 15 4 20 10 2 3 3 6 6 8l-5-10c4-3 9-4 14-5h7c1 4 0 8-1 12l-5 10c4-3 6-8 9-12 7-10 11-21 20-29 3 0 5 0 6-2 8-5 17-10 22-18 4-5 7-12 7-19v-13l-6 3v-4-2c2-1 5-1 6 1l8 6c2 3 1 7 0 10-3 10-7 19-14 26-4 4-9 8-12 13-7 6-12 13-16 21l-7 12c-8 13-9 30-1 43l7 11c1 5 5 8 8 12-6-3-12-7-16-12l-8-15c1 7 4 13 8 19 3 4 7 8 12 10 8 4 17 7 25 9 5 1 11 2 15 6-9-4-20-4-29-2h-9c-5-2-11-3-16-6-8-4-13-12-17-19-3-5-4-11-8-16 1 6 4 11 6 16 3 8 8 17 16 21 5 3 11 4 16 6l-1 1c-8-1-17 0-24-5-4-1-6-4-8-7l-5-16c0-2-1-5-3-6l4 17c1 5 1 11 5 15 4 5 10 6 15 9l-11 7-7-3c-1-5-6-7-8-11-5-6-3-13-7-19-1-7-4-13-8-18l4 13 1 9c-2 5-7 11-13 11-2 0-3-2-3-4 2-5 6-9 7-14-5 5-8 12-12 17l-7 17c-4 5-8 11-15 12-3 1-6-2-8-4 7-3 12-10 14-17s3-14 7-20c3-7 8-12 10-18l-11 13-7 3 7-11-12 13c-4 6-6 13-11 18-4 6-10 10-17 11s-14 1-20 5c-6 3-12 3-19 3-3-1-5-2-6-5s-2-6-1-9c2-2 6-1 9-1 6-1 10-4 16-6 7-1 14 0 21-3 5-4 5-11 9-16s10-8 13-14c-6 3-10 8-15 12l-10-3 7-13 3-12c2-11 3-22-1-32l-5-11c9-7 19-13 27-21l10-7 5-2c6-5 12-10 15-18 3-7 4-16 4-24 0-2 0-5-2-6h-6v3l-3-9m20 117c-12 1-21 9-31 14-6 3-13 3-20 3v2l17-1c7-2 12-6 19-9 12-8 27-8 41-8v-2l-26 1zM409 143l1-2v2h-1zM407 149l1-2v2h-1z"/><path d="M287 155c-2-1-2-4 0-4v4zM311 154l1-3c1 1 0 2-1 3zM372 168l1-1-1 1zM94 171h8v1h-8v-1zM76 184l8-6c6 1 13 0 20 2l15 7c4 3 6 9 10 12l9 5 12 4c-6 5-15 2-22-2l-18-14c-6-4-12-7-19-8H76zM93 192l3 1c-2 1-2 0-3-1zM216 193h15v1h-15v-1zM233 194c1-1 2 0 3 1l-3-1zM160 203h2l-2 1v-1zM147 204c2-1 3 0 3 1l-3-1zM107 249c3-9 9-18 17-23 2 1 5 3 5 6 1 7-4 13-8 18l-14-1zM466 241l1 1-1-1zM468 243l1 1-1-1zM472 248l1 1-1-1zM38 251h2v1l-2-1zM458 251l1 1c-6 1-13 2-19 6-4 3-8 6-10 11-4 10-6 20-7 31-1 6-5 12-11 15-8 4-18 2-26 1-11-2-23 2-33 7-5 2-9 4-13 8l-24 3h-2l9-8c5 1 9-3 13-5 11-6 23-9 35-13 8-2 16-2 24 0 4 0 8 1 12-1l-7-1c4 1 8 1 10-3 3-4 3-9 5-13l4-18v2l6-9c4-5 10-9 16-11l17-3zM474 251zM30 253zM33 255c1-2 4-1 6 0h-2c6 5 10 12 14 18 4 7 9 13 15 18 5 3 11 5 17 5l4-2c4-2 7-4 9-7l14-17 6-2c6-4 12-7 19-7 4-1 9 0 13-4l3 8c-7 4-16 3-23 7-10 6-13 17-21 24-8 8-20 9-30 7-9-2-16-9-23-15-9-9-13-21-21-30v-3z"/><path d="M96 259l27-3c-6 2-11 6-14 11-3 3-8 3-13 5-5 1-11 4-15 9-2 4 1 7 3 10h-1c-7-2-13-5-18-10l3-6v2l11-10c6-3 11-7 17-8zM479 259zM479 262h1v2l-1-2zM30 263v0zM53 263l1 1-1-1zM448 271l5-3c3 0 5 2 6 5 3 5 2 13-3 17-4 2-8 3-13 3-2-1-3-4-3-6 3-1 7-2 9-6 1-3 0-7-1-10zM154 278l10-1 13 5 3 2-8 6c-6 0-12-2-17 0-5 1-10 7-8 12 1 6 8 9 7 16h-5l-12-5c0-5-4-8-4-12-2-7 2-13 8-16 7-5 16-4 23-7h-10zM202 284c12-2 24-1 35 2v1l-6 5-15-2c-10-1-20 1-26 9l-6 7-7 10c-2 3-6 1-8 0-1-5-2-10 1-14v2l8-8c6-7 15-10 24-12zM40 284l1 1-1-1zM43 288l1 1-1-1zM260 297l6 2v5l-4 9c-3 0-5-2-7-3l-1-2 6-11zM53 299zM296 306c4-1 6-4 10-4l7 11c-9 8-21 10-33 8l4-14c4 0 9 2 12-1z"/><path d="M155 308c3-2 6-3 10-3-1 5 0 10 1 16-4 1-8 4-10 7-8-1-17-2-25-5l8-5c5 1 8 4 13 4 3 0 5-1 6-4 0-4-2-7-3-10zM124 308h4l5 5c-6 4-15 6-22 2 4-3 8-6 13-7zM305 328c4-4 6-10 11-13l2 1c0 2-1 5-3 7l-12 12h-11c5-1 10-3 13-7zM175 328l5-3 9 4 15 10c3 2 4 5 5 8-1 2-1 5-3 5-5 0-10-2-15-4-6-6-15-11-16-20zM235 329h1l19 5 1 1 1 2c-1 2-2 5-5 5-7-2-14-6-19-11l2-2zM97 334l5 3c-4 4-9 9-15 10 4-4 8-8 10-13zM76 342h2l-2 1v-1zM70 344c1-2 2-2 3-1l-3 1zM381 367c2-2 6-2 9-2 4 4 6 11 12 13-4 0-8 1-11-1-5-2-8-6-10-10zM405 375h2v1l-2-1z"/></g><g fill="#81523b"><path d="M378 77h2l-2 1v-1zM375 78h2l-2 1v-1zM421 93h1v2l-1-2zM251 97c-1-2-1-2 1-3l-1 3zM316 95h1v12h-1V95zM252 110l1 2h-1v-2zM270 125l2 1h-2v-1zM274 126h4c-1 2-4 2-4 0zM380 130l1 3c-1 0-2-1-1-3zM286 144l1 3c-2-1-2-2-1-3zM309 161l1-2v2h-1zM257 191c0-2 1-2 2-2l-2 2zM84 192h8-8zM408 193c1-1 2 0 3 1l-3-1zM182 195c1-2 2-2 3-1l-3 1zM412 194h2v1l-2-1zM376 195h2l-2 1v-1zM247 197h2l-2 1v-1zM443 223h1v2l-1-2zM90 245l17-5-2 4c-12 3-24 7-34 15-5 4-11 7-12 14l-3-5c5-7 13-12 20-17 4-3 9-4 14-6zM30 260c-2-1-2-5 0-6v6zM448 303c7-4 15-6 20-13a163 163 0 01-28 44c-4 7-10 11-15 17l-10 9-16 10-2-2c9-7 19-13 27-22 14-14 27-29 36-47l-10 7-22 10 3-5 17-8zM63 307l5 1 4 7 16 22-3 2c-7-8-13-17-18-26-2-2-4-4-4-6zM357 329l25-4c3-1 6 1 9 2l-12 2-54 7c-20 3-39 2-59 3l-3 1-2-5a40 40 0 0015 0h32l8-1 24-3 17-2zM92 332c1-1 3-2 5-1 4 1 8 4 11 7 2 4 2 8-1 11l-1-3c0-3-1-7-4-9l-5-3-5-2zM205 334l23 1c2 0 5 1 6 3h-26l-3-4zM104 354l8 6c11 12 26 20 41 26 4 1 8-2 11 1 5 1 6 6 10 7l20 6-5-4c-1-3 1-6 3-7 5 0 10 0 13 4 3 2 1 6-1 7l-9 1a438 438 0 0063 5c18 1 36 0 54-4-2-2-4-4-3-7 4-5 13-8 19-3l-3 7c6-1 13-3 19-6 3-2 4-7 8-8 4-2 8 0 12 0 6-2 11-4 15-7l3 3-38 16 1 4v3c0 3-3 6-6 8-2 2-5 4-8 4l-2 1h-1l-2 1-1 1h-3l-2 1-9 2-2 1a302 302 0 01-5 1h-3l-3 1h-4l-4 1h-4l-7 1h-28c-6 0-12 1-17-1-9 0-17-1-26-3l-12-3-2-1h-2c-6-3-13-5-19-9-2-2-5-5-5-8v-3-3l-11-4c-18-7-35-17-49-31-2-1-5-2-6-5l2-2m244 38l9-3c1-1 3-1 3-3-5 0-10 1-12 6m-191-5l1 1 10 4c-3-3-7-5-11-5m34 5l1 4c2 2 5 2 8 3 2 0 5-2 4-5-3-3-9-4-13-2m119 4l2 4c4 0 8-1 11-3 2-1 2-3 2-5-5-2-11 1-15 4m-138 1l-1 3c0 3 3 6 5 8l21 9a249 249 0 00129-3c6-1 13-4 16-10 0-2 0-5-2-5l-6 1c-16 5-32 8-49 9-27 2-53 0-80-4-11-1-22-5-33-8zM379 363c4-2 9-2 13-1l3 4-5-1c-3 0-7 0-9 2a198 198 0 01-5 5v-3l3-6z"/></g><g fill="#e4e3e2"><path d="M402 77c1-1 5 0 5 2l-5-2zM310 83l5 8-5-8zM414 83c1-1 4 2 3 3-2 0-3-1-3-3zM254 101c3-1 3 2 4 5 2 10 16 13 23 6l4-7h7c7 1 14-1 22-2-1 7-5 14-11 17-9 5-19 4-28 3-11-2-22-10-21-22zM357 101h1v10h-1v-10zM361 105h3c1 4 1 7 3 10 6 7 18 7 24 1l3-8 13-1 13-2c0 7-4 14-10 18-9 4-19 5-28 4-7-1-13-4-18-9-3-4-4-9-3-13zM313 115l3-7c0 2-1 6-3 7zM265 123l4 2c-1 1-4 0-4-2zM283 129l1 5c-2 0-2-4-1-5zM303 173l1-2v2h-1zM268 182c0-2 1-2 2-2l-2 2zM350 187l6-6-6 6zM71 185h1c0 3 0 6 2 7h9v1H73c-2-2-2-5-2-8zM287 191l4-4-4 4zM388 193c1-2 5-1 7-1l-7 1zM186 193h15v1h-15v-1zM379 195c2-2 5-2 7-2l-7 2zM202 194l9 1-1 1-8-2zM364 203c-1 0-2-1 0-2l1 1-1 1zM426 202c2 0 3 0 3 2l-3-2zM72 315l18 3h11l34 10 37 5 7 9h-1c-2 0-5 1-7 3-1 5 3 10 7 12 4 3 11 4 14 0l3-1 13 8c3 1 6 2 8 0l5-6 10 5c4 0 10 0 12-4 1-2 1-6-1-8-3-5-9-6-14-6-3-1-6 1-8 3l-5-9h19l13 9c4 3 9 7 14 7 3 0 7-2 7-6 1-3-1-7-2-10 20-1 39 0 59-3l54-7c3-1 6 0 10 1 7 3 15 3 22 5-2 2-5 4-5 8 0 2 2 3 3 4 0 2-1 3-3 4l-14 11c-4-1-9-1-13 1l-3 6-7 4-22 11-19 8c-6-5-15-2-19 3l-2 3c-2 2-5 2-7 2l-14 3v-2c1-2 2-4 1-5-3-4-8-4-12-4-3 0-6 3-7 5 0 3 3 5 4 6l-14 3h-19l-44-5 9-1c2-1 4-5 1-7-3-4-8-4-13-4-2 1-4 4-3 7l5 4-20-6c-4-1-5-6-10-7-3-3-7 0-11-1-15-6-30-14-41-26 2-7 2-16-4-22-3-3-7-6-11-7-2-1-4 0-5 1l-4 5-16-22m61 21c-2 0-3 2-2 4 1 7 7 12 13 13 2 0 5 0 5-2 1-5-3-8-6-11-2-3-6-5-10-4m246 1c-4 1-8 4-10 8-1 3 0 8 3 8 6 1 12-3 15-7 2-2 2-6 0-8-2-3-5-2-8-1m-47 5c-6 1-13 9-8 15 7 5 18 1 21-6 2-3 1-6-1-8-3-3-8-3-12-1m-53 4c-6 1-8 9-5 13 4 6 12 7 18 4 4-3 7-9 3-13-4-5-11-5-16-4m-154 14c-2 2-2 5-1 7 2 4 7 7 11 8 2 1 5 1 6-2 1-2 1-5-1-7-4-4-9-7-15-6m37 5v2c-2 8 7 15 15 13 2 0 4-3 3-6s-5-7-9-8c-2-1-6-2-9-1m183 2c-3 1-7 3-9 6-1 2-1 6 1 6 6 1 12 0 16-4 2-2 2-4 2-7-2-3-7-2-10-1m-140 4c-3 1-3 4-3 7 3 5 9 7 15 7 2 0 5-2 5-5s-2-5-4-7c-4-2-9-3-13-2m88 8l2 4c5 2 11 1 16-1 3-3 4-9-1-10-6-2-15-1-17 7m-41-6c-2 1-5 2-6 5 0 4 3 7 6 7 5 1 10 1 14-2 2 0 3-2 3-4 0-3-3-5-6-5-3-1-7-2-11-1m-21 20l-2 4c1 5 7 7 12 6 2 0 6-1 6-4 0-4-3-6-6-7s-7-1-10 1zM65 350c-2 0-2-4 0-4v4zM394 387h11v1h-11v-1zM102 392h1v1h-1v-1z"/><path d="M171 400l16 8c12 6 25 6 37 8l22 2a277 277 0 0068-6l17-4c-1 3-3 4-5 6a221 221 0 01-75 10c-18-1-36-3-54-7l-21-9c-2-2-5-5-5-8zM328 430c1-2 4-2 6-2l-1 2h-5z"/></g><g fill="#eb7804"><path d="M298 79c9 2 16 12 16 21-14 3-28 3-42 1-6-1-12-1-17-3v-5h1c2 2 5 3 8 3 12 1 24 3 36 0 3 0 6-1 7-4 0-6-6-9-9-13zM410 85c6 3 9 9 10 16l-14 4c-15 1-30 1-45-3v-4c14 2 28 2 42 0 3-1 7-3 9-6 1-3-1-5-2-7zM292 126c6 0 11-3 17-5v19c0 9-1 18-5 26-5 8-12 15-18 22l-17 15c3-5 7-11 12-15 8-8 16-17 20-28 2-6 2-13 1-20 0-2-2-4-4-5l-6-9zM398 130l12-4c-2 18-10 34-22 47-4 6-10 11-16 14 3-5 8-9 12-13 7-7 11-16 14-26 1-3 2-7 0-10l-8-6c-1-2-4-2-6-1a391 391 0 01-1-1h15zM75 189l1-5h15c7 1 13 4 19 8l18 14c7 4 16 7 22 2l6 1c-4 4-7 8-9 14l-1 1c-5 0-10-2-14-5-9-6-14-16-22-23-7-5-16-8-24-7H75zM215 198c8-3 16-2 24 1 2 0 3 1 3 3l-10 7c-5-5-11-9-17-11zM268 209l9-9 13 2c-6 0-12 1-17 5-2 1-1 4-1 6l-4-4zM325 205c4-1 10-3 13 1l-7 11c1-4 2-8 1-12h-7zM256 225l9-12 10 7c-4 0-9-1-14 1-2 1-1 4-1 6l-4-2zM124 226c2-2 5-5 8-3l12 4 1 4-1 2-11 7-7 11-5-1c4-5 9-11 8-18 0-3-3-5-5-6zM446 233h1c13 5 24 16 29 29l1 8c-1 3-5 6-8 6l-5-10-4-7c2-2 5-5 3-8-4-6-11-5-17-6l-1-1 1-11zM136 242c2-3 5-5 8-4l2 16c-6 1-11 0-16-3 1-4 3-7 6-9z"/><path d="M459 252l1 3c-7 4-16 4-21 11-6 9-8 20-8 30-2 9-5 19-12 25-6 5-14 4-21 4s-13-3-20-4c-8 0-14 6-21 8l-17 2c4-4 8-6 13-8 10-5 22-9 33-7 8 1 18 3 26-1 6-3 10-9 11-15 1-11 3-21 7-31 2-5 6-8 10-11 6-4 13-5 19-6zM224 276c8-4 14-13 17-22l-3 12-7 13-7-3zM33 258c8 9 12 21 21 30 7 6 14 13 23 15 10 2 22 1 30-7 8-7 11-18 21-24 7-4 16-3 23-7l9 8c-7 2-14-1-21 0s-12 5-17 10-6 12-11 17c-8 7-19 10-29 9-9-2-18-5-25-11-7-5-12-13-17-20-3-6-7-13-7-20z"/><path d="M444 266c3-3 8-4 12-5 3 3 4 6 6 10 3 4 3 10 2 16-1 4-5 7-9 9-7 3-14 5-22 5l2-13 5-1c0 2 1 5 3 6 5 0 9-1 13-3 5-4 6-12 3-17-1-3-3-5-6-5l-5 3-4-5z"/><path d="M441 269c3 2 6 6 5 11-2 3-7 3-10 4 0-5 2-11 5-15zM84 282c5-5 12-8 19-9-2 5-6 8-9 12l-3 3h-3c-2-1-5-3-4-6zM355 274l12 9 3 5c-3 1-5-1-7-2-3-4-7-7-8-12zM132 278c4-1 8-3 12-1-4 2-8 3-11 7l-1 1-9 2c2-4 6-7 9-9zM267 285l7-3-7 14-4-2c0-3 2-6 4-9zM378 292c-3-1-6-4-5-7 4 2 9 4 15 4l10 1 1 7-21-5zM402 288l10-3-1 4-10 4c0-2-1-4 1-5zM231 292l6-5c-1 3-1 7-4 9-8-1-16-4-24-4-7 1-13 5-19 7 6-8 16-10 26-9l15 2zM292 300c6 0 11-6 13-11v9c-6 4-13 8-20 6l4-8c0 2 1 4 3 4zM121 291l6-1v15l-7 1c-5 1-10 3-15 1 4-3 8-5 11-9l5-7zM151 296c3-4 8-4 12-4l1 2c-4 3-9 6-14 7l1-5zM325 292c2 3 4 6 8 7 7 5 16 4 24 5-4 2-7 4-11 4-3 1-5-1-8-2-4-2-8-3-10-7-2-2-3-4-3-7zM166 296l4-3v3c-2 2-3 5-6 5l-12 5-1-2c5-2 11-4 15-8zM402 297l8-4c0 4-1 7-3 10-3-1-5-3-5-6z"/><path d="M192 303c5-5 13-8 21-8 5 1 10 1 14 4-5 1-11 0-16 2l-13 5-7 1c-1-2 0-3 1-4zM433 305l15-2-17 8c1-2 0-4 2-6zM177 316l7-10v4l2 10-7 2-6 3c-3-2-4-6-4-9 2 1 6 3 8 0zM95 311h16c-2 2-5 4-8 4l-7-2-1-2zM244 316c3-1 5-4 9-4l7 4-11 7-13 2c-4 2-6 6-8 10l-23-1c-2-2-5-4-6-7l15-3 12-3c6-1 13-1 18-5zM133 313l3 3-8 7c-7-1-13-3-19-6l2-2c7 4 16 2 22-2zM262 328c7-1 11-7 15-12-2 9-9 13-16 19l-10-9 3-2c2 2 5 5 8 4zM318 316l8 4c-6 5-13 9-18 15h-5l12-12c2-2 3-5 3-7zM289 325l15-3c-1 4-4 7-8 8l-20 5h-9l11-11 11 1zM160 329c2-3 4-5 8-5l4 6a56 56 0 01-12-1z"/><path d="M232 334l1-3c5 5 12 9 19 11 3 0 4-3 5-5 3 3 4 6 5 10-1 2-3 1-5 1-5-1-10-4-14-7l-11-7zM417 333c2-1 6-1 7 1 0 6-5 10-10 11-1 1-4 1-5-1v-4l8-7zM102 337c3 2 4 6 4 9-5 5-11 9-18 10s-16-1-20-8c3-2 6-2 10-2l9 1c6-1 11-6 15-10zM133 337c5-1 9 3 12 7 1 2 3 4 2 7-3 1-6-1-9-3s-7-7-5-11zM372 345c3-4 8-8 13-7 2 2 2 5 0 7-3 4-9 8-14 6-1-2-1-5 1-6zM333 343c4-1 11-1 11 4-1 8-10 12-17 10-3-1-3-5-2-7 1-3 5-5 8-7zM173 348c0-2 2-3 3-4 6-1 10 4 14 8l2 4-7 2c-5-1-11-4-12-10zM209 347c3 4 6 10 3 14-4 0-8-2-11-5l-10-8c5 2 10 4 15 4 2 0 2-3 3-5zM224 347c5-1 12 0 15 4 3 2 4 7 1 9-5 2-11 1-15-2-4-2-5-9-1-11zM280 347c6-1 15 1 15 8-2 9-16 10-20 2-2-4 1-9 5-10zM126 362c5-1 11 2 13 7 2 1 1 4-1 5-5 0-10-3-12-7v-5zM164 367c4-1 8 1 11 4 2 1 4 3 3 6-3 3-7 1-10-1s-6-6-4-9zM379 369l2-2c2 4 5 8 10 10 3 2 7 1 11 1 3 0 6 1 8 3-5 5-13 4-19 2s-10-8-12-14zM337 375c2-5 8-7 13-7l3 2c-1 6-7 8-12 8-2 0-5 0-4-3zM205 377c-1-1-2-4 0-4 6-1 14 1 15 7-1 2-3 3-6 3-3-1-8-2-9-6zM302 373c3 0 7-1 9 1s0 5-1 6c-3 2-6 2-9 2-2 0-5 0-6-3 1-3 4-5 7-6zM252 375c5-1 13-1 15 4 0 3-3 4-5 4h-11c-2-1-3-3-2-5l3-3zM348 392c2-5 7-6 12-6 0 2-2 2-3 3l-9 3zM157 387c4 0 8 2 11 5l-10-4-1-1zM191 392c4-2 10-1 13 2 1 3-2 5-4 5-3-1-6-1-8-3l-1-4zM310 396c4-3 10-6 15-4 0 2 0 4-2 5-3 2-7 3-11 3l-2-4zM231 397c0-4 4-4 7-3 3 0 8 2 7 6-4 3-12 2-14-3zM271 397c1-4 6-4 9-3 2 0 6 2 5 5-2 3-7 3-11 2-2 0-4-2-3-4z"/></g><g fill="#ffe48f"><path d="M266 85c4-4 9-6 15-5l2 3c0 2-2 4-4 5l-11 3h-4c-1-2 0-5 2-6zM372 89c2-4 7-6 11-5l4 1c0 3-2 5-4 6l-10 3c-2-1-2-3-1-5zM311 122l1-6v20l-1-14zM288 133h6c2 1 2 4 2 6 0 8-1 17-4 24-3 8-9 13-15 18l-5 2c5-5 11-9 14-16 5-9 5-21 2-31v-3zM384 137l6-3v13c0 7-3 14-7 19-5 8-14 13-22 18-1 2-3 2-6 2 9-9 22-15 27-27 4-6 4-15 2-22zM84 178c7-4 16-5 24-2 6 2 11 7 16 12s8 11 14 16l-9-5c-4-3-6-9-10-12l-15-7c-7-2-14-1-20-2zM280 197h7v1l-7-1zM444 226l1 4h3v1l-1 2h-1l-2-7zM449 231c3 0 5 2 8 4l-8-4zM438 251c6-3 14-4 20 0l-17 3c-6 2-12 6-16 11l-6 9v-2c2-10 10-17 19-21zM94 254c11-2 24-2 35 1l-6 1-27 3c-6 1-11 5-17 8l-11 10v-2c5-10 15-18 26-21zM37 255h2c3 1 6 4 9 7 4 4 6 10 10 15 4 7 11 11 17 15 4 2 8 2 12 2l-4 2c-6 0-12-2-17-5-6-5-11-11-15-18-4-6-8-13-14-18zM118 262c9-5 20-4 30-5-4 4-9 3-13 4-7 0-13 3-19 7l-6 2 8-8zM135 285a39 39 0 0129-7c-7 3-16 2-23 7-6 3-10 9-8 16 0 4 4 7 4 12-6-4-9-11-8-18 0-4 3-7 6-10zM185 285l21-6c11-2 21 2 31 5v2c-11-3-23-4-35-2-9 2-18 5-24 12l-8 8v-2l2-6c4-5 8-9 13-11zM308 285c4 6 2 13 7 19 2 4 7 6 8 11-6-3-12-7-14-14l-1-16zM358 308c8-4 18-6 27-5l15 3 7 1c-4 2-8 1-12 1-8-2-16-2-24 0-12 4-24 7-35 13-4 2-8 6-13 5 11-8 22-14 35-18zM180 325c4-3 10-1 14 2l10 12-15-10-9-4zM236 329c2-2 5-2 8-2 5 0 9 3 11 7l-19-5zM87 341c3-2 6-6 10-7-2 5-6 9-10 13l-9-1c3-1 6-2 9-5z"/></g><g fill="#4a0202"><path d="M261 103l19 2v5c-3 3-7 3-11 3-5-1-9-6-8-10zM367 106l9 1c5 2 10-1 15 2 0 2-2 4-3 5-3 3-8 3-12 3-4-1-7-5-9-8v-3z"/></g><g fill="#c0340c"><path d="M85 174l9-2h8c6 0 12 3 17 7l16 16c2 5 8 6 12 9l3 1 10-1-4 5-6-1-12-4c-6-5-9-11-14-16s-10-10-16-12c-8-3-17-2-24 2l-8 6-1 5h11c8-1 17 2 24 7 8 7 13 17 22 23 4 3 9 5 14 5l-1 7-1-4-12-4c-3-2-6 1-8 3-8 5-14 14-17 23l14 1 5 1 7-11 11-7v5c-3-1-6 1-8 4-3 2-5 5-6 9 5 3 10 4 16 3l2 3c-10 1-21 0-30 5l-8 8-14 17-2-2c3-4 7-7 9-12-7 1-14 4-19 9-1 3 2 5 4 6l-1 1-1 3-3-1h1c-2-3-5-6-3-10 4-5 10-8 15-9 5-2 10-2 13-5 3-5 8-9 14-11l6-1c-11-3-24-3-35-1l-1-2h-2l12-3 2-5 2-4c5-8 11-16 20-20l-7-8-12-13c-3-3-8-4-12-6l-3-1H74c-2-1-2-4-2-7v-3c4-4 8-6 13-8zM212 194h21l3 1c4 0 8 2 11 3l-5 4c0-2-1-3-3-3-8-3-16-4-24-1l-3-1-2-1 1-1 1-1zM277 200l3-3 7 1c5 0 11 2 16 4l6 5c6-3 12-5 19-6h13l-3 5c-3-4-9-2-13-1-5 1-10 2-14 5l5 10c-3-2-4-5-6-8-5-6-13-9-20-10l-13-2zM265 213l3-4 4 4c5 1 11 1 16 3 4 2 8 5 10 9-6-3-12-8-19-8l7 13c-4-3-7-8-11-10l-10-7zM177 214c7-1 16 0 20 6 3 4 1 11-4 13h-8c-4 0-7 2-10 0-3-1-6-4-6-7-1-5 3-11 8-12zM380 216c4-1 8 0 12 1 5 2 9 9 5 14-2 5-8 4-12 6-4 1-9 2-12-1-2-3-4-6-2-9 1-5 5-9 9-11zM254 228l2-3 4 2 10 13c-6-4-9-10-16-12zM448 231h1l8 4c4 1 6 4 9 6l1 1 1 1 1 1 3 4 1 1 1 2 1 1a63 63 0 014 8v2l1 2c0 5 1 11-4 13l-1 1h-1l-3 1-3 11c-5 7-13 9-20 13l-15 2c-2 2-1 4-2 6l-3 5c-4 7-10 12-18 13-6 0-13 0-19-2-3-1-6-3-9-2l-25 4c7-2 13-8 21-8 7 1 13 4 20 4s15 1 21-4c7-6 10-16 12-25 0-10 2-21 8-30 5-7 14-7 21-11l-1-3-1-1c-6-4-14-3-20 0-9 4-17 11-19 21l-4 18c-2 4-2 9-5 13-2 4-6 4-10 3l-15-3c-9-1-19 1-27 5-13 4-24 10-35 18l-9 8h2l-8 1c5-6 12-10 18-15l-8-4-2-1c-5 3-7 9-11 13-3 4-8 6-13 7h-16l20-5c4-1 7-4 8-8l-15 3-11-1-11 11h5-11c7-6 14-10 16-19l7-17c4-5 7-12 12-17-1 5-5 9-7 14l-4 8c7 2 14-2 20-6v-9l-1-9-4-13c4 5 7 11 8 18l1 16c2 7 8 11 14 14l7 3 11-7c-5-3-11-4-15-9-4-4-4-10-5-15l-4-17c2 1 3 4 3 6l5 16c0 3 1 5 3 7 2 4 6 5 10 7 3 1 5 3 8 2 4 0 7-2 11-4l1-1c-5-2-11-3-16-6-8-4-13-13-16-21-2-5-5-10-6-16 4 5 5 11 8 16 4 7 9 15 17 19 5 3 11 4 16 6h9c9-2 20-2 29 2-4-4-10-5-15-6-8-2-17-5-25-9-5-2-9-6-12-10-4-6-7-12-8-19l8 15c4 5 10 9 16 12 2 1 4 3 7 2l-3-5 6 2c-1 3 2 6 5 7l21 5-1-7-10-1 14-1c-2 1-1 3-1 5l10-4 1-4 4-13c1-7 5-12 9-16 3-3 7-6 11-7 3-1 7-2 9-5l1 1c6 1 13 0 17 6 2 3-1 6-3 8l4 7 5 10c3 0 7-3 8-6l-1-8c-5-13-16-24-29-29l1-2m-4 35l4 5c1 3 2 7 1 10-2 4-6 5-9 6l-5 1-2 13c8 0 15-2 22-5 4-2 8-5 9-9 1-6 1-12-2-16-2-4-3-7-6-10-4 1-9 2-12 5m-3 3c-3 4-5 10-5 15 3-1 8-1 10-4 1-5-2-9-5-11m-39 28c0 3 2 5 5 6 2-3 3-6 3-10l-8 4m-106 9c-3 3-8 1-12 1l-4 14c12 2 24 0 33-8l-7-11c-4 0-6 3-10 4zM274 282l11-13c-2 6-7 11-10 18-4 6-5 13-7 20v-4l-2 1v-5l-6-2-6 11 1 2h-2v2c-4 0-6 3-9 4-5 4-12 4-18 5l-12 3v-3c6-4 13-4 20-5s13-5 17-11c5-5 7-12 11-18l12-13-7 11c-2 3-4 6-4 9l4 2 7-14zM241 282c5-4 9-9 15-12-3 6-9 9-13 14s-4 12-9 16c-7 3-14 2-21 3-6 2-10 5-16 6l1-3 13-5c5-2 11-1 16-2-4-3-9-3-14-4-8 0-16 3-21 8-1 1-2 2-1 4l-4-1-3 4v-4l6-7c6-2 12-6 19-7 8 0 16 3 24 4 3-2 3-6 4-9v-1-2c-10-3-20-7-31-5l-21 6c-5 2-9 6-13 11h-2v-3l-4 3-2-2-1-2v-2h-8c5-2 11 0 17 0l8-6-3-2c5 1 10-2 14-3 11-3 22-5 33-3l7 3 10 3zM122 283c5-5 10-9 17-10s14 2 21 0l4 4-10 1c-7 0-13 3-19 7l-2-1c3-4 7-5 11-7-4-2-8 0-12 1-3 2-7 5-9 9l9-2-5 5-6 1-5 7c-3 4-7 6-11 9 5 2 10 0 15-1v2h4c-5 1-9 4-13 7l-2 2-6-2c3 0 6-2 8-4H95c-5 0-9 0-13-2 10 1 21-2 29-9 5-5 6-12 11-17zM88 337l4-5 5 2c-4 1-7 5-10 7-3 3-6 4-9 5-4 0-7 0-10 2 4 7 13 9 20 8s13-5 18-10l1 3-3 5-2 2c-2-2-4 0-6 1-6 3-12 2-18 2-5-1-10-5-13-9v-5l5-1 3-1h3l2-1c2-1 5-1 7-3l3-2zM390 365l5 1a91 91 0 014 4c1 3 4 4 6 5a234 234 0 019 4v4c-2 2-6 4-9 4h-11c-5 0-9-3-12-6l-3-3-3-6 3-3c2 6 6 12 12 14s14 3 19-2c-2-2-5-3-8-3-6-2-8-9-12-13z"/></g><g fill="#960801"><path d="M395 192h5l7 1h1l3 1h1l2 1h1l2 1h1l1 1h2l2 2 1 1 2 2h-2l8 10c4 5 5 12 6 19 0 4-2 8-4 12l-14 11c-4 1-8 3-10 6-3 6-7 10-12 14-10 4-22 4-32 0-7-3-13-6-17-13l-1 2c-8-13-7-30 1-43l7-12 4 1 4-6 1-1c3-3 7-5 11-6l2-1h1l7-2h2l7-1m-15 24c-4 2-8 6-9 11-2 3 0 6 2 9 3 3 8 2 12 1 4-2 10-1 12-6 4-5 0-12-5-14-4-1-8-2-12-1zM185 194h17l8 2 2 1h-3c3 3 7 4 10 6 7 7 12 15 14 24 2 6 1 12 0 18 0 6-3 12-8 16-7 4-16 5-24 7-11 3-24 5-34-1-8-3-12-10-17-17-3-4-3-10-3-15v-12c2-6 5-10 9-14l4-5 2-1h1l4-2 1-1 13-5h1l3-1m-8 20c-5 1-9 7-8 12 0 3 3 6 6 7 3 2 6 0 10 0h8c5-2 7-9 4-13-4-6-13-7-20-6zM31 252l3-1h4l2 1 4 2 1 1 8 8 1 1 2 4 3 5 4 5 3-6c4-10 14-17 25-20h2l1 2a41 41 0 00-29 27c5 5 11 8 18 10l3 1 1-3 1-1h3l3-3 2 2c-2 3-5 5-9 7-4 0-8 0-12-2-6-4-13-8-17-15-4-5-6-11-10-15-3-3-6-6-9-7-2-1-5-2-6 0v3c0 7 4 14 7 20 5 7 10 15 17 20 7 6 16 9 25 11 4 2 8 2 13 2l1 2-8-1c-7 0-14-1-20-4l-5-1-9-7-1-1-5-5-1-1-3-4-1-1-2-3-1-1-2-4-1-1-7-15v-1-3-7l1-1zM132 285l1-1 2 1c-3 3-6 6-6 10-1 7 2 14 8 18l12 5h5c1-7-6-10-7-16-2-5 3-11 8-12h8v2c-4 0-9 0-12 4l-1 5c5-1 10-4 14-7l2 2c-4 4-10 6-15 8l1 2 12-5c3 0 4-3 6-5h2l-2 6c-3 4-2 9-1 14 0 3 1 7 4 9l6-3 7-2-2-10 3-4 4 1 7-1-1 3c-3 0-7-1-9 1-1 3 0 6 1 9s3 4 6 5c7 0 13 0 19-3v3l-15 3c1 3 4 5 6 7l3 4 8 15c1 3 0 7-2 9-1 2-4 2-6 2l-13-8h-3l-2-4c-4-4-8-9-14-8l2-2h1l-7-9-4-3h4l-4-6c-4 0-6 2-8 5l-4-1c2-3 6-6 10-7-1-6-2-11-1-16-4 0-7 1-10 3 1 3 3 6 3 10-1 3-3 4-6 4-5 0-8-3-13-4l-8 5h-3l8-7-3-3-5-5h-8v-2l7-1v-15l5-5m48 40l-5 3c1 9 10 14 16 20l10 8c3 3 7 5 11 5 3-4 0-10-3-14-1-3-2-6-5-8l-10-12c-4-3-10-5-14-2zM266 304l2-1v4c-2 7-7 14-14 17l-3 2 10 9 2 5c1 3 3 8 0 11-6 2-11-1-16-3l-13-9v-1c-1-2-4-3-6-3 2-4 4-8 8-10l13-2 11-7-7-4v-2h2c2 1 4 3 7 3l4-9m-30 25h-1a251 251 0 00-3 5l11 7c4 3 9 6 14 7 2 0 4 1 5-1-1-4-2-7-5-10l-1-2-1-1c-2-4-6-7-11-7-3 0-6 0-8 2z"/></g></svg>