<svg width="683" height="683" viewBox="0 0 512 512" xmlns="http://www.w3.org/2000/svg"><g fill="#e1b99b"><path d="M202 18h2v1h-2v-1zM307 21c1-2 6-2 6 0h-6zM304 34c-4-4-3-11 2-13-1 2-3 4-3 7l1 6zM314 21h0zM193 26c-1-2 2-4 3-4 0 2-1 3-3 4zM210 25c2 2 1 5-1 8l1-8zM189 29l1-1-1 1zM323 29l1 1-1-1zM326 31c1 0 4 1 3 2-1 0-3 0-3-2zM179 35c1-2 4-2 6-3l-6 3zM208 34h0zM329 34c1-2 4 0 4 1l-4-1zM369 34c0-2 4-2 4 0h-4zM365 35c1-1 2-2 3-1l-3 1zM140 36c1-2 6-2 6 0h-6zM176 35h2l-2 1v-1zM208 36v-1 1zM334 35c1-1 2 0 3 1l-3-1zM350 36c4 0 8 1 11-1h3c-5 2-9 2-14 2v-1zM140 41c-2 0-3-5-1-5l1 5zM149 36c1-1 4-1 4 1l-4-1zM172 37c1-2 2-2 3-1l-3 1zM339 36c1 0 5-1 5 1l-5-1zM306 37l4 4-4-4zM362 44l10-4-3 2-7 2zM195 44l7-3c-2 2-4 3-7 3zM143 42l9 4c-3 0-6-2-9-4zM312 43h1-1zM191 46l4-2c0 2-3 3-4 2zM316 44l4 2c-1 1-4 0-4-2zM359 45l2-1v1h-2zM356 46l2-1v1h-2zM154 46l4 1c-1 1-4 1-4-1zM188 47l2-1v1h-2zM321 46a168 168 0 010 1v-1zM351 47l4-1c0 2-3 2-4 1zM160 47l5 1c-1 1-5 1-5-1zM184 48l2-1v1h-2zM325 47l3 1c-2 1-2 1-3-1zM346 48l4-1c0 2-3 2-4 1zM168 48h13v1h-13v-1zM330 48h14c-1 2-5 1-7 1s-6 1-7-1zM159 52h18v1h-18v-1zM151 55c2-2 5-2 7-2l-7 2zM178 53c1-1 5-1 5 1l-5-1zM333 55c1-2 4-1 6-2h18v1c-8-1-16 0-24 1zM184 54l9 3-9-3zM358 54c3 0 7 1 10 3l-10-3zM148 55h2l-2 1v-1zM329 56c0-1 1-2 3-1l-3 1zM325 57c1-1 2-2 3-1l-3 1zM143 57h2l-2 1v-1zM194 57h2v1l-2-1zM322 57h2l-2 1v-1zM318 60c0-1 2-3 4-2l-4 2zM362 59c13 2 24 11 29 24 2 5 2 11 0 16l-13 2c-4 2-7-2-10-4v-2l1-1c6 5 16 1 17-7 1-7-4-13-9-17-4-5-10-7-15-11zM138 61l1-1-1 1zM200 60zM376 60zM315 62l1-1-1 1zM377 61h1-1zM204 63l6 6-6-6zM311 65c0-2 1-2 2-2l-2 2zM202 67c11 7 16 21 11 33-1 6-6 9-11 11 0-3 0-6-3-7l-9-1-5-5 1-2c6 4 14 4 20 0 4-2 5-7 4-11 0-7-5-13-8-18zM127 71zM387 70l1 1-1-1zM125 73h1a172 172 0 00-1 0zM390 74c2 2 4 5 4 8l-4-8zM214 75c1 0 3 3 2 4l-2-4zM216 80c3 4 2 9 2 13 0 2 1 4-1 5 1-6 1-12-1-18zM299 80h1l-1 2v-2zM298 86c-1-2 0-3 1-3l-1 3zM394 83h1v2l-1-2zM120 90c-1-1-1-5 1-5l-1 5zM304 104c-3-6-4-13-2-19v13c5 1 11 2 15 0s9-5 8-10c1 4 4 7 7 10l-4 5-10 2c-3 1-3 4-4 7-4-1-8-4-10-8zM395 86h1v11h-1V86zM125 99c-2-4-2-8-1-12v8c3 2 7 2 10 1 4-1 8-4 8-8l4 8-7 5c-5 0-9-4-14-2zM298 95c-2-1-2-6 0-7v7zM298 97l1 3c-1 0-2-1-1-3zM394 100a173 173 0 001 0h-1zM214 106l1-1-1 1zM212 109l2-3c0 2 0 3-2 3zM302 108v0zM210 111zM305 111l1 1-1-1zM204 120c0-2 0-5 2-7l-2 15c0 4-1 8 1 11v5c-2-7-2-16-1-24zM308 114h0zM310 114l1 1-1-1zM356 121zM350 130zM168 131l1 1-1-1zM348 133zM170 134l1 1-1-1zM346 136l1-1-1 1zM172 137l1 1-1-1zM343 141c0-1 0-3 2-3l-2 3zM174 140c3 3 5 7 6 11-3-3-4-7-6-11zM310 145c0-1-1-5 1-5l-1 5zM338 150c0-2 1-4 3-5 0 1-1 5-3 5zM205 146h1c-1 4 1 7 1 10l-2-10zM309 152c0-2-1-6 1-6l-1 6zM180 152c4 7 6 15 8 22-2-2-2-6-3-9-2-4-5-9-5-13zM307 163c-1-1-1-4 1-4l-1 4zM332 165l1-2v2h-1zM306 170c0-1-1-5 1-5l-1 5zM327 179l5-13-4 13h-1zM209 168c2 2 2 6 2 8l-2-8zM305 175c-1-1-1-4 1-4l-1 4zM304 181c0-1-1-5 1-5l-1 5zM211 177h1c0 3 2 6 1 9l-2-9zM322 194l5-14-5 14zM190 182l1 2h-1v-2zM304 186c-2-1-2-4 0-4v4zM191 185l1 3c-1 0-2-2-1-3zM301 195c0-3 0-6 2-8l-2 8zM192 189l1 2h-1v-2zM193 192l5 16-4-10-1-6zM214 192c1 0 2 1 1 3l-1-3zM300 199c-1-1 0-2 1-3l-1 3zM321 198l1-2v2h-1zM215 197l2 7-2-7zM320 201l1-2v2h-1zM299 204c-1-1 0-2 1-3l-1 3zM319 205l1-3c1 2 0 3-1 3zM217 205l4 1h16v1h-20v-2zM298 209l1-3-1 4h-12v-1h12zM318 209l1-3c0 2 4 1 4 3h-5zM240 207h2v1l-2-1zM179 209h19v1h-19v-1zM324 209c1-1 5 0 5 2l-5-2zM168 212c1-1 2-2 3-1l-3 1zM273 214c0-2 4-2 5-2l-5 2zM156 215h2l-2 1v-1zM336 217h24v1h-15l-9-1zM149 218h2l-2 1v-1zM364 218h2v1l-2-1zM378 223c1-1 4 1 4 2-2 0-3 0-4-2zM105 269h1l-1 2v-2zM418 269c2 0 5 2 5 3h-1l-4-3zM103 276l2-4c0 2 0 4-2 4zM77 307c1-2 1-5 3-6l-7 14c0-3 2-5 4-8zM444 305h1v2l-1-2zM445 309c2 0 2 3 1 4l-1-4zM446 316c2 0 2 3 1 4l-1-4zM71 318h1l-1 2v-2zM447 323h1v34h-1v-34zM69 324h1l-1 2v-2zM66 335l1-1v1l-3 15 2-15zM63 352h1v18l2 16c-2-4-1-9-3-13v-21zM446 364l1-6c0 2 1 6-1 6zM445 367h1c1 2 0 3-1 3v-3zM444 375l1-3c1 1 1 2-1 3zM443 380l1-2v2h-1zM442 385l1-3c1 1 1 2-1 3zM66 388l1 2h-1v-2zM441 390l1-2v2h-1zM440 394l1-3c1 1 0 2-1 3zM67 392l1 2h-1v-2zM403 394l1-1-1 1zM405 394h1l-2 7 1-7zM439 398l1-3c1 1 1 2-1 3zM398 404c0-2 0-5 2-6 0 2 0 5-2 6zM69 399l1 2h-1v-2zM436 408l3-9c0 3-1 7-3 9zM402 410l2-7c-2 13-2 27 0 41h-1v-6c-2-3 0-8-2-11-1-6 2-11 1-17zM71 406l1 2h-1v-2zM397 409l1-3c1 2 0 3-1 3zM72 409l1 2h-1v-2zM432 421l4-12c0 4-2 8-4 12zM396 414l1-4c1 1 1 4-1 4zM395 420l1-4c1 1 1 4-1 4zM116 422c-1-1-2-6 0-4v4zM122 420c2 0 4 0 6 2-2 1-6 0-6-2zM76 421l1 2h-1v-2zM375 422l1-1-2 15 1-9v-5zM394 427l1-6c0 1 1 6-1 6zM129 422l8 1c-2 0-6 1-8-1zM116 423c2 0 2 3 1 4l-1-4zM138 423l3 1c-2 1-3 0-3-1zM431 425a162 162 0 001 0h-1zM372 425l1-1-1 1zM143 427h1-1zM369 429zM117 429c2 0 2 4 1 5l-1-5zM429 432l1-2v2h-1zM80 431c2 1 2 2 2 4-1 0-3-3-2-4zM367 432zM151 432l1 1-1-1zM428 437l1-3c1 1 1 2-1 3zM362 441l3-6c-1 2-1 5-3 6zM118 436c2 0 2 3 1 4l-1-4zM160 438l1 1-1-1zM428 461c-2-7-1-15 0-23v23zM165 441l1 1-1-1zM373 441h1v11h-1v-11zM215 442h1v2h-1v-2zM217 443h0zM360 447c0-2 0-4 2-5 1 1 0 5-2 5zM85 443l1 2h-1v-2zM218 444v0zM119 445c2 1 2 6 0 7v-7zM404 445c2 6 2 14 2 20-2 0-1-3-1-4 0-4 1-8-1-11v-5zM212 458c0-4-1-9 2-12-2 4-1 8-1 12h-1zM325 454c0-3 1-7 5-8v1c-4 1-3 5-5 7zM240 461c1-4 1-9 3-13l1 8h-1v-4l-3 9z"/><path d="M330 454c-2-1-2-5 0-6v6zM359 452l1-4c1 1 1 4-1 4zM169 454c-1-1 0-3 1-3l-1 3zM394 452c1 1 2 2 1 3l-1-3zM273 453l2 1h-2v13c-2-5 0-9 0-14zM277 454c9 2 18 1 27 1l-1 6v-5h-22l-4-2zM168 458c-1-1 0-3 1-3l-1 3zM358 474l1-19v19h-1zM244 457l3 8c-2-2-3-5-3-8zM324 460l1-3c1 1 0 2-1 3zM167 459h1l-1 2v-2zM188 459h1v2h-1v-2zM116 464l2-4c1 1-1 4-2 4zM220 460h1c0 3-1 7-3 9l2-9zM331 461l1 3c-2-1-2-2-1-3zM186 467l2-5c1 1 0 5-2 5zM428 462h1v2l-1-2zM239 466l1-3c1 2 1 3-1 3zM302 463h1v15h-1v-15zM165 465zM204 471c0-2 0-4 2-6 1 2 0 6-2 6zM163 469l2-3c0 1 0 3-2 3zM406 466l1 6c-2 0-1-4-1-6zM190 472c0-1-1-5 1-5l-1 5zM238 469l1-2v2h-1zM401 467v0zM81 468h2l-2 1v-1zM274 468c1-1 3 2 2 3-2 0-2-2-2-3zM333 468l1 2h-1v-2zM67 471c4-2 9-2 13-2l-13 2zM183 473c0-1 0-3 2-4 1 1-1 4-2 4zM324 469l5 8c-3-1-5-5-5-8zM236 474l2-4c1 1 0 4-2 4zM249 470l1 1-1-1zM436 470c5 1 10 1 14 4l-14-4zM62 472c0-2 3-2 4-1l-4 1zM334 471v0zM109 473zM157 482c0-3 2-6 4-9l-4 9zM203 474v-1 1zM251 473zM183 475v-1 1zM190 474l2 3c-1 0-3-2-2-3zM279 474v0zM381 474l1 1-1-1zM235 476l1-1-1 1zM453 475h0zM58 481c-2 0-2-5 0-5v5zM180 478l1-1-1 1zM254 477c2 0 3 1 3 3-1 1-4-2-3-3zM343 477c3 3 7 6 12 6v1c-5 1-11-2-12-7zM405 477c2 1 2 5 0 6v-6zM303 479l3 6-3-6zM331 479c1-1 4 1 3 2l-3-2zM357 481l1-2v2h-1zM211 480h1l-1 2v-2zM99 483h0zM168 487l9-5c-3 7-13 7-19 5v-1c3 1 7 2 10 1zM260 482l1 1-1-1zM389 483zM94 485l4-2c0 2-3 3-4 2zM209 483h1l-1 2v-2zM227 487l4-4-4 4zM261 483l7 3-7-3zM392 484l2 1h-2v-1zM405 485v-1 1zM414 485l1 1-1-1zM63 486l3 1c-2 1-3 1-3-1zM269 486l3 1c-1 1-2 1-3-1zM277 487l2-1v1h-2zM453 487h0zM67 487h19c0 2-3 1-4 1H67v-1zM274 487h2v1h-2v-1zM417 487l2 1h-2v-1zM224 489h0zM420 488l3 1c-2 1-2 1-3-1zM446 489l3-1c0 1-1 2-3 1zM425 489h20c-1 2-3 1-4 1h-16v-1zM220 491h0zM210 491h8c-2 2-5 1-8 1v-1zM314 492l2 1h-2v-1z"/></g><g fill="#fefcf4"><path d="M197 21c0-1 3-3 4-2l-4 2zM205 19h2v1l-2-1zM208 21c1 0 3 2 2 3l-2-3zM135 68c10-10 25-14 39-12 10 1 21 3 28 11 3 5 8 11 8 18 1 4 0 9-4 11-6 4-14 4-20 0 4-4 6-10 5-16-2-6-8-11-14-13-7-2-15-2-21 1-5 1-10 5-12 10-2 3-2 6-2 10s-4 7-8 8c-3 1-7 1-10-1v-8c1-8 5-14 11-19zM324 61c12-4 26-6 38-2 5 4 11 6 15 11 5 4 10 10 9 17-1 8-11 12-17 7l1-2c2-3 2-8 1-12-1-5-5-9-11-11-7-3-16-3-23 0-4 1-8 4-10 8-2 3-2 7-2 11 1 5-4 8-8 10s-10 1-15 0V85c3-11 12-20 22-24zM134 64c0-1 2-3 3-2l-3 2zM379 63c2-1 4 2 4 3-2 0-3-1-4-3z"/><path d="M153 72c1-2 3-2 5-2 3 2 5 5 6 9l-7-1c-2-1-5-3-4-6zM304 73c-1-1 1-3 2-3l-2 3zM212 72h1v2l-1-2zM336 73c3 0 7 1 9 3 1 2 3 4 0 6l-10-4c-1-1-1-4 1-5zM302 74h1l-1 2v-2zM148 79c2-2 6-1 8 0l1 1c4 4 0 12-6 11-6 0-8-9-3-12zM121 83c-1-1 0-4 2-4l-2 4zM331 91c-4-4 3-11 8-9 3 1 5 5 4 9l-5 5c-3-1-6-2-7-5zM161 85c2-1 4-3 6-2l3 2c2 3-2 8-6 6-2 0-3-4-3-6zM346 87c1-2 2-4 4-4 2-1 4 1 5 2 1 3-1 7-4 7s-4-3-5-5zM120 94l2 7-1 1-1-8zM151 98c3 0 7 3 6 6-2 3-8 5-10 1-2-3 2-6 4-7zM158 103c0-3 2-4 4-5 1 2 2 4 1 6l-5-1zM215 104l2-5c1 1 0 5-2 5zM352 101c3-3 8-2 11 0 0 6-6 7-10 5-2-1-2-4-1-5zM299 101l2 5c-2 0-3-4-2-5zM334 104l3-2 3 1-1 4c-2 2-5 0-5-3zM124 105l1-2h6v5c-2 2-5 2-7 1v-4zM206 112l3-1c0 2-1 2-3 1zM311 116c3 6 2 14 0 20-1-3 1-7 1-11l-1-9zM162 122l2 3c-2 0-2-1-2-3zM353 125l2-3c0 2 0 3-2 3zM351 128l2-3c0 2 0 3-2 3zM165 126l2 3c-2 0-2-1-2-3zM365 133c3 1 4 4 4 7l-5 1 1-8zM127 147l4 1c2 3 1 6 0 9h-4v-10zM308 158c-1-1-1-5 1-5l-1 5zM335 157c0-2 0-3 2-4 1 1-1 4-2 4zM207 157h1l1 9-2-9zM333 162l2-4c1 1 0 4-2 4zM188 175c2 2 2 4 2 6-2 0-3-4-2-6zM213 187c2 0 2 3 1 4l-1-4zM244 208c1 0 5 0 5 2-2 0-4 0-5-2zM250 210c1-1 4 1 4 2l-4-2zM161 214c0-2 5-3 6-2l-6 2zM254 212c3 0 5 2 7 3l-7-3zM371 221c1-2 4-1 4 1l-4-1zM142 222h2l-2 1v-1zM139 224h2l-2 1v-1zM387 228h2v1l-2-1zM119 244h1a510 510 0 00-1 0zM404 244h1v2l-1-2zM116 250c-1-1 1-3 2-3l-2 3zM409 252c1 0 3 3 2 4-2-1-2-2-2-4zM113 253h1l-1 2v-2zM108 264l4-8-4 8zM412 258l2 5-3-3 1-2zM93 284c0-2 1-2 2-2l-2 2zM436 286h1v2l-1-2zM440 294c1 0 3 3 2 4-2-1-2-2-2-4zM73 412l3 8c-2-2-3-5-3-8zM77 424l2 4c-2 0-3-3-2-4zM394 450v-22 22zM147 429l3 2c-2 0-3 0-3-2zM155 435l2 1h-2v-1zM83 438c2 1 2 2 2 4-1 0-3-3-2-4zM86 446c2 4 2 9 2 14 0 2 0 4-2 6 2-7 1-14 0-20zM221 447c2 4 1 8 0 12v-12zM374 455l4 14c-3-4-4-9-4-14zM208 464l3-2c1 1-2 3-3 2zM398 463h1v2l-1-2zM114 467l2-2c0 1 0 2-2 2zM430 466l2 2-2-2zM403 472c1 0 3 3 2 4l-2-4zM407 474l3 6-3-6zM214 475h1l-1 2v-2zM233 480l2-4-2 4zM281 478c2 0 3 5 1 5l-1-5zM411 482l2 2c-2 0-2-1-2-2zM58 482l4 4c-1 1-5-2-4-4zM88 487l5-2c0 2-4 3-5 2zM395 485l8 1v1c-3 0-6 0-8-2zM209 490c-2 0-2-4 0-4v4zM319 494c4 1 9 0 13-1-4 2-9 3-13 1z"/></g><g fill="#970801"><path d="M201 19h4l2 1h1v1l2 3v1l-1 8v1h-1v2l-6 5-7 3-4 2h-1l-2 1h-2l-2 1h-3a109 109 0 01-16 0l-5-1h-2l-4-1h-2l-9-4-3-1-1-5h10l4 1h1c5 1 10 2 14 0h4l3-1h1l2-1h1l6-3 4-3 1-1 3-2c2-1 3-2 3-4v-1h1l4-2m0 4l-8 7c-6 6-14 9-23 10h-23c3 3 7 3 11 3 7 1 15 3 22 2s14-3 20-7c4-3 9-8 6-14-1-2-3-2-5-1zM156 68c6-3 14-3 21-1 6 2 12 7 14 13 1 6-1 12-5 16l-1 2c-4-3-9 0-14 0l-9-4c-6-1-11 0-16 2l-4-8c0-4 0-7 2-10 2-5 7-9 12-10m0 0l2 2c-2 0-4 0-5 2-1 3 2 5 4 6h-1v1c-2-1-6-2-8 0-5 3-3 12 3 12 6 1 10-7 6-11l3 6 1-1c0 2 1 6 3 6 4 2 8-3 6-6 2 5 8 5 12 6 2 1 4 0 5-2 3-5 1-11-3-15-4-3-8-6-13-5l-15-1zM369 80l1 12-1 2-1 1c-6-2-12-2-17 1s-11 2-16 2l6-1-3-1 5-5 3-4c1 2 2 5 5 5s5-4 4-7c2 5 8 3 12 3l2-8zM352 119l4 2-1 1-2 3-2 3v1l-1 1a1020 1020 0 01-2 3l-1 2-1 1-1 2c-2 0-2 2-2 3l-2 4c-2 1-3 3-3 5v2l-1 1c-2 1-2 2-2 4v1l-2 4v1l-1 2v1l-5 13v1l-5 14v2l-1 2v1l-1 2v1l-1 3v1l-1 3v2a273 273 0 01-5 18l-2 7a282 282 0 01-6 28v-9l3-17a498 498 0 0130-96l14-23zM120 295c4-3 9-5 13-6 8 0 15 0 22 2 9 3 17 8 23 14l-9 32-4 34c-8 1-15 5-23 5-7 0-15-1-21-6-5-3-11-6-14-12-2-6-6-12-6-19s2-14 4-20c1-5 5-10 5-15 3-4 6-7 10-9m4 24c-7 2-10 14-3 18 4 2 9 2 14 1 6-1 8-8 5-13-4-4-10-8-16-6zM377 295c8-1 15-2 23-1l15 6 1 3-7-2 5 13c4 11 5 23 4 35-1 7-3 15-8 20-4 3-8 7-14 7-7 2-14 1-20-1-6-1-11-7-11-13-2-7-3-16-6-23v3l-7-30 9-10 4-3 12-4m5 23c-5 2-9 6-10 11-1 6 5 12 11 10 3-2 7-2 10-3 6-2 7-11 2-14-4-2-8-4-13-4z"/><path d="M92 350c-1-9 2-17 5-25-1 8-4 16-3 24 2 12 9 22 18 30 7 5 15 6 23 7 10 2 21 1 30-5v3l-5 3-3 1-14 2-3 1c-6-3-13-3-20-5-5-2-10-5-14-9l-5-4c-3-8-9-14-9-23zM189 351c1-6 2-12 5-17 3 10-1 20-4 28l-1-11zM361 364l1 13c4 5 10 7 16 8 9 1 18 1 26-2 8-2 14-7 18-13 0 3-2 6-4 9l-6 4-12 4-14 2-3-1c-5-1-11-1-16-4-3-2-6-3-6-7v-13z"/></g><g fill="#6a0100"><path d="M306 21h9l8 8 1 1 2 1c0 2 2 2 3 2v1l4 1h1l3 1h2l5 1h6c5 0 9 0 14-2h1l3-1h6v5l-2 1-10 4h-1l-2 1h-1l-2 1h-1l-4 1h-1l-4 1h-18l-3-1a1633 1633 0 00-4-1h-1l-4-2-3-1h-1l-2-2-4-4-2-3-1-6c0-3 2-5 3-7m-1 6c0 3 2 6 4 9 5 5 13 7 19 9 10 2 20-1 29-3 4 0 8-1 10-4l-12 1-6 1c-5-1-10 0-15-2-8-2-14-6-19-12-2-2-4-3-7-3l-3 4zM158 53h20l5 1h1l9 3h1l2 1a25 25 0 015 3l3 2 6 6 2 3 1 2h1v1l2 4v1c2 6 2 12 1 18v1l-2 5v1l-1 1-2 3-1 1-1 1h-1l-3 1v1c-2 2-2 5-2 7-1 8-1 17 1 24v2l2 10v1l2 9v2l2 8v1l2 9v1l1 4v1l1 3v2l2 7v3l2 5v1l1 5 4 14 5 16 5 17c-4-4-5-10-8-15-11-35-19-71-25-107v-26-2l1-4c5-2 10-5 11-11 5-12 0-26-11-33-7-8-18-10-28-11-14-2-29 2-39 12-6 5-10 11-11 19-1 4-1 8 1 12l-3 2-2-7v-4l1-5v-2l2-4 2-4a172 172 0 013-5c2-2 3-5 6-6l3-2 1-1 1-1 4-2 2-1 3-1 2-1h1l7-2zM333 55c8-1 16-2 24-1h1l10 3 8 3v1h2l1 2c1 2 2 3 4 3l4 4 1 1 2 3 4 8v1l1 2v13l-1 2v1l-3-2c2-5 2-11 0-16-5-13-16-22-29-24-12-4-26-2-38 2-10 4-19 13-22 24-2 6-1 13 2 19 2 4 6 7 10 8l1 4v14c-4 38-12 76-23 113-2 6-5 11-6 17l-4 6 7-23 4-14 1-3 3-13 1-3 1-4a109 109 0 011-5v-2l1-3a608 608 0 002-9l1-1v-5l1-5v-1l1-4v-1l1-5v-2l1-4v-1l1-5v-1l1-6v-1l1-5v-4c2-6 3-14 0-20v-1l-1-1h-1-1l-2-2-1-1-3-2v-1l-1-2-2-5v-1l-1-3v-2-7a155 155 0 011-5v-1a167 167 0 003-6l1-2v-1h1l2-3 5-5 2-2 2-1 1-1a438 438 0 016-3l2-1h1l3-1h1l3-1h1z"/><path d="M337 69c7-3 16-3 23 0 6 2 10 6 11 11 1 4 1 9-1 12l-1-12-2 8c-4 0-10 2-12-3-1-1-3-3-5-2-2 0-3 2-4 4l-3 4c1-4-1-8-4-9-5-2-12 5-8 9 1 3 4 4 7 5l3 1-6 1h-3c-3-3-6-6-7-10 0-4 0-8 2-11 2-4 6-7 10-8m-1 4c-2 1-2 4-1 5l10 4c3-2 1-4 0-6-2-2-6-3-9-3zM156 68l15 1c5-1 9 2 13 5 4 4 6 10 3 15-1 2-3 3-5 2-4-1-10-1-12-6l-3-2c-2-1-4 1-6 2l-1 1-3-6-1-1v-1h1l7 1c-1-4-3-7-6-9l-2-2zM161 122l3-3 6 9c6 8 11 16 14 26 9 25 17 51 23 77 1 11 4 21 4 32-2-3-2-7-3-11l-4-19-1-4-3-12-1-4-1-3v-2l-5-16v-1l-1-2v-1l-1-3v-1l-1-2v-1c0-2 0-4-2-6v-1c-2-7-4-15-8-22v-1a30 30 0 00-7-13l-1-1-1-2-1-1-1-2-1-1-1-2-2-3-1-1-2-3h-1zM409 301l7 2c4 9 6 18 8 28 2 13-1 26-2 39-4 6-10 11-18 13-8 3-17 3-26 2-6-1-12-3-16-8l-1-13-2-22v-3c3 7 4 16 6 23 0 6 5 12 11 13 6 2 13 3 20 1 6 0 10-4 14-7 5-5 7-13 8-20 1-12 0-24-4-35l-5-13zM215 308c4-3 9-6 15-5 7 3 9 12 17 14 6 1 11-5 14-9 5-4 12-5 18-2 4 4 7 11 14 10 8 0 11-10 18-11 6-1 11 4 14 8l1 5c-3 0-4-3-5-5-2-3-5-5-9-5-6 1-8 7-13 10-4 2-9 2-13 0-5-3-7-9-12-11-6-1-10 3-13 7-4 5-11 8-17 5-6-2-9-9-15-12-3-2-7 0-10 2s-4 6-8 6c0-3 2-5 4-7zM97 325c3-8 7-15 13-21 0 5-4 10-5 15-2 6-4 13-4 20s4 13 6 19c3 6 9 9 14 12 6 5 14 6 21 6 8 0 15-4 23-5v10c-9 6-20 7-30 5-8-1-16-2-23-7-9-8-16-18-18-30-1-8 2-16 3-24z"/></g><g fill="#fee392"><path d="M201 23c2-1 4-1 5 1l-11 12c-11 6-24 8-36 5l11-1c9-1 17-4 23-10l8-7zM308 23c3 0 5 1 7 3 5 6 11 10 19 12 5 2 10 1 15 2-6 3-13 2-20 0-8-4-17-8-21-17zM316 126h5c0 21-5 42-10 62l-11 39-8 19v-3c11-37 19-75 23-113l1-4zM170 128l7-1 1 1 11 26 17 56 3 23-2-2c-6-26-14-52-23-77-3-10-8-18-14-26zM144 226c12-7 25-13 39-13 3 0 5 2 7 4-8 1-17 1-25 4-11 5-22 12-31 21-6 5-9 11-14 17l-1 2-4-3c7-12 16-24 29-32zM267 221l14-7-1 4c-3 3-8 5-12 7-6 4-13 4-19 5l-3-3 21-6zM392 231zM123 240l1-1-1 1zM401 240l1 1-1-1zM344 246c13-3 26-6 40-3 10 3 19 10 26 18 2 4 4 8 4 13v5c-4-7-7-14-13-20-7-6-15-10-24-12-11-2-22 0-33-1zM132 264c9-2 17-2 26-2l10 2c-8 2-18 1-26 4-16 3-31 11-42 23a98 98 0 00-27 64 190 190 0 0016 76c3 8 6 17 7 26 1 7-3 14-8 19-9 4-18 4-27 3l1-4c7-2 15-1 22-4 4-1 7-6 7-10 1-10-2-19-6-28-7-14-11-29-15-44-4-16-4-34-1-50 3-15 9-29 18-42 6-9 14-16 22-22 7-5 15-9 23-11zM415 264l3 5c-2-1-4-3-3-5zM428 276l1 1-1-1zM187 290l-1 8-5 29-5 25c-2 19-1 38 1 57 3 18 2 36-2 54l-7 13-5 1c5-9 10-18 10-28 1-11 0-22-1-34l-3-27c-1-15 0-29 2-44 4-18 8-37 16-54zM84 294zM419 295c5 4 6 10 8 15 7 16 9 34 5 51-3 19-7 37-12 55-4 12-6 25-6 38 0 7 0 15 3 22 5 7 14 6 19 10-7 0-15 1-21-4-6-7-6-17-6-25-1-13 2-26 5-39l11-46c2-14 4-29 2-43-2-10-4-20-8-29v-5zM82 297l1-1-1 1zM334 310c4 10 9 20 12 31 3 9 3 19 3 28 1 21-4 42-7 63-2 8-4 17-4 25 0 5 2 9 0 14-5-9-6-20-3-30l5-25c2-22 6-44 2-66-1-13-5-25-8-37v-3zM204 343l2-2-4 34c-1 15 0 29 1 43v25c0 5 1 10-1 14l-2-8c-5-35-5-71 4-106zM218 354l1-1c3 12 8 24 9 36 2 14 3 29 3 43 0 9 0 18-2 27l-2 11-5 9-8 6v-2l7-12c3-7 4-14 4-21l-1-52c-1-15-4-29-6-44zM262 363l2-1c0 14-3 28-7 41-7 16-8 35-4 53 2 6 4 13 10 18l11 7 2 3c-9 0-17-5-22-13-7-10-9-24-9-36 0-13 4-27 7-40 5-10 9-21 10-32z"/><path d="M91 383l1-2 8 13c9 13 24 21 40 22l13-1 3 2-5 2c-14 2-30 0-42-9-9-6-17-16-18-27zM406 390l2-4-2 7v-3zM401 397l1-1-1 1zM291 419c13-3 26-11 36-20-1 3-3 7-6 9-7 7-16 13-26 14-8 1-17 2-24-3h20z"/></g><g fill="#fbae59"><path d="M305 27l3-4c4 9 13 13 21 17-5-1-10-2-14-5l-10-8zM154 37h14c-4 2-9 1-14 0zM191 118c4 0 7-1 10-3v2c-11 4-21-1-32 0l8 10-7 1-6-9c2-2 5-3 9-3l18 2zM315 130v-14l6 4v5c4 2 9 5 9 10-1 14-6 27-10 40-7 21-13 42-15 63v26l2-5 3-15 8-1 8 5c-3 1-8 1-11 4 10-1 19-3 29-6 11 1 22-1 33 1 9 2 17 6 24 12 6 6 9 13 13 20v-5l1 10c-4 3-9 5-14 4l-1-3c-1-7-3-14-8-19-7-6-16-9-25-8-4 0-9 1-12 4 5-1 11-3 17-2 9 2 19 7 22 16l-2 4c-6-6-16-8-24-9 7 4 16 5 22 12l-1 6-8 4c-7-8-16-16-27-18l13 8c4 4 8 7 10 12l-12 4-13-11-16-8 12 9c5 4 10 8 13 13l-9 10-4-6v2l1 11 4 25c2 12 1 25 1 37-1 10-2 19-5 29l-7 22c3-21 8-42 7-63 0-9 0-19-3-28-3-11-8-21-12-31v3l-5-13c1 9 5 18 6 28l4 20v2c0 4-1 9-4 13l-2-1c-1-5-2-11-5-15 1 5 3 10 3 16v10c-3 6-9 12-16 13 0-9 0-18-2-26-1-6-2-13-5-18l2 12c3 14 3 28 0 42-3 4-7 8-13 8l2-16c1-10-1-20-3-30-1-3-1-6-3-8l3 21c1 10 0 19-2 28-3 3-7 5-11 6 2-6 4-12 4-18 0-4 1-9-1-13-1 8 0 16-3 24-3-3-4-7-5-11 5-17 5-35 3-53 0-2-1-2-2-3 1 8 2 16 1 25l-4 13c-4 13-11 24-16 37-4 11-7 22-6 34 1 8 3 15 6 22l14 19-11-7c-6-5-8-12-10-18-4-18-3-37 4-53 4-13 7-27 7-41l-2 1 3-21c-2 4-2 9-3 14l-7 26c-2 1-4 3-7 3-3-1-4-3-6-5 4-10 6-20 7-31-2 1-2 4-2 5-1 8-3 15-7 21l-5-32c-1-5-2-10-6-13l3 12c0 8 3 16 2 24 2 21 1 42 0 63 0 14 0 29-7 41l2-11c2-9 2-18 2-27 0-14-1-29-3-43-1-12-6-24-9-36l-1 1-2-4v7l3 23v8c-2 2-4 2-6 2v-10-16c-2 2-2 5-3 8-6 15-7 31-7 46-1-14-2-28-1-43l4-34-2 2c0-3 3-8 0-10-2 3-3 7-3 10-6-4-5-12-5-18v-2l7-21-10 20c-10 16-11 36-12 54v53c-1 13 1 26-4 37-2 5-5 8-9 10l7-13c4-18 5-36 2-54-2-19-3-38-1-57l5-25 5-29 1-8 4-10c-6 7-8 17-13 25-6-6-14-11-23-14-7-2-14-2-22-2l7-5 14-4c-6-1-13 0-19 1-9 1-17 5-24 10a65 65 0 00-30 42c-5 22-3 46 4 68 4 16 13 31 15 47 1 7 0 15-3 21-2 4-5 6-9 7 5-5 9-12 8-19-1-9-4-18-7-26a190 190 0 01-16-76c1-11 3-21 6-32 5-12 12-23 21-32 11-12 26-20 42-23 8-3 18-2 26-4l7 1c-4-3-9-3-13-4-2-4 4-7 6-9l22-4c-12-3-25-1-36 6-5 1-10 1-14-2 6-6 13-12 22-15 11-4 23-7 35-5 5 6 7 14 11 20 1 4 1 8 3 11 0-11-3-21-4-32l2 2-3-23-17-56-11-26c9 3 15 12 17 21 5 24 11 49 18 73 3 10 7 19 13 28 3 5 4 11 8 15l-5-17-1-9c6 2 9 7 14 10l-12-14c-1-5-1-9 2-13 8 4 15 10 21 18l12 13-6-10c4-1 11-1 13 5-3 5-5 9-6 14l15-24 7-1c2 1 1 4 1 6l-7 23 4-6c1-6 4-11 6-17v3l8-19 11-39c5-20 10-41 10-62h-5l-1 4M215 308c-2 2-4 4-4 7 4 0 5-4 8-6s7-4 10-2c6 3 9 10 15 12 6 3 13 0 17-5 3-4 7-8 13-7 5 2 7 8 12 11 4 2 9 2 13 0 5-3 7-9 13-10 4 0 7 2 9 5 1 2 2 5 5 5l-1-5c-3-4-8-9-14-8-7 1-10 11-18 11-7 1-10-6-14-10-6-3-13-2-18 2-3 4-8 10-14 9-8-2-10-11-17-14-6-1-11 2-15 5z"/><path d="M172 211c0-2 3-2 4-1l-4 1zM279 212c0-2 4-3 5-2l-5 2zM183 213h16l1 4h-8l2 11c-11 0-21 2-31 5-13 4-23 13-32 23l-11 3c5-6 8-12 14-17 9-9 20-16 31-21 8-3 17-3 25-4-2-2-4-4-7-4zM281 214h2c3 0 6 1 6 4 2 3-1 7-4 9-10 2-19 11-30 10-3-1-4-4-6-7 6-1 13-1 19-5 4-2 9-4 12-7l1-4zM322 218l5-5 13 13c3 6 9 9 14 13-5-1-10-2-14-5-7-4-12-11-18-16zM351 222c2-2 4-1 6-1 12 1 24 6 34 14-6 3-13 1-20 1l-10-3-9-6c-2-1-3-3-1-5zM318 228c0-3 2-4 4-6 5 5 9 10 15 14 3 3 7 4 10 5l-13 5c-6 0-11-4-15-8-1-3-2-7-1-10zM109 271c1-4 3-9 6-13l4 3-4 6-6 4zM418 293c4-1 7-2 10 0s4 5 5 8c3 8 5 17 5 26 0 12 0 23-2 35-4 24-12 48-17 72l-1 22c0 9 6 17 15 20l9 4c1 3-1 4-2 6h-4c-5-4-14-3-19-10-3-7-3-15-3-22 0-13 2-26 6-38 5-18 9-36 12-55 4-17 2-35-5-51-2-5-3-11-8-15v5l-1-7zM68 334c-2-2-2-2 0-3v3zM90 372c2 0 4 0 5 2 4 4 5 9 8 14 7 9 15 17 26 21 7 4 16 3 24 6l-13 1c-16-1-31-9-40-22l-8-13-1 2-1-6v-5zM365 392l15 3c-5 10-11 19-18 26-1-5 1-10 2-16l1-13zM327 399c0-3 2-4 3-5 3 5 3 12 3 18-6 7-13 12-21 16a69 69 0 01-46 2c0-4 1-9 4-12l3 1h-2c7 5 16 4 24 3 10-1 19-7 26-14 3-2 5-6 6-9zM70 402l1 2h-1v-2zM119 419l2 1h-2v-1z"/><path d="M332 419c-1 11-8 21-19 24-10 4-21 7-32 5-7-1-13-6-14-13h2l14 2c10 0 20-3 30-6 7-3 13-8 19-12zM430 428l1-2v2h-1zM170 444c2 2 1 4 0 6v-6zM118 458l1-4c1 1 1 4-1 4zM395 456h1v2l-1-2zM330 457l1 3c-1-1-2-2-1-3zM190 459h1v3c-1 0-2-1-1-3zM211 461l1-2v2h-1zM339 475l3 1c-2 1-2 0-3-1zM193 477h5c0 2-5 2-5 0zM214 485l8-6-6 9h-4l2-5v2zM337 484c2 0 2 5 0 5v-5zM450 488l2-1v1h-2zM335 492c0-2 1-2 2-2l-2 2z"/></g><g fill="#f38203"><path d="M206 24c3 6-2 11-6 14-6 4-13 6-20 7s-15-1-22-2c-4 0-8 0-11-3h23l-11 1c12 3 25 1 36-5l11-12zM305 27l10 8c4 3 9 4 14 5 7 2 14 3 20 0l6-1 12-1c-2 3-6 4-10 4-9 2-19 5-29 3-6-2-14-4-19-9-2-3-4-6-4-9zM169 117c11-1 21 4 32 0v26c6 36 14 72 25 107-6-9-10-18-13-28-7-24-13-49-18-73-2-9-8-18-17-21l-1-1-8-10zM335 119h17l-14 23-6 15c-10 26-19 53-24 81l-3 17v-17c2-21 8-42 15-63 4-13 9-26 10-40 0-5-5-8-9-10v-5l14-1z"/><path d="M219 212c1-3 4-3 7-3 13 0 25 4 36 10-6 3-13 5-20 5-7-4-14-9-23-11v-1zM283 214c5-2 10-2 14-1l-3 13-9 1c3-2 6-6 4-9 0-3-3-4-6-4zM317 214l1-3 9 2-5 5-5-4zM220 216l12 6c-3 4-3 8-2 13l-6-3-4-14v-2zM192 217h8l3 12-9-1-2-11zM313 229l3-12 6 5c-2 2-4 3-4 6-1 3 0 7 1 10-3-2-6-5-6-9zM340 220l17 1c-2 0-4-1-6 1s-1 4 1 5l9 6c-4 0-10 1-13-3-3-3-7-5-8-10zM281 238c3-5 6-9 12-9l-4 14c0-2 1-5-1-6l-7 1zM269 237l12-6c-3 6-7 11-9 17-2-6-9-6-13-5l-2-2 12-4zM197 232l7 1 4 19c-4-6-6-14-11-20zM391 235c5 3 9 8 11 13-5-2-10-6-16-7-4-2-9-2-14-2l-1-3c7 0 14 2 20-1zM311 236l7 7-8 1 1-8zM133 261c1-4 4-7 7-9 4 3 9 3 14 2-2 2-4 5-7 5l-14 2zM154 259c4-4 9-7 14-7-2 2-8 5-6 9l-8-2zM120 259l11-3c-1 2-2 5-5 6l-11 5 4-6 1-2zM417 272l7 4c8 8 15 19 17 31 3 10 4 21 4 32a233 233 0 01-7 51c-4 15-10 30-13 46-1 10-3 21 1 31 4 7 13 7 19 9 4 1 9 2 8 7-4 3-9 3-13 3 1-2 3-3 2-6l-9-4c-9-3-15-11-15-20l1-22c5-24 13-48 17-72 2-12 2-23 2-35 0-9-2-18-5-26-1-3-2-6-5-8s-6-1-10 0l-1-21zM394 276l3 8-5-4 2-4zM111 291c7-5 15-9 24-10l-19 13c-9 7-15 16-20 26-4 8-7 17-8 27-2 9-2 19-1 29 0 10 3 20 6 30l11 29c3 9 4 18 4 27-1 8-6 16-14 19-10 4-22 5-33 1v-3c9 1 18 1 27-3 4-1 7-3 9-7 3-6 4-14 3-21-2-16-11-31-15-47-7-22-9-46-4-68 2-10 7-19 12-27 5-6 11-11 18-15zM390 283c3 3 7 6 7 10h-16l8-4 1-6zM401 288c5 1 10-1 14-4v16l-15-6v-9l1 3zM348 308c5 22 11 43 10 66 0 11-2 23-4 34-1 8-5 15-6 24l-4 25-1 15-5-1c2-5 0-9 0-14 0-8 2-17 4-25l7-22c3-10 4-19 5-29 0-12 1-25-1-37l-4-25-1-11zM181 376c1-18 2-38 12-54v3c-6 19-10 39-8 59l3 44c1 19-1 40-15 54-4 3-9 3-13 1l3-6 5-1c4-2 7-5 9-10 5-11 3-24 4-37v-53z"/><path d="M194 334l2-9c0 6-1 14 5 18l-7 41c-2-2-5-5-5-8-2-5-1-9 1-14 3-8 7-18 4-28zM232 342a362 362 0 016 113c-1 8-3 16-8 23-3 5-8 9-14 10l6-9 5-9c7-12 7-27 7-41 1-21 2-42 0-63 1-8-2-16-2-24zM90 351l2-1c0 9 6 15 9 23 4 15 17 26 31 32 6 3 13 4 20 5l7 2c0 2-1 4-3 5l-3-2c-8-3-17-2-24-6-11-4-19-12-26-21-3-5-4-10-8-14-1-2-3-2-5-2v5-26zM339 350c1 5 2 10 1 15s-3 9-6 13l-1-16 2 1c3-4 4-9 4-13zM276 369l4-13c0 10-2 19-5 29s-9 19-12 29c-2 8-4 17-3 25 0 16 10 30 19 42l-3 3-2-3-14-19c-3-7-5-14-6-22-1-12 2-23 6-34 5-13 12-24 16-37zM203 418c0-15 1-31 7-46 0 11-2 21-1 32v39c0 6 1 13-2 18l-5-4c2-4 1-9 1-14v-25zM315 386c7-1 13-7 16-13-1 7 0 15-5 21-4 4-8 9-14 12 1-7 3-13 3-20zM337 380l4-7-3 32c0 3-3 5-5 7 0-6 0-13-3-18l7-14z"/><path d="M106 377c4 4 9 7 14 9 7 2 14 2 20 5 2 6 6 10 10 15-8-1-15-2-22-6-9-5-18-13-22-23zM412 383l6-4c1 5-1 10-2 15l-7 30c-1 5-1 9-3 13-1-9-2-19 0-28 1-9 4-17 6-26zM212 397l1-17v10c2 0 4 0 6-2v-8c1 5 2 10 1 15 0 4-2 7-3 10-2-2-5-5-5-8zM243 402c0-7-2-15-1-22 2 2 3 4 6 5 3 0 5-2 7-3-3 7-6 15-12 20zM165 384l2 11-7-8 5-3zM189 384c2 3 5 6 5 10l-1 16c-3-1-3-5-3-8l-1-18zM359 399c1-6 5-10 8-15 5 3 11 3 16 4l-3 7-15-3-1 13c-1 6-3 11-2 16l-9 10c-1-5 1-10 2-15l4-17zM386 389l14-2h3c-3 7-8 13-13 18-7 8-17 14-26 19 9-11 18-22 22-35zM143 390l14-2c2 5 7 9 10 13 2 6 2 12 2 18-5-2-7-8-12-12-6-5-11-10-14-17zM269 406l9-19c1 4 2 8 5 11l-6 12c-1 2-1 4-3 5l-7-1 2-8zM297 404c6 0 10-4 13-8 0 4 0 8-2 12-4 3-8 5-13 6l2-10zM283 405c4-1 8-3 11-6-1 5-1 11-3 16l-13 1 5-11zM221 404l1 10-1 12-8 14-1-17c0-3 2-6 4-9l5-10zM97 405l13 10c3 2 2 6 3 9 1 11 4 23 2 34l-4 7c0-9 0-19-3-28-3-11-9-21-11-32zM243 416c0-4 0-8 3-11-1 4 0 8-3 11zM212 406l3 2-3 5v-7zM384 415l10-8c-2 13-5 26-4 39 0 9 4 18 9 26 2 3 4 6 3 10-1 2-3 1-5 0-9-3-15-11-18-19-2-8-3-16-2-24l2-19c0-2 3-4 5-5zM191 414l2 1 1 15-3-3v-13zM332 419c0-2 3-3 4-4 0 8-3 16-5 24 0 2-1 3-3 4-11 7-24 10-37 10-10 0-19-3-27-9-2-3-1-7-1-11l6 2h-2c1 7 7 12 14 13 11 2 22-1 32-5 11-3 18-13 19-24zM265 417l5 1c-3 3-4 8-4 12-1 0-3 0-3-2l2-11zM146 423c5-1 11-2 15-5l9 6v16l-17-11-7-6zM350 439c3-7 10-9 16-12-3 6-8 13-9 20-3 11 0 22-3 33-4 0-8-3-8-7l4-34zM219 438l3-6v11c-1-2-3-3-3-5zM191 433l4 4c1 7 0 15 4 22 2 2 5 4 3 7-1 4-3 9-8 8v-11c0-5-4-9-3-14v-16zM265 449l4 3 1 7c-4-2-4-7-5-10zM307 454l16-4c-2 8-4 16-1 24 2 6 9 7 12 12 1 4-3 4-6 5-11 2-23-7-22-18l1-19z"/></g><g fill="#c1350c"><path d="M374 35c2 0 2 3 0 3v-3zM217 207a102 102 0 0123 0l2 1h2c1 2 3 2 5 2h1l4 2 7 3 6 2 6-3 5-2h1l5-2h14l-1 3a32 32 0 00-16 1l-14 7-21 6 3 3c2 3 3 6 6 7 11 1 20-8 30-10l9-1-1 3c-6 0-9 4-12 9l-15 24c1-5 3-9 6-14 2-6 6-11 9-17l-12 6-12 4 2 2 6 10-12-13a72 72 0 00-33-24v2l-1-5c9 2 16 7 23 11 7 0 14-2 20-5-11-6-23-10-36-10-3 0-6 0-7 3l-2-5zM318 209h6l5 2c3 1 5 4 7 6l9 1h19a165 165 0 0011 4h2l1 1c1 2 2 2 4 2 2 1 4 1 5 3l2 1 3 2 1 1 8 8 1 1 2 3a164 164 0 005 8 376 376 0 013 6l-1 2-1 1c-7-8-16-15-26-18-14-3-27 0-40 3-10 3-19 5-29 6 3-3 8-3 11-4l-8-5-7-7 2-7c0 4 3 7 6 9 4 4 9 8 15 8l13-5c-3-1-7-2-10-5-6-4-10-9-15-14l-6-5 1-3 5 4c6 5 11 12 18 16 4 3 9 4 14 5-5-4-11-7-14-13l-13-13-9-2v-2m22 11c1 5 5 7 8 10 3 4 9 3 13 3l10 3 1 3c5 0 10 0 14 2 6 1 11 5 16 7-2-5-6-10-11-13a70 70 0 00-51-15zM176 210h22l1 3h-16c-14 0-27 6-39 13a96 96 0 00-35 45l6-4 11-5c3-1 4-4 5-6 9-10 19-19 32-23 10-3 20-5 31-5l9 1 1 4-7-1a69 69 0 00-64 29l14-2c3 0 5-3 7-5 11-7 24-9 36-6l-22 4c-5 0-10 3-14 7l8 2c4 1 9 1 13 4a134 134 0 01-17-3c-9 0-17 0-26 2-8 2-16 6-23 11-8 6-16 13-22 22-9 13-15 27-18 42l-2-4v-1h1v-3-4l1-1 1-2v-3l1-1a155 155 0 012-5l7-14 2-4 1-1 1-2 1-1c2-3 4-7 8-9l2-2 8-6c2 0 2-2 2-4v-1l1-2 2-5 4-8 1-1 1-2 2-3 2-3v-1h1l1-2c0-2 2-3 3-4l1-1 9-9 6-5 2-1v-1h1l2-1c1-2 3-2 5-3l2-1 5-2 2-1 1-1h2l6-2h1l3-1h1l4-1zM224 232l6 3 12 14c-5-3-8-8-14-10l1 9-5-16zM355 262c3-3 8-4 12-4 9-1 18 2 25 8 5 5 7 12 8 19v9c-8-1-15 0-23 1-2-5-6-8-10-12l-13-8c11 2 20 10 27 18h16c0-4-4-7-7-10-6-7-15-8-22-12 8 1 18 3 24 9l5 4-3-8c-3-9-13-14-22-16-6-1-12 1-17 2zM422 272h1l5 4 1 1 7 9 1 2c2 1 3 4 3 6s0 3 2 4l2 7 1 2a145 145 0 011 6v3l1 4v38l-1 6v3h-1v-4l-2 1 2-25c0-11-1-22-4-32-2-12-9-23-17-31l-2-4z"/><path d="M135 281c6-1 13-2 19-1l-14 4-7 5c-4 1-9 3-13 6-4 2-7 5-10 9-6 6-10 13-13 21s-6 16-5 25l-2 1-2-4c1-10 4-19 8-27 5-10 11-19 20-26l19-13zM178 305c5-8 7-18 13-25l-4 10c-8 17-12 36-16 54l1-7h-3l9-32zM336 280l16 8 13 11-4 3c-3-5-8-9-13-13l-12-9zM329 300l5 13c3 12 7 24 8 37l-2-4-1 2-4-20c-1-10-5-19-6-28zM193 322l10-20-7 21v-3l-3 5v-3zM348 306l4 6 7 30 2 22v13c0 4 3 5 6 7-3 5-7 9-8 15l-4 17c-1 5-3 10-2 15l-5 1c1-9 5-16 6-24 2-11 4-23 4-34 1-23-5-44-10-66v-2zM382 318c5 0 9 2 13 4 5 3 4 12-2 14-3 1-7 1-10 3-6 2-12-4-11-10 1-5 5-9 10-11zM124 319c6-2 12 2 16 6 3 5 1 12-5 13-5 1-10 1-14-1-7-4-4-16 3-18z"/></g><g fill="#a1c8ec"><path d="M146 96c5-2 10-3 16-2l9 4c5 0 10-3 14 0l5 5 9 1c3 1 3 4 3 7l-1 4c-3 2-6 3-10 3l-18-2c-4 0-7 1-9 3l-3 3c-10 3-20 4-29 2 4 8 6 18 9 27 0 6 0 14-6 17-2 2-5 0-8 0-4-3-5-8-5-13s-1-10 1-15v-20c0-3-3-4-3-7-1-3-2-8 1-11a73 73 0 004-3c5-2 9 2 14 2l7-5m5 1c-4 2-6 6-10 7-6 1-10-3-16-3v2l-1 2h-1c0 3 0 6 2 7 4 3 9 3 13 4 7 1 14-2 21-4l19-2c6 0 11 2 17 1 2 0 2-2 2-3l-9-1-6-7c-4 0-8 2-12 1-4 0-7-4-11-5l-8 1m-23 35c-2 4-1 9-2 14s-1 10 1 15c1 2 4 0 5-1 1-5 3-9 1-14-1-5-2-10-5-14zM351 96c6-2 12-2 17 1 3 2 6 6 10 4l13-2 3 2 1 11-10 10-10 2c2 5 3 11 3 17 1 5-4 10-9 10-5-1-9-4-9-9v-11l2-9-6-1-4-2h-17l-14 1-6-4-1-4c1-3 1-6 4-7l10-2 4-5h3c5 0 11 1 16-2m-8 5h-7c-3 1-4 3-6 5-3 3-8 0-9 4l3 2c6 1 13 0 19-1 7-1 14 3 21 3 5 0 11 1 16-2 1-1 2-4 0-5l-5-2c-6-1-10-8-16-8s-10 5-16 4m22 26l-2 14c1 2 3 4 5 3 4-2 4-7 3-10s-3-7-6-7z"/></g><g fill="#a73806"><path d="M351 96c5-3 11-3 17-1v2c-5-3-11-3-17-1zM410 261l1-1 3 3h1v1c-1 2 1 4 3 5l4 3 2 4-7-4 1 21 1 7c4 9 6 19 8 29 2 14 0 29-2 43l-11 46c-3 13-6 26-5 39 0 8 0 18 6 25 6 5 14 4 21 4h4c4 0 9 0 13-3 1-5-4-6-8-7-6-2-15-2-19-9-4-10-2-21-1-31 3-16 9-31 13-46l5-26 2-1v9l-1 3a313 313 0 01-2 10v3l-1 2v1l-1 3v1l-1 3v1l-3 9v1l-4 12v2l-1 2v1l-1 2v2l-1 2a131 131 0 01-1 6c-1 8-2 16 0 23v1l1 2 1 2 2 2 4 2 14 4 3 1h1c3 3 3 9 0 12h-2l-2 1h-1l-3 1h-1a131 131 0 01-22 0l-3-1h-1l-2-1-2-1-1-1-1-1-2-2-1-2-3-6v-2l-1-6v-1c0-6 0-14-2-20v-1c-2-14-2-28 0-41v-2l2-7v-1l2-7a40 40 0 00-4 7l-1 1-1 2-1 1-1 1c-2 1-2 4-2 6v2l-1 3v1l-1 4a944 944 0 00-1 6v1l-1 6v1 24l1 3v1l1 2 2 5 1 2 2 2v1l2 4 2 4v9l-2 1-8-1h-1l-2-1-2-1h-1l-7-8-1-1-3-5a114 114 0 01-4-17v-11-5l2-15-1 1-2 2-1 1-2 3-1 1-1 2-1 1-2 3-3 6v1c-2 1-2 3-2 5v1l-1 4v3l-1 19v5l-1 2-2 2c-5 0-9-3-12-6l-1-1-3-1h-2l-3-3v-2l-1-2-1-1v-3l-1-3v-1l-1-3v-3-8c-4 1-5 5-5 8v3l-1 3v9c0 3 2 7 5 8l2 2 3 2 3 3v6c-1 0-2 0-2 2l-3 1c-4 1-9 2-13 1l-3-1-2-1c-3-1-6-4-8-7l-3-6v-1-15-2l1-6c-9 0-18 1-27-1h-2l-2-1c0 5-2 9 0 14l1 1c0 1 0 3 2 3l3 3v1l2 3 1 5-2 3h-1l-2 1h-3-2l-3-1h-1l-7-3-1-1-3-2c0-2-1-3-3-3a12 12 0 01-3-4l-1-2-1-1-2-5-3-8v-1l-1-8c-2 4-2 9-3 13a89 89 0 01-1 5v1l-1 2v1l-2 4v1l-1 1-2 4-2 3-4 4-2 2h-1l-3 2h-1-11v-1-5l1-2 1-1 1-2 2-3 1-2 3-6c2-2 3-6 3-9v-1c1-4 2-8 0-12l-3-2v-2h-1l-1-1h-1v2l-1 2c-3 3-2 8-2 12v1l-1 2v1l-3 2-2 1c-2 2-2 4-2 6l-1 2v1l-3 3h-8l-2-3a958 958 0 011-12v-3h-3v3l-2 5v2h-1c-2 1-2 3-2 4v2l-2 2-1 1-3 4-9 5c-3 1-7 0-10-1l-1-1v-3l4-9 2-4c2 0 2-2 2-3v-1-1l2-3 1-2v-1l1-3v-1l1-3v-1c1-2 2-4 0-6l-4-2-1-1-4-2-1-1-3-2-2-1-3-2-1-1a291 291 0 01-4-3l-3-2h-1l-2-3-3-1h-1l-8-1h-1c-2-2-4-2-6-2h-1l-2-1-3-1c-2-2-1 3 0 4v1l1 4v2l1 5a995 995 0 011 6v14l-1 4v2l-2 4v1l-2 2-5 6-9 10h-2l-4 2h-1l-5 2H66l-3-1h-1l-4-4v-1a49 49 0 000-7l2-2h2l4-1h1l13-2h1l2-1 3-2c2-2 2-4 2-6 0-5 0-10-2-14v-1l-1-2v-1c0-2 0-3-2-4l-1-1v-2c0-2 0-3-2-4l-1-1a5366 5366 0 01-2-6v-1l-1-2v-1l-3-8v-1l-1-2v-1l-1-2v-2l-1-2v-1a649 649 0 00-3-9v-2l-1-2v-2l-2-16v-18-2l3-15 2 4c-3 16-3 34 1 50 4 15 8 30 15 44 4 9 7 18 6 28 0 4-3 9-7 10-7 3-15 2-22 4l-1 4v3c11 4 23 3 33-1 8-3 13-11 14-19 0-9-1-18-4-27l-11-29c-3-10-6-20-6-30-1-10-1-20 1-29l2 4a120 120 0 001 32c1 11 9 21 18 27 12 9 28 11 42 9l5-2c2-1 3-3 3-5l-7-2c-7-1-14-2-20-5-14-6-27-17-31-32l5 4c4 10 13 18 22 23 7 4 14 5 22 6-4-5-8-9-10-15l3-1c3 7 8 12 14 17 5 4 7 10 12 12 0-6 0-12-2-18-3-4-8-8-10-13l3-1 7 8-2-11v-3-10l4-34h3l-1 7c-2 15-3 29-2 44l3 27c1 12 2 23 1 34 0 10-5 19-10 28l-3 6c4 2 9 2 13-1 14-14 16-35 15-54l-3-44c-2-20 2-40 8-59l3-5v5l-2 9c-3 5-4 11-5 17l1 11c-2 5-3 9-1 14 0 3 3 6 5 8a397 397 0 0110-51c3 2 0 7 0 10a278 278 0 00-2 114l5 4c3-5 2-12 2-18v-39c-1-11 1-21 1-32 1-3 1-6 3-8v16l-1 17c0 3 3 6 5 8 1-3 3-6 3-10 1-5 0-10-1-15a521 521 0 00-1-26c2 15 5 29 6 44l1 52c0 7-1 14-4 21l-7 12-2 5h4c6-1 11-5 14-10 5-7 7-15 8-23 4-27 2-54-1-81-1-11-2-22-5-32l-3-12c4 3 5 8 6 13l5 32c4-6 6-13 7-21 0-1 0-4 2-5-1 11-3 21-7 31-1 7 1 15 1 22 6-5 9-13 12-20l7-26c1-5 1-10 3-14l-3 21c-1 11-5 22-10 32-3 13-7 27-7 40 0 12 2 26 9 36 5 8 13 13 22 13l3-3c-9-12-19-26-19-42-1-8 1-17 3-25 3-10 9-19 12-29s5-19 5-29c1-9 0-17-1-25 1 1 2 1 2 3 2 18 2 36-3 53l-9 19-2 8 7 1c2-1 2-3 3-5l6-12c3-8 2-16 3-24 2 4 1 9 1 13 0 6-2 12-4 18l-5 11 13-1c2-5 2-11 3-16 2-9 3-18 2-28l-3-21c2 2 2 5 3 8 2 10 4 20 3 30a161 161 0 01-4 26c5-1 9-3 13-6 2-4 2-8 2-12 3-14 3-28 0-42l-2-12c3 5 4 12 5 18 2 8 2 17 2 26 0 7-2 13-3 20 6-3 10-8 14-12 5-6 4-14 5-21v-10c0-6-2-11-3-16 3 4 4 10 5 15l1 16c3-4 5-8 6-13s0-10-1-15v-2l1-2 2 4c4 22 0 44-2 66l-5 25c-3 10-2 21 3 30l5 1 1-15 4-25 5-1 9-10a114 114 0 0021-33l3 1c-4 13-13 24-22 35 9-5 19-11 26-19 5-5 10-11 13-18h-3l12-4c-2 9-5 17-6 26-2 9-1 19 0 28 2-4 2-8 3-13l7-30c1-5 3-10 2-15 2-3 4-6 4-9 1-13 4-26 2-39a107 107 0 00-9-31v-16l-1-10c0-5-2-9-4-13m-73 119l-7 14c-1 1-3 2-3 5a73 73 0 01-36 20h-18l-3-1-5-1-2 11c0 2 2 2 3 2l11 3c12 2 24-2 35-5 8-4 15-9 21-16 2-2 5-4 5-7l3-32-4 7m-148 4l1 18c0 3 0 7 3 8l1-16c0-4-3-7-5-10m32 20l-5 10c-2 3-4 6-4 9l1 17 8-14 1-12-1-10m-124 1c2 11 8 21 11 32 3 9 3 19 3 28l4-7c2-11-1-23-2-34-1-3 0-7-3-9l-13-10m146 11c3-3 2-7 3-11-3 3-3 7-3 11m-31-10v7l3-5-3-2m172 9c-2 1-5 3-5 5l-2 19c-1 8 0 16 2 24 3 8 9 16 18 19 2 1 4 2 5 0 1-4-1-7-3-10-5-8-9-17-9-26-1-13 2-26 4-39l-10 8m-193-1v13l3 3-1-15-2-1m141 5c-6 4-12 9-19 12-10 3-20 6-30 6l-14-2-6-2c0 4-1 8 1 11 8 6 17 9 27 9 13 0 26-3 37-10 2-1 3-2 3-4 2-8 5-16 5-24-1 1-4 2-4 4m-186 4l7 6 17 11v-16l-9-6c-4 3-10 4-15 5m204 16l-4 34c0 4 4 7 8 7 3-11 0-22 3-33 1-7 6-14 9-20-6 3-13 5-16 12m-131-1c0 2 2 3 3 5v-11l-3 6m-28-5v16c-1 5 3 9 3 14v11c5 1 7-4 8-8 2-3-1-5-3-7-4-7-3-15-4-22l-4-4m74 16c1 3 1 8 5 10l-1-7-4-3m42 5l-1 19c-1 11 11 20 22 18 3-1 7-1 6-5-3-5-10-6-12-12-3-8-1-16 1-24l-16 4z"/></g><g fill="#cce8fe"><path d="M151 97l8-1c4 1 7 5 11 5 4 1 8-1 12-1l6 7 9 1c0 1 0 3-2 3-6 1-11-1-17-1l-19 2c-7 2-14 5-21 4-4-1-9-1-13-4-2-1-2-4-2-7h1v4c2 1 5 1 7-1v-5h-6v-2c6 0 10 4 16 3 4-1 6-5 10-7m0 1c-2 1-6 4-4 7 2 4 8 2 10-1 1-3-3-6-6-6m7 5l5 1c1-2 0-4-1-6-2 1-4 2-4 5zM343 101c6 1 10-4 16-4s10 7 16 8l5 2c2 1 1 4 0 5-5 3-11 2-16 2-7 0-14-4-21-3-6 1-13 2-19 1l-3-2c1-4 6-1 9-4 2-2 3-4 6-5h7m9 0c-1 1-1 4 1 5 4 2 10 1 10-5-3-2-8-3-11 0m-18 3c0 3 3 5 5 3l1-4-3-1-3 2zM365 127c3 0 5 4 6 7s1 8-3 10c-2 1-4-1-5-3l2-14m0 6l-1 8 5-1c0-3-1-6-4-7zM128 132c3 4 4 9 5 14 2 5 0 9-1 14-1 1-4 3-5 1-2-5-2-10-1-15s0-10 2-14m-1 15v10h4c1-3 2-6 0-9l-4-1z"/></g></svg>