<svg width="683" height="683" viewBox="0 0 512 512" xmlns="http://www.w3.org/2000/svg"><g fill="#e2b99b"><path d="M246 20c0-2 3-2 3 0h-3zM244 21l1-1-1 1zM252 20h0zM244 25c-2 0-2-3 0-3v3zM260 23c1-1 4 0 4 2-2 0-3 0-4-2zM310 26l5-1c4 0 8-1 11 2-6-2-11-2-16-1zM304 28c0-2 3-3 4-2l-4 2zM246 27c3 0 2 3 1 5l-1-5zM269 27l1 1-1-1zM326 27zM190 29c2 0 2 3 0 3v-3zM300 31l1-1-1 1zM330 30l2 2-2-2zM310 34c1-1 3-2 4-1 0 2-3 2-4 1zM318 33zM297 35l1-1-1 1zM158 35h2l-2 1v-1zM278 36l1 1-1-1zM306 37zM324 36l2 2-2-2zM153 37h2l-2 1v-1zM254 49l1-12-1 12zM295 38l1-1-1 1zM150 38h2l-2 1v-1zM174 39l2-1v1h-2zM303 41l1-1-1 1zM158 45zM246 44h1a573 573 0 01-1 13V44zM282 44c2 0 3 5 2 6-2-2-2-4-2-6zM174 45c2 2 2 5 3 7-2-2-3-5-3-7zM299 50c-1-2 0-4 2-5l-2 5zM329 45c1 1 2 2 1 3-1-1-2-2-1-3zM291 49c-1-1 0-2 1-3l-1 3zM147 48h0zM133 49l1 1-1-1zM167 49l2 1v3c-1 0-3-3-2-4zM330 49v13l-1 3 1-16zM116 51l1-1-1 1zM290 56c0-2-1-6 1-6l-1 6zM134 51c2 0 2 3 0 3v-3zM113 54c0-1 0-2 2-2l-2 2zM338 52c2 1 2 6 0 7v-7zM178 55c1 0 3 3 2 4-2-1-2-2-2-4zM120 59zM275 60l1-2-1 2zM283 61l1-3c1 2 1 2-1 3zM289 65c0-2-1-5 1-7v14c-2-2-1-5-1-7zM171 59l1 2h-1v-2zM110 60h1v10c-2-3 0-7-1-10zM337 63l1-2v5h-1v-3zM181 62h1v2l-1-2zM401 63l1-1-1 1zM173 64l1 2h-1v-2zM412 64l1 1-1-1zM253 79l1-14v13l3-1-4 2zM400 66l1-1v1h-1zM417 67zM280 69l1-1-1 1zM335 73c0-2 0-4 2-5 0 1 0 5-2 5zM420 69zM120 70l1 1-1-1zM245 70h1v12c-2-3-1-8-1-12zM326 74c0-1 0-3 2-4 1 2-1 3-2 4zM278 72zM122 72l1 1-1-1zM185 72c2 0 3 3 2 4l-2-4zM132 73h18v1h-18v-1zM410 73h1l-1 1v-1zM81 77c-2 0-2-3 0-3v3zM153 74h1l1 1-2-1zM426 74zM156 75zM114 76c2 0 3 1 3 3-1 1-4-2-3-3zM158 76h1-1zM324 77zM408 77zM333 78l1-1-1 1zM81 78v0zM161 78l1 1-1-1zM271 79l1-1-1 1zM417 79c1-2 3-1 3 0h-3zM188 79h1v2l-1-2zM302 79v0zM333 80zM268 81l1-1-1 1zM432 80c2 0 2 4 0 4v-4zM122 81l27 1h-26l-1-1zM303 81h0zM293 82l1 1-1-1zM318 83l1-1-1 1zM97 83zM306 83h2v1l-2-1zM181 84zM295 85c2 0 3 1 3 3-1 1-4-2-3-3zM402 85h1a174 174 0 00-1 0zM431 86l1-1-1 1zM89 87l2 2c-2 0-2-1-2-2zM158 87l1 1-1-1zM167 87h1v11h-1V87zM59 89c0-2 4-2 4 0h-4zM183 88l1 2h-1v-2zM400 89l1-1-1 1zM159 88v0zM317 92l2-1v1h-2zM398 92zM445 91c2 0 3 0 3 2l-3-2zM407 94zM109 96l1 1h-1v-1zM440 97l1 1-1-1zM135 98l1 1h-1v-1zM131 102c-1-1 1-4 2-3l-2 3zM137 99zM102 99l4 6c-2-1-3-3-4-6zM392 101zM142 103l1 1-1-1zM78 104c2 0 2 1 2 2l-2-2zM144 104h8-8zM39 107c0-2 5-3 6-1l-6 1zM399 106l1-1-1 1zM118 106c1 0 4 2 3 3-2 0-3-1-3-3zM370 108h1l-1 2v-2zM378 108l1 1-1-1zM380 109l1 1-1-1zM72 110c2 1 4 2 4 4-2 0-4-3-4-4zM110 110l1 5c-2 0-1-4-1-5zM158 111zM382 110l1 1-1-1zM465 110l1 1-1-1zM87 114l2 2c-2 0-2-1-2-2zM143 116c1-2 1-2 2 0h-2zM393 117c-2-1-2-1 0-2v2zM460 117l1 1-1-1zM129 118c2 0 2 1 2 2l-2-2zM150 118zM381 119l1 1-1-1zM131 121c2 0 2 3 0 3v-3zM464 122l1 1-1-1zM50 123l2 2c-2 0-2-1-2-2zM388 124l1 1-1-1zM400 124c2 0 2 4 0 4v-4zM107 131l3-6c-1 2-1 5-3 6zM468 126l6-1c0 2-5 3-6 1zM127 126h0zM165 126h2v1l-2-1zM384 129c0-2 4-2 4 0h-4zM172 129h2v1l-2-1zM116 132l1-2v2h-1zM175 130h2v1l-2-1zM377 130h2l-2 1v-1zM69 132l2 2c-2 0-2-1-2-2zM155 132c2 0 2 0 2 2l-2-2zM181 132h2v1l-2-1zM184 133h2v1l-2-1zM112 138c0-2 1-3 3-3 1 1-2 4-3 3zM361 135h2l-2 1v-1zM74 136v0zM357 136h2l-2 1v-1zM198 138c1-1 5-1 5 1l-5-1zM353 138c1-1 2-2 3-1l-3 1zM416 142l5-5-5 5zM349 139c1-2 2-2 3-1l-3 1zM103 139h5c0 2-5 2-5 0zM205 139h2v1l-2-1zM345 139h2l-2 1v-1zM340 141c1-1 2-2 3-1l-3 1zM211 141h2v1l-2-1zM336 142c1-1 2-2 3-1l-3 1zM78 142l1 1-1-1zM172 143h1l-5 1c0-2 3-1 4-1zM68 143l1 1-1-1zM325 144c1-1 2-2 3-1l-3 1zM319 145c1-2 2-2 3-1l-3 1zM415 146v-1 1zM216 146c2 0 2 4 0 4v-4zM149 155l1-1-1 1zM203 154h9c-2 2-5 0-8 2l-1-2zM73 157h1l-1 2v-2zM206 158l1 1-1-1zM310 159c2 1 1 2 0 2v-2zM47 164c-2 0-2-4 0-4v4zM207 160c2 0 2 5 0 5v-5zM56 161l1 1-1-1zM150 168l14-5c-2 2-3 5-3 8l-11 2v8-13zM310 166c-2 0-2-3 0-3v3zM370 163h1a2357 2357 0 01-1 0zM61 164h2v1l-2-1zM66 164h2l-2 1v-1zM191 164l11 3 2 3c0 8-1 16-6 22-6 7-17 10-26 8 8 0 16-3 23-8 3-3 4-8 4-13 0-3-4-4-6-6l-2-9zM314 167c5-2 10-2 15-2-2 3-4 7-3 11l-1-4c-4-1-8 0-12 1l1-6zM50 167l1 1-1-1zM76 169l2-2-2 2zM53 169zM356 170l10 6c0 9-3 19-11 23-6 4-14 4-21 3-4-1-9-2-12-5 9 4 20 6 30 2 6-3 11-9 9-16-1-2-3-3-6-2l1-11zM57 172h0zM59 172l2 1h-1l-1-1zM68 173l2-1v1h-2zM369 180l1-5c1 2 1 5-1 5zM146 178zM309 180l1 3c-1-1-2-2-1-3zM368 186l1-2v2h-1zM311 188l1 2-1-1v-1zM367 190l1-2v2h-1zM312 191zM363 197l1-1-1 1zM157 198zM164 203l1 1-1-1zM353 204l2-1v1h-2zM313 209c-1-1-1-5 1-5l-1 5zM166 206l1 1-1-1zM196 208c2 3 2 7 2 11l-2-11zM170 212l1 1-1-1zM343 214l1-1-1 1zM312 218c-1-1-1-4 1-4l-1 4zM198 220c2 0 2 3 1 4l-1-4zM176 222zM311 222h1l-1 2v-2zM199 226c2 1 2 2 1 3l-1-3zM334 229h0zM333 231zM200 232h1v2l-1-2zM330 237l2-4c1 1-1 4-2 4zM308 234h1l-1 2v-2zM183 235l1 2h-1v-2zM201 236h1v2l-1-2zM185 240l1 2h-1v-2zM202 240h1v2l-1-2zM283 249h10v1h-10v-1zM324 252zM408 318h1v2l-1-2zM93 352c2 1 2 3 2 5-2 0-2-4-2-5zM153 411l1 1-1-1zM159 415l1 1-1-1zM162 417l1 1-1-1zM171 423zM338 426c2 1 3 4 4 6l-4-6zM346 438c3 3 5 6 6 10 1 3 3 5 3 8l-9-18zM233 444l1-1-1 1zM276 445l1 1-1-1zM159 448zM227 448l1-1-1 1zM282 449l1 1-1-1zM215 460l1-1-1 1zM294 462l1 1-1-1zM357 465c2 2 1 6 1 9l-1 1v-10zM150 477c-2 0-2-4 0-4v4zM300 473c2 2 3 5 3 7l-3-7zM164 482l1-1 1 1h-2zM305 485l1 3c-1 0-2-1-1-3zM201 487l1-1-1 1zM168 489zM171 490h5c0 2-5 2-5 0zM328 490l2 1h-2v-1zM334 491l2-1v1h-2zM311 493l2 1h-2v-1z"/></g><g fill="#940a01"><path d="M245 20h8l7 3c1 2 2 2 4 2l5 2 1 1 8 8 1 1 2 4-7 4c-4-7-11-12-19-15v7l-1 12-2 4-5-2v-7-12c1-2 2-5-1-5l-2-1v-1-4l1-1zM308 26h2c5-1 10-1 16 1h1l3 3 2 2c3 3 5 8 5 12l1 5a338 338 0 010 12l-1 2c-1 2-2 5-5 5l-2-6V48c1-1 0-2-1-3v-1l-1-2-2-4-2-2-4-2a201 201 0 00-6-1c-1-1-3 0-4 1l-3 2-1 1-2 3-1 1-2 4c-2 1-3 3-2 5v1c-1 1-2 3-1 4v1l-1 13c-3 0-5 2-6 4h-1v-1a119 119 0 010-16l1-6v-1l1-3v-2l1-1 1-2 1-3 1-1 1-2 1-1a59 59 0 013-4l3-2 4-2zM166 33c6-2 12-5 19-6 2 0 5 0 5 2v5l-4 1-3 1-4 1-2 1h-1l-2 1-2 1 2 4v1l-5 5-2-1-2-5c0-2-2-3-3-2a16 16 0 01-4 3c-3 1-6 3-10 3h-1l-3-1v-5l6-3 2-1h1l2-1 3-1 2-1 6-2zM123 48h6l3 1h1l1 1v5c-3 3-10-2-13 3l-1 1-1 1-1 3v3l1 3 1 1 1 1 1 1 1 1c2 2 6 1 9 1h18a240 240 0 015 1h1l1 1h2l2 2 1 1 3 2v1c-2 2-2 5-3 7l-2-6-3 2c-3-1-5-3-8-3l-27-1h-1l-2-1h-1l-1-1c0-2-1-3-3-3-2-1-3-4-3-6V60c0-2 0-4 2-6l2-2 1-1 1-1 3-1 3-1zM402 62h5l5 2 1 1 4 2 1 1 2 1 1 1 5 4 1 1 5 5v5l-1 1h-5l-6-7c0-1-2-2-3 0l-7 10-4-8 2-4 1-1a597 597 0 012-3h-1l-7-4-1-1-1-2v-1-2l1-1zM82 72h5l10 11 1 1 11 12v1l-4-2-3 4-1 1-10-11-2-2-8-8v-2-3l1-2zM58 89h5c3 1 5 5 7 7l8 8 2 2 7 8-6 5-5-5c0-2-2-3-4-4L58 96a125 125 0 010-6v-1zM439 91h6l3 2 4 4 13 13 1 1 7 9 1 2v3l-6 1-3-3-1-1-3-4-1-1-3-4-4 3-7 2 1-7 3-4-9-9-1-1c-2-1-1-4-1-6zM39 107l6-1 11 10v1l11 11 2 4-6 5c-3-5-8-7-11-12l-2-2-11-11v-5zM142 116h3l5 2 1 1 14 7 2 1 5 2 2 1h1l2 1 4 1 2 1h1l2 1 12 4 5 1h2l2 1h1l2 1h1l2 1 3 2v8l-4 2h-9l1 2 2 2 1 1v6l-1 3c-1 2 0 4 1 6v5l-1 4-3 9-8 7a3066 3066 0 010 7l1 2 2 11v1l1 4v2l1 3v3l1 2v2l1 2v2l1 2 1 4 2 6 3 9 1 3 2 4 2 7 2 4 1 5-8-13-8-23c-5-15-6-31-9-47-8 3-16 3-24 2l4 5c7 12 15 25 19 39 5 12 6 24 10 36l-1 3-1-2-2-6-1-5-1-3-1-4-1-3a614 614 0 00-4-12v-1l-1-2-2-6-1-2-1-3-1-2-6-12-1-1-5-9-1-1-3-5-1-1-1-2-1-1c-1-2-4-3-6-4l-1-1c-4-3-8-7-9-12l-2-8v-8-9l3-6 1-1c3-4 9-8 14-9l3-1h1l5-1h-1l-15-8v-1c0-2 0-2-2-2h-2c-4-5-11-9-11-16m7 6c1 2 3 5 6 6l4 3a199 199 0 0047 20c2 1 5 1 6-1 2-1 2-4 0-5l-9-3-13-3-29-11-12-6m18 26h-1c-7 1-12 6-16 11l-2 4c2 1 5 0 7-1 8-3 16-4 24-4 7 0 14 3 21 5h5c-1-3-3-6-6-8-5-3-11-5-17-6-5-2-10-4-15-1m-3 19v7h1l1 4 2 1c1 2 4 2 6 3 6 1 11-3 16-4-5 7-15 8-22 5-5-3-6-8-7-12 0-3 1-6 3-8l-14 5v13c2 10 11 19 22 19 9 2 20-1 26-8 5-6 6-14 6-22l-2-3-11-3 2 9-2 3h1l-3-1c1-2 2-5 1-7-2-3-4-7-8-7h-11c-3 1-5 4-7 6zM379 130l5-1h4l1 1c-2 5-6 8-11 10l-15 8-5 1c-2 0-2 3 0 2 5 2 11 6 12 12l1 2v9l-1 1-1 5v4l-1 2v2l-1 2-3 6-1 1c-2 3-5 5-8 6l-2 1-5 2-4 7-1 1c-3 5-6 9-8 15h-1v1l-1 1-1 2-2 4c-1 5-5 9-6 14v1a39 39 0 01-5 8l-1 2-3 6-5 11-2 2-6 12 1-7 5-9 21-45c4-9 10-17 15-26-5 0-10 0-15-2l-12-5-1 13a169 169 0 01-22 66l1-6 5-10 1-4v-1l2-6 2-5 1-2 2-8 1-2 2-10 1-2v-4l1-4v-5l1-5c0-4 1-8-1-12l-1-1v-1l-1-2-1-1v-4l-1-3v-6l1-4v-4-3-2c1 0 2-1 0-2l-2-2v-2-4-2c3-2 7-4 11-4l3-1h3l3-1h2l4-1h2l3-1h1l3-1h2l2-1a127 127 0 015-1h1l3-1h1l2-1h2l2-1 14-4 2-1m-9 7l-12 3c-4 1-8 1-11 3l-22 4c-5 1-10 1-14 4 0 2 0 5 2 6 6 1 11 0 17-1 14-4 27-9 40-16 4-2 8-3 10-6-3 0-7 1-10 3m-21 16l-22 7-13 1-1 3c14-3 29-5 42 2 5 2 8 6 13 6v-3c0-5-3-9-7-12-3-3-8-6-12-4m-17 14c-4 2-3 8-5 12l3-2-2 1c-1 5 6 4 9 4l-4 1c2 3 6 3 9 3 4-1 10-2 11-6 2-4 0-9-2-12l-10-4c-3-1-7 0-9 3m-18 0l-1 6c-1 8 1 19 9 24 3 3 8 4 12 5 7 1 15 1 21-3 8-4 11-14 11-23l-10-6-1 11c-3 7-13 9-20 7-5-2-8-7-9-12-1-4 1-8 3-11-5 0-10 0-15 2zM319 292l10-2a78 78 0 019 0l8 2 9 6c-1 1-3 3-2 5 1 8 3 16-2 23l-13 19c-7 6-19 5-26 0-5-3-7-8-11-11l-4-11v-5a97 97 0 013-11 44 44 0 017-8 42 42 0 016-4l6-3m0 15c-4 1-8 4-9 9-2 4 1 9 5 11 3 1 6 0 8-2 3-1 7-1 9-3 4-2 4-8 2-12-4-4-10-4-15-3zM170 292l5-1c7 0 13 2 20 5l7 5 6 6 2 4 2 7c1 8 0 16-4 22l-2-1c-5 2-10 5-15 5s-11 1-16-2c-8-4-14-11-16-20-2-6-1-14 4-20 2-2 3-5 3-8l4-2m10 16c-3 1-5 2-7 5s-2 6-1 9c3 3 7 4 10 5s7 2 10 1c2-2 5-5 4-8 1-4-2-8-6-10-2-3-6-3-10-2zM256 325c5-1 10-1 14 3 4 5 4 12 2 17-2 3-6 6-10 6-6 1-12-4-14-9v-9c1-3 4-7 8-8m1 3l-5 5c-1 4-1 8 1 11 3 5 12 5 15-1 2-3 2-7 0-10-1-4-7-6-11-5zM307 366l6 2c4 4 9 7 14 9a78 78 0 0017 4l4 1h5l6-2 8-5 6-1c-4 3-8 7-13 9l-5 2c-7 0-15-1-22-3-9-2-16-7-23-12l1 6c3 4 7 8 12 11 4 2 9 2 13 2l-4 3c-16 6-33 6-49 9-3 1-7 0-9 3 5 5 13 3 19 2l27-6 6-1-1 2-16 7-35 17v3c6 1 11-2 16-4l36-18 11-4-2 3-30 16-12 8-1 1v3c7 0 13-5 19-8 10-6 21-10 30-17l7-3v3l-21 13c-4 4-10 6-13 10 5 0 9-3 13-5l8-4 3 4 4 6 1 1 1 1v1c0 1 0 2 2 2v1l9 18v1l1 3v1l1 3v12l-1 3c1 3-2 4-3 6h-9l-3-1-2 4-2 2h-1l-2 1h-4l-2-1c-2 0-4-2-5-3-1 4-6 8-10 7l-2-1h-2c-1-1-3-3-3-5l-1-3 2-3c1 3 2 6 5 8s8 0 7-5v-13c-2-12-8-22-15-32l-4-5-9 1c-3-2-2-5-2-8-5 2-11 5-16 3-4-2-3-7 0-9 9-5 19-8 27-14l-20 3-3-1c-3-1-5-3-6-5v-3l3-3 4-1 7-1 8-1 8-1 3-1 12-1 9-2h3c-5-2-10-3-14-7-5-4-9-11-7-18m26 61c-4 1-7 3-9 5a95 95 0 0118 49c2 1 5 3 8 2s3-4 4-7c1-5 1-10-1-15-3-11-8-21-15-30-1-1-2-6-5-4m-30 6c8 11 16 23 19 37 2 4-1 10 3 14 2 3 5 5 9 4 3-1 4-4 4-7a89 89 0 00-17-48c-3 1-7 2-10 0l-1-4-7 4z"/></g><g fill="#fdb05a"><path d="M183 36l3-1c-1 1-1 2-3 1zM177 38l2-1v1h-2zM281 41h1v2l-1-2zM162 42c1-1 3 0 3 2-1 0-2 0-3-2zM328 42l1 2-1-2zM120 49c1-2 2-2 3-1l-3 1zM298 55c-1-1 0-3 1-4 0 1 1 3-1 4zM169 54l1 2h-1v-2zM118 63l1-3c1 2 0 3-1 3zM403 62c0-2 4-2 4 0h-4zM328 69l1-3c1 1 0 2-1 3zM183 67h1v2l-1-2zM176 71l1 2h-1v-2zM334 76l1-2v2h-1zM149 122l12 6 29 11 13 3c-10 2-20-2-29-6-6-3-12-7-19-8-3-1-5-4-6-6zM208 140h2v1l-2-1zM347 143c3-2 7-2 11-3h3c-6 4-12 6-18 8-6 3-13 4-19 4 7-3 16-5 23-9zM330 143c0-2 3-2 4-1l-4 1zM166 148h1c5 2 10 2 15 5l-6 3c-7 0-14 0-20 2l10-10zM358 151c-2 1-2-2 0-2v2zM348 157h13c4 3 7 7 7 12l-8-6c-4-1-9-2-12-6zM371 167c2 1 2 5 0 6v-6zM195 202c2 0 2 3 0 4v-4zM177 208c9 3 12 14 15 22 5 14 7 29 17 41l8 13v1l2-3 6 5 1 5c-2 2-6 4-9 4h-22c-7-3-13-5-20-5 7-4 15-8 24-7l1 2 1-3v-11c-1-11-4-23-8-34-4-10-9-21-16-30zM321 210c3 2 6 6 7 10 1 5-2 9-4 14l-19 46-2 6-1 7 7 4-2 2-15-1c-4-1-7-4-10-6 5 7 13 10 21 11l-3 4c-5 0-11 0-16-2-4-1-9-4-13-3l-5-3 2 3c2 5 7 8 11 11l15 9 5 14-2 22c-4 14-12 27-19 40l-4 1 8-18c2-6 1-13 0-19l1-13-4 16c-3 9-8 17-14 26l-9 9-9 3-3-1c5-4 10-8 12-14s4-13 3-20l1-6-7 18-11 14c-3 1-6 3-9 2 7-15 7-33 3-49-3-7-6-14-11-20l6 15c5 16 7 34-1 50-3 2-7 4-11 2v-1l5-7c2-7 5-14 5-21 0-5 0-11-3-16l-10-11v2l-4-4 4 9c0 7-3 16-11 17l-2-2c3-5 3-11 4-17l1-3c4-6 5-14 4-22v-3c10 0 21-1 29-8 9-7 10-19 7-29 6-1 12 0 18-3 5-2 9-7 14-9l10-4h4l-1 5-10 9c-5 2-8 6-12 9l-5 3c10 0 18-6 26-11l-2 7 2-1c4-3 6-7 8-11l11-19 7-23c3-6 3-13 3-20m-65 115c-4 1-7 5-8 8l-1 8c1 3 1 7 4 10 5 4 14 4 19 0l2-6c2-5 2-12-2-17-4-4-9-4-14-3zM210 245c0-2 3-2 4-1l-4 1zM224 244c2 0 6-1 6 1l-6-1z"/><path d="M305 244h1l-1 2v-2zM231 245c1-1 2 0 3 1l-3-1zM236 246h2v1l-2-1zM188 248l1 2h-1v-2zM332 260c1-2 4-2 4 0h-4zM232 261h5c8 1 16 4 22 9h-8c-7 0-13-6-19-9zM212 268l18 5c5 1 9 4 13 6v-2l3 12c-3 9-11 15-20 17-6 2-12 1-18 1l-6-6c8-2 16 0 24-4 6-4 7-12 3-18-4-3-10-3-15-4l-2-7zM172 279c7-4 15-7 23-9l1 3c0 3-4 3-6 3-7 2-14 5-20 9l-6 4-5-3 13-7zM316 273c3-2 5 1 7 3 1 3 3 7 1 9-2 3-6 3-8 3l-4-8c1-3 1-6 4-7zM330 272h3c8 1 16 5 22 10h-13c-5-2-9-6-12-10zM149 286c5 2 11 4 15 7l-4 3c-5 3-6 9-7 14-4 11-2 23 3 34 7 13 19 22 31 30-5 3-10 3-15 2l-5-3-1-4-11-15c-5-9-7-20-10-30-1-5 0-11-4-15l8-8c-9 4-15 13-17 22-2 10 0 20 3 30 3 6 7 11 11 15-2 0-4 0-5-2-6-4-11-9-14-15-3-7-4-15-3-23l2-8c-9 12-7 29 0 41 5 7 12 14 21 17h-2c8 5 17 9 26 9s17-2 25-3c-6 4-13 5-20 6l-3 1 16 4c3 4 8 3 12 5h-10l1 3 1 2-12-2c0 2 1 3 3 5 0 3 3 5 5 6l-10-2 2 3a1277 1277 0 0018 21c-6-6-14-10-21-15-5-5-12-8-18-12-16-13-34-22-49-36l-8-9-4-7c1-5-1-10-1-15 0-7 0-15 3-22 2-6 5-10 8-15 7-9 18-15 30-17 3 0 7 0 10-2zM346 292l8-2 9 1c8 3 16 7 23 13 11 9 17 24 16 38 0 12-5 24-13 33-5 8-11 13-18 19l-23 16a112 112 0 010-5l-7 3-9 2c1-1 6-3 3-5l2-3-11 4h-4a895 895 0 013-7l-5 1h-5c6-2 13-4 19-8h-2l4-3c-4 0-9 0-13-2-5-3-9-7-12-11l12 6c6 3 13 4 20 5 4 1 8 0 12-2l5-2c8 1 14-4 19-8 10-9 14-23 11-35-1-5-2-10-6-12l-8-6c-1-5-1-10-4-14 1 5 2 10 1 15-1 7-5 13-9 19-3 5-7 9-9 14l-5 14c-4 2-8 4-13 4l2-3c3-1 5-4 7-6 3-6 4-14 9-19 5-7 11-14 12-23 0-7-1-15-5-21v3l-3-7-1 2-3-2-9-6zM91 327c-1-1 0-2 1-3l-1 3zM410 326c2 0 2 3 1 4l-1-4zM411 334h1v10h-1v-10z"/><path d="M366 351l7-8v9c0 5-1 9-3 14l-8 6v-3l4-18zM174 361c5-3 10-1 14-1l6 6c1 3-1 5-4 7l-16-12zM300 388c0-3 1-7 3-9 1 4 4 7 8 10l-9 2-2-3zM140 402l2 1h-2v-1zM250 415c9 0 15-8 21-13v3c-1 5-5 9-9 12-5 2-12 4-17 1l5-3zM337 445c-2-3-5-8-3-12 2 8 9 14 12 22 3 7 3 15 3 22-4-1-4-5-5-8-1-8-4-16-7-24zM343 433l1 1-1-1zM275 434h10l6 6h13l-5 2 11 20c4 7 3 15 6 22h3v-12 13l-6-1-3-8c-4-11-10-22-19-30-5-4-11-6-16-9v-3zM247 436c3-2 6 0 8 1l-8-1zM256 437l3 1c-1 1-2 0-3-1zM260 438l2 1h-2v-1zM318 442c-1-1-1-3 1-4 0 9 7 15 9 23 3 7 2 14 5 21-4-1-5-5-6-8-2-11-5-21-9-32zM263 439l2 1h-2v-1zM164 456c4-6 7-12 13-16l-9 18-7 17-4 3c1-8 2-16 7-22zM268 441l2 1h-2v-1zM189 445l2 1-5 14c-5 7-4 18-13 23 2-12 6-24 14-33l2-5zM200 449h11l-17 34 2-13c2-6 6-11 8-18l-4-3zM210 469h0zM210 471v-1 1zM183 486c1-2 3 1 2 2l-2-2zM337 490l2-2-2 2z"/></g><g fill="#690202"><path d="M274 45l7-4 1 2v1c0 2 0 4 2 6v8l-1 3-2 7-1 1-1 2-1 1-6 6-1 1-2 1-1 1c-2 1-4 3-7 3l-2 1h-1l-2 1h-7c-1 0-3-2-3-4V70 57l1-6 5 2 2-4v16l-1 14 4-2c8-3 15-9 18-17l1-2v-2c2-1 2-4 0-5v-2l-1-3-1-1zM169 50l5-5c0 2 1 5 3 7l1 3c0 2 0 3 2 4l1 3 1 2 1 3 1 2 1 1a6088 6088 0 012 6l1 3a243 243 0 005 15l-2 1h-5l-2-5a114 114 0 00-3-6l-4-11-1-2-2-5-1-2-1-3a116 116 0 00-3-7v-1-3zM329 65l1-3 2 6c3 0 4-3 5-5v3a192 192 0 00-2 7v1l-1 2v1l-1 1v2c-3 5-8 10-14 11l-2 1h-9l-3-1h-1l-2-1h-2l-2-2c0-2-1-3-3-3l-1-2-1-1-1-3-1-2v-1-3c1-2 3-4 6-4a62 62 0 005 10v1l1 1h1l2 2 2 1 10-1 1-1a24 24 0 006-6l1-2c1-1 3-2 2-4v-1c1-1 2-2 1-3v-1zM406 81l4 8-2 4-1 1-7 11-1 1-6 9c-2 1-2 1 0 2l1 1 2 2c2 1 4 2 4 4v5h-6l-5-4-1-1-6-4-1-1c-3-2-8-3-11-6v-3l1-2h7l1 1h1l1 1h1l1 1 2 1a120 120 0 008-12l1-1 1-2 3-5 1-1 1-2 1-1a171 171 0 002-3v-1h1l2-3zM162 89c1-2 1-5 3-7l2 5v11c0 5-4 9-8 12l-1 1-4 1h-11c-4 0-9-3-11-7l-1-2v-1l2-3h5l4 4 1 1h10l2-1 4-6v-9l-1-1-1-2 3-2 2 6zM105 95l4 2h1c2 3 6 5 8 9 0 2 1 3 3 3l8 9 2 2v5l-3 1h-1c-4 0-5-5-8-6-2 1-1 3-1 4v2l-1 3v1a171 171 0 00-2 5c-2 0-3 1-3 3l-1 1h-8c-4 0-7-5-10-7-3-4-7-6-9-10 0-2-1-3-3-3l6-5c0 1 0 2 2 2l3 2 12 13h3c2-1 2-4 3-6v-1l1-4v-5l-1-5-4-5-4-6 3-4zM431 126l16-15-1 7 7-2-7 7-24 25c-2 2-4 1-6 1l-1-3v-1l1-3 5-5 10-11zM63 137l6-5c0 1 0 2 2 2l3 2v1l4 5 1 1 2 5 1 4v6l-1 3-3 6-2 2-6 3-2 1h-7l-2-1h-1-1a25 25 0 01-4-3l-2-1-1-1-3-3v-5h5l4 2 1 1 4 2 2 1h3l2-1 2-1 2-2 1-2 1-2v-5l-1-2-4-6-1-1-2-3c0-2-1-3-3-3zM164 167c2-2 4-5 7-6h11c4 0 6 4 8 7 1 2 0 5-1 7l3 1h-1l-1 2c-5 1-10 5-16 4-2-1-5-1-6-3 3 0 6 0 8-2l1-3h-13v-7m14 9c1 3 4 1 5 1l1-3c-2-1-6-1-6 2zM332 167c2-3 6-4 9-3l10 4c2 3 4 8 2 12-1 4-7 5-11 6-3 0-7 0-9-3l4-1c3-2 7 3 9-1-1-1-2-3-4-2-4 0-8-4-12-2l-3 2c2-4 1-10 5-12zM160 296l4-3 2 1c0 3-1 6-3 8-5 6-6 14-4 20 2 9 8 16 16 20 5 3 11 2 16 2s10-3 15-5l2 1-1 3-5 4c-3 4-8 6-12 7l-6 2-5 1c-4 0-9 1-11-3-9-10-15-23-13-37 0-7 4-14 5-21zM353 303c-1-2 1-4 2-5l3 2c4 9 4 21-1 30-3 7-10 12-13 20-1 3-2 6-5 7a54 54 0 01-24-2l-11-7-3-14c4 3 6 8 11 11 7 5 19 6 26 0l13-19c5-7 3-15 2-23z"/></g><g fill="#c1360c"><path d="M293 41h1l-1 2v-2zM337 44c2 0 2 4 1 5l-1-5zM274 45l1 1-1-1zM275 46l1 3-1-3zM129 48c1-1 2 0 3 1l-3-1zM276 51c2 1 2 4 0 5v-5zM297 69l1-13v16l-1-3zM118 66c1 0 2 1 1 3l-1-3zM290 73h1v3c-1 0-2-1-1-3zM291 77l1 2h-1v-2zM119 80l2 1h-2v-1zM259 85l2-1v1h-2zM256 86l2-1v1h-2zM249 86h6c-1 2-5 2-6 0zM302 90l2 1h-2v-1zM305 91l3 1c-1 1-2 1-3-1zM187 95h4c0 2-4 2-4 0zM131 103l1 2h-1v-2zM110 124c-1-1-1-4 1-4l-1 4zM118 124c0-1-1-3 1-4 1 1 0 4-1 4zM164 145c1-2 2-2 3-1l-3 1zM81 148c2 0 2 3 1 4l-1-4zM73 150l1 2h-1v-2zM308 155c-2 0-2-4 0-4v4zM48 159c0-2 4-2 4 0h-4zM81 161l1-3c1 1 1 2-1 3zM145 161h1v9l-1-9zM309 174c-1-1-1-4 1-4l-1 4zM206 183l1-4c1 1 1 4-1 4zM214 244h10l6 1h1l3 1h2l2 1c6 1 11 6 16 10 9-5 19-8 29-7a472 472 0 0120 1l-2 6v-3a67 67 0 00-45 6c3 4 7 8 12 11 5-5 10-9 17-11 5-2 11-2 16-2l-1 4c-4-1-7-2-10 0l-10 4c-5 2-9 7-14 9-6 3-12 2-18 3 3 10 2 22-7 29-8 7-19 8-29 8v3l-2-7c9 1 18 1 26-4 7-3 11-11 10-18l-3-12c-4-6-11-11-19-12l-14-1-1-3c8-1 15-4 23-4 7 0 14 3 21 5-4-6-9-10-16-12-10-3-21-5-31-1v3l-2-6 6-1 4-1m11 18c5 2 11 3 16 7 2 2 4 5 7 5 5 0 11 1 15-2-1-1-2-3-4-2-6-5-14-8-22-9-4-1-8-2-12 1z"/><path d="M189 251l2 5-8 6 10 1 1 3c-7 1-15 2-22 6-6 3-12 7-17 12l4 2 5 3 6-4c6-4 13-7 20-9 2 0 6 0 6-3l1 5-15 4c-5 2-10 5-14 9l2 1-4 2-2-1c-4-3-10-5-15-7-11-3-24 0-33 6-8 5-15 12-18 21a57 57 0 005 51c1 3 3 7 6 9 6 6 12 12 19 16 24 18 49 34 73 50l8 4-5-5-23-23-2-3 10 2 25 16c4 2 8 6 13 6-3-5-9-7-14-10-10-6-19-13-29-18-2-2-3-3-3-5 10 3 18 8 27 12a217 217 0 0038 13l-1-2-1-1-16-7-19-9c-6-2-11-5-17-6l-1-3h6l15 4c11 1 22 5 32 3 0-3-4-2-7-3l-48-9-16-4 3-1c9 0 19-1 27-7 6-4 11-10 10-17l-4 3c-4 3-7 7-12 9-8 3-17 5-25 5-9 0-17-2-25-5-9-3-16-10-21-17-7-12-9-29 0-41l-2 8c-4 9-1 20 3 29 3 5 7 9 12 12 5 5 11 7 17 8l-10-9c-4-4-8-9-11-15-3-10-5-20-3-30 2-9 8-18 17-22l-8 8c-1 2-2 3-1 5-1 13 1 26 7 37 5 9 12 16 20 22l5 3 6 3 12-3-3-2c-12-8-24-17-31-30-5-11-7-23-3-34 1-5 2-11 7-14-1 7-5 14-5 21-2 14 4 27 13 37 2 4 7 3 11 3l-7 1 2 3 16 12 4 2c3 0 5-2 7-4l-7-5-6-6-4-4 6-2c0 5 4 8 7 11 4-5 7-12 5-18l5-4c-1 6-1 12-4 17l-2 7 3 1 11-7 3-8c1-3-1-5-2-8l-4-9 4 4c4 7 9 15 8 24 0 9-2 18-5 27l-2 5c3 2 7 3 11 3l2-7c8-16 6-34 1-50l-6-15c5 6 8 13 11 20a71 71 0 01-5 53c2 0 4 1 6-1l5-5 11-14 7-18-1 6c-2 7-3 14-7 20l-11 13a1665 1665 0 006 2c0 2 1 5-1 6-6 4-15-1-21 3 3 3 7 4 11 5 2 1 5-1 7-2 13-6 23-18 30-31 3-6 6-12 6-19l4-16-1 13c-3 15-8 29-18 41a68 68 0 01-21 16c2 3 7 4 7 8 0 2-2 4-4 4-6 1-10-2-15-3-2-1-4 0-6 1 4 3 7 6 7 11l15-8c11-5 23-11 30-22l3 1-14 15c-4 2-9 4-12 8 12 3 25 7 35 16a69 69 0 0118 32l-2 3-2-5c0-2-1-5-3-7l-5-10-1-1c-3-5-7-9-11-12l-1-1-5-3-1-1-6-3a231 231 0 00-5-2l-2-1h-1l-2-1h-1l-3-1h-1c-2-1-5-3-8-1l-13 7-1 1-5 3-1 1-11 11-1 1-4 9h-1v2l-8 15-1 1c-2 3-4 7-9 7-3 0-5-2-7-3v-3c1-1-1-4-2-2s-4 4-7 4h-5-2l-1-1-2-1a105 105 0 00-1-7l-1 1-1 1c-4 0-8 1-11-1l-2-5v-4a48 48 0 0110-26l6-9 11-11a156 156 0 01-14-9l-1-1-2-1-1-1-5-3-1-1c-3-3-8-4-11-8l-2-1c-10-6-19-13-28-21l-11-11c-2-4-5-8-6-13 0-2 0-4-2-5-3-6-2-13-2-20v-5l1-3 1-8c3-11 11-20 20-27 6-4 13-6 20-7l10-10c6-4 14-8 21-9 4-2 9-1 13-1l12-8v-3m-50 30l10 2c2 0 4-2 5-3l14-10 12-5c-15-1-31 4-41 16m-4 51c0 9 1 18 6 25 7 9 15 16 25 22l5 1-10-8c-11-9-19-20-22-34-2-5-1-11-2-17-3 3-2 7-2 11m82 35l-2 11c0 2 2 3 3 4 3-8 4-16 3-24-3 2-4 6-4 9m-11 20l6 9h2l2-9-3-7-7 7m-14 5l15 3-4-6-11 3m19 14c2 3 5 4 8 4 2 1 4 0 5-1l-13-3m2 15c3 2 7 7 11 5-3-3-7-4-11-5m-12 8c1 3 4 5 6 6 1 1 2 0 3-1l-9-5m-25 5c-6 4-10 10-14 16-5 7-9 16-9 25l2 4c3 1 7 1 10-2 2-2 2-4 2-7 2-8 6-16 11-23l11-11c-2-3-6-5-9-6l-4 4m35 4v6c-1 3-5 1-8 1l-2 4h-1c-6 12-12 24-12 37-1 4 4 5 7 4 4-4 5-11 10-15 2-2 2-5 3-7 1-6 5-11 9-16l11-10-10-3c-2-1-5-3-7-1m-25 6a55 55 0 00-17 41c1 2 4 3 6 2 3-1 6-3 8-6 3-2 3-5 3-8l7-18 8-12-9-5-6 6zM319 260l2-3 11 3h4l5 1c7 2 14 4 20 8 6 6 11 12 15 19 6 2 12 4 17 9 7 4 10 11 14 17l1 4a226 226 0 002 8l1 4v14c1 7-3 14-5 21-3 7-7 13-12 18l-12 12c-13 10-27 20-42 28l-2 3-3-4c14-8 28-17 41-27 10-7 19-17 25-28 4-8 7-16 7-25 1-12-2-25-9-36-10-13-29-18-45-16l-8 2-8-2 20-4-3-4c-6-5-14-9-22-10h-6l5 17 3 1h-6c-1-9-4-18-12-23l-2 1 3-6 5 6 10 1c-3-5-8-8-14-9m13 2c3 4 5 7 10 9l13 7 8 8 8 1c-1-4-3-6-6-9-8-9-21-14-33-16zM280 280l15-8-1 6-2 5-2 1 2-7c-8 5-16 11-26 11l5-3c4 0 7-2 9-5z"/><path d="M214 275c5 1 11 1 15 4 4 6 3 14-3 18-8 4-16 2-24 4l-7-5h22c3 0 7-2 9-4 2-3 3-7 0-10-2-3-6-3-10-3l-2-4zM308 281l2-2 2 1 4 8v4h3l-6 3c0-5-1-10-5-14zM282 292c3 2 6 5 10 6l15 1-4 4c-8-1-16-4-21-11zM358 300l1-2 3 7c1 6 2 11 1 17-2 9-7 16-13 23l-11 26-2 3-4 5-6-2 4-1-8-8-8-13 7 2h-2c3 6 7 13 13 16 4-4 6-10 8-16h-2c3-1 4-4 5-7 3-8 10-13 13-20 5-9 5-21 1-30zM266 299l5 3c7 6 17 11 28 10l-2 6v-3c-4 0-9 0-13-2l-16-11-2-3zM319 307c5-1 11-1 15 3 2 4 2 10-2 12-2 2-6 2-9 3-2 2-5 3-8 2-4-2-7-7-5-11 1-5 5-8 9-9zM180 308c4-1 8-1 10 2 4 2 7 6 6 10 1 3-2 6-4 8-3 1-7 0-10-1s-7-2-10-5c-1-3-1-6 1-9s4-4 7-5zM372 308c3 4 3 9 4 14-1 10 2 20 0 31l-3 15c5-3 7-9 9-14 2-4 3-9 2-14v-11c3 9 4 18 1 27-3 7-7 13-12 18l-6 1 3-9c2-5 3-9 3-14v-16c-5 4-8 9-7 15l-4 18-5 11h2l-6 2c4-10 9-20 9-30-5 4-6 10-8 16-1 5-4 9-6 14l-4-1c2-3 5-7 6-11l5-14c2-5 6-9 9-14 4-6 8-12 9-19 1-5 0-10-1-15zM294 320l3 3 4 11 3 14c0 6-3 12-1 19 1 6 3 13 7 18 4 4 10 5 15 6l-9 2-5-4c-4-3-7-6-8-10l-2-9-5 11c0 3 2 5 4 7l2 3 2 3-3 1-7-9-5 10h4l-8 1 9-18c5-13 8-28 5-43l-5-14v-2zM260 338c3-1 7 2 6 5-2 2-6 4-9 2-2-3 0-6 3-7zM344 435c2 0 2 1 2 2-2 0-2-1-2-2zM355 457c1 1 2 2 1 3l-1-3zM356 461c1 0 2 1 1 3l-1-3zM356 479l1-3c1 1 0 2-1 3zM344 485h8v1h-8v-1z"/></g><g fill="#fffcf4"><path d="M402 68zM404 84c-1-1 1-3 2-3l-2 3zM58 94c-2 0-2-4 0-4v4zM440 91c0-2 5-2 5 0h-5zM394 97h1l-1 2v-2zM153 103h2l-2 1v-1zM372 108c0-2 5-2 5 0h-5zM143 112h11v1h-11v-1zM56 116v0zM394 118c1 0 2 0 2 2l-2-2zM81 119c2 0 3 1 3 3l-3-3zM473 120h1v2l-1-2zM117 129l1-3c1 1 1 2-1 3zM394 129h5c0 2-5 2-5 0zM63 137c2 0 3 1 3 3-1 0-4-2-3-3zM70 163l2-2-2 2zM206 168c2 0 1 4 1 6-1-2-2-4-1-6zM150 173l11-2c1 4 2 9 7 12 7 3 17 2 22-5l1-2 2-3c2 2 6 3 6 6 0 5-1 10-4 13-7 5-15 8-23 8-11 0-20-9-22-19v-8zM313 173c4-1 8-2 12-1l1 4c1 5 4 10 9 12 7 2 17 0 20-7 3-1 5 0 6 2 2 7-3 13-9 16-10 4-21 2-30-2-8-5-10-16-9-24z"/><path d="M165 174h12l-1 3c-2 2-5 2-8 2l-2-1-1-4zM178 176c0-3 4-3 6-2l-1 3c-1 0-4 2-5-1zM330 177c4-2 8 2 12 2 2-1 3 1 4 2-2 4-6-1-9 1-3 0-10 1-9-4l2-1z"/></g><g fill="#f48104"><path d="M155 128c7 1 13 5 19 8 9 4 19 8 29 6l9 3c2 1 2 4 0 5-1 2-4 2-6 1l-15-4c-11-4-22-9-32-16l-4-3zM370 137c3-2 7-3 10-3-2 3-6 4-10 6-13 7-26 12-40 16-6 1-11 2-17 1-2-1-2-4-2-6 4 1 9 2 13 1 6 0 13-1 19-4 6-2 12-4 18-8h-3l12-3zM167 148c5-3 10-1 15 1 6 1 12 3 17 6 3 2 5 5 6 8h-5c-7-2-14-5-21-5-8 0-16 1-24 4-2 1-5 2-7 1l2-4a112 112 0 0126-3l6-3c-5-3-10-3-15-5zM349 153c4-2 9 1 12 4h-13c3 4 8 5 12 6l8 6v3c-5 0-8-4-13-6-13-7-28-5-42-2l1-3 13-1 22-7zM317 199l12 5c5 2 10 2 15 2-5 9-11 17-15 26a1113 1113 0 00-26 54l2-6 19-46c2-5 5-9 4-14-1-4-4-8-7-10l-4-3-1 5 1-13zM168 203c8 1 16 1 24-2 3 16 4 32 9 47l8 23c-10-12-12-27-17-41-3-8-6-19-15-22h-5l-4-5zM206 249c10-4 21-2 31 1 7 2 12 6 16 12-7-2-14-5-21-5-8 0-15 3-23 4l-3-9v-3zM276 253c9-1 17-1 25 1v4c-5 0-11 0-16 2-7 2-12 6-17 11-5-3-9-7-12-11 6-4 13-6 20-7zM183 262l8-6 2 7-10-1z"/><path d="M225 262c4-3 8-2 12-1h-5c6 3 12 9 19 9h8c2-1 3 1 4 2-4 3-10 2-15 2-3 0-5-3-7-5-5-4-11-5-16-7zM319 260c6 1 11 4 14 9l-10-1-5-6 1-2zM290 262c3-2 6-1 10 0l-5 10-15 8c-2 3-5 5-9 5 4-3 7-7 12-9l10-9 1-5h-4zM332 262c12 2 25 7 33 16 3 3 5 5 6 9l-8-1-8-8-13-7c-5-2-7-5-10-9zM139 281c10-12 26-17 41-16l-12 5-14 10c-1 1-3 3-5 3l-10-2zM315 268l2-1c8 5 11 14 12 23l-10 2h-3v-4c2 0 6 0 8-3 2-2 0-6-1-9-2-2-4-5-7-3-3 1-3 4-4 7l-2-1 5-11zM327 272h6-3c3 4 7 8 12 10h13l3 4-20 4h-3l-3-1-5-17zM182 282l15-4 2 6c-9-1-17 3-24 7l-5 1-2-1c4-4 9-7 14-9zM216 279c4 0 8 0 10 3 3 3 2 7 0 10l-1-5-6-5-2 3v-1l-1-5zM302 293l6-12c4 4 5 9 5 14l-4 2-7-4zM226 306c9-2 17-8 20-17 1 7-3 15-10 18-8 5-17 5-26 4l-2-4c6 0 12 1 18-1zM354 290c16-2 35 3 45 16 7 11 10 24 9 36 0 9-3 17-7 25-6 11-15 21-25 28a396 396 0 01-49 31l21-16 23-16c7-6 13-11 18-19 8-9 13-21 13-33 1-14-5-29-16-38-7-6-15-10-23-13l-9-1zM268 302l16 11c4 2 9 2 13 2v8l-3-3v2l-15-9c-4-3-9-6-11-11zM135 332c0-4-1-8 2-11 1 6 0 12 2 17 3 14 11 25 22 34l10 8-5-1c-10-6-18-13-25-22-5-7-6-16-6-25z"/><path d="M376 322l8 6v1 11c1 5 0 10-2 14-2 5-4 11-9 14l3-15c2-11-1-21 0-31zM127 357c-4-9-7-20-3-29-1 8 0 16 3 23 3 6 8 11 14 15 1 2 3 2 5 2l10 9c-6-1-12-3-17-8-5-3-9-7-12-12zM247 341l1-8v9c2 5 8 10 14 9 4 0 8-3 10-6l-2 6c-5 4-14 4-19 0-3-3-3-7-4-10zM299 336c3 15 0 30-5 43l-9 18-7 1c7-13 15-26 19-40l2-22zM366 351c-1-6 2-11 7-15v7l-7 8zM216 345c1 3 3 5 2 8l-3 8-11 7-3-1 2-7 2 2c8-1 11-10 11-17zM190 354c4-1 9-3 12-7 2 6-1 13-5 18-3-3-7-6-7-11zM303 367c-2-7 1-13 1-19l11 7 8 13 8 8-4 1c-5-2-10-5-14-9l-6-2c-2 7 2 14 7 18 4 4 9 5 14 7h-3c-5-1-11-2-15-6-4-5-6-12-7-18zM354 368c2-6 3-12 8-16 0 10-5 20-9 30h-5c2-5 5-9 6-14zM179 357l5-1 4 4c-4 0-9-2-14 1l-2-3 7-1zM320 357h21c-2 6-4 12-8 16-6-3-10-10-13-16zM217 367c0-3 1-7 4-9 1 8 0 16-3 24-1-1-3-2-3-4l2-11zM103 364l8 9c15 14 33 23 49 36 6 4 13 7 18 12 7 5 15 9 21 15l5 2 5 5-8-4c-24-16-49-32-73-50-7-4-13-10-19-16-3-2-5-6-6-9zM265 391c6-9 11-17 14-26 0 7-3 13-6 19-7 13-17 25-30 31-2 1-5 3-7 2-4-1-8-2-11-5 6-4 15 1 21-3 2-1 1-4 1-6l9-3 9-9zM194 366l7 5c-2 2-4 4-7 4l-4-2c3-2 5-4 4-7zM209 369l4-3c1 7-4 13-10 17-8 6-18 7-27 7 7-1 14-2 20-6 6-2 11-6 14-12l-1-3zM362 372l8-6-3 9-8 5h-2l5-11v3zM296 381l5-11 2 9c-2 2-3 6-3 9-2-2-4-4-4-7z"/><path d="M310 370c7 5 14 10 23 12 7 2 15 3 22 3-4 2-8 3-12 2-7-1-14-2-20-5l-12-6-1-6z"/><path d="M337 374c5 0 9-2 13-4-1 4-4 8-6 11l-11-2 4-5zM187 374l3 2-12 3-6-3c5 1 10 1 15-2zM206 387l7-7 3 7-2 9h-2l-6-9zM294 386l7 9-8 1h-4l5-10zM192 392l11-3 4 6-15-3zM311 389l5 4-12 1-2-3 9-2zM217 396l2-5v3c4 2 8 0 11-2l-2 7c-4 0-8-1-11-3zM233 396c3 1 6-1 9-2l-5 5c-2 2-4 1-6 1l2-4zM197 400h4a350 350 0 0036 4c3 1 7 0 7 3-10 2-21-2-32-3l-15-4zM274 404c14 0 27-2 41-4h5l-27 6c-6 1-14 3-19-2zM181 403l12 2 40 17c4 1 7 4 11 3l1 1 1 2-8-2-30-11c-9-4-17-9-27-12z"/><path d="M271 405c1 2 3 4 6 5-7 11-19 17-30 22l-15 8c0-5-3-8-7-11 2-1 4-2 6-1 5 1 9 4 15 3 2 0 4-2 4-4 0-4-5-5-7-8l2-1c5 3 12 1 17-1 4-3 8-7 9-12zM211 406l13 3c-1 1-3 2-5 1-3 0-6-1-8-4zM322 406h4l-36 18c-5 2-10 5-16 4v-3c1 1 2 2 3 1 5-1 9-4 14-6l31-14z"/><path d="M280 411l20-3c-8 6-18 9-27 14-3 2-4 7 0 9 5 2 11-1 16-3 0 3-1 6 2 8l9-1 4 5h-13l-6-6h-10v3c5 3 11 5 16 9 9 8 15 19 19 30l3 8 6 1c1 5-4 7-7 5s-4-5-5-8l-4-11c-4-7-8-15-14-21-10-9-23-13-35-16 3-4 8-6 12-8l14-15z"/><path d="M332 410l9-2c-9 7-20 11-30 17-6 3-12 8-19 8v-3l1-1c5 1 9-3 13-5l26-14zM213 421c4 1 8 2 11 5-4 2-8-3-11-5zM333 427c3-2 4 3 5 4l-4 2c-2 4 1 9 3 12 3 8 6 16 7 24 1 3 1 7 5 8l5-1c-1 3-1 6-4 7s-6-1-8-2c-2-11-4-21-8-30-2-7-6-13-10-19 2-2 5-4 9-5zM201 429l9 5c-1 1-2 2-3 1-2-1-5-3-6-6zM303 433l7-4 1 4c3 2 7 1 10 0l2 4-4 1c-2 1-2 3-1 4 4 11 7 21 9 32 1 3 2 7 6 8l5-1c0 3-1 6-4 7-4 1-7-1-9-4-4-4-1-10-3-14-3-14-11-26-19-37zM176 434l4-4c3 1 7 3 9 6l-11 11c-5 7-9 15-11 23 0 3 0 5-2 7-3 3-7 3-10 2l2-1 4-3 7-17 9-18c1-2 0-4-1-6zM211 438c2-2 5 0 7 1l10 3-11 10c-4 5-8 10-9 16-1 2-1 5-3 7-5 4-6 11-10 15-3 1-8 0-7-4l5-1 1-2 17-34h-10l2-4c3 0 7 2 8-1v-6zM186 444l6-6 9 5-8 12-7 18c0 3 0 6-3 8-2 3-5 5-8 6-2 1-5 0-6-2l4-2c9-5 8-16 13-23l5-14a108 108 0 00-5-2z"/></g><g fill="#ffe392"><path d="M325 147l22-4c-7 4-16 6-23 9-4 1-9 0-13-1 4-3 9-3 14-4zM150 159c4-5 9-10 16-11l-10 10c-2 1-4 2-6 1zM172 208h5c7 9 12 20 16 30 4 11 7 23 8 34v11c-4-12-5-24-10-36-4-14-12-27-19-39zM317 207l4 3c0 7 0 14-3 20l-7 23-11 19c-2 4-4 8-8 11l2-5a158 158 0 0022-66l1-5zM210 264l14 1c8 1 15 6 19 12v2c-4-2-8-5-13-6l-18-5-2-4zM172 272c7-4 15-5 22-6l1 4c-8 2-16 5-23 9l-13 7-4-2c5-5 11-9 17-12zM116 292c9-6 22-9 33-6-3 2-7 2-10 2-12 2-23 8-30 17-3 5-6 9-8 15-3 7-3 15-3 22 0 5 2 10 1 15a51 51 0 0117-66zM271 302c4-1 9 2 13 3 5 2 11 2 16 2l-1 5c-11 1-21-4-28-10zM362 302c4 6 5 14 5 21-1 9-7 16-12 23-5 5-6 13-9 19-2 2-4 5-7 6l11-26c6-7 11-14 13-23 1-6 0-11-1-17v-3zM140 314c-1-2 0-3 1-5 4 4 3 10 4 15 3 10 5 21 10 30l11 15 1 4c-8-6-15-13-20-22-6-11-8-24-7-37zM384 328c4 2 5 7 6 12 3 12-1 26-11 35-5 4-11 9-19 8 5-2 9-6 13-9 5-5 9-11 12-18 3-9 2-18-1-27v-1zM216 338l10 11c3 5 3 11 3 16 0 7-3 14-5 21l-5 7v-2c3-9 5-18 5-27 1-9-4-17-8-24v-2zM282 362c1 6 2 13 0 19l-8 18-3 3c-6 5-12 13-21 13 5-3 10-7 14-12 10-12 15-26 18-41zM259 368c1 7-1 14-3 20s-7 10-12 14l-3-1 11-13c4-6 5-13 7-20zM197 378c5-2 8-6 12-9l1 3c-3 6-8 10-14 12-8 1-16 3-25 3s-18-4-26-9h2c8 3 16 5 25 5 8 0 17-2 25-5zM283 401c16-3 33-3 49-9h2c-6 4-13 6-19 8-14 2-27 4-41 4 2-3 6-2 9-3zM189 395a1939 1939 0 0139 9l-27-4c-4-2-9-1-12-5zM309 408l16-7c0 2-1 4-3 5l-31 14c-5 2-9 5-14 6-1 1-2 0-3-1l35-17zM192 403c6 1 11 4 17 6l19 9 16 7c-4 1-7-2-11-3l-40-17-1-2zM305 421l30-16c3 2-2 4-3 5l-26 14c-4 2-8 6-13 5l12-8zM189 414c-2-1-5-3-5-6 10 5 19 12 29 18 5 3 11 5 14 10-5 0-9-4-13-6l-25-16zM327 421l21-13v2l-21 16c-4 2-8 5-13 5 3-4 9-6 13-10zM334 433l4-2c7 9 12 19 15 30 2 5 2 10 1 15l-5 1c0-7 0-15-3-22-3-8-10-14-12-22zM162 450c4-6 8-12 14-16 1 2 2 4 1 6-6 4-9 10-13 16-5 6-6 14-7 22l-2 1-2-4c0-9 4-18 9-25zM319 438l4-1c9 13 14 28 15 44l-5 1c-3-7-2-14-5-21-2-8-9-14-9-23zM299 442l5-2c7 10 13 20 15 32v12h-3c-3-7-2-15-6-22l-11-20zM169 485c0-15 5-31 17-41l3 1-2 5c-8 9-12 21-14 33l-4 2zM188 486c0-13 6-25 12-37l4 3c-2 7-6 12-8 18l-2 13-1 2-5 1z"/></g><path fill="#cc0803" d="M257 328c4-1 10 1 11 5 2 3 2 7 0 10-3 6-12 6-15 1-2-3-2-7-1-11l5-5m3 10c-3 1-5 4-3 7 3 2 7 0 9-2 1-3-3-6-6-5z"/></svg>