<svg width="621" height="615" viewBox="0 0 466 461" xmlns="http://www.w3.org/2000/svg"><g fill="#680202"><path d="M133 55c5-3 11-2 17-2 8 1 15 6 19 13s4 15 1 22c0 3-2 6-4 8l3 4-2 5-6-1v6a169 169 0 004 34l3 8 2 4c3 8 8 15 12 23a77 77 0 01-21-43l-4-30v-3c-5 0-11 0-17 2l3 5 4 6c3 10 6 20 7 31v44l-2-6v-7-2c1-6 0-12-1-17v-1-3l-1-10v-3l-6-27-6-8-8 2-2-5 2-3c-8-4-13-12-13-21 0-6 2-13 6-18 3-3 6-6 10-7m0 3c-7 3-11 9-13 16s0 14 5 19l6 6c6-6 14-8 22-8l11 3c4-5 6-12 5-18-1-8-6-15-14-18-7-3-15-4-22 0m13 37c-7 1-13 5-15 11 2 0 4 0 5-2 4-2 9-4 14-4l16 2v-3c-6-4-13-6-20-4zM283 57c4-1 8-3 12-1 9 0 16 5 21 12 4 7 4 16 1 23-2 7-8 10-14 13 1 2 2 6 0 8h-7c-7 8-12 16-15 25l-2 11-1 4-3 9v5l-5 18 3-19c1-12 4-24 8-35 2-6 6-11 10-16l2-4c-5-3-11-5-17-5v4c0 11-3 21-7 31-5 15-14 29-26 39l10-14 3-4 6-12 1-3c5-8 7-17 9-26l1-15c-2-2-5-1-7-1l-2-4 5-6-4-10v-9c2-9 9-16 18-18m-14 16c-2 5-1 10 1 15 1 2 2 5 5 5 9-2 20 1 27 8 6-3 12-7 13-14 2-6 1-13-3-19-4-7-12-9-20-10-10 0-20 5-23 15m-1 25l-1 3 20 3c5 1 9 5 14 6l-1-7c-4-4-10-6-16-7-5-1-11-1-16 2z"/><path d="M295 72c6-3 14 3 14 9 0 3-1 6-3 7-5 4-14 3-16-3-2-5 1-10 5-13m-5 6l11 2c-1-4-7-4-11-2m11 2c-1 1 1 4 2 2 2-1 0-4-2-2zM125 78c2-3 5-6 8-5 4-1 7 1 9 4 1 3 1 7-1 9-3 4-10 5-14 1-2-2-2-5-2-7h8l-1-3-7 1m10 0c1 1 1 1 0 0zM290 207l18-5c7 0 13 2 20 4 5 1 8 4 12 7l5 8 1 3a47 47 0 012 19l-5 12-4 4-9 7h-11c6-1 12-2 16-7 5-4 9-9 9-16 0-8-3-15-7-21s-9-11-17-13c-7-2-15-2-23 0-8 1-15 2-22 6-5 3-10 8-12 13-2 10 1 22 8 29 3 4 8 6 13 7l-3 2a468 468 0 00-10-4c-3-3-6-5-8-9l-3-4c-5-7-5-17-3-25 2-6 7-11 11-16 7 2 15 2 22-1zM115 218c4-4 10-9 17-10 6 0 12 4 17 6l18 7c4 2 5 7 6 11 0 8-7 14-10 21 0-7 4-13 2-20-4-10-14-18-25-19-9-1-17 1-25 4zM194 225l3 1-2 8v2l30 1c8-1 17 0 25-2l-2-4-2-5 3-1 4 12-12 2h-38-3c-3 0-6 0-8-3-1-3 1-7 2-11zM84 241c1-4 4-8 7-11-1 6-2 12 0 18 3 8 5 17 13 22 5 4 11 8 17 9 8 0 15-1 22-3 6-1 12-4 15-9 3-4 3-8 4-12l2 8v1c0 2 0 6-2 7-7 7-15 10-25 11-10 2-20-1-29-5-7-3-13-9-18-15-4-6-5-14-6-21zM31 251c2-4 4-9 9-8 7 3 13 9 20 13a52 52 0 015 4l-3 3c-8-5-15-13-24-17l-2 3 24 18-4 5-26-18c-2-1 0-2 1-3zM16 264c2-1 4 1 5 2l24 15 4 2 9 6-1 1-3 1-8-6-28-17-4 4c12 8 23 15 36 21l2 1-3 4h-4l-5-2-3-2-13-8c-5-3-11-5-15-9l1-4 6-9zM79 277l2-2 10 7 5 4 8 7 5 4a3627 3627 0 0038 32l3 2 6 4 5 4 6 7 3 1 8 8c-1 1-3 2-5 1l-12-8a112 112 0 01-12-9l-10-7-14-10-7-5a58 58 0 00-13-10l-9-6-3-2-12-9a312 312 0 00-8-6l5-6c11 11 24 20 36 28l-35-29zM73 300c7 3 13 8 19 12a243 243 0 0110 5l3 2a334 334 0 0034 22l9 6 3 2 16 10c1 1 3 3 2 5l-6-2-19-9-3-2-3-1-7-4-5-4-17-8-8-4a477 477 0 01-11-7l-4-2-8-4a175 175 0 01-12-6l1-3 5-2 19 11 23 14c6 3 11 8 17 10-5-6-13-8-19-13l-40-25 1-3zM289 422c13-1 26-2 39-5l1 2c-8 2-16 4-25 4l-14 2h-14c-5 2-10 0-15 1l-9 1h-41l-16-1 3-3c18 2 37 2 55 1l36-2z"/></g><g fill="#fffcf6"><path d="M133 58c7-4 15-3 22 0 5 4 8 9 10 16 1 4 1 10-4 13-6 5-14 2-21 5-5 2-10 4-15 1-5-5-7-12-5-19s6-13 13-16m-8 20l7-1 1 3h-8c0 2 0 5 2 7 4 4 11 3 14-1 2-2 2-6 1-9-2-3-5-5-9-4-3-1-6 2-8 5zM269 73c3-10 13-15 23-15 8 1 16 3 20 10 2 4 4 9 3 14-1 7-7 14-15 13-5-1-9-5-14-6l-16-1c-2-5-3-10-1-15m26-1c-4 3-7 8-5 13 2 6 11 7 16 3 2-1 3-4 3-7 0-6-8-12-14-9z"/><path d="M290 78c4-2 10-2 11 2l-11-2zM135 78c1 1 1 1 0 0z"/><path d="M301 80c2-2 4 1 2 2-1 2-3-1-2-2zM80 199c3-9 9-17 17-22-6 6-10 13-13 20 0 2-3 2-4 2zM273 342c2-4 6-4 10-5-1 2-4 5-1 7 4 5 10 6 16 6 4 0 9 1 13-1 3-1 3-4 3-6-7-4-16-5-23-3 1 3 4 4 6 5l2-3c4 0 10 0 12 4-4 3-9 1-13 1-5 0-11-1-15-5 5-4 11-6 17-5 7 1 16 2 21 8 2 1 2 4 0 5-3 3-8 4-12 4-9 0-17-1-26-3-4-1-9-4-10-9zM172 371c10-11 25-17 39-15 12 0 25 6 31 16l-13 1c-8-14-30-15-40-3l-2 2-15-1z"/></g><g fill="#c7c7c6"><path d="M155 58c8 3 13 10 14 18 1 6-1 13-5 18l-11-3c-8 0-16 2-22 8l-6-6c5 3 10 1 15-1 7-3 15 0 21-5 5-3 5-9 4-13-2-7-5-12-10-16zM312 68c4 6 5 13 3 19-1 7-7 11-13 14-7-7-18-10-27-8-3 0-4-3-5-5l16 1c5 1 9 5 14 6 8 1 14-6 15-13 1-5-1-10-3-14zM273 350l20 6h-8l-11-1h5l-6-5zM198 353a48 48 0 017 0h9a62 62 0 0112 3l2 1 8 3a48 48 0 0110 13h-18 1l13-1c-6-10-19-16-31-16-14-2-29 4-39 15h-4l1-2 3-2a147 147 0 0119-13l5-1h2zM309 357l12-3c-1 1-2 3-4 3-6 2-12 2-18 1v-1h10z"/><path d="M89 361l22 5c24 4 49 8 74 9l35 1a799 799 0 00143-15l-1 7-36 6c-10 1-21 3-31 8-3 2-2 7 1 8 7 2 15-1 23 2l-44 5h-28c-22 1-44 1-66-1-24-2-48-4-70-12-6-2-12-5-17-9l-5-14zM109 406l51 9 35 3 57 1 22-2c15 0 30-3 45-5l21-4c-3 4-8 7-12 9-13 3-26 4-39 5l-36 2c-18 1-37 1-55-1-21-1-42-2-62-6-10-1-21-3-27-11z"/></g><g fill="#fdb05a"><path d="M146 95c7-2 14 0 20 4v3l-16-2c-5 0-10 2-14 4 5-7 14-7 21-8l-11-1zM268 98l14 1c6 0 12 4 18 4l1 7c-5-1-9-5-14-6l-20-3 1-3zM143 110l14-4 4 30c3 16 9 32 21 43-4-8-9-15-12-23 6 0 11 2 15 6l-4 3c9-2 18-6 27-6 6-1 11 1 17 3l-9 3c6 1 12-2 16-6 9-6 19-10 30-10l-6 12c-9 2-17 8-23 15 6-4 12-10 20-11l-10 14c12-10 21-24 26-39 4-10 7-20 7-31 5 0 10 1 15 5-4 5-8 10-10 16-4 11-7 23-8 35l-3 19 5-18 8 7 4 9-9 6 18-6c9 2 18 2 26 7 5 4 9 10 13 15a353 353 0 011 4l-9-8c-4-5-9-8-15-9-8-2-16 1-25 2-4 1-8 2-12 1l-9-4c3 4 8 7 13 7 11 0 22-5 33-3 5 0 8 3 12 7-6-1-13-3-19-2-7 1-13 5-21 6-9 2-19 1-26-5l-10-8c5 7 12 12 20 16-4 5-9 10-11 16a59 59 0 01-11 2l2 5c-7 4-15 4-23 4l-30-1 2-8-3-1-6-1c5-1 11-3 14-7 5-6 7-12 11-18l8-12c-6 4-10 11-14 17-3 4-6 10-11 13-6 5-15 5-23 3l-25-10c-5-2-11-5-17-5-6 1-11 4-15 8-4 3-7 7-12 9-6 1-12 2-16 6-3 2-5 6-7 10-1-5-1-11 2-16 3-6 10-8 16-10 5-2 9-6 14-9 7-1 15-4 23-4l17 1c9 2 17 9 26 8 7 1 14-4 16-10 3-6 4-12 8-17 3-4 8-6 12-9-8 2-15 7-19 14-5 4-9 10-15 11 4-2 8-6 10-10l3-18-6 15c-2 7-8 11-15 13h-16c-7 0-13-4-20-4-9-1-18 1-25 7 1-6 6-9 9-13h12c-5-3-11-5-18-3-8 3-14 10-18 18l-11-3c4-8 8-15 15-21v1c10-4 20-5 31-3l13 3 7 6 2 6v-21-23a103 103 0 00-11-37z"/><path d="M165 144c2-3 6-2 9-2 10 1 19 7 26 14l-12 5c-5-5-12-9-20-9l-3-8zM136 158c3-6 8-11 14-13l1 10-15 3zM278 152l11 7c4 6 7 12 9 19l-8 3-3-8c-3-5-8-8-12-12l3-9zM288 153c6 0 12 1 17 4 10 5 18 14 21 25l-13-5-7-8c-3-4-9-4-12-8l-6-8zM134 161c6 1 12-2 17-3v14c-5 1-10 1-15-1-10-3-21-2-31 0-9 1-16 8-22 14-6 4-9 12-16 14h-4l1-3 7-7c6-10 14-18 25-22 7-4 15-5 22-7l16 1zM321 165c12 3 21 11 26 22 4 7 5 15 4 23-5-2-9-5-12-10l-6-11c-3-4-3-8-5-12l-7-12zM456 170l4 3c-5 3-11 7-13 14-4 7-2 16-2 24 0 10-6 20-14 25-12 8-29 4-40-5l-10-11c-4-6-8-12-15-14-3-2-7-1-11-1l-2-15 3-2c8 1 16 1 23 6 9 6 12 18 21 24 3 3 7 5 11 4 7 0 16 0 19-7 3-10 2-21 3-31v7c2-4 4-9 7-12 5-4 11-6 16-9zM72 202c10 0 20 1 29 5-4 2-9 5-14 6H71c-4 1-8 4-8 9-1 8 4 16 8 23l3 12c-3 0-7 0-9 3l-3-2c0-7-4-12-7-19 0-8-3-16 1-24 3-7 10-11 16-13zM17 216c3 3 5 6 9 7 7 2 15 1 22-2l-1 5c-8 4-18 3-26 1-4-2-5-7-4-11zM174 224l9 1c2 3 1 7 2 11 0 8-7 15-6 23 0 8 7 14 9 22 3 7 3 15 2 22l-11-2a151 151 0 000-21c-2-7-7-13-8-20l1-14c1-4 4-8 4-12l-2-10zM346 224c8 1 16 4 21 10l-2-1c4 8 9 15 9 23 0 9-4 17-9 24-3 4-8 7-8 12-3 3-7 6-9 11-2 4 2 8 5 10 4 2 8 1 12 0 5-2 9-5 12-10 1 12-10 22-22 21-9 0-18-7-19-16-1-4 0-9 2-13l20-22c5-6 7-14 5-21s-9-10-15-12c0-6 0-11-2-16zM260 269c-2-5-1-11 3-16 2 4 5 6 8 9-1 4 0 8 3 11l-2 6-1 2c-4-3-9-7-11-12zM69 260c4 0 8 2 10 5 1 2 0 5-1 7l-7 11c-3 3-8 3-12 1-2-2-2-5-2-8l2 5c8-3 12-11 13-19l-3-2z"/><path d="M330 266l9-7c4 11 0 22-5 31-5 7-13 9-20 12-6 3-12 5-17 9-7 6-11 14-10 23a210 210 0 0118 0l9 3 10 4 1 2 1 6v5l-1 3-11 4h-17c-3-3-7-2-11-1l-1-4h8l-20-6 6 5h-12l5-1-3-5-1-2 2-10 2-4 3 4 2-14v6c2-9 6-19 14-25l24-12 4-4 8-11 3-11m-57 76c1 5 6 8 10 9 9 2 17 3 26 3 4 0 9-1 12-4 2-1 2-4 0-5-5-6-14-7-21-8-6-1-12 1-17 5 4 4 10 5 15 5 4 0 9 2 13-1-2-4-8-4-12-4l-2 3c-2-1-5-2-6-5 7-2 16-1 23 3 0 2 0 5-3 6-4 2-9 1-13 1-6 0-12-1-16-6-3-2 0-5 1-7-4 1-8 1-10 5m36 15h-10v1c6 1 12 1 18-1 2 0 3-2 4-3l-12 3z"/><path d="M292 265c7-2 15-1 22 2 4 2 8 1 12 1l-1 3c-8 1-15 4-22 3s-14 2-17 7c-3 4-2 9-1 13l1 5-7 8c-4-8-7-16-5-24v9c2-5 2-11 5-16 4-5 10-7 15-11h-2zM166 272c1 6 0 13 2 19 1 4 4 8 7 11 4 3 9 3 14 5l9 6-3 9-10-8c-7-2-15-3-20-9-6-7-7-17-8-26l9-7z"/><path d="M302 285c5-7 14-11 22-10-2 4-4 8-8 11-5 3-11 5-17 6l3-7zM109 297c-1-6-3-12-1-18l9 4c-1 6-1 13 3 19 4 5 9 8 14 12 3 1 4 4 5 7l-30-24z"/><path d="M119 284h4l7 1c0 4 0 8 3 11 2 4 6 6 9 9 6 6 8 15 5 24l-5-5c0-4 0-8-3-11-2-3-6-4-9-6-4-3-7-6-9-11-2-4-2-8-2-12zM64 290c3 1 7 3 7 7-1 4-4 7-6 10s-5 6-9 7c-6 1-13-3-15-9l-1-2 5 2 2 1h5c6-4 12-9 12-16zM149 305c1-5 1-11 6-15l5 15-3 6-7-2-1-4zM260 314c2-7 7-13 11-18l4 9c-4 4-8 8-10 13l-2 13c-5-4-5-11-3-17zM316 305l17-8v3c-1 5-4 10-7 14-3 3-8 5-12 6-1-5-2-12 2-15zM300 312l10-5v10c0 6 3 10 5 16-3-1-7-1-10-3-4-5-6-11-5-18zM151 313c5 1 10 4 12 9 2 2 2 5 2 8l-11-9c-3-2-2-5-3-8zM179 316c3 2 8 2 10 6 0 5 0 10 2 15a233 233 0 01-6 0c-4-7-6-14-6-21zM65 319c1-2 4-2 7-2v4l-5 13c-2-5-4-10-2-15zM126 333l-1-11 14 10 2 9h-2l-13-8zM153 324l4 5-1 6-6-4 3-7zM256 353h4c-1 1-3 5-5 2l1-2zM193 371c3-2 5-5 9-5 8-1 17 0 23 7l-38-1 2-2 4 1zM330 377l27-4h4c-1 2-2 5-4 6l-17 5-10 1c-11 0-23 3-34 1 9-7 22-8 34-9z"/><path d="M92 377c7 6 14 10 22 12 20 7 41 8 62 10l53 2 27-1 34-2 30-3c11-2 21-3 31-6 3-1 6-2 9 0-3 3-6 6-10 7l-19 4c-13 3-27 5-41 6l-50 2h-28c-18-1-36 0-54-4l-30-4-17-5c-4-2-9-3-13-6-3-3-4-6-6-10v-2z"/></g><g fill="#ffe889"><path d="M131 106c2-6 8-10 15-11l11 1c-7 1-16 1-21 8-1 2-3 2-5 2zM268 98c5-3 11-3 16-2 6 1 12 3 16 7-6 0-12-4-18-4l-14-1zM92 163c8-4 18-4 26-3-7 2-15 3-22 7-11 4-19 12-25 22l-7 7c2-7 5-14 10-19 5-6 11-11 18-14zM440 175c5-3 10-6 16-5-5 3-11 5-16 9-3 3-5 8-7 12v-7c1-4 4-7 7-9zM101 178c5-5 13-6 20-6 9 0 18 2 24 7l-13-3c-11-2-21-1-31 3v-1zM296 182c9-2 18-2 25 2 7 3 13 9 14 17v3c-4-5-8-11-13-15-8-5-17-5-26-7zM356 188c8-3 18-3 26 2 6 5 9 12 14 17l7 10 8 5c-4 1-8-1-11-4-9-6-12-18-21-24-7-5-15-5-23-6zM127 196c9-1 18 2 26 4l-17-1c-8 0-16 3-23 4 4-3 9-6 14-7zM53 212c4-6 11-11 19-10-6 2-13 6-16 13-4 8-1 16-1 24-4-8-6-18-2-27zM225 235c8 0 16 0 23-4l2 4c-8 2-17 1-25 2l-30-1v-2l30 1zM365 233l2 1c8 8 13 19 11 30-1 4-3 8-6 11l-15 17c0-5 5-8 8-12 5-7 9-15 9-24 0-8-5-15-9-23zM197 239a382 382 0 006 0c-1 6-3 11-2 17 1 7 4 13 8 18 3 6 7 12 6 19-1 10-8 19-9 29-1 7 3 12 4 18 2 4 1 8 1 13h-6l-1-12c-2-6-6-12-5-19 1-8 4-15 7-23 2-4 2-9 1-13l-11-23c-4-8-1-16 1-24z"/><path d="M204 254c0-5 0-10 3-14h6l-2 15c2 12 12 21 14 33 2 13-8 23-8 35 0 6 3 12 5 18v14l-8-2c0-5 1-10-1-15-2-6-6-12-4-18 2-10 9-18 9-29 0-14-14-23-14-37z"/><path d="M216 240h9c-2 7-3 14 0 21 4 9 10 18 12 27 0 11-7 20-9 29s3 17 5 25c1 5 0 10-1 14l-4 1-2-1c-1-6 0-12-2-17-2-6-4-12-4-18s3-11 5-16c4-9 4-19-1-27-3-7-7-13-9-20-2-6 0-12 1-18z"/><path d="M228 240h7c-1 6-3 14 0 20l11 24c2 6-1 11-3 16-2 7-6 13-6 20 0 9 5 17 6 26l-1 11h-7c1-7 2-13-1-20-1-5-4-10-4-16s4-10 5-15c3-7 6-13 4-20s-5-14-9-20c-3-5-5-10-4-15l2-11z"/><path d="M238 240l7-1c0 7-1 13 1 19l10 24v10l-9 27c-3 13 10 24 5 37l-7 1c1-6 1-12-1-18-2-8-6-15-4-23l9-24c2-7-2-13-4-19l-8-16c-2-6 0-12 1-17zM171 271c-6-7-6-19 1-25l-1 14c1 7 6 13 8 20v7c-2-5-4-11-8-16zM57 276c3-6 7-11 12-16l3 2c-1 8-5 16-13 19l-2-5zM277 274c4-4 9-8 15-9h2c-5 4-11 6-15 11-3 5-3 11-5 16v-9l3-9zM293 299l26-11-4 4-24 12c-8 6-12 16-14 25v-6c1-10 7-20 16-24zM57 293l7-3c0 7-6 12-12 16h-5l10-13zM365 313l9-12 3 2c-3 5-7 8-12 10zM195 346h7v7h-4l-3-7zM170 347c4 0 8 0 11 2l8 6-17 12c-11 0-22-1-31-6l-5-6 8-2 19 9 6 2c1-2-1-4-2-5l-16-10 10-1 12 8c2 1 4 0 5-1l-8-8zM185 346c3 1 6 1 8 3l3 4-5 1-6-8z"/><path d="M255 349h14l3 5-5 1c-3 3-6 7-10 9l-17 1-4-5c8-1 17 1 24-3 3 0 2-3 3-5l-8-3zM127 351l11-1 3 1c-2 1-7 1-7 4 0 4 2 6 5 8 9 5 20 6 30 6l-1 2-32-4-9-16zM326 354v-2c11 1 23 1 32 8-18 6-38 6-57 9v-1l6-1c11-1 23-2 34-5 3-1 3-5 0-6l-15-2z"/><path d="M314 361l11-4 16 2c-13 4-27 4-40 6l-4-1v-3h17zM242 367h15l1 4-12 2-4-6z"/></g><g fill="#ef7d05"><path d="M140 105c6-2 12-2 17-2v3l-14 4-3-5zM276 105c6 0 12 2 17 5l-2 4c-5-4-10-5-15-5v-4zM298 168l7 4c2 1 3 3 3 5l-6 1-4-10zM147 176h5v2l-1 3-4-5zM67 199c7-2 10-10 16-14l-7 13-9 1zM100 202c4-8 12-15 21-15-3 4-8 7-9 13l-7 5-5-3zM181 197c6-1 10-7 15-11-2 6-3 13-9 17-7 4-15 2-21-2l15-4zM339 200c3 5 7 8 12 10l-1 10-5 1-5-8-1-13zM71 217c4-2 8-1 12-1l-5 12c-1 8 2 16 5 23l4 11 4 20-10-7c1-3 2-6 1-9l-4-8c-2-5-1-10-4-14-3-6-8-12-8-20-1-3 2-6 5-7zM48 221v9c-8 3-20 5-27-3 8 2 18 3 26-1l1-5zM187 224h1l6 1c-1 4-3 8-2 11 2 3 5 3 8 3h-3c-2 8-5 16-1 24l11 23c1 4 1 9-1 13-3 8-6 15-7 23-1 7 3 13 5 19l1 12h-3v-7h-7l3 7h-2l-3-4c-2-2-5-2-8-3l6 8-2 1-8-6c-3-2-7-2-11-2l-3-1c9-3 17-3 26-3l8-1-2-5-3-10-1-5 3-9v-3c3-7 7-13 7-20-1-6-5-12-8-17 1 7 1 15-3 21 0-7-2-14-5-20-3-5-7-9-7-15-1-7 5-13 6-20l-1-15z"/><path d="M249 225l8-1c-2 8-2 18 3 25-2 6-5 13-4 20 2 6 7 10 12 14 2 2 2 5 3 7l-7 9v-10l-5-9c0 6 1 12-2 18-2 8-7 15-7 24-1 5 1 11 3 16l3 8 12 1 1 2h-14l8 3c-1 2 0 5-3 5-7 4-16 2-24 3l-8-3 4-1c1-4 2-9 1-14-2-8-7-16-5-25s9-18 9-29c-2-9-8-18-12-27-3-7-2-14 0-21h-9c-1 6-3 12-1 18 2 7 6 13 9 20 5 8 5 18 1 27-2 5-5 10-5 16s2 12 4 18c2 5 1 11 2 17l-4-1v-14c-2-6-5-12-5-18 0-12 10-22 8-35-2-12-12-21-14-33l2-15h-6c-3 4-3 9-3 14 0 14 14 23 14 37 0 11-7 19-9 29-2 6 2 12 4 18 2 5 1 10 1 15h-3c0-5 1-9-1-13-1-6-5-11-4-18 1-10 8-19 9-29 1-7-3-13-6-19-4-5-7-11-8-18-1-6 1-11 2-17h38l12-2-4-12m-21 15l-2 11c-1 5 1 10 4 15 4 6 7 13 9 20s-1 13-4 20c-1 5-5 9-5 15s3 11 4 16c3 7 2 13 1 20h7l1-11c-1-9-6-17-6-26 0-7 4-13 6-20 2-5 5-10 3-16l-11-24c-3-6-1-14 0-20h-7m10 0c-1 5-3 11-1 17l8 16c2 6 6 12 4 19l-9 24c-2 8 2 15 4 23 2 6 2 12 1 18l7-1c5-13-8-24-5-37l9-27v-10l-10-24c-2-6-1-12-1-19l-7 1m18 113l-1 2c2 3 4-1 5-2h-4zM343 255l5-12c3 2 8 3 11 6 3 4 2 9-1 12-3 5-9 6-14 7l-1-13zM382 253l6 5c4 7 3 17-4 22-4 4-10 5-16 5 5-6 11-11 12-19l2-13zM275 271v-8l6 3-6 5zM344 272l14-5c-4 8-12 13-18 19l4-14zM96 286l-5-18 12 9 1 16-8-7zM170 276c5 6 7 14 6 21-6-5-6-13-6-21zM292 279c3-2 8-2 13-2l-6 7-3 10-7 3-3-8c1-3 2-7 6-10zM49 283l4-3 6 8-1 1-9-6zM133 286l18-4h4c-4 7-8 14-9 21l-10-7c-2-3-3-7-3-10zM81 290l12 9-1 2c-5-3-9-6-11-11zM41 305c-1-3-2-6-1-9l5 2 2 2-2 5-5-2 1 2zM96 301l9 6-3 10-7-4 1-12zM66 335c-8-5-7-18 0-24l9 5-3 5v-4c-3 0-6 0-7 2-2 5 0 10 2 15l-1 1zM91 341c-6-4-6-13-1-18l8 5c-4 4-6 8-7 13zM148 347l8-3 5 4-10 1-3-2zM126 350l5-4 7 4-11 1-1-1zM326 349c9 1 18 1 26 4 3 1 5 4 7 6l-1 1c-9-7-21-7-32-8v-3zM141 351l3 2-8 2 5 6c9 5 20 6 31 6l-3 2c-10 0-21-1-30-6-3-2-5-4-5-8 0-3 5-3 7-4zM326 354l15 2c3 1 3 5 0 6-11 3-23 4-34 5l-6 1v-3c13-2 27-2 40-6l-16-2 1-3zM189 370c10-12 32-11 40 3h-4c-6-7-15-8-23-7-4 0-6 3-9 5l-4-1zM240 365l17-1v3h-15l-2-2zM357 373c2-1 6-3 8 0 0 4 0 8-4 9-7 3-14 2-21 2l17-5c2-1 3-4 4-6h-4zM92 388v-9c2 4 3 7 6 10 4 3 9 4 13 6l17 5 30 4c18 4 36 3 54 4h28l50-2c14-1 28-3 41-6l19-4c4-1 7-4 10-7l1 4c-2 3-5 4-8 6-13 4-26 5-39 8-11 2-23 2-34 3-40 4-81 4-121-2-18-2-37-4-54-11-5-2-10-4-13-9z"/></g><g fill="#bf340c"><path d="M164 139c5 0 11-1 16 1s11 4 15 8l9 8h10l15 4c9-9 22-14 34-14l-1 3c-11 0-21 4-30 10-4 4-10 7-16 6l9-3c-6-2-11-4-17-3-9 0-18 4-27 6l4-3c-4-4-9-6-15-6l-2-4c8 0 15 4 20 9l12-5c-7-7-16-13-26-14-3 0-7-1-9 2l-1-5z"/><path d="M139 150c3-4 7-6 11-8v3c-6 2-11 7-14 13l15-3v3c-5 1-11 4-17 3l-16-1c-8-1-18-1-26 3-7 3-13 8-18 14-5 5-8 12-10 19l-1 3h4l9-1 7-13c6-6 13-13 22-14 10-2 21-3 31 0 5 2 10 2 15 1v-13c1 5 2 11 1 17h-5l4 5 1-3v7l-7-6c-6-5-15-7-24-7-7 0-15 1-20 6-7 6-11 13-15 21l11 3c4-8 10-15 18-18 7-2 13 0 18 3h-12c-9 0-17 7-21 15l5 3 7-5c7-6 16-8 25-7 7 0 13 4 20 4h16c7-2 13-6 15-13l6-15-3 18c-2 4-6 8-10 10l-15 4c6 4 14 6 21 2 6-4 7-11 9-17 4-7 11-12 19-14-4 3-9 5-12 9-4 5-5 11-8 17-2 6-9 11-16 10-9 1-17-6-26-8-8-2-17-5-26-4-5 1-10 4-14 7-5 3-9 7-14 9-6 2-13 4-16 10-3 5-3 11-2 16 2-4 4-8 7-10 4-4 10-5 16-6 5-2 8-6 12-9 4-4 9-7 15-8 6 0 12 3 17 5l25 10c8 2 17 2 23-3 5-3 8-9 11-13 4-6 8-13 14-17l-8 12c-4 6-6 12-11 18-3 4-9 6-14 7h-1l1 15c-1 7-7 13-6 20 0 6 4 10 7 15 3 6 5 13 5 20l-2 12 6 4v3l-9-6c-5-2-10-2-14-5-3-3-6-7-7-11-2-6-1-13-2-19l-2-8v-1l-1-10c3-7 10-13 10-21-1-4-2-9-6-11l-18-7c-5-2-11-6-17-6-7 1-13 6-17 10-3 3-6 6-9 7-5 1-11 2-15 5-3 3-6 7-7 11l-1 10c-3-7-6-15-5-23l5-12c-4 0-8-1-12 1-3 1-6 4-5 7 0 8 5 14 8 20 3 4 2 9 4 14l4 8c1 3 0 6-1 9l-2 2-1 1-5 6-5 4c3 3 7 7 5 12l-1 3v3l-5 2-2-1c2-3 5-6 6-10 0-4-4-6-7-7l-7 3v-3l1-1 1-1-6-8-4 3-4-2c3 0 5-2 6-4l5-5 4-5a228 228 0 005-7c2-3 6-3 9-3l-3-12c-4-7-9-15-8-23 0-5 4-8 8-9h16c5-1 10-4 14-6-9-4-19-5-29-5-8-1-15 4-19 10v-1l-2-1c2-3 5-6 9-8 2-6 3-13 6-18 7-13 18-22 32-26 7-2 13-1 20-1l14 2c2-3 4-7 7-9m-59 49c1 0 4 0 4-2 3-7 7-14 13-20-8 5-14 13-17 22m94 25l2 10c0 4-3 8-4 12-7 6-7 18-1 25 4 5 6 11 8 16v14l11 2c1-7 1-15-2-22-2-8-9-14-9-22-1-8 6-15 6-23-1-4 0-8-2-11l-9-1M69 260c-5 5-9 10-12 16 0 3 0 6 2 8 4 2 9 2 12-1l7-11c1-2 2-5 1-7-2-3-6-5-10-5m101 16c0 8 0 16 6 21 1-7-1-15-6-21zM278 152l1-4c0 2 1 3 3 3h13c6 1 12 3 16 7 3 1 5 3 8 3 7 2 14 4 19 10 5 5 10 10 13 16 4-1 8-4 13-4 6 0 13 1 18 4 7 5 11 12 15 18l-1 2c-5-5-8-12-14-17-8-5-18-5-26-2l-3 2 2 15c4 0 8-1 11 1 7 2 11 8 15 14l10 11-1 2-9-8c-4-4-5-10-11-13-3-3-8-7-12-4-6 2-5 9-6 14 9 2 16 8 22 15 2 4 3 8 6 11l9 8-1 2-6-5-2 13v-3l-2 1c2-11-3-22-11-30-5-6-13-9-21-10l-1-3 5-1 1-10c1-8 0-16-4-23-5-11-14-19-26-22l7 12c2 4 2 8 5 12l6 11 1 13c-4-3-7-6-12-7-7-2-13-4-20-4l-18 5c-7 3-15 3-22 1-8-4-15-9-20-16l10 8c7 6 17 7 26 5 8-1 14-5 21-6 6-1 13 1 19 2-4-4-7-7-12-7-11-2-22 3-33 3-5 0-10-3-13-7l9 4c4 1 8 0 12-1 9-1 17-4 25-2 6 1 11 4 15 9l9 8-1-7c-1-8-7-14-14-17-7-4-16-4-25-2l-18 6 9-6-4-9-8-7v-5c4 4 9 7 12 12l3 8 8-3c-2-7-5-13-9-19l-11-7m10 1l6 8c3 4 9 4 12 8l7 8 13 5a38 38 0 00-38-29m10 15l4 10 6-1c0-2-1-4-3-5l-7-4zM233 176c6-7 14-13 23-15l-3 4c-8 1-14 7-20 11z"/><path d="M290 219c6-1 13 1 15 7 2 4 0 10-5 11l-12 3c-4 0-8-5-8-9 0-6 5-10 10-12zM117 227c5-1 10 0 14 3s5 9 2 13c-4 4-10 4-15 5-4 1-8-1-10-4-2-4-1-10 2-13l7-4zM348 240c6 2 13 5 15 12s0 15-5 21l-20 22v-2l-5 7v-3l-17 8-2-3c7-3 15-5 20-12 5-9 9-20 5-31l4-4 1 13c5-1 11-2 14-7 3-3 4-8 1-12-3-3-8-4-11-6v-3m-4 32l-4 14c6-6 14-11 18-19l-14 5zM260 249l3 4c-4 5-5 11-3 16s7 9 11 12l1-2-1 11c-1-2-1-5-3-7-5-4-10-8-12-14-1-7 2-14 4-20zM284 264c5-2 11-4 16-3 7-1 13 2 19 5h11l-3 11-3-2c-8-1-17 3-22 10l-3-1 6-7c-5 0-10 0-13 2-4 3-5 7-6 10l-1-3v8c-1-4-2-9 1-13 3-5 10-8 17-7s14-2 22-3l1-3c-4 0-8 1-12-1-7-3-15-4-22-2-6 1-11 5-15 9v-1h-3c-3-3-4-7-3-11l4 1v8l6-5 3-2zM87 262l4 6 5 18-5-4-4-20zM103 277l5 2c-2 6 0 12 1 18l-5-4-1-16zM151 282l6-3c1 9 2 19 8 26 5 6 13 7 20 9l10 8a60 60 0 012 7l-5-3 3 11h-4c-2-5-2-10-2-15-2-4-7-4-10-6 0 7 2 14 6 21h3c-9 2-18 1-27 2l-5-4 1-6-4-5-3 7-3-2c3-9 1-18-5-24-3-3-7-5-9-9-3-3-3-7-3-11l3 1c0 3 1 7 3 10l10 7c1-7 5-14 9-21h-4m-2 23l1 4 7 2 3-6-5-15c-5 4-5 10-6 15m14 3l-3 5c3 3 7 6 8 10s1 8-1 11-5-1-7-2v6l21-1c-2-4-5-8-5-13l-1-9c-4-2-9-4-12-7m-12 5c1 3 0 6 3 8l11 9c0-3 0-6-2-8-2-5-7-8-12-9z"/><path d="M117 283a193 193 0 002 1c0 4 0 8 2 12 2 5 5 8 9 11 3 2 7 3 9 6 3 3 3 7 3 11l-3-3c-1-3-2-6-5-7-5-4-10-7-14-12-4-6-4-13-3-19zM77 287a312 312 0 0115 14l1-2 3 2-1 12-3-1 2-7c-7-4-16-9-17-18zM102 317l3-10 2 1c-2 4-2 8-2 11l-3-2zM118 317l7 5 1 11-3-3c1-5-3-9-5-13zM86 321l4 2c-5 5-5 14 1 18 1-5 3-9 7-13l3 2c-5 3-7 8-8 14h-5c-6-6-5-15-2-23zM139 332l10 7-8 2-2-9zM90 375h4c5 4 11 7 17 9 22 8 46 10 70 12 22 2 44 2 66 1h28l15 1-34 2-27 1-53-2c-21-2-42-3-62-10-8-2-15-6-22-12v11c3 5 8 7 13 9 17 7 36 9 54 11 40 6 81 6 121 2 11-1 23-1 34-3l-2 2h5c-9 2-19 2-28 3l-48 3a434 434 0 01-140-16l-10-7c-3-5-3-12-1-17z"/></g><g fill="#940601"><path d="M442 170c6-3 14-5 19 0 2 1 3 4 1 6l-8 5c-4 5-7 12-7 19 2 8 1 16-2 23-3 9-11 17-20 19-12 3-26-1-35-9l1-2c11 9 28 13 40 5 8-5 14-15 14-25 0-8-2-17 2-24 2-7 8-11 13-14l-4-3c-6-1-11 2-16 5-3 2-6 5-7 9-1 10 0 21-3 31-3 7-12 7-19 7l-8-5-7-10 1-2 1 1 1 1c3 4 5 8 9 11 3 2 7 1 11 1s8-3 9-7c2-4 1-8 1-13 2-5 1-11 1-17 0-2 2-4 4-5 2-3 5-6 8-7zM297 209c8-2 16-2 23 0 8 2 13 7 17 13s7 13 7 21c0 7-4 12-9 16-4 5-10 6-16 7-6-3-12-6-19-5-5-1-11 1-16 3-5-1-10-3-13-7-7-7-10-19-8-29 2-5 7-10 12-13 7-4 14-5 22-6m-7 10c-5 2-10 6-10 12 0 4 4 9 8 9l12-3c5-1 7-7 5-11-2-6-9-8-15-7zM51 210l2 1v1c-4 9-2 19 2 27 3 7 7 12 7 19l-2-2c0-3-2-5-3-8l-8-16c-7 4-17 4-24 1-4-2-9-4-11-8v-10c2-2 5-1 7 1 7 7 18 5 26 2l4-8m-34 6c-1 4 0 9 4 11 7 8 19 6 27 3v-9c-7 3-15 4-22 2-4-1-6-4-9-7zM115 218c8-3 16-5 25-4 11 1 21 9 25 19 2 7-2 13-2 20l1 10-2-8c-1 4-1 8-4 12-3 5-9 8-15 9-7 2-14 3-22 3-6-1-12-5-17-9-8-5-10-14-13-22-2-6-1-12 0-18 4-3 10-4 15-5 3-1 6-4 9-7m2 9l-7 4c-3 3-4 9-2 13 2 3 6 5 10 4 5-1 11-1 15-5 3-4 2-10-2-13s-9-4-14-3z"/><path d="M83 251l1-10c1 7 2 15 6 21 5 6 11 12 18 15 9 4 19 7 29 5 10-1 18-4 25-11 2-1 2-5 2-7l2 8-9 7-6 3-18 4-3-1-7-1-6-1a45 45 0 01-14-6l-12-9-4-6-4-11zM389 256c4 4 4 10 4 16-1 5-5 9-8 12-6 3-12 4-18 4-2 0-4 1-5 3-4 4-8 7-11 12-1 4 2 8 6 8 4 1 7-2 9-4l5-8h7c1 4 3 8 1 11-2 6-5 11-10 14-9 5-22 4-30-3-3-3-5-7-6-11l-10 10c0 5-1 11 3 15l6 8h-7a1093 1093 0 011-1l-5-10-1-11-5 2 3 10c0 2-3 2-4 4l-9-3c-5-5-7-11-9-17l-5 7v10h-4c-1-9 3-17 10-23 5-4 11-6 17-9l2 3c-4 3-3 10-2 15 4-1 9-3 12-6 3-4 6-9 7-14l5-7v2c-2 4-3 9-2 13 1 9 10 16 19 16 12 1 23-9 22-21l-3-2-9 12c-4 1-8 2-12 0-3-2-7-6-5-10 2-5 6-8 9-11l15-17c3-3 5-7 6-11l2-1v3c-1 8-7 13-12 19 6 0 12-1 16-5 7-5 8-15 4-22l1-2m-89 56c-1 7 1 13 5 18 3 2 7 2 10 3-2-6-5-10-5-16v-10l-10 5z"/><path d="M274 273h3v1l-3 9c-2 8 1 16 5 24l7-8-1-5v-8l1 3 3 8 7-3 3-10 3 1-3 7c6-1 12-3 17-6 4-3 6-7 8-11l3 2-8 11-26 11c-9 4-15 14-16 24l-2 14-3-4-2 4-12 1c3-1 7-1 9-4 8-6 8-17 10-26-3 2-6 5-7 8-3 6-3 13-5 19-3-1-6-2-7-5-3-5-3-12-1-17 1-5 4-9 7-14l7-9 1-11 2-6m-14 41c-2 6-2 13 3 17l2-13c2-5 6-9 10-13l-4-9c-4 5-9 11-11 18zM54 291l3-1v3l-10 13-2-1 2-5-2-2h4l3-4-2-1 4-2z"/><path d="M37 294l3 2c-1 3 0 6 1 9 2 6 9 10 15 9 4-1 7-4 9-7l2 1-1 3c-7 6-8 19 0 24l1-1 5-13 3-5 3 1c-3 6-7 11-8 18-1 2-3 4-6 3-6-5-8-14-5-22h-7c-6 1-12-4-14-9-2-4-1-9-1-13zM72 303l40 25c6 5 14 7 19 13-6-2-11-7-17-10l-23-14-19-11v-3zM326 374a297 297 0 0038-5c3 1 3 5 4 7-1 4-3 8-7 10 1 2 3 5 2 9l-5 5-11 3-30 6h-5l2-2c13-3 26-4 39-8 3-2 6-3 8-6l-1-4c-3-2-6-1-9 0-10 3-20 4-31 6l-30 3-15-1 44-5c7-1 16-1 23-5-15-1-31 3-46 3-3-1-4-6-1-8 10-5 21-7 31-8m31-1l-27 4c-12 1-25 2-34 9 11 2 23-1 34-1l10-1c7 0 14 1 21-2 4-1 4-5 4-9-2-3-6-1-8 0z"/></g><g fill="#893537"><path d="M398 206l1 1-1-1zM38 246c9 4 16 12 24 17l-2 4-24-18 2-3zM14 272l4-4 28 17 8 6-4 2c-13-6-24-13-36-21zM79 277l35 29c-12-8-25-17-36-28l1-1zM188 337h11l2 5-8 1c-9 0-17 0-26 3l-6-7c9-1 18 0 27-2zM253 338a169 169 0 0117-1l-2 10-12-1-3-8zM149 339l7 5-8 3-9-6a52 52 0 0010-2zM126 342l5 4-5 4-4-5 4-3z"/><path d="M325 343h7c12 1 25 2 35 9v8l-3 9-2-1 1-7-17 5c-42 8-84 9-126 10l-35-1a759 759 0 01-96-14l5 14h-3l-5-17c0-2 0-4 2-5 2 3 4 7 9 7 12 4 25 6 39 7l32 4h4l15 1 38 1h21l12-2h21c7 0 15 1 22-2 19-3 39-3 57-9l1-1c-2-2-4-5-7-6-8-3-17-3-26-4l-1-6zM296 390c15 0 31-4 46-3-7 4-16 4-23 5-8-3-16 0-23-2zM101 399c18 7 37 11 56 12l21 2c21 2 42 3 63 2l48-3c9-1 19-1 28-3l30-6c-3 8-10 13-18 16l-1-2c4-2 9-5 12-9l-21 4c-15 2-30 5-45 5l-22 2-57-1-35-3-51-9c6 8 17 10 27 11 20 4 41 5 62 6l-3 3-8-1-13-1c-17-1-35-2-51-7-10-2-17-10-22-18z"/></g><g fill="#e55904"><path d="M197 273c3 5 7 11 8 17 0 7-4 13-7 20l-6-4 2-12c4-6 4-14 3-21zM257 298c3-6 2-12 2-18l5 9v10c-3 5-6 9-7 14-2 5-2 12 1 17 1 3 4 4 7 5 2-6 2-13 5-19 1-3 4-6 7-8-2 9-2 20-10 26-2 3-6 3-9 4h-5c-2-5-4-11-3-16 0-9 5-16 7-24zM163 308c3 3 8 5 12 7l1 9c0 5 3 9 5 13l-21 1v-6c2 1 5 5 7 2s2-7 1-11-5-7-8-10l3-5zM291 324l5-7c2 6 4 12 9 17h-14v-10zM315 323l5-2 1 11 5 10-2-1-10-4c1-2 4-2 4-4l-3-10zM192 326a427 427 0 004 1l3 10h-4l-3-11z"/></g><g fill="#044c2c"><path d="M102 340c7 0 15-1 20 5l4 5 1 1 9 16c-14-1-27-3-39-7-5 0-7-4-9-7v-3c4-3 8-3 13-4-1-2-1-5 1-6zM257 364c4-2 7-6 10-9h7l11 1 1 4c4-1 8-2 11 1v3l4 1v4c-7 3-15 2-22 2h-21a185 185 0 01-1-7z"/></g></svg>