<svg xmlns="http://www.w3.org/2000/svg" width="512" height="512" viewBox="0 0 512 512"><g fill="#700101"><path d="M416 91l7 1c6 7 7 16 7 25l1 6v5l-1 4c0 6-2 12-6 17-4 6-10 10-15 15l-2 10 1 11 1 6c2 6 3 13 3 20a113 113 0 000 14c-3-6-1-12-3-18l-4-23c-1-7-2-15 2-22 5-6 11-10 15-17 4-4 5-10 5-16 1-8 0-17-2-25-1-4-2-8-5-10-3 0-5 3-7 5-3 11 1 23-7 33l-17 20c-4 5-7 11-7 17l5 34-2 6a6838 6838 0 01-1-7c-2-4-1-9-2-14l-2-15v-8c0-8 6-14 10-20l11-11c2-4 5-7 6-12l2-11v-9l7-11zM286 107c4-2 9-5 14-5h10c14-1 27 12 26 26 1 6-2 11-4 15 6 2 9 10 6 15-5 4-12 3-17 2-1-2-1-2-2 0l-11 18-13 38a74 74 0 00-3 17l-1 9-3-1c1-8 1-16 4-24 4-15 8-31 17-46l7-12-10-3c6-1 13 0 19 1h9c3-2 2-7 0-9-3-2-6-2-10-3-9-2-17-3-26-3-7 0-14-1-21 3l-2 2c0 2-1 4 1 5 4 4 10 3 14 3l-4 3 2 9v20l-5 29-7 16-2-2a54 54 0 006-18 376 376 0 005-36l-2-18c-4 0-11-2-11-7v-3c0-3 3-6 6-7l-2-6c0-6-1-12 2-17 2-4 4-9 8-11m-6 15c-1 6-2 12 1 18l13-2c11 0 23 1 34 4 7-9 7-23-2-31-6-6-14-7-22-7-10 1-22 7-24 18zM136 109c5-2 10-5 15-4h10c4 0 7 2 11 3 8 3 14 11 15 20s-1 18-7 25c2 2 5 6 4 10l-6 5-1 5v10l1 4a98 98 0 004 23 116 116 0 006 17l3 9-3-3-5-12c-4-8-6-17-8-26v-26l-5-2c3-1 8-1 10-5 1-2 0-4-1-6l-4-2c-11-3-23-3-35-4-5 0-11-1-15 3-1 3-1 8 3 9 9 3 20 4 30 5l-14 1 3 4c7 8 14 16 17 27a209 209 0 0112 48h-1l-1-4-3-10a186 186 0 00-5-18l-8-24-13-16c-3-3-6-8-11-8-5-1-12-2-12-8v-5c-1-3 2-4 4-6-1-3-3-7-2-11v-5c-1-9 5-17 12-23m7 0c-11 5-19 18-16 30 1 3 1 6 3 8h14l33 4c6-6 7-15 7-24-1-6-5-12-11-14-8-6-20-7-30-4z"/><path d="M304 114c5-3 11-4 17-2 3 2 5 6 7 10 0 4 0 10-4 13-5 4-12 2-18 0-7-4-7-15-2-21m2 5c-3 0-5 5-2 6 0 2 0 5 2 7 3 2 7 2 10 2s6 0 7-3c3-4 3-10-1-14-3-2-6-3-10-3-3 1-4 3-6 5zM133 124c3-10 15-15 24-9 7 4 7 15 2 20-5 6-15 7-21 3-5-2-7-8-5-13l2 3c1 3 3 7 6 9 5 1 9 0 13-2 4-1 6-6 6-10-1-6-8-10-14-9-4 1-6 3-9 5l-4 3zM137 251h11l4 1 4 17c4 9 10 18 19 23 4 3 9 4 12 9 1 15-7 30-20 38a54 54 0 01-47 3l-4-2-9-7-4-4c-4-4-7-10-9-16l-1-18a63 63 0 0111-27c5-7 13-12 21-15l12-2m-9 9c-6 1-11 5-15 9-6 4-8 11-10 16v18c2 7 3 15 10 19 5 4 10 8 17 9 6 2 13 2 19 2 8-1 15-4 19-11 4-5 3-11 3-17l-9-11c-4-3-7-7-9-12s-1-11-4-16c-1-3-3-5-5-6h-16zM292 263c17 2 34-1 50-5 6 4 12 8 15 14l3 5a56 56 0 013 42l-2 6c-6 11-16 19-28 21-12 3-25 2-37-3-10-5-17-15-21-26-4-12-2-26 3-37 3-7 9-12 14-17m2 4l-10 8c-3 4-3 9-5 13-2 5-2 11-2 16 0 4 0 8 2 11 5 7 12 11 19 16 6 5 15 4 22 4s14-3 20-7c8-7 15-17 15-28 0-6 1-12-3-17-2-6-7-9-12-11-5-3-10-2-15-2l-20-1-11-2zM225 262c8-2 16-1 22 4l8 12c3 10 3 20 3 30 0 8-3 16-8 22-5 8-15 12-24 9-8-3-14-10-16-18-4-13-6-29-1-43 3-7 9-13 16-16m2 3c-6 2-11 7-14 12-5 11-5 24-2 36 1 5 2 11 6 15 4 6 12 11 19 8 6-2 12-5 13-12 7-10 6-22 5-33 0-7-3-13-6-19-4-6-13-8-21-7z"/></g><g fill="#bf340b"><path d="M50 97c3-2 9-5 12-1 2 8 1 15 5 22l12 20c2 6 4 12 4 19 0 6-2 13-1 19 0 9 7 14 11 21 4 5 8 11 9 18l1 8c2 7 1 15 1 22l7-8c7-6 15-12 24-15 8-3 18-4 27-2l4-5 1 3-7 10v1c-6 14-5 31 2 44 6 11 16 19 27 25l7 5-9-4v2c-3-5-8-6-12-9-9-5-15-14-19-23l-4-17-4-1h4l1-10c-8 1-16 4-22 10h6l-12 2c7-9 18-14 29-15l5-16a68 68 0 00-21 2c-12 3-22 11-30 21l-1 2c-5 6-6 14-3 21l-3 4c-1-4-3-9-2-13 1-8 2-15 1-23 0-10 1-20-4-29l-14-20c-3-5-4-11-3-17 1-10 2-21-2-30l-14-23c-3-6-3-13-5-20-3 1-6 2-7 6-3 7-3 15-2 23 2 8 9 13 11 20 2 6 0 13 1 19l2 30c2 6 5 12 9 17s8 10 9 17c3 12-1 24 0 36-1 7-2 14 0 21 2 8 6 14 11 20l1-11 1 18-7-7c1 11 5 23 14 31l2-8 4 4c-2 2-4 5-4 8l-1 6c-1 6 0 13 3 19l7 13c1 8-1 17 2 25l5-3 3-9c1-6 2-13 0-19-3-7-7-14-8-21l2-12 4 2h-2c-2 7 0 14 3 20 3 7 5 15 11 21 3 5 9 7 14 9 11 5 24 9 31 20l2 6 2 3c3-4 6-8 4-13-2-7-6-14-13-17l-18-9c-7-3-14-9-18-16-2-3-2-7-2-11 2 4 2 9 6 13 5 5 12 10 19 13 5 3 10 6 16 6l18 3 18 3c4 1 8 4 10 8l16 23c3 6 6 11 12 14 6 4 13 4 19 4l-2-6-3-1-8-6-7-8c-4-8-8-17-14-24-3-6-7-13-13-16-7-3-15-3-22-4l-34-6-11-7c-4-5-7-11-8-18a73 73 0 003 0c2 7 5 14 11 18 5 4 12 4 19 6 9 3 18 4 28 4-4-4-9-6-15-8-5-2-11-3-15-7l-11-11c6 3 10 9 16 11 8 4 17 5 25 10 4 5 10 8 16 9-2-7-5-13-10-19-3-3-7-4-10-6l-9-5c10 3 22 8 27 18l4 7c1 4 3 9 6 12 4 6 7 12 12 17 7 5 17 3 24 7 4 2 7 7 11 10 5 3 12 3 15-1l-10-8c-4-5-7-11-13-14-7-4-15-4-22-8-6-3-7-10-9-16 0-4-1-7-3-10-1-4-4-7-7-10 8 3 10 11 13 18 1 4 4 6 7 8 4 4 6 9 11 11 6 2 12 4 19 4 8-1 17-2 23 4 11 9 17 22 25 34 5 7 12 13 20 16 9 3 19 0 28-2l1-1-2-2c-9-4-20-8-29-14-8-7-13-16-18-26-3-6-7-13-12-19-5-4-11-5-16-7-9-2-18-1-26-3-5-1-8-5-11-8l-7-11 10 12 9 5c8 1 16 0 23 2l14 4c5 2 8 7 12 10 11-1 23-2 32 5 7 6 7 17 10 25h5l2-5c5-15-4-33-19-39-7-3-15-3-23-4-9-1-18-1-26-3-6-1-12-3-17-7l-10-15c6 5 9 13 17 16 8 4 18 4 27 4l25 3 23 5 15 2c5 2 8 7 11 12 5 8 10 15 18 20 8 6 20 7 29 2 5-2 9-7 10-12h-5c-8-1-17 2-24-3-6-5-11-12-14-20-4-7-9-13-16-16-15-4-31-2-45-6l-4-3 18 3 19 1-1-17c-1-5-5-9-7-14 8 6 10 17 11 27 0 1 0 4 2 4l14 5 1-6-6-3c-2-3-2-6-2-9-1-8 0-15-2-23-2-7-6-12-9-18-6 7-12 15-19 21l2-8 1 1 16-20c6-10 3-22 8-32l17-29c3-8 2-16 2-24 2 6 0 12 3 18-2 9-8 17-13 25 2 7 8 12 12 18 2 6 7 9 11 13l-2 2c-8-5-12-14-18-22l-6-6c-3 5-6 11-6 18 0 3 2 6 4 8 6 8 12 15 20 21 6 3 12 4 18 5h-5v6l-4-4-13-5c2 7 7 12 10 18l5 9-2 2 2 1-2 1-2 1c-1-7-4-14-8-19l-2 18-4 9 1 6-4-5 1 5-2 9 4 5c4 5 5 11 9 16 3 4 6 10 12 11 4 1 8 3 13 2 4-2 10-1 14 1 0 8-5 14-12 17-9 5-21 4-31-1l-11-10-7-10c-2 4-8 8-13 5-2-6 0-12-1-18-1-2-3-1-5-1l-11-1c4 6 9 11 11 18l1 14c0 5-2 9-5 13-3 0-7 0-9-2-3-7-2-17-9-22-3-4-7-5-11-6h-17c1 6 5 11 7 16 4 7 9 14 15 20 9 6 19 9 29 13 3 1 4 4 3 7-3 3-7 3-11 4l-19 1c-10-3-19-9-24-18-8-12-15-25-26-35-6-2-12-4-17-2h-5c4 6 8 12 14 16l6 5c-2 7-11 9-17 6-6-2-9-7-13-11-7-3-15-2-22-5l9 18c3 3 7 4 11 6 3 3 6 6 7 10-1 2-3 4-6 4-5 0-9 1-14-1-4-2-8-4-11-8-8-9-12-21-20-29l2 6v16c5 10 15 18 19 29 0 3 1 8-2 10-4 1-6-2-9-3-10-7-20-15-25-26-2-9-2-17-5-25-1-4-3-8-6-11-4-5-9-11-16-12l10 17c1 4-1 7-2 10s-4 7-8 6c-4-4-4-10-8-14-9-10-23-13-34-19l-11-9c-1 6-1 13-4 19-1 3-4 4-6 5-3 1-5-2-6-4 0-6-2-11 0-16 1-7-5-13-8-18-4-9-3-19-2-29-3-3-7-6-9-10-4-9-8-19-7-29-4-6-7-13-7-21v-17l1-12c2-5 1-11 1-17 0-9-7-15-12-21-4-6-6-13-7-20l-2-12c0-5 1-10-1-14l1-12c-1-4-1-8-3-11-3-5-8-10-9-16v-15c0-5 1-11 4-15m339 184l-4 12v5l4 4 5 14c3 8 1 17 3 26l1 3 1 2 6-7c6-12 4-25 2-38l-6-8-12-13m-145 97c1 4 3 7 7 8-1-3-4-6-7-8m139 0l1 14c0 2 2 1 3 0 2-1 4-3 4-5-1-4-4-7-8-9m-191 16l11 16c4 8 4 18 7 27 2 8 9 14 15 19 4 4 9 7 14 9 1-6-3-12-6-17-4-6-10-10-12-17-3-7 0-15-3-22l-4-11c-7-4-15-3-22-4zM300 101h10v1h-10v-1zM151 104h10v1h-10v-1zM430 117c2 0 1 4 1 6l-1-6zM430 132l1-4c1 1 1 4-1 4z"/><path d="M124 137c-2 0-2-5 0-5v5zM272 151c-2 0-2-3 0-3v3zM122 159c-2 0-2-5 0-5v5zM379 165h1v8h-1v-8zM177 179v-6c2 1 2 6 0 6zM285 176v0zM177 183c2 0 2 3 1 4l-1-4zM408 185c2 0 1 4 1 6l-1-6zM201 191c8-2 16-2 22 3 3 1 4 4 6 6 7 1 14-1 21 1 6 0 13 2 18 5l12 6a253 253 0 01-1 2c-7-1-14 0-20 2 4 5 9 10 15 14l2 2c2 2 4 5 7 6l5 3 3 1 1-9c3 2 6 3 8 6l4 4 15-3c-3-5-7-11-13-14-3-3-7-6-12-6l1-4c7 3 14 7 19 13 1 2 4 1 5 0l21-6h18c7 0 13 5 20 6 4-6 8-12 7-20l2-6c1 5 2 11 0 16-3 8-10 14-13 22-4 9-4 19-8 27a51 51 0 00-6 9l-3-5c5-3 7-8 8-13l-13-3-10 2c-16 4-33 7-50 5-10-3-21-7-30-13l-10-9c-3 5-3 11-5 16v-8l3-11-11-10-2 2c-6 6-5 14-7 21-1-7 0-15 4-21 0-2 2-3 3-4l-7-5-1 7c-2 5-3 11-6 16-3 7-8 13-14 18-7 6-16 9-24 13l11 8c-6-2-12-5-17-9-6-5-9-13-10-21-2-7 2-13 2-20l3 10-2-1c-1 5 0 10 1 15 9-3 18-9 25-16 4-5 8-12 10-18-5 1-9 4-13 7l6-6c4-2 8-3 10-7-9 0-17 3-23 9v1l-2-5c7-4 14-8 22-8 9-1 19 1 26 6 11 7 19 18 29 27 10 7 22 12 34 13h22l27-6c7-1 13 1 20 2l4-15a76 76 0 00-28-2c-13 2-26 7-39 8-10 0-20-3-27-10-10-8-18-18-29-25l-20-10c-7-2-15-1-22 0a61 61 0 00-23 8l-1-3c3-2 7-3 9-6l11-10m-5 9c9-1 17-3 26-2-3-6-10-6-15-5s-9 3-11 7m44 3l15 11 15-3c-8-7-20-8-30-8m-26 14l-2 5c-4 8-7 16-13 23-5 5-12 8-17 12l-3 1-5 2c1 5 4 10 8 13 8-4 17-7 24-12 6-5 11-11 15-19 2-7 5-14 6-22-4-2-8-3-13-3m117 12h-1l-3 1-9 3 4 6 12-2c6-2 13-2 19-2h6c4 2 8 2 13 3l3-6-6-3c-12-5-26-5-38 0m-39 8v5l7 1c-1-3-4-5-7-6z"/><path d="M384 202l1 5c-2 0-2-4-1-5zM412 211h1v9h-1v-9zM423 283c1-1 2-1 2 1l-2-1zM124 285c5-1 10 2 13 6 4 5 0 14-6 14h-11c-5-1-7-6-6-11 1-4 6-8 10-9zM304 287c6-1 12 2 15 6 3 5 0 12-5 13h-12c-4 0-7-4-7-8-1-5 4-10 9-11z"/></g><g fill="#f38202"><path d="M413 99c2-2 4-5 7-5 3 2 4 6 5 10 2 8 3 17 2 25 0 6-1 12-5 16-4 7-10 11-15 17-4 7-3 15-2 22l4 23c0 8 1 16-2 24l-17 29c-5 10-2 22-8 32l-16 20-1-1c2-12-1-24-5-34l3-5c2 4 5 8 10 10 8-9 5-22 10-32 3-4 7-7 9-12 4-7 8-15 7-24 0-8-3-16-4-24 0-8-3-16-1-24 2-6 6-11 11-15 4-4 9-8 12-13 3-6 3-13 3-20 0-6 0-12-4-17l-3-2zM51 103c1-4 4-5 7-6 2 7 2 14 5 20l14 23c4 9 3 20 2 30-1 6 0 12 3 17l14 20c5 9 4 19 4 29 1 8 0 15-1 23-1 4 1 9 2 13-4 7-7 15-8 23l-1 11c-5-6-9-12-11-20l6 1c3-3 3-7 3-11 2-8-2-17 0-26 1-9 4-18 2-27l-9-18c-5-7-11-13-12-22v-34c0-6-4-11-7-16-6-8-9-17-11-26l-2-4zM324 145c4 1 7 1 10 3 2 2 3 7 0 9h-9c-6-1-13-2-19-1l10 3-7 12c-9 15-13 31-17 46-3 8-3 16-4 24l-5-3c3-4 2-9 3-14l3-17 4-14c3-6 5-13 6-20 0-3-1-7-4-9l-7-1v4l-2-9 4-3c-4 0-10 1-14-3-2-1-1-3-1-5 9 4 19 2 29 2 8 1 16 3 24 2l-4-6zM128 162c-4-1-4-6-3-9l12 5c5 2 10 2 15 2h14c5 0 9-2 13-4 1 2 2 4 1 6-2 4-7 4-10 5l5 2v26c2 9 4 18 8 26l5 12c-6-5-9-11-13-17l-4-14c-1-8-2-17-7-24-3-4-7-6-12-6h-5l-3-4 14-1c-10-1-21-2-30-5zM196 200c2-4 6-6 11-7s12-1 15 5c-9-1-17 1-26 2zM240 203c10 0 22 1 30 8l-15 3-15-11z"/><path d="M182 210l11-5-1 6 12-1c11-2 23 0 33 6 11 8 19 19 30 27 10 8 23 15 36 14 15-1 30-4 44-7l14-2c1 0 3-1 3-3-1-3-3-5-5-6l11 2-4 15c-7-1-13-3-20-2l-27 6h-22c-12-1-24-6-34-13-10-9-18-20-29-27-7-5-17-7-26-6-8 0-15 4-22 8l-4-12z"/><path d="M259 216c6-2 13-3 20-2v2l-5 14c-6-4-11-9-15-14zM188 226c6-6 14-9 23-9-2 4-6 5-10 7-4-1-9 0-13 2zM214 217c5 0 9 1 13 3-1 8-4 15-6 22-4 8-9 14-15 19-7 5-16 8-24 12-4-3-7-8-8-13l5-2c1 2 2 5 5 5 6 0 11-3 16-6 8-6 15-14 19-23 1-3 1-7-1-9l-6-3 2-5z"/><path d="M160 228l7-10 4 15c0 7-4 13-2 20 1 8 4 16 10 21 5 4 11 7 17 9l1 1c-8 1-16-3-23-8-7-6-10-16-10-25-1-7 2-13 1-20-1-2-3-2-5-3zM294 220c5 0 9 3 12 6 6 3 10 9 13 14l-15 3-4-4c-2-3-5-4-8-6l2-13zM143 223l16-1-5 16c-11 1-22 6-29 15-8 3-16 8-21 15-3-7-2-15 3-21v7c3 0 6 0 8-2 5-5 10-11 17-14l15-6 1-4-5-5zM230 221l7 5c-1 1-3 2-3 4l-5-2 1-7zM237 230l2-2 11 10-3 11c0-7-4-15-10-19zM369 229l6 3-3 6c-5-1-9-1-13-3 3 0 8 1 9-4l1-2zM318 233l9-3c2 2 3 4 5 4l21 1c-6 0-13 0-19 2l-12 2-4-6zM292 237c3 1 6 3 7 6l-7-1v-5z"/><path d="M131 251c6-6 14-9 22-10l-1 10a218 218 0 01-15 0h-6zM396 255l6 6c-3 6-4 12-1 18 6 7 13 15 23 16 10 2 20 4 29 8 9 3 15 11 20 19l1-1c1 2 0 7-3 6l-6-5c-5-5-11-10-17-12-5-2-11-3-16-3-6-1-12-2-18-5-8-6-14-13-20-21-2-2-4-5-4-8 0-7 3-13 6-18zM342 258l10-2 13 3c-1 5-3 10-8 13-3-6-9-10-15-14zM389 281l12 13 6 8c2 13 4 26-2 38l-6 7-1-2 2-6c4-11 2-24-3-34-1-3-2-6-5-8l-7 1v-5l4-12z"/><path d="M363 319c7-6 13-14 19-21 3 6 7 11 9 18 2 8 1 15 2 23 0 3 0 6 2 9l6 3-1 6-14-5c-2 0-2-3-2-4l2 1c3-8 1-16 1-24l-3-9c-4-2-8 0-11 0l-1 3c-4 1-8 4-11 6l2-6zM410 304l13 5 4 4 7 8c3 3 6 4 10 5-1 2-2 5-4 6-5 2-10 1-15-1l-5-9c-3-6-8-11-10-18zM87 306l7 7c2 6 5 12 9 16l-2 8c-9-8-13-20-14-31z"/><path d="M413 317c4 5 7 12 8 19 0 5 2 11 6 14 8 8 21 8 31 12-4 7-13 7-20 6 3 1 7 0 10-1-7-7-17-6-25-12-4-2-6-6-9-9-1-2-5-2-7-2l4-9 2-18zM103 341c0-3 2-6 4-8l9 7-2 12c1 7 5 14 8 21 2 6 1 13 0 19l-3 9-5 3c-3-8-1-17-2-25l1 21 2-3c4-5 3-12 3-18 0-7-5-13-7-20l-3-14-5-4zM134 353v2c0 4 0 8 2 11 4 7 11 13 18 16l18 9c7 3 11 10 13 17 2 5-1 9-4 13l-2-3c1-4 1-8-1-13-1-3-4-4-6-6-6-5-13-8-20-12-5-4-11-6-15-11-5-7-4-16-3-23zM203 353c3 2 7 3 10 6 5 6 8 12 10 19-6-1-12-4-16-9 2 0 7 1 6-3-2-5-7-9-10-13zM265 366c7 1 14 3 21 2 8 0 16 1 24 4 6 2 11 6 17 7l20 1c7 2 13 7 18 12 5 6 6 13 7 20l-2 5h-5c-3-8-3-19-10-25-9-7-21-6-32-5-4-3-7-8-12-10l-14-4c-7-2-15-1-23-2l-9-5zM192 366c6 2 11 4 15 8-10 0-19-1-28-4 5 1 10 0 13-4zM346 367h22c7 0 14 0 21 3 4 2 7 6 10 10l10 13c5 5 11 10 18 11s14 0 18-5l2-3h5c-1 5-5 10-10 12-9 5-21 4-29-2-8-5-13-12-18-20-3-5-6-10-11-12l-15-2-23-5zM239 372c2 6 3 13 9 16 7 4 15 4 22 8 6 3 9 9 13 14l10 8c-3 4-10 4-15 1-4-3-7-8-11-10-7-4-17-2-24-7-5-5-8-11-12-17-3-3-5-8-6-12 3 4 7 7 12 9l2-10z"/><path d="M249 378c8 3 15 7 24 6 9 0 18-1 26 3 11 6 20 16 26 27s14 21 25 26c7 4 16 3 25 5-9 2-19 5-28 2-8-3-15-9-20-16-8-12-14-25-25-34-6-6-15-5-23-4-7 0-13-2-19-4-5-2-7-7-11-11zM383 378c4 2 7 5 8 9 0 2-2 4-4 5-1 1-3 2-3 0l-1-14zM192 394c7 1 15 0 22 4l4 11c3 7 0 15 3 22 2 7 8 11 12 17 3 5 7 11 6 17-5-2-10-5-14-9-6-5-13-11-15-19-3-9-3-19-7-27l-11-16zM237 424l11 9c5 4 12 6 18 3l2 6c-6 0-13 0-19-4-6-3-9-8-12-14z"/></g><g fill="#ffe393"><path d="M406 132c8-10 4-22 7-33l3 2c1 12 2 24-5 34l-12 17c-4 4-10 8-11 14l3 24c1 10 5 21 1 31l-13 26-8 18-5 3c4-8 4-18 8-27 3-8 10-14 13-22 2-5 1-11 0-16l-5-34c0-6 3-12 7-17l17-20zM51 103l2 4 1 17c2 7 8 12 10 19s3 15 3 23c1 10-2 21 3 30l14 24c4 7 4 15 3 23-1 13-3 26-6 38v-16c-1-12 3-24 0-36-1-7-5-12-9-17s-7-11-9-17l-2-30c-1-6 1-13-1-19-2-7-9-12-11-20-1-8-1-16 2-23zM277 145c7-4 14-3 21-3 9 0 17 1 26 3-4 2-9 2-14 2-11 0-22 1-33-2zM125 153c4-4 10-3 15-3 12 1 24 1 35 4-4 3-10 1-15 1-12-1-23 0-35-2zM288 164c2 1 5 1 5 4 3 8 1 17 0 25l-4 14-6 11v-2l5-29v-20-3zM147 172h5c4 3 8 6 10 11a172 172 0 0113 33c0 7 2 14 0 20-2-12-6-25-11-37-3-11-10-19-17-27zM205 202c7-1 15-2 22 0l20 10c11 7 19 17 29 25 7 7 17 10 27 10 13-1 26-6 39-8h14c-13 4-26 10-40 13-12 1-25 1-36-4-9-5-15-14-23-20l-22-16c-9-6-20-8-30-10zM212 222c2 6-1 12-4 18-6 8-15 16-26 17 5-4 12-7 17-12 6-7 9-15 13-23zM108 245c8-10 18-18 30-21h3l-18 12c-5 3-9 8-15 9zM331 229c12-5 26-5 38 0l-1 2-16-1c-7 0-14 1-21-1zM162 273c-7-13-8-30-2-44l1 21c1 10 4 21 11 28l19 20h-2c-11-6-21-14-27-25zM389 302c2 0 5 1 6 4 6 10 5 22 5 33l-2 6-1-3c-2-9 0-18-3-26l-5-14zM102 347c3 4 3 10 6 15 3 6 8 10 8 17l-1 18-2 3-1-21-7-13c-3-6-4-13-3-19zM358 357c-4-1-8-3-10-6 14 4 30 2 45 6 7 3 12 9 16 16 3 8 8 15 14 20 7 5 16 2 24 3l-2 3c-6 1-12 3-18 2-5-1-9-4-13-8-5-6-7-14-11-20l-11-9c-5-4-11-4-17-4s-12-1-17-3zM121 360c5 6 9 14 16 20 4 4 10 6 15 7 7 4 14 7 20 12 3 4 5 8 5 13-7-11-20-15-31-20-5-2-11-4-14-9-6-6-8-14-11-21v-2zM275 378c-6-1-13-6-13-13 3 3 6 7 11 8 8 2 17 1 26 3 5 2 11 3 16 7 5 6 9 13 12 19 5 10 10 19 18 26 9 6 20 10 29 14h-13c-11-4-21-10-27-19-6-7-11-15-15-24-2-5-6-10-11-13-10-5-22-7-33-8zM164 372l1-1 34 6c7 1 15 1 22 4 6 3 10 10 13 16 6 7 10 16 14 24l7 8 8 6-7-2c-8-4-14-12-18-20l-13-20-11-8c-5-2-11-2-17-3-11-1-23-3-33-10z"/></g><g fill="#fdaf5c"><path d="M416 101c4 5 4 11 4 17 0 7 0 14-3 20-3 5-8 9-12 13-5 4-9 9-11 15-2 8 1 16 1 24 1 8 4 16 4 24 1 9-3 17-7 24-2 5-6 8-9 12-5 10-2 23-10 32-5-2-8-6-10-10l3-4 5-3 8-18 13-26c4-10 0-21-1-31l-3-24c1-6 7-10 11-14l12-17c7-10 6-22 5-34zM53 107c2 9 5 18 11 26 3 5 7 10 7 16v34c1 9 7 15 12 22l9 18c2 9-1 18-2 27-2 9 2 18 0 26 0 4 0 8-3 11l-6-1c-2-7-1-14 0-21v16c3-12 5-25 6-38 1-8 1-16-3-23l-14-24c-5-9-2-20-3-30 0-8-1-16-3-23s-8-12-10-19l-1-17zM275 147l2-2c11 3 22 2 33 2 5 0 10 0 14-2l4 6c-8 1-16-1-24-2-10 0-20 2-29-2zM125 153c12 2 23 1 35 2 5 0 11 2 15-1l4 2c-4 2-8 4-13 4h-14c-5 0-10 0-15-2l-12-5zM319 160c1-2 1-2 2 0h-2zM288 163l7 1c3 2 4 6 4 9-1 7-3 14-6 20 1-8 3-17 0-25 0-3-3-3-5-4v-1zM152 172c5 0 9 2 12 6 5 7 6 16 7 24-2-7-5-13-9-19-2-5-6-8-10-11zM193 205l12-3c10 2 21 4 30 10l22 16c8 6 14 15 23 20 11 5 24 5 36 4 14-3 27-9 40-13h-14 17c2 1 4 3 5 6 0 2-2 3-3 3l-14 2c-14 3-29 6-44 7-13 1-26-6-36-14-11-8-19-19-30-27-10-6-22-8-33-6l-12 1 1-6z"/><path d="M283 218l6-11-3 17c-1 5 0 10-3 14-3-1-5-4-7-6l7-16v2zM175 216c4 6 7 12 13 17l3 3-3-9v-1c4-2 9-3 13-2l-6 6c4-3 8-6 13-7-2 6-6 13-10 18-7 7-16 13-25 16-1-5-2-10-1-15l2 1 1 4h1l-1-11c2-6 0-13 0-20z"/><path d="M212 222l6 3c2 2 2 6 1 9-4 9-11 17-19 23-5 3-10 6-16 6-3 0-4-3-5-5l3-1c11-1 20-9 26-17 3-6 6-12 4-18zM138 224l5-1 5 5-1 4-15 6c-7 3-12 9-17 14-2 2-5 2-8 2v-7l1-2c6-1 10-6 15-9l18-12h-3z"/><path d="M160 228c2 1 4 1 5 3 1 7-2 13-1 20 0 9 3 19 10 25 7 5 15 9 23 8l-1-1-11-8c8-4 17-7 24-13 6-5 11-11 14-18 3-5 4-11 6-16l5 2c-4 6-5 14-4 21 2-7 1-15 7-21 6 4 10 12 10 19v8c2-5 2-11 5-16l10 9c9 6 20 10 30 13-5 5-11 10-14 17-5 11-7 25-3 37 4 11 11 21 21 26 12 5 25 6 37 3 12-2 22-10 28-21 3-2 7-5 11-6l1-3c3 0 7-2 11 0l3 9c0 8 2 16-1 24l-2-1c-1-10-3-21-11-27 2 5 6 9 7 14l1 17-19-1-18-3 4 3c2 3 6 5 10 6 5 2 11 3 17 3s12 0 17 4l11 9c4 6 6 14 11 20 4 4 8 7 13 8 6 1 12-1 18-2-4 5-11 6-18 5s-13-6-18-11l-10-13c-3-4-6-8-10-10-7-3-14-3-21-3h-22l-25-3c-9 0-19 0-27-4-8-3-11-11-17-16l10 15c5 4 11 6 17 7 8 2 17 2 26 3 8 1 16 1 23 4 15 6 24 24 19 39-1-7-2-14-7-20-5-5-11-10-18-12l-20-1c-6-1-11-5-17-7-8-3-16-4-24-4-7 1-14-1-21-2l-10-12 7 11c0 7 7 12 13 13 11 1 23 3 33 8 5 3 9 8 11 13 4 9 9 17 15 24 6 9 16 15 27 19h13l2 2-1 1c-9-2-18-1-25-5-11-5-19-15-25-26s-15-21-26-27c-8-4-17-3-26-3-9 1-16-3-24-6-3-2-6-4-7-8-3-7-5-15-13-18 3 3 6 6 7 10 2 3 3 6 3 10l-2 10c-5-2-9-5-12-9l-4-7c-5-10-17-15-27-18l9 5c3 4 8 8 10 13 1 4-4 3-6 3-8-5-17-6-25-10-6-2-10-8-16-11l11 11c4 4 10 5 15 7-3 4-8 5-13 4-7-2-14-2-19-6-6-4-9-11-11-18l2-1c6-1 11-3 16-6a44 44 0 0020-40l9 4-7-5h2l-19-20c-7-7-10-18-11-28l-1-21v-1m65 34c-7 3-13 9-16 16-5 14-3 30 1 43 2 8 8 15 16 18 9 3 19-1 24-9 5-6 8-14 8-22 0-10 0-20-3-30l-8-12c-6-5-14-6-22-4zM327 230l3-1h1c7 2 14 1 21 1l16 1c-1 5-6 4-9 4h-6l-21-1c-2 0-3-2-5-4zM401 279c-3-6-2-12 1-18 6 8 10 17 18 22 4 4 9 7 15 8l24 6c9 5 13 15 15 24l-1 1c-5-8-11-16-20-19-9-4-19-6-29-8-10-1-17-9-23-16z"/><path d="M385 298l7-1c3 2 4 5 5 8 5 10 7 23 3 34 0-11 1-23-5-33-1-3-4-4-6-4l-4-4zM103 341l5 4 3 14c2 7 7 13 7 20 0 6 1 13-3 18l1-18c0-7-5-11-8-17-3-5-3-11-6-15l1-6zM118 342h2c8 4 17 5 26 4 1 7 4 13 8 18l11 7-1 1c10 7 22 9 33 10 6 1 12 1 17 3l11 8 13 20c4 8 10 16 18 20l7 2 3 1c-6 3-13 1-18-3l-11-9-16-23c-2-4-6-7-10-8l-18-3-18-3c-6 0-11-3-16-6-7-3-14-8-19-13-4-4-4-9-6-13v-2c-1 7-2 16 3 23 4 5 10 7 15 11-5-1-11-3-15-7-7-6-11-14-16-20v2c-3-6-5-13-3-20zM407 344c2 0 6 0 7 2 3 3 5 7 9 9 8 6 18 5 25 12-3 1-7 2-10 1-6 0-12-1-17-4-6-3-10-8-13-14l-1-6zM441 371h4c0 2-4 2-4 0zM172 399c2 2 5 3 6 6 2 5 2 9 1 13l-2-6c0-5-2-9-5-13z"/></g><g fill="#fffbf4"><path d="M280 122c2-11 14-17 24-18 8 0 16 1 22 7 1 3 3 7 2 11-2-4-4-8-7-10-6-2-12-1-17 2-5 6-5 17 2 21-7 2-16 2-22-2-4-3-5-7-4-11zM143 109c10-3 22-2 30 4 3 5 6 10 6 16 1 5 0 10-3 14-4 2-8 3-12 2-10 0-19 0-29-2l-8-4c-3-12 5-25 16-30m-10 15l4-3c2 1 6-1 8 2 1 6-7 5-10 5l-2-3c-2 5 0 11 5 13 6 4 16 3 21-3 5-5 5-16-2-20-9-6-21-1-24 9z"/><path d="M304 125c-3-1-1-6 2-6l7 1v4l-9 1zM316 120c1-2 6 1 4 4-1 2-4 2-6 0l2-4zM147 122c2 0 5 0 5 3-1 3-4 3-6 3-1-2 0-4 1-6z"/></g><g fill="#e3b99c"><path d="M326 111c9 8 9 22 2 31a157 157 0 00-47-2c-3-6-2-12-1-18-1 4 0 8 4 11 6 4 15 4 22 2 6 2 13 4 18 0 4-3 4-9 4-13 1-4-1-8-2-11zM173 113c6 2 10 8 11 14 0 9-1 18-7 24l-33-4h-14c-2-2-2-5-3-8l8 4c10 2 19 2 29 2 4 1 8 0 12-2 3-4 4-9 3-14 0-6-3-11-6-16z"/></g><g fill="#480101"><path d="M306 119c2-2 3-4 6-5 4 0 7 1 10 3 4 4 4 10 1 14-1 3-4 3-7 3s-7 0-10-2c-2-2-2-5-2-7l9-1v-4l-7-1m10 1l-2 4c2 2 5 2 6 0 2-3-3-6-4-4zM146 116c6-1 13 3 14 9 0 4-2 9-6 10-4 2-8 3-13 2-3-2-5-6-6-9 3 0 11 1 10-5-2-3-6-1-8-2 3-2 5-4 9-5m1 6c-1 2-2 4-1 6 2 0 5 0 6-3 0-3-3-3-5-3z"/></g><g fill="#960800"><path d="M128 260h16c2 1 4 3 5 6 3 5 2 11 4 16s5 9 9 12l9 11c0 6 1 12-3 17-4 7-11 10-19 11-6 0-13 0-19-2-7-1-12-5-17-9-7-4-8-12-10-19v-18c2-5 4-12 10-16 4-4 9-8 15-9m-4 25c-4 1-9 5-10 9-1 5 1 10 6 11h11c6 0 10-9 6-14-3-4-8-7-13-6zM294 267l11 2 20 1c5 0 10-1 15 2 5 2 10 5 12 11 4 5 3 11 3 17 0 11-7 21-15 28-6 4-13 7-20 7s-16 1-22-4c-7-5-14-9-19-16-2-3-2-7-2-11 0-5 0-11 2-16 2-4 2-9 5-13l10-8m10 20c-5 1-10 6-9 11 0 4 3 8 7 8h12c5-1 8-8 5-13-3-4-9-7-15-6zM422 281l1 2 2 1 11 4c9 0 17 3 24 7 6 2 10 8 13 14 3 5 5 10 5 16-1 3-4 5-7 6-4-2-7-6-10-9l-12-9c-6-3-13-3-20-3l7 10 10 4c0 3 0 7-2 9-4 3-9 3-14 3l-5-2-2-1 2-2c5 2 10 3 15 1 2-1 3-4 4-6-4-1-7-2-10-5l-7-8v-6h5c5 0 11 1 16 3 6 2 12 7 17 12l6 5c3 1 4-4 3-6-2-9-6-19-15-24l-24-6c-6-1-11-4-15-8l2-2zM421 336l2-1h1c0 5 1 11 5 14 8 6 19 7 29 9 4 2 2 8-1 10-3 3-8 3-12 3h-4c-15 2-31-7-36-21l-1-5 4 5c3 6 7 11 13 14 5 3 11 4 17 4 7 1 16 1 20-6-10-4-23-4-31-12-4-3-6-9-6-14z"/></g><path fill="#f83124" d="M227 265c8-1 17 1 21 7 3 6 6 12 6 19v5c-7 0-15-2-23 1-4 3-9 7-10 12 0 5 3 11 9 13l19 2c-1 7-7 10-13 12-7 3-15-2-19-8-4-4-5-10-6-15-3-12-3-25 2-36 3-5 8-10 14-12z"/><path fill="#ce0702" d="M254 291c1 11 2 23-5 33l-19-2c-6-2-9-8-9-13 1-5 6-9 10-12 8-3 16-1 23-1v-5z"/></svg>