<svg width="683" height="683" viewBox="0 0 512 512" xmlns="http://www.w3.org/2000/svg"><g fill="#ff5549"><path d="M342 19c1-1 2-2 3-1l-3 1zM338 19h2l-2 1v-1zM356 19c1-1 2 0 3 1l-3-1zM177 21c1-1 2-2 3-1l-3 1zM200 20c1-1 2 0 3 1l-3-1zM361 20h2v1l-2-1zM173 22c1-1 2-2 3-1l-3 1zM204 21c1-1 2 0 3 1l-3-1zM165 24h2l-2 1v-1zM91 29c1-1 2-2 3-1l-3 1zM343 58c2-11 15-19 25-16l-4 1 6 7c2 3 2 5 2 7l-8 1h-21zM171 49c5-6 14-6 21-6 4 1 9 4 9 9-1 2-4 2-6 2-8-1-16-1-23-3l-1-2zM231 43h1v2l-1-2zM400 45c0-2 3-2 4-1l-4 1zM436 44h2v1l-2-1zM315 45h1v13h-1V45zM116 46v1c0 4 4 7 4 11-7 6-18 6-24 14 0-5 0-12 4-16 4-5 10-8 16-10zM61 64c-1-1-1-4 1-4l-1 4zM316 61l1 3c-1-1-2-2-1-3zM317 65l1 2h-1v-2zM465 68h1v2l-1-2zM416 70c6-2 13 0 18 2 4 3 7 6 8 11 0 2-2 4-4 5-4-3-10-4-13-8l-7-5c-2-1-2-3-2-5zM62 77l1 2h-1v-2zM63 80l1 2h-1v-2zM96 108l2 1h-2v-1zM104 110l2 1h-2v-1zM343 119c-1-2 0-2 1-3l-1 3zM425 122l2-1v1h-2zM420 123l3-1c-1 1-2 2-3 1zM190 134c2 1 1 5 1 7l-1-7zM191 143c2 0 1 4 1 5l-1-5zM298 181c3-2 5-1 8 0h-8zM95 272c5 0 10 2 13 5 2 4 3 8 1 11-2 5-7 9-12 11s-12 2-16-3c-4-3-3-8-1-12 1-4 4-6 7-9l8-3zM360 282c5-1 9 2 13 4 3 4 4 11 0 15-3 5-9 9-15 8-6 0-11-5-11-11-1-8 6-14 13-16zM242 326c2-3 6-2 9-2l3 5c-2 1-4 3-7 3s-6-3-5-6zM226 466c1 1 2 2 1 3l-1-3z"/></g><g fill="#8e0101"><path d="M345 18h6l3 1a141 141 0 017 1l2 1 4 1 1 1a72 72 0 0110 5l3 2 1 1 5 4c1 2 2 4 4 4l1 1 5 5h3l4-1h4a213 213 0 0128 0l2 1 5 1 1 1a44 44 0 016 3l2 1 1 1a63 63 0 019 9l1 2 1 2 1 3 1 2v19l-1 3v1l-1 1v1l-1 2v1l-1 1-3 5-7 7-5 3-1 1h-1l-1 1-15 5h-2l-2 1h-2l-3 1h-1l-3 1h-6c-2 0-4-1-6 1l-3 2-1 1-4 3-1 1-3 2-2 2-4 3-1 1-5 4-1 1-5 4-2 2c-3 3-6 7-10 9l-2 2c-1 3-4 5-6 7l-2 2-3 4-1 1-6 7v1l-3 4-8 13-4 5-3 5-4 7-7 12c-2 2-4 4-6 4l7-14 12-17c8-13 16-26 26-38l32-29c4-3 9-6 12-10l-22 3c-3 0-6 0-8-2-6-5-11-12-18-16l-2-4-3-3c0-2-1-3-3-3l-4-5-1-1-2-3-1-1-2-3-1-1-1-2-1-1-1-2-1-1-1-2-1-1-1-2-1-1v-1l-1-1v-1l-1-1v-1l-1-1v-2l-1-2v-1l-1-3v-3-14l1-4c0-3 2-5 3-7l1-1a31 31 0 016-6l3-2a268 268 0 008-4l2-1a136 136 0 005-1m4 4c-5 1-10 2-14 6l-11 10c-4 7-4 15-3 23 2 10 8 19 13 28l32 34c2 2 5 3 8 2 9 0 19-3 28-4l15-2c9-2 17-4 25-8 6-3 12-8 16-14 5-9 5-20 2-29-1-4-4-7-7-10-4-4-9-8-15-10l-15-2-14 1h-14l-13-12c-9-7-21-13-33-13zM187 19h5l6 1a188 188 0 005 1h1l3 1h1l4 2h2l3 2 1 1 2 1 1 1c3 2 6 5 8 9l1 1 1 4 1 2v1l1 6v5l-1 6v2l-1 2-2 4-1 3-1 2-1 1-2 3-2 2-8 8-2 2-3 2-1 1-3 2-1 1-3 2-1 1-3 2-1 1-3 2-1 1-2 1-1 7 1 17v2l1 7v2l1 5v2l1 3v2l1 3a101 101 0 004 16l1 4 1 4 2 5 3 10v5l-3-6c-7-17-12-35-14-54-2-10-2-20-2-30-6 4-11 10-18 13-5 3-11 0-16-2-10-2-19-6-28-7l18 16c12 10 21 21 29 34s16 26 20 40l6 23v3l-8-24-2-3-5-13-2-4a88 88 0 01-4-9 373 373 0 00-10-15l-2-4-1-1-2-3-1-1-3-4-2-2c-5-4-8-10-14-13l-25-22-1-1h-1l-2-1a142 142 0 01-4-1h-2l-2-1h-3l-2-1h-1l-2-1a148 148 0 00-4-1c-3 0-6-3-9-4l-1-1-2-1-1-1a362 362 0 00-3-2l-8-8-1-1c-1-2-3-4-3-7l-1-2v-1l-1-2v-2l-1-3v-8l1-4a153 153 0 011-4l1-3c2-1 2-2 2-4l2-4 2-2c1-3 4-4 6-6l1-1 5-3 1-1 3-1 4-2h1l3-1h2l7-1h3l9 1h3l2 1h2l2 1h2l1 1h2l5 3 1 1 4 2 2 2 2 2h1l5-5 1-1 6-5 1-1 2-1 1-1 5-2a156 156 0 007-3h1l3-1h1l3-1a153 153 0 007-1m-21 10c-9 2-15 10-21 16-8-4-14-11-24-12-11-2-22-1-32 4-6 3-12 7-16 13-6 8-8 20-5 30 4 10 13 16 21 22 10 4 21 6 31 9l28 8c6 1 13 4 19 3 9-6 17-14 27-20 10-9 23-16 29-28 5-10 7-24 1-34-5-9-16-12-25-15-11-2-23 0-33 4zM82 247c12-5 26-7 40-4l11 3c11 4 20 12 29 21 5 6 9 14 10 22 2 9 2 19 0 29-3 9-8 18-14 26l-6 5-12 7-4 2-15 4h-12l-16-2-4-1h-1l-4-2-1-1-5-2-2-1-2-1-6-4c-5-4-9-8-12-14a73 73 0 01-9-36c0-8 2-17 6-24l3-5v-1l4-5c2 0 4-2 3-4l2-2 2-2 15-8m22 12c-10 1-21 5-29 13-7 8-10 20-7 30 3 7 8 12 14 16 8 5 17 4 26 3s17-5 23-12c7-6 11-15 9-24 0-10-6-18-14-23-7-3-14-4-22-3m46 1c0 3 2 6 4 8 4 9 8 19 6 29 0 7-2 13-5 19-2 5-7 8-10 12-5 6-12 10-19 12-14 6-30 6-44 0l-9-5c-8-5-14-13-17-21l-2-22 3-11c0-3 3-7 1-10-6 7-8 17-8 27-1 7 0 15 3 21 2 8 6 15 11 21 6 8 16 12 25 16 13 3 26 5 40 2 7-2 13-7 20-10 11-8 18-21 21-35 1-10 2-20-1-30-4-10-11-17-19-23zM370 258l4-1h10l7 1a72 72 0 0114 5c4 1 8 3 11 6h-6c-13-9-31-12-46-6l27 3c3 0 6 2 8 4 6 3 13 6 17 12 8 7 10 19 9 29-1 4-4 7-8 9s-9 0-13 0c-6-1-13 2-19 3-11 4-17 14-27 19-8 2-17 1-22-5-4-3-6-8-7-13-2-9 0-20 2-29 1-4 1-7-1-10 6-10 14-17 23-22l5-2 12-3m-1 17c-6 1-12 3-17 7-7 4-12 11-14 18 0 6 2 12 5 17 6 5 14 7 21 6 10-1 19-4 27-9 8-4 13-12 13-21 0-6-4-11-9-14-7-6-17-6-26-4zM238 309c7-3 11-9 17-14 6 8 12 15 22 18 7 2 15 0 21-5 4-2 6-6 10-7l-11 12c-3 3-8 2-10 6l-14 17c-5 4-9 9-15 11-5 2-10 1-13-2-9-8-17-18-24-28-1-2-3-3-6-3-7-2-11-9-13-16l8 9c8 6 19 5 28 2m1 3l-14 4a240 240 0 0018 23c3 2 5 5 9 5 6 1 11-3 15-7s9-7 11-13l5-7c-5-1-11-2-15-5-6-2-9-8-14-11-5 3-9 8-15 11zM276 449c21-4 41-13 59-25v3l-9 7c4 0 8-3 10-6l2 2c-2 3-5 5-9 6s-9 0-12 2l-16 8c7 5 16 6 24 6h6c-6 2-12 1-18 2-4 0-7-1-10-3l-1-1-6-3-2 1h-2l-2 1h-2l-2 1 1 1c5 1 9 5 10 10v2c1 2-1 4-3 3l-2 1h-17l-2-1a307 307 0 00-7-1l-2-1h-1l-2-1h-1l-2-1-5-2-4-3h4c10 4 20 7 31 7 3 1 7 0 10-1-1-7-8-9-13-11l-5-3zM111 430l16 7 13 5 1 2-6-1v3c-1 8-10 12-15 18 3 2 5 4 8 4 5 0 10-1 14-4 6-3 8-9 12-14l1-2v5c3 4 8 7 12 10 2 1 5 3 7 1 3-1 2-5 2-8v-3l2 1h1v10l-1 1c-2 4-9 4-12 1l-1-1-2-1-1-1-8-6-7 8-1 1c-3 2-6 4-10 4l-2 1h-8l-4-1-1-1-3-2v-2-4c1 0 2 0 2-2l3-2 1-1 1-1c2-1 2-1 0-2l-8-8-1-1c-2-3-4-6-4-10 0-2-2-3-3-2l2-2m5 6c2 7 7 11 12 16 3-2 5-6 5-10-6-1-11-4-17-6zM192 454c2-2 5-2 8-2l13 1c2 1 5 2 8 1h22l-2 2h-17v1c1 3 3 6 2 9l1 3v9l-1 2v4l-1 1-1 2c0 3-3 4-4 6a279 279 0 00-8 0l-2-1-1-1-1-11v-2l-1-3v-1l-1-2v-1c0-2-1-4-3-5l-2-4-1-1-2-4-1-2h-1l-3-1h-1m9 1c3 7 8 13 10 20l1 14c1 2 3 1 5 1 4-1 5-6 6-10 2-8 0-16-3-23-6-2-13-1-19-2z"/></g><g fill="#fdb05a"><path d="M351 18c1-1 2-1 3 1l-3-1zM170 22h2l-2 1v-1zM367 22l1 1-1-1zM213 24h0zM159 28zM118 28h2v1l-2-1zM220 28l1 1-1-1zM122 29h2v1l-2-1zM156 30l1-1-1 1zM381 30zM128 31h0zM82 33l1-1-1 1zM76 37l1-1-1 1zM143 41h1-1zM443 46l1 1-1-1zM449 49zM452 51l1 1-1-1zM62 56h1a441 441 0 01-1 0zM231 67l1-2v2h-1zM319 71l1 1-1-1zM61 72l1 3c-1-1-2-2-1-3zM320 73l1 1-1-1zM323 78l1 1-1-1zM325 81zM327 84l1 1-1-1zM465 92l1-3c1 2 0 3-1 3zM332 91zM464 94l1-1-1 1zM208 95l1-1-1 1zM463 97l1-2v2h-1zM204 98l1-1-1 1zM79 100l1 1-1-1zM200 101l1-1-1 1zM82 102l1 1-1-1zM196 104zM192 107l1-1-1 1zM92 107l2 1h-2v-1zM405 110l16-3c-1 2-3 3-5 3-6 2-13 3-19 2 2-2 5-2 8-2zM99 109a427 427 0 000 1v-1zM108 111l2 1h-2v-1zM112 112l2 1h-2v-1zM344 112h1l-1 2v-2zM115 113zM446 115l1-1-1 1zM444 116l1-1-1 1zM345 123c6 0 10 5 12 10 2 4 1 8 0 11-2 10-8 18-13 26l-17 24c-5 9-11 17-13 26l-7 14-37 23-16 8c-7 3-14 5-21 2-4-2-3-7-4-11v10c3 4 8 5 13 5 6 0 12-3 18-5 5 0 9-2 13-4 11-7 21-14 33-19 7-3 13-7 21-8 8-2 18-3 26 0 4 2 7 5 12 5l4 7-6 2-10-7c-9-3-19-2-29 0-4 1-7 4-10 6l-13 7c-13 10-26 20-40 27-14 6-29 7-43 2-6-4-11-10-12-17-2-7 1-14 3-20-9 11-7 29 4 38 7 6 17 10 27 9 11-2 23-5 33-11 12-6 23-14 34-21 9-6 17-12 28-13 5-1 11-1 15 3 3 3 3 7 3 11-9 5-17 12-23 22-4 7-7 15-8 23-2 7-1 14-1 21-2 3-6 6-7 10-2 4-2 10-7 13-11 7-21 17-27 30l-5 14c-6 3-11 7-18 8-5 0-9-4-8-9 0-3 3-5 5-6 8-2 16-5 23-11 5-5 9-10 12-16 5-11 6-23 11-34 3-4 7-8 9-13-5 4-9 10-12 15-4 8-5 17-9 25-5 4-7 10-12 14-4 5-10 9-17 10l-3-2 3-4c-5 2-8 6-12 10-3 2-5 5-6 8-4 9 0 19-3 28l-3 5h-8v-1l-1-16c1-12 4-24 10-35h-2l8-13c-7 4-10 12-15 18l1-19c-2 5-2 11-3 16l-8 18c-5 3-8 10-15 11-4 0-5-5-7-8 6-6 11-11 13-19 3-9 3-18 3-28h-2c1 8-1 16-3 24-1 2-3 4-6 4-2-4-3-9-3-14l5-16 9-16c-4 3-6 8-9 12l-8 16c-6 11-7 25-5 37 1 8 5 16 4 25-3 2-7 1-10 1l-2-3c1-3 0-6-1-8-5-17-6-36 1-52 2-7 4-14 3-21 5-13 3-27 1-41l-2-5c1 12 3 23 1 35l-4 15-4 5c-9 8-20 13-28 22l1-5c3-6 7-12 9-19 6-8 11-17 14-26 2-10 2-20 0-29-1-8-5-16-10-22l1-1c6 4 14 6 21 5-6-2-13-3-18-8-8-5-8-14-11-22-2-7-4-15-9-21-7-6-16-6-25-6-8 2-14 7-20 12l-13 5-4-1c2-5 4-11 9-15 6-2 11-7 17-9s11-2 17-2c11 0 23 4 30 12l11 16v-2c3 7 2 17 9 22 5 2 11 1 16-1-5-1-11 1-14-3-5-4-5-10-7-15-1-8-6-15-10-21-6-8-16-13-25-16-13-1-27 1-38 8l-11 5c3-5 6-10 11-14 5 0 9-3 14-3 8-2 16-3 24 0 7 1 14 4 19 8 5 2 8 7 12 10v-2c4 6 6 14 10 21l10 7c-4-5-9-11-11-17l1-4 11-7 8 24v-3-5c-3-16-7-33-14-48-5-9-9-18-16-26-4-7-9-14-17-17 7 2 15 0 22 1 6 3 9 9 11 15 3 12 7 23 12 34l7 13a191 191 0 018 15l-3-10c9-2 18-1 26-1-3 3-7 6-9 10-3 8-4 17 0 24 3 7 11 12 18 14 9 1 19 2 27-2s15-9 19-17l19-30a344 344 0 0032-51l8-22-2-2v-1M238 309c-9 3-20 4-28-2l-8-9c2 7 6 14 13 16 3 0 5 1 6 3 7 10 15 20 24 28 3 3 8 4 13 2 6-2 10-7 15-11l14-17c2-4 7-3 10-6l11-12c-4 1-6 5-10 7-6 5-14 7-21 5-10-3-16-10-22-18-6 5-10 11-17 14zM416 124l3-1c-1 1-2 2-3 1zM404 125c2-2 4-1 6-1-1 2-4 1-6 1zM400 128l1-1-1 1zM395 132z"/><path d="M235 136c3 1 7-1 10 1h-10v-1zM336 138h1l-1 2v-2zM225 144c10-2 22-2 32 4 5 3 9 7 14 8l3 3-6 7c-2 2-4 1-6 2-4-5-8-10-14-12-3-2-8-2-12-2-6 0-14 1-18-5l7-5zM334 143h1l-1 2v-2zM192 150c1 1 2 2 1 3l-1-3z"/><path d="M236 158c1-2 2-2 3-1l-3 1zM241 157c1-1 4-1 4 1l-4-1zM294 159h2l-2 1v-1zM306 159c1-1 4-1 4 1l-4-1zM289 161c1-2 2-2 3-1l-3 1zM205 164c3-3 7-2 11-2 1 1 1 2 3 2 10 5 21 9 31 15 4 2 7 6 12 6-2 5-5 9-6 14-5-4-9-9-15-12a77 77 0 00-38-14c0-3 0-7 2-9zM295 163h13c2 2 5 4 4 7-2 3-4 7-8 7-7 0-14 3-18 8-8 9-12 20-16 31-1 5-5 10-10 12-4 2-9 2-14 0-3-1-4-6-3-9 1-2 4-3 6-4l-2 4c5-3 9-7 11-13v2l11-21c4-5 8-11 13-15 7-5 15-8 23-9h-10zM162 170l2-1 4 1c2 2 1 5-1 7-3 5-8 8-13 12l-7-4c6-3 12-9 15-15zM348 176l1-1-1 1zM204 177c2 0 2 4 0 4v-4zM307 181l3 1c-1 1-2 0-3-1zM122 182h14v1h-14v-1zM116 184c0-2 3-2 4-1l-4 1zM342 184v-1 1zM112 185c1-2 2-2 3-1l-3 1zM312 186zM352 186c0-2 4-1 6-1l-6 1zM372 185c1-1 4-1 4 1l-4-1zM345 187c0-2 3-2 4-1-1 1-3 2-4 1zM378 186c1-1 2 0 3 1l-3-1z"/><path d="M291 187l1 3c-1-1-2-2-1-3zM347 190l13-2-3 2 18 2 14 2c3 1 4 3 5 4-15-4-31 0-47-4v-4zM292 191l1 3c-1-1-2-2-1-3zM293 195l1 3-1-3zM303 200zM233 206c4-4 10-7 16-6 2 0 4 2 5 4 0 2 0 5-2 6-3 2-7 2-9 5-3 2-5 7-3 10 1 5 6 7 10 7 5 1 10 1 14-2 7-4 9-12 15-17l5 4v10c-4 9-13 15-22 18-8 1-15 1-22-2-8-2-14-9-15-17-1-7 2-16 8-20zM295 202l4 1c-1 1-3 1-4-1zM370 207c5-1 10 1 14 2 6 1 12 2 16 7 6 5 13 12 15 20s2 16-1 23c-2 4-7 0-9-2-1-8-1-16-5-23-4-5-9-8-15-10-5-3-11-2-16-5l-14-7c4-3 10-4 15-5zM406 208h1v2l-1-2zM326 217c7-3 15-5 22-3h-7c15 3 30 11 40 24l3 2 1 2c0 2 0 4-2 5-1 1-4 2-6 1-4-3-5-8-7-12-5-8-15-14-25-15-8 0-15 2-22 3 0-3 1-5 3-7zM81 214h1l-1 2v-2zM78 218h2l-2 1v-1zM70 221c1-2 2-2 3-1l-3 1zM63 225h2c2 0 5 1 6 3 0 3-1 5-3 7-6 5-13 10-18 17-3 7-2 14-2 21-1 5-3 11-8 13l-2-6c1-6 0-13 2-19 0-8 4-15 8-21s10-9 15-13v-2zM54 226zM437 226h14v1h-14v-1zM453 227c1-1 2 0 3 1l-3-1zM92 241c13-7 28-8 41-13 2 1 4 3 3 6l-6 8-8 1c-14-3-28-1-40 4 2-3 6-4 10-6zM458 235c1-2 4-1 6-1l4 2c7 6 14 13 18 22l5 18-2 5-4-3c-2-2-3-4-3-7-2-6-6-12-10-17-4-4-9-7-12-12-2-2-3-4-2-7zM428 239c3-3 9-3 12 1 9 8 16 19 19 31 1 7 2 16-2 22-1 3-5 2-7 1-3-1-4-4-4-6 0-9-1-17-5-25-3-5-8-9-13-13-1-3-3-8 0-11zM71 243l2-1-2 1zM56 269v-8 8zM462 263c1 1 2 1 1 3l-1-3zM423 268c0-1-1-3 1-4 1 1 0 3-1 4zM495 266h1v8h-1v-8zM474 267l1 2h-1v-2zM422 273l1-3v4l-1-1zM475 270v0zM464 271c2 0 2 3 1 4l-1-4z"/><path d="M442 277c2 4 2 8 0 12v-12zM465 278h1v13h-1v-13zM474 279h1l-1 2v-2zM430 283l1 1-1-1zM473 288c-2 0-2-3 0-3v3zM432 286zM38 288l1 4c-2 0-3-3-1-4zM478 291h3c0 2-3 2-3 0zM464 296l1-3c1 1 1 2-1 3zM463 300l1-2v2h-1zM460 309l1-2v2h-1zM450 319c4-2 8 2 11 5 7 7 12 16 14 26 2 12 0 24-5 35-3 7-6 14-11 19-6 7-12 15-20 19-11 8-26 13-40 13-10 0-20-5-25-13-7-9-8-20-7-30l12-20 8-6 17-13 14-8c-1 6-6 8-10 12-8 9-16 17-21 28-3 5-4 12-4 18 0 7 6 13 13 14 4 1 8 0 12-1h3c6 1 13-2 19-4 12-5 20-15 27-26 4-9 7-19 7-29-1-7-3-15-8-21-1-2-3-4-5-4l-5-6c0-3 0-7 4-8zM40 320h1v7h-8c1-2 5-1 7-1v-6zM28 328c1-1 2-2 3-1l-3 1zM25 328h2l-2 1v-1zM404 330c4-1 7 4 5 7-3 4-8 6-13 8-8 5-16 12-22 20l-13 18c-3 8-9 14-14 20-5 7-12 12-18 17-19 14-43 23-67 24a305 305 0 01-101-4c-12-3-24-5-35-11-13-5-25-13-36-21-8-6-15-13-22-21s-12-18-16-28l-2-11c0-2 3-2 5-2 6 1 11 5 15 9l3 7 1 9c3 6 6 13 11 18 13 16 32 26 51 33a262 262 0 00159 6c19-5 36-16 48-31 7-7 13-16 17-25 5-9 12-17 19-24 6-6 13-12 21-15 2 0 3-2 4-3zM479 338h1v2l-1-2z"/><path d="M318 347l7-4 2 1 4 6-2 5-23 20c-6 6-10 13-13 21-2 5-1 11-4 16-2 2-5 3-8 3l-2-5 2 1a76 76 0 0135-60l2-4zM25 345l2 1h-2v-1zM443 363c0-5-1-11 1-15 0 5 1 10-1 15zM76 353l2 1-2-1zM423 360l5-7c3 0 6 0 7 3 1 9-2 18-6 25-3 7-8 11-13 15-5 3-10 7-16 7-3 1-4-3-5-6 11-5 21-14 26-25l2-12zM83 356l1 1-1-1zM88 359h0zM121 362l15-4c0 4-4 8-6 12-3 8-5 17-9 24-1 3-5 5-8 3l-4-8 1-4v3l13-26h-2zM45 359l1 2h-1v-2zM163 364l9-6-3 12-1 7-13 11-7 14-3 6c-2 0-4 0-5-2-2-3-2-7-2-11l1-4c3-2 5-5 6-8 5-7 12-13 18-19zM333 361h1c3 1 5 3 6 6 2 4 0 9-3 13l-1-3-3-16zM46 362l1 2h-1v-2zM317 374l13-10c2 6 4 13 3 20l-12 6-1-2-3-14zM442 368c-1-1-1-4 1-4l-1 4zM47 365l1 2h-1v-2zM481 379l1-3c1 1 0 2-1 3zM441 378l1 3c-2-1-2-2-1-3zM167 383c3 4 2 9 2 13l-1-12-1-1zM169 396c2 0 2 3 0 4v-4z"/><path d="M300 401c-1-1-1-5 1-5l-1 5zM261 410c1-2 2-2 3-1l-3 1zM258 410h2l-2 1v-1zM402 414h6c-1 2-5 2-6 0zM209 417h2l-2 1v-1zM80 420l1-2v2h-1zM278 418c2 1 2 2 1 3l-1-3zM222 420h1v2l-1-2zM79 425l1-3c1 1 0 2-1 3zM277 423l2-1-1 1h-1zM270 425l6-2c0 2-4 3-6 2zM361 425l1-2v2h-1zM265 426l3-1c-1 2-2 2-3 1zM78 430l1-3c1 1 0 2-1 3zM359 430l1-2v2h-1zM360 435c-1-1-1-4 1-4l-1 4zM357 434l1-2v2h-1zM417 442l2-1v1h-2zM384 442l4 1c-1 1-4 1-4-1zM390 443h18v1h-14l-4-1zM362 446zM294 448l2-1v1h-2zM290 449l2-1v1h-2zM286 450l2-1-1 2-1-1zM178 453c1-2 3-1 4-1-1 1-2 2-4 1zM336 453l2-1v1h-2zM125 453c2 1 2 1 0 2v-2zM185 453l5 1c-1 1-5 1-5-1zM333 454l2-1v1h-2zM193 454l3 1c-1 1-2 0-3-1zM224 456h18v1h-18v-1zM179 457c2 1 2 5 0 6v-6zM118 461l2-2c0 2-1 2-2 2zM118 465c-2 0-2-3 0-3v3zM258 462l2 1h-2v-1zM261 463l2 1h-2v-1zM264 464l2 1h-2v-1zM268 465l2 1h-2v-1zM273 466l2 1h-2v-1zM292 467l2-1v1h-2zM134 471l2-1v1h-2zM126 471h4c0 2-4 2-4 0zM206 472l1 2h-1v-2zM207 475l1 3c-1-1-2-2-1-3zM226 480l1-2v2h-1zM224 487l1-2v2h-1zM212 493h5c0 2-5 2-5 0z"/></g><g fill="#ffc1b7"><path d="M182 20c0-2 4-2 5-1l-5 1zM192 19c2 0 6-1 6 1l-6-1zM208 22c1-1 4 1 4 2l-4-2zM330 23h2l-2 1v-1zM217 26l1 1-1-1zM326 27zM96 28c1-2 5-1 7-1l-7 1zM106 27c3 0 7-1 9 1l-9-1zM377 27zM86 31c0-2 3-3 4-2l-4 2zM126 30zM341 33c6-2 14-3 20 1 5 2 9 6 13 10l-6-2c-10-3-23 5-25 16 0 6 2 12 5 18h-2c-5-4-11-8-14-14-2-5-4-12-2-17 1-6 6-10 11-12zM320 33l1-1-1 1zM134 34l1 1-1-1zM149 36l1-1-1 1zM387 35c1 0 4 2 4 4-2 0-3-2-4-4zM168 38c6-3 14-4 20 0l-1 2c-8 0-15 1-22 5l-5 2c0-5 5-7 8-9zM139 37c1 0 2 0 2 2l-2-2zM192 39h7l5 4v3c-4-2-9-3-12-7zM229 38l1 1-1-1zM316 44c-1-1-1-4 1-4l-1 4zM392 40l5 5-5-5zM68 45c0-1 0-2 2-2l-2 2zM408 44l4-1h20v1h-24zM90 48c7-5 17-3 25-3l1 1c-6 2-12 5-16 10-4 4-4 11-4 16 2 5 6 10 10 12l5 4c-10 1-20-2-27-9-4-3-6-8-6-13 0-8 6-14 12-18zM232 46c2 0 1 4 1 6l-1-6zM64 53c-1-1 1-4 2-4 0 2 0 3-2 4zM232 63l1-6c0 2 1 6-1 6zM410 59c3-3 8-2 12-1 7 0 13 3 16 9v3c-7-4-14-8-21-9l-7-2zM461 60zM463 63h1v2l-1-2zM318 69l1 1-1-1zM228 74l1-3c2 1 0 3-1 3zM441 72c6 0 9 7 7 12-3-4-6-7-7-12zM466 72c2 2 1 5 1 7 0 3 1 6-1 8V72zM321 75l1 1-1-1zM226 77l1-1-1 1zM222 82l2-2c0 1 0 2-2 2zM189 88l9-7-2 4c-5 5-12 10-19 11l12-8zM350 82l3 2 7 10c-5-1-10-7-10-12zM329 87zM67 89l1 1-1-1zM212 92l2-2c0 2-1 2-2 2zM116 91c4 0 7 2 10 3l5 2c-5 1-12 1-15-5zM335 95l1 1-1-1zM76 98zM462 99l1-1-1 1zM340 101c2 0 3 1 3 3-1 0-4-2-3-3zM452 111l7-7-7 7zM189 115l1-7v24l-1-17zM429 121l15-5-9 3-6 2zM340 128c0-1 0-5 2-5 1 2 0 4-2 5zM390 136l2-2c0 2-1 2-2 2zM385 140l1-1-1 1zM379 145zM155 149l2 2c-2 0-2-1-2-2zM372 151l2-2c0 2-1 2-2 2zM330 154c-1-1 1-4 2-4l-2 4zM160 155l1 1-1-1zM193 155l1 2c6 0 11 1 16-1l-1 2h-15l-1-3zM163 159l1 1-1-1zM312 160c2-1 6 0 6 2l-6-2zM360 162l2-2-2 2zM352 171l2-2c0 1 0 2-2 2zM362 185c1-2 6-2 7 0h-7zM103 189c1-2 4-3 6-3l-6 3zM56 226c0-2 3-3 5-2-1 2-3 2-5 2zM431 227h3c-1 2-2 2-3 0zM458 228c2-1 6 0 6 2l-6-2zM458 254c2 0 4 0 5 2l-4-1 1 3-2-4zM465 257l1 1-1-1zM33 271c-2-1-2-6 0-7v7zM427 279l2 2-2-2zM41 296c2 4 0 9 0 13v-13zM18 341c-2 0-2-5 0-5v5zM447 340h1l-1 2v-2zM33 346l8 1h-8v-1zM483 351h1v18h-1v-18zM48 368l5 10-5-10zM314 378l1 1v1l-1-2zM55 381l1 2h-1v-2zM315 381c3 6 3 14 1 20l1-5c1-5-1-10-2-15zM442 384c2 1 1 2 0 3v-3zM301 395c-1-1 0-2 1-3l-1 3zM155 404c-1-2 0-6 2-6l-2 6zM275 403l2 11-2-10v-1zM155 418v-13c0 5-2 10 2 14l-2-1zM300 408l2 4 4-1c-1 2-3 2-5 2l-1-5zM246 412l10-1-9 1v3l-1-3zM63 416l1-4c-1 5 0 10 1 15-2-3-2-7-2-11zM212 417c3-2 6-1 10-2v4l-1-3-9 1zM88 418zM362 422c0-1 0-3 2-3 1 1 2 2 1 4-1 0-2-2-3-1zM92 421l1 1-1-1zM225 427h1l-6 1-11-1h16zM326 434l9-7 1 1c-2 3-6 6-10 6zM109 432c1-1 3 0 3 2l-3-2zM72 434h3c1 2-3 2-3 0zM353 441l1-1-1 1zM116 444l1 1-1-1zM302 450zM197 455l1 2h-1v-2zM123 457l1-1-1 1zM247 457h2l4 3-6-3zM200 461l1 1-1-1zM297 461h1v2h-1v-2zM162 463l1 1-1-1zM178 465l1-1-1 1zM146 466zM165 465l1 1-1-1zM203 466c2 1 3 3 3 5-2 0-3-4-3-5zM280 467h8v1h-8v-1zM121 469zM208 480l1 11c-2-4-1-8-1-11zM209 491l1 1-1-1z"/></g><g fill="#f40d02"><path d="M349 22c12 0 24 6 33 13l13 12h14l14-1 15 2c6 2 11 6 15 10 3 3 6 6 7 10 3 9 3 20-2 29-4 6-10 11-16 14-8 4-16 6-25 8l-15 2c-9 1-19 4-28 4-3 1-6 0-8-2l-32-34c-5-9-11-18-13-28-1-8-1-16 3-23l11-10c4-4 9-5 14-6m-8 11c-5 2-10 6-11 12-2 5 0 12 2 17 3 6 9 10 14 14 2 2 4-1 5-2 4-2 9 0 13-2l10-4c4-2 8-5 7-10s-5-9-6-14h-1c-4-4-8-8-13-10-6-4-14-3-20-1m69 26l7 2c-3 5-10 5-13 9-1 5 1 11 5 14l7 7c7 3 13 7 21 6 5-2 7-9 11-13 2-5-1-12-7-12l-3-5c-3-6-9-9-16-9-4-1-9-2-12 1m-60 23c0 5 5 11 10 12l-7-10-3-2m55 28c-3 0-6 0-8 2 6 1 13 0 19-2 2 0 4-1 5-3l-16 3zM166 29c10-4 22-6 33-4 9 3 20 6 25 15 6 10 4 24-1 34-6 12-19 19-29 28-10 6-18 14-27 20-6 1-13-2-19-3l-28-8c-10-3-21-5-31-9-8-6-17-12-21-22-3-10-1-22 5-30 4-6 10-10 16-13 10-5 21-6 32-4 10 1 16 8 24 12 6-6 12-14 21-16m2 9c-3 2-8 4-8 9l5-2c2 3-5 4-4 8 1 3 5 3 7 5 4 1 7 4 11 4l19-1c4-1 8-1 10-5 2-5-3-9-4-13l-5-4h-7l-1 2-3-3c-6-4-14-3-20 0M90 48c-6 4-12 10-12 18 0 5 2 10 6 13 7 7 17 10 27 9l-5-4c1-4 6-5 9-8l11-7 2-12c-1-5-5-8-9-11l-4-1c-8 0-18-2-25 3m99 40l-12 8c7-1 14-6 19-11l2-4-9 7m-73 3c3 6 10 6 15 5l-5-2c-3-1-6-3-10-3z"/></g><g fill="#fa3022"><path d="M188 38l3 3 1-2c3 4 8 5 12 7v-3c1 4 6 8 4 13-2 4-6 4-10 5l-19 1c-4 0-7-3-11-4-2-2-6-2-7-5-1-4 6-5 4-8 7-4 14-5 22-5l1-2m-17 11l1 2c7 2 15 2 23 3 2 0 5 0 6-2 0-5-5-8-9-9-7 0-16 0-21 6zM364 43l4-1 6 2h1c1 5 5 9 6 14s-3 8-7 10l-10 4c-4 2-9 0-13 2-1 1-3 4-5 2h2c-3-6-5-12-5-18h21l8-1c0-2 0-4-2-7l-6-7zM115 45l4 1c4 3 8 6 9 11l-2 12-11 7c-3 3-8 4-9 8-4-2-8-7-10-12 6-8 17-8 24-14 0-4-4-7-4-11v-1l-1-1zM417 61c7 1 14 5 21 9v-3l3 5c1 5 4 8 7 12-4 4-6 11-11 13-8 1-14-3-21-6l-7-7c-4-3-6-9-5-14 3-4 10-4 13-9m-1 9c0 2 0 4 2 5l7 5c3 4 9 5 13 8 2-1 4-3 4-5-1-5-4-8-8-11-5-2-12-4-18-2zM104 259c8-1 15 0 22 3 8 5 14 13 14 23 2 9-2 18-9 24-6 7-14 11-23 12s-18 2-26-3c-6-4-11-9-14-16-3-10 0-22 7-30 8-8 19-12 29-13m-9 13l-8 3c-3 3-6 5-7 9-2 4-3 9 1 12 4 5 11 5 16 3s10-6 12-11c2-3 1-7-1-11-3-3-8-5-13-5zM369 275c9-2 19-2 26 4 5 3 9 8 9 14 0 9-5 17-13 21-8 5-17 8-27 9-7 1-15-1-21-6-3-5-5-11-5-17 2-7 7-14 14-18 5-4 11-6 17-7m-9 7c-7 2-14 8-13 16 0 6 5 11 11 11 6 1 12-3 15-8 4-4 3-11 0-15-4-2-8-5-13-4zM239 312c6-3 10-8 15-11 5 3 8 9 14 11 4 3 10 4 15 5l-5 7c-15-5-33-8-48 0l-5-8 14-4z"/></g><g fill="#6e0000"><path d="M346 107l2 4-3 12v1c-8 27-22 52-38 75l-19 30c-2-2-1-3-1-5l11-16 4-6 1-2 1-1 8-13 1-1 3-5a188 188 0 009-15l5-11 2-4 2-5a456 456 0 0010-29v-2l1-2 1-5zM364 263c15-6 33-3 46 6h6a766 766 0 0011 10l2 2 1 2 1 1 1 2 1 2 3 2c0 3 0 6 2 8 3 8 3 16 3 25l-1 5v1l-3 9-6 10-9-8-1-7c-1-4-4-7-8-7-17-1-33 8-45 19l-13 18c-1 2-3 2-5 3-4-2-9-4-12-8l-3-3a114 114 0 01-8-11l-3-5-1-5c-2-9-1-18-1-26 1-8 4-16 8-23 2 3 2 6 1 10-2 9-4 20-2 29 1 5 3 10 7 13 5 6 14 7 22 5 10-5 16-15 27-19 6-1 13-4 19-3 4 0 9 2 13 0s7-5 8-9c1-10-1-22-9-29-4-6-11-9-17-12-2-2-5-4-8-4l-27-3zM150 260c8 6 15 13 19 23 3 10 2 20 1 30-3 14-10 27-21 35-7 3-13 8-20 10-14 3-27 1-40-2-9-4-19-8-25-16-5-6-9-13-11-21-3-6-4-14-3-21 0-10 2-20 8-27 2 3-1 7-1 10l-3 11 2 22c3 8 9 16 17 21l9 5c14 6 30 6 44 0 7-2 14-6 19-12 3-4 8-7 10-12 3-6 5-12 5-19 2-10-2-20-6-29-2-2-4-5-4-8z"/></g><g fill="#f48916"><path d="M348 111c7 4 12 11 18 16 2 2 5 2 8 2l22-3c-3 4-8 7-12 10l-32 29c-10 12-18 25-26 38l-12 17c2-9 8-17 13-26l17-24c5-8 11-16 13-26 1-3 2-7 0-11-2-5-6-10-12-10l3-12zM168 125c7-3 12-9 18-13a227 227 0 0016 84l-7-13c-5-11-9-22-12-34-2-6-5-12-11-15-7-1-15 1-22-1l-8-1-18-16c9 1 18 5 28 7 5 2 11 5 16 2zM213 158l5-9c4 6 12 5 18 5-3 1-5 4-7 7l-16-3zM274 159l4 8-11 9-5-8c2-1 4 0 6-2l6-7z"/><path d="M195 162c6-3 14-1 21 0-4 0-8-1-11 2-2 2-2 6-2 9l6 1h-11l-3-12zM308 163c6 1 11 2 15 6l-7 11-12-3c4 0 6-4 8-7 1-3-2-5-4-7zM164 169l4-2 8 12c-7 3-12 8-16 13l-6-3c5-4 10-7 13-12 2-2 3-5 1-7l-4-1zM208 177c5 1 9 1 13 4l-13-1v-3zM204 185c6-2 13-1 20-1 3 1 7 1 10 3 5 2 9 5 13 9-7 2-15 0-23 0l-19 1-3-10 2-2zM282 197c1-3 3-7 6-9 1 5 3 9 3 14-1 1-3 2-5 1s-4-3-4-6zM331 201l8-13c4 7 5 15 5 22l-11 1-2-10zM345 192c-1-2 1-2 2-2v4c16 4 32 0 47 4 5 3 7 8 9 12-9-5-19-9-30-10l-26 2-2-10zM169 202c3-5 8-8 13-10l5 13-12 9-6-12zM279 201l4 4-7 5 3-9zM88 209l11-5-7 7c-4 3-6 8-9 11 1-4 2-9 5-13z"/><path d="M348 206l17-2c14-1 28 3 39 11 6 5 11 12 14 20 5 11 4 24 1 36a766 766 0 01-14-8v-6c2 2 7 6 9 2 3-7 3-15 1-23s-9-15-15-20c-4-5-10-6-16-7-4-1-9-3-14-2s-11 2-15 5l-7-1v-5zM279 213c4-4 8-7 14-7 2 0 5-1 5 2l-11 16-3 3v-10l-5-4zM327 206c2 1 2 4 2 6-2 0-4 2-5-1l3-5zM128 217c5 1 9 1 12 4-6 3-13 6-20 7l8-11z"/><path d="M320 218l6-1c-2 2-3 4-3 7 7-1 14-3 22-3 10 1 20 7 25 15 2 4 3 9 7 12 2 1 5 0 6-1 2-1 2-3 2-5l3 15h-14l-4-15c-4-7-10-12-18-14-13-4-26-1-39 2l7-12zM105 227c5-5 11-9 18-9-1 4-5 6-8 9-4 5-10 5-15 7l5-7zM65 225l14-3-1 14c-1 2-3 2-5 3-7 2-14 6-17 12-4 7-4 15-3 23-4 7-6 16-6 24-4-3-5-8-7-12 5-2 7-8 8-13 0-7-1-14 2-21 5-7 12-12 18-17 2-2 3-4 3-7-1-2-4-3-6-3zM133 228l11-5c3 3 5 8 6 12-6 4-13 6-20 7l6-8c1-3-1-5-3-6zM417 224c9 4 18 8 25 15a60 60 0 0120 55l-4 13-14-11 2-8c0 2 1 5 4 6 2 1 6 2 7-1 4-6 3-15 2-22-3-12-10-23-19-31-3-4-9-4-12-1s-1 8 0 11l-3-2c-1-4-1-8-3-11l-5-13zM379 226c3-1 7 2 9 5 2 4 2 8 2 12l-3-4-8-13zM88 231l13-5c-4 4-5 9-10 11l-13 7 6-14 4 1z"/><path d="M438 230c9-1 18 0 26 4-2 0-5-1-6 1-1 3 0 5 2 7 3 5 8 8 12 12 4 5 8 11 10 17 0 3 1 5 3 7l4 3c-1 5-7 8-12 6-2-1 0-3 0-4 3-7 3-15-1-20-3-4-7-8-11-10l-9-3-8-9-10-11zM392 231c4 4 7 8 8 13 1 6 2 12 1 17l-10-3c0-9 3-18 1-27zM133 246l18-7 6 18 6 9-1 1c-9-9-18-17-29-21zM324 242c10-2 20-3 29 0l10 7 6-2 1 11-12 3c-3-2-2-6-4-9-4-6-11-8-18-7-11 1-21 7-30 13l-24 17c-12 8-26 12-40 15-8 1-18 0-24-6 14 5 29 4 43-2 14-7 27-17 40-27l13-7c3-2 6-5 10-6zM425 252l6 5-6 3v-8zM438 296a114 114 0 0140 47c3 9 3 18 2 27a86 86 0 01-61 68c-9 3-19 3-28 2-6-1-13-2-17-7-7-10-10-22-10-34l3-6c-1 10 0 21 7 30 5 8 15 13 25 13 14 0 29-5 40-13 8-4 14-12 20-19 5-5 8-12 11-19 5-11 7-23 5-35-2-10-7-19-14-26-3-3-7-7-11-5-4 1-4 5-4 8l-5-4c0-9 0-17-3-25v-2z"/><path d="M45 304l2 1c1 10 4 20 9 29 3 6 7 10 12 14l2 7c-4-4-9-8-15-9-2 0-5 0-5 2l2 11c4 10 9 20 16 28s14 15 22 21c11 8 23 16 36 21 11 6 23 8 35 11a266 266 0 00101 4c24-1 48-10 67-24 6-5 13-10 18-17 5-6 11-12 14-20l13-18c6-8 14-15 22-20 5-2 10-4 13-8 2-3-1-8-5-7h-2 13c3 1 4 5 4 7l-15 9c-7 4-14 9-20 15-9 9-14 22-22 32l-11 16-16 15c-18 12-38 21-59 25l-34 4h-29l-13-1-38-5-22-5-13-5-16-7c-9-6-17-11-24-18-16-11-28-27-36-45-4-12-7-24-7-36l1-27zM440 328c3 1 5 4 7 6l-4 8c-2-4-3-9-3-13v-1zM31 331c3-1 7-2 9-1l1 14c-7-1-15 0-21-5 2-5 6-8 11-8z"/><path d="M315 345c1-4 3-9 8-11l1 5-9 6zM437 338c3 3 3 7 3 11 1 12-1 24-7 35-7 9-16 16-26 22-3 2-6 5-10 6-6-2-9-13-2-15 1 3 2 7 5 6 6 0 11-4 16-7 5-4 10-8 13-15 4-7 7-16 6-25-1-3-4-3-7-3l3-5 6-10z"/><path d="M416 344c3-1 8-1 9 2 1 5-2 9-5 11-8 6-14 13-20 20s-11 16-12 26c-1 5 2 9 6 12s10 3 14 2c-4 1-8 2-12 1-7-1-13-7-13-14 0-6 1-13 4-18 5-11 13-19 21-28 4-4 9-6 10-12l1-2h-3zM152 349l6-5c-2 7-6 13-9 19l-1 5c-4 5-8 9-10 14-3 6-4 13-5 20l-1 9c-3-4-3-10-3-15 1-10 5-20 10-29l13-18zM331 350l4 5c-10 9-23 17-32 28-7 9-8 21-4 32-6 2-11 5-17 6l-1-6c3 0 6-1 8-3 3-5 2-11 4-16 3-8 7-15 13-21l23-20 2-5zM276 369c5-4 7-10 12-14-1 3-1 6-3 8-4 6-8 11-14 15s-14 7-21 8l6-9 3 2c7-1 13-5 17-10z"/><path d="M136 358l4-2h2l-8 12-8 23v17l-14-8c-4-2-3-7-3-11l4 8c3 2 7 0 8-3 4-7 6-16 9-24 2-4 6-8 6-12zM189 395c-2-12-1-26 5-37-2 11-7 22-5 34 3 12 10 24 16 35l-20-2-2-4c3 0 7 1 10-1 1-9-3-17-4-25zM334 361l4-3c3 4 8 6 12 8l2 1c-5 7-9 15-15 21l-1-11 1 3c3-4 5-9 3-13-1-3-3-5-6-6zM93 360l16 2c-2 10-6 20-15 24l-10-12c4-4 8-8 9-14z"/><path d="M193 392c-2-10 1-20 4-30 0 5 1 10 3 14 3 0 5-2 6-4-2 8-7 15-13 20zM404 377l14-14v8c-4 6-8 12-14 16l-10 7c1-7 6-12 10-17zM155 388l13-11c0 3-3 5-5 7-7 5-11 13-11 22v11l-16-5c0-6 0-12 2-17 0 4 0 8 2 11 1 2 3 2 5 2l3-6 7-14zM434 388l4-7c1 2 2 5 0 7h-4zM241 391c1-3 3-6 6-8-6 10-6 22-3 32 1 5 4 9 7 12h-20c-2 0-3-2-4-3h8l3-5c3-9-1-19 3-28zM321 390l12-6-1 8c-3 4-8 7-12 9v-13l1 2z"/><path d="M247 390l7-1c-2 1-5 3-5 6-1 5 3 9 8 9 7-1 12-5 18-8l-1 4c-8 6-18 9-28 8-1-6 0-12 1-18zM202 403c7-1 10-8 15-11-4 7-9 15-16 20l-5-10c0-2-2-5-1-7 2 3 3 8 7 8zM210 409l10-14v17c-6 0-12 3-17 4 1-3 5-5 7-7zM345 420c6-5 11-11 16-18 0 5 1 10-1 15-3 9-6 17-12 24s-15 9-23 11c-8 0-17-1-24-6l16-8c3-2 8-1 12-2s7-3 9-6c2-4 4-8 7-10zM70 403l10 8-4 12-2 8c-4-1-7-5-7-9-1-7 1-13 3-19zM163 420l11-9 6 13-17-4zM366 427l7 10-9 7c-2-6 0-12 2-17zM116 436c6 2 11 5 17 6 0 4-2 8-5 10-5-5-10-9-12-16zM135 446c1-1 3-2 5-1 4 2 10 2 14 5-4 5-6 11-12 14-4 3-9 4-14 4-3 0-5-2-8-4 5-6 14-10 15-18zM157 449l15 3c2 0 3 2 4 4 0 3 1 7-2 8-2 2-5 0-7-1-4-3-9-6-12-10v-1l2-3zM252 455c10 0 19-2 29-3 5 2 12 4 13 11-3 1-7 2-10 1-11 0-21-3-31-7l-1-2zM201 455c6 1 13 0 19 2 3 7 5 15 3 23-1 4-2 9-6 10-2 0-4 1-5-1l-1-14c-2-7-7-13-10-20z"/></g><g fill="#ffe493"><path d="M307 199c16-23 30-48 38-75l2 2-8 23c-7 15-16 30-26 44-1 3-3 6-6 6zM142 132l8 1c8 3 13 10 17 17 7 8 11 17 16 26 7 15 11 32 14 48v5l-6-23c-4-14-12-27-20-40s-17-24-29-34zM225 144c9-6 22-5 32 0 5 3 11 7 14 12-5-1-9-5-14-8-10-6-22-6-32-4zM216 162a85 85 0 0146 23c-5 0-8-4-12-6-10-6-21-10-31-15-2 0-2-1-3-2zM271 177c6-7 15-12 24-14h10c-8 1-16 4-23 9-5 4-9 10-13 15l-11 21v-2c2-10 7-20 13-29zM145 185c4-7 10-12 17-15-3 6-9 12-15 15h-2zM99 195c13-10 31-12 47-6 9 3 17 10 22 19v2c-4-3-7-8-12-10a59 59 0 00-43-8c-5 0-9 3-14 3zM360 188c7-1 14 0 21 2l8 4-14-2-18-2 3-2z"/><path d="M93 215c8-9 20-15 32-15 12-2 25 2 32 12 5 5 9 11 11 18v2l-11-16c-7-8-19-12-30-12-6 0-11 0-17 2s-11 7-17 9zM341 214h7c8 1 14 5 21 8 7 4 12 11 15 18l-3-2a63 63 0 00-40-24zM45 239c4-7 11-10 18-14v2c-5 4-11 7-15 13s-8 13-8 21c-2 6-1 13-2 19-5-13-2-30 7-41zM313 235c6-3 14-6 21-6s13 0 20 2l11 9c-5 0-8-3-12-5-8-3-18-2-26 0-8 1-14 5-21 8-12 5-22 12-33 19-4 2-8 4-13 4l19-11 34-20zM468 236c11 4 19 13 23 24 2 5 2 11 0 16l-5-18c-4-9-11-16-18-22zM65 257l2-3v1l-2 2zM60 263l3-4c1 2-1 4-3 4zM391 334c3-2 7-4 11-4h2c-1 1-2 3-4 3-8 3-15 9-21 15-7 7-14 15-19 24-4 9-10 18-17 25a99 99 0 01-48 31 262 262 0 01-160-6c-18-7-37-17-50-33-5-5-8-12-11-18l-1-9c5 12 14 23 25 32 11 10 25 17 39 22 17 6 34 10 51 13 18 3 35 2 53 2a124 124 0 0076-23c9-6 18-13 25-22 9-9 14-20 22-30 7-10 16-17 27-22zM451 333c2 0 4 2 5 4 5 6 7 14 8 21 0 10-3 20-7 29-7 11-15 21-27 26-6 2-13 5-19 4 12-3 24-9 32-19 8-9 13-19 16-31s0-25-8-34z"/><path d="M184 337c1 7-1 14-3 21-7 16-6 35-1 52 1 2 2 5 1 8l-8-18c-2-8-2-15-1-23 1-14 8-27 12-40zM400 353c5-3 10-7 16-9h3l-1 2-14 8-17 13-8 6c5-8 12-15 21-20zM289 373c8-10 19-18 29-26l-2 4-17 14a76 76 0 00-18 46l-2-1a48 48 0 0110-37zM157 365c6-5 11-10 18-13-1 2-1 5-3 6l-9 6c-6 6-13 12-18 19-1 3-3 6-6 8 2-11 10-20 18-26zM120 362h3l-13 26v-3l3-10 7-13zM108 378l3-10v2l-3 9v-1zM224 395c2-8 5-16 10-23h2c-6 11-9 23-10 35l1 16c-4-9-4-18-3-28zM255 426h8l-8 1v-1z"/></g><g fill="#bd4b06"><path d="M223 141c4-2 8-4 12-4h10c7 0 12 4 18 6l9 8c4 4 6 9 9 13 3 0 5-3 8-3l3-1h2l2-1h10l4 1h2l6 2 7 3-2 4c-4-4-9-5-15-6h-13c-9 2-18 7-24 14-6 9-11 19-13 29-2 6-6 10-11 13l2-4c-2 1-5 2-6 4-1 3 0 8 3 9 5 2 10 2 14 0 5-2 9-7 10-12 4-11 8-22 16-31 4-5 11-8 18-8l12 3-3 5c0-2-2-2-3-3l-3-1h-1c-3-1-5-2-8 0-3 1-6 3-7 6-1 1 0 2 1 3v1c-1 1 0 2 1 3v1l1 3 1 4c1 2 3 2 4 1l3-1-4 6c0-3-3-2-5-2-6 0-10 3-14 7-6 5-8 13-15 17-4 3-9 3-14 2-4 0-9-2-10-7-2-3 0-8 3-10 2-3 6-3 9-5 2-1 2-4 2-6-1-2-3-4-5-4-6-1-12 2-16 6-6 4-9 13-8 20 1 8 7 15 15 17 7 3 14 3 22 2 9-3 18-9 22-18l3-3c0 2-1 3 1 5-4 8-11 13-19 17s-18 3-27 2c-7-2-15-7-18-14-4-7-3-16 0-24 2-4 6-7 9-10-8 0-17-1-26 1l3 10c-2-2-4-5-5-9v-5l19-1c8 0 16 2 23 0-4-4-8-7-13-9-3-2-7-2-10-3-7 0-14-1-20 1l-2 2-2-5 4-1c2 0 2-4 0-4l-5 1-1-4h11c12 2 23 6 32 13 6 3 10 8 15 12 1-5 4-9 6-14-5-5-11-9-17-12-9-6-19-9-29-11-7-1-15-3-21 0l-1-4h15l1-2c2-6 7-12 13-15m2 3l-7 5-5 9 16 3c2-3 4-6 7-7 4 0 9 0 12 2 6 2 10 7 14 12l5 8 11-9-4-8-3-3c-3-5-9-9-14-12-10-5-23-6-32 0m11 14h-1l-2 5c12 4 21 11 31 19l1-2c-5-8-10-18-20-22 0-2-3-2-4-1h-2c-1-1-2-1-3 1m-28 19v3l13 1c-4-3-8-3-13-4m74 20c0 3 2 5 4 6s4 0 5-1c0-5-2-9-3-14-3 2-5 6-6 9m-3 4l-3 9 7-5-4-4zM150 173c5-3 10-7 16-9l2 3-4 2-2 1c-7 3-13 8-17 15a318 318 0 019 4l6 3c4-5 9-10 16-13l2 4c-4 1-9 2-11 6l-5 6c1 1 3 5 6 4l5-5 7-6 2 4c-5 2-10 5-13 10l6 12 12-9 2 3-11 7-1 4c2 6 7 12 11 17l-10-7c-4-7-6-15-10-21-5-9-13-16-22-19-16-6-34-4-47 6-5 4-8 9-11 14-3 4-4 9-5 13 3-3 5-8 9-11l7-7c11-7 25-9 38-8 9 3 19 8 25 16 4 6 9 13 10 21 2 5 2 11 7 15 3 4 9 2 14 3-5 2-11 3-16 1-7-5-6-15-9-22-2-7-6-13-11-18-7-10-20-14-32-12-12 0-24 6-32 15-5 4-7 10-9 15l-6 14 13-7c5-2 6-7 10-11 6-5 12-10 20-12 9 0 18 0 25 6 5 6 7 14 9 21 3 8 3 17 11 22 5 5 12 6 18 8-7 1-15-1-21-5l-6-9-6-18-18 7-11-3 8-1c7-1 14-3 20-7-1-4-3-9-6-12l-11 5c-13 5-28 6-41 13-4 2-8 3-10 6l-15 8v-1c3-4 8-7 8-12h-2l-2 1c-3 2-7 3-10 6s-4 8-5 12v8l-3 5c-1-8-1-16 3-23 3-6 10-10 17-12 2-1 4-1 5-3l1-14-14 3h-2c-7 4-14 7-18 14-9 11-12 28-7 41l2 6c2 4 3 9 7 12v7l-2-1-1 27a102 102 0 0043 81c7 7 15 12 24 18l-2 2c-1 1-2-1-3-2l-13-8-1-1-3-2-1-1-6-4-1 4-1 2v2l-1 3v2l-1 3v2l-3 2h-3-2l-5-7c-1-5-2-10-1-15l4-12-7-8-5-9-1-2-2-3-5-10v-1l-1-2v-1l-1-2v-1l-1-2c-2-4-1-9-4-12l-8-1h-6l-2-1c-3 0-6-1-7-4v-5c0-3 4-6 7-7l2-1h1l3-1h10v-7-11c0-4 2-9 0-13l-2-4-1-4a40 40 0 01-5-24c-1-14 6-29 19-36l2-2h2c2 0 4 0 5-2 2-2 6-3 9-3l3-1 5-1 2-1 1-2 1-2c1-5 4-9 7-13 4-5 8-9 14-12l6-3 3-1 3-1h1l4-1h2a534 534 0 0019 1l9-11m-22 44l-8 11c7-1 14-4 20-7-3-3-7-3-12-4m-23 10l-5 7c5-2 11-2 15-7 3-3 7-5 8-9-7 0-13 4-18 9M31 331c-5 0-9 3-11 8 6 5 14 4 21 5l-1-14c-2-1-6 0-9 1m39 72c-2 6-4 12-3 19 0 4 3 8 7 9l2-8 4-12-10-8z"/><path d="M339 188l3-4c0 2 1 3 3 3a306 306 0 0024-2h3l4 1h2l3 1c10 2 18 9 23 18l2 3 1 2 3 6c3 4 9 4 13 7l8 4c1 2 2 2 3 0h19l3 1h2l6 2h2c6 3 12 6 17 11 7 6 11 16 12 25v8c0 5-3 11-7 14-2 2-4 3-7 3h-3l-5-1v-2-3-3l1-1 1-2v-1-9l-1-2c-2-4-5-7-8-9l-1-1-2-1c-1-2-3-2-5-2l2 4 2 5 1 3 1 5 1 4v18l-1 3v2l-1 2-2 7-1 2 8 12c4 4 6 8 9 13l2 4 1 2c2 3 3 7 3 11v18l-1 7-1 3-1 6c-4 9-8 18-15 26l-11 12a97 97 0 01-35 18l-2 1-9 1h-20l-4-1c-3 0-5-2-8-3-4 2-7 7-11 7h-4c-2-3-2-7-1-11l1-4c0-3 3-6 4-8s0-3-1-4c-2 0-2 2-2 3v1l-1 2-1 3-1 2-1 2-1 2-3 6-1 1c-4 5-9 10-15 11l-2 1h-1l-2 1c-6 2-13 0-20 1v-1c6-1 12 0 18-2h-6c8-2 17-4 23-11s9-15 12-24c2-5 1-10 1-15-5 7-10 13-16 18-3 2-5 6-7 10a167 167 0 00-3-3v-3l16-15 11-16c8-10 13-23 22-32 6-6 13-11 20-15l15-9c0-2-1-6-4-7a39 39 0 00-24 4c-11 5-20 12-27 22-8 10-13 21-22 30a145 145 0 01-69 41c-10 3-21 4-32 4-18 0-35 1-53-2-17-3-34-7-51-13-14-5-28-12-39-22a90 90 0 01-28-39l-2-7 6 4c1 7 4 13 8 19 4-3 8-7 7-12l4 1c-1 6-5 10-9 14l10 12c9-4 13-14 15-24h4l-2 6-3 10-11 10 9 8c0-6 0-11 2-17l3-9 5-7-2-1h6l-7 13a87 87 0 00-4 14c0 4-1 9 3 11l14 8v-17l8-23 8-12h-2l12-7-13 18c-5 9-9 19-10 29 0 5 0 11 3 15l1-9c1-7 2-14 5-20 2-5 6-9 10-14 8-9 19-14 28-22l4-5 4-15c2-12 0-23-1-35l2 5c2 14 4 28-1 41-4 13-11 26-12 40-1 8-1 15 1 23l8 18 2 3 2 4 20 2c-6-11-13-23-16-35-2-12 3-23 5-34l8-16c3-4 5-9 9-12l-9 16-5 16c-3 10-6 20-4 30 6-5 11-12 13-20s4-16 3-24h2c0 10 0 19-3 28-2 8-7 13-13 19-1 2 1 5 1 7l5 10c7-5 12-13 16-20l8-18c1-5 1-11 3-16l-1 19c5-6 8-14 15-18l-8 13c-5 7-8 15-10 23-1 10-1 19 3 28v1c1 1 2 3 4 3h20c-3-3-6-7-7-12-3-10-3-22 3-32 4-4 7-8 12-10l-3 4-6 9c7-1 15-4 21-8s10-9 14-15c2-2 2-5 3-8 4-8 5-17 9-25 3-5 7-11 12-15-2 5-6 9-9 13-5 11-6 23-11 34-3 6-7 11-12 16-7 6-15 9-23 11l-7 1c-1 6-2 12-1 18 10 1 20-2 28-8l1-4 5-14c6-13 16-23 27-30 5-3 5-9 7-13 1-4 5-7 7-10 0-7-1-14 1-21 0 8-1 17 1 26-5 2-7 7-8 11l9-6 3 5-2-1-7 4c-10 8-21 16-29 26-3 5-7 10-8 16-2 7-3 14-2 21l2 5 1 6c6-1 11-4 17-6-4-11-3-23 4-32 9-11 22-19 32-28l3 3-4 3h-1l3 16 1 11c6-6 10-14 15-21l-2-1c2-1 4-1 5-3l13-18c12-11 28-20 45-19 4 0 7 3 8 7l1 7 9 8-3 5-5 7-2 12c-5 11-15 20-26 25-7 2-4 13 2 15 4-1 7-4 10-6 10-6 19-13 26-22 6-11 8-23 7-35 0-4 0-8-3-11l3-9c0 4 1 9 3 13l4-8c-2-2-4-5-7-6l1-5a77 77 0 0110 10c8 9 11 22 8 34s-8 22-16 31c-8 10-20 16-32 19h-3c-4 1-10 1-14-2s-7-7-6-12c1-10 6-19 12-26s12-14 20-20c3-2 6-6 5-11-1-3-6-3-9-2-6 2-11 6-16 9-9 5-16 12-21 20l-12 20-3 6c0 12 3 24 10 34 4 5 11 6 17 7 9 1 19 1 28-2a86 86 0 0061-68c1-9 1-18-2-27l-9-16c-9-12-19-23-31-31v2c-2-2-2-5-2-8l4 3 2-4c2-4 2-8 0-12-1-6-4-12-7-17l-11 4c-2 1-1 3-1 4v2l-1 3-3-2c3-12 4-25-1-36-3-8-8-15-14-20-11-8-25-12-39-11l-17 2v5l7 1 14 7c5 3 11 2 16 5 6 2 11 5 15 10 4 7 4 15 5 23v6l-4-2c1-5 0-11-1-17-1-5-4-9-8-13 2 9-1 18-1 27l-7-1h4l-3-15-1-2c-3-7-8-14-15-18-7-3-13-7-21-8-7-2-15 0-22 3l-6 1 4-7c1 3 3 1 5 1 0-2 0-5-2-6l4-5 2 10 11-1c0-7-1-15-5-22m8 2c-1 0-3 0-2 2l2 10 26-2c11 1 21 5 30 10-2-4-4-9-9-12-1-1-2-3-5-4l-8-4c-7-2-14-3-21-2l-13 2m70 34l5 13c2 3 2 7 3 11l3 2c5 4 10 8 13 13a43 43 0 013 33l14 11 4-13v-19c-2-14-10-26-20-36-7-7-16-11-25-15m-38 2l8 13 3 4c0-4 0-8-2-12-2-3-6-6-9-5m59 4l10 11 8 9 9 3c4 2 8 6 11 10 4 5 4 13 1 20 0 1-2 3 0 4 5 2 11-1 12-6l2-5c2-5 2-11 0-16-4-11-12-20-23-24l-4-2c-8-4-17-5-26-4m-13 22v8l6-3-6-5m23 88h-1v2l-3 6c-2 4-1 10-1 15v1c-2 0-2 3-1 4 0 3-2 7-1 10-1 1-1 2 1 3v6l-1 4c-3 2-7 1-10 0l-10 10-11 7-8 6c1 2 5 2 6 0 13-3 26-9 35-20 6-9 12-20 14-31 1-9-1-18-6-25-2-1-2 1-3 2m-291 25c-8 6-16 15-18 26l-1 4c-2 5-2 11-2 17l16 5v-11c0-9 4-17 11-22 2-2 5-4 5-7l1-7 3-12c2-1 2-4 3-6-7 3-12 8-18 13m160 9l3 14v13c4-2 9-5 12-9l1-8c1-7-1-14-3-20l-13 10m87 3c-4 5-9 10-10 17l10-7c6-4 10-10 14-16v-8l-14 14m-96 6l-6 9c-1 1-2 2-1 3v1c-2 0-2 4-1 5v7l1 5c2 0 4 0 5-2 4-3 9-5 10-10 2-6 2-14-1-20v-2l-1-1c-3 0-4 4-6 5m126 5h4c2-2 1-5 0-7l-4 7m-267-5l1 1c-5 4-9 9-11 14-2 0-3 4-2 6v1 13l2 1 7-4 8-8-3-7c2-1 2-4 0-4 0-4 1-9-2-13m43 26c-2 2-6 4-7 7 5-1 11-4 17-4v-17l-10 14m65-6v1l-11 5c-1-1-2-1-3 1h-3v1h-2l-10 1 1 3c1 5 5 8 8 11v1l8-1h2c1 1 2 1 3-1h2c2 1 6 0 6-2h2l1-1v-1c1-1 1-2-1-3l-1-4-2-11m-112 17l17 4-6-13-11 9m49-3h-3v1l-4 1 4 8 11 1 6-1h-1l-2-5v-2h-1v-1-4c-4 1-7 0-10 2m154 10c-2 5-4 11-2 17l9-7-7-10z"/><path d="M313 230c13-3 26-6 39-2 8 2 14 7 18 14l4 15-4 1-1-11-4-7-11-9c-7-2-13-2-20-2s-15 3-21 6a581 581 0 00-53 31c-6 2-12 5-18 5-5 0-10-1-13-5v-10c1 4 0 9 4 11 7 3 14 1 21-2l16-8 37-23c2 0 4-2 6-4z"/><path d="M306 258c9-6 19-12 30-13 7-1 14 1 18 7 2 3 1 7 4 9l-5 2c0-4 0-8-3-11-4-4-10-4-15-3-11 1-19 7-28 13-11 7-22 15-34 21-10 6-22 9-33 11-10 1-20-3-27-9-11-9-13-27-4-38-2 6-5 13-3 20 1 7 6 13 12 17 6 6 16 7 24 6 14-3 28-7 40-15l24-17zM140 442l22 5 38 5c-3 0-6 0-8 2h-2l-5-1a404 404 0 00-7 0v1l-2-1v3c-1-2-2-4-4-4l-15-3-2 3v-4l-1 2c-4-3-10-3-14-5-2-1-4 0-5 1v-3a564 564 0 015-1zM242 453l34-4 5 3c-10 1-19 3-29 3l1 2h-6l-5-1h-1l2-2h-22c-3 1-6 0-8-1h29z"/></g><path fill="#cc0501" d="M230 324c15-8 33-5 48 0-2 6-7 9-11 13s-9 8-15 7c-4 0-6-3-9-5l-13-15m12 2c-1 3 2 6 5 6s5-2 7-3l-3-5c-3 0-7-1-9 2z"/></svg>