<svg width="683" height="683" viewBox="0 0 512 512" xmlns="http://www.w3.org/2000/svg"><g fill="#e1ba9c"><path d="M82 66c3-2 7-1 9 0h-9zM264 65h2v1h-2v-1zM77 67c0-2 4-2 5-1l-5 1zM74 67h2l-2 1v-1zM100 67h2v1l-2-1zM275 67h2v1l-2-1zM71 68h2l-2 1v-1zM244 70c0-2 3-3 4-2l-4 2zM285 71h0zM112 72c2 0 3 0 3 2l-3-2zM238 72h2l-2 1v-1zM234 75h1-1zM291 75zM295 79c2 0 2 1 2 2l-2-2zM119 82h1v2l-1-2zM97 87l18-3c2 0 3 2 3 3 5 8 8 18 5 27-2 13-13 24-26 26 7-3 13-6 18-12 6-8 8-18 4-27-1-4-4-7-7-9l-9 1-6-6zM300 84v0zM124 91h1v2l-1-2zM223 91h1v2h-1v-2zM228 95c8-2 15-3 23-3l-5 7v-2c-7 1-13 4-19 7l1-9zM224 104l1-6v12l-1-6zM127 101c2 3 1 7 0 10v-10zM46 110c-2-1-2-6 0-7v7zM307 104a379 379 0 000 0zM287 106l13 14c-2 6-5 12-10 15-5 4-11 7-18 8-9 1-19-1-27-6 8 2 17 4 26 2 8-1 17-3 21-10 2-6 0-14-7-15l2-8zM56 124c2-6 5-11 9-16l4 8-9 12-4-4zM46 114l1 3c-2-1-2-2-1-3zM225 114l1 2h-1v-2zM125 120l1-3c1 1 0 2-1 3zM227 120l1 2h-1v-2zM125 122v-1 1zM474 121c2 0 2 6 0 6v-6zM49 124l4 2c-1 1-5 0-4-2zM301 126l1-2v2h-1zM55 128zM231 133l1 4c-2 0-2-3-1-4zM297 134zM477 134c0-2 4-2 4 0h-4zM61 135h1-1zM232 139l1 6c-2 0-1-5-1-6zM72 141h0zM120 140h1v2h-1v-2zM75 141l2 1h-2v-1zM286 142zM78 143v0zM282 144zM483 146l1-2v2h-1zM275 148l2-2-2 2zM81 147l1 1-1-1zM437 149h1l-1 2v-2zM86 153l1 1-1-1zM270 154l1-1-1 1zM121 155c2 0 2 4 1 5l-1-5zM411 159c2-1 2-1 3 1l-3-1zM480 163c-2 2-1-3 0-4v4zM91 160l1 1-1-1zM232 168c0-2-1-6 1-7l-1 7zM264 162l1-1-1 1zM122 162c2 0 2 4 1 5l-1-5zM261 167l1-1-1 1zM231 174c-1-1-1-4 1-4l-1 4zM258 172h0zM98 173h0zM258 173zM99 174l1 1-1-1zM124 174c2 0 2 3 1 4l-1-4zM100 176l1 1-1-1zM254 180l2-4c1 1-1 4-2 4zM489 184l2-7-2 7zM101 178l1 1-1-1zM377 178h1v2h-1v-2zM102 180zM125 180h1v2l-1-2zM252 186v-1 1zM488 188l1-3c1 1 1 2-1 3zM127 188h1v2l-1-2zM194 189h2l-2 1v-1zM174 191c0-2 5-2 5 0h-5zM107 191v0zM168 192c1-2 2-2 3-1l-3 1zM128 192l1 2h7l-7 1-1-3zM109 197h0zM425 196v3c-2-1-2-2 0-3zM110 198l1 2-1 1v-1-2zM252 199h10v1h-9l-1-1zM291 215c1 0 4 2 3 4-2-1-3-2-3-4zM379 216h1v12l-1-12zM357 227c-2-1-2-6 0-7v7zM480 242l1-3c1 1 1 2-1 3zM404 243h1l1 1h-2v-1zM41 277a243 243 0 010 0zM396 268h4c0 2-4 2-4 0zM474 270l1-2v2h-1zM406 275c-1-1 1-4 2-4l-2 4zM472 277l2-6c1 1 0 5-2 6zM466 297c0-2 0-4 2-5 0 1 0 5-2 5zM36 294h1v17h-1v-17zM465 300l1-2v2h-1zM369 302h2v1l-2-1zM37 314l1 2h-1v-2zM457 319l2-4c1 1-1 4-2 4zM454 326v-1 1zM20 349c-1-1-1-2 1-3l-1 3zM327 350l1-1a1079 1079 0 01-1 1zM431 352zM425 357l1-1-1 1zM342 360zM343 360zM331 361c2 0 2 1 2 2l-2-2zM47 364c-1-1 1-3 2-1l-1 1h-1zM409 366l7-4c-2 2-4 4-7 4zM62 367h4c0 2-4 2-4 0zM273 369h1l-1 1v-1zM295 370l10 1 1 1c-3-2-8 0-11-2zM390 371l4-1c0 2-3 2-4 1zM272 372v-1 1zM378 371h6c0 2-6 2-6 0zM94 375l6-3-6 3zM343 376h1v10l-1-10zM273 378l1 1-1-1zM308 379c1 4 1 9-2 13l2-13zM86 381l1-1-1 1zM170 380l6 3-4-1-2-2zM239 380h1v2l-1-2zM279 382v0zM82 385zM174 384l1 1-1-1zM240 384c2 0 1 4 1 5-2-2-1-3-1-5zM305 384h1v2h-1v-2zM182 385c2 4 1 9 0 13v-13zM279 387h1v9h-1v-9zM42 391l1-3c1 1 1 2-1 3zM327 389v0zM291 391l10 1h1-11v-1zM268 393l3 3-2-1-1 5v-7zM99 398l1-1-1 1zM245 397c2 1 2 6 0 7v-7zM273 398h0zM158 399l2 2-2-2zM29 400l3 1c-1 1-2 0-3-1zM33 401l2-1v1h-2zM350 406l5-2c0 2-4 3-5 2zM76 413c-2-1-2-6 0-7v7zM165 406v0zM177 408l1-2v2h-1zM244 408l1-2v2h-1zM299 406h1v2h-1v-2zM345 406h4c0 2-4 2-4 0zM171 412h2-2zM220 412c2 0 2 5 2 6-2-2-3-4-2-6zM144 414h1c1 1-1 4-2 4l1-4zM180 427c1-4-1-9 1-12v12h-1zM87 417v-1 1zM197 428v-13 13zM78 418l1 1-1-1zM169 421c2 0 2 6 0 6v-6zM210 425l1 1-1-1zM156 426v3c-2-1-2-2 0-3zM217 428h5c0 2-5 2-5 0zM118 430l12-1v1h-13 1zM159 435h4c0 2-4 2-4 0zM202 446h3c0 2-3 2-3 0z"/></g><g fill="#6d0200"><path d="M82 66h13l4 1h1l2 1c4 0 8 2 10 4l3 2c3 1 5 5 4 8l1 2c2 2 4 4 4 7l1 2v1l1 2v1l1 4v11l-1 4v1l-1 3v2l-5 8v10a88 88 0 001 12v3l1 5v2l1 5v2l1 4v1l1 4v2l1 2a1415 1415 0 001 5v1l1 2v2a165 165 0 002 6l4 14a101 101 0 008 17l5 12-9-11-9-24c-7-23-12-48-12-72-5 3-11 7-17 8-6 2-12 1-18 1l6 8c15 19 23 41 32 63l4 16-1 2-1-4-4-10-2-5-4-10-1-3-1-2v-1h-1l-2-5v-1l-5-11v-1l-1-1v-1l-1-1v-1l-1-1v-1h-1l-6-12-1-1a120 120 0 00-5-7l-4-5-1-1-3-3v-1l-1-1-2-1h-2-1l-10-6h-1a34 34 0 01-6-7l-2-2-4-2c-2-2-2-5-2-7l-1-3v-4-7-2l1-4v-1l1-3v-1l1-2c1-6 6-11 11-15a411 411 0 0013-7h1l2-1h1l5-1m-3 4c-9 2-17 6-22 13-5 5-7 13-8 20s0 14 3 20l8-14c5-6 11-12 18-17l21-9 18-3-8-6c-8-4-17-6-27-5l-3 1m18 17l6 6c4 5 6 11 4 17-1 8-8 14-16 15-8 0-17-2-22-9l-4-8c-4 5-7 10-9 16l4 4c9 10 24 14 37 12s24-13 26-26c3-9 0-19-5-27 0-1-1-3-3-3l-18 3m-7 3c-8 3-15 8-21 13-3 4 2 9 3 13l1-1c1 3 4 4 7 3l-2 2c4 1 9 2 14 1s10-5 12-10c1-5 0-9-1-14-3-3-5-6-9-8-1-1-3 0-4 1zM257 66h13l3 1h2l2 1h1l2 1 5 2h1a350 350 0 016 4c1 2 3 2 3 4l2 2a10 10 0 013 4c2 5 6 9 6 15l1 3v10c0 5-3 8-5 11l-1 2a39 39 0 01-4 8l-10 8h-1a37 37 0 01-4 2l-5 2-2 2-4 5-1 1-5 7-1 1-2 4-1 1-2 5h-1v1a402 402 0 00-4 7l-2 5v1l-4 8-4 11a164 164 0 00-4 16 126 126 0 00-2 17l-2-1v-8l4-21c7-22 17-44 32-62-10 1-20-1-29-6l-9-7 2 15-1 24-5 26a372 372 0 01-12 31l-1-3 3-10 2-4 2-7 2-5 2-8 2-5v-3a133 133 0 011-7v-3l1-4a129 129 0 001-25l-1-6v-2l-1-4a143 143 0 00-1-6l-2-5-1-2-1-1v-3l-1-2v-4-12l-1-5v-2c2-6 5-12 10-16h1l3-2 2-1 4-2 4-2 5-1 4-1m-15 8c-3 2-8 5-10 9h-1l-4 9c9-1 19-4 28-3s18 3 25 8c9 5 15 14 23 21 3-8 1-16-1-22-2-5-4-10-8-13l-2-2a42 42 0 00-50-7m-14 21l-1 9c0 13 6 27 18 33 8 5 18 7 27 6 7-1 13-4 18-8 5-3 8-9 10-15l-13-14-2 8c-3 9-13 14-22 13-5-1-10-3-13-7-5-5-7-12-5-18l7 3-4-1c-3 2-2 7 1 7h-1c3 12 19 17 28 10l6-7c0-5 3-11-1-14-7-4-14-6-21-7-4-1-6 1-8 3l-4 6-3-1 1-2 5-7c-8 0-15 1-23 3zM263 243a54 54 0 0117 0l7 1 10 3 11 8c5 5 8 12 11 18a296 296 0 013 10c1 7 0 15-2 22a298 298 0 00-3 6 51 51 0 01-23 22h-1c-2 0-6 2-8-1-3-3-6-7-11-9-7-2-15 0-23 1 3-6 6-12 7-18v-21c1 0 3 1 3 3 3 6 1 13 2 19s8 10 14 11c8 3 17-1 24-6s12-13 12-22c0-7 0-15-3-21-2-4-3-9-7-13-4-5-11-8-17-9-6-2-12-4-18-2-7 1-14 2-19 7-4 3-6 8-7 12l-6-4a69 69 0 0110-10c5-4 11-6 17-7zM131 253l3-1c13 5 22 16 27 28-7 7-13 16-16 25l-3 17c-2 6-7 10-10 15-5 1-11 2-16 1l-8-14c-4-7-12-12-18-17l-10-8c-4-3-2-8-2-12 6 3 8 10 14 13l15 9 10 13c3 2 7 2 10 2 5-1 8-5 11-9 3-7 1-15 3-23 2-5 6-11 5-17-1-9-8-17-15-22zM231 283c4 2 7 4 8 8 2 7 1 16-4 22l-4-7v-23z"/></g><g fill="#fdb05a"><path d="M95 66c1-1 4-1 4 1l-4-1zM253 67c0-2 3-2 4-1l-4 1zM270 66c1-1 2-1 3 1l-3-1zM278 68h2v1l-2-1zM79 70l3-1c1 1 3 3 2 5-3 5-7 7-11 10-9 8-16 19-24 28v-2c2-8 4-17 10-23l22-17h-2zM256 76c7-1 15-1 22 1 5 1 9 4 14 4l2 2 1 7c-3 1-7 0-10-1-9-3-18-7-28-7-9 0-17 2-26 1h1c8-3 16-7 24-7zM48 90h1l-1 2v-2zM47 96c-1-1 0-2 1-3l-1 3zM125 94h1a1658 1658 0 01-1 0zM46 101c-1-1-1-4 1-4l-1 4zM126 97c2 0 2 3 1 4l-1-4zM306 100c2 1 2 2 1 3l-1-3zM126 116l1-4c1 1 1 4-1 4zM455 130l10-9c-1 3-1 7-3 10-5 9-9 19-10 29l-3 28c-1 17 0 34-3 51-3 23-11 45-24 64l-13 17a46 46 0 01-44 10c-12-3-21-12-28-21l-4-7 3-5c6 8 12 15 19 21 7 4 16 7 24 7 8-1 16-5 23-10s12-13 17-21a171 171 0 0024-104c0-5-2-9-4-13l6-24c2-8 5-16 10-23zM230 127l1 4c-2 0-2-3-1-4zM473 135c-1 2-3 0-1-1l1 1z"/><path d="M466 149l9-6c-8 32-7 65-15 96-4 22-9 45-19 65-6 11-14 21-23 29a59 59 0 01-58 12c-11-4-21-11-27-21v-8c6 7 12 14 19 19 13 5 27 7 40 3 11-3 20-10 29-18 4-5 9-10 12-16 6-12 12-24 16-37 4-12 5-24 7-37l4-47c1-12 3-25 7-36l-1 2zM120 144c2 2 1 6 1 8l-1-8zM438 145h1l-1 2v-2zM238 149c5 2 9 6 10 11 1 9-2 17-5 24l-7 19c-3 10-4 21-5 31l-5-1 12 6c5 1 10-1 15-1h7l3 5c-6 1-12 3-17 7-5 0-11-1-16-3l11 7-5 6-8-4-4-10c-1-6-4-11-6-17l1-1v2a128 128 0 0021-62l-2-19zM91 150c8 0 14 6 18 12 7 13 9 28 14 42 3 10 7 20 15 26l9 11c7 10 13 21 17 33 2 2-2 4-3 6-5-12-14-23-27-28-7-2-15-2-23-1-17 3-30 17-33 34l-1 5-5-8 4-7-5 2c1-3 0-6 2-8 2-3 6-5 9-7l-12 4c-6 2-12 6-16 11-7 11-8 24-6 36 0 5 4 9 4 14l-5 4-1-2c1-11-3-22-1-33 2-14 9-29 22-37 9-6 20-10 30-13h-6l9-1h9l-4-3c6-3 12-4 19-5l2 3v-3c2-6-1-12-2-17-2-12-6-23-10-34l-12-25-11-11zM481 153l1-2v2h-1zM436 159c-1-1-1-5 1-5l-1 5zM480 157l1-3c1 1 1 2-1 3zM398 159h13-13zM394 160c1-2 2-2 3-1l-3 1zM487 160c0-2 5-2 5 0h-5zM435 171c0-3-1-7 1-10v11l-1-1z"/><path d="M393 164c9-1 18-2 26 3 6 4 11 9 14 15 4 7 4 15 3 22a168 168 0 01-21 79c-4 9-10 17-18 23-7 5-15 10-24 10-6-1-12-4-16-8-11-13-21-26-33-38-7-9-14-18-23-25l-6-7c5 3 11 5 15 9 1 3 3 5 6 7 4 5 7 10 12 14l20 24c5 6 9 12 16 16 5 3 12 5 19 3 6-1 11-6 15-11 14-15 23-33 29-52 5-17 7-34 5-51-1-7-4-14-9-18-6-3-13-4-19-4s-12 3-18 5c0-5 0-9 2-14l5-2z"/><path d="M480 170c2 0 3-1 5-3l-3 9c-3 8-3 18-4 27l-5 39-12 48c-6 13-11 27-20 39a93 93 0 01-39 31c-22 9-49 3-66-13-2-2-2-5-2-8l12 8c5 4 12 5 18 7 13 4 27 1 40-4 17-7 29-21 39-36 10-16 14-35 20-53 4-14 6-29 8-43 3-17 6-33 7-49v1h2zM123 169c2 0 2 3 1 4l-1-4zM493 171l1-2v2h-1zM230 182c-1-1-1-5 1-5l-1 5zM401 184l2-1v1h-2zM409 183l3 1c-2 1-3 0-3-1zM230 187c-2-1-1-2 0-3v3zM204 187c0-2 4-1 6-1l-6 1zM221 186c2 0 6-1 6 1l-6-1zM384 188h5c0 2-5 2-5 0zM487 195l1-5c1 1 1 5-1 5zM181 191c2 0 6-1 6 1-2 1-4 0-6-1zM146 194c2 0 6-1 6 1l-6-1zM153 195l8-1c-2 2-5 2-8 1zM486 203l1-6c0 2 1 6-1 6zM166 201c9-3 19-3 28-1 6 2 11 6 17 7l2 2c-1 2-2 4-4 4l-10-5c-10-6-22-7-33-4-7 2-13 7-20 10-2 1-4 0-6-1 8-4 17-9 26-12zM270 201c2-1 2 0 3 1l-3-1zM365 202c1-2 6-2 7 0h-7zM425 201v0zM245 205l4-1c10 2 21 4 30 9 6 2 9 6 13 10v-2l4 6c-3 0-5 0-7-2-4-5-8-11-14-13-9-3-18-1-27-2-3 0-2-3-3-5zM485 210l1-4c1 1 1 4-1 4z"/><path d="M368 237c-3-9-1-19 0-28 0 12 0 26 9 36 6 5 13 7 21 8 4 1 9 2 10 7l-18-1c-11-3-19-12-22-22zM358 213c-1-1-1-2 1-3l-1 3zM484 218l1-5c1 1 1 5-1 5zM357 218c-1-1-1-4 1-4l-1 4zM110 220l3-1v6c-1 3-3 4-5 6l-9 5c-8 2-16 6-24 5l2-3v2l35-19-2-1zM424 225c-1-1-1-4 1-4l-1 4zM483 226l1-4c1 1 1 4-1 4zM166 222c3 2 6 4 7 8l15 29c5 12 10 23 10 36 0 9-5 17-6 26-1 6 0 13-2 20-1 2-4 3-7 2-2-3-1-7-1-11 0-6 1-13 4-18 2-7 3-14 2-21-2-18-9-35-16-51-2-6-6-11-10-16l4-4z"/><path d="M180 224l2-2c3 1 7 3 9 6 6 11 11 23 15 36 3 11 6 24 4 36-2 10-7 18-8 27-1 10 2 19 6 28 3 7 9 13 10 21s-4 16-4 24c-2 8 0 18 5 25-2 0-5 0-7-2-4-7-6-16-4-23 1-8 3-15 2-23l-5-14c-3-3-7-6-7-10v-19c-1-6-1-11 1-17 3-7 7-14 7-22 0-9-4-18-7-26-6-15-11-31-19-45z"/><path d="M198 224l7-2c5 7 9 15 12 23l6 30c0 15-1 29 2 44 3 7 11 11 18 12 10 1 20-3 29 2 5 2 6 8 8 12-4-5-9-11-16-11-9 0-17 4-26 2-9-3-15-10-22-17l-1-5c1-6 5-12 5-19 0-13-5-26-8-39-3-11-8-22-14-32zM264 226h11l7 12h-7l-11-12zM298 225c1 0 3 3 2 4-2-1-2-2-2-4zM482 231l1-4c1 1 1 4-1 4zM147 227l1 1c6 1 12 5 15 10 6 12 10 24 14 36 3 12 6 26 2 38-3 12-6 24-3 36 2 11 13 17 16 27 4 12 1 24 0 36 0 7-3 14 0 21 1 4 5 6 8 7l3 4c-4 0-8-2-11-4h2c-2-3-6-6-6-11-1-14 4-28 3-42-1-7-3-14-7-20-4-4-8-8-10-13-3-8-3-17-3-26l5-22v-19c-1-9-6-18-11-26-3-5-6-12-11-16-4-3-6-8-9-12l2-5zM357 230l1 5c-2 0-2-4-1-5zM481 238l1-4c1 1 1 4-1 4zM302 236c1 0 2 1 1 3-1-1-2-2-1-3zM358 236l1 4c-2 0-2-3-1-4zM360 243l1 2h-1v-2zM396 243c1-1 4-1 4 1l-4-1zM479 248l1-4c1 1 1 4-1 4zM478 252l1-3c1 1 0 3-1 3zM477 257l1-4c1 1 1 4-1 4zM476 261l1-3c1 1 1 2-1 3zM408 267a1186 1186 0 010 0zM388 267l4 1c-1 1-4 1-4-1zM404 268l3-1c-1 2-2 2-3 1z"/><path d="M235 271c2-2 5 1 7 2 9 9 14 24 9 37-3 5-5 11-11 14l-4-2c6-4 11-10 12-17 1-5 1-10-1-15-3-4-7-8-12-9l-1-1c0-3-2-7 1-9zM471 281l1-2v2h-1zM38 287c-1-1-1-2 1-3l-1 3zM469 288l1-3c1 2 0 3-1 3zM37 292c-1-1-1-4 1-4l-1 4zM158 287c2 2 6 4 5 8 0 10-6 19-6 29 0 9 7 18 2 27-3-7-5-15-6-22v-18l5-21v-3zM57 300c3-1 5-4 8-3l9 6a569 569 0 0130 25c3 6 5 14 6 21 1 4 2 8 1 12l-4 5-2-5c1-12 0-26-9-36-9-11-23-18-36-22l-1-1-2-2zM379 303c0-1 1-2 3-1l-3 1zM372 303h6-6zM55 312l1 3c-2-1-2-2-1-3zM60 315l1-3c1 1 1 2-1 3zM38 318l1 3c-2-1-2-2-1-3zM314 324c1 1 4 3 4 6 2 9 1 18 3 28 1 5 4 9 8 12l6 9 4 13c2 5 6 8 9 11-4 0-9-2-12-5-5-6-6-14-10-20l-5-17-7-10c-2-2-2-6-2-9l-2-15 4-3zM41 328l1 1h-7l6-1zM76 334c2 1 6 1 8 3 2 4 1 9 1 13-5 8-13 15-23 14-6-3-10-9-10-16l-1-2c-5 6-5 15-8 22-3 6-5 13-10 18-2 3-6 2-9 2l-2-5 2 1c0-10 2-20 4-30l4-13c2-3 6-4 9-3 6 1 10 6 15 9h10l3-1-8-3 8-2 7-7zM286 337c7 4 11 11 17 17h-2l-11-8-4-9zM137 338c2 2 5 4 5 8-1 7-4 14-9 19-4 6-12 8-18 12-9 4-17 11-23 19-3 5-7 11-13 13l1-9v3l7-12 10-7c8-6 19-8 27-16 5-3 6-9 7-14l6-16zM264 348l12 9 2 2c4 7 6 14 11 20l8 8-4 2c-4-2-9-5-11-9-4-5-3-11-6-16-3-6-10-8-14-13l2-3zM242 349c5 0 11 2 14 7 4 6 2 13 2 19-1 8 5 16 5 24l-6 15c-2 3-5 3-8 4 1-3 1-7 4-8 3-3 5-6 6-10 1-8-4-15-4-23 0-6 1-13-2-18l-7-6c-2 0-3-2-4-4zM19 355c-1-1-1-4 1-4l-1 4z"/><path d="M327 351c2 0 2 3 1 4l-1-4zM285 353c8 6 16 10 25 14h-12 7c-4-1-9-2-13-5-3-2-5-6-7-9zM226 361v-7l21 12-2 8-15-6-4-7zM18 361c-1-1-1-5 1-5l-1 5zM154 370c2-4 6-6 9-9 2 2 4 5 2 7-4 8-14 11-18 19-7 8-5 19-11 28 3-8 4-17 6-25l4-11 8-9zM90 365l4 1c-1 1-4 1-4-1zM46 370l1-4c1 1 1 4-1 4zM96 366l5 1c-1 1-5 1-5-1zM355 366a258 258 0 000 1v-1zM358 367l2 1h-2v-1zM404 368l2-1v1h-2zM275 370c1 0 2 1 1 2-1 0-2-1-1-2zM293 374c-1-1-1-5 1-4 0 1 1 3-1 4zM309 371l3-3c4 7 5 16 2 23l-1-15h-3l-1-5zM365 369l3 1c-1 1-2 1-3-1zM396 370l4-1c0 2-3 2-4 1zM369 370l6 1c-2 0-6 1-6-1zM45 376l1-4c1 1 1 4-1 4zM276 374l1 3c-2-1-2-2-1-3zM133 376c0-2 3-2 2 0h-2zM18 378l1 5c-2 0-2-4-1-5zM44 381l1-3c1 1 1 2-1 3zM324 388l1-7 2 7-1-6-2 6zM177 383l3 1c-1 1-2 1-3-1zM43 387l1-3c1 2 1 3-1 3zM177 388h1v2l-1-2zM323 391v-3c2 2 2 2 0 3zM179 394c1 2 2 6 0 8v-8zM304 395h1l-1 2v-2zM199 401l1-5c1 1 1 5-1 5zM220 399c-1-2 1-3 2-1l-2 1zM76 402c-1-1-1-4 1-4l-1 4zM204 403c-1-1-1-5 1-5l-1 5zM164 399l1 2h-1v-2zM252 399h1l-1 2v-2zM131 401c2 1 2 3 1 4-2-1-2-2-1-4zM267 404l1-3c1 2 1 2-1 3zM181 412c0-3-1-6 1-9l-1 9zM198 408l1-5c1 1 1 5-1 5zM300 403h1l-1 2v-2zM204 407l1 6c-2 0-1-4-1-6zM197 413l1-4c1 1 1 4-1 4zM308 411l3-1c-1 2-2 2-3 1zM76 414l1 2h-1v-2zM168 415c2 0 2 4 1 5l-1-5zM206 417l1 2h-1v-2zM248 420h6c0 2-6 2-6 0zM213 427l2 1h-2v-1zM156 431l1 2h-1v-2zM182 431l1 2h-1v-2z"/></g><g fill="#f28103"><path d="M82 69c10-1 19 1 27 5l8 6-18 3-21 9c-7 5-13 11-18 17l-8 14c-3-6-4-13-3-20v9c8-9 15-20 24-28 4-3 8-5 11-10 1-2-1-4-2-5zM231 83c9 1 17-1 26-1 10 0 19 4 28 7 3 1 7 2 10 1l-1-7c4 3 6 8 8 13 2 6 4 14 1 22-8-7-14-16-23-21-7-5-16-7-25-8s-19 2-28 3l4-9zM465 119c2 0 6 1 6 3 1 4-1 7-2 10a136 136 0 00-13 50l-1 31-5 37c-3 16-9 31-16 45a87 87 0 01-35 37c-8 4-18 6-27 5-8-1-18-4-24-10-8-7-15-16-22-25-5-5-2-13-4-19v-2c6 4 9 11 14 16l-3 5 4 7c7 9 16 18 28 21 15 5 32 1 44-10l13-17c13-19 21-41 24-64 3-17 2-34 3-51l3-28c1-10 5-20 10-29 2-3 2-7 3-10v-2zM234 133l9 7c9 5 19 7 29 6-15 18-25 40-32 62l-4 21-1 6-4-1c1-10 2-21 5-31l7-19c3-7 6-15 5-24-1-5-5-9-10-11l-2-1-2-15zM100 142c6-1 12-5 17-8 0 24 5 49 12 72l9 24c-8-6-12-16-15-26-5-14-7-29-14-42-4-6-10-12-18-12l-3 1-6-8c6 0 12 1 18-1z"/><path d="M475 137h7l-6 24-7 51-6 38c-2 11-7 22-10 33-5 14-10 28-19 39-6 7-12 13-19 18-9 7-21 11-33 12a61 61 0 01-45-16c-4-5-10-9-12-15-1-5-3-9-6-13a298 298 0 013-6l11 14v8c6 10 16 17 27 21 20 7 42 1 58-12 9-8 17-18 23-29 10-20 15-43 19-65 8-31 7-64 15-96v-6z"/><path d="M393 164c5-2 11-3 16-2 9 2 18 5 24 11 5 6 7 14 8 22 1 21-2 42-8 63-5 15-12 29-21 42-7 9-16 18-28 21-12 2-24-3-32-11-9-8-16-17-23-26l-10-11c-3-6-6-13-11-18l-11-8c-4-4-9-7-12-12-4-4-7-9-8-14 3 2 6 4 8 8s7 6 10 9l6 7c9 7 16 16 23 25 12 12 22 25 33 38 4 4 10 7 16 8 9 0 17-5 24-10 8-6 14-14 18-23 8-15 14-30 18-46l3-33c1-7 1-15-3-22-3-6-8-11-14-15-8-5-17-4-26-3z"/><path d="M486 163h6c-1 8-6 16-7 24l-7 51c-4 18-7 35-13 52-4 12-8 24-15 34a98 98 0 01-43 40c-9 4-19 4-28 4-18 0-34-8-47-20-2-1-5-2-5-5v-12c3 2 6 4 7 8 0 3 0 6 2 8 17 16 44 22 66 13 15-7 29-17 39-31 9-12 14-26 20-39l12-48 5-39c1-9 1-19 4-27l3-9 1-4zM195 193c9-4 18-5 27-4 2 0 5 1 6 3l-2 8c-5 0-11 2-16 1l-15-8zM130 198c7-2 14-2 21 0l-11 10-6 4-4-14zM166 204c11-3 23-2 33 4l10 5c2 0 3-2 4-4l7 7-3 10-16-12c-11-7-25-9-37-5-10 4-15 13-22 20l-5-10 2-6h1c2 1 4 2 6 1 7-3 13-8 20-10zM213 204c4-1 8-1 11 1l-2 7c-4-2-7-5-9-8zM96 221c4-7 10-13 16-18l4 10v2l-20 6z"/><path d="M368 203c2 2 5 2 6 5 4 8 1 18 5 26 2 6 8 10 14 11 5 2 11 3 16 0 6-2 9-7 13-11-1 8-4 15-7 23l-6 6-1-3c-1-5-6-6-10-7-8-1-15-3-21-8-9-10-9-24-9-36v-6zM244 205h1c1 2 0 5 3 5 9 1 18-1 27 2 6 2 10 8 14 13 2 2 4 2 7 2l3 9c-5-2-10-6-13-11-5-8-14-11-23-11-8-1-15 1-22 3l3-12zM178 210c5 0 11 1 15 4-3 4-9 3-12 6l-4 2-8-3c3-3 5-7 9-9zM152 222c5-6 12-10 19-11l-12 14-7-3zM192 218l4-3 6 4-6 2-4-3z"/><path d="M245 220c3-2 7-3 11-3l9 17h-10l-10-14zM260 217c4 0 9-1 12 2 2 2 2 4 3 7h-11l-4-9zM113 219l5-1 4 10-14 3c2-2 4-3 5-6v-6zM182 222l5-2c4 0 6 3 8 6 6 7 9 17 12 26 4 12 8 25 9 38 1 8-2 16-5 23-1 7-4 12-4 19 0 9 3 17 6 25 3 6 8 12 9 19 0 11-6 20-5 31 0 6 2 12 4 18h-2c-5-7-7-17-5-25 0-8 5-16 4-24s-7-14-10-21c-4-9-7-18-6-28 1-9 6-17 8-27 2-12-1-25-4-36-4-13-9-25-15-36-2-3-6-5-9-6zM240 221c6 2 8 9 11 14l-12 1 1-15z"/><path d="M165 222c3 0 7 0 9 2 4 2 7 7 9 12l14 36c3 9 7 17 5 26-1 9-7 16-8 25 0 8 2 16-2 24-1 3-3 6-6 8-5-6-6-15-4-23 0 4-1 8 1 11 3 1 6 0 7-2 2-7 1-14 2-20 1-9 6-17 6-26 0-13-5-24-10-36l-15-29c-1-4-4-6-7-8h-1zM205 222c3 0 6 1 8 4a145 145 0 0116 67c-1 10-1 20 4 29 3 6 12 5 18 5 8 0 17-5 25 0s6 16 12 22c7 6 16 10 24 15l-2 3c-9-4-17-8-25-14l-5-8c-2-4-3-10-8-12-9-5-19-1-29-2-7-1-15-5-18-12-3-15-2-29-2-44l-6-30c-3-8-7-16-12-23z"/><path d="M148 228c3-4 7-1 11 0 6 5 9 12 12 18 7 17 13 34 14 52 1 6-1 11-3 16-3 7-3 15-4 23 0 5 0 11 3 15 3 6 8 9 11 15 4 8 5 18 5 27 0 11-5 21-4 32 1 5 5 9 7 13-3-1-7-3-8-7-3-7 0-14 0-21 1-12 4-24 0-36-3-10-14-16-16-27-3-12 0-24 3-36 4-12 1-26-2-38-4-12-8-24-14-36-3-5-9-9-15-10zM108 234c5-2 9-2 14-1l2 4c-7 1-13 2-19 5l4 3h-9l3-1-5-1c3-4 6-7 10-9zM75 241c8 1 16-3 24-5-2 2-4 6-7 7l-9 2c-5 0-9 2-14 4 1-3 3-6 6-8zM253 238c6-1 13-2 19 2l-1 2-8 1-3-5h-7zM275 238h7l7 6h-2l-7-1-5-5zM228 261c12 4 22 13 26 24 3 9 2 18-1 26-1 4-2 8-5 11-2 3-5 2-8 2 6-3 8-9 11-14 5-13 0-28-9-37-2-1-5-4-7-2-3 2-1 6-1 9-2-1-3-1-3-3-2-5-2-11-3-16zM54 277c4-5 10-9 16-11-6 7-14 14-16 24-3 10-4 22 1 32 3 6 9 10 14 15l-8 2c-6 0-9-5-14-8l5-4c0-5-4-9-4-14-2-12-1-25 6-36z"/><path d="M58 286c2-4 5-8 8-10v11c1 5 5 8 8 11l14 12c7 5 14 9 19 16 4 8 6 16 8 24l5 10c-3 3-7 6-12 8l-1-2 4-5c1-4 0-8-1-12-1-7-3-15-6-21l-10-10-20-15-9-6c-3-1-5 2-8 3-2-5 0-10 1-14zM158 287l9-7 2 16c0 3-2 6-4 8-6 9-8 20-4 30 2 5 2 11 3 16l1 6-3 2-4-4 1-3c5-9-2-18-2-27 0-10 6-19 6-29 1-4-3-6-5-8z"/><path d="M71 290c-1-3 0-6 1-8l5 8v5l-6-5zM64 312l12 7c-1 5-1 11-5 15l-7-7c-2-5-1-10 0-15zM309 322l8-11c4 6 7 13 7 20 1 9-2 18 1 27 3 6 10 10 14 16 3 6 1 13 5 18l10 9-6 2c-3-3-7-6-9-11l-4-13-6-9c-4-3-7-7-8-12-2-10-1-19-3-28 0-3-3-5-4-6l-4 3-1-5zM79 322l13 13-7 15c0-4 1-9-1-13-2-2-6-2-8-3l3-12zM212 322l6 11-7 9c-1-7-1-14 1-20zM298 331l7-6c4 7 4 14 4 20-5-4-8-9-11-14zM137 337l6-9 5 18c-3 11-10 21-18 29-8 6-19 7-26 14-9 7-15 18-21 28-4-1-4-6-4-8 6-2 10-8 13-13 6-8 14-15 23-19 6-4 14-6 18-12 5-5 8-12 9-19 0-4-3-6-5-8v-1zM293 333h1l11 13 12 15c8 14 6 33-5 45-3 2-6 2-10 2l3-5c5-2 8-7 9-12 3-7 2-16-2-23 2-1 4-4 2-6l-13-8h2c-6-6-10-13-17-17l-1-2 8-2zM220 336l8 7c-5 4-7 10-10 15l-5-11c1-4 4-8 7-11z"/><path d="M116 338c5 1 11 0 16-1l-7 14c-2 0-5 0-6-3-2-3-2-6-3-10zM94 339l5 9c-3 1-5-1-8-1l3-8zM258 344c3-1 7-3 10 0l8 13-12-9-2 3-4-7zM237 345l17-1 7 14c2 8-4 15-2 22 2 6 7 10 6 17-1 6-2 14-8 17l6-15c0-8-6-16-5-24 0-6 2-13-2-19-3-5-9-7-14-7-3 0-4-2-5-4z"/><path d="M231 345c6 5 12 10 16 16l-21-11 5-5zM48 359l4-11c0 7 4 13 10 16-5 0-10-2-14-5zM89 350l11 2 2 12-20-4 7-10zM146 360l5-10 8 10-6 5-7-5zM191 356c0-2 2-5 3-3 2 7 8 11 10 17 2 3 3 6 3 10l-7-1c-3-5-3-12-7-17-1-2-4-4-2-6zM224 353l2 1v7l4 7-10-4 4-11zM121 354c1-1 3 0 2 2-1 1-4-1-2-2zM264 357c4 2 7 5 9 8l-7 8-3-1 1-15zM163 361l3-2c3 4 6 9 10 12l-24 17c-4 4-6 9-7 14-1 7-3 14-8 19-4 5-10 6-16 6l-3-3c7 0 15-3 18-9 6-9 4-20 11-28 4-8 14-11 18-19 2-2 0-5-2-7zM278 359l12 10 3 9c2 3 6 5 9 7-1 4-6 4-9 4l4-2-8-8c-5-6-7-13-11-20zM144 363c3 1 5 3 6 5l-9 7-4-2 7-10zM33 386c5-5 7-12 10-18l-3 21-4 8h-7l-5-9c3 0 7 1 9-2zM223 369c5 2 9 5 12 9 2 3 2 6 2 9l-12-5-2-13zM172 378l7-4 3 7-10-3zM262 375c5 2 9 5 13 9 2 3 2 7 2 11-8-3-15-11-15-20zM119 384l11-5 5 4-3 15c-5-4-10-8-13-14z"/><path d="M158 388l8-6c3 2 7 4 8 8 4 6 3 13-1 19h-2c-2-5-3-10-6-14l-7-7zM199 383h8l-1 6-7-6zM224 386c5 1 10 2 15 5 5 5 4 13 1 18l-7-7-11-8 2-8zM149 397c11 6 19 17 17 29 0 3-3 5-5 7l-4-11c-2-5-7-8-10-11-1-5 1-10 2-14z"/></g><g fill="#ffe593"><path d="M242 74c16-9 37-7 50 7-5 0-9-3-14-4-7-2-15-2-22-1-8 0-16 4-24 7 2-4 7-7 10-9zM57 83c5-7 13-11 22-13h2L59 87c-6 6-8 15-10 23v-7c1-7 3-15 8-20zM448 131c5-5 10-11 17-12v2l-10 9c-5 7-8 15-10 23l-6 24v-10c0-12 2-25 9-36zM467 147c1-5 4-8 8-10v6l-9 6 1-2zM236 148l2 1 2 19c-1 14-4 28-10 41-3 8-6 15-11 21v-2l11-30 5-26 1-24zM88 151l3-1 11 11 12 25c4 11 8 22 10 34 1 5 4 11 2 17l-2-7-4-16c-9-22-17-44-32-63zM478 170l8-7-1 4c-2 2-3 3-5 3h-2zM381 179c0-5 3-10 7-13-2 5-2 9-2 14 6-2 12-5 18-5s13 1 19 4c5 4 8 11 9 18 2 17 0 34-5 51-6 19-15 37-29 52-4 5-9 10-15 11-7 2-14 0-19-3-7-4-11-10-16-16l-20-24c-5-4-8-9-12-14-3-2-5-4-6-7 16 13 29 30 43 45 4 6 10 11 16 14 8 2 16-1 22-5 7-7 14-15 18-25s10-20 13-30c5-15 8-31 6-47-1-5-2-10-6-13-4-4-10-6-16-6-7 0-12 4-19 5-3 1-6-3-6-6zM170 195a43 43 0 0141 13l-17-8c-9-2-19-2-28 1s-18 8-26 12h-1c8-9 19-16 31-18zM249 204c8-2 18-1 26 2 7 3 13 9 17 15v2c-4-4-7-8-13-10-9-5-20-7-30-9z"/><path d="M360 217c1-5 2-11 8-14v6c-1 9-3 19 0 28 3 10 11 19 22 22l18 1 1 3c-7 3-16 2-23 0-10-2-17-10-22-19-4-8-4-18-4-27zM77 238c9-9 20-15 33-18l2 1-35 19v-2zM154 244c5 4 8 11 11 16 5 8 10 17 11 26v19l-5 22c0 9 0 18 3 26 2 5 6 9 10 13 4 6 6 13 7 20 1 14-4 28-3 42 0 5 4 8 6 11h-2c-4-2-6-6-8-10-2-6 0-12 0-18 1-11 3-21 1-32-2-7-7-11-12-15-4-5-6-11-6-17-1-9-2-18 0-27l4-16c2-11 0-23-5-33-3-10-8-18-12-27zM64 255c8-5 17-8 27-9h6c-10 3-21 7-30 13-13 8-20 23-22 37-2 11 2 22 1 33l-4-7c-3-11-4-24-1-35 3-13 11-26 23-32zM235 281c5 1 9 5 12 9 2 5 2 10 1 15-1 7-6 13-12 17l-1-3c6-7 10-16 8-26-1-5-5-9-8-12zM154 293l4-3-5 21v18c1 7 3 15 6 22l-1 3c-7-10-12-22-12-34 0-9 3-19 8-27z"/><path d="M60 303c13 4 27 11 36 22 9 10 10 24 9 36l-4-17c-4-10-11-18-19-25-7-6-18-8-22-16zM216 319c7 7 13 14 22 17 9 2 17-2 26-2 7 0 12 6 16 11l5 8c2 3 4 7 7 9 4 3 9 4 13 5h-7c-5 0-11-3-14-7-5-5-9-10-12-16-2-2-4-4-7-4-10 0-20 3-29 1-11-2-18-12-20-22zM25 343c1-8 9-13 17-11 5 2 9 6 13 10 3 3 8 4 11 5H56c-5-3-9-8-15-9-3-1-7 0-9 3l-4 13c-2 10-4 20-4 30l-2-1c-2-13-1-27 3-40zM137 337v1l-6 16c-1 5-2 11-7 14-8 8-19 10-27 16l-10 7-7 12v-3c1-10 8-18 17-23 8-4 17-6 23-13 8-7 10-18 17-27zM246 353l7 6c3 5 2 12 2 18 0 8 5 15 4 23-1 4-3 7-6 10 1-5 4-10 3-16-2-5-5-9-6-14v-17c0-4-2-7-4-10zM139 382c4-5 9-9 15-12l-8 9-4 11c-2 8-3 17-6 25-3 6-11 9-18 9 5-5 11-7 14-12 5-9 2-21 7-30zM310 376h3l1 15c-1 5-4 10-9 12l6-16c1-4 0-8-1-11z"/></g><g fill="#2d0000"><path d="M90 90c1-1 3-2 4-1 4 2 6 5 9 8-7 6-17 4-21 12-4 1-6 3-9 6l-1 1c-1-4-6-9-3-13 6-5 13-10 21-13zM252 96c2-2 4-4 8-3 7 1 14 3 21 7 4 3 1 9 1 14-9-7-18-13-29-14l-1-4z"/></g><g fill="#fffdf4"><path d="M103 93l9-1c3 2 6 5 7 9 4 9 2 19-4 27-5 6-11 9-18 12-13 2-28-2-37-12l9-12c5 7 14 9 22 9 8-1 15-7 16-15 2-6 0-12-4-17zM227 104c6-3 12-6 19-7v2l-1 2v1c-2 6 0 13 5 18 3 4 8 6 13 7 9 1 19-4 22-13 7 1 9 9 7 15-4 7-13 9-21 10-9 2-18 0-26-2-12-6-18-20-18-33z"/><path d="M249 111c-3 0-4-5-1-7l4 1c4 1 8 1 11 4 2 1 1 3 1 5l-15-3zM92 110l3-3 3 2-4 5c-1-1-3-2-2-4zM82 109c2 0 6-2 8 1-1 5-6 6-10 8-3 1-6 0-7-3 3-3 5-5 9-6zM268 111c2 0 6 0 5 3 0 3-4 2-6 1l1-4z"/></g><g fill="#470101"><path d="M248 102l4-6 1 4c11 1 20 7 29 14l-6 7c-9 7-25 2-28-10h1l15 3c0-2 1-4-1-5-3-3-7-3-11-4l-7-3v-1l3 1m20 9l-1 4c2 1 6 2 6-1 1-3-3-3-5-3zM103 97c1 5 2 9 1 14-2 5-7 9-12 10s-10 0-14-1l2-2c4-2 9-3 10-8-2-3-6-1-8-1 4-8 14-6 21-12m-11 13c-1 2 1 3 2 4l4-5-3-2-3 3z"/></g><g fill="#bf340b"><path d="M460 116c5 0 11-1 14 3v8l-2 7c-2 1 0 3 1 1l4-1h4l4 1-1 9-1 2-1 5-1 2v1l-1 3v2c-1 1-2 6 0 4s4-4 7-3a26 26 0 007 0l1 8-1 1-1 2-2 6-2 7v1l-1 3v2l-1 5a119 119 0 01-1 8v3l-1 4a2923 2923 0 00-2 16v1l-1 4v3l-1 4v1l-1 3a182 182 0 01-1 6v1l-1 3v1l-1 4v1l-1 3-1 7-1 2v1l-2 6v2l-1 2-1 4-1 3-1 4c-2 1-2 3-2 5v1l-1 2c-1 5-3 11-6 15l-2 4-3 6v1c-7 9-13 18-22 25l-1 1-5 4-1 1c-3 2-5 4-9 5l-7 4-3 1-2 1-1 1h-3l-4 1h-2l-4 1h-15l-6-1h-1l-3-1-5-1-2-1h-1l-2-1-12-5v-1h-1c-5-3-10-6-13-10a1079 1079 0 00-2 0v1l1 4 3 6 2 2c4 4 9 8 10 13l1 10 7 8c3 2 6 3 7 7-1 1-1 3-3 3l-5 2h-5c-2 1-5-1-7-2-5-3-8-9-11-14v-1-1l-2-7-1 7h-1v3c0 6-4 10-7 15l-5 4-3 1c-3 1-6 0-8-1v-2-3l1-2 3-6a154 154 0 012-5c3-4 3-9 2-13l-2-7-1-1-10-1h-1c-2-1-2 3-1 4 3 4 9 5 12 9v5l-4 4-10-1c-5-1-8-5-12-8v-1l-2-5-1-3v-2c1-1 0-2-1-2l-1-1h-1v1l-1 1v1l-2 4 3 2 1 1c3 2 5 4 5 8a60 60 0 010 11h-5-1l-2-2-3-3v7a107 107 0 00-1 4c0 4-2 7-5 10-2 3-4 6-8 6a39 39 0 00-8 0l-1-2 7-17 1-2c0-6-3-10-6-15-2-4-5-6-9-8l1 4 1 2v2c0 2-1 3 1 5s5 5 4 8a87 87 0 000 9l-1 2-2 4h-5c-4-6-9-10-15-14-1-2-3-1-2 1v13c-1 2 0 4 2 6l3 7-1 3h-7-2l-2-1-2-1-1-1c-1-2-3-3-3-6l-1-2-1-1v-3l-1-6v-4l1-5 1-6-6-3v7l-1 5v2l-1 5v1l-1 4v2 13l7 10c3 2 2 5 2 8h-4c-5 0-10-3-15-6-2-2-4-4-4-7l-1-2-1-4v-12-3a71 71 0 001-14c1-4 2-9 0-13l-2-1-3-1h-1a306 306 0 00-4-1l2 2 1 1 2 3 1 2 1 1v14l-1 1-1 2-2 4h-4-2l-4-11-1-2-7-8c-3-1-4 2-5 3l6 5 2 2 5 5v1c1 2 3 5 3 8l1 5v7c0 4-2 7-6 8h-4l-2-2-1-2v-2-3c-2-5-6-10-11-12h-1l-1 4c-2 6-7 11-13 11l-12 1c-3-2-3-6-3-9l11-7c3-2 3-6 6-9 1-1 1-3-1-4-6-4-11-9-15-15-6 3-13 6-16 11l-1 1-12 18v1l-3 3-5-1-1-1-1-2-1-2v-1-7-4l1-4a27 27 0 015-14l4-3 1-1 7-5 6-3 5-2-1-3a280 280 0 01-8-1h-2l-4-1c-4 0-8-2-11-3-4 3-8 5-13 5h-4c-5 0-10-1-13-4-1-2-3 0-2 1v2l-1 4v2l-1 4v2l-1 3v3l-1 3v1l-1 3c0 4-3 9-7 9l-2 1h-1l-3-1h-2c-3-5-8-11-8-17l-1-5a77 77 0 011-22v-1l1-4v-2l1-3 3-10c2-4 6-6 11-7h7l-1-1-2-7-1-3v-2l-1-2v-20-2l1-4v-1l1-3 2-7 7-12c3-6 9-10 14-14l10-11c4-7 11-12 17-16l11-14 10-9 1-1 1 3c-6 5-12 11-16 18l20-6v-2l2 5a86 86 0 00-8 2 69 69 0 00-41 29c5-2 9-4 14-4l9-2c3-1 5-5 7-7l9-5 14-3a454 454 0 002 2l2 7v3a88 88 0 01-4-7c-5-1-9-1-14 1-4 2-7 5-10 9l5 1-3 1-9 1c-10 1-19 4-27 9-12 6-20 19-23 32-3 11-2 24 1 35a27 27 0 005 9c5 3 8 8 14 8l8-2c-5-5-11-9-14-15-5-10-4-22-1-32 2-10 10-17 16-24l12-4c-3 2-7 4-9 7-2 2-1 5-2 8l5-2-4 7c-1 2-2 5-1 8l6 5v-5a116 116 0 011-3c0 4-2 9 2 12l10 8c6 5 14 10 18 17l8 14c1 4 1 7 3 10 1 3 4 3 6 3l7-14c3-5 8-9 10-15l3-17c3-9 9-18 16-25 1-2 5-4 3-6-4-12-10-23-17-33l-5-12c7-7 12-16 22-20 12-4 26-2 37 5l16 12 1 3c2 6 5 11 6 17l4 10 8 4 6 4c7 5 12 13 16 21v21c-1 6-4 12-7 18 8-1 16-3 23-1 5 2 8 6 11 9 2 3 6 1 8 1l-8 2 1 2 4 9 11 8 13 8c2 2 0 5-2 6l-3 3 1 5c1 3 2 7 1 11l-6 16-3 5c4 0 7 0 10-2 11-12 13-31 5-45l-12-15-11-13 4-2c3 5 6 10 11 14 0-6 0-13-4-20l4-3a498 498 0 003 20c0 3 0 7 2 9l7 10 5 17c4 6 5 14 10 20 3 3 8 5 12 5l6-2-10-9c-4-5-2-12-5-18-4-6-11-10-14-16-3-9 0-18-1-27 0-7-3-14-7-20l2-3c3 4 5 8 6 13 2 6 8 10 12 15s9 8 15 11c10 3 20 7 30 5 12-1 24-5 33-12 7-5 13-11 19-18 9-11 14-25 19-39 3-11 8-22 10-33l6-38 7-51 6-24h-7c-4 2-7 5-8 10-4 11-6 24-7 36l-4 47c-2 13-3 25-7 37-4 13-10 25-16 37-3 6-8 11-12 16-9 8-18 15-29 18-13 4-27 2-40-3-7-5-13-12-19-19l-11-14-2 3c2-7 3-15 2-22 2 6-1 14 4 19 7 9 14 18 22 25 6 6 16 9 24 10 9 1 19-1 27-5s15-10 21-17c6-5 10-13 14-20 7-14 13-29 16-45l5-37 1-31 4-23 9-27c1-3 3-6 2-10 0-2-4-3-6-3-7 1-12 7-17 12-7 11-9 24-9 36v10c2 4 4 8 4 13a171 171 0 01-24 105c-5 7-10 15-17 20s-15 9-23 10c-8 0-17-3-24-7-7-6-13-13-19-21-5-5-8-12-14-16l-3-8 10 11c7 9 14 18 23 26 8 8 20 13 32 11 12-3 21-12 28-21 9-13 16-27 21-42 6-21 9-42 8-63-1-8-3-16-8-22-6-6-15-9-24-11a31 31 0 00-21 4c-4 3-7 8-7 13 0 3 3 7 6 6 7-1 12-5 19-5 6 0 12 2 16 6 4 3 5 8 6 13 2 16-1 32-6 47-3 10-9 20-13 30s-11 18-18 25c-6 4-14 7-22 5-6-3-12-8-16-14-14-15-27-32-43-45-4-4-10-6-15-9-3-3-8-5-10-9s-5-6-8-8c1 5 4 10 8 14 3 5 8 8 12 12l-10-3h2l-7-6-7-12c-1-3-1-5-3-7-3-3-8-2-12-2a66 66 0 0020 26l-9-1 1-2c-6-4-13-3-19-2-5 0-10 2-15 1l-12-6 5 1 4 1 1-6v8a408 408 0 013-1l12-1c-3-5-5-12-11-14l1-4c7-2 14-4 22-3 9 0 18 3 23 11 3 5 8 9 13 11a53 53 0 00-7-15c-4-6-10-12-17-15-8-3-18-4-26-2a58 58 0 00-5 1l4-11 5 6h9c3 0 6-1 8 1l3 1c7 2 14 7 18 13 0 2 1 3 3 4s3 4 4 6c0 2 0 3 2 4l2 7c-1 1 0 2 1 3 9 5 16 12 23 19 9 7 16 17 24 25l11 14 8 5 2 1h8l3-1c6-3 11-8 16-13l8-14 2-4v-2l1-1c2-1 0-3-1-1h-1l-3 1h-12l-4-1c-8 0-14-5-19-11l-8-11-1-2-1-1v-2l-1-4v-1l-1-5v-3-7-2l1-4v-1l1-3c0-3 2-6 4-8h11c3 4 6 9 5 14l1 12 4 8c3 4 8 5 12 7l4 1h6l10-7 8-12 1-4v-1a58 58 0 000-21v-3c-2-3-3-6-6-8l-7-4-3-1h-6l-2 1c-4 1-8 4-12 4h-5-2l-4-4v-4-2c-1-6 4-11 8-15 3-1 5-3 8-3l3-1h14l3 1c8 1 15 5 21 11l1 1a509 509 0 001-18v-3a120 120 0 001-4l1-2 2-6c2-4 4-9 7-12 4-4 7-8 12-11m26 47l-8 7v-1c-1 16-4 32-7 49-2 14-4 29-8 43-6 18-10 37-20 53a88 88 0 01-39 36c-13 5-27 8-40 4-6-2-13-3-18-7l-12-8c-1-4-4-6-7-8v12c0 3 3 4 5 5 13 12 29 20 47 20 9 0 19 0 28-4 18-8 33-23 43-40 7-10 11-22 15-34 6-17 9-34 13-52l7-51c1-8 6-16 7-24h-6m-126 54c0 9 0 19 4 27 5 9 12 17 22 19 7 2 16 3 23 0l6-6c3-8 6-15 7-23-4 4-7 9-13 11-5 3-11 2-16 0-6-1-12-5-14-11-4-8-1-18-5-26-1-3-4-3-6-5-6 3-7 9-8 14m-182-7c-4 2-6 6-9 9l8 3 4-2c3-3 9-2 12-6-4-3-10-4-15-4m-26 12l7 3 12-14c-7 1-14 5-19 11m40-4l4 3 6-2-6-4-4 3m53 2l10 14h10l-9-17c-4 0-8 1-11 3m-63 2l-2 2c8 14 13 30 19 45 3 8 7 17 7 26 0 8-4 15-7 22-2 6-2 11-1 17v19c0 4 4 7 7 10l5 14c1 8-1 15-2 23-2 7 0 16 4 23 2 2 5 2 7 2h2c-2-6-4-12-4-18-1-11 5-20 5-31-1-7-6-13-9-19-3-8-6-16-6-25 0-7 3-12 4-19 3-7 6-15 5-23-1-13-5-26-9-38-3-9-6-19-12-26-2-3-4-6-8-6l-5 2m-17 0h1l-4 4c4 5 8 10 10 16 7 16 14 33 16 51 1 7 0 14-2 21-3 5-4 12-4 18-2 8-1 17 4 23 3-2 5-5 6-8 4-8 2-16 2-24 1-9 7-16 8-25 2-9-2-17-5-26l-14-36c-2-5-5-10-9-12-2-2-6-2-9-2m33 2c6 10 11 21 14 32 3 13 8 26 8 39 0 7-4 13-5 19l1 5c2 10 9 20 20 22 9 2 19-1 29-1 3 0 5 2 7 4 3 6 7 11 12 16 3 4 9 7 14 7h12l2-3c-8-5-17-9-24-15-6-6-4-17-12-22s-17 0-25 0c-6 0-15 1-18-5-5-9-5-19-5-29a145 145 0 00-15-67c-2-3-5-4-8-4l-7 2m-50 4l-1-1-2 5c3 4 5 9 9 12 4 9 9 17 12 27 5 10 7 22 5 33l-4 16c-2 9-1 18 0 27 0 6 2 12 6 17 5 4 10 8 12 15 2 11 0 21-1 32 0 6-2 12 0 18 2 4 4 8 8 10 3 2 7 4 11 4l-3-4c-2-4-6-8-7-13-1-11 4-21 4-32 0-9-1-19-5-27-3-6-8-9-11-15-3-4-3-10-3-15 1-8 1-16 4-23 2-5 4-10 3-16-1-18-7-35-14-52-3-6-6-13-12-18-4-1-8-4-11 0m80 33c1 5 1 11 3 16 0 2 1 2 3 3l1 1c3 3 7 7 8 12 2 10-2 19-8 26l1 3 4 2c3 0 6 1 8-2 3-3 4-7 5-11 3-8 4-17 1-26-4-11-14-20-26-24M58 286c-1 4-3 9-1 14l2 2 1 1c4 8 15 10 22 16 8 7 15 15 19 25l4 17 2 5 1 2c5-2 9-5 12-8l-5-10c-2-8-4-16-8-24-5-7-12-11-19-16l-14-12c-3-3-7-6-8-11v-11c-3 2-6 6-8 10m100 1v3l-4 3c-5 8-8 18-8 27a57 57 0 0016 38l3-2-1-6c-1-5-1-11-3-16-4-10-2-21 4-30 2-2 4-5 4-8l-2-16-9 7m73-4v23l4 7c5-6 6-15 4-22-1-4-4-6-8-8M55 303v9c-1 1-1 2 1 3l4 7v-7c2-1 2-2 1-3 1-1 0-3-1-4l-5-5m9 9c-1 5-2 10 0 15l7 7c4-4 4-10 5-15l-12-7m15 10l-3 12-7 7-8 2 8 3-3 1c-3-1-8-2-11-5-4-4-8-8-13-10-8-2-16 3-17 11-4 13-5 27-3 40l2 5 5 9h7l4-8 3-21c3-7 3-16 8-22l1 2-4 11c4 3 9 5 14 5 10 1 18-6 23-14l7-15-13-13m133 0c-2 6-2 13-1 20l7-9-6-11m-75 15c-7 9-9 20-17 27-6 7-15 9-23 13-9 5-16 13-17 23l-1 9c0 2 0 7 4 8 6-10 12-21 21-28 7-7 18-8 26-14 8-8 15-18 18-29l-5-18-6 9m83-1c-3 3-6 7-7 11l5 11c3-5 5-11 10-15l-8-7m-126 3l-3 8c3 0 5 2 8 1l-5-9m164 5l4 7c4 5 11 7 14 13 3 5 2 11 6 16 2 4 7 7 11 9 3 0 8 0 9-4-3-2-7-4-9-7l-3-9-12-10-2-2-8-13c-3-3-7-1-10 0m-21 1c1 2 2 4 5 4 1 2 2 4 4 4 2 3 4 6 4 10v17c1 5 4 9 6 14 1 6-2 11-3 16-3 1-3 5-4 8 3-1 6-1 8-4 6-3 7-11 8-17 1-7-4-11-6-17-2-7 4-14 2-22l-7-14-17 1m-6 0l-5 5 21 11c-4-6-10-11-16-16m-142 5l-7 10 20 4-2-12-11-2m57 10l7 5 6-5-8-10-5 10m45-4c-2 2 1 4 2 6 4 5 4 12 7 17l7 1c0-4-1-7-3-10-2-6-8-10-10-17-1-2-3 1-3 3m33-3l-4 11 10 4 15 6 2-8-21-12-2-1m-103 1c-2 1 1 3 2 2 1-2-1-3-2-2m143 3l-1 15 3 1 7-8c-2-3-5-6-9-8m-101 4c-3 3-7 5-9 9-6 3-11 7-15 12-5 9-2 21-7 30-3 5-9 7-14 12l3 3c6 0 12-1 16-6 5-5 7-12 8-19 1-5 3-10 7-14l24-17c-4-3-7-8-10-12l-3 2m-19 2l-7 10 4 2 9-7c-1-2-3-4-6-5m79 6l2 13 12 5c0-3 0-6-2-9-3-4-7-7-12-9m-51 9l10 3-3-7-7 4m-39-2l4 4 1-2-2-2h-1c1-2-2-2-2 0m129-1c0 9 7 17 15 20 0-4 0-8-2-11-4-4-8-7-13-9m-143 9c3 6 8 10 13 14l3-15-5-4-11 5m39 4l7 7c3 4 4 9 6 14h2c4-6 5-13 1-19-1-4-5-6-8-8l-8 6m41-5l7 6 1-6h-8m25 3l-2 8 11 8 7 7c3-5 4-13-1-18-5-3-10-4-15-5m-75 11c-1 4-3 9-2 14 3 3 8 6 10 11l4 11c2-2 5-4 5-7 2-12-6-23-17-29zM126 184c2 1 2 2 1 3l-1-3z"/><path d="M210 186h11l6 1h3l-2 5c-1-2-4-3-6-3-9-1-18 0-27 4l15 8c5 1 11-1 16-1l-2 5c-3-2-7-2-11-1 2 3 5 6 9 8l-2 4-7-7-2-2c-6-5-11-9-18-11-8-2-16-3-23-1-12 2-23 9-31 18l-2 6-3-7 6-4 11-10c-7-2-14-2-21 0l-1-3 7-1h10l6 1h1c3 1 6 1 8-1l7-2 3-1h10c2 1 4 2 6 1l7-2 2-1c2-2 5-2 8-2l6-1zM230 247c5 2 11 3 16 3l-5 4-11-7zM272 259c4-1 10-1 13 2 3 2 6 5 5 9 1 4-3 9-7 8l-13-3c-3-1-4-4-4-7-1-4 3-8 6-9zM108 268c5-1 11 0 14 4 3 3 3 9-1 11l-12 6c-6 2-11-4-10-9s4-10 9-12z"/></g><g fill="#960701"><path d="M268 245c6-2 12 0 18 2 6 1 13 4 17 9 4 4 5 9 7 13 3 6 3 14 3 21 0 9-5 17-12 22s-16 9-24 6c-6-1-13-5-14-11s1-13-2-19c0-2-2-3-3-3-4-8-9-16-16-21 1-4 3-9 7-12 5-5 12-6 19-7m4 14c-3 1-7 5-6 9 0 3 1 6 4 7l13 3c4 1 8-4 7-8 1-4-2-7-5-9-3-3-9-3-13-2zM111 251c8-1 16-1 23 1l-3 1c7 5 14 13 15 22 1 6-3 12-5 17-2 8 0 16-3 23-3 4-6 8-11 9-3 0-7 0-10-2l-10-13-15-9c-6-3-8-10-14-13v-2c3-17 16-31 33-34m-3 17c-5 2-8 7-9 12s4 11 10 9l12-6c4-2 4-8 1-11-3-4-9-5-14-4z"/></g></svg>