<svg width="683" height="683" viewBox="0 0 512 512" xmlns="http://www.w3.org/2000/svg"><g fill="#950700"><path d="M143 43c7-18 28-29 47-25 13 2 27 9 34 21 5 13 6 28-2 39-3 5-1 11-2 17a92 92 0 01-10 40l-8 7-5 5c-7 6-16 10-22 18l-2 6c-2 8-1 17-1 25l-1 6-1-5v-25c0-8 6-13 11-18 7-4 13-8 19-14 7-5 11-13 13-21 3-11 4-22 4-33l-10 8-14 5-1 8-2 10c-2 7-7 12-12 16-7 7-17 12-23 20-8 10-10 24-10 36l-1 16-2-15a409 409 0 010-14 59 59 0 0111-26l1-2 3-3c10-8 21-13 27-24 5-6 4-14 5-21-8 0-17 0-24-4-10-5-19-13-23-24-3-9-2-20 1-29m14-13l-1 2 1 1 5 7c8 4 18 7 27 6 10 0 21-2 29-9-3-5-7-8-12-10l-9-4c-13-5-29-3-40 7m-10 14c-3 8-5 18-1 27 3 9 10 16 19 21 11 6 25 5 36 0 9-3 17-11 21-19 4-11 2-23-2-33-6 5-14 8-22 9l-2 10c-2 4-4 8-8 9-9 6-22 3-27-6-3-3-3-8-3-12l2-7-7-9c-3 3-5 6-6 10m16 1c-1 3-2 6-1 9h-2c1 2 0 3 2 4 2 3 6 2 9 2l-7 1c5 7 16 10 23 4 6-3 7-10 7-16h-15l-16-4zM296 33c10-11 26-16 41-13 12 4 23 10 30 21 4 6 5 14 5 22s-3 16-7 22c-2 1-3 3-3 5l-3 19c-3 10-5 20-12 28-5 6-11 11-18 14a143 143 0 00-19 13l-4 4-2 5a52 52 0 00-3 18l-1 11-1-2c0-9 0-18 2-27 1-4 3-8 6-11 6-6 14-10 21-14 6-3 12-8 17-13 4-5 6-11 8-17 3-9 4-17 5-26l-13 7-12 3-1 8-2 7c-2 7-8 11-14 15-10 6-22 11-29 20-8 11-11 25-12 38-1 6 0 13-3 20-1-8 0-15 1-22v-9l1-4 5-15 1-4 10-11c6-6 15-10 22-15 4-3 10-6 13-11s3-11 4-17c-9 0-19-2-26-8-8-5-14-13-17-21-3-10-1-20 3-29 2-4 3-8 7-11m6-2c-1 1-2 3-1 5 2 3 4 6 7 7 8 4 16 6 25 6 11 0 22-1 30-8l-10-10-12-6c-13-5-28-2-39 6m-10 15c-2 5-4 10-4 15 0 9 4 18 10 24 4 6 11 10 18 12 9 3 18 2 27-1s17-9 22-17c5-11 5-24 1-35l-11 5-13 3v7c-1 4-2 8-5 11-4 3-10 5-15 5-8 0-16-7-18-15-1-5 0-9 2-14-4-2-7-6-9-10l-5 10m17 2c-1 3-3 6-1 9h-2c0 3 2 6 5 7h-1c3 7 13 9 20 6 7-2 10-11 8-18h-11l-18-4zM86 195h17l17 3a83 83 0 0114 6 93 93 0 0115 12 134 134 0 0115 21c3 7 7 14 8 21 1 9 0 17-1 25-1 6-3 12-6 17l-6 9-8-1c6-1 10-7 13-12 5-10 6-22 5-33 0-7-3-13-5-19-7-15-17-29-32-38-11-6-23-8-35-8-12-1-24 1-34 7 8-1 16-4 24-4s17 2 25 4a60 60 0 0142 45c1 8 1 16-2 24-4 6-10 10-16 12l-25 8c-9 5-17 13-27 16-8 3-18 3-26-1-8-3-14-9-19-15l-11-14c-4-8-5-17-8-26-5 12-3 24 0 35 1 7 4 14 7 20l-3-1-1-2-2-3c-6-13-8-28-7-42l3-8c5-18 16-34 31-46l5-2a117 117 0 0133-10m-17 39c-6 1-12 5-14 11s4 14 11 12c4-2 8-3 13-3 6-1 9-9 5-14-3-5-9-6-15-6zM310 208a90 90 0 0162 4l11 6 15 12 3 6c4 7 9 15 11 23 2 7 1 15 0 22l-4 1c2-8 3-16 0-24-4-14-12-26-24-35s-26-15-41-15c12 6 25 8 36 17 9 8 16 20 17 32 0 7-1 14-6 19l-17 13c-6 6-9 15-16 20-8 6-17 6-25 7-11 0-22 0-31-6-12-6-22-18-25-32-2-10-2-20 1-29l7-19c-10 7-16 19-18 31-2 11-1 22 1 33 2 9 6 17 12 25l-5-1-7-13c-5-12-5-26-5-39 1-14 8-28 18-38 8-9 18-17 30-20m5 33c-5 1-9 5-11 10s1 11 6 12c3 1 6 0 9-1 3-2 8 0 11-3 4-3 4-9 1-13-4-5-10-6-16-5zM198 246c3-2 8 0 11 2 7 5 13 11 18 18 2 1 3 3 3 5-4 0-6-4-9-6-6-5-12-11-20-12-5 1-8 6-10 10-3 3-4 9-8 10-1-5 2-9 4-14 3-5 5-11 11-13zM401 309c1-1 3-2 5-1-7 18-21 32-39 38-7 3-16 4-24 4l-4-4c8 1 17 1 24-2 16-4 28-15 36-29 2-1 2-4 2-6z"/></g><g fill="#ffe494"><path d="M157 30c11-10 27-12 40-7-7 1-15 1-22 3l-15 6-3-2zM302 31c11-8 26-11 39-6-8 1-16 0-24 3l-11 5-4-2zM190 117l3-7c0 5 0 10-3 15l-9 11c-8 7-18 12-24 20-6 10-8 22-12 33 0-12 2-26 10-36 6-8 16-13 23-20 5-4 10-9 12-16zM330 117l3-4c0 4-1 9-4 12-5 7-13 11-20 15-9 6-18 12-24 22s-6 21-10 31v-3c1-13 4-27 12-38 7-9 19-14 29-20 6-4 12-8 14-15zM78 162c11-10 26-14 41-16h4c-9 4-19 5-28 9-9 5-17 12-24 20l-10 8c4-8 10-15 17-21zM222 159c11-5 24-6 36-5-11 2-22 3-32 8-7 4-14 11-15 19-2 11 0 23 7 31 4 6 10 10 13 17l-16-14c-9-10-12-24-9-37 3-8 9-15 16-19zM107 187c8-12 19-21 32-28l-1 2-12 11c-6 6-12 11-19 15zM16 228c2-12 9-23 19-31-1 4-3 7-6 9l-13 23v-1zM255 244c0 7-3 14-4 21-1 10-2 19 0 29l3 18c-3-5-6-10-7-15-4-18-2-38 8-53zM436 250c1 1 3 3 3 5 2 7 2 16-3 22s-13 9-20 11c-8 3-16 4-23 9-4 2-6 7-10 10 2-8 7-15 15-17l26-9c4-2 8-4 11-8 4-7 3-16 1-23zM191 263c2-4 5-9 10-10 8 1 14 7 20 12l1 2c-7-3-13-8-20-10-4 0-7 5-11 7v-1zM91 329c17-14 40-20 62-17 15 2 29 10 43 16 15 6 29 16 44 22 14 5 29 10 45 11 8 2 16 1 24 1-4 2-9 3-14 3-17 0-34-3-49-9l-35-16c-11-6-21-12-33-16-9-3-18-6-27-7-12-2-24-1-36 2-8 2-16 7-24 10zM240 323c12-2 24-2 35-1a107 107 0 0151 16c-6 0-11-3-16-5-17-5-35-7-53-8l-29 1 12-3zM391 369c5-5 11-8 17-12l-8 8-20 22-1-2c3-6 8-11 12-16zM422 376c9 0 18 0 27 3 4 1 6 6 5 9l-1-1c-3-2-5-5-9-6-7-3-15-2-22-5zM202 414l-6-22c5 6 7 13 9 20l4 15c1 9-1 19-5 28-2 3-6 6-10 7-2 1-3 0-5-1l9-7c3-4 4-9 5-13 1-9 0-18-1-27zM69 402c8 2 15 8 23 11 7 4 15 6 23 8 12 4 24 11 30 22 4 9 5 18 6 27l-2 1c-3-11-5-23-13-32-5-6-11-10-18-13-12-5-24-8-36-14-4-3-10-6-13-10zM245 401c8 4 15 9 20 16 4 7 6 14 8 21l7 19c2 8 4 15 10 21 3 5 8 9 12 13l-3 2c-6-4-12-8-16-14-8-13-11-29-16-43-4-13-13-25-22-35zM404 418c-1-6-4-11-7-16 6 5 11 11 12 19 1 5 1 12-5 12v-1c1-4 2-9 0-14zM311 433c-9-2-16-8-20-15 5 5 11 10 19 12l30 3c11 2 23 0 34 5 11 6 17 17 23 28 3 8 6 16 7 24 1 2-1 3-2 3l-5-16c-3-8-7-15-12-21-6-6-12-10-19-13-6-3-13-4-20-5-11-1-24-2-35-5z"/></g><g fill="#fcaf5a"><path d="M197 23l9 4c0 3 0 7-4 8-7 5-17 5-25 3-7-1-13-5-20-5l-1-1 1-2 3 2 15-6c7-2 15-2 22-3zM341 25l12 6c-2 3-4 6-7 6-9 2-17 2-26 1-6-1-13-5-19-2-1-2 0-4 1-5l4 2 11-5c8-3 16-2 24-3zM192 107c3-1 6-2 9-1 4 2 5 8 4 12l-8 14c-9 7-20 14-26 24-4 6-5 14-5 21a66 66 0 005 25l1-6c1-9 3-19 8-27 4-2 9-2 13-2 1 9 0 20-6 28-5 8-14 12-23 15-6 2-13 2-19 1l-11-7 8-14 2 15 1-16c4-11 6-23 12-33 6-8 16-13 24-20l9-11c3-5 3-10 3-15l-3 7 2-10zM332 110c4-2 8-3 12 0 5 5 2 13-2 18l-28 19c-10 7-18 16-19 28-1 8-1 17 4 25l1 2 1-11 11-6c12-1 25-8 37-5l1 4-18 3-7 3 21-3c9-1 19-1 29 1 10 4 22 7 32 12 17 9 31 23 39 41 4 9 7 18 5 28-3 11-13 19-24 22-10 3-21 4-31 9-6 4-10 11-13 17v-10c4-3 6-8 10-10 7-5 15-6 23-9 7-2 15-5 20-11s5-15 3-22c0-2-2-4-3-5-4-10-11-19-20-24-13-8-28-13-44-14a90 90 0 00-62-4c-12 3-22 11-30 20a61 61 0 00-18 38c0 13 0 27 5 39-1 2-2 5-5 6-2 2-4 2-7 2l-1-1-3-18c-2-10-1-19 0-29 1-7 4-14 4-21 4-8 12-13 16-20-12 9-23 22-27 37-5 18-3 38 8 53-6 4-13 3-19 1l-6-20c-1 9 2 18 3 26l-26 4c-4 1-8-1-12-3 1-10 1-20-1-30l-2-3v27l-8-1-5-6c4-10 5-21 4-32-1-6-2-12-5-18l1 11c1 11 1 22-2 33l-6 2-3-5c3-5 5-11 6-17 1-8 2-16 1-25-1-7-5-14-8-21 8-2 16-3 23-7 9-5 15-12 20-20 6 9 16 15 25 21l8 5-9-7c-3-7-9-11-13-17-7-8-9-20-7-31 1-8 8-15 15-19 10-5 21-6 32-8l10 2 2 9c0 3-3 6-4 8-9-2-19-2-28 0s-15 12-13 21c2 5 6 9 11 12l20 14c-5-7-14-10-19-17-2-4-2-10-5-14 2-2 4-5 7-5l11-2c4 5 4 12 5 19 2-6 1-12-1-17 4-4 9-2 14-1l5 5c-1 7-2 14-1 22 3-7 2-14 3-20v3c4-10 4-21 10-31s15-16 24-22c7-4 15-8 20-15 3-3 4-8 4-12l-3 4 2-7M198 246c-6 2-8 8-11 13-2 5-5 9-4 14 4-1 5-7 8-10v1c4-2 7-7 11-7 7 2 13 7 20 10l-1-2c3 2 5 6 9 6 0-2-1-4-3-5-5-7-11-13-18-18-3-2-8-4-11-2z"/><path d="M207 144c4-6 11-8 18-8 13 1 26 6 36 15-8-1-17-2-25 0-2 1-5 2-8 1-3 0-6-3-9-4l-12-4zM119 146l9-1c1 2 2 5 1 8-3 6-9 8-14 11-5 1-10 2-14 5-6 2-10 7-14 11-7 6-17 11-27 10v-5l1-2 10-8c7-8 15-15 24-20 9-4 19-5 28-9h-4zM194 154c3-3 8-5 11-6 7 1 13 3 18 6-5 4-11 8-15 13-6-2-11-4-17-4l3-9zM126 172l12-11c1 7-4 12-9 16-6 7-13 12-22 12v-2c7-4 13-9 19-15zM197 167l9 3c-3 7-6 15-4 23l2 13c-2 7-7 13-13 17-7 0-15 2-23 1-5-1-8-5-11-9 11-1 22-6 30-14 9-9 10-22 10-34zM35 197l2-1 2 2-2 7-13 20-8 8v-4l13-23c3-2 5-5 6-9zM466 286c2-1 5-3 8-2 6 2 9 9 13 14 5 9 6 20 4 29-1 8-5 15-9 22-2 4-6 8-10 10v-3c1-6 4-11 7-16 5-10 5-21 1-31-2-9-8-17-14-23zM115 319c12-3 24-4 36-2 9 1 18 4 27 7 12 4 22 10 33 16l35 16c15 6 32 9 49 9 5 0 10-1 14-3-8 0-16 1-24-1h28c7 0 12 4 18 6 4 1 8 3 10 7l-12 5c-10 2-21 5-31 5a281 281 0 01-86-26l-23-13c-10-5-18-12-29-16s-24-6-36-2c-9 2-16 9-26 9-5 1-9-1-12-4l5-3c8-3 16-8 24-10zM220 326l20-3-12 3 29-1c18 1 36 3 53 8 5 2 10 5 16 5h1l4 13c-5 2-11-1-15-4-12-5-24-8-37-9h-32c-4 1-8 0-12-2-7-2-13-5-19-9l4-1zM427 332l6 1c2 4 1 8 0 11-3 6-8 10-14 13-9 7-18 12-26 20-4 5-7 11-12 15l-1-5 20-22 8-8 9-9 10-16z"/><path d="M42 339c4-3 10-3 15-3 13 4 27 8 41 9 16 1 32-1 48-3 7 2 14 6 19 10-14 6-30 7-45 9-20 1-40 0-59-4-7-2-14-3-19-8-2-3-2-7 0-10zM162 381c7-7 19-5 27-1 3 3 6 7 7 12l6 22c1 9 2 18 1 27-1 4-2 9-5 13l-9 7v-23c0-9-2-18-5-27-4-12-12-22-22-30zM421 376h1c7 3 15 2 22 5 4 1 6 4 9 6-8 4-17 4-25 5l-15 3h-3c0-3 1-7 3-10 2-4 5-6 8-9z"/><path d="M102 383c6-3 13-3 20-2l11 6c12 4 25 4 37 9l4 4c4 7 7 14 9 22l-18-8c-6-3-12-5-19-6-6-1-13-2-19-5-11-5-23-7-32-14 2-3 4-5 7-6zM351 382c4 3 8 5 13 6l11 2c1 4 2 9 6 11 2 1 4 3 7 2l7-4 2 3c3 5 6 10 7 16 2 5 1 10 0 14-6-8-11-17-20-22-12-6-26-3-38-8l-18-11 23-9zM211 385l5-3 29 19c9 10 18 22 22 35 5 14 8 30 16 43 4 6 10 10 16 14-10 2-20-3-27-10-5-4-8-10-10-16l-7-18c-5-9-7-20-14-28-6-6-13-9-20-13l-9-12c-2-3-3-8-1-11zM67 393c4-2 9-2 13 0 5 4 8 9 13 12 8 6 18 8 27 12 13 4 24 12 31 23 4 8 6 18 5 27-1 2-3 3-5 3-1-9-2-18-6-27-6-11-18-18-30-22-8-2-16-4-23-8-8-3-15-9-23-11l-3-2 1-7zM277 412c0-3 3-4 5-6l9 12c4 7 11 13 20 15 11 3 24 4 35 5 7 1 14 2 20 5 7 3 13 7 19 13 5 6 9 13 12 21l5 16c-5-1-10-1-13-5-7-10-12-21-21-29-6-6-16-8-24-8-10-2-20 1-29-1l-12-2c-6-5-12-8-17-14s-9-14-9-22zM210 415c8 6 14 16 11 25l-8-2c0-8-1-15-3-23z"/><path d="M328 419c7-5 15-4 23-4 6 0 12 2 17 4-7 5-17 7-25 9h-21c2-3 3-7 6-9z"/></g><g fill="#f38100"><path d="M206 27c5 2 9 5 12 10-8 7-19 9-29 9-9 1-19-2-27-6l-5-7c7 0 13 4 20 5 8 2 18 2 25-3 4-1 4-5 4-8zM353 31l10 10c-8 7-19 8-30 8-9 0-17-2-25-6-3-1-5-4-7-7 6-3 13 1 19 2 9 1 17 1 26-1 3 0 5-3 7-6zM207 94l10-8c0 11-1 22-4 33-2 8-6 16-13 21-6 6-12 10-19 14-5 5-11 10-11 18v25c-3-6-3-13-4-20 0-7 1-15 5-21 6-10 17-17 26-24l8-14c1-4 0-10-4-12-3-1-6 0-9 1l1-8 14-5zM345 99l13-7c-1 9-2 17-5 26-2 6-4 12-8 17-5 5-11 10-17 13-7 4-15 8-21 14-3 3-5 7-6 11-2 9-2 18-2 27-5-8-5-17-4-25 1-12 9-21 19-28l28-19c4-5 7-13 2-18-4-3-8-2-12 0l1-8 12-3z"/><path d="M202 142l8-7 15 1c-7 0-14 2-18 8l-5-2zM128 145c9 0 18 1 26 3l-1 2-15 6-12 6c-3 2-7 2-11 2 5-3 11-5 14-11 1-3 0-6-1-8zM197 147l8 1c-3 1-8 3-11 6l-3 9-16 2c6-8 15-12 22-18zM139 159c3-2 6-3 10-3-4 7-6 13-7 20-8 6-15 14-19 22h-3l-17-3 4-6c9 0 16-5 22-12 5-4 10-9 9-16l1-2zM268 156c4 0 7 2 11 4l-5 15-8-2c1-2 4-5 4-8l-2-9zM306 168l4-4c11-1 22 0 32 5l-25 8c-4-2-8-5-11-9zM173 171l7-2c-5 8-7 18-8 27 0-8-1-17 1-25zM415 178c8-1 14-5 21-7 1 4 1 8-2 12-6 5-14 7-22 7-8 1-15-2-22-4-13-2-27-4-40-2l-1-4c-12-3-25 4-37 5 8-7 19-10 30-12 15-3 29 1 44 3 9 2 19 3 29 2zM304 173c4 1 7 3 10 6l-13 8c1-5 1-10 3-14zM250 175c8 0 16 2 23 4v9l-5-5c-5-1-10-3-14 1l-4-9zM231 183c2-5 8-8 14-7 3 1 4 4 5 6l-11 2c-3 0-5 3-7 5 0-2-3-4-1-6zM60 190c10 1 20-4 27-10l-9 16c-9 2-17 5-25 9h-2c2-7 5-14 9-20v5zM92 180c5-1 10 0 15 1-2 4-4 9-8 12-3 2-7 2-11 2h-6c3-5 6-11 10-15zM126 200c4-8 9-15 16-19v9l-8 14-8-4zM37 196c5-4 11-7 17-9-2 7-5 13-6 20a87 87 0 00-31 46c-3-8-3-17-1-25v5l8-8 13-20 2-7-2-2z"/><path d="M375 188c17 1 33 6 48 14 16 10 28 27 34 45 2 8 3 17 0 25-3 10-10 19-20 23l-33 9c-9 3-13 12-21 16v-3c3-6 7-13 13-17 10-5 21-6 31-9 11-3 21-11 24-22 2-10-1-19-5-28-8-18-22-32-39-41-10-5-22-8-32-12zM149 216l8-1c3 4 6 8 11 9 8 1 16-1 23-1-8 7-19 9-29 10l-13-17z"/><path d="M383 218c10 0 19 5 28 9 14 7 26 23 22 39-5-8-8-17-15-23l-20-13-15-12z"/><path d="M401 236c9 4 18 10 23 19 2 6 6 11 7 17-5 6-12 7-19 9 1-7 2-15 0-22-2-8-7-16-11-23zM462 253c12 10 22 22 30 35 5 9 10 18 10 28 0 15-5 30-17 39-4 3-8 7-13 6v-5 3c4-2 8-6 10-10 4-7 8-14 9-22 2-9 1-20-4-29-4-5-7-12-13-14-3-1-6 1-8 2l-7-7c3-8 4-17 3-26z"/><path d="M440 297c7-3 12-9 16-14 0 5 0 10 2 15 2 7 8 11 10 18-7 3-16 1-22-4-3-4-5-10-6-15zM189 289l2 3c-2 9 0 19-3 28l-14-6 2-5 5 6 8 1v-27zM427 302c3-2 6-3 10-3 2 5 3 11 7 15 2 2 4 3 4 6 0 9 0 19-5 28-5 8-14 14-22 19-8 6-17 10-24 17l-14 14c-5-3-5-9-4-13l1 2 1 5c5-4 8-10 12-15 8-8 17-13 26-20 6-3 11-7 14-13 1-3 2-7 0-11l-6-1 3-15-3-15zM159 309l6-9 3 5 6-2-4 10-11-4z"/><path d="M414 305l9-3c3 9 5 19 1 28-3 7-7 14-14 19l5-17c1-9-3-18-1-27zM262 311c3-1 4-4 5-6l7 13h-13c-3 0-4-3-6-5 3 0 5 0 7-2z"/><path d="M406 308l5-3c-1 21-11 40-26 54-13 11-29 17-44 24-21 8-44 11-66 7-14-3-29-7-42-13-15-6-29-14-44-22-13-8-25-18-41-21-9-3-19-1-28 2-5 2-9 6-15 6-9 0-18-2-26-4l7-6c3 3 7 5 12 4 10 0 17-7 26-9 12-4 25-2 36 2s19 11 29 16l23 13c16 8 33 14 50 19 11 4 24 7 36 7 10 0 21-3 31-5l12-5c-2-4-6-6-10-7 3 0 6 1 8-2 4-4 4-10 4-15 8 0 17-1 24-4 18-6 32-20 39-38z"/><path d="M11 325c3-7 6-14 12-19l1 2 10 14c7 6 15 10 23 14-5 0-11 0-15 3-2 3-2 7 0 10 5 5 12 6 19 8 19 4 39 5 59 4 15-2 31-3 45-9-5-4-12-8-19-10l11-2 10 5 19 12a371 371 0 01-121 13c-11-1-22-2-32-7-7-3-14-7-18-13-5-7-7-17-4-25zM252 314l2 4-20 2-1-5c6 2 13 3 19-1zM403 342l8-17c2 11-3 23-10 32l-11 9c-5 5-10 11-13 17-1 1-1 3-3 3-6 0-13-1-18-5l14-8c13-8 25-18 33-31zM207 329c4-2 9-3 13-3l-4 1c6 4 12 7 19 9 4 2 8 3 12 2h32c13 1 25 4 37 9 4 3 10 6 15 4l-4-13c5 4 9 8 11 13 2 4 1 10-2 13l-7-2-23-10c-16-6-33-5-49-5-7-1-14 1-20-2l-30-16z"/><path d="M119 341c9-5 20-7 29-3-9 2-19 3-29 3zM252 350c13 0 26 0 38 2 7 1 13 3 19 6-10 0-21 1-31-1-9-1-18-4-26-7zM180 363c3-2 6-3 10-3 2-1 4 1 5 3 6 7 13 14 21 19l-5 3c-2 3-1 8 1 11l9 12-13-7c-5-1-5-6-7-10-6-10-14-19-21-28zM170 365c2-1 5-2 7 0l12 15c-8-4-20-6-27 1l-15-11 23-5zM204 367l18 9 7 5c3 2 4 5 6 8-12-5-23-12-31-22zM45 371l17 3c1 3 2 7 5 8 5 2 11 0 16-1 6 6 12 13 20 17 15 6 31 10 43 21 11 7 18 19 20 31 1 7 1 15-3 21-2 3-5 7-10 6-3 0-3-4-4-6l2-1c2 0 4-1 5-3 1-9-1-19-5-27-7-11-18-19-31-23-9-4-19-6-27-12-5-3-8-8-13-12-4-2-9-2-13 0l-1 7c-9-8-16-18-21-29zM119 374l20-3c3-1 6 1 8 3 7 5 15 10 20 17l-22-5c-10-2-19-5-26-12z"/><path d="M66 374l18 1c-4 4-9 5-15 5l-3-6zM89 376l13-1h11l9 6c-7-1-14-1-20 2-3 1-5 3-7 6l-9-10 3-3zM412 377c3-2 6-1 9-1-3 3-6 5-8 9-2 3-3 7-3 10h3l-13 4-7-6c5-7 11-12 19-16zM236 383c11 3 21 7 32 9 2 1 5 1 7 3l7 11c-2 2-5 3-5 6 0 8 4 16 9 22s11 9 17 14c-7-1-14-5-20-9-4-3-8-5-9-10-2-6-5-11-9-16-5-7-12-12-20-16-5-3-7-9-9-14zM307 395l14-2 6 3 14 8c-5 1-11 3-16 1-7-2-13-5-18-10zM279 394l22 2 16 10c-11 0-22-4-33-6-3-1-4-3-5-6zM381 401c4 0 7-2 10-5l4 3-7 4c-3 1-5-1-7-2z"/><path d="M285 404c15 3 31 8 47 5 6 0 13-4 19-2 9 2 19 1 28 5-3 3-6 7-11 7-5-2-11-4-17-4-8 0-16-1-23 4-3 2-4 6-6 9-8 0-16-2-22-7s-11-11-15-17zM410 412c7 2 14 7 14 15l-11-1c0-5-1-10-3-14zM382 413c5 2 8 6 11 10l-19-2 8-8z"/></g><g fill="#e1bb9b"><path d="M147 44c1-4 3-7 6-10l7 9-2 7c-1-3-2-6-5-7l-6 1zM292 46l5-10c2 4 5 8 9 10-2 5-3 9-2 14l-3-9c-2-3-6-4-9-5zM198 49c8-1 16-4 22-9 4 10 6 22 2 33-4 8-12 16-21 19-11 5-25 6-36 0-9-5-16-12-19-21 6 9 15 16 25 19 12 3 24 1 35-5 6-5 12-13 11-21 0-3-1-7-4-9-6-2-13 0-17 4l2-10zM355 49l11-5c4 11 4 24-1 35-5 8-13 14-22 17s-18 4-27 1c-7-2-14-6-18-12 15 10 36 11 52 2 6-4 11-11 11-19 0-4-2-9-7-10-4-1-8 0-12 1v-7l13-3z"/></g><g fill="#fffbf4"><path d="M147 44l6-1c3 1 4 4 5 7 0 4 0 9 3 12 5 9 18 12 27 6 4-1 6-5 8-9 4-4 11-6 17-4 3 2 4 6 4 9 1 8-5 16-11 21-11 6-23 8-35 5-10-3-19-10-25-19-4-9-2-19 1-27zM288 61c0-5 2-10 4-15 3 1 7 2 9 5l3 9c2 8 10 15 18 15 5 0 11-2 15-5 3-3 4-7 5-11 4-1 8-2 12-1 5 1 7 6 7 10 0 8-5 15-11 19-16 9-37 8-52-2-6-6-10-15-10-24z"/><path d="M160 54h2l12 2v3l-3 1c-3 0-7 1-9-2-2-1-1-2-2-4zM176 58c0-2 3-2 5-2v4c-2-1-5 0-5-2zM306 57h2c4 1 9 1 12 4-2 3-6 3-9 3-3-1-5-4-5-7zM322 63l1-4 4 2c-1 2-3 3-5 2z"/></g><g fill="#490000"><path d="M163 45l16 4h15c0 6-1 13-7 16-7 6-18 3-23-4l7-1 3-1v-3l-12-2c-1-3 0-6 1-9m13 13c0 2 3 1 5 2v-4c-2 0-5 0-5 2zM309 48l18 4h11c2 7-1 16-8 18-7 3-17 1-20-6h1c3 0 7 0 9-3-3-3-8-3-12-4-2-3 0-6 1-9m13 15c2 1 4 0 5-2l-4-2-1 4z"/></g><g fill="#c03808"><path d="M210 135l2-3 17 1c8 1 15 3 22 7l19 12 10 4-1 4c-4-2-7-4-11-4l-10-2c-12-1-25 0-36 5-7 4-13 11-16 19-3 13 0 27 9 37l16 14 9 7-8-5c-9-6-19-12-25-21-5 8-11 15-20 20-7 4-15 5-23 7l-2-4c10-1 21-3 29-10 6-4 11-10 13-17l-2-13c-2-8 1-16 4-23l-9-3c0 12-1 25-10 34-8 8-19 13-30 14l-8 1-4-5c6 1 13 1 19-1 9-3 18-7 23-15 6-8 7-19 6-28-4 0-9 0-13 2l-7 2 2-6 16-2c6 0 11 2 17 4 4-5 10-9 15-13a53 53 0 00-26-7l5-5 5 2 12 4c3 1 6 4 9 4 3 1 6 0 8-1 8-2 17-1 25 0-10-9-23-14-36-15l-15-1zM72 162c13-12 31-18 48-20 13-2 25 0 37 3l-3 3a85 85 0 00-35-2c-15 2-30 6-41 16-7 6-13 13-17 21l-1 2c-4 6-7 13-9 20h2l-5 2c1-7 4-13 6-20a58 58 0 00-19 10c-10 8-17 19-19 31-2 8-2 17 1 25l-3 8c-4-12-4-25-1-38 4-15 16-27 30-35l14-6c5-7 9-14 15-20z"/><path d="M138 156l15-6-4 6c-4 0-7 1-10 3-13 7-24 16-32 28v2l-4 6H88c4 0 8 0 11-2 4-3 6-8 8-12-5-1-10-2-15-1-4 4-7 10-10 15a270 270 0 00-4 1l9-16c4-4 8-9 14-11 4-3 9-4 14-5 4 0 8 0 11-2l12-6m-42 20l14 1 10-10c-9 1-18 3-24 9zM310 164l4-4 12 1c8 1 16 4 23 7l12 1c13 1 26 5 40 6 7 0 15 0 22-3l13-5c3 0 4 4 4 6 0 4-1 9-4 13-6 5-13 7-21 8 5 4 11 6 16 9 13 10 22 25 28 40 1 4 5 7 8 10 12 10 22 23 30 37 4 7 7 13 8 21 2 11-1 23-6 33-4 7-9 11-14 16-4 2-7 6-12 4-3 0-5-2-5-5 1-8 5-15 8-22 6-11 3-25-3-36l-13-16c0 5 0 9 2 13 2 6 7 10 9 16 1 4-2 6-5 7-5 0-10 0-15-2 1 12 0 24-7 33-6 9-16 14-24 21 10 0 20-1 30 2 5 2 9 8 7 13l-5 4c-11 3-22 3-33 5l-16 5c1 2 2 4 5 5 6 3 14 6 18 12 1 3 3 7 0 10-4 2-9 0-13 0-1 4-4 8-8 8-3 0-5-4-7-6-1-3-4-3-6-4-7-3-15-2-22-3l-8 2-12 4c8 1 16 1 24 4 9 4 16 13 21 21l11 25c1 4 2 9 1 14l-5 2c-6 1-12-1-16-6-7-10-12-21-21-29-6-5-14-6-21-7h-23c-10 0-20-2-30-6l-13-8 4 13c2 7 4 14 8 19 3 7 9 11 14 16 1 1 2 3 1 5-2 2-5 3-8 3-10 2-19-3-27-9-10-9-12-23-17-34-4-8-6-17-11-24-4-7-10-11-16-15l-19-9c1 5 6 7 9 10 6 5 10 13 10 21 0 3-1 6-4 7-3 2-7-1-10-2-2 9-5 20-14 23-4 2-10 3-11-1-2-11 0-23-2-34l-1-3c-13-7-27-13-42-15l13 10c10 10 15 24 15 38 0 7-3 14-9 19-3 4-12 5-14-1-3-9-5-19-9-28-4-10-13-17-23-21-12-4-24-7-34-14-12-6-23-15-30-27l-11-17c-9-5-20-8-27-17-7-8-8-21-4-31 2-7 6-14 12-19l2 3c-6 5-9 12-12 19-3 8-1 18 4 25 4 6 11 10 18 13 10 5 21 6 32 7 14 1 28 3 42 1 27-2 53-6 79-14l-19-12-10-5-11 2c-16 2-32 4-48 3-14-1-28-5-41-9-8-4-16-8-23-14l-10-14 3 1c5 6 10 12 17 16 8 5 16 8 25 11h7l16-13c17-12 39-18 59-15l8 1 11 4 4-10c3-11 3-22 2-33l-1-11c3 6 4 12 5 18 1 11 0 22-4 32l-2 5 14 6c3-9 1-19 3-28 2 10 2 20 1 30 4 2 8 4 12 3l26-4c-1-8-4-17-3-26l6 20 1 5 20-2-2-4a63 63 0 01-8-53c4-15 15-28 27-37-4 7-12 12-16 20a69 69 0 00-8 53c1 5 4 10 7 15l1 1c2 2 3 5 6 5h13l5 1c16 2 31 6 45 14 6 3 11 8 15 13l4 4c0 5 0 11-4 15-2 3-5 2-8 2-6-2-11-6-18-6h-28c-16-1-31-6-45-11-15-6-29-16-44-22-14-6-28-14-43-16-22-3-45 3-62 17a114 114 0 00-12 9c8 2 17 4 26 4 6 0 10-4 15-6 9-3 19-5 28-2 16 3 28 13 41 21 15 8 29 16 44 22 13 6 28 10 42 13 22 4 45 1 66-7 15-7 31-13 44-24 15-14 25-33 26-54l-5 3c-2-1-4 0-5 1-6 4-10 11-16 14-4 1-5-3-6-6 0-9 2-19 9-26 6-5 14-6 20-9l4-1c7-2 14-3 19-9-1-6-5-11-7-17-5-9-14-15-23-19l-3-6 20 13c7 6 10 15 15 23 4-16-8-32-22-39-9-4-18-9-28-9l-11-6c16 1 31 6 44 14 9 5 16 14 20 24 2 7 3 16-1 23-3 4-7 6-11 8l-26 9c-8 2-13 9-15 17v13c8-4 12-13 21-16l33-9c10-4 17-13 20-23 3-8 2-17 0-25-6-18-18-35-34-45-15-8-31-13-48-14-10-2-20-2-29-1l-21 3 7-3 18-3c13-2 27 0 40 2 7 2 14 5 22 4 8 0 16-2 22-7 3-4 3-8 2-12-7 2-13 6-21 7-10 1-20 0-29-2-15-2-29-6-44-3-11 2-22 5-30 12l-11 6v-4l13-8c-3-3-6-5-10-6l2-5c3 4 7 7 11 9l25-8c-10-5-21-6-32-5m152 89c1 9 0 18-3 26l7 7c6 6 12 14 14 23 4 10 4 21-1 31-3 5-6 10-7 16v5c5 1 9-3 13-6 12-9 17-24 17-39 0-10-5-19-10-28-8-13-18-25-30-35m-22 44c1 5 3 11 6 15 6 5 15 7 22 4-2-7-8-11-10-18-2-5-2-10-2-15-4 5-9 11-16 14m-13 5l3 15-3 15-10 16-9 9c-6 4-12 7-17 12-4 5-9 10-12 16-1 4-1 10 4 13l14-14c7-7 16-11 24-17 8-5 17-11 22-19 5-9 5-19 5-28 0-3-2-4-4-6-4-4-5-10-7-15-4 0-7 1-10 3m-13 3c-2 9 2 18 1 27l-5 17c7-5 11-12 14-19 4-9 2-19-1-28l-9 3m-174 18l-20 3c-4 0-9 1-13 3l30 16c6 3 13 1 20 2 16 0 33-1 49 5l23 10 7 2c3-3 4-9 2-13-2-5-6-9-11-13h-1c-6-5-13-8-21-10-9-3-20-5-30-6-11-1-23-1-35 1m163 19c-8 13-20 23-33 31l-14 8c5 4 12 5 18 5 2 0 2-2 3-3 3-6 8-12 13-17l11-9c7-9 12-21 10-32l-8 17m-284-1c10 0 20-1 29-3-9-4-20-2-29 3m133 9c8 3 17 6 26 7 10 2 21 1 31 1-6-3-12-5-19-6-12-2-25-2-38-2m-72 13c7 9 15 18 21 28 2 4 2 9 7 10l13 7c7 4 14 7 20 13 7 8 9 19 14 28l7 18c2 6 5 12 10 16 7 7 17 12 27 10l3-2c-4-4-9-8-12-13-6-6-8-13-10-21l-7-19c-2-7-4-14-8-21-5-7-12-12-20-16l-29-19c-8-5-15-12-21-19-1-2-3-4-5-3-4 0-7 1-10 3m-10 2l-23 5 15 11c10 8 18 18 22 30 3 9 5 18 5 27v23c2 1 3 2 5 1 4-1 8-4 10-7a49 49 0 001-43c-2-7-4-14-9-20-1-5-4-9-7-12l-12-15c-2-2-5-1-7 0m34 2c8 10 19 17 31 22-2-3-3-6-6-8l-7-5-18-9m-159 4c5 11 12 21 21 29l3 2c3 4 9 7 13 10 12 6 24 9 36 14 7 3 13 7 18 13 8 9 10 21 13 32 1 2 1 6 4 6 5 1 8-3 10-6 4-6 4-14 3-21-2-12-9-24-20-31-12-11-28-15-43-21-8-4-14-11-20-17-5 1-11 3-16 1-3-1-4-5-5-8l-17-3m74 3c7 7 16 10 26 12l22 5c-5-7-13-12-20-17-2-2-5-4-8-3l-20 3m-53 0l3 6c6 0 11-1 15-5l-18-1m23 2l-3 3 9 10c9 7 21 9 32 14 6 3 13 4 19 5 7 1 13 3 19 6l18 8c-2-8-5-15-9-22l-4-4c-12-5-25-5-37-9l-11-6-9-6h-11l-13 1m323 1c-8 4-14 9-19 16l7 6 13-4 15-3c8-1 17-1 25-5l1 1c1-3-1-8-5-9-9-3-18-3-27-3h-1c-3 0-6-1-9 1m-61 5l-23 9 18 11c12 5 26 2 38 8 9 5 14 14 20 22v1c6 0 6-7 5-12-1-8-6-14-12-19l-2-3-4-3c-3 3-6 5-10 5-4-2-5-7-6-11l-11-2c-5-1-9-3-13-6m-115 1c2 5 4 11 9 14 8 4 15 9 20 16 4 5 7 10 9 16 1 5 5 7 9 10 6 4 13 8 20 9l12 2c9 2 19-1 29 1 8 0 18 2 24 8 9 8 14 19 21 29 3 4 8 4 13 5 1 0 3-1 2-3-1-8-4-16-7-24-6-11-12-22-23-28-11-5-23-3-34-5l-30-3c-8-2-14-7-19-12l-9-12-7-11c-2-2-5-2-7-3-11-2-21-6-32-9m71 12c5 5 11 8 18 10 5 2 11 0 16-1l-14-8-6-3-14 2m-28-1c1 3 2 5 5 6 11 2 22 6 33 6l-16-10-22-2m6 10c4 6 9 12 15 17s14 7 22 7h21c8-2 18-4 25-9 5 0 8-4 11-7-9-4-19-3-28-5-6-2-13 2-19 2-16 3-32-2-47-5m125 8c2 4 3 9 3 14l11 1c0-8-7-13-14-15m-28 1l-8 8 19 2c-3-4-6-8-11-10m-172 2c2 8 3 15 3 23l8 2c3-9-3-19-11-25z"/><path d="M238 173c9-2 19-2 28 0l8 2-1 4c-7-2-15-4-23-4l4 9c2 5 3 11 1 17-1-7-1-14-5-19-1-2-2-5-5-6-6-1-12 2-14 7-2 2 1 4 1 6 3 4 3 10 5 14 5 7 14 10 19 17l-20-14c-5-3-9-7-11-12-2-9 4-19 13-21zM123 198c4-8 11-16 19-22v5c-7 4-12 11-16 19l-6-2h3zM69 234c6 0 12 1 15 6 4 5 1 13-5 14-5 0-9 1-13 3-7 2-13-6-11-12s8-10 14-11zM315 241c6-1 12 0 16 5 3 4 3 10-1 13-3 3-8 1-11 3-3 1-6 2-9 1-5-1-8-7-6-12s6-9 11-10z"/></g><g fill="#6e0000"><path d="M63 205c10-6 22-8 34-7 12 0 24 2 35 8 15 9 25 23 32 38 2 6 5 12 5 19 1 11 0 23-5 33-3 5-7 11-13 12-20-3-42 3-59 15l-16 13h-7c-9-3-17-6-25-11-7-4-12-10-17-16-3-6-6-13-7-20-3-11-5-23 0-35 3 9 4 18 8 26l11 14c5 6 11 12 19 15 8 4 18 4 26 1 10-3 18-11 27-16l25-8c6-2 12-6 16-12 3-8 3-16 2-24-3-12-10-23-19-32-7-6-15-10-23-13-8-2-17-4-25-4s-16 3-24 4zM343 208c15 0 29 6 41 15s20 21 24 35c3 8 2 16 0 24-6 3-14 4-20 9-7 7-9 17-9 26 1 3 2 7 6 6 6-3 10-10 16-14 0 2 0 5-2 6-8 14-20 25-36 29-7 3-16 3-24 2-4-5-9-10-15-13-14-8-29-12-45-14-6-8-10-16-12-25-2-11-3-22-1-33 2-12 8-24 18-31l-7 19c-3 9-3 19-1 29 3 14 13 26 25 32 9 6 20 6 31 6 8-1 17-1 25-7 7-5 10-14 16-20l17-13c5-5 6-12 6-19-1-12-8-24-17-32-11-9-24-11-36-17z"/></g></svg>