<svg width="581" height="581" viewBox="0 0 436 436" xmlns="http://www.w3.org/2000/svg"><g fill="#fcae58"><path d="M153 20h9-9zM288 20c1-2 6-2 7 0h-7zM148 20h2l-2 1v-1zM283 20h2l-2 1v-1zM299 20h2v1l-2-1zM171 22h2v1l-2-1zM305 22h1l1 1-2-1zM148 24c10-3 22-1 29 7v8c-5 3-11 4-17 5-10 1-20 1-30-1 2-9 9-17 18-19m-2 3c-2 2-6 3-7 6-2 3 2 6 5 5s7-4 9-7c0-4-4-5-7-4zM265 40c5-9 14-16 24-17 8-1 17 1 23 8l1 7c-2 4-6 6-10 7-8 1-17 2-25 1-4 0-8 0-12-2l-1-4m8-6l1 5c6 0 14-4 14-11-6-2-12 2-15 6zM308 23l1 1-1-1zM175 24l1 1-1-1zM310 24h1-1zM181 30l1 1-1-1zM265 34l1-1-1 1zM319 34l1 1-1-1zM321 38h1v2l-1-2zM187 41h1v2l-1-2zM261 44c-1-1 0-2 1-3l-1 3zM127 47c-2 0-2-3 0-3v3zM188 44c2 0 2 4 0 4v-4zM323 45c1 1 2 2 1 3l-1-3zM129 53v3c-1-1-2-2 0-3zM321 56l1-2v2h-1zM263 57l1 3c-1-1-2-2-1-3zM129 58l1 2h-1v-2zM320 60a171 171 0 011 0h-1zM184 63l1-2v1l-1 1zM264 61l1 2h-1v-2zM319 63l1-2v2h-1zM183 65zM265 64zM266 66zM317 67l1-1-1 1zM181 68l1-1-1 1zM271 73zM172 75h1l-1 1v-1zM309 76zM146 77h1v1l-1-1zM151 79h3l3 4c4 0 8 0 11-2l1 19 4 31c2 7 6 14 10 20 1 3 3 5 5 6l2-1c0-6-4-11-9-14l-3-7h3c5 2 9 6 12 10 4 3 5 8 9 12l-5-14c5 0 11 0 14 5l-3 2c5 0 11-1 16-3l9-5c4 0 7-3 11-5 5-2 9-5 14-6l17-1-2 7c-5-1-11-1-17 1-5 2-8 7-12 10-5 5-11 7-16 10 6-1 13-3 19-6 4-1 8-5 12-5l-3 6c5-4 9-11 16-12l-8 22c4-4 7-9 9-15 5-13 7-26 8-40l2 2c0-9 2-17 1-25-2 1-3 4-3 6V80l4 1v5l12 1c-3 13-4 27-4 40-1 10 1 20 3 30 0 3 0 6 3 8v-4c5 1 9 0 14 2 5 3 10 6 14 11l-15-1-13-1c-6 1-12 3-18 2-5 0-9-2-14-4l-1 2 13 5c5 2 11 0 16-1h14l-12 11c-3 3-7 2-11 2-7 0-15 0-22-3-4-2-7-7-11-10 2 5 5 10 10 12 7 4 16 4 24 4-3 2-6 4-10 4h-19l-10 5c-5-5-9-9-12-15l-7-18 5 19c2 7 7 11 12 16l-10 10c-4-5-7-12-13-15 3 5 7 10 9 16-3 1-7 3-11 1-3-3-3-8-4-11 0-10 3-19 4-28-3 4-4 9-5 14-2 7-3 16 0 23 1 3 4 5 7 6 6 0 12-2 17-5 6 0 10-6 16-9 11-4 23-2 33-6 11-3 18-13 28-18 3-2 7-1 11-3v2l-2 1c-4 0-7 1-11 3l-13 14c-5 5-12 6-18 7-9 2-18 2-26 6-7 3-11 9-16 13-5 3-10 6-16 6l-11-2c-4-4-9-9-10-16-3-7-1-16 1-23-4 5-6 12-6 19 1 8 2 16 7 22l14 17c4 5 5 12 5 18l-26 1c2-6-1-12-3-17-1-2 0-4 1-5l8 10c3 3 3 7 4 10h3c0-5-2-10-5-14 0-4-4-7-6-11-6-8-10-16-10-26-1-5 0-9 1-14l-2 1c2-10 8-19 11-28-4 4-6 9-8 14-4 7-7 14-8 22-1 7 2 14-2 20-4-5-7-12-7-19l3-19c0-4 3-5 5-8 3-2 6-5 7-9-4 3-7 8-11 10l-9 4c-5 0-10 1-15-1-6-1-10-5-15-6l-10-3 3-5c10 3 19 7 29 4 6-1 10-5 13-10-4 2-8 6-13 7-9 2-18-1-26-4l9-4c3-4 4-10 5-16 3-15 4-30 4-45l1 16 1-17c-1-6 0-12-2-18l-3-3v4l-2-7zM302 80l2-1v1h-2zM148 81l1 2h-1v-2zM301 84l1-2v2h-1z"/><path d="M149 85l1 2h-1v-2zM300 88l1-2v2h-1zM150 88l1 3c-1-1-2-2-1-3zM299 93l1-3c1 1 0 2-1 3zM151 93l1 4c-2 0-2-3-1-4zM298 99l1-4c1 1 1 4-1 4zM152 98l1 6c-2 0-1-5-1-6zM297 106l1-6c0 1 1 6-1 6zM296 117l1-9v9h-1zM173 112c2 0 2 3 1 4l-1-4zM277 117c-1-1-1-4 1-4l-1 4zM152 127c0-2-1-6 1-7 0 2 1 5-1 7zM174 120c1 1 2 2 1 3l-1-3zM197 122c0-2 4-2 4 0h-4zM277 124c-2-1-1-2 0-3v3zM175 126h1v2l-1-2zM181 130l6-3c7 1 14 0 21 2 6 1 11 4 16 4l8 5-10 7c-4-3-7-6-12-8-6-2-12 0-18 1l-11-8zM123 131h2l-2 1v-1zM300 132c0-2 6-2 6 0h-6zM124 138c9-2 18-5 27-4v3c-8 0-16 1-23 4-10 4-20 10-27 18l-14 21h-6c1-6 3-12 7-17l9-8c8-7 17-14 27-17zM96 140h10c-3 2-7 1-10 1v-1zM296 140c7 0 13 0 19 2 5 1 10 3 13 8 6 9 10 19 19 26 3 3 5 6 10 7l16 4c-2 4-7 5-12 5-7 0-15-2-19-8-8-9-12-21-22-28-6-6-15-7-23-6l-1-10z"/><path d="M124 152l8 1c6 1 11 0 16-1l-1 4-14 4c-6 0-11 0-17-2l8-6zM77 162c-1-1-1-4 1-4l-1 4zM343 163zM116 175c1-3 4-8 8-7l2 1c-3 6-6 13-11 18-7 5-16 6-25 4-8-1-17-4-26-4l-12 5-3-1c5-3 10-7 16-7 10 0 19 3 29 4 9 2 19-4 22-13zM77 170l1 4c-2 0-2-3-1-4zM66 178c1-2 6-2 7 0h-7zM332 181l1-1 4 5c5 7 14 10 22 11l7 11c0 5 3 9 4 14-1 6-5 11-9 14-4 2-8 5-9 9 0 4 0 9 4 10l1 3c-4-1-8-2-10-6s0-9 2-12c4-4 9-8 11-14 1-5 0-9-2-13-5-6-9-13-16-18l-12-7-3-1 5-5zM362 182c1-2 2-2 3 0h-3zM375 186c2 0 2 4 0 4v-4zM163 194l13-5c-1 9-3 18-1 27 0 4 3 8 4 12-6-5-14-11-15-20l-1-14z"/><path d="M148 192l10 1v1c-4 8-3 19 1 27 2 4 6 6 9 10 3 2 5 6 8 7l3 2-9 8c-2-4-5-9-9-12-9-6-15-16-15-27l2-17zM61 196l4-1c0 2-3 2-4 1zM66 195h3l-1 1h-2v-1zM57 197l2-1v1h-2zM73 196l9 1c-4 8-13 10-18 17-3 3-3 8-3 12l-5 8c-2-4-1-9 0-13 2-11 10-17 17-25zM47 198h4c0 2-4 2-4 0zM77 212l3-3-2 4-1-1zM77 214h1l-1 2v-2zM76 220c-1-1 0-2 1-3l-1 3zM377 218c2 1 2 6 0 7v-7zM76 228c-1-1-2-5 0-6v6zM188 228l4 7c-2 5-3 11-7 15-5 6-13 10-18 16-3 3-5 7-6 11-2 4-3 9-3 13v10l-13-7 2-6v3c3-9 7-17 13-24l9-12 12-12c4-4 5-9 7-14zM235 235c4-2 9-5 14-6 1 4 5 6 6 10 3 4 4 11 10 11l12 12c6 7 4 17 9 24l11 10-13 7c-3-3-6-5-7-9l-7-19c-3-6-9-9-13-14-4-6-8-14-13-19-2-3-6-5-9-7zM228 236c5 2 7 7 11 10 7 7 11 16 12 25-1-3-4-6-7-6h-15l1-1h5l3-1-5-12-11-14 6-1zM76 238l1 3c-1-1-2-2-1-3zM77 242l1 2h-1v-2zM80 249l1 2h-1v-2zM178 266l10-6 1 8c0 6 0 13-3 19s-5 11-9 16c-1 2-3 4-5 4l-9-4 11-17c3-6 4-13 4-20zM252 272v16l-7-2 7-14zM315 273l11-1 2 6-14 8-3-13h4zM201 287c3 5 7 9 11 12l-8 22-13-5 7-12c2-5 3-11 3-17zM243 289l7 2h-2c4 3 8 5 10 10l4 12-8 4-4-10c-3-3-7-4-11-5l-4-5 8-8z"/></g><g fill="#6f0202"><path d="M150 20h12c3 0 7 0 9 2l2 1 2 1 1 1 5 5 1 1 5 10 1 2v5l-1 2-2 10v1l-1 2v1l-1 1-1 2-1 1c-2 3-5 6-8 7h-1v4c-2 6-2 11 0 17v3a161 161 0 002 21l1 3v3l1 2 2 7 3 7 7 15c-2-1-4-3-5-6-4-6-8-13-10-20l-4-31V77c-5 1-10 3-15 2h-3l2 7 3 18c0 15-1 30-4 45-1 6-2 12-5 16l-2-2 2-7 1-4 2-7 1-8v-1l1-9c2-2 1-5 1-7v-1c2-5 2-9 0-14v-1l-1-6v-1l-1-4a127 127 0 01-1-5v-1l-1-2a130 130 0 01-1-4l-1-3v-1h-1a57 57 0 01-5-3c-4-4-10-8-11-14l-1-2v-2-3a26 26 0 01-2-9 26 26 0 0114-21l7-2 2-1m-2 4c-9 2-16 10-18 19v4c11 1 22-1 33-1h22c-1-6-3-11-8-15-7-8-19-10-29-7m24 29c-2 5-5 9-10 11-4 1-10 1-13-3-4-2-5-7-7-11l-10 1c-1 6 2 12 7 16 2 4 6 6 10 8 8 2 17 0 24-4 6-4 10-12 11-20-3-2-7-1-10-1-2-1-2 2-2 3m-26 0c0 2-1 4 1 4 3 0 6 0 8-2l4 2v-3l-4 1c-2-3-6-2-9-2zM285 20h14l2 1h3l1 1 2 1h1l1 1h2l8 10 1 1 1 3 1 2 1 1v4l1 3v3l-1 1-1 2-1 2v2l-1 2v1l-1 2-1 3-1 1a29 29 0 01-8 9c-1 1-3 3-5 3l-2 1v2l-1 2v2l-1 2v2l-1 3a140 140 0 00-1 6v1l-1 6a2164 2164 0 01-1 11v2c-2 4-2 9-1 13a287 287 0 011 25c-2-10-4-20-3-30 0-13 1-27 4-40l1-5-13-1-4-1v28c-1 14-3 27-8 40-2 6-5 11-9 15l8-22 1-4 2-7v-1l2-5v-3-4l1-4v-5c2-5 2-11 0-16v-5l-1-9-1-1a31 31 0 01-5-4 30 30 0 01-5-7v-1l-1-1v-1l-1-2v-1l-1-3v-1l-1-4-1-2v-2-4l1-3v-1l2-4 1-2 1-1c3-4 7-8 12-10l5-2 2-1m-20 20l-1 9h56c1-7-3-14-8-18-6-7-15-9-23-8-10 1-19 8-24 17m1 12v5c2 5 4 11 9 15 4 4 10 6 16 6 8 1 14-3 20-8 5-5 6-11 8-18h-13l-1 6c-2 5-7 9-12 9-7 0-13-5-15-11v-4h-12m15 4v3h7c2 1 3-1 2-3h-9m11 1c0 2 1 3 3 2l1-3-4 1zM315 192c4-4 10-7 15-5l12 7-2 1 5 4c-7 2-13-2-19 0-6 0-10 5-15 8l-13 8c-6 3-12 2-18 4-5 4-5 11-7 16v-12c1-3 2-6 5-8l7-2 10-2c8-4 15-11 20-19zM112 197c8-2 12-11 21-10 4 0 8 1 11 4 0 9-3 17-1 26s8 17 16 22c-2 7-5 13-10 18-9 9-22 13-34 12-7 0-14-4-20-8-6-5-12-11-15-18v-6c4 6 7 14 14 18 6 2 12 6 18 7l20 1c6 0 11-4 15-8 5-4 5-11 4-16l-9-11c-3-6-2-13-2-19-1-6 2-11 2-17-3-1-7-2-11-1-5 2-9 6-14 9-7 5-15 7-23 7-4 0-7 2-10 4l5-8c7-5 16-2 23-6zM343 237c3-6 7-11 12-16 1 3 1 6-1 8-4 6-10 10-11 18l4 12c-5 5-11 9-17 11l-11 2c-5-3-10 0-15-2-5-3-12-4-16-10 7 1 13 3 20 3l19-3c4-2 9-4 12-8 3-5 1-11 4-15z"/></g><g fill="#ffe291"><path d="M140 24zM146 27c3-1 7 0 7 4-2 3-6 6-9 7s-7-2-5-5c1-3 5-4 7-6zM273 34c3-4 9-8 15-6 0 7-8 11-14 11l-1-5zM262 40c-1-1 0-4 2-4l-2 4zM261 50c-2-1-2-1 0-2v2zM172 53c0-1 0-4 2-3 3 0 7-1 10 1-1 8-5 16-11 20-7 4-16 6-24 4-4-2-8-4-10-8 8 5 18 8 27 4 8-3 15-10 13-19l-7 1zM185 60l2-10c0 3 0 7-2 10zM323 52l1-1-1 1zM266 52h12v4c-4-1-8-1-12 1v-5zM306 52h13c-2 7-3 13-8 18-6 5-12 9-20 8-6 0-12-2-16-6 4 2 8 4 13 4 7 0 15-1 20-6 4-3 8-8 6-13-2-3-7-2-9 1l1-6zM141 74zM276 77l1 1 1 9h-1c0-3 1-7-1-10zM153 82l3 3c2 6 1 12 2 18l-1 17-1-16-3-18v-4zM281 91c0-2 1-5 3-6 1 8-1 16-1 25l-2-2V91zM172 99h1v9l-1-9zM187 127c12-5 27-2 37 6-5 0-10-3-16-4-7-2-14-1-21-2zM246 131c8-4 18-6 27-4l2 2v1l-17 1c-5 1-9 4-14 6-4 2-7 5-11 5l13-11zM107 144c13-9 28-15 44-13v3c-9-1-18 2-27 4-10 3-19 10-27 17l-9 8c5-8 11-14 19-19zM296 135c10-2 21 1 29 8l10 14c4 6 9 12 12 19-9-7-13-17-19-26-3-5-8-7-13-8-6-2-12-2-19-2v-5zM103 184c5-2 9-6 13-9-3 9-13 15-22 13-10-1-19-4-29-4-6 0-11 4-16 7 1-4 5-7 9-8 6-2 12-3 18-1 9 2 18 3 27 2zM314 178c4-1 9-2 14 0-4 2-8 1-11 3-10 5-17 15-28 18-10 4-22 2-33 6-6 3-10 9-16 9 5-5 9-11 16-14 8-2 17 1 25-2 7-2 13-5 19-9 4-4 8-9 14-11zM45 197l1-8v8h-1zM159 221c-4-8-5-19-1-27 1 7 0 14 2 21 2 5 5 9 8 12 3 4 7 7 8 11-3-1-5-5-8-7-3-4-7-6-9-10zM191 200l2-1c-1 5-2 9-1 14 0 10 4 18 10 26 2 4 6 7 6 11-6-6-11-14-15-22-3-5-4-10-4-16l2-12zM370 221c-1-5-4-9-4-14l3 3c6 5 7 14 3 21l-10 9c-3 1-6 2-8 6l2 8c-4-1-4-6-4-10 1-4 5-7 9-9 4-3 8-8 9-14zM75 229l1 7c-2-1-1-5-1-7zM255 239c-1-4-5-6-6-10 3 2 7 4 8 7l8 14c-6 0-7-7-10-11z"/><path d="M357 249c-1-1 0-4 2-4l-2 4zM167 255l2-1-9 12c-6 7-10 15-13 24v-3c2-13 11-24 20-32zM39 276h1-1zM248 291h2c5 2 8 5 11 9l4 12-3 1-4-12c-2-5-6-7-10-10z"/></g><g fill="#f28303"><path d="M177 31c5 4 7 9 8 15h-22c-11 0-22 2-33 1v-4c10 2 20 2 30 1 6-1 12-2 17-5v-8zM312 31c5 4 9 11 8 18h-56l1-9 1 4a97 97 0 0037 1c4-1 8-3 10-7l-1-7zM154 79c5 1 10-1 15-2v23l-1-19c-3 2-7 2-11 2l-3-4zM285 81l13 1-1 5-12-1v-5zM128 141c7-3 15-4 23-4l-1 8c-9-1-18 0-26 4-7 3-12 8-17 13l-14 19-9-1h3l14-21c7-8 17-14 27-18zM195 140h13c4 1 7 4 10 6l-7 2c-3-5-9-5-14-5l-2-3zM256 142c3-2 6-2 9-2l-6 7c-4 0-8 4-12 5 2-4 5-7 9-10zM181 142c5 3 9 8 9 14l-2 1-7-15zM89 147c3-2 7-4 10-2-7 7-14 14-19 23-1-8 2-17 9-21zM298 153c5 0 11 0 16 2 6 3 10 9 14 15l9 15-4-5-1 1-5-7c-4-5-9-8-14-11-5-2-9-1-14-2l-1-8z"/><path d="M133 160l14-4-2 7c-5 1-10 3-16 3-5-1-11-2-16-5l3-3c6 2 11 2 17 2zM108 166c3-3 7 0 9 1-4 7-11 14-20 14l11-15z"/><path d="M124 168c2 1 6 0 7 2-1 8-6 15-12 20-8 5-17 8-26 6-12-2-25-6-37-2l-8 1v-5l1 1 3 1 12-5c9 0 18 3 26 4 9 2 18 1 25-4 5-5 8-12 11-18l-2-1zM129 184l3-7 10 3c5 1 9 5 15 6 5 2 10 1 15 1-9 5-21 3-30-1-4-2-9-2-13-2zM315 184c4-2 7-3 11-3l-7 4c-5 3-8 8-12 13-7 6-15 13-25 12-8 0-16 1-22 6-9 7-19 14-30 17-6 1-12-1-15-5l11 2c6 0 11-3 16-6 5-4 9-10 16-13 8-4 17-4 26-6 6-1 13-2 18-7l13-14zM162 193l1 1 1 14c1 9 9 15 15 20 4 2 4 6 1 9l-8-11c-5-4-8-9-9-15s-2-12-1-18zM82 197l7 2c-6 5-13 8-19 14-5 5-7 12-9 19-1 2-3 2-5 2l5-8c0-4 0-9 3-12 5-7 14-9 18-17z"/><path d="M252 227c6-6 13-12 21-13v2c-5 12-4 26 4 37 6 9 15 17 26 19 6 3 9 11 6 17l-7 4c-5-3-10-5-14-10-4-6-3-14-6-20l-10-10c-5-5-8-12-12-18-2-4-5-6-8-8zM215 234l13 2-6 1 11 14 5 12-3 1c-1-7-7-10-9-16l-11-14zM192 235l4 5-8 14c-5 7-14 10-19 17-5 5-8 12-11 19 0-4 1-9 3-13 1-4 3-8 6-11 5-6 13-10 18-16 4-4 5-10 7-15zM161 242c3 2 5 5 6 8l-2 3c-3 3-7 6-9 10-4 4-7 9-10 15-2 4-3 8-3 13h-2l-9-5 3-16c6-3 12-6 17-11 4-5 7-11 9-17zM191 257c-1-2 2-4 3-6l4 15-5 2-2-11zM347 259c3-2 6 0 9 2l-23 14c-3 0-3-3-3-5 6-2 12-6 17-11zM253 262l11 10c5 6 7 14 9 21 1 5 4 8 6 12l-10 5-5-13-8-8-1-8-2-19z"/><path d="M167 279c2-3 4-7 8-9-1 6-2 13-6 18l-8 10c0-7 3-13 6-19zM107 271l9 1c5 1 10 0 15-1-1 4-1 9-4 12-7-3-13-8-20-12zM188 291c3-5 3-11 5-17l5 9c0 5 0 11-2 16l-8 14h-3l-8-4c5-5 8-11 11-18zM240 306l8 4 3 9-5 2-6-15z"/></g><g fill="#fffaf5"><path d="M132 51l10-1c2 4 3 9 7 11 3 4 9 4 13 3 5-2 8-6 10-11l7-1c2 9-5 16-13 19-9 4-19 1-27-4-5-4-8-10-7-16zM262 52l1 4c-1 0-2-3-1-4z"/><path d="M146 53c3 0 7-1 9 2l4-1v3l-4-2c-2 2-5 2-8 2-2 0-1-2-1-4zM266 57c4-2 8-2 12-1 2 6 8 11 15 11 5 0 10-4 12-9 2-3 7-4 9-1 2 5-2 10-6 13-5 5-13 6-20 6-5 0-9-2-13-4-5-4-7-10-9-15z"/><path d="M281 56h9c1 2 0 4-2 3h-7v-3zM292 57l4-1-1 3c-2 1-3 0-3-2zM131 149c5-1 10-2 15-1-4 2-10 4-15 1zM65 258c0-2 4-3 6-3l-6 3zM389 271c1 0 2 0 2 2l-2-2zM41 275c0-1 2-4 3-3 0 2-1 3-3 3zM396 277c1 0 2 0 2 2l-2-2zM402 283h1v2l-1-2zM407 295c2 0 2 1 2 2l-2-2zM424 318l2 3c-2 0-2-2-2-3zM8 327l2 5c-2 0-3-4-2-5zM422 339c0-2 1-3 3-3 1 1-2 4-3 3zM15 339l2 2-2-2zM129 392l3 1c-1 1-2 1-3-1zM184 403l10 1c-3 0-7 1-10-1z"/></g><g fill="#c03c09"><path d="M172 96c-2-6-2-11 0-17v17zM278 92c2 5 2 11 0 16V92zM153 105c2 5 2 9 0 14v-14zM295 132c-1-4-1-9 1-13l-1 13zM176 128c7-2 13-7 21-6h4c13-1 24 7 34 14 6-7 15-11 24-13l18 1-2 5-2-2c-9-2-19 0-27 4l-13 11-9 5c-5 2-11 3-16 3l3-2 7-2c-3-2-6-5-10-6h-13l2 3 5 14c-4-4-5-9-9-12-3-4-7-8-12-10h-3l-2-7m11-1l-6 3 11 8c6-1 12-3 18-1 5 2 8 5 12 8l10-7-8-5c-10-8-25-11-37-6zM126 130c9-2 17-4 26-3l-1 9v-2-3a75 75 0 00-63 32c-4 5-6 11-7 17h3l9 1 14-19c5-5 10-10 17-13 8-4 17-5 26-4l-2 7c-5 1-10 2-16 1l-8-1-8 6-3 3c5 3 11 4 16 5 6 0 11-2 16-3l2 2-9 4c8 3 17 6 26 4 5-1 9-5 13-7-3 5-7 9-13 10-10 3-19-1-29-4l-3 5-3 7c4 0 9 0 13 2 9 4 21 6 30 1l9-4c4-2 7-7 11-10-1 4-4 7-7 9-2 3-5 4-5 8l-3 19c0 7 3 14 7 19 4-6 1-13 2-20 1-8 4-15 8-22 2-5 4-10 8-14-3 9-9 18-11 28l-2 12c0 6 1 11 4 16 4 8 9 16 15 22 3 4 5 9 5 14h-3c-1-3-1-7-4-10l-8-10c-1 1-2 3-1 5 2 5 5 11 3 17h-2l-4-15c-1 2-4 4-3 6l2 11v6c-2 6-2 12-5 17-3 7-6 13-11 18l-5-2c2 0 4-2 5-4 4-5 6-10 9-16s3-13 3-19l-1-8-10 6c0 7-1 14-4 20l-11 17-5-3v-10c3-7 6-14 11-19 5-7 14-10 19-17l8-14-4-5-4-7c-2 5-3 10-7 14l-12 12-2 1-2-2 2-3a97 97 0 00-8-11c-8-5-14-13-16-22s1-17 1-26c-3-3-7-4-11-4-9-1-13 8-21 10-7 4-16 1-23 6l-9 6-3 3-8 7c-3 6-3 12-7 17-1 2-3 2-5 2s-3-2-5-3c0-9 0-19 6-27l10-12 1-1h-4l-4 1h-2l-2 1-6 1h-5v-1-8c3-8 12-11 20-11h12v-4l-1-4v-8l1-4c1-9 9-17 18-17 3 0 7 1 10-1 5-3 11-7 17-8l2-1 1-1m-37 17c-7 4-10 13-9 21 5-9 12-16 19-23-3-2-7 0-10 2m42 2c5 3 11 1 15-1-5-1-10 0-15 1m-23 17l-11 15c9 0 16-7 20-14-2-1-6-4-9-1m8 9c-4 3-8 7-13 9-9 1-18 0-27-2-6-2-12-1-18 1-4 1-8 4-9 8l-1-1v5l8-1c12-4 25 0 37 2 9 2 18-1 26-6 6-5 11-12 12-20-1-2-5-1-7-2-4-1-7 4-8 7m47 19l-1-1c-1 6 0 12 1 18s4 11 9 15l8 11c3-3 3-7-1-9-1-4-4-8-4-12-2-9 0-18 1-27l-13 5m-15-2l-2 17c0 11 6 21 15 27 4 3 7 8 9 12l9-8-3-2c-1-4-5-7-8-11-3-3-6-7-8-12-2-7-1-14-2-21v-1l-10-1m-75 4c-7 8-15 14-17 25-1 4-2 9 0 13 2 0 4 0 5-2 2-7 4-14 9-19 6-6 13-9 19-14a57 57 0 00-16-3m94 83c-3 6-6 12-6 19l8-10c4-5 5-12 6-18-4 2-6 6-8 9zM295 132h11c9-1 17 4 23 10s10 14 14 21l1 1 8 13c3 3 7 3 10 5h3l10 2v8l-12 4 7 10c4 3 8 7 7 12v7c0 8-7 13-13 17l1-2h-3l10-9c4-7 3-16-3-21l-3-3-7-11c-8-1-17-4-22-11l-9-15c-4-6-8-12-14-15-5-2-11-2-16-2l1 8v4c-3-2-3-5-3-8l1-7c8-1 17 0 23 6 10 7 14 19 22 28 4 6 12 8 19 8 5 0 10-1 12-5l-16-4c-5-1-7-4-10-7-3-7-8-13-12-19l-10-14c-8-7-19-10-29-8l-1-3zM256 138c6-2 12-2 17-1l-1 4c-7 1-11 8-16 12l3-6 6-7c-3 0-6 0-9 2-4 3-7 6-9 10-6 3-13 5-19 6 5-3 11-5 16-10 4-3 7-8 12-10z"/><path d="M229 168l7 18c3 6 7 10 12 15l10-5h19c4 0 7-2 10-4-8 0-17 0-24-4-5-2-8-7-10-12 4 3 7 8 11 10 7 3 15 3 22 3 4 0 8 1 11-2l12-11h-14c-5 1-11 3-16 1l-13-5 1-2c5 2 9 4 14 4 6 1 12-1 18-2l13 1 15 1 5 7-5 5 3 1c-5-2-11 1-15 5-5 8-12 15-20 19l-10 2c-4 0-9 0-12 3v-2c-8 1-15 7-21 13 3 2 6 4 8 8 4 6 7 13 12 18l10 10c3 6 2 14 6 20 4 5 9 7 14 10l-5 3-11-10c-5-7-3-17-9-24l-12-12-8-14c-1-3-5-5-8-7-5 1-10 4-14 6 3 2 7 4 9 7 5 5 9 13 13 19 4 5 10 8 13 14l7 19c1 4 4 6 7 9l-5 2c-2-4-5-7-6-12-2-7-4-15-9-21l-11-10 2 19 1 8 8 8 5 13-4 2-4-12c-3-4-6-7-11-9l-7-2 2-3 7 2v-16l-1-1c-1-9-5-18-12-25-4-3-6-8-11-10l-13-2 11 14c2 6 8 9 9 16h-5l-1 1h-3c0-6-1-13-5-18l-14-17c-5-6-6-14-7-22 0-7 2-14 6-19-2 7-4 16-1 23 1 7 6 12 10 16 3 4 9 6 15 5 11-3 21-10 30-17 6-5 14-6 22-6 10 1 18-6 25-12 4-5 7-10 12-13l7-4 2-1v-2c-5-2-10-1-14 0-6 2-10 7-14 11-6 4-12 7-19 9-8 3-17 0-25 2-7 3-11 9-16 14-5 3-11 5-17 5-3-1-6-3-7-6-3-7-2-16 0-23 1-5 2-10 5-14-1 9-4 18-4 28 1 3 1 8 4 11 4 2 8 0 11-1-2-6-6-11-9-16 6 3 9 10 13 15l10-10c-5-5-10-9-12-16l-5-19zM109 216c5-1 10 0 14 2 7 4 8 14 2 19-4 0-8 0-12-2-3-2-9-3-10-8s2-10 6-11z"/><path d="M310 216c5 0 10-1 14 2l4 8c0 4-3 7-7 8l-11 3c-5 2-12-1-12-7-1-7 6-12 12-14zM131 271l4-1-3 16-5-3c3-3 3-8 4-12zM319 272l11-2c0 2 0 5 3 5l-5 3-2-6-11 1 4-1zM303 272l8 1 3 13-5 3c3-6 0-14-6-17zM198 283l3 4c0 6-1 12-3 17l-7 12-6-3h3l8-14c2-5 2-11 2-16zM239 302c4 1 8 2 11 5l4 10-3 2-3-9-8-4-1-4z"/></g><g fill="#970901"><path d="M131 191c4-1 8 0 11 1 0 6-3 11-2 17 0 6-1 13 2 19l9 11c1 5 1 12-4 16-4 4-9 8-15 8l-20-1c-6-1-12-5-18-7-7-4-10-12-14-18v6a45 45 0 0035 26c12 1 25-3 34-12 5-5 8-11 10-18l2 3c-2 6-5 12-9 17-5 5-11 8-17 11l-4 1c-5 1-10 2-15 1l-9-1c-5-3-11-5-16-9l-10-11-1-2-2-5-1-2v-1l-1-3v-2l-1-7 1-1v-6-2l1-3v-1l1-2v-1l2-4 9-6-5 8c3-2 6-4 10-4 8 0 16-2 23-7 5-3 9-7 14-9m-22 25c-4 1-7 6-6 11s7 6 10 8c4 2 8 2 12 2 6-5 5-15-2-19-4-2-9-3-14-2zM340 195l2-1c7 5 11 12 16 18 2 4 3 8 2 13-2 6-7 10-11 14-2 3-4 8-2 12s6 5 10 6l-1-3-2-8c2-4 5-5 8-6h3l-1 2-5 3c-2 0-3 3-2 4l4 5v1l1 3-6 3c-3-2-6-4-9-2l-4-12c1-8 7-12 11-18 2-2 2-5 1-8-5 5-9 10-12 16-3 4-1 10-4 15-3 4-8 6-12 8l-19 3c-7 0-13-2-20-3 4 6 11 7 16 10 5 2 10-1 15 2l-4 1h-4l-8-1c-11-2-20-10-26-19-8-11-9-25-4-37 3-3 8-3 12-3l-7 2c-3 2-4 5-5 8v12c2-5 2-12 7-16 6-2 12-1 18-4l13-8c5-3 9-8 15-8 6-2 12 2 19 0l-5-4m-30 21c-6 2-13 7-12 14 0 6 7 9 12 7l11-3c4-1 7-4 7-8l-4-8c-4-3-9-2-14-2zM165 253l2 2c-9 8-18 19-20 32l-2 6-4-2h2c0-5 1-9 3-13 3-6 6-11 10-15 2-4 6-7 9-10z"/></g><g fill="#809bd6"><path d="M77 252l1-1-1 1zM75 253l1-1-1 1zM73 254l1-1-1 1zM71 255l1-1-1 1zM367 256zM368 257zM370 258l1 1-1-1zM373 260l1 1-1-1zM376 262l1 1-1-1zM55 264zM379 264zM52 266l1-1-1 1zM382 266l1 1-1-1zM46 271c0-1 2-4 3-3 0 2-1 3-3 3zM196 270c9-3 18-1 27-2 7 0 15-1 22 1h-4c-1 5-2 11-5 15l-8 9-13 4c-6-3-9-9-12-14-3-4-7-8-7-13zM30 285l6-6-6 6zM403 286c2 1 2 1 0 2v-2zM403 290l1 1-1-1zM27 292l1-1-1 1zM22 299l1-1-1 1zM411 300l1 1-1-1zM214 304c5-1 10-1 15 1 6 3 10 10 7 17-2 3-5 5-8 6l-13-2-8-3c0-7 4-13 6-19h1zM18 305l1-1-1 1zM415 305l1 1-1-1zM417 308zM420 312l1 1-1-1zM422 315zM426 334l1-1-1 1zM417 343l1-1-1 1zM413 346l1-1-1 1zM24 347l1 1-1-1zM409 349l1-1-1 1zM28 350l1 1-1-1zM406 351l1-1-1 1zM403 353zM400 355l1-1-1 1zM35 355l1 1-1-1zM393 359zM45 361l1 1-1-1zM388 362l1-1-1 1zM47 362zM387 363v-1 1zM61 369l1 1-1-1zM68 372l1 1-1-1zM207 382c-2-4-1-9 4-10l4 2c1 2 1 5-1 6-2 2-5 2-7 2zM73 374l1 1-1-1zM362 375h1-1zM360 376l1-1-1 1zM81 377l4 2c-1 1-4 0-4-2zM92 381l4 2c-1 1-4 0-4-2zM104 386zM110 387l1 1-1-1zM311 392l1-1-1 1zM307 393zM173 400l3 1c-2 1-2 0-3-1z"/></g><g fill="#091a37"><path d="M78 251h3l10 11c5 4 11 6 16 9 7 4 13 9 20 12l5 3 9 5 4 2a155 155 0 0018 10l9 4 5 2 8 4 6 3 13 5 8-22c-4-3-8-7-11-12l-3-4-5-9v-6l5-2h2l26-1h18c3 0 6 3 7 6l1 1a67 67 0 01-9 17l-8 8 4 5 1 4 6 15 5-2 3-2 8-4 3-1 4-2 10-5 5-2a184 184 0 0018-10l7-4 5-3 14-8 5-3 23-14 6-3-1-3a3884 3884 0 006 2h1l1 1h1l1 1 2 1 1 1 2 1 1 1a359 359 0 005 3l1 1 6 4 2 2 5 4 2 2 4 4 1 2v5l1 1 3 4 2 2 2 3 1 1 3 4 1 1a353 353 0 012 3l2 3 1 1 1 2 1 1 1 2c0 1 0 3 2 3l1 1v2l1 2v3l-1 3v1l-1 1-1 2c-2 0-3 1-3 3l-4 3-1 1-3 2-1 1-3 2-1 1-2 1-1 1a357 357 0 00-3 2l-2 1-1 1-6 3-1 1-4 2-1 1h-1v1l-24 12h-2l-1 1-4 1-2 1-3 1-2 1h-1l-2 1h-1l-2 1h-1l-2 1h-1l-2 1h-1l-2 1h-1l-2 1h-1a129 129 0 00-14 4l-2 1h-2l-1 1-3 1h-4l-3 1h-1l-3 1h-1l-3 1h-2l-3 1h-1l-4 1h-1l-4 1h-2l-4 1h-2l-4 1h-2l-5 1h-3l-5 1h-6l-8 1h-43l-10-1h-3a120 120 0 00-5-2l-3-1a135 135 0 00-13-2h-1l-4-1h-2l-4-1a146 146 0 00-6-1h-1l-3-1a175 175 0 00-5-1h-2l-3-1h-2l-2-1h-2l-2-1h-2l-2-1-6-1-1-1h-1l-2-1h-2-1l-8-3-4-2h-1l-2-1h-1l-2-1h-1l-4-2h-1l-2-1-4-1-1-1-4-1-1-1-6-2-1-1a135 135 0 01-14-7h-1l-1-1-9-5-1-1-6-4-1-1-3-2-1-1-7-6-2-2-5-7-2-5v-2l1-4c1-6 6-11 9-16l1-1 3-5 1-1 4-6 1-1 2-6 6-6 3-3h1l1-1c2 0 3-1 3-3a112 112 0 005-4l3-2 1-1 2-1 1-1 9-5 6-3 1-1h1l1-1h1l1-1h1l1-1m-9 9c-6 3-13 6-18 11-6 5-13 10-18 17 13-1 25-5 37-7l8 2-2 4c-5 8-13 14-20 21 8 5 18 6 27 8l115 25h8l14-8-17-8c-7-2-13-6-20-9-13-6-26-11-38-19-18-9-35-19-51-30-6-4-9-9-14-13-4 1-8 4-11 6m279 10l-32 19c-5 4-11 6-16 9l-24 12-20 10-25 12c-8 4-16 7-23 12l21-3 50-11 62-11 33-6c-3-7-13-8-16-14-1-4 3-5 5-6 12-3 25-3 37-6l-3-4c-9-8-18-16-28-21l-6-3c-5 4-9 8-15 11m-152 0c0 5 4 9 7 13 3 5 6 11 12 14h1v3c-2 0-2 2-2 4h-1c-2 6-6 12-6 19l8 3 11 5 16-8v-1l-8-23c-1-2 0-4 2-6 5-4 7-10 10-16 2-2 3-7-1-8-7-2-15-1-22-1-9 1-18-1-27 2M32 291l-6 9-14 21c-1 4 0 9 3 12 4 6 10 10 16 14 7 6 15 11 24 15 9 5 19 8 28 12 13 5 25 9 38 12 15 5 30 6 45 10h8c2-8 6-14 10-21 4-10 11-19 16-29l-6-2-39-9a3827 3827 0 01-98-22c-3-1-6-4-4-7 6-8 16-12 20-21-14 0-27 6-41 6m366 1c-8 0-15 2-23 3l-13 2v2c5 4 12 6 15 11 1 2 1 6-2 6-9 4-18 4-27 6-14 1-27 4-41 7l-34 6-27 6c-9 2-19 3-28 6-5 1-11 0-16 3-4 4-6 10-9 15l-7 14c-2 6-6 10-7 15-1 2-1 4 1 4 3 2 7 2 11 2l22 1 35-1a475 475 0 00136-40l26-16c4-4 9-6 12-11 1-2 3-4 2-6-2-6-5-10-8-15l-13-17c-2-1-3-3-5-3z"/><path d="M209 368c4-1 10 0 12 4s3 9 0 12c-5 5-13 4-18 0-2-6 0-14 6-16m2 4c-5 1-6 6-4 10 2 2 6 3 9 1 4-1 4-6 2-9-1-3-5-3-7-2z"/></g><g fill="#1b4b98"><path d="M69 260c3-2 7-5 11-6 5 4 8 9 14 13 16 11 33 21 51 30 12 8 25 13 38 19 7 3 13 7 20 9l17 8-14 8h-8L83 316c-9-2-19-3-27-8 7-7 15-13 20-21l2-4-8-2c-12 2-24 6-37 7 5-7 12-12 18-17 5-5 12-8 18-11zM348 270c6-3 10-7 15-11l6 3c10 5 19 13 28 21l3 4c-12 3-25 3-37 6-2 1-6 2-5 6 3 6 13 7 16 14l-33 6-62 11-50 11-21 3c7-5 15-8 23-12l25-12 20-10 24-12c5-3 11-5 16-9l32-19z"/><path d="M32 291c14 0 27-6 41-6-4 9-14 13-20 21-2 3 1 6 4 7l24 7a3827 3827 0 00119 26c-5 10-12 19-16 29-4 7-8 13-10 21h-8c-15-4-30-5-45-10-13-3-25-7-38-12-9-4-19-7-28-12-9-4-17-9-24-15-6-4-12-8-16-14-3-3-4-8-3-12l14-21 6-9zM398 292c2 0 3 2 5 3l13 17c3 5 6 9 8 15 1 2-1 4-2 6-3 5-8 7-12 11l-26 16a330 330 0 01-136 40l-35 1-22-1c-4 0-8 0-11-2-2 0-2-2-1-4 1-5 5-9 7-15l7-14c3-5 5-11 9-15 5-3 11-2 16-3 9-3 19-4 28-6l27-6 34-6c14-3 27-6 41-7 9-2 18-2 27-6 3 0 3-4 2-6-3-5-10-7-15-11v-2l13-2c8-1 15-3 23-3m-189 76c-6 2-8 10-6 16 5 4 13 5 18 0 3-3 2-8 0-12s-8-5-12-4zM216 297c6 1 14 0 20-4-2 2-3 4-2 6-6 1-12 3-18 1v-3z"/></g><g fill="#6983bf"><path d="M361 254h2v1h-2v-1zM241 269h4c4 1 3 6 1 8-3 6-5 12-10 16-6 4-14 5-20 4h-1l13-4 8-9c3-4 4-10 5-15zM216 300c6 2 12 0 18-1l8 23v1l-16 8-11-5 13 2c3-1 6-3 8-6 3-7-1-14-7-17-5-2-10-2-15-1 0-2 0-4 2-4zM8 325c-1-1-1-4 1-4l-1 4zM427 324h1v2l-1-2zM427 332l1-3c1 1 0 2-1 3zM211 372c2-1 6-1 7 2 2 3 2 8-2 9-3 2-7 1-9-1 2 0 5 0 7-2 2-1 2-4 1-6l-4-2zM78 376l2 1h-2v-1zM354 378l2-1v1h-2zM86 379a277 277 0 010 1v-1zM349 380l2-1v1h-2zM89 380l2 1h-2v-1zM346 381l2-1v1h-2zM343 382l2-1v1h-2zM340 383l2-1v1h-2zM337 384l2-1v1h-2zM334 385l2-1v1h-2zM331 386l2-1v1h-2zM107 386l2 1h-2v-1zM328 387l2-1v1h-2zM321 389l2-1v1h-2zM117 389l2 1h-2v-1zM121 390l2 1h-2v-1zM314 391l2-1v1h-2zM125 391l2 1h-2v-1zM134 393l3 1c-1 1-2 0-3-1zM301 394l3-1c-1 2-2 2-3 1zM139 394l3 1c-1 1-2 0-3-1zM297 395l3-1c-1 1-2 2-3 1zM143 395l4 1c-1 1-4 1-4-1zM293 396l3-1c-1 2-2 2-3 1zM149 396l4 1c-1 1-4 1-4-1zM288 397l3-1c-1 2-2 2-3 1zM155 397l4 1c-1 1-4 1-4-1zM283 398l4-1c0 2-3 2-4 1zM160 398l5 1c-1 1-5 1-5-1zM278 399l4-1c0 2-3 2-4 1zM167 399l4 1c-1 1-4 1-4-1zM272 400l4-1c0 2-3 2-4 1zM266 401l4-1c0 2-3 2-4 1zM259 402l5-1c0 2-4 2-5 1zM179 402l2 1h-2v-1zM251 403l5-1c0 2-4 2-5 1zM237 404l8-1v1h-8z"/></g></svg>