<svg width="683" height="683" viewBox="0 0 512 512" xmlns="http://www.w3.org/2000/svg"><g fill="#650200"><path d="M162 75c6-3 14-3 19 1 3 3 2 7 2 10-1 4-5 5-7 8-8 4-17 9-22 17l-11 12h-8c-4-5-2-11 0-16 2-9 8-16 13-23 5-3 8-8 14-9m6 1l-4 1c-10 5-18 14-23 24-3 5-5 11-5 16l1 3 5-1 14-16 14-10 9-6c2-3 1-8-2-9-3-2-6-3-9-2zM170 116h10l3 1c5 0 9 2 13 4 5 5 12 11 13 19l2 9v7l-1 4v4l-1 1-1 2-4 7v14l1 7v4l1 3v3l1 4v1l1 3v1l1 2 4 11 2 6c3 8 6 15 11 22l1 3-5-5-8-15c-6-13-11-27-12-42l-1-18-14 8c-5 2-11 2-16 2a69 69 0 0010 10c7 7 11 15 16 24 7 12 11 26 14 40l-1 1-5-15-3-7-1-6-2-3-3-6c-7-11-13-22-22-31-5-2-8-7-12-9l-2-1c-7-2-12-7-17-12-2-5-5-10-5-15v-9c-1-4 1-7 2-11 2-6 7-11 12-16l10-4 2-1h2l4-1m-3 4c-10 2-19 9-23 18-4 8-5 18-1 27 3 8 10 14 19 17 5 3 11 3 17 3 13-2 25-12 28-25 1-7 1-14-1-20-3-7-8-13-15-17s-16-6-24-3zM315 117h12l3 1c3 0 6 0 8 2l2 1 4 1 7 7c3 4 7 9 7 14l1 2v16l-1 2v3h-1l-1 2c0 4-4 8-7 11-4 4-9 8-15 9-5 1-8 6-10 9l-1 1c-6 9-10 19-15 29l-2 5-3 9-2 6-3 16-2-1 3-12c3-9 4-20 8-29 5-11 11-22 18-31l-13-2-13-5v8c-1 15-5 30-8 44l-5 14-5 9 4-14 1-3a91 91 0 004-15v-1l1-3 1-6 1-3v-1l1-4v-3l1-5v-7l1-7v-7c-5-4-8-9-9-15l-2-8v-4l1-5 2-9c3-5 6-11 12-14 3-3 7-6 12-6l3-1m-14 10a34 34 0 00-8 44c5 7 12 13 21 14l5 1a34 34 0 0031-53c-5-6-12-11-20-12-10-3-21-1-29 6z"/><path d="M157 136c10-4 21 4 21 14s-12 16-20 13c-5-1-8-4-10-8-3-8 2-17 9-19m-8 14l-1 3c3 2 7 2 10 2 2 0 5-2 2-3-3-2-7-2-11-2m15 3v3l3-1 1-3c-2 0-4-1-4 1zM324 147c3-2 7-1 10-1 7 2 14 9 12 17-1 6-6 11-12 12-7 2-17-3-19-10-1-4 0-8 2-11s4-6 7-7m-7 13v3c3 2 7 3 11 2 1-1 1-4-1-4-3-1-6-2-10-1m14 4c1 2 3 2 5 1v-3c-2-1-4 0-5 2zM372 223c5 0 11-1 16 1 8 1 15 8 18 15l1 4-12-13c-7-4-15-5-23-5v-2zM108 233c3-4 8-5 13-5l2 1c-4 1-8 3-11 6l-7 7v-2c0-3 2-5 3-7zM360 237c10 0 20 0 29 4 7 5 12 11 15 18h-2l-10-12-17-7-15-2v-1zM127 238h14c-2 2-6 2-9 3-8 1-14 7-17 14l-2 6-1-5c-1-3 1-6 3-9 2-5 8-7 12-9zM365 303v-13c3 5 3 11 3 17 0 8-3 16-8 22-5-2-8 3-12 3h-22c-3 0-6 1-8-1l-15-11-10-8c-1-4-2-7-1-11 3 3 6 8 11 11a42 42 0 0047 8c7-4 13-10 15-17zM222 297l3-1c2 10 3 21-2 30-4 10-13 16-22 19-3 0-5-1-6-3-8-7-19-12-29-16l-13-6-3-2-4-4 2-1 6-1 17 8c7 2 12 8 20 9s15-3 22-7c7-6 9-16 9-25z"/></g><g fill="#960901"><path d="M315 82c2-6 9-10 15-8l4 1c4 0 8 2 11 4 9 4 16 10 23 17 3 4 8 9 7 14v6l-3 2h-5l-6-3-22-14-21-7c-4-3-3-8-3-12m7-5l-1 3c-4 2-4 9 0 11l18 7c9 4 18 10 26 16l7 1c1-5-1-9-4-13l-1-2h-1c-8-10-19-19-33-22l-11-1zM326 268a39 39 0 0139 22v13c-2 7-8 13-15 17-5 4-12 5-19 5-11 0-21-5-28-13-5-3-8-8-11-11 0-13 7-24 19-29l15-4m2 15c-4 1-7 4-8 8-3 5 4 12 10 11h11c3-2 5-6 4-10-2-7-10-11-17-9zM169 274c10-5 22-6 33-2 10 4 20 12 23 24l-3 1c0 9-2 19-9 25-7 4-14 8-22 7s-13-7-20-9l-17-8-6 1c-3-16 6-33 21-39m11 11c-3 1-6 3-8 6-3 4-1 10 3 12s8 0 11 1c5 1 9-3 10-7 0-8-9-14-16-12zM234 277c4 1 5 6 7 10l3 2c10 2 20 2 30-1 2-4 2-9 6-11l-1 11v16c-3-3-4-8-5-12l-9 3c-8 2-17 1-24-3-1 4-2 9-6 12l1-5c1-6 1-12-1-18l-1-4zM20 304c6-6 13-11 22-12h14c8 0 15 6 19 13 7 9 12 19 16 29l8 13h2c2-3 3-6 3-10l1-1 1-4v-2l1-2c0-5 3-11 4-16l2-6 1-3v-1l1-2 2 1-11 42c0 3-2 6-4 8-4 1-6-2-8-4-7-11-10-23-17-34-5-8-11-16-20-18a35 35 0 00-32 10c-3 2-4 5-5 8 11-1 23 0 33 6 11 7 17 18 23 29 5 10 8 21 17 29 3 4 9 4 13 2l7-8h4c-4 5-8 12-15 12h-5c-3 1-5-2-7-4-8-7-11-17-15-27l-9-14c-3-6-8-10-12-15-5-4-11-4-16-6l-3-1c-6 0-12 1-18-1 0-4 0-8 3-11zM397 293l3-1 7 25 2 9 1 4 1 6 1 3 2 5c0 4 3 7 4 10l4-1c4-5 7-12 9-18l5-15c4-6 7-13 13-18 6-4 13-8 21-8h8c5 0 9 2 13 4s6 6 5 10c0 6-6 6-10 6l-3 1-15 4-6 4c-4 4-7 8-9 13l-2 6-1 2-1 5-7 17-7 11c-4 2-7 5-11 5h-10c-3 0-6-2-8-4-4-4-8-8-9-13l-5-13v-2l3 2c4 9 7 19 15 24 4 4 11 5 16 2 4-2 8-4 10-8 7-11 10-24 14-36 3-7 9-13 16-17l18-6 9-2c1-4-2-7-5-9-10-6-23-4-32 2-10 6-16 17-20 27-3 10-5 20-13 27-1 2-4 2-6 1-4-4-6-9-7-14-4-17-7-34-13-50z"/></g><g fill="#a95831"><path d="M330 74c1-1 4-1 4 1l-4-1zM375 110c2 0 2 6 0 6v-6zM166 117c0-2 3-2 4-1l-4 1zM180 116c1-1 2-1 3 1l-3-1zM312 118c1-1 2-2 3-1l-3 1zM327 117c1-1 2 0 3 1l-3-1zM367 118h5c0 2-5 2-5 0zM338 120h2v1l-2-1zM136 123h4c0 2-4 2-4 0zM285 152c0-1-1-5 1-5l-1 5zM137 149h1v9h-1v-9zM210 160l1-4c1 1 1 4-1 4zM160 185l2 1h-2v-1zM295 193c0-2-1-6 1-7l-1 7zM204 188c2 1 1 5 1 7l-1-7zM205 199c1 1 2 2 1 3l-1-3zM294 205c-1-1-1-5 1-5l-1 5zM206 205c2 0 2 3 1 4l-1-4zM293 212c-1-1-1-4 1-4l-1 4zM207 210c1 1 2 2 1 3l-1-3zM292 216c-1-1 0-2 1-3l-1 3zM121 228c1-2 3-1 5-1 0 2-2 2-3 2l-2-1zM102 249l3-9v2c0 3-1 6-3 7zM111 256h1l1 5c0 2 0 4-2 6v-11zM113 306c-1-2 0-2 1-3l-1 3zM483 315l3-1c-1 1-2 2-3 1zM35 316l3 1c-1 1-2 0-3-1zM409 326c2 0 2 3 1 4l-1-4zM105 336c-1-1-1-4 1-4l-1 4zM411 336c1 1 2 1 1 3l-1-3zM336 394l1 3c-1-1-2-2-1-3z"/></g><g fill="#f38303"><path d="M168 76c3-1 6 0 9 2 3 1 4 6 2 9l-9 6-14 10-14 16-5 1-1-3c3-2 4-4 5-7l16-17 11-10c3-2 0-5 0-7zM321 91c-4-2-4-9 0-11l8 6c10 5 20 8 29 14l9 6 1-4c3 4 5 8 4 13l-7-1c-8-6-17-12-26-16l-18-7zM187 186l14-8 1 18c1 15 6 29 12 42l8 15c-6-5-10-12-15-19l-7-17-6-18c-1-2-2-5-4-5-4-1-8 0-11 2l-8-8c5 0 11 0 16-2zM299 183l13 5 13 2c-7 9-13 20-18 31-4 9-5 20-8 29-1-13 4-26 6-40 1-4 3-9 3-14 0-2-2-3-4-4l-5-1v-8zM277 230l12-1-3 12c-6 0-12 1-17 3l10-6c3-1 2-5 2-7l-4-1zM246 230c4 0 8 0 11 2l-9 5-2-7zM191 233c2-2 5-2 8-1l2 3c-4 1-7-1-10-2z"/><path d="M215 231l11 5c-1 2-4 4-3 6 0 5 2 9 3 13-5-7-8-14-11-22v-2zM306 232l7 1c-1 3-1 6 1 8 7 6 15 9 23 14 3 3 7 4 11 5l1 2c-2 1-5 3-7 2-6-3-12-6-16-10-7-5-15-9-23-10v-3l3-9zM162 249c6-3 12-5 19-4 3 1 6 4 8 7l-11-4c-6 1-12 4-16 8l-11-1 5-7c2 1 4 2 6 1zM352 265c7-2 15-4 22-1 12 6 20 17 23 29 6 16 9 33 13 50 1 5 3 10 7 14 2 1 5 1 6-1 8-7 10-17 13-27 4-10 10-21 20-27 9-6 22-8 32-2 3 2 6 5 5 9l-9 2c-3-7-13-8-20-5-7 4-13 9-16 16l-12 28c-2 5-5 10-10 13-3 3-9 3-13 0-7-6-8-17-11-25a645 645 0 00-16-54c-4-6-9-11-15-14s-13-4-19-5zM25 305l14-2c7-1 13 0 19 3 7 4 10 12 15 18l18 36c3 4 5 9 9 12 3 0 5-2 6-4l17-33c3-4 5-9 9-13l-19 49-7 8c-4 2-10 2-13-2-9-8-12-19-17-29-6-11-12-22-23-29-10-6-22-7-33-6 1-3 2-6 5-8zM377 308c2 4 4 9 3 14-1 7-6 14-11 18-9 6-20 7-30 7-8 0-16 2-23 6-6 4-11 9-15 14-6 8-10 18-12 28-2 7-3 15-6 21-1 1-2 3-4 3-2-1-3-3-3-5 2-2 3-3 3-5l6-26c3-6 5-12 9-17l13-16c10-7 22-11 34-9 10 2 22-1 30-8 5-7 5-17 6-25zM150 318l3 2 7 6c12 5 25 11 34 20 4 4 8 8 10 14 4 9 4 19 6 29 1 9 3 17 6 25 2 4 5 8 5 13l-6-1-7-16c-2-12-3-24-7-35-2-8-4-17-10-23-8-8-17-16-28-21-6-3-10-8-13-13zM238 347l5-15-1 15c-1 5-4 11-3 17 1 5 6 8 11 9 9 2 18 5 26 10 0 6-2 11-3 16l-4-3c0-3 1-8-2-11-8-5-19-5-27-11-4-2-6-6-6-10 0-6 3-11 4-17zM225 348l3-13-1 12-4 23 1 17-11-5-2-6h2c2 0 4-1 5-3 5-7 5-17 7-25zM129 347v-7l13 14 11 10c4 4 7 10 6 17 0 9-5 16-11 22l-4-1c3-6 7-11 8-17 0-4 1-9-1-13-4-5-10-8-14-12-4-3-6-8-8-13z"/><path d="M353 350c6-2 13-3 19-8-1 6-1 12-4 17l-8 10c-5 6-8 13-9 21l-2 14-3 1v-21c2-8 7-14 10-21 1-2 2-4 1-6l-5-2 1-5zM152 344c4 1 7 6 8 10-4-2-7-6-8-10zM276 347c4 5 5 12 5 18l-4 15-5-3 4-11v-19zM121 361l5-12c2 5 4 10 8 14 5 3 10 6 13 11 2 1 2 3 2 5-9-3-18-5-24-13l-4-5zM162 349c6 2 12 4 16 8l3 12c2 4 6 6 10 9l3 16-8-4-1-2c-1-2-1-5-3-7l-9-7c-3-5-2-11-6-15l-1 2v1l-4-13zM330 351h19c-3 7-9 11-16 13l-3-13zM314 358c4-3 8-5 13-6 1 6 3 11 2 17l-4 13-5 13 1 16c-2-1-4 0-5-2v-15c1-9 6-18 6-27-1-4-5-3-8-2-1-2-2-5 0-7zM262 356c1 5 1 11-1 17l-15-6c-3-1-3-4-3-7 2 3 5 6 9 7 3 1 7-1 9-3s1-5 1-8z"/><path d="M182 361l7 11c-5-1-7-6-7-11zM302 376c-1-5 4-9 7-13 2 0 2 3 2 4v5l-9 4zM293 392c2-5 3-10 6-14 1 5 0 11-4 15 0 2-2 0-2-1zM227 380c5 4 9 8 15 10 3 1 4 4 4 6 1 5 1 11-1 15l-4 11c-1 2-3 2-5 3l-1-6h5c3-3 2-8 1-12-2-6-6-11-11-15-3-3-3-8-3-12zM170 393c-1-3-2-6-1-9l12 7c2 2 2 5 2 7 0 5-3 11-9 12-1-6-1-12-4-17z"/><path d="M213 386c8 2 15 8 20 15-4-3-9-5-14-5l-1 6c-1-1-2-1-2-3-2-4-3-9-3-13zM289 411c0-5 1-9 3-14 6 6 11 13 10 21 1 3 0 6-1 9-4-1-5-5-6-8l-6-8zM265 399l5 1c0 5-4 8-6 11-6 7-11 15-15 23 0 2-2 2-4 2l-1-8h4c3-11 10-21 17-29z"/></g><g fill="#fcae59"><path d="M164 77l4-1c0 2 3 5 0 7l-11 10-16 17c1-3 2-7 5-9 5-7 11-13 18-18l3-5-3-1zM322 77l11 1h-10c2 3 6 3 10 4l23 13c3 2 6 5 10 5h1l1 2-1 4-9-6c-9-6-19-9-29-14l-8-6 1-3zM304 192c2 1 4 2 4 4 0 5-2 10-3 14-2 14-7 27-6 40l-3 12 2 1 3-16c8 0 16 3 21 9l-11-1c3 2 7 2 11 3 7 2 14 6 20 10 4 0 6-2 10-3 6 1 13 2 19 5s11 8 15 14l6 17 10 37c3 8 4 19 11 25 4 3 10 3 13 0 5-3 8-8 10-13l12-28c3-7 9-12 16-16 7-3 17-2 20 5l-18 6c-7 4-13 10-16 17-4 12-7 25-14 36-2 4-6 6-10 8-5-2-11-2-14-7-8-8-11-18-15-28-3-6-4-13-8-18l-6-11v2c-3-5-5-12-11-14l5 6c-1 8-1 18-6 25-8 7-20 10-30 8-12-2-24 2-34 9l-13 16c-4 5-6 11-9 17 2-16 11-31 25-38 9-5 19-5 29-5 7-1 14 0 20-4 4-3 8-7 10-12 2-4 1-9 1-14l-2-3c0-6 0-12-3-17-3-7-10-13-17-17-6-4-14-5-22-5h-21c-2 1-5 1-6 3l11-1 1 2c-12 5-19 16-19 29-1 4 0 7 1 11v2l-7-3c5 4 12 7 17 12l12 11-13 6c-6-6-13-10-21-13 6 5 13 9 18 15l-7 6-6-7 4 10c-2 3-3 6-6 8-1-4-2-9-5-13l-7-13 4 14v19l-4 11-4-1c4-5 4-12 3-17-1-7-4-13-8-18-4-3-6-8-8-12v2l-3-4c1 10 8 19 10 29 0 3 1 6-1 8s-6 4-9 3c-4-1-7-4-9-7l2-18v-14c-2 1-2 2-2 4l-5 15c-1 6-4 11-4 17 0 4 2 8 6 10 8 6 19 6 27 11 3 3 2 8 2 11l-2-1c1-2-2-4-4-5-10-5-22-8-30-16-3-2-4-5-4-9l-2 2c2-11 4-22 2-33l-1 1-3 13c-2 8-2 18-7 25-1 2-3 3-5 3 0-8 0-17-2-25l-1 14v-13l-2 6-8-11 1-2c9-3 18-9 22-19 5-9 4-20 2-30-3-12-13-20-23-24-11-4-23-3-33 2-15 6-24 23-21 39l-2 1 4 4c3 5 7 10 13 13 11 5 20 13 28 21 6 6 8 15 10 23 4 11 5 23 7 35-4-7-5-15-7-22-1-12-5-25-13-34-9-10-22-13-34-17-4-2-8-5-13-4l-3-3c1 4 4 7 7 10 4 3 5 9 8 12 2 3 6 5 9 7 0 6-2 12 1 18 6 10-2 28-15 26 6-6 11-13 11-22 1-7-2-13-6-17l-11-10-13-14 6-18 7-15c-5 3-6 10-10 15-4 4-6 9-9 13l-17 33c-1 2-3 4-6 4-4-3-6-8-9-12l-18-36c-5-6-8-14-15-18-6-3-12-4-19-3l-14 2 1-2c5 1 9-2 14-3 9-2 19 0 25 7 14 13 17 33 30 47 3 4 9 3 12-1a655 655 0 0015-50c2-9 5-18 10-26 4-8 12-14 21-15 6-1 12 2 18 1l3 1c-2-3-5-5-8-6 4-5 11-8 18-6l10 5-5-5c-2-3-5-6-8-7-7-1-13 1-19 4-2 1-4 0-6-1l2-2 13-3c7-2 14-2 22-1l12 6 5 15 1-1 1-4-5-24c5 7 9 14 15 19l5 5-1-3c-1-4-3-8-3-13-1-2 2-4 3-6 7 5 12 12 17 18-2-6-7-12-12-17 5-2 10-3 14-6h-5l6-1 2 7-5 4h1c4 1 8-2 13-2 7-3 15-4 22-5l2-3c0 2 1 6-2 7l-10 6-12 8 15-6c4-2 9-2 13-2l-4 14 5-9v2c7-8 10-18 13-27l4-16 1-16m-70 85l1 4-1 4v17l2-3-1 5c4-3 5-8 6-12 7 4 16 5 24 3l9-3c1 4 2 9 5 12v-6l2 3v-20c-2 2-1 5-2 7l1-11c-4 2-4 7-6 11-10 3-20 3-30 1l-3-2c-2-4-3-9-7-10zM179 196c3-2 7-3 11-2 2 0 3 3 4 5l6 18c-4-5-7-10-12-14-2-2-4-5-7-5l-2-2z"/><path d="M290 225c-1-1 0-2 1-3l-1 3zM238 228c0-2 3-2 4-1l-4 1zM175 233c0-2 4-1 5-1l-5 1zM313 233l2 1 3 3c9 5 16 11 23 18 2 1 3 3 6 2l1 3c-4-1-8-2-11-5-8-5-16-8-23-14-2-2-2-5-1-8zM382 327c0-2 3-1 2 1l-2-1zM106 328h1l-1 2v-2zM352 355l5 2c1 2 0 4-1 6-3 7-8 13-10 21v21c-5-1-6-7-7-11 0-8 1-16 6-23l7-16zM167 359c4 4 3 10 6 15l9 7c2 2 2 5 3 7-4-3-8-5-10-9l-9-18 1-2zM314 365c3-1 7-2 8 2 0 9-5 18-6 27v15c-4-2-7-6-8-11 0-6 2-13 5-18s2-10 1-15zM338 376v-1 1zM337 378h1l-1 2v-2zM336 386c-1-1-1-4 1-4l-1 4zM97 383h5c0 2-5 2-5 0zM325 390l1-1-1 1zM353 396l1-6c0 2 1 6-1 6zM219 396c5 0 10 2 14 5 4 4 6 9 6 15h-3l1-1c2-1 1-5-1-7l-17-7v2l-1-1 1-6zM261 397l4 2c-7 8-14 18-17 29h-4l1-5v4l4-7c4-8 9-15 12-23zM323 400c2 0 1 4 1 6-1-2-2-4-1-6zM171 404v6c-2 0-1-5 0-6zM218 408c-1-1-2-3 0-3l1 2-1 1zM305 414h1v9h-1v-9zM277 422h4c0 2-4 2-4 0z"/></g><g fill="#ffe291"><path d="M141 101c5-10 13-19 23-24l3 1-3 5c-7 5-13 11-18 18-3 2-4 6-5 9s-2 5-5 7c0-5 2-11 5-16zM323 78h10c14 3 25 12 33 22-4 0-7-3-10-5l-23-13c-4-1-8-1-10-4zM299 191l5 1-1 16-4 16c-3 9-6 19-13 27v-2l5-14c3-14 7-29 8-44zM181 198c3 0 5 3 7 5 5 4 8 9 12 14l7 17 5 24-1 4c-3-14-7-28-14-40-5-9-9-17-16-24zM244 241c10-6 21-10 33-11l4 1-2 3c-7 1-15 2-22 5-5 0-9 3-13 2zM228 233l12-2h5c-4 3-9 4-14 6l-3-4zM318 237l-3-3c13 3 24 12 32 23-3 1-4-1-6-2-7-7-14-13-23-18z"/><path d="M169 238c6-3 13-3 20-2l13 5 3 7-12-6c-8-1-15-1-22 1l-13 3 11-8zM132 267c10-10 28-13 39-4-6 1-12-2-18-1-9 1-17 7-21 15-5 8-8 17-10 26l-10 38c-1 5-2 9-5 12-3 4-9 5-12 1-13-14-16-34-30-47-6-7-16-9-25-7-5 1-9 4-14 3 8-8 20-10 31-8 9 2 15 10 20 18 7 11 10 23 17 34 2 2 4 5 8 4a1245 1245 0 0116-49c3-13 6-25 14-35zM234 285l1-4c2 6 2 12 1 18l-2 3v-17zM279 288c1-2 0-5 2-7v20l-2-3v-10zM368 307l2 3c0 5 1 10-1 14-2 5-6 9-10 12-6 4-13 3-20 4-10 0-20 0-29 5-14 7-23 22-25 38a426 426 0 00-9 31c0-15 3-30 7-44 6-16 20-31 37-34 9-2 19 0 28-1l12-6c5-6 8-14 8-22zM383 314l6 11c4 5 5 12 8 18 4 10 7 20 15 28 3 5 9 5 14 7-5 3-12 2-16-2-8-5-11-15-15-24l-12-36v-2zM255 329c2 4 4 9 8 12 4 5 7 11 8 18 1 5 1 12-3 17-1-1-3-2-3-4 2-9 2-18-3-26-3-5-6-9-7-15v-2zM141 333c5-1 9 2 13 4 12 4 25 7 34 17 8 9 12 22 13 34 2 7 3 15 7 22l7 16c-9-5-13-15-15-25l-5-23c-2-9-7-17-14-23s-15-8-23-12c-7-2-13-5-17-10zM211 351c2 8 2 17 2 25h-2l-1-11 1-14z"/><path d="M166 361l9 18c2 4 6 6 10 9l1 2c-6-3-13-6-17-12-4-4-4-10-3-16v-1zM227 367l2-2c0 4 1 7 4 9 8 8 20 11 30 16 2 1 5 3 4 5-11-4-23-5-32-13-5-4-10-9-8-15zM256 395l5 2c-3 8-8 15-12 23l-4 7v-4c0-4 2-7 3-11l8-17zM219 401l17 7c2 2 3 6 1 7l-18-12v-2zM241 428l1 8-1-8z"/></g><g fill="#e1ba9b"><path d="M162 117h2l-2 1v-1zM167 120c8-3 17-1 24 3s12 10 15 17c2 6 2 13 1 20-3 13-15 23-28 25-6 0-12 0-17-3l15-1a32 32 0 0013-55c-3-3-6-6-10-6h-13zM330 121c8 1 15 6 20 12 10 13 8 33-4 44-7 7-17 10-27 9l-5-1 16-1c8-4 15-10 19-18 5-11 4-25-4-34-4-5-9-8-15-11zM209 140h1l1 9-2-9zM358 143h1v2l-1-2zM359 148h1v10h-1v-10zM285 156l2 8h-1l-1-8zM358 163l1-2v2h-1zM208 167l1-2v2h-1zM356 168l1-2v2h-1zM323 198l1-1-1 1zM208 214h1v2l-1-2zM361 259h8v1h-8v-1zM42 291c5 1 10-1 14 1H42v-1zM470 293h8v1h-8v-1zM450 344l1-2v2h-1zM99 347h2-2zM302 385l1-4c1 1 1 4-1 4zM414 382h10v1h-10v-1zM147 390c0-2 0-5 2-6 1 2 0 4-2 6zM326 388l1-1-1 1zM305 390h1v12h-1v-12zM324 392l1-1-1 1zM186 396c2 0 2 3 0 3v-3zM147 406h6c0 2-6 2-6 0zM324 408c2 0 2 4 0 4v-4zM217 430h3c0 2-3 2-3 0z"/></g><g fill="#fffbf4"><path d="M144 138c4-9 13-16 23-18h13c4 0 7 3 10 6 9 7 13 19 10 30-2 12-11 22-23 25l-15 1c-9-3-16-9-19-17-4-9-3-19 1-27m13-2c-7 2-12 11-9 19 2 4 5 7 10 8 8 3 20-3 20-13s-11-18-21-14zM301 127c8-7 19-9 29-6 6 3 11 6 15 11 8 9 9 23 4 34-4 8-11 14-19 18l-16 1c-9-1-16-7-21-14-9-14-5-34 8-44m23 20c-3 1-5 4-7 7s-3 7-2 11c2 7 12 12 19 10 6-1 11-6 12-12 2-8-5-15-12-17-3 0-7-1-10 1z"/><path d="M149 150c4 0 8 0 11 2 3 1 0 3-2 3-3 0-7 0-10-2l1-3zM164 153c0-2 2-1 4-1l-1 3-3 1v-3zM317 160c4-1 7 0 10 1 2 0 2 3 1 4-4 1-8 0-11-2v-3zM331 164c1-2 3-3 5-2v3c-2 1-4 1-5-1zM249 393h3l-1 6c-2-2-2-4-2-6z"/></g><g fill="#c0330b"><path d="M196 226l3 6c-3-1-6-1-8 1 3 1 6 3 10 2l1 6-13-5c-7-1-14-1-20 2a53 53 0 00-13 10l-5 7 11 1c4-4 10-7 16-8l11 4 5 5-10-5c-7-2-14 1-18 6 3 1 6 3 8 6l-3-1c-11-9-29-6-39 4-8 10-11 22-15 34l-2-1-1 2 5-19c3-8 8-15 14-21 4-2 8-6 13-6 5-9 13-16 22-21l7-2 5-1c5-1 10-4 16-4v-2zM262 230l16-4h12l-1 3-12 1c-12 1-23 5-33 11h-1l5-4 9-5c-3-2-7-2-11-2a167 167 0 00-18 3l3 4c5 5 10 11 12 17-5-6-10-13-17-18l-11-5v2l-2-6 11 4c5-1 9-4 14-3l4-1c7-1 14 0 20 3zM306 232l2-5v2c11 2 22 6 30 14l9 9 5 9 9-1h8l7 1c12 7 21 18 24 31l-3 1c-3-12-11-23-23-29-7-3-15-1-22 1-4 1-6 3-10 3-6-4-13-8-20-10-4-1-8-1-11-3l11 1c-5-6-13-9-21-9l2-6v3c8 1 16 5 23 10 4 4 10 7 16 10 2 1 5-1 7-2l-1-2-1-3a54 54 0 00-34-24l-7-1zM269 244c5-2 11-3 17-3l-1 3c-4 0-9 0-13 2l-15 6 12-8zM305 268h21l-15 4-1-2-11 1c1-2 4-2 6-3zM328 283c7-2 15 2 17 9 1 4-1 8-4 10h-11c-6 1-13-6-10-11 1-4 4-7 8-8zM180 285c7-2 16 4 16 12-1 4-5 8-10 7-3-1-7 1-11-1s-6-8-3-12c2-3 5-5 8-6zM372 302c6 2 8 9 11 14l12 36-3-2v2h-1l-4-12-3-12c1-2-2-3-2-1 0 5-5 8-7 13l-3 18c-3 8-11 13-14 21l-4 11-1 6v10c-3 3-7 2-11 2-3-3-6-7-5-11l-1-3v-8l1-4v-2l1-2v-2-1c2-4 6-8 7-13l-8 4-5 3c0 7-3 13-5 18l-1 1v1l-1 1v1l-1 1-1 8c-1 2 0 4 1 6v6l-1 2c-4 1-8-1-11-4-3-2-6-4-6-8v-12c0-5 3-10 5-14-3 1-6 2-8 5l-1 4c1 4-3 8-5 12 3 5 8 10 8 17v9c0 4-2 9-7 8-4-4-6-10-9-15h-3l-5 6h-4c-2 0-3-4-4-5v-12c-6 8-13 16-17 25l-7 10h-5l-2-4-1-8c-2-1-6 1-7-2-3-2-2-6-2-10-4-4-9-6-13-9l-1-2c-2 0-1 2 0 3 1 6 5 11 7 17 1 3-2 6-5 5h-3c-4 0-7-2-10-5-6-6-9-15-10-23-1-5-7-6-11-7v4c1 7-5 15-13 14l-2-3v-6l-3-10h-2c-1 6-7 12-13 12h-10c-1-2-3-4-2-6l6-10c2-2 3-4 2-6s-4-3-6-3l-17-8-7-8-2 6h-4l19-49c4-5 5-12 10-15l-7 15-6 18v7c2 5 4 10 8 13 4 4 10 7 14 12 2 4 1 9 1 13-1 6-5 11-8 17l4 1c13 2 21-16 15-26-3-6-1-12-1-18-3-2-7-4-9-7-3-3-4-9-8-12-3-3-6-6-7-10l3 3c4 5 10 8 17 10 8 4 16 6 23 12s12 14 14 23l5 23c2 10 6 20 15 25l6 1c0-5-3-9-5-13-3-8-5-16-6-25-2-10-2-20-6-29-2-6-6-10-10-14-9-9-22-15-34-20l-7-6 13 6c10 4 21 9 29 16 1 2 3 3 6 3l-1 2 8 11 2-6v13l1 11 2 6 11 5-1-17 4-23 1-12 1-1c2 11 0 22-2 33-2 6 3 11 8 15 9 8 21 9 32 13l2 1 4 3c1-5 3-10 3-16-8-5-17-8-26-10-5-1-10-4-11-9-1-6 2-12 3-17l1-15c0-2 0-3 2-4v14l-2 18c0 3 0 6 3 7l15 6c2-6 2-12 1-17-2-10-9-19-10-29l3 4c1 6 4 10 7 15 5 8 5 17 3 26 0 2 2 3 3 4l4 1 5 3 4-15c0-6-1-13-5-18l-4-14 7 13c3 4 4 9 5 13 3-2 4-5 6-8l-4-10 6 7 7-6c-5-6-12-10-18-15 8 3 15 7 21 13l13-6-12-11c-5-5-12-8-17-12l7 3v-2l10 8 15 11c2 2 5 1 8 1h22c4 0 7-5 12-3l-12 6c-9 1-19-1-28 1-17 3-31 18-37 34-4 14-7 29-7 44 0 2 1 4 3 5 2 0 3-2 4-3 3-6 4-14 6-21a64 64 0 0127-43c7-3 15-5 23-5 10 0 21-1 30-7 5-4 10-11 11-18 1-5-1-10-3-14l-5-6m-19 48l-1 5-7 16c-5 7-6 15-6 23 1 4 2 10 7 11l3-1 2-14c1-8 4-15 9-21l8-10c3-5 3-11 4-17-6 5-13 6-19 8m-201-6c1 4 4 8 8 10-1-4-4-9-8-10m-31 17l4 5c6 8 15 10 24 13 0-2 0-4-2-5-3-5-8-8-13-11-4-4-6-9-8-14l-5 12m41-12l4 13c-1 6-1 12 3 16 4 6 11 9 17 12l8 4-3-16c-4-3-8-5-10-9l-3-12c-4-4-10-6-16-8m168 2l3 13c7-2 13-6 16-13h-19m-16 7c-2 2-1 5 0 7 1 5 2 10-1 15s-5 12-5 18c1 5 4 9 8 11 1 2 3 1 5 2l-1-16 5-13 4-13c1-6-1-11-2-17-5 1-9 3-13 6m-132 3c0 5 2 10 7 11l-7-11m120 15l9-4v-5c0-1 0-4-2-4-3 4-8 8-7 13m-9 16c0 1 2 3 2 1 4-4 5-10 4-15-3 4-4 9-6 14m-66-12c0 4 0 9 3 12 5 4 9 9 11 15 1 4 2 9-1 12h-5l1 6c2-1 4-1 5-3l4-11c2-4 2-10 1-15 0-2-1-5-4-6-6-2-10-6-15-10m-57 13c3 5 3 11 4 17 6-1 9-7 9-12 0-2 0-5-2-7l-12-7c-1 3 0 6 1 9m43-7c0 4 1 9 3 13 0 2 1 2 2 3l1 1 18 12-1 1h3c0-6-2-11-6-15-5-7-12-13-20-15m36 7c0 2 0 4 2 6l1-6h-3m7 2l-8 17c-1 4-3 7-3 11l-1 5 1 8c2 0 4 0 4-2 4-8 9-16 15-23 2-3 6-6 6-11a154 154 0 01-14-5m33 16l6 8c1 3 2 7 6 8 1-3 2-6 1-9 1-8-4-15-10-21-2 5-3 9-3 14z"/></g></svg>