<svg width="683" height="683" viewBox="0 0 512 512" xmlns="http://www.w3.org/2000/svg"><g fill="#cc7333"><path d="M330 68h11v1h-11v-1zM359 83h1v2l-1-2zM230 88h1v2l-1-2zM231 92h1v11h-1V92zM304 100c-2 0-2-6 0-6v6zM360 100l1-4c1 1 1 4-1 4zM176 97h1v9h-1v-9zM229 110l1-2v2h-1zM317 119l2 1h-2v-1zM322 121l2 1h-2v-1zM328 125c2 5 2 11 0 16v-16zM238 136h1v2l-1-2zM328 147c-2-1-2-2 0-3v3zM242 148c1 1 2 2 1 3l-1-3zM341 155l1-3c1 1 1 2-1 3zM339 164l1-2v2h-1zM409 209c2 2 2 4 0 6v-1-5zM450 231c2 1 2 6 0 7v-7zM39 275h10v1H39v-1zM34 277c1-2 2-2 3-1l-3 1zM479 278c2 1 2 2 0 3v-3zM124 283l1 3c-1-1-2-2-1-3zM18 295c-2 0-2-4 0-4v4zM125 296c0-1-1-5 1-5l-1 5zM74 296h1v2l-1-2zM19 297h4c0 2-4 2-4 0zM75 299h1v2l-1-2zM104 302c0-2 3-2 3 0h-3zM101 308c-2 0-2-4 0-4v4zM110 314l3 1c-1 1-2 1-3-1zM123 315l3-1c-1 2-2 2-3 1zM439 317l1-3c1 1 1 2-1 3zM437 324l1-3c1 2 0 2-1 3zM211 327c2-1 2 2 0 3l-1-2 1-1zM105 330c1-1 2 0 3 1l-3-1zM255 331c1-2 2-2 3-1l-3 1zM111 331c1-1 5-1 5 1l-5-1zM126 332c0-2 4-1 5-1l-5 1zM209 338c-1-1-1-4 1-4l-1 4zM321 335l1 5v16h-1v-21zM203 342l1-3c1 2 0 2-1 3zM277 341c2 3 2 7 0 10v-10zM209 346l1 3c-2-1-2-2-1-3zM241 348c2 1 2 5 0 6v-6zM269 359c-1-3-2-8 0-11v11zM203 349c2 0 2 3 1 4l-1-4zM189 350l1 4c-2 0-2-3-1-4zM112 352h17v1h-17v-1zM351 357c2 0 2 5 0 5v-5zM190 358l1 4c-2 0-2-3-1-4zM158 365c-2 0-2-5 0-5v5zM205 374l1-3c1 1 1 2-1 3zM457 372c2 0 1 3 1 4s1 4-1 4v-8zM283 377l1-3c1 1 0 2-1 3zM194 375l1 7c-2-1-1-5-1-7zM395 375h10c-3 1-7 2-10 0zM320 377h1v9h-1v-9zM283 393c-2-5-2-10 0-15v15zM290 386c-1-1-1-4 1-4l-1 4zM306 388c1 1 2 1 1 3l-1-3zM270 391l1 2h-1v-2zM283 394c1 1 2 2 1 3l-1-3zM284 399h1v2l-1-2zM228 400l1 3c-2-1-2-2-1-3zM208 408h1l-1 9v-9zM220 420l1-11v11h-1zM330 421h1v11h-1v-11zM219 424l1-2v2h-1zM205 427h1l-1 2v-2zM205 434c-2 0-2-3 0-3v3z"/></g><g fill="#6b0100"><path d="M315 74c5-2 10-5 15-5h11c4-1 7 2 10 3a23 23 0 019 13c2 3 1 8 1 11l-1 4c1 4-2 7-4 11l-13 9v23l-1 9-1 3-1 7-1 2-1 5-2 5-2 7-2 5-6 12-2 7-2 5-4 3c2-8 5-15 9-23 5-12 9-25 12-38 2-10 2-21 1-31l-8 2-1 20c-1 8-3 17-7 24-7 16-18 30-30 42l-1-4a614 614 0 0018-21l3-5 3-3 3-7a129 129 0 012-4l3-7c0-4 1-7 3-11v-3-3a27 27 0 00-1-18l-3-1a623 623 0 01-5-2l-2-1c-7-4-13-11-13-19v-6c-1-8 5-15 11-20m25-2l8 7c4 3 6 8 7 13v13c3-5 3-11 3-17-2-8-10-15-18-16m-20 4c-8 4-15 13-13 23 1 4 1 8 4 10v1l11 8c8 3 19 1 25-5 6-8 8-21 1-29-3-7-11-10-18-10-3 0-7 0-10 2zM188 79c4-4 9-7 15-6h7c5 0 10 3 15 6 2 3 5 6 5 9l1 2v17l-1 1a115 115 0 01-3 6c-2 1-2 1 0 2 4 4 6 9 9 14l2 6 1 2c2 3 3 7 3 10l1 3 2 9 1 5 1 14 1 3v6a274 274 0 003 18c0 4 2 7 3 11l-5-8c-6-22-4-45-12-66-3-9-7-18-13-25-3 1-5 4-7 6 9 10 14 24 15 38 1 11 0 22-2 33-2 9-7 18-12 25l1-3 7-16 1-5 1-6v-5l1-5v-8l-1-14v-2l-1-5v-1l-1-2-4-10c-2-5-5-10-10-13l-14 1c-5-1-9-3-13-6-3-2-6-6-7-10l-1-4v-9c1-7 5-14 11-18m20-3c7 2 14 7 17 14 2 4 2 9 3 13 4-13-7-28-20-27m-21 9l-5 5c-3 7-4 15 0 21 4 7 12 12 20 12 5 0 10-1 14-4 4-2 7-6 8-11 1-6 1-13-3-18-3-6-10-11-17-11-6 0-13 1-17 6z"/><path d="M322 95c2-4 6-7 10-8 3 0 7 1 9 3 6 4 6 15 0 19s-15 2-19-4l-1-7h5l-2 2c1 3 3 6 6 7s8 1 10-2c2-2 3-5 2-8-1-2-3-5-6-6-3-2-6 0-8 1v2l-6 1zM191 92c4-1 9-1 12 2 4 3 4 8 4 12-2 6-10 10-16 7-5-3-7-9-6-14 1-3 4-6 6-7m-1 5c-2 0-4 1-5 3l2 1c1 2 1 5 3 7 3 2 6 2 10 1 6-2 5-12-1-14-3-1-7-1-9 2zM164 217c7-4 15-3 22-2 5 1 12 4 12 10 1 7 1 14 6 20 4 4 10 3 15 5l6 11c2 4 2 9 2 13l-1 6-11 15c-5 5-9 11-16 14-7 4-14 6-22 7l-4 2h-10c-4 1-6 4-9 7-10 8-23 10-35 10l-17-2c-6-2-12-5-17-10l-9-12c-3-7-4-15-8-21-8-9-21-14-32-10-5 1-9 4-12 7-3 2-4 5-3 7 7-1 14-4 22-4 7 0 14 5 17 11l11 24c3 7 9 11 15 15 8 7 19 9 30 9 17 1 33-3 48-11l2 2c-9 6-20 10-30 12h-24c-17 0-33-10-43-23-5-8-8-17-11-26-3-5-9-9-15-10-7 1-13 4-20 4h-5v-2-4-3c5-4 9-10 16-11l3-1h12c4 0 8 2 11 4 7 3 12 9 14 16l1 2v1l1 2c4 9 8 19 17 25l12 4 3 1a2618 2618 0 0023 0c3-1 7-1 10-3l9-5h1l7-7a55 55 0 01-19-10l-3-3-3-3c0-6-4-11-6-16 7 4 11 10 18 14 5 3 10 5 16 6s12 0 18-1c8 0 16-5 22-10 8-5 14-14 16-24 0-5 1-10-1-15-4-2-9 0-12-4-4-4-9-8-11-14-1-6-6-11-12-12-6 0-13-2-18 3-3 5-3 13-7 18l-16 11-11 5-2-1 9-7c5-3 10-5 14-9 6-8 6-20 14-27zM324 241c8-12 23-17 38-16 0 8-1 15 2 22 2 6 6 11 10 15-4 1-6-3-8-6-2-2-5-4-6-7-1-5-1-11-4-15-4-2-10-1-14 1-7 1-11 7-18 6zM379 236l8 6c4 4 9 5 14 7 2 2 2 5 3 7-5 1-9 0-13-2-5-1-7-6-10-10l-2-8zM385 284c2-4-1-11 4-13h3l12 1-1 5c-2 5-4 10-8 14-6 5-14 7-21 9-9 3-19 2-26 9-8 0-16-2-23-7s-12-12-16-18c3 0 5 2 7 3 4 5 10 8 16 10 12 2 25 2 36-2 7-2 14-4 17-11z"/></g><g fill="#fdaf5a"><path d="M203 73c1-2 6-2 7 0h-7zM340 72c8 1 16 8 18 16 0 6 0 12-3 17V92c-1-5-3-10-7-13l-8-7zM208 76c13-1 24 14 20 27-1-4-1-9-3-13-3-7-10-12-17-14zM227 116c-2-1-2-1 0-2v2zM217 124c2-2 4-5 7-6 6 7 10 16 13 25 8 21 6 44 12 66l5 8c-1-4-3-7-3-11v-3c4-1 9-1 13-3l12-7v2l17-9c6-5 14-6 21-7l-3 5c-4 0-8 0-11 3l-27 19-13 5c5 1 10-2 15-3 2 5 3 11-2 15-4 4-11 4-16 4-9 0-17-4-26-1-4 2-9 6-14 4-4-3-5-9-6-14s-5-9-8-13c7-6 16-11 25-13l-1 6c-6 2-10 6-13 10l9-6 3 1-7 16-1 3c5-7 10-16 12-25 2-11 3-22 2-33-1-14-6-28-15-38z"/><path d="M332 123l8-2c1 10 1 21-1 31-3 13-7 26-12 38-4 8-7 15-9 23-5 2-11 4-16 4l6 1c7 0 13-3 19-5 15-8 33-9 50-8 8 0 17 3 24 7 9 6 17 14 22 24-3 0-7 1-10-2-3-4-6-7-10-9-7-5-15-9-23-10l-18-5c-18-2-36 6-49 18-4 3-9 4-14 5l9 1-7 11c-5 3-10 6-16 5-3 0-7-2-9-4 0-3 0-5 2-6 5-3 10-5 12-10 4-6 4-14 4-21 12-12 23-26 30-42 4-7 6-16 7-24l1-20zM226 148l1 2h-1v-2zM223 156h5v6l-14 4-17 1c7-6 17-9 26-11zM245 157c7 2 13 6 17 12 3 5 4 11 6 17l-9-6-7-10-6-5-1-5v-3z"/><path d="M283 163c13-2 27-3 39 3l-2 3c-6-2-12-4-18-3-12-1-22 5-33 9l-4-7 13-5h5z"/><path d="M294 172c-2 0-1-4 1-3l-1 3zM315 170c1 1-1 3-2 2-1 1-3 0-4-1l6-1zM226 172h3v8c-5 1-11-1-16-1-9-1-18 1-27 2-8 1-17 5-23 11-3 3-3 7-7 9l-10 10c0-7 3-14 7-20 7-7 15-14 25-17l4 1 20-2c9 0 17 3 26 3l-2-4zM294 173l2 3c-1 3-3-2-2-3zM336 174c6 2 8 8 10 13l-8 4-4-10 2-7zM248 182c4 2 8 4 13 3l1 2-14 1v-6zM270 182l1 3c-2-1-2-2-1-3z"/><path d="M214 184c5-2 10 0 14 1v1c-10 3-20 8-28 15l-8-3c6-7 14-11 22-14zM353 190c14-3 27-5 41-3 10 1 18 9 22 18 2 4 2 8 5 11l-2 7-6-6c-1-4 0-8-2-12-3-6-9-9-15-11-5-2-11-2-16-1-8 1-17 3-24 7l-12 4c-8 1-15 4-22 6l2-5c6-3 9-7 14-10a131 131 0 0116-7l-1 2zM249 192c7-2 15-3 23-1-6 5-14 9-22 8l-1-7zM187 200c7 1 14 5 18 11 3 5 3 12 6 17 2 3 5 5 9 6l-2 12h-4c-3-1-7-2-9-5-3-5-3-12-4-18 0-5-5-8-10-10-8-3-18-3-27 0-8 5-10 14-13 22-2 4-4 9-9 11-5 3-11 5-15 9-2 2-2 5-2 7-2 4-2 9-2 13h-1c-3-4-6-10-4-16l1 6c0-3 0-7 3-9 4-6 12-8 17-13 5-6 8-14 11-21 2-6 6-10 11-14 8-5 18-5 28-6l-2-2zM278 206l9-5c3 7 4 15 2 23-1 5-6 9-10 12-7 3-15 3-23 2-6 0-11-2-17-1-5 1-7 7-5 12 3 10 11 18 13 29 0 8-2 16-7 22-8 9-20 15-29 23-7 7-13 16-11 26 1 7 4 14 3 21l-5 10-3-14 2 1c-1-10-3-20 0-30 1-6 3-13 8-17 3-2 6-4 6-7l17-15c4-4 6-9 8-14l-1-14c0-5-4-10-6-14-3-5-4-11-3-17 0-3 3-6 5-8h-2c4-3 9-3 14-2 7 1 15 2 22 1 6 0 12-3 14-9 2-5 1-10-1-15zM136 205l7-1v4c-7 1-13 4-18 8-6 3-10 8-11 15l-2 22-2-5c-2-10-1-20 4-29 6-7 14-11 22-14zM427 212c1-2 2-1 3 0h-3z"/><path d="M425 214c9 1 18 6 21 15 3 6 1 14-5 17-8 3-16 4-24 3-9-2-19-3-27-8l-14-13c-8-6-19-8-28-5-11 2-22 8-28 18-5 7-7 16-13 22-4 5-10 7-17 8-7 2-15-1-21-6-6-6-5-15-6-23h10c0 5 0 10 3 14 1 4 5 6 9 6 8 1 16-4 19-11 2-7 5-14 10-19l12-7c7-4 15-5 22-7 9-1 19 1 27 4l9 2 13 9c8 5 18 6 27 7 4 0 9 0 12-3 3-2 4-7 1-10-3-4-8-5-13-6l1-7zM143 218c2 1 2 1 0 2v-2z"/><path d="M365 227c4 1 10 3 10 8 1 5 2 10 5 14 5 8 17 12 27 10 4-1 7-4 10-7l9 1c-2 5-5 9-10 12-7 3-14 4-21 4-11-2-21-10-27-19-4-7-3-16-3-23zM106 230h1l-1 2v-2zM435 230c2 0 2 3 0 3v-3zM124 232h1l-1 2v-2zM128 238l1-2-1 2zM237 247c-1-3 1-7 4-7l19 2 2 19-7-4c-4-3-5-8-7-11 0 5 2 11 6 14 3 4 8 4 11 7l10 6-4 5c-5 4-9 9-12 15-5 9-9 19-8 30-1 7 2 14 3 21 0 7 1 14-2 20l-9 11-5-7c2-4 6-8 6-13 2-11-5-21-4-32l4-12 8-10c5-6 8-14 7-22-1-4-1-9-5-11 1 5 3 10 2 16-1 8-5 16-12 21l-17 20c-4 6-6 13-4 21l8 17c0 7 8 12 7 20 1 7-3 13-7 18-1-6 5-12 3-18l-9-15c-4-6-9-12-12-19-2-9 0-18 4-26l7-6c6-4 12-8 17-14 7-8 11-19 8-30-2-9-9-17-12-26zM124 241l2 2c-1 3-4-1-2-2zM288 254c5 0 9-3 13-5-2 5-7 9-13 10-3 0-5 0-7-2-2-1-3-4-4-6 3 1 7 3 11 3zM430 253c1-1 2-2 4-1 2 3 4 6 8 8 5 4 12 4 18 4l-2 2c3 1 7 1 9 4l5 7c3 5 1 12 5 16 2 5 7 7 12 8-5 2-10 0-15-2l-5-7-4-15c-1-3-6-5-9-4l-17-1c-6 0-12-4-14-10l5-9z"/><path d="M452 261c1-2 2-1 3 0h-3zM407 272l6-2c1 8-1 16-5 23-5 8-14 13-22 17-8 1-17 1-25 4-4 2-6 6-6 10-1 7 2 14 4 22 1 5 4 10 4 16 0 9-6 18-14 23-5 3-11 5-14 11-2 3-2 7-5 9l-1-5 2 2c1-9 7-15 14-19 5-3 10-7 12-12 2-8 1-16-4-22v2c-4-6-5-13-7-20 0-6 0-13 4-18 3-6 11-7 17-8 10-2 21-4 29-11 6-6 10-14 11-22zM301 284l2-14 2 4c0 5 2 10 4 14-1 9-7 17-13 24l-10 8-3-3 6-10c3-4 4-9 6-14l6-9zM450 276h4c0 2-4 2-4 0zM437 279h1v2l-1-2zM24 287c9 0 18-4 27-3 5 2 10 6 13 10 6 7 6 16 12 22 4 5 7 11 13 14 4 2 9 5 13 3l17 2c12 0 25-2 35-10 3-3 5-6 9-7h10c5 1 11 0 17-2-8 9-17 16-26 22-15 8-31 12-48 11-11 0-22-2-30-9-6-4-12-8-15-15l-11-24c-3-6-10-11-17-11-8 0-15 3-22 4-1-2 0-5 3-7zM419 284h2c-1 2-1 2-2 0zM415 285c3 2 5 6 9 7 4 2 9 3 11 8 3 7 2 15 0 22l-5 16c-1 4 0 8 1 13 0 2-1 4 1 5 3 6 8 9 13 13 3 2 6 5 5 9s-6 7-9 10c1-5 7-8 5-14-4-5-11-6-16-10-8-6-11-16-10-26l4-14c1-4 4-8 4-13 0-3-1-5-3-7l-13-10 3-9z"/><path d="M116 303h2l-2 1v-1zM482 305h5c0 2-5 2-5 0zM305 308l3 3c-1 2-5-1-3-3zM308 314c11-7 25-6 36 1l-1 9a24 24 0 00-29 0l-3-3-3-7zM298 314l4-4 7 13 2 4v18l-9 24c-3 6-4 13-4 20 1 6 5 10 9 14 5 5 12 8 15 15 4 6 3 13 4 19l-3 3c-3-6 0-13-4-19-3-5-8-8-12-12-5-5-11-8-13-15-2-8 0-16 3-23 5-8 8-18 8-27 1-10-6-18-11-26l4-4zM116 315h4c0 2-4 2-4 0zM390 319c-1 3-3-2 0-1v1zM272 326l9-7c3 4 6 8 7 12v25c-3 7-7 14-8 22-2 8 0 16 2 25-6-4-8-10-10-16-1-9 1-19 5-27 4-7 5-15 2-22-1-5-4-8-7-12z"/><path d="M321 324l9-2 3 16c0 7-2 15 3 20 3 5 10 6 15 8l-4 7c-7-2-15-6-20-11-4-6-2-14-2-20s-2-12-4-18zM255 335l2 2c-1 3-4-1-2-2zM377 343c-2-1-2-6 0-7v7zM301 338l1 1v1l-1-2zM297 344h1l-1 2v-2zM240 345h1v2l-1-2zM229 348h1l-1 2v-2zM398 351c2 0 2 3 0 3v-3zM300 354l1-2v2h-1zM231 356l1 2h-1v-2zM240 358l1-2v2h-1zM298 356h2c-1 2-1 2-2 0zM391 357h3c0 2-3 2-3 0zM269 363c2 0 2 3 0 3v-3zM256 366l1 10h-1v-10zM161 367h2v1h-2v-1zM410 375c0-2 6-2 6 0h-6zM359 381l4-6c5 4 9 10 10 16 0 4-1 7-3 10l-4-12-7-8zM212 412c0-12 6-25 16-32 1 2 4 5 2 8-5 4-10 10-12 16s1 13-2 19c-2 4-4 7-8 9 1-7 4-13 4-20zM245 383c2 1 2 6 0 7v-7zM437 394c-2 0-2-3 0-3v3zM438 396h3c0 2-3 2-3 0z"/><path d="M221 407l1-2v2h-1zM331 408h2-2zM319 427v5c-2 0-1-4 0-5zM322 443h2-2z"/></g><g fill="#fee191"><path d="M320 76c3-2 7-2 10-2 7 0 15 3 18 10-5-3-11-6-17-6-4 0-9 1-12 5-4 3-7 7-8 12v14c-3-2-3-6-4-10-2-10 5-19 13-23zM187 85c4-5 11-6 17-6 7 0 14 5 17 11 4 5 4 12 3 18-1 5-4 9-8 11 2-5 6-10 5-15-1-6-3-12-7-16-5-3-10-6-15-5l-12 2z"/><path d="M198 99c2-1 3 2 2 3-2 1-3-2-2-3zM343 122h1v21h-1v-21zM292 155h17v1h-17v-1zM278 163c13-6 30-7 44-1v4c-12-6-26-5-39-3h-5zM260 162c-2 0 0-3 1-2l-1 2zM296 169h12l4 1-16-1zM178 174c15-5 32-5 48-2l2 4c-9 0-17-3-26-3l-20 2-4-1zM276 193c11-7 21-16 34-18 2-1 5 0 7 1l-3 3c-7 1-15 2-21 7l-17 9v-2zM281 178c2 1 2 6 0 6v-6zM247 179c5 1 10 3 14 6-5 1-9-1-13-3l-1-3zM354 188c14-5 29-8 44-4 14 4 24 18 23 32-3-3-3-7-5-11-4-9-12-17-22-18-14-2-27 0-41 3l1-2z"/><path d="M391 197l2-1 5 2-2 1-5-2zM154 209c8-9 21-11 33-9l2 2c-10 1-20 1-28 6-5 4-9 8-11 14-3 7-6 15-11 21-5 5-13 7-17 13-3 2-3 6-3 9l-1-6c2-6 6-11 11-14 4-2 9-5 11-10 5-8 6-19 14-26zM137 202c1-2 5-1 7-1-2 2-5 1-7 1zM322 224c11-6 23-11 36-11 10 1 19 5 26 11l-9-2c-8-3-18-5-27-4-7 2-15 3-22 7l-12 7 8-8zM435 214h2v1l-2-1zM224 253c-3-7-3-18 5-22h2c-2 2-5 5-5 8-1 6 0 12 3 17 2 4 6 9 6 14l-11-17zM427 236h5c0 2-5 2-5 0zM114 264l1 4c-2 0-2-3-1-4zM460 264c4 0 8 0 11 3 4 4 5 10 6 16 1 8 8 13 15 16l-3 2c-5-1-10-3-12-8-4-4-2-11-5-16l-5-7c-2-3-6-3-9-4l2-2zM416 274c1 0 3 0 2 2l-2 2v-4zM435 276c2-2 4-1 6 0h-5-1zM36 280c11-4 24 1 32 10 4 6 5 14 8 21l9 12c5 5 11 8 17 10-4 2-9-1-13-3-6-3-9-9-13-14-6-6-6-15-12-22-3-4-8-8-13-10-9-1-18 3-27 3 3-3 7-6 12-7zM438 283c2 3 1 7 1 11h-1v-11zM139 306l6 4c-2-1-5-2-6-4zM193 339c2-11 9-20 18-26 0 3-3 5-6 7-5 4-7 11-8 17-3 10-1 20 0 30l-2-1c-2-8-4-18-2-27zM422 316c1-1 1-3 2-2s0 3-1 4l-1-2zM150 323zM316 326l1-1h2v1h-3zM311 345v-18c4 6 4 14 4 22s-6 14-8 22c-2 6-5 13-3 19 1 6 5 10 9 14 5 4 12 7 14 14 1 6 1 13-1 19-1-6 0-13-4-19-3-7-10-10-15-15-4-4-8-8-9-14 0-7 1-14 4-20l9-24zM364 328h12c-1 2-4 1-6 1s-5 1-6-1z"/><path d="M317 335h1v19h-1v-19zM237 338c0-2 3 0 2 1l-2-1zM235 340l1-1-1 1zM353 349c5 6 6 14 4 22-2 5-7 9-12 12-7 4-13 10-14 19l-2-2c1-7 4-14 10-18 4-3 10-5 13-9 4-7 4-15 1-22v-2zM432 356c-2-1-1-3-1-5 4 7 11 13 19 17 6 2 6 11 2 15s-7 8-12 10l1-5c3-3 8-6 9-10s-2-7-5-9c-5-4-10-7-13-13zM212 354l1 1v1h-1v-2zM238 383c1-8-7-13-7-20l7 12c3 4 5 8 4 12 0 7-4 12-9 16l-2-2c4-5 8-11 7-18zM258 379h3c0 2-3 2-3 0zM391 387h14v1h-14v-1zM227 395c0-1 2-3 2-1v3l-2-2z"/></g><g fill="#fffdf4"><path d="M319 83c3-4 8-5 12-5 6 0 12 3 17 6 7 8 5 21-1 29-6 6-17 8-25 5l-11-8v-1-14c1-5 4-9 8-12m3 12l6-1 4 2c-1 3-4 2-6 2h-5l1 7c4 6 13 8 19 4s6-15 0-19c-2-2-6-3-9-3-4 1-8 4-10 8zM187 85l12-2c5-1 10 2 15 5 4 4 6 10 7 16 1 5-3 10-5 15-4 3-9 4-14 4-8 0-16-5-20-12-4-6-3-14 0-21l5-5m4 7c-2 1-5 4-6 7-1 5 1 11 6 14 6 3 14-1 16-7 0-4 0-9-4-12-3-3-8-3-12-2z"/><path d="M334 95h3v3h-3v-3zM185 100c1-2 3-3 5-3 3 0 6 0 6 4h-9l-2-1zM272 187l2 1h-2v-1zM289 322h1v1h-1v-1z"/></g><g fill="#450100"><path d="M328 92c2-1 5-3 8-1 3 1 5 4 6 6 1 3 0 6-2 8-2 3-7 3-10 2s-5-4-6-7l2-2c2 0 5 1 6-2l-4-2v-2m6 3v3h3v-3h-3zM190 97c2-3 6-3 9-2 6 2 7 12 1 14-4 1-7 1-10-1-2-2-2-5-3-7h9c0-4-3-4-6-4m8 2c-1 1 0 4 2 3 1-1 0-4-2-3z"/></g><g fill="#bd4a05"><path d="M243 151c5-2 11-5 17-5 5 0 9-1 14 1 5 1 10 4 13 9h22l12 2h4l-3 7v-3c-14-6-31-5-44 1l-13 5 4 7c11-4 21-10 33-9 6-1 12 1 18 3l-3 7c-2-1-5-2-7-1-13 2-23 11-34 18l-12 7c-4 2-9 2-13 3v3l-1-7c8 1 16-3 22-8-8-2-16-1-23 1l-1-4 14-1-1-2c-4-3-9-5-14-6l-1-14 6 5 7 10 9 6c-2-6-3-12-6-17-4-6-10-10-17-12v3l-2-9m4 2l8 5c4 0 8-2 12-1l7 4c3-1 7-2 9-4-3-4-9-7-14-8-8-1-15 1-22 4m13 9l3 3 6-2c-2-3-5-3-8-3-1-1-3 2-1 2m36 7h-1c-2-1-3 3-1 3v1c-1 1 1 6 2 3l13-5c1 1 3 2 4 1 1 1 3-1 2-2a166 166 0 00-7-1h-12m-49 1c0 1-1 3 1 4 1 2 2 2 4 2-1-3-2-5-5-6m36 3l2 9 6-3c1-3 1-6-1-8l-7 2m-13 6a1333 1333 0 002 8v1h2c3 1 5-2 7-4 2 0 2-5 0-6l-1-3-10 4z"/><path d="M205 158l22-7 1 5h-5c-9 2-19 5-26 11l17-1 14-4v-4l1 14h-3c-16-3-33-3-48 2-10 3-18 10-25 17-4 6-7 13-7 20l10-10c4-2 4-6 7-9 6-6 15-10 23-11 9-1 18-3 27-2 5 0 11 2 16 1l-1 5c-4-1-9-3-14-1-8 3-16 7-22 14l8 3c8-7 18-12 28-15v4c-9 2-18 7-25 13 3 4 7 8 8 13s2 11 6 14c5 2 10-2 14-4 9-3 17 1 26 1 5 0 12 0 16-4 5-4 4-10 2-15-5 1-10 4-15 3l13-5 27-19c3-3 7-3 11-3l-3 5-3-1c-5 2-11 6-15 10 0 3 2 5 3 7l1 4c0 7 0 15-4 21-2 5-7 7-12 10-2 1-2 3-2 6 2 2 6 4 9 4 6 1 11-2 16-5l7-11-9-1c5-1 10-2 14-5 13-12 31-20 49-18l18 5c8 1 16 5 23 10l-2 2c-5-3-10-6-16-7l13 10-1 3-13-9c-7-6-16-10-26-11a60 60 0 00-44 19c-5 5-8 12-10 19-3 7-11 12-19 11-4 0-8-2-9-6-3-4-3-9-3-14h-10c1 8 0 17 6 23 6 5 14 8 21 6 7-1 13-3 17-8 6-6 8-15 13-22 6-10 17-16 28-18 9-3 20-1 28 5l14 13-3 1-8-6 2 8-1 5c-3-4-4-9-5-14 0-5-6-7-10-8 0 7-1 16 3 23 6 9 16 17 27 19l-1 2h-5l-15-9c-4-4-8-9-10-15-3-7-2-14-2-22-15-1-30 4-38 16-7 9-9 22-19 28v5l-2-4-2 14-6 9c-2 5-3 10-6 14h-3c5-10 6-21 6-32h-9c-1 11 0 23-8 32l-1-1-3 1-2-11-1-11 3-4v-3l4-5-10-6c-3-3-8-3-11-7-4-3-6-9-6-14 2 3 3 8 7 11l7 4-2-19-19-2c-3 0-5 4-4 7 3 9 10 17 12 26l-2 5c-2-11-10-19-13-29-2-5 0-11 5-12 6-1 11 1 17 1 8 1 16 1 23-2 4-3 9-7 10-12 2-8 1-16-2-23l-9 5c2 5 3 10 1 15-2 6-8 9-14 9-7 1-15 0-22-1-5-1-10-1-14 2-8 4-8 15-5 22l11 17 1 14-2-2-3 6a158 158 0 00-2-4c2-2 4-5 3-8 0-3-2-6-4-9l-1 7c0-4 0-9-2-13l-6-11c-5-2-11-1-15-5-5-6-5-13-6-20 0-6-7-9-12-10-7-1-15-2-22 2-8 7-8 19-14 27-4 4-9 6-14 9l-9 7-2 2c0-2 0-5 2-7 4-4 10-6 15-9 5-2 7-7 9-11 3-8 5-17 13-22 9-3 19-3 27 0 5 2 10 5 10 10 1 6 1 13 4 18 2 3 6 4 9 5h4l2-12c-4-1-7-3-9-6-3-5-3-12-6-17-4-6-11-10-18-11-12-2-25 0-33 9-8 7-9 18-14 26-2 5-7 8-11 10-5 3-9 8-11 14s1 12 4 16h1l1 7c-4-2-6-6-8-10l-1-4-1-4c-3-3-4-8-6-12l2-4 2 5 2 4 8-11c-1-6-2-13 1-18 4-8 12-11 20-14v-6-4l-7 1 2-2h-5v-1h4c2 0 5 1 7-1 2-4 4-9 8-13l9-9c6-5 13-8 21-9l9-4 14-8m17 10l6 1v-4c-2 1-6 0-6 3m-36 17c-6 0-10 5-11 11h13l8-6 10-7c-6-1-13 1-20 2m-23 13l7-2 4-8c-4 3-9 5-11 10m-38 34h-1v9c-2 1 1 5 2 2l1-2-1 1c10-1 14-11 16-19h-1l2-3c2-1 2-1 0-2-8 2-15 6-18 14m163 22c-4 0-8-2-11-3 1 2 2 5 4 6 2 2 4 2 7 2 6-1 11-5 13-10-4 2-8 5-13 5m7 20v12c4-3 3-9 4-13l-4 1m-22 8c-1 7-2 15 1 22 3-4 4-9 5-13v-16c-2 2-6 4-6 7z"/><path d="M338 169l4 5 7 11h3l-3 2v2l-11 6c-5 3-8 7-14 10l2-7c4 0 7-3 9-5 0-3-1-5-3-7l2-5 4 10 8-4c-2-5-4-11-10-13l2-5zM356 200c7-4 16-6 24-7 5-1 11-1 16 1l-3 2-2 1 5 2c3 2 6 6 8 10l-3 3c-7-4-16-7-24-7-17-1-35 0-50 8-6 2-12 5-19 5l-6-1c5 0 11-2 16-4l4-3c7-2 14-5 22-6l12-4m20-3c-5 1-10 1-14 4l22 1 14 5c-1-3-3-5-6-6-5-3-10-6-16-4zM214 206c3-4 7-8 13-10l-1 5-3-1-9 6zM403 277l4-5c-1 8-5 16-11 22-8 7-19 9-29 11-6 1-14 2-17 8-4 5-4 12-4 18l-2 2c-2-4-5-9-10-9l1 11-2-3v6l-3-16-9 2-2 1h-2l-3-1c4-3 9-5 15-5 5 0 10 2 14 5l1-9c-11-7-25-8-36-1l3 7-2 2-7-13-4 4-2-2c6-7 12-15 13-24l3 5-4 8 6 6 11-2 20 7 3-3c7-7 17-6 26-9 7-2 15-4 21-9 4-4 6-9 8-14m-98 31c-2 2 2 5 3 3l2-2-2-5c-3-1-4 2-3 4z"/><path d="M361 314c8-3 17-3 25-4l-7 3h6c-6 2-13 2-19 3-2 1-5 1-7 4-1 1 1 3 1 5l-5-1c0-4 2-8 6-10z"/></g><g fill="#f18104"><path d="M247 153c7-3 14-5 22-4 5 1 11 4 14 8-2 2-6 3-9 4l-7-4c-4-1-8 1-12 1l-8-5zM222 168c0-3 4-2 6-3v4l-6-1zM247 170c3 1 4 3 5 6-2 0-3 0-4-2-2-1-1-3-1-4zM283 173l7-2c2 2 2 5 1 8l-6 3-2-9zM186 185c7-1 14-3 20-2l-10 7-8 6h-13c1-6 5-11 11-11zM332 186c2 2 3 4 3 7-2 2-5 5-9 5l6-12zM163 198c2-5 7-7 11-10l-4 8-7 2zM290 198c4-4 10-8 15-10l3 1-15 16c-1-2-3-4-3-7zM376 197c6-2 11 1 16 4 3 1 5 3 6 6l-14-5-22-1c4-3 9-3 14-4zM125 216c5-4 11-7 18-8v6c-8 3-16 6-20 14-3 5-2 12-1 18l-8 11-2-4 2-22c1-7 5-12 11-15zM385 220c6 1 11 4 16 7l7 7-10-4-13-10zM405 250l8 2-6 4-2-6zM417 269l5-4c3 5 9 8 12 14 3 5 2 10 1 15l-11-5c0-5 1-9-2-13l-5-7zM228 267c2 3 4 6 4 9 1 3-1 6-3 8l-4 2a287 287 0 013-19zM295 274l4-1c-1 4 0 10-4 13v-12zM273 282c0-3 4-5 6-7v16c-1 4-2 9-5 13-3-7-2-15-1-22z"/><path d="M283 275h9c0 11-1 22-6 32-6 12-19 19-32 21v-8c8-2 16-6 21-13 8-9 7-21 8-32zM230 286l1 2c-4 6-10 11-15 16l-16 13-8 14-4 14-11 4c-6 3-8 10-13 15l-4-1c2-8 6-15 13-20 4-3 10-2 13-6s4-9 6-14 6-10 11-13c6-3 10-9 14-14l13-10z"/><path d="M268 285l1 11 2 11-7 5-2-17c1-4 4-7 6-10zM308 301l4-8c4 5 8 9 13 12l-11 2-6-6zM117 307c6-1 10-6 12-11a552 552 0 007 7c-7 11-25 13-33 3 5-1 9 2 14 1zM254 317c1-5 2-10 5-15l2 12-7 3zM404 315c5-3 9-8 13-13 3 1 6 3 7 6 0 2-2 4-4 5-7 8-18 12-28 17-4 2-5 8-4 12 1 5 5 7 7 11h-6c-5-3-10-9-9-15 0-6 5-11 10-14 4-4 9-7 14-9zM385 313l4-1c-2 6-7 12-14 13h-15c0-2-2-4-1-5 2-3 5-3 7-4 6-1 13-1 19-3zM291 329c0-2 1-5 4-4 2 2 3 6 4 9-3 4-5 9-5 15-1 4 1 8 3 11 1 3-1 6-2 9l-1 1-5-7 1-4c4-10 1-20 1-30zM334 324c5 0 8 5 10 9 0 7 3 13 5 20-4 0-8-1-10-5-4-3-3-8-4-13l-1-11zM228 331c2-3 5-4 9-5v8l-5 5c-3 1-3 4-6 6 0-5 0-10 2-14zM259 342c2-6 4-12 9-15l6 8c-3 4-7 7-8 12-2 7 1 14-1 21 0 3-2 5-5 7 0-11-4-22-1-33zM364 349c5 2 10 3 14 6 6 6 5 17 12 21 8 5 17 1 25 2-3 6-11 6-17 7-6 0-12-2-15-7-3-6-5-11-9-15-2-3-5-4-8-5l-2-9zM215 361l4 5c-1 2-4 4-7 4l3-9zM308 378l2-7c5 3 10 9 7 15-3-3-5-6-9-8z"/></g><g fill="#ba2e09"><path d="M357 182l18-3h16l14 4 9 7c5 5 9 12 10 20l3 2h3c2 0 4 0 5 2l2 1c3 0 5 3 7 5 3 3 7 7 6 11v7c1 2-1 4-2 6-3 3-6 6-10 6 2 6 8 9 14 11h3c6 0 12-1 17 2 4 4 7 9 7 15v3c2 3 3 7 6 9 2 4 7 4 10 7l-1 6-7 2h-5c-7 0-14-5-16-11l-3-13c0-2-2-3-3-5h-19c-2-1-4-2-6 0h1l1 2v1l1 2v13c-1 3 1 6 2 9v11l-1 3-1 4-1 3c1 4-2 7-3 10 0 5-2 10 0 14 2 8 10 13 17 16l6 5v11c0 3-2 5-3 7l-11 9h-6v-2-3c-1-5 4-8 6-12 1-2-1-4-3-5-5-3-11-5-15-9s-6-10-8-15c0-6-1-12 1-18l5-14c1-1 2-3 1-4s-1 1-2 2c-7 9-19 12-29 18-5 5 0 13 5 15v6l-2 2h-5c-5 0-8-4-11-8-2-1-3-4-3-6v-7c-1-3 2-6 3-9l-4 1h-12l-6-1 3 12c0 3 0 5 2 7 6 2 13 3 17 8 6 5 6 12 10 18l5 3c3 2 7 1 10 0h11c2 0 4 1 3 3l-6 8-8 1h-14c-4-1-8-3-10-7-4-4-5-10-9-15l-6-3c0 3 0 7-2 10 6 3 9 10 12 16 1 7-1 14-6 18h-3l-2-11c-1-5-4-9-9-11l-13 7c-5 4-6 11-9 17h-3-2c-4-3-4-9-3-14 2-4 3-8 7-11l9-8c-5-3-10-4-15-8-2-4-6-7-5-11v-16l-1-5-2-9v-1l2-1c2 6 4 12 4 18s-2 14 2 20c5 5 13 9 20 11l4-7c-5-2-12-3-15-8-5-5-3-13-3-20v-6l2 3c1 5 0 10 4 13 2 4 6 5 10 5-2-7-5-13-5-20l2-2c2 7 3 14 7 20 3 7 3 15-1 22-3 4-9 6-13 9-6 4-9 11-10 18l1 5c3-2 3-6 5-9 3-6 9-8 14-11 8-5 14-14 14-23 0-6-3-11-4-16-2-8-5-15-4-22l5 1h15c7-1 12-7 14-13l-4 1h-6l7-3c8-4 17-9 22-17 4-7 6-15 5-23l-6 2-4 5 1-5-12-1h2l1-2c7 0 14-1 21-4 5-3 8-7 10-12l-9-1c-3 3-6 6-10 7-10 2-22-2-27-10l1-5c3 4 5 9 10 10 4 2 8 3 13 2-1-2-1-5-3-7-5-2-10-3-14-7l3-1c8 5 18 6 27 8 8 1 16 0 24-3 6-3 8-11 5-17-3-9-12-14-21-15l-1 7c5 1 10 2 13 6 3 3 2 8-1 10-3 3-8 3-12 3-9-1-19-2-27-7l1-3 10 4-7-7 2-2c4 2 7 5 10 9 3 3 7 2 10 2-5-10-13-18-22-24l3-3 5 5v1c2-2 2-4 0-6-2-5-6-9-11-11l-5-2 3-2c6 2 12 5 15 11 2 4 1 8 2 12l6 6 2-7c1-14-9-28-23-32-15-4-30-1-44 4l-5 1v-2l3-2 5-3m64 44l6 10c0 2 5 2 5 0h1l2-3c2 0 2-3 0-3l-2-3-9-3-3 2m-16 24l2 6 6-4-8-2m25 3l-5 9c2 6 8 10 14 10l17 1c3-1 8 1 9 4l4 15 5 7c5 2 10 4 15 2l3-2c-7-3-14-8-15-16-1-6-2-12-6-16-3-3-7-3-11-3-6 0-13 0-18-4-4-2-6-5-8-8-2-1-3 0-4 1m-13 16l5 7c3 4 2 8 2 13l11 5c1-5 2-10-1-15-3-6-9-9-12-14l-5 4m-1 5v4l3 6c1 2 1 2 2 0 0-3-1-6-3-8 1-2-1-2-2-2m-1 11l-3 9 13 10c2 2 3 4 3 7 0 5-3 9-4 13l-4 14c-1 10 2 20 10 26 5 4 12 5 16 10 2 6-4 9-5 14l-1 5c5-2 8-6 12-10s4-13-2-15c-8-4-15-10-19-17-1-5-2-9-1-13l5-16c2-7 3-15 0-22-2-5-7-6-11-8-4-1-6-5-9-7m-20 25l-5 8c-3-1-1 4 0 1 4-4 10-6 15-9 4-3 8-6 9-11l-4-2c-4 6-10 9-15 13m9 5c-5 2-10 5-14 9-5 3-10 8-10 14-1 6 4 12 9 15h6c-2-4-6-6-7-11-1-4 0-10 4-12 10-5 21-9 28-17 2-1 4-3 4-5-1-3-4-5-7-6-4 5-8 10-13 13m-40 34l2 9c3 1 6 2 8 5 4 4 6 9 9 15 3 5 9 7 15 7 6-1 14-1 17-7-8-1-17 3-25-2-7-4-6-15-12-21-4-3-9-4-14-6m-28 2c1 7 9 10 15 11 2 0 2-5 0-5v-1h-7l-8-5m23 30l7 8 4 12c2-3 3-6 3-10-1-6-5-12-10-16l-4 6zM162 246c4 0 9-1 13 1l5 9c-1 5-4 9-9 11-4 3-9 5-13 3-5-1-10-3-10-8 0-8 7-14 14-16z"/><path d="M337 249c4-1 8 1 11 2 4 2 7 6 5 10-1 4-5 7-9 8-4 2-9 2-13 0s-7-7-4-11c1-5 6-8 10-9zM254 268c4 2 4 7 5 11 1 8-2 16-7 22l-8 10-4 12c-1 11 6 21 4 32 0 5-4 9-6 13l5 7 9-11c3-6 2-13 2-20-1-7-4-14-3-21-1-11 3-21 8-30 3-6 7-11 12-15v3l-3 4c-2 3-5 6-6 10l2 17 7-5 3-1 1 1c-5 7-13 11-21 13v8c13-2 26-9 32-21h3l-6 10 3 3 10-8 2 2-4 4c5 8 12 16 11 26 0 9-3 19-8 27l-2-2c1-3 3-6 2-9-2-3-4-7-3-11 0-6 2-11 5-15-1-3-2-7-4-9-3-1-4 2-4 4 0 10 3 20-1 30v-5l-2 2v-25c-1-4-4-8-7-12l-9 7c3 4 6 7 7 12l-2 2-2-2-6 10c-2 3-1 8 0 11v7c0 5-4 11-8 13h-4v-3l-1-10v-2c-3 6-7 10-12 15l1 4v7c0 7-5 12-10 17h-5l-1-4-1-3a328 328 0 00-1-5l-5 10-1 2v2l-1 11v2l-1 2c-1 6-6 12-13 12l-1-2v-3-2l1-2 2-10 1-9c0-8 3-15 7-22l10-10-4-7c-3 4-8 5-13 4-2-1-1-4 0-6 2-3 4-7 4-11v-1l-1-1c-2-1-2-3-2-5l-1-3v-8l1-4 1-4c2-1 2-4 0-3l-1 1-6 11-1 3v7l1 4c2 6 3 12 2 18l-1 3c-1 4-4 8-7 11l-3-1v-2l-1-7-3-13-1-4v-4l-1-4-1-1c-4 1-9 1-12 5l-10 13h-5-2l-1-2v-5c0-5 4-10 7-14 2-3 5-6 8-7 3-2 7-1 10-4l5-11c-3 1-5 4-7 6l-15 10-2-2c9-6 18-13 26-22-6 2-12 3-17 2l4-2c8-1 15-3 22-7 7-3 11-9 16-14l11-15-1 6 4-2 1 2-13 10c-4 5-8 11-14 14-5 3-9 8-11 13s-3 10-6 14-9 3-13 6c-7 5-11 12-13 20l4 1c5-5 7-12 13-15l11-4 4-14 8-14 16-13c5-5 11-10 15-16l3-6 2 2c-2 5-4 10-8 14l-17 15c-9 6-16 15-18 26-2 9 0 19 2 27l3 14 5-10c1-7-2-14-3-21-2-10 4-19 11-26 9-8 21-14 29-23 5-6 7-14 7-22l2-5c3 11-1 22-8 30-5 6-11 10-17 14l-7 6c-4 8-6 17-4 26 3 7 8 13 12 19l9 15c2 6-4 12-3 18l2 2c5-4 9-9 9-16 1-4-1-8-4-12l-7-12-8-17c-2-8 0-15 4-21l17-20c7-5 11-13 12-21 1-6-1-11-2-16m0 49l7-3-2-12c-3 5-4 10-5 15m-21 6l4-1 1-5-5 6m54 0l2 2c2-1 4-3 4-5-3-1-5 1-6 3m-59 8c-2 4-2 9-2 14 3-2 3-5 6-6l5-5v-8c-4 1-7 2-9 5m31 11c-3 11 1 22 1 33 3-2 5-4 5-7 2-7-1-14 1-21 1-5 5-8 8-12l-6-8c-5 3-7 9-9 15m-4-11v4c-2 1 1 5 2 2l3-7h-2c-1-1-2-1-3 1m-18 7l-1 1-1 1c-2 2-5 5-5 8h-1v2l2 6v2h1l4 6 4-6h1v-2-2c2-1 2-5 0-6v-1-2h-1l-1-6c1-1-2-3-2-1m61 6h-1v2l1 10c1 2 1 2 2 0v-2h1v-2c1-4 2-8 1-12v-1l-1-1-3 6m-83 17l-3 9c3 0 6-2 7-4l-4-5m-3 51c0 7-3 13-4 20 4-2 6-5 8-9 3-6 0-13 2-19s7-12 12-16c2-3-1-6-2-8-10 7-16 20-16 32z"/></g><g fill="#940500"><path d="M116 213c5-4 10-9 17-10h5l-2 2c-8 3-16 7-22 14-5 9-6 19-4 29l-2 4c-3-6-2-13-2-20l1-2c0-7 4-12 9-17zM129 236c3-5 7-10 12-13h1c-2 8-6 18-16 19l1-1 1-3 1-2zM163 227c5-5 12-3 18-3 6 1 11 6 12 12 2 6 7 10 11 14 3 4 8 2 12 4 2 5 1 10 1 15-2 10-8 19-16 24-6 5-14 10-22 10-6 1-12 2-18 1s-11-3-16-6c-7-4-11-10-18-14 2 5 6 10 6 16l-4-4c-2 5-6 10-12 11-5 1-9-2-14-1 8 10 26 8 33-3l3 3c-5 2-7 8-13 8l-3 1h-7a316 316 0 01-6-1c-4 0-7-3-9-5v-1-4l3-2h3l9 2 2-1c3-2 6-4 7-7l1-5-1-5-1-3v-1l-1-7c0-4 0-9 2-13l2-2 2 1 11-5 16-11c4-5 4-13 7-18m-1 19c-7 2-14 8-14 16 0 5 5 7 10 8 4 2 9 0 13-3 5-2 8-6 9-11l-5-9c-4-2-9-1-13-1zM342 235c4-2 10-3 14-1 3 4 3 10 4 15 1 3 4 5 6 7 2 3 4 7 8 6l15 9c-5 2-2 9-4 13-3 7-10 9-17 11-11 4-24 4-36 2-6-2-12-5-16-10-2-1-4-3-7-3 4 6 9 13 16 18s15 7 23 7l-3 3-20-7a53 53 0 01-16-17 43 43 0 01-4-19c10-6 12-19 19-28 7 1 11-5 18-6m-5 14c-4 1-9 4-10 9-3 4 0 9 4 11s9 2 13 0c4-1 8-4 9-8 2-4-1-8-5-10-3-1-7-3-11-2zM309 323l2-2 3 3 3 1-1 1-1 1 2 8v19l-5 13c-1 2 1 2 2 3l6 5v11c1 3-2 5-5 4-2-3-4-7-8-9l-1 7 1 3c5 7 11 13 18 18 3 3 6 7 5 12v11c1 4-2 8-4 11h-5c-2-3-2-7-2-11v-5c-2-5-7-8-10-12l-11-10c-6-4-10-12-8-19l1-4 2-9-7-6-2 7-1 3v1c-2 5-2 10 0 15v1l1 3a159 159 0 001 4v6c-5 1-9-4-12-8l-2-6-1-2c-2-4-1-8-1-12l2-15 6-13c2-3 2-7 0-10v-1l2-2c3 7 2 15-2 22-4 8-6 18-5 27 2 6 4 12 10 16-2-9-4-17-2-25 1-8 5-15 8-22l2-2v5l-1 4 5 7 1-1 2 2c-3 7-5 15-3 23 2 7 8 10 13 15 4 4 9 7 12 12 4 6 1 13 4 19l3-3c2-6 2-13 1-19-2-7-9-10-14-14-4-4-8-8-9-14-2-6 1-13 3-19 2-8 8-14 8-22s0-16-4-22l-2-4m-1 55c4 2 6 5 9 8 3-6-2-12-7-15l-2 7z"/></g></svg>