<svg width="683" height="683" viewBox="0 0 512 512" xmlns="http://www.w3.org/2000/svg"><g fill="#fdb05a"><path d="M172 59c0-2 3-2 4-1l-4 1zM184 58h2v1l-2-1zM290 58h2l-2 1v-1zM301 58c1-1 2-1 3 1l-3-1zM168 59h2l-2 1v-1zM283 60h2l-2 1v-1zM288 63c6-2 14-3 20 1 3 3 8 6 7 11 0 3-4 5-7 6-6 2-13 1-19 1s-13 1-18-4c3-7 9-13 17-15zM160 68c3-3 8-5 13-6 5 0 11 0 16 3 4 2 7 5 7 9 0 2-2 3-4 4-10 5-21 5-32 4-3 0-6-2-8-5l8-9zM196 62zM313 62h0zM199 64h0zM318 66l2 2-2-2zM206 70v0zM148 77h1l-1 2v-2zM325 77h1v2l-1-2zM147 83c-1-2 0-3 1-3l-1 3zM210 81c2 1 2 2 1 3l-1-3zM267 88c-1-1-2-5 0-5v5zM147 93a395 395 0 000 0zM190 87l18-1c1 6 0 13-4 18-7 10-20 15-31 12 8 1 16-1 23-6 5-3 7-8 8-13 1-4-1-8-5-8-3-1-6 0-8 2l-1-4zM269 87h17l2 9-6-6c-3-1-7-1-9 2v9c-3-4-4-9-4-14zM211 88h1v2h-1v-2zM311 88h13c0 6-2 13-7 17l3-9c1-2-1-5-3-5-2-1-4 0-6 1v-4zM150 90l15-1 2 6c-2-3-6-4-10-3-3 0-4 3-4 5 0 4 1 7 3 10-5-4-6-11-6-17zM267 89v5c-2 0-1-4 0-5zM147 94l1 4c-2 0-2-3-1-4zM210 98l1-4c1 1 1 4-1 4zM148 99l1 3c-2-1-2-2-1-3zM209 101l1-2v2h-1zM271 106v0zM205 108l1-1-1 1zM274 110v2h-1v-1l1-1zM277 113l6 3v5c4 2 9 2 14 3v1c-8 17-15 35-13 54l-13 8c-5 6-10 13-13 20-4 7-5 15-7 22l-10-6c1-9 5-16 8-23-5 6-8 13-11 20l-10-10 10-14c4-3 8-5 11-9-9 5-17 11-23 20-3-4-7-8-7-14 2-4 6-7 9-10 4-4 10-7 15-10l-17 8c3-10 14-14 24-13 5 1 9 2 12 5l-4 8c12-14 19-32 21-50l-2-18z"/><path d="M274 114l1 3c-1-1-2-2-1-3zM160 115l1 1-1-1zM194 117l1-1v11l-1-10zM169 119l6 1 1 6 16-1c1 18 2 36 8 52l1 17c0 2 1 4-1 5l-8 8-5-7-2-10c2-9 1-19-1-28-3-15-9-29-15-43zM275 119l1 5c-2 0-2-4-1-5zM166 120l1 2h-1v-2zM195 130c2 2 1 6 1 9l-1-9zM275 135c-1-1-1-5 1-5l-1 5zM296 137v-1 1zM274 141c-1-1-1-4 1-4l-1 4z"/><path d="M174 139l1 2h-1v-2zM196 139v0zM273 145c-1-1 0-2 1-3l-1 3zM196 143c9 1 17 4 23 9l-3 3-18-2-2-10zM159 160c4-6 11-11 18-15l1 5c-4 6-12 10-16 16l-3-6zM272 149c-1-1 0-2 1-3l-1 3zM236 148c2-2 6-1 9-1v1h-9zM58 149c0-2 3-2 3 0h-3zM230 149c1-2 2-2 3-1l-3 1zM298 148c1-1 5-1 5 1l-5-1zM223 150h3c-1 2-2 2-3 0zM271 150h1v2l-1-1v-1zM208 168c5-10 16-15 26-17 12-1 25 1 35 7l-5 11c-8-3-17-7-27-6-7 1-15 5-18 12-5 8-6 20 0 29 8 12 20 21 31 29l-6 9-20-15c-6-5-12-10-16-17-3-6-4-14-4-21-1-7 0-15 4-21zM52 153c12-3 25 0 34 8 10 6 17 15 27 20 11 4 25 4 35-2 6-2 11-8 17-9v1c-3 6-7 12-13 15a50 50 0 01-52-3c-7-4-11-10-18-14-8-5-17-7-26-4-5 1-11 3-13 8-4 5-7 12-5 18 2 7 7 14 14 17 7 4 16 4 24 5l4 1c-1 2-1 4-3 5-6 3-14 3-21 2-8-1-14-4-20-8-6-3-9-9-13-14-2-4-2-8-2-12 1-11 6-21 14-27 5-4 11-6 17-7zM290 152c11-1 24 0 32 9 7 6 10 16 10 25l-13-8c-3-3-5-8-9-11-6-5-15-4-22-5v-2l2-8zM267 153h2v1h-1l-1-1zM171 167l9-8 2 4 1 2c-2 6-7 12-6 19 0 10 6 18 13 25l-7 9c-5-5-10-10-13-16 2-3 4-6 4-10 0-6-5-11-5-17 0-3 0-6 2-8zM199 160c3 0 6 2 8 4l-5 8-3-12zM287 167c4 2 8 5 11 10l-11 1v-6-5z"/><path d="M55 171c0-2 3-2 4-1l-4 1zM66 170c1-1 2-1 3 1l-3-1zM52 171h2l-2 1v-1zM70 171h2v1l-2-1zM18 179h1l-1 2v-2zM282 184c9-5 20-5 29-4 7 1 12 5 17 8l-13 4c-7 3-15 0-23 2-8 3-14 10-18 18s-5 17-8 26c-5 14-19 25-33 30l-3-13c7-5 16-8 21-16 4-8 5-18 8-27 4-11 12-22 23-28zM41 182h1l-1 2v-2zM18 194v-10 10zM430 196c3-7 12-7 19-8 4 0 9-1 12 1-1 3-3 4-5 5-9 4-18 4-26 2zM465 189c2 0 2 5 0 5v-5z"/><path d="M305 201c14-10 33-12 49-6 12 4 20 14 33 16 7 2 15 2 22-3 1 2 4 3 3 6 0 4-3 6-6 7-7 3-14 1-21-1l-24-10c-5-2-11-3-17-3-11-6-24-9-36-6h-3zM86 199l1-2v2h-1zM84 204l1-2v2h-1zM181 229c4-10 12-20 21-26l3 9c0 4-2 7-4 10-7 8-13 18-13 29 0 7 2 14 6 19l12 15c-4 2-9 4-14 4-7-8-14-17-16-28s0-22 5-32zM64 208l2 1h-2v-1zM68 209l4 1c-1 1-4 1-4-1zM76 229c5-6 12-10 19-13 0 5-3 9-6 13s-7 6-11 9l-12 16-4 4c1-11 6-21 14-29z"/><path d="M209 248c-4-10-6-22-1-32l11 11v12c1 8 7 14 9 22 2 6 4 13 2 19l-8 13c-5 3-10 4-15 5l-15-5 13-4c6-3 11-9 11-16 0-9-3-17-7-25zM391 230zM361 234c6 2 11 5 15 10 6 7 8 17 13 25 4 8 12 13 20 15 9 1 18-3 26-7 6-2 13-4 18 0 4 1 5 5 5 9l-7 4-2-3c-1-4-5-6-9-6-6 2-11 5-14 10-10 3-21 4-30-1-8-6-10-16-16-24-5-7-10-15-18-18l-1-14zM61 277c5-16 16-29 28-40 2 4 3 8 1 12-3 8-10 15-14 23-5 10-7 22-8 33 0 17 3 36 15 49 9 12 23 20 38 20-4 6-13 7-19 5-13-3-23-12-31-22-8-11-14-23-14-37-1-14 0-29 4-43zM236 241l5 3-6 4 1-7zM267 244l14 18c6 9 7 21 5 31h4l-15 4c0-7 1-14-2-21-2-8-8-15-13-21l7-11z"/><path d="M205 249c3 4 5 9 6 14l-9 12-6-9c5-5 7-11 9-17zM58 259c-1-1-1-4 1-4l-1 4zM241 269l10-6c2 6 5 12 6 19l1 21-13 4c3-13 1-26-4-38zM58 268c1 1 2 3 1 4-2 0-2-3-1-4zM205 278c1-4 4-7 7-10 1 5 1 11-4 15l-3-5zM442 272c1-2 6-2 7 0h-7zM166 285l15-6 7 10-5 2-17-6zM415 280l7-1-7 2v-1zM408 281c1-2 2-1 3 0h-3zM56 285c-1-1-1-2 1-3l-1 3zM54 300c0-2-1-6 1-7l-1 7zM399 299l2 1h-2v-1zM413 300l3-1c-1 2-2 2-3 1zM53 305l1-1v17c-2-5-1-10-1-16zM370 375c2 8-1 17-7 23v-4c1-7 4-13 7-19zM377 382l1-5c1 1 1 5-1 5zM354 378c2 2 4 3 3 6 0 6-3 12-2 19 1 4 3 8 3 13-6-2-9-9-9-16l5-22zM113 383h4l8 8c8 5 18 5 27 8 3 0 6 2 8 4l-12 3c-7 1-14-1-20-3-11-3-19-12-26-19l11-1zM89 390c3 0 6 0 8 2l9 14c4 4 8 10 7 16 0 4-2 6-3 9l-3-12c-2-5-6-8-9-11-4-4-8-8-9-14v-4zM85 391l1 5c-2 0-2-4-1-5zM303 399l21-8c1 7-2 14-7 19-5 2-12 1-17 0 2-3 4-7 3-11zM368 402l2-2-2 2zM328 418c2-8 8-13 14-16 1 6-3 12-6 17l-7 13c-3-4-3-10-1-14zM184 407c3 0 6 1 8 3l10 13c4 4 10 7 13 12 2 4 1 8 0 12-3-7-8-14-13-20-3-6-9-9-14-12-3-2-4-5-4-8zM362 408h1v2l-1-2zM266 413l12-3c7 1 13 5 21 7h25l-1 6-15 3c-15 1-30-4-42-13zM137 411c7-1 15 3 20 8 4 3 7 8 10 12l9 6 9 5v5c-5 1-10-1-14-3-6-3-9-9-13-14-6-7-14-12-21-19zM363 411h1v2l-1-2zM98 413l1 1-1-1z"/><path d="M162 413l18 3h-4c7 1 14 4 20 9 5 4 9 10 6 16-5-6-11-12-19-15l-14-4c-3-2-4-6-7-9zM364 414h1v2l-1-2zM244 432c6-3 9-9 13-14v4c-1 6-4 11-9 14-8 4-17 6-25 2l-2-5c7 1 15 2 23-1zM119 419c2 1 2 5 0 6v-6z"/><path d="M229 420c5-1 11 1 15 4l-7 4-8-8zM126 422h0zM132 423l2 1h-2v-1zM260 424l19 2c-2 3-5 5-8 6-4 1-9 0-13-1l2-7zM141 425l3 1c-1 1-2 1-3-1zM118 428l1-2v2h-1zM285 426l12 3-14 11-9 5c-2-4 0-9 3-12l8-7zM323 426h1v2h-1v-2zM181 429l2 1h-2v-1zM191 435zM259 435h1c0 2 1 6-1 6v-6zM263 435h7c-1 2-6 2-7 0zM270 440c-1-1 0-2 1-3l-1 3zM329 437h3c0 2-3 2-3 0zM288 440l1-1-1 1zM245 441l4-1 6 6-5 4c-1 1-2 0-3-1l-2-8zM222 442h1l-1 1v-1zM224 442h3c-1 2-2 2-3 0zM188 443h1v2h-1v-2zM228 443zM242 443h1v3c-1-1-2-2-1-3zM166 446h1-1zM179 450h5c0 2-5 2-5 0zM216 452h3c0 2-3 2-3 0zM251 454z"/></g><g fill="#710300"><path d="M176 58h8l2 1c4-1 7 2 10 3l1 1 2 1h1l6 6v1a667 667 0 005 17v6l-1 4v1l-1 2-3 6-1 1c-2 3-6 7-10 8l-1 1 1 10a161 161 0 001 12v4l2 10v3l1 4 3 12-2 5c-6-16-7-34-8-52l-1-7c-5 2-11 2-16 2l-6-1c6 14 12 28 15 43 2 9 3 19 1 28l-1-14a63 63 0 00-2-13 98 98 0 00-4-13l-1-5-2-3v-1l-1-2-6-13-1-4-1-2-5-4-1-1c-5-2-10-7-11-13l-1-3v-1l-1-4v-1-10l1-3v-1l1-2 2-5c4-6 10-11 17-12l2-1h2l4-1m-3 4c-5 1-10 3-13 6l-8 9-2 9 36-2 21-1c-2-16-20-25-34-21m17 25l1 4c-1 7-10 12-17 10-3-1-5-4-7-6l-2-6-15 1c0 6 1 13 6 17 4 5 10 8 17 9 11 3 24-2 31-12 4-5 5-12 4-18l-18 1m-21 1v5h1l-1 3 8 1v1h2l1-1c1 1 3 0 3-2l2 1c1-2 3-4 3-7l-3-2c-5 1-11 2-16 1zM292 58h9l3 1 9 3h1l4 4 2 2c2 2 5 6 5 9l1 2 1 4-1 14c-3 8-8 15-16 18-2 1-5 2-6 4l-8 17v1l-4 9-2 6-2 8a51 51 0 00-1 12l-2 6-1 1c-2-19 5-37 13-54l3-7c-6 0-12 0-17-2l-6-3 2 18c-2 18-9 36-21 50l4-8 2-4 5-11 2-5 1-1v-3l1-3v-1l1-3v-1l1-4a891 891 0 000-18v-2l-1-3v-2-2l-3-3v-1c-2-3-4-8-4-12v-6-5c0-8 6-15 12-20l4-2 2-1 1-1h4l2-1m-4 5c-8 2-14 8-17 15l-1 6 30 1h24c-1-9-7-18-16-21-6-4-14-3-20-1m-19 24c0 5 1 10 4 14 3 8 11 14 20 14 9 1 19-2 24-10 5-4 7-11 7-17h-13v4c-1 3-3 6-6 7-5 4-13 2-17-3l-2-9h-17m20 1v4l5 1h-5l2 3 7 1v1h4v-1l2-1c3-1 3-5 4-8h-19zM308 201c12-3 25 0 36 6a68 68 0 019 10l8 14v3l1 14-1 5 7 5-4-1c-2 0-5 1-7 3-13 8-26 17-41 23-9-1-19-4-26-10l-8-15-5-8-1-12c1-6 2-12 5-18 4-7 10-11 16-16l11-3m9 5c-5 0-10 1-14 3-6 2-9 7-12 11-6 5-7 14-7 21s3 15 9 19c10 8 23 12 35 9 10-2 17-9 22-17l2-7c1-5 3-9 2-14 0-6-4-11-8-15-2-3-5-4-8-6-6-3-14-4-21-4zM111 204l9-3h4l9 17c4 5 12 6 17 2l14-11c8 5 10 15 12 23l-3 15c0 12-11 23-22 26l-13 1-25-13c-4-2-7-5-11-5h-3v-1c2-5-3-9-3-14l3-17-2-1 3-7 11-12m3 5c-3 1-7 3-8 7-2 5-4 9-4 15l2 13c1 4 4 6 7 9 3 4 8 6 12 9 7 4 15 6 23 4 7 0 13-5 18-9 4-2 4-6 6-9 2-5 0-10 0-15-1-4-2-8-6-10-3-2-7 0-11 0-6 2-13 1-18-2-5-2-8-8-12-11-2-3-6-2-9-1zM473 299c5-2 10-6 15-7l-10 7-43 25-10 5-2-1 11-7 18-10 21-12zM419 332h3v72c0 2 1 4-1 5-3 1-2-3-2-5v-72z"/></g><g fill="#f38204"><path d="M173 62c14-4 32 5 34 21l-21 1-36 2 2-9c2 3 5 5 8 5 11 1 22 1 32-4 2-1 4-2 4-4 0-4-3-7-7-9-5-3-11-3-16-3zM308 64c9 3 15 12 16 21h-24l-30-1 1-6c5 5 12 4 18 4s13 1 19-1c3-1 7-3 7-6 1-5-4-8-7-11zM283 116c5 2 11 2 17 2a339 339 0 01-3 6c-5-1-10-1-14-3v-5zM175 120c5 0 11 0 16-2l1 7-16 1-1-6zM178 150l2 6c-5 3-10 6-13 10l-5 1v-1c4-6 12-10 16-16zM198 153l18 2-7 6-11-5v-3zM56 165c9-3 18-1 26 4 7 4 11 10 18 14 6 4 12 6 19 8 11 3 23 0 33-5 6-3 10-9 13-15 2 3 1 7-2 9-7 10-19 14-31 15-9 1-18 1-26-3l-16-11c-6-5-12-11-19-13-10-3-20 0-28 5 2-5 8-7 13-8zM228 170c6-4 15-5 22-2-10-1-21 3-24 13l-7 6c-1-7 2-14 9-17zM292 166c5 0 11 0 16 3l6 8h-12l-10-11zM182 173l2 3 1 14 2 10c-3-3-6-7-7-11-1-6 1-11 2-16zM334 175c8 3 15 8 18 16l-16-3-2-13zM449 188c4-1 8-2 12-1 2 1 1 5 1 7-1 4-6 5-9 5l-21 3c-2-1-3-4-3-6h1c8 2 17 2 26-2 2-1 4-2 5-5-3-2-8-1-12-1zM96 190c4 1 7 4 11 6-3 3-5 7-6 11l-15 3c1-7 5-15 10-20zM288 200c5-3 11-4 17-4l-8 8c-6 5-12 9-16 16-3 6-4 12-5 18l-1 9-6-7 6-20c2-8 6-16 13-20zM111 198c4-1 8 0 12 1l-3 2-9 3-6 1c2-3 3-6 6-7zM23 199c4 5 7 11 13 14 6 4 12 7 20 8 7 1 15 1 21-2 2-1 2-3 3-5l-4-1 18-1c-4 4-10 6-15 9l-8 8-22-5c-9-3-18-9-23-18-2-2-2-5-3-7zM409 208l4-3 3 14c-5 3-9 7-15 8-7 1-14 0-20-3l-16-9-15-3-6-5c6 0 12 1 17 3l24 10c7 2 14 4 21 1 3-1 6-3 6-7 1-3-2-4-3-6zM171 212l11 9a2741 2741 0 00-5 5c-1-5-3-10-6-14zM95 216l5-2v2l-3 7-2 6-16 14c-7 7-13 15-18 24l1-9 4-4 12-16c4-3 8-5 11-9s6-8 6-13zM353 217c4-1 8-1 10 2l5 14-7-2-8-14zM194 263c-6-13-1-27 8-37-1 6 1 11 1 17-1 7-3 15-9 20zM228 252c-4-6-8-14-5-22l10 8-1 11c0 2-2 2-4 3zM89 237l5-3v2c0 6 0 11 4 16-5 7-12 13-16 20-4 9-7 19-8 28 0 8-1 16 1 24 3 14 10 26 20 36 3 3 7 6 11 7l13 4 2 3c-15 0-29-8-38-20a73 73 0 01-15-49c1-11 3-23 8-33 4-8 11-15 14-23 2-4 1-8-1-12zM362 248c8 3 13 11 18 18 6 8 8 18 16 24 9 5 20 4 30 1l-1 2c-7 2-15 5-23 3-5-1-10-3-14-6l-10-16-10-16-7-5 1-5zM253 260l4-3c6 6 12 14 14 23 2 6 1 12 1 19l-11 3c0-8 0-16-2-25-1-6-3-11-6-17zM173 259c1 6 3 12 6 17-6 5-13 6-20 7l-16-7c6 0 13-2 18-5s8-8 12-12zM234 272l3-2c3 4 4 10 5 15 2 7 1 15 0 23l-17-4-4-6c4-4 8-8 10-14 2-3 2-8 3-12zM290 293v-20c7 6 17 9 26 10l-26 10zM451 290l7-4c0 3 0 6-2 8s-5 2-8 2l1-9 2 3zM372 369l2-1c1 12-1 27-12 34l1-8v4c6-6 9-15 7-23l2-6z"/><path d="M354 378l12-6c0 6-4 11-6 17-3 9-2 19 2 28l-4-1c0-5-2-9-3-13-1-7 2-13 2-19 1-3-1-4-3-6zM120 381l3-3 1 1 25 12c-11 2-21-4-29-10zM340 384l9-4-3 12c-2 4-5 6-8 8l2-16zM89 386l9-4c1 7 2 13 6 18 5 6 11 12 12 20 1 5-2 9-4 13l-3-1 1-1c1-3 3-5 3-9 1-6-3-12-7-16l-9-14c-2-2-5-2-8-2a132 132 0 000-4z"/><path d="M117 383c6 4 12 8 19 10 6 3 13 2 19 1l13 5-8 4c-2-2-5-4-8-4-9-3-19-3-27-8l-8-8zM329 389l6-3c1 6 1 12-3 17-2 3-6 4-9 5 3-6 5-12 6-19zM104 392l11 8c9 8 20 13 28 22-6-1-13-2-19-6-7-5-12-11-17-17l-3-7zM342 402l3-3 2 11c-3 3-7 6-9 10l-7 14-2-1v-1l7-13c3-5 7-11 6-17zM157 408l17-7 7 2v9c-8-2-15-3-23-2l-1-2zM286 404l11-3h3l-4 8c-4-1-7-2-10-5zM184 405h3l11 3c-1 7 5 12 10 17l9 8c2 5 2 11 1 16l-3-2c1-4 2-8 0-12-3-5-9-8-13-12l-10-13c-2-2-5-3-8-3v-2z"/><path d="M263 410l17-4c9 4 19 9 29 8 6 1 12-1 18-3l-3 6h-25c-8-2-14-6-21-7l-12 3-3-3zM133 409l14 1h6c6 4 10 9 13 15l10 12-9-6c-3-4-6-9-10-12-5-5-13-9-20-8h-1l-3-2zM201 409l15 5c6 5 12 9 16 15-6-1-13-2-19-5s-11-9-12-15z"/><path d="M252 412l6-1-1 11v-4c-4 5-7 11-13 14-8 3-16 2-23 1l-1-2c8 1 17 3 24-2 5-4 7-11 8-17z"/><path d="M245 414l3-1-1 4-2-3zM230 416l9-1c3 2 8 5 5 9-4-3-10-5-15-4l-3-3 4-1zM261 416c3-1 6 1 8 3-3 0-6-1-8-3zM261 421c7 2 14 0 20 4l-1 2-1-1-19-2 1-3zM249 440l7-6-1 12-6-6z"/></g><g fill="#f3f5fc"><path d="M207 73c1 0 3 3 2 4l-2-4zM191 91c2-2 5-3 8-2 4 0 6 4 5 8-1 5-3 10-8 13-7 5-15 7-23 6-7-1-13-4-17-9-2-3-3-6-3-10 0-2 1-5 4-5 4-1 8 0 10 3 2 2 4 5 7 6 7 2 16-3 17-10zM273 92c2-3 6-3 9-2l6 6c4 5 12 7 17 3 3-1 5-4 6-7 2-1 4-2 6-1 2 0 4 3 3 5l-3 9c-5 8-15 11-24 10-9 0-17-6-20-14v-9z"/><path d="M170 93l8 1-1 3-8-1 1-3zM289 93h5l4 1v3l-7-1-2-3zM180 97l1-4 2 2c0 2-2 3-3 2zM300 94h3l1 2-2 1-2-3zM317 154h2v1l-2-1zM331 168h1v2l-1-2zM333 171h2v1l-2-1zM441 181c5 1 11 0 16-1l-1 3c-7 1-15 2-22 5-4 1-8 5-8 10 0 4 4 8 8 7l12-1c-5 2-11 3-16 2 6 3 13 3 19 2-1 3 0 8-4 10-8 4-17 1-26 2l-4-23-2-16h28zM60 230l8 2-9-2h1zM355 265l5-2-8 11c-7 8-15 14-23 21l-23 21c-7 2-13 6-19 9-3 1-6 2-9 1l-11-5-19-11c15-6 31-10 46-15 22-7 42-18 61-30zM113 267c4 0 7 2 10 3 8 5 17 8 26 12 18 7 37 12 55 18l28 9-17 13c-5 3-9 6-14 7-3 1-6-1-9-2l-18-10-13-10-48-40zM393 270l3 3c-2 0-3-1-3-3zM78 308c9-5 17-13 27-17l2 9 1 1c-3-1-6-3-8-2-6 2-11 6-16 9-2 2-5 3-6 6v7l-1-4 1-9zM108 291c5 6 7 13 11 20 5 15 12 28 19 42l-7 2c-7-15-12-31-17-47-2-6-5-11-6-17zM385 295c0-2 2-2 3-2-1 2-2 2-3 2z"/><path d="M206 331l14-9 9 14-8 19-30-23c5 0 11 1 15-1zM260 322c7 1 13 7 20 8 5 0 9-3 13-3-11 10-24 19-37 27l-6-16 10-16zM37 338l17-12 1 5c-5 2-10 5-10 10-1 8 4 15 5 23l-13-26zM391 397l1 6c-2 0-2-4-1-6zM392 404l3 2c-2 0-3-1-3-2zM118 416c2 0 3 1 4 3l-3-1-1-2z"/></g><g fill="#490202"><path d="M169 88c5 1 11 0 16-1l3 2c0 3-2 5-3 7l-2-1-2-2-1 4-1 1h-2v-1l1-3-8-1h-1v-5zM289 88h19c-1 3-1 7-4 8l-1-2h-3l2 3v1h-4v-1-3l-4-1-5-1v-4zM140 140c-1-3-4-6-4-10 6 4 8 10 12 16l11 22-2 1-17-29zM113 152c6-7 12-15 19-21 9 13 15 26 23 40-10 10-27 12-40 7l-8-17 6-9m8-4c-3 2-5 7-3 10 4 4 10 2 11-3 0-4-4-9-8-7z"/><path d="M122 151c1 1 3 1 3 3s-2 3-4 3l1-6zM168 191c0-3-4-7-1-10 3 5 5 11 2 15-3 6-7 10-12 14-4 4-8 8-13 9l18-17c3-3 8-6 6-11z"/><path d="M127 199c13 0 25-4 35-12 2 2 3 4 3 7l-5 5c-6 7-13 14-21 19-6-5-9-12-12-19zM99 256h3l11 11 48 40 13 10c5 6 11 10 17 15l30 23 3 3 12 9 17-11 3-2c13-8 26-17 37-27l13-11 23-21c8-7 16-13 23-21l8-11 4-6 4 1 10 16 10 16v3c-1 0-3 0-3 2-2 2-2 4-2 7l1 12v22l-1 8v4l-1 5v3l-1 4v1l-1 1v1l-2 3-4 2-2 1-6 3-12 6-5 2-9 4-5 2-6 3-5 2-21 8-6 2-11 3-6 2-17 4-5 1-6 1a182 182 0 00-7 2l-6 1-9 1c-5 1-9 0-14-2l-15-5-3-1-11-3-6-2-7-2-6-2-13-5-6-3-25-12v-3l37 17a384 384 0 0056 17l6-17 7-19-33-14-30-13-20-8c-5-3-11-4-13-10l13 7 25 10 41 17c7 3 13 6 20 7-4-6-11-9-16-14l-53-42-16-13-38-33-13-10 2-2m266 4c-4 7-9 13-14 18-11 12-23 22-35 33l-22 19a420 420 0 01-58 42c6 0 12-3 18-4l99-33c2-1 6-2 5-5-2-5-8-8-12-11-2-2-2-6-2-9l27-12 14-7c-2-5-6-10-9-14-3-6-6-12-11-17m-5 46l-13 7c1 4 4 6 7 8l7 8c2 3-1 6-4 7-28 11-56 19-84 29l-34 11c-3 0-7 0-8 4l-10 28v5h11l26-5 39-10 13-4c20-8 39-17 58-27 4-1 8-3 10-7 2-7 2-14 2-21s2-14 1-21l-1-20-20 8zM426 291c3-5 8-8 14-10l3 3c-5 2-10 3-12 7-4 4-5 10-7 16-1 4-4 6-7 10 5 0 9-1 12-5 4-4 4-11 7-16 2-4 6-5 10-6-1 3-3 6-6 8s-3 6-5 9c-1 7-7 12-13 13-3 0-7 0-8-3l5-8c-8 3-15 9-22 14l17 4c4 1 7-2 10-3l54-32-6-1c-3 3-5 6-8 7l-6-1 1-2 6-1c-2-3-4-6-3-9l4 3h12l13 1c1 0 4 1 3 3v60l-1 5v4h-1v1l-6 6-1 1-4 3-1 1-8 6-1 1-3 2-1 1a190 190 0 00-4 3l-3 2-1 1-2 1-1 1-3 2-1 1-3 2-1 1-6 4-1 1-3 2-1 1a208 208 0 00-3 2l-6 5h-1-9l-7-1-2-1h-3-1l-3-1h-1l-5-2-1-1-3-2v-1l-1-6v-31-2-2-17-23l3-2 1-1 2-1 1-1 11-7 1-1 4-2 1-1c3-2 7-3 8-7l2-6 1-2m47 8l-21 12-18 10-11 7 2 1 10-5 43-25 10-7c-5 1-10 5-15 7m6 3l-43 25c-3 2-7 3-10 6l-1 4v71c10-5 18-13 27-19l29-22c3-2 7-4 8-8l2-14v-34-16l-12 7m-85 25v28l1 40c0 3-1 6 2 8 6 3 12 4 19 5v-15-62l-22-4m25 5v72c0 2-1 6 2 5 2-1 1-3 1-5v-72h-3zM78 302l1-12 15 4c-5 3-10 0-15 0l-1 8z"/><path d="M462 330c2-3 5-5 8-3 4 4-3 8-2 12 5-2 10-1 16-1v3h-11c2 3 5 3 9 4v3l-10-2c1 4 5 4 8 5 0 2-1 3-2 3l-8-2-10 6c-1 3 0 7-2 10h-4l3-12-4 3c-2 3-1 7-4 9-1 1-3 3-4 1 3-6 5-11 6-17-4 1-4 5-5 8s-4 4-6 5l-1-2c3-3 4-7 6-11 3-3 8-4 9-8l-10-2c0-3 0-6 3-7 5-1 5 6 9 6 4-1 8-2 9-6 0-2-2-4-3-5m-2 14c-4 2-5 6-5 9 3 0 7 0 10-2s4-6 5-9c-3 0-7 0-10 2zM241 385c3-1 8 1 10 4 2 4 1 10-4 11-4 1-8 1-11-2-3-4 0-12 5-13m-1 3c-3 2-4 8 0 9 3 1 9 1 9-3 1-5-5-8-9-6z"/></g><g fill="#809bd5"><path d="M131 128c4 0 9 0 12 3l14 26a419 419 0 005 9v1l-3 1-11-22c-4-6-6-12-12-16 0 4 3 7 4 10l17 29-2 2c-8-14-14-27-23-40-7 6-13 14-19 21l-6 9 8 17-5-3c-1-6-8-10-6-16l19-23 8-8zM421 171c0-2 4-2 5-1l-5 1zM447 170c1-1 5-1 5 1l-5-1zM410 181c-2 0-2-5 0-5v5zM459 183v-2l1 1v1h-1zM426 224l5 1c-1 1-5 1-5-1zM494 292h1v48h-1v-48zM414 307l1-1-1 1zM110 308l8 21c4 10 6 20 12 29l-14 8c-7-1-14-3-19-8a65 65 0 01-19-37v-7c2 16 10 31 21 42 5 4 11 7 17 6 3-1 6-3 7-6l-3-12-8-24-2-12zM409 310l1-1-1 1zM235 311c3-2 7-1 10 1l13 7c-5 4-6 12-11 16-5 1-10 0-14-2-5-3-7-9-10-13l12-9zM119 311l3 3c5 10 11 20 15 31 1 3 3 6 1 8-7-14-14-27-19-42zM397 318zM394 320l1-1-1 1zM231 341l2-3 13 2 7 16-17 11-12-9 7-17zM390 345h1v17l-1-5v-12zM60 346c5 8 10 17 17 23l16 12-22 12c-2 0-5 3-6 0-3-3-4-6-5-10 3 3 5 6 9 7 5 0 12-4 13-9 0-3-3-6-5-8-8-7-14-17-17-27zM382 353l1-5c1 1 1 5-1 5zM381 360l1-4c1 1 1 4-1 4zM492 361h0zM380 362l1-1-1 1zM492 362zM380 363zM390 364h1v2h-1v-2zM485 369l1-1-1 1zM480 373zM471 380zM467 383l1-1-1 1zM463 386zM240 388c4-2 10 1 9 6 0 4-6 4-9 3-4-1-3-7 0-9zM459 389l1-1-1 1zM456 391l1-1-1 1zM452 394l1-1-1 1zM448 397l1-1-1 1zM441 402l1-1-1 1zM437 405zM395 406l1 1-1-1zM434 407zM401 409h0zM405 410h0zM409 410l2 1h-2v-1zM427 412h1-1zM242 454c2 0 2 2 1 3-2 0-2-2-1-3z"/></g><g fill="#a84007"><path d="M196 140c10 0 19 4 27 10 1 2 2 2 3 0l4-1 3-1h12c6-1 11 1 16 3l6 2 1 1h1l2-1-2 5c-10-6-23-8-35-7-10 2-21 7-26 17-4 6-5 14-4 21 0 7 1 15 4 21 4 7 10 12 16 17l20 15 6-9c-11-8-23-17-31-29-6-9-5-21 0-29 3-7 11-11 18-12 10-1 19 3 27 6l-2 4c-3-3-7-4-12-5-7-3-16-2-22 2-7 3-10 10-9 17l7-6 17-8c-5 3-11 6-15 10-3 3-7 6-9 10 0 6 4 10 7 14 6-9 14-15 23-20-3 4-7 6-11 9l-10 14 10 10c3-7 6-14 11-20-3 7-7 14-8 23l10 6c2-7 3-15 7-22 3-7 8-14 13-20l13-8 1-1 2-6v6l11-1c-3-5-7-8-11-10l1-7v2c7 1 16 0 22 5 4 3 6 8 9 11l13 8c0-9-3-19-10-25-8-9-21-10-32-9l2-6c0 3 4 1 6 2l5 1c5-1 10 2 14 5l2 1 7 5 5 8 1 2 1 1 2 1c8 2 15 8 19 14 2 3 3 7 7 8l19 12c7 2 14 4 21 2 4-1 7-4 11-7l1 4-4 3c-7 5-15 5-22 3-13-2-21-12-33-16-16-6-35-4-49 6h3l-11 3 8-8c-6 0-12 1-17 4-7 4-11 12-13 20l-6 20 6 7 1-9 1 12 5 8 8 15v20h-4c2-10 1-22-5-31l-14-18-7 11c5 6 11 13 13 21 3 7 2 14 2 21l-3 2c0-7 1-13-1-19-2-9-8-17-14-23l-4 3c3 6 5 11 6 17 2 9 2 17 2 25l-3 1-1-21c-1-7-4-13-6-19l-10 6c5 12 7 25 4 38l-3 1c1-8 2-16 0-23-1-5-2-11-5-15l-3 2c-1 4-1 9-3 12-2 6-6 10-10 14l4 6-18-6c5-1 10-2 15-5l8-13c2-6 0-13-2-19-2-8-8-14-9-22v-12l-11-11c-5 10-3 22 1 32 4 8 7 16 7 25 0 7-5 13-11 16l-13 4-9-2 5-2-7-10-15 6-7-2c7-1 14-2 20-7-3-5-5-11-6-17v-12l3-15 1-6h2l3-5-11-9-5-5-2 2-14 11c-5 4-13 3-17-2l-9-17h-4l3-2c-4-1-8-2-12-1-3 1-4 4-6 7l6-1-11 12v-2l-5 2a54 54 0 00-34 43v8a121 121 0 0134-38 180 180 0 00-1 5l-5 3a85 85 0 00-28 40c-4 14-5 29-4 43 0 14 6 26 14 37 8 10 18 19 31 22 6 2 15 1 19-5l-2-3-13-4c5 0 11 0 15 3 3 2 2 5 2 8l-3 3c8 6 18 12 29 10l6 3c-6 1-13 2-19-1-7-2-13-6-19-10h-4l-11 1c7 7 15 16 26 19 6 2 13 4 20 3l12-3 8-4 6 2-17 7 1 2c8-1 15 0 23 2v-9l6 2h-3v2c0 3 1 6 4 8 5 3 11 6 14 12 5 6 10 13 13 20l3 2c1-5 1-11-1-16l-9-8c-5-5-11-10-10-17l3 1c1 6 6 12 12 15s13 4 19 5c-4-6-10-10-16-15 5 2 9 3 14 2l-4 1 3 3 8 8 7-4c3-4-2-7-5-9l6-1 2 3 1-4 4-1c-1 6-3 13-8 17-7 5-16 3-24 2l1 2 2 5c8 4 17 2 25-2 5-3 8-8 9-14l1-11 5-1 3 3c12 9 27 14 42 13l15-3 1-6 3-6c-6 2-12 4-18 3-10 1-20-4-29-8l6-2c3 3 6 4 10 5l4-8h-3l6-2c1 4-1 8-3 11 5 1 12 2 17 0 5-5 8-12 7-19l5-2c-1 7-3 13-6 19 3-1 7-2 9-5 4-5 4-11 3-17l5-2-2 16c3-2 6-4 8-8l3-12 5-2-5 22c0 7 3 14 9 16l4 1c-4-9-5-19-2-28 2-6 6-11 6-17l6-3-2 6c-3 6-6 12-7 19l-1 8c11-7 13-22 12-34l4-2v11l-1 5c0 4-2 9-4 12l-3 6-2 2-6 4v2l1 2v1l1 2v1a160 160 0 001 5l-8 1-8-6c-8 4-11 12-14 20l-3 3h-3c-3-1-5-6-5-9v-2h-1l-15 3h-5l-14 10-1 1-9 7c-2 2-4 1-7 1l-2-2v-6l1-3v-2h-12v6c0 5-3 10-7 13h-5c-2-2-5-5-4-8v-3h-15l-1-1h-5v1l-2 9h-4-2l-7-13-3 5h-5l-7-8-1-1-8-5-2-1-9-2 6 6 10 7v8l-2 2h-7c-4 0-9-2-12-4h-1c-6-6-10-14-17-20h-5l-3-1-7-1-2-1-5-1h-1l-4-3c-1-2-2-3-4-3l1 2v8l-1 2-2 6c-2 2-5 2-8 2l-3-4c3-7-1-14-6-18l-1-1c-5-4-10-10-12-17l-1-5v-2l4-3v8c1 6 5 10 9 14 3 3 7 6 9 11l3 12-1 1 3 1c2-4 5-8 4-13-1-8-7-14-12-20-4-5-5-11-6-18l-9 4 4-4v-1l-16-12a76 76 0 01-22-38l-1-5v-5-17-4l1-7 1-8 1-3 2-10c1-1 0-3-1-4v-9l1-4c0-8 6-16 9-23l-8-2c-8-1-17-4-25-8-3-3-7-6-9-10-4-5-8-11-8-18a1295 1295 0 010-13l1-2c0-5 4-8 5-13 3-3 5-7 9-9l8-4c5-2 11-5 17-4h3c9-1 18 2 25 8 9 5 16 13 24 18l5 3c13 5 30 3 40-7l2-2a195 195 0 005-2l5-1c3-4 8-7 13-10l2 7-2-4-9 8c-2 2-2 5-2 8 0 6 5 11 5 17 0 4-2 7-4 10 3 6 8 11 13 16l7-9c-7-7-13-15-13-25-1-7 4-13 6-19l1 11-2-3c-1 5-3 10-2 16a488 488 0 0112 18l8-8c2-1 1-3 1-5l-1-17 2-5 5-8c-2-2-5-4-8-4l-1-4 11 5 7-6 3-3c-6-5-14-8-23-9v-3M52 153c-6 1-12 3-17 7-8 6-13 16-14 27 0 4 0 8 2 12 1 2 1 5 3 7 5 9 14 15 23 18l22 5 8-8c5-3 11-5 15-9l-18 1c-8-1-17-1-24-5-7-3-12-10-14-17-2-6 1-13 5-18 8-5 18-8 28-5 7 2 13 8 19 13l16 11c8 4 17 4 26 3 12-1 24-5 31-15 3-2 4-6 2-9v-1c-6 1-11 7-17 9-10 6-24 6-35 2-10-5-17-14-27-20-9-8-22-11-34-8m240 13l10 11h12l-6-8c-5-3-11-3-16-3m-237 5h-1-2v1c-4 1-9 5-10 10h-1v2c-1 4 1 7 2 10 3 9 12 14 21 14v1h4c0 2 3 2 4 1h10l2-6h1v-2l1-3h1v-2l6-9-10-9-11-7v-1h-3c-1-2-2-2-3-1h-7c-1-1-4-1-4 1m279 4l2 13 16 3c-3-8-10-13-18-16m-52 9c-11 6-19 17-23 28-3 9-4 19-8 27-5 8-14 11-21 16l3 13c14-5 28-16 33-30 3-9 4-18 8-26s10-15 18-18c8-2 16 1 23-2l13-4c-5-3-10-7-17-8-9-1-20-1-29 4m-114 7c2 5-3 8-6 11l-18 17c5-1 9-5 13-9 5-4 9-8 12-14 3-4 1-10-2-15-3 3 1 7 1 10m-41 8c3 7 6 14 12 19 8-5 15-12 21-19l5-5c0-3-1-5-3-7-10 8-22 12-35 12m-31-9c-5 5-9 13-10 20l15-3c1-4 3-8 6-11-4-2-7-5-11-6m85 39c-5 10-7 21-5 32s9 20 16 28c5 0 10-2 14-4l-12-15c-4-5-6-12-6-19 0-11 6-21 13-29 2-3 4-6 4-10l-3-9c-9 6-17 16-21 26m13 34c6-5 8-13 9-20 0-6-2-11-1-17-9 10-14 24-8 37m34-11c2-1 4-1 4-3l1-11-10-8c-3 8 1 16 5 22m8-11l-1 7 6-4-5-3m-31 8c-2 6-4 12-9 17l6 9 9-12c-1-5-3-10-6-14m0 29l3 5c5-4 5-10 4-15-3 3-6 6-7 10M104 392l3 7c5 6 10 12 17 17 6 4 13 5 19 6-8-9-19-14-28-22l-11-8m238 10c-6 3-12 8-14 16-2 4-2 10 1 14v1l2 1 7-14c2-4 6-7 9-10l-2-11-3 3m-209 7l3 2h1c7 7 15 12 21 19 4 5 7 11 13 14 4 2 9 4 14 3v-5l-9-5-10-12c-3-6-7-11-13-15h-6l-14-1m29 4c3 3 4 7 7 9l14 4c8 3 14 9 19 15 3-6-1-12-6-16-6-5-13-8-20-9h4l-18-3m99 3c2 2 5 3 8 3-2-2-5-4-8-3m0 5a155 155 0 00-3 10c4 1 9 2 13 1 3-1 6-3 8-6l1 1 1-2c-6-4-13-2-20-4m24 5l-8 7c-3 3-5 8-3 12l9-5 14-11-12-3m-36 14l-4 1 2 8c1 1 2 2 3 1l5-4 1-12-7 6z"/><path d="M175 142l2 3c-7 4-14 9-18 15l-2-3c3-4 6-8 11-10l7-5zM121 148c4-2 8 3 8 7-1 5-7 7-11 3-2-3 0-8 3-10m1 3l-1 6c2 0 4-1 4-3s-2-2-3-3zM456 183a38 38 0 014 0c3 1 5 3 5 6v5c0 4-4 7-7 8l-6 1-6 1-12 1c-4 1-8-3-8-7 0-5 4-9 8-10 7-3 15-4 22-5m-7 5c-7 1-16 1-19 8h-1c0 2 1 5 3 6l21-3c3 0 8-1 9-5 0-2 1-6-1-7-4-1-8 0-12 1zM350 212l15 3 16 9c6 3 13 4 20 3 6-1 10-5 15-8v4c-4 3-8 7-14 7h-11c-9 0-16-6-24-10l3 7c1 4 1 8 4 10 5 5 8 10 11 16l8 17c0 2 1 3 3 3l3 2c2 3 6 4 9 6h7l7-2c7-2 13-6 20-7h7c6 0 13 6 13 13-1 3 1 6 3 9l-6 1-1 2 6 1c3-1 5-4 8-7l6 1-54 32c-3 1-6 4-10 3l-17-4c7-5 14-11 22-14l-5 8c1 3 5 3 8 3 6-1 12-6 13-13 2-3 2-7 5-9s5-5 6-8c-4 1-8 2-10 6-3 5-3 12-7 16-3 4-7 5-12 5 3-4 6-6 7-10 2-6 3-12 7-16 2-4 7-5 12-7l-3-3c4 0 8 2 9 6l-1 9c3 0 6 0 8-2s2-5 2-8c0-4-1-8-5-9-5-4-12-2-18 0-8 4-17 8-26 7-8-2-16-7-20-15-5-8-7-18-13-25-4-5-9-8-15-10v-3l7 2-5-14c-2-3-6-3-10-2l-3-5zM98 252l1 3v1l-2 2-12 16c-3 5-4 11-6 16l-1 12v6l-1 9-2 7c-2-8-1-16-1-24 1-9 4-19 8-28 4-7 11-13 16-20z"/><path d="M388 290c4 3 9 5 14 6 8 2 16-1 23-3l-2 6v-2l-7 2-3 1h-12l-2-1c-4-1-8-2-11-6v-3zM479 302l12-7v50l-2 14c-1 4-5 6-8 8l-29 22c-9 6-17 14-27 19v-71l1-4c3-3 7-4 10-6l43-25m-17 28c1 1 3 3 3 5-1 4-5 5-9 6-4 0-4-7-9-6-3 1-3 4-3 7l10 2c-1 4-6 5-9 8-2 4-3 8-6 11l1 2c2-1 5-2 6-5s1-7 5-8c-1 6-3 11-6 17 1 2 3 0 4-1 3-2 2-6 4-9l4-3-3 12h4c2-3 1-7 2-10l10-6 8 2c1 0 2-1 2-3-3-1-7-1-8-5l10 2v-3c-4-1-7-1-9-4h11v-3c-6 0-11-1-16 1-1-4 6-8 2-12-3-2-6 0-8 3zM394 327l22 4v77c-7-1-13-2-19-5-3-2-2-5-2-8l-1-40v-28z"/><path d="M460 344c3-2 7-2 10-2-1 3-2 7-5 9s-7 2-10 2c0-3 1-7 5-9zM493 357l1-5c1 1 1 5-1 5zM418 412h7c-1 2-6 2-7 0z"/></g><g fill="#1e4f9b"><path d="M426 170a106 106 0 0126 1c3 0 8 1 9 5l-2 5v2h-3l1-3c-5 1-11 2-16 1h-28l2 16 4 23c7 2 13 2 20 2l11-2 4-17h-2l6-1c-2 6-4 12-4 18l-5 4c-6 1-12 2-18 1l-5-1c-3 1-7-1-10-2v-3l-3-14-1-4c1-7-3-13-2-20v-5c1-4 7-5 11-5l5-1m-4 4l-9 3c8 3 17 1 26 1 6 0 13 1 18-3-11-3-23-3-35-1zM85 274l12-16 13 10a1586 1586 0 0054 46l53 42c5 5 12 8 16 14-7-1-13-4-20-7l-41-17-25-10-13-7c2 6 8 7 13 10l20 8 30 13 33 14-7 19-6 17-17-5-39-12-37-17-1-6-7-4 14-8c-6-9-8-19-12-29l-8-21-3-8-2-9c-10 4-18 12-27 17v-6l1-8c5 0 10 3 15 0l-15-4c2-5 3-11 6-16m23 17c1 6 4 11 6 17 5 16 10 32 17 47l7-2c2-2 0-5-1-8-4-11-10-21-15-31l-3-3c-4-7-6-14-11-20zM365 260c5 5 8 11 11 17 3 4 7 9 9 14l-14 7-27 12c0 3 0 7 2 9 4 3 10 6 12 11 1 3-3 4-5 5l-99 33c-6 1-12 4-18 4l7-6c18-11 35-22 51-36l22-19c12-11 24-21 35-33 5-5 10-11 14-18z"/><path d="M360 306l20-8 1 20c1 7-1 14-1 21s0 14-2 21a878 878 0 01-68 34l-13 4-39 10-26 5h-11v-5l10-28c1-4 5-4 8-4l34-11c28-10 56-18 84-29 3-1 6-4 4-7l-7-8c-3-2-6-4-7-8l13-7m-119 79c-5 1-8 9-5 13 3 3 7 3 11 2 5-1 6-7 4-11-2-3-7-5-10-4zM220 322l3-2c3 4 5 10 10 13 4 2 9 3 14 2 5-4 6-12 11-16l2 3-10 16 6 16-3 2-7-16-13-2-2 3-7 17-3-3 8-19-9-14zM34 336l20-14v4l-17 12 13 26 10 19c1 4 2 7 5 10 1 3 4 0 6 0l22-12v1a68 68 0 01-8 7l-12 6c-3 2-7 3-11 1l-6-12c-7-16-16-31-22-48z"/></g><g fill="#aadeef"><path d="M422 174c12-2 24-2 35 1-5 4-12 3-18 3-9 0-18 2-26-1l9-3zM446 204l6-1h2l-4 17-11 2c-7 0-13 0-20-2 9-1 18 2 26-2 4-2 3-7 4-10-6 1-13 1-19-2 5 1 11 0 16-2zM102 256c4 0 7 3 11 5l25 13 5 2 16 7 7 2a211 211 0 0126 8l15 5 18 6 17 4 3-1a70 70 0 0016-5l11-3 3-2 15-4 26-10c15-6 28-15 41-23 2-2 5-3 7-3l-4 6-5 2c-19 12-39 23-61 30-15 5-31 9-46 15l19 11 11 5c3 1 6 0 9-1 6-3 12-7 19-9l-13 11c-4 0-8 3-13 3-7-1-13-7-20-8l-2-3-13-7c-3-2-7-3-10-1a126 126 0 00-15 11l-14 9c-4 2-10 1-15 1-6-5-12-9-17-15l18 10c3 1 6 3 9 2 5-1 9-4 14-7l17-13-28-9c-18-6-37-11-55-18-9-4-18-7-26-12-3-1-6-3-10-3l-11-11zM478 288h14l-1 1-13-1zM100 299c2-1 5 1 8 2l-1-1 3 8 2 12 8 24 3 12c-1 3-4 5-7 6-6 1-12-2-17-6a70 70 0 01-21-42c1-3 4-4 6-6 5-3 10-7 16-9zM383 302h1v12l-1-12zM45 341c0-5 5-8 10-10l5 15c3 10 9 20 17 27 2 2 5 5 5 8-1 5-8 9-13 9-4-1-6-4-9-7l-10-19c-1-8-6-15-5-23zM383 344l1-8v8h-1z"/></g><g fill="#950701"><path d="M317 206c7 0 15 1 21 4 3 2 6 3 8 6 4 4 8 9 8 15 1 5-1 9-2 14l-2 7c-5 8-12 15-22 17-12 3-25-1-35-9-6-4-9-12-9-19s1-16 7-21c3-4 6-9 12-11 4-2 9-3 14-3m3 19c-3 1-7 2-9 6-4 5 0 14 7 14 5 0 10 2 15 0 7-2 7-12 2-16-4-3-10-5-15-4zM164 209l2-2 5 5c3 4 5 9 6 14l-1 6c-2-8-4-18-12-23zM114 209c3-1 7-2 9 1 4 3 7 9 12 11 5 3 12 4 18 2 4 0 8-2 11 0 4 2 5 6 6 10 0 5 2 10 0 15-2 3-2 7-6 9-5 4-11 9-18 9-8 2-16 0-23-4-4-3-9-5-12-9-3-3-6-5-7-9l-2-13c0-6 2-10 4-15 1-4 5-6 8-7m10 15c-3 1-5 2-7 5-3 5 0 11 5 13s9 6 15 4c3-2 5-5 5-9-1-8-10-13-18-13zM95 229l2-6 2 1-3 17c0 5 5 9 3 14l-1-3c-4-5-4-10-4-16l1-7z"/><path d="M151 273c11-3 22-14 22-26v12c-4 4-7 9-12 12s-12 5-18 5l-5-2 13-1zM75 324l2-7 1 4c1 14 9 27 19 37 5 5 12 7 19 8l7 4 1 6v3l-1-1c0-3 1-6-2-8-4-3-10-3-15-3-4-1-8-4-11-7a70 70 0 01-20-36z"/></g><g fill="#c1330b"><path d="M124 224c8 0 17 5 18 13 0 4-2 7-5 9-6 2-10-2-15-4s-8-8-5-13c2-3 4-4 7-5zM320 225c5-1 11 1 15 4 5 4 5 14-2 16-5 2-10 0-15 0-7 0-11-9-7-14 2-4 6-5 9-6z"/></g></svg>