<svg width="1229" height="384" viewBox="0 0 922 288" xmlns="http://www.w3.org/2000/svg"><g fill="#eaf0f8"><path d="M0 0h1v10a308 308 0 00-1 22V0zM596 247c7 0 14 1 20-2 6 1 11 3 17 3 5 0 10-2 14 0l-1 8c-2 0-2-3-3-4l-9 6c0 7-9 4-14 2-1 3-4 5-7 6-2-1-3-3-6-3 2 3-1 4-3 6 1 2 4 2 5 0 4 2 7 3 10 6 3-2 6-1 9-1 3 3 7 2 10 0 2 1-1 3-1 5 3 1 5 2 8 1-2 3-8 3-8 8H525c9-8 23-10 35-13l14 1c5-2 12-3 17-6 1-2-1-4-2-5 0-4 2-8-1-11l8-7z"/></g><path fill="#bcd1e9" d="M1 0h5c0 3-1 6 1 9 4 3 7 7 12 8 3 1 6 0 8-2L21 5c-3-1-6-2-7-5h6l4 8c1 3 5 3 7 4-1 3-3 7-6 8-9 0-16-7-24-10V0z"/><path fill="#c9d9ee" d="M6 0h8c1 3 4 4 7 5l6 10c-2 2-5 3-8 2-5-1-8-5-12-8-2-3-1-6-1-9z"/><path fill="#aec8e5" d="M20 0h2l4 7h6c2 4 1 9-1 13l-4 5h-1c-2-2-5-4-8-2-3 1-4-2-6-4-4-1-7 2-11 2V10c8 3 15 10 24 10 3-1 5-5 6-8-2-1-6-1-7-4l-4-8z"/><g fill="#9ebee0"><path d="M22 0h4c-1 4 3 4 6 5 5 1 7 6 9 10 4 1 5-4 9-3l1 5 1 2-2 3-2 1-5-3-6 4h-1c-1-3-3-3-5-4 2-4 3-9 1-13h-6l-4-7zM1 21c4 0 7-3 11-2 2 2 3 5 6 4 3-2 6 0 8 2l-1 5-2 5a282 282 0 01-23-2v-1l1-11z"/></g><path fill="#93b8dc" d="M26 0h48c-1 2-2 6-6 2-5 0-9 5-13 7-2 1-3 3-5 3-4-1-5 4-9 3-2-4-4-9-9-10-3-1-7-1-6-5z"/><path fill="#9cbddf" d="M74 0h81c-3 2-7 6-12 7l-12 9c-3 0-2 3-1 4l-5-1c2-2 3-5 0-7l-4-4c-5-1-9 3-10 7l-1 2-20-4-11 1c-2 0-5 0-6 2l-3-2h-2c2-5-7-9-9-4l-4-1c4-2 8-7 13-7 4 4 5 0 6-2z"/><path fill="#a5c3e3" d="M155 0h23c0 4 6 2 8 3 9 3 18 3 27 0 4 0 10 2 11-3h30c6 4 10 9 15 14 4 4 10 4 13 8l23 5c3 0 8 3 11-1 0-6-1-12-3-17-3-3-7-1-10-3-2-1-1-4-1-6h13v7c2 8 3 17 3 25-5 3-11-1-16-2-8-1-16-3-23-8-5-4-12-4-16-10-7-11-21-6-32-6-16 0-31 6-47 3l-12-3c-11-2-21 1-30 6-4 2-4 6-8 8l-9 4-2-2v-1h8l-1-1c-1-1-2-4 1-4l12-9c5-1 9-5 12-7z"/><path fill="#9fbfe0" d="M178 0h46c-1 5-7 3-11 3-9 3-18 3-27 0-2-1-8 1-8-3z"/><path fill="#9fc0e2" d="M254 0h9c4 5 7 13 14 14 6 3 13 1 19 1 3-2-1-5-2-6-2-3 0-6 1-9h7c0 2-1 5 1 6 3 2 7 0 10 3 2 5 3 11 3 17-3 4-8 1-11 1l-23-5c-3-4-9-4-13-8-5-5-9-10-15-14z"/><path fill="#9bbddf" d="M263 0h32c-1 3-3 6-1 9 1 1 5 4 2 6-6 0-13 2-19-1-7-1-10-9-14-14z"/><path fill="#acc7e5" d="M315 0h4l-1 7c1 9 3 19 2 28-12 1-23-4-35-7l-13-8c-7 1-12-5-18-8-7 0-13 2-19-1-7-3-14 2-21 3-14 3-28-1-42-4-5-3-11 0-15 2-3 1-6-1-9-1-3 1-7 3-9 6-3 5-9 6-13 10l-4 1 2-2 1-2 9-4c4-2 4-6 8-8 9-5 19-8 30-6l12 3c16 3 31-3 47-3 11 0 25-5 32 6 4 6 11 6 16 10 7 5 15 7 23 8 5 1 11 5 16 2 0-8-1-17-3-25V0z"/><g fill="#b2cde8"><path d="M319 0h2c-2 5 1 10 2 14 2 6-3 14 3 19 9 6 21 4 32 4 7 0 9 7 14 10 4 1 9 4 8 9l-12 5c-6 2-8 8-9 13-2 0-2-2-3-3-5 0-8 4-12 3-5 0-11 5-16 2-2-2-5-2-7-3-6-5-14-9-17-17-2-7 7-9 6-16-3-1-5-3-8-3-7 0-13-3-17-8 7 4 15 4 22 7 5 2 11 1 16 4v3c-7 0-18 4-16 13 0 4 5 6 8 5 4 2 8 1 12 2 2 0 3-2 5-3 3 2 9 3 9-1 0-2 3-3 4-4 5-2 9 4 14 3 4-3 10-1 15-3-1-6-8-9-13-11-5-4-11-5-17-3-2 1-4 3-7 3 1-2 6-3 3-5-5 0-10-2-14-4-3-2-6-4-4-8 0-7 1-15-4-20l1-7zM428 36h10c2 2 5 4 3 8-2 3-6 4-10 4h-1v-4l-2-8zM63 106c-1-3-1-5 2-6 1 3 5 1 7 0 3 1 4 5 8 3 7 0 14 0 20 2l20 10c-7 0-14 0-21-2-4-1-8 5-12 2-4-2-11 0-14-5-2-2-4-4-7-4h-3z"/></g><g fill="#b7d0e9"><path d="M321 0h3c-2 4 2 7 3 11 4 6-4 12-1 18 2 6 10 5 15 5 8 2 17-6 25-1 6 2 6 9 11 11 4 3 10 6 10 12-2 3-6 2-9 4-3 1-7 0-10 2-4 5-7 11-9 17 1 2 5 5 1 6l-3-4c-2-2-1-5-4-7l-3 5c-4 1-7 0-10-1-2 2 0 5 0 8-5 1-9-2-14-2-2 0-6 3-8 0-2-2-1-6-1-9-4-6-10-10-13-16-3-4-2-10-1-15 0-5-6-8-10-5l-9 6c-2 3-6 2-8 5l-1 7 5 4 4-2c0 3-1 8-6 7-5 0-5 9-11 6-3 2-7-1-10 1l3 7-8 4c-5 3-11-2-15 1l-16 9c-3 0-1 4-3 4-6 1-11 3-17 1-5 0-9 2-13 5-8 0-14 7-22 6h-8v-7c4-2 9-1 12-5l13-1c4 0 3-6 6-7 4-2 6-5 10-5 5-3 8 6 12 3 9-2 18-3 26-8 5-3 1-9 3-13 4-3 9-5 14-6 0-2 0-4 2-4l12-9c1 0 5 1 4-2-6-2-14-6-20-1-3 3-8 3-12 4-3-1-6-4-10-3-2 4-3 7-8 5-1-3 2-3 4-4l3-6 12-1c3-2 6-4 9-4l5 4c5 1 10-2 15 0 4 0 7-3 10-2 3 0 6-3 5-6l-5-4 5 1c4 5 10 8 17 8 3 0 5 2 8 3 1 7-8 9-6 16 3 8 11 12 17 17 2 1 5 1 7 3 5 3 11-2 16-2 4 1 7-3 12-3 1 1 1 3 3 3 1-5 3-11 9-13l12-5c1-5-4-8-8-9-5-3-7-10-14-10-11 0-23 2-32-4-6-5-1-13-3-19-1-4-4-9-2-14zM541 0h2c1 2 0 5 2 7 5-1 9 3 14 3 2 1 5 2 5 5l-5 10-9-3-11 1c-2-2-3-5-7-3-4 0-8 1-11 3l2 3c-2 2-4 1-6 0l-1-1c-2-3-4-6-4-10-3-4-10-1-14-1-5 4-10 7-16 7h-6c3-2 6 0 9-2 4-2 8-3 11-6 6-1 12-3 18-2 1 1 3 3 2 5-4 3 2 8 5 5 4-2 9-1 13-3 3 0 5 3 7 4 4 0 8-2 12-1 3 0 8-3 8-7-6-3-13-2-18-6-3-1-2-5-2-8z"/></g><path fill="#bdd5ec" d="M324 0h2c0 7 6 12 7 19l-4 4c-2 5 2 10 7 8 7 1 13-1 19-5 12-2 20 7 29 13 2 2 4 0 6 0l6 8c-1 3-4 5-2 8 4 2 9-2 12 2 5 1 2 6 3 10 3 3 7 2 11 3 4-1 7-2 11-1l7-9c7-2 8 6 12 10v2c3 4 9 8 8 14 0 6 11 6 10 12-6-2-12-4-19-2-4-1-8 1-11-2 1-4 5-7 7-11-3-2-8-6-12-3-4 1-5 4-6 7l4 8c-4-2-9 4-13 1-3-2-5 1-8 2-3 0-5-2-7 0-4 2-8 0-12 0l-2 5-7-2c-3 1-6 4-10 4l-5-3c-1 4-4 4-5 0-4 0-8 1-11-1-3 0-4-3-6-5-5 0-12-1-12-7-5-5-12 2-17-1 4 1 8-1 12-2 5 1 10 3 13 7h11c1 3 3 6 6 3 2-2 0 3 2 2 3 1 2-2 1-3l11 1 1-4c-1-2-3 0-5 0-1-3-3-8 4-6l9-3c0-4-5-9 0-11 1-1 4-1 3-3-4-2-11-6-12 0-2 2 1 6-1 8-2-1-10 2-9-3l7-10c2-4 8 0 9-4 3-2 7-1 9-4 0-6-6-9-10-12-5-2-5-9-11-11-8-5-17 3-25 1-5 0-13 1-15-5-3-6 5-12 1-18-1-4-5-7-3-11m66 67l-1-6c-5 0-1 7-1 10-3 1-8 3-7 7 3 4 9 7 15 7v-9l4 7c3 0 8 1 8 5 1 3 5 2 6 0 2 0 3 3 5 2 1-3 5-4 8-6 0-3 0-5 2-7l10-1 11 5c2-2 0-6-2-8-1-3-6-2-6-5l-4 6c-2 0-4-3-6-1-4 2-8-2-11 0-2 0-4-3-6-1-4 0-9 0-10-4 1-2 4-5 3-8l-8-3c-5 0-11 4-10 10z"/><path fill="#c4d9ed" d="M326 0h2c1 6 4 10 6 16 4 5-4 7-3 12l9 1c4-1 7-7 12-5 6 0 11 0 16-3 3-1 3 3 6 4l7 8 8 3c2-1 4-4 7-4-2 5 0 8 4 11 3 2-3 8 2 9 2 2 3 0 5-1 3-3 7-6 12-5 3 1 8-1 7-5-2-1-5-2-3-6l-1-5c-1-4-1-7-3-10-3 0-6 3-9 2-3-2-3-8-1-11 3-4 10-3 14-5 5-2 7 6 12 4 3-2 1-7 2-10h2l7 1c0 4-5 3-7 1 1 4 0 8-4 9-3 3-5-1-8-2-2-2-4 2-7 1-3-2-5 4-9 2-3 1-2 6 0 7 3 3 6-4 9-1 3 4 2 10 5 14 2 5 5 13 0 17h-10c-2 1-5 2-6 4l4 8c3 0 4-2 6-3 3-1 4-6 6-8l5-2h1c4 0 10 1 14-3 1-5-3-10-1-14l5-3c-1-4 1-10-3-12-2-1 0-5 2-4 3 1 5-3 8-2 1 3 4 5 4 8l-5 8 6 2 4-7 5 2-5 4c-1 4-6 3-9 2-3-2-8 1-9 4 0 5 3 10 8 12-1 5-6 9-3 13 2 3 2 7 3 10 3 4 8 7 7 13 1 6 6 10 12 11 5 3 15 3 16 11 0 5-6 2-9 3l-14 8 1 3c-8-1-18-1-25 3-7 0-14-2-20 2-4-1-8-3-12 0-5-2-10 1-15 2l-3-4c-6 2-11-5-17-3l-4 7c-5 1-9 3-13 0-4 0-5-5-8-7-4-3-9-2-13-1-7 0-13-2-19-4-2-1-4 2-6 2-5-3-11 0-16-1-11 1-22 0-33-1-4 0-8-3-13-1-3-2-6-4-10-4-4 2-8 3-11 6-8 0-11 9-19 10-4 0-9-2-12 0-3 7-13 3-17-1v-6c6 6 15 4 23 3l2-6 10-1c10-2 20-10 30-8h17c2-2 3-6 7-4l7-2c1 4-4 4-7 6 0 2 2 3 3 5 4 1 5-4 8-4s4 4 7 4c3-1 5-4 9-3 2 2 4 6 8 4l29-1c7-2 15-2 21 4 7 6 17-2 26-1 4-3 8 1 12-2 7 0 15-2 22 1 8-4 16-4 25-3 5-2 11-2 17-1 2 1 3-2 4-3 3 0 5 2 7 3 2-2 5-2 8-1 1-2 5-4 3-6-3-8-15-6-18-13-1-7-4-15-12-17-4-4-5-12-12-10l-7 9c-4-1-7 0-11 1-4-1-8 0-11-3-1-4 2-9-3-10-3-4-8 0-12-2-2-3 1-5 2-8l-6-8c-2 0-4 2-6 0-9-6-17-15-29-13-6 4-12 6-19 5-5 2-9-3-7-8l4-4c-1-7-7-12-7-19m104 49c-3 2-6 5-6 9-4 5 1 6 3 4 3-2 8-4 9-8 3-3-2-8-6-5z"/><path fill="#ccdcef" d="M328 0h7c-4 6 0 15 5 20 7 0 12-4 19-3 2 2 5 4 7 2l12-4c4-1 3 8 9 4 3 0 6-2 8 0l5 5c3-2 6-6 7-9 0-6 4-10 6-15h24c-1 3 1 8-2 10-5 2-7-6-12-4-4 2-11 1-14 5-2 3-2 9 1 11 3 1 6-2 9-2 2 3 2 6 3 10l1 5c-2 4 1 5 3 6 1 4-4 6-7 5-5-1-9 2-12 5-2 1-3 3-5 1-5-1 1-7-2-9-4-3-6-6-4-11-3 0-5 3-7 4l-8-3-7-8c-3-1-3-5-6-4-5 3-10 3-16 3-5-2-8 4-12 5l-9-1c-1-5 7-7 3-12-2-6-5-10-6-16z"/><path fill="#d7e3f2" d="M335 0h4c-2 4-2 9 1 13 9-1 19 1 28 2 5-1 9-5 14-4l7 2c4-2 9-2 11-5 4-2 8-4 9-8h4c-2 5-6 9-6 15-1 3-4 7-7 9l-5-5c-2-2-5 0-8 0-6 4-5-5-9-4l-12 4c-2 2-5 0-7-2-7-1-12 3-19 3-5-5-9-14-5-20z"/><path fill="#e0e9f5" d="M339 0h70c-1 4-5 6-9 8-2 3-7 3-11 5l-7-2c-5-1-9 3-14 4-9-1-19-3-28-2-3-4-3-9-1-13z"/><g fill="#bbd1ea"><path d="M439 0h10c4 3 8 6 10 11l3 10 5-2 5 3v1h-2l-5-2-4 7-6-2 5-8c0-3-3-5-4-8-3-1-5 3-8 2-2-1-4 3-2 4 4 2 2 8 3 12l-5 3c-2 4 2 9 1 14-4 4-10 3-14 3 4 0 8-1 10-4 2-4-1-6-3-8h-10l2 8v4l-5 2c-2 2-3 7-6 8-2 1-3 3-6 3l-4-8c1-2 4-3 6-4h10c5-4 2-12 0-17-3-4-2-10-5-14-3-3-6 4-9 1-2-1-3-6 0-7 4 2 6-4 9-2 3 1 5-3 7-1 3 1 5 5 8 2 4-1 5-5 4-9 2 2 7 3 7-1l-7-1m0 10l-4 4c-3 1-5-1-7-1 0 2 0 5 3 4 6-3 6 3 9 5 4 3 5-1 6-3l-5-9h-2m-14 14c-3 6 4 7 8 8 5 0 2-5 2-8h-10zM903 0h19v19c-4 0-4-3-5-6-4 0-7 0-10 2-5 3-14 1-12-7 3-2 6-4 8-8z"/></g><path fill="#a3c3e2" d="M449 0h47c-3 5-9 4-14 3-3 1-3 3-2 6-3 2-6 2-9 2l-6 3c-3 1-4-2-6-3-2-5-6-8-10-11z"/><path fill="#a7c6e5" d="M496 0h42l-1 5c-6 3-12 7-19 9 1-4-3-6-6-7-3-2-4 1-6 3-3 1-7 1-10 3-3 3-7 4-11 6-3 2-6 0-9 2l-2 1h-2l-5-3-5 2-3-10c2 1 3 4 6 3l6-3c3 0 6 0 9-2-1-3-1-5 2-6 5 1 11 2 14-3z"/><g fill="#aecae7"><path d="M538 0h3c0 3-1 7 2 8 5 4 12 3 18 6 0 4-5 7-8 7-4-1-8 1-12 1-2-1-4-4-7-4-4 2-9 1-13 3-3 3-9-2-5-5 1-2-1-4-2-5-6-1-12 1-18 2 3-2 7-2 10-3 2-2 3-5 6-3 3 1 7 3 6 7 7-2 13-6 19-9l1-5zM318 7c5 5 4 13 4 20-2 4 1 6 4 8 4 2 9 4 14 4 3 2-2 3-3 5 3 0 5-2 7-3 6-2 12-1 17 3 5 2 12 5 13 11-5 2-11 0-15 3-5 1-9-5-14-3-1 1-4 2-4 4 0 4-6 3-9 1-2 1-3 3-5 3-4-1-8 0-12-2-3 1-8-1-8-5-2-9 9-13 16-13v-3c-5-3-11-2-16-4-7-3-15-3-22-7v-1c12 3 23 8 35 7 1-9-1-19-2-28z"/></g><g fill="#c1d6ec"><path d="M543 0h16c-1 2-5 3-4 6h5c8-2 16-1 23-1l-3 9c-6 3-16 0-19 8 1 4 1 9-5 6l-5-4-13 1-3-4-6 1c1 4-1 6-3 8-3-2-6-2-9-2v-2c2 1 4 2 6 0l-2-3c3-2 7-3 11-3 4-2 5 1 7 3l11-1 9 3 5-10c0-3-3-4-5-5-5 0-9-4-14-3-2-2-1-5-2-7zM498 14c4 0 11-3 14 1 0 4 2 7 4 10l-11-5c-4 1-5 0-5-3l-4 4-11 1-3-1c6 0 11-3 16-7zM19 115h1l4 1c1 4 5 3 8 4l2 8v2c-5 0-8-6-13-5-2 0-3-4-4-2-5 4-10 5-16 3v-1c8 1 13-6 18-10z"/></g><g fill="#cbddf0"><path d="M559 0h44c-3 2-7 5-12 4-4 6-9 10-12 16-4 1-9 2-10 7 2 2 5 4 5 7 11-1 21 2 32 1 8 1 15-4 24-5 3-2 1-7 4-10 2-3 7 0 10 1l2-10c3-3 7-2 10-1 4 0 6 4 9 4 7 0 11 6 16 8 3 1 7 2 8 5s4 6 4 9c-5 2-11 4-13 9-2 2-6 4-2 6 4-1 8-1 11 1 10 0 20-4 30-3l11 3h-7c-13-6-27 3-41 0-3 0-11 1-8-6 2-4 4-8 7-10 2-1 2-4 0-6l-14-5c-4-3-9-1-14-1-8 0-14 8-21 9-10 1-19 4-28 3-10 1-19-1-29 1-4 0-8-4-11 0-2 2-6 2-9 4 0 7 6 15 13 15 4 0 7-3 10-2 4 0 7-2 10 0 6 3 11 8 14 13 7-2 13 10 19 5 5-3 11-1 16-3 3 0 6-3 8 0 1 3-2 11 3 11 3-2 7 0 10 1l6-2 5 3c5-2 10-4 15-3 5 2 13 3 15 10 1 3 4-2 6-3 6-3 10-7 14-12 4-3 8 0 12 1 7-2 14-3 21-1 13 5 27 5 40 6 6 1 11-5 17-5 6 1 12 4 18 3l2-4c2 2 1 5 0 7l-1 2c-6 2-13 0-19 0-3 0-5 2-8 3-9-1-18 0-26-3-13-2-25-9-38-9-5 2-10 2-15 1-3 0-4 2-5 4 0 2-4 3-4 5-1 4-5 4-8 5-2 1-4 6-6 2-3-5-9-6-15-6l-5 2-1-6-10 2c-2-1-4-3-6-1-3 1-3 4-3 6-4 0-5-4-6-7-4-2-9 1-13 1l-6-9-10 1-14 2c-2-3-3-7-8-5-3-7-9-11-14-16-5 0-9 0-13 2l2 4c-3 1-9 4-10 0s-6-3-7-6c-4-4-8-7-13-9-4-1-2-5-1-8 4-1 10 3 13-1-1-4-6-3-8-6 0-3 0-7-5-4l-15 1c0 3 4 5 2 7-1 2-3 3-5 3-5-1-6-8-11-10 3 0 6 0 9 2 2-2 4-4 3-8l6-1 3 4 13-1 5 4c6 3 6-2 5-6 3-8 13-5 19-8l3-9c-7 0-15-1-23 1h-5c-1-3 3-4 4-6zM463 75c2 3 1 7 5 8 9 4 18 10 29 9 2 2 7 2 3 7-3 4-3 11-8 15-2 2-5 0-7 0-3 2 2 5 3 7 4 2 2 6 3 10-3 3-7 5-11 3-5-4-10 6-17 2-5-1-10 2-15 2-12 0-24-1-35 2-4 0-9-2-13 0-3 2-6 1-9 0-4-1-8 3-12 1-6-2-12 0-18 0-6-1-7-7-11-10-3-7-10-9-17-9-1 2-2 5-5 4 0-7-8-3-13-4l-5-6-10-1-7 6-10-2-1-2c-6-1-11 1-16 2-10 0-17 6-26 8-5 3-9-4-14-1-5 1-10 3-16 3-7 3-13 6-21 5-4-2-6 1-8 3l4 5c-2 3 3 2 5 3 4-2 6-7 11-7 4-1 7 1 9 5l11 2c4 0 7-2 10 1 5 1 3 5 0 5-3-1-7-1-10 1 5 5-4 9-8 9-10 3-19-3-28-1-4 0-8-1-8-5-6-1-12 5-18 2l-10-1c-7-3-15 0-23-2l-6 7c3 0 4 3 4 5l-16-10c2-2 7-2 4-7l-1-4c1-2 3-3 5-3 2 1 6 0 6 3 0 2 2 4 4 4 7 5 16 3 23 1h21c3-2 1-6 1-9l-14-10c-1-3 1-4 3-4l7 6 4 4c0-2-2-4-3-5-3-5-8-8-12-12 1-2 4-3 7-4 3 1 5 4 9 3 1-2 3-5 7-3 2 1 0 4-1 5l5 4c1 3-6 3-4 7h18l2-7c5-1 10 2 15 2l7-6c4 3 10 5 15 4 4-3 8-5 13-6 5 2 8-3 13-3l26-1c2 1 5 5 8 2 3-4 8-2 12-3 6-1 6 9 13 5l19-1c6-1 10 4 13 8-1 6 5 7 8 10l21-1c3 0 6 0 9-2l56-3 2-4 28 1 6-3c2-8-10-6-11-11l11-5c3 1 5 4 8 2 3 0 2-5 4-7l2-5c-4-4-11-4-17-7-7-2-19-6-17-16z"/></g><g fill="#d3e2f2"><path d="M603 0h14c-5 5-14 3-20 7-5 0-6 5-7 9-6 0-11 6-10 12 10 7 23 3 34 4l15-6c-3-8 7-14 14-12l4-7c12-2 25 2 37 1 7 0 15 0 20-5 4 1 10 2 13 6l-4 5c-5 1-2 3-1 5-1 2-4 2-4 5 1 2-1 3-1 5 9 0 20 1 28-5 4-1 10-1 14-4 1-6-9-3-11-6-4-2 0-4 1-6V0h4c1 4-2 10 2 13 3 2 6 1 8 4 2 1 0 4-1 5-7 3-15 3-22 7-3 1-3 4-3 6l-13 3-2 5 6 2c5-3 11-5 17-5 3 1 7 4 5 8-3 4-10 3-13-1-15-3-30 5-45 2-2 0-2-3-2-4 2-5 8-7 13-9 0-3-3-6-4-9s-5-4-8-5c-5-2-9-8-16-8-3 0-5-4-9-4-3-1-7-2-10 1l-2 10c-3-1-8-4-10-1-3 3-1 8-4 10-9 1-16 6-24 5-11 1-21-2-32-1 0-3-3-5-5-7 1-5 6-6 10-7 3-6 8-10 12-16 5 1 9-2 12-4zM472 22h2c-2 5 0 10 1 15 4-2 8-6 13-6-1 4 3 6 5 8l13-4c3 4-2 7-3 10 5 2 4 9 0 11h-15c-1 1-4 4-1 4s8 2 7 5c0 3-3 4-4 6 1 4 6 3 9 5l2 7c5 2 10 5 13 9 2 8-7 10-11 14l-3 13c7 3 16 2 23 0 4 1 6-1 8-4 4 0 8-1 10-4l-1-13c4-2 9-2 13 0 1-3 4-6 8-6 4 5 11 6 15 11 6-4 14 1 20-3 3-4 10-5 8-12 3-2 6-5 8-9-2-3-7-5-10-7l-15-15c-6-2-8 7-8 12 3 3 7 5 9 9 4 2-1 5 0 8 2 4-3 7-7 5-2 0-3 2-5 3-4-3-6-7-6-12l6-3c0-3-3-5-3-8 0-4-5-4-7-7-3-4-9-3-13-6-5 0-8 5-12 5-1-3 0-5 3-5-4-3-9-4-14-3-6-2-8-9-15-9 2-3 6-5 5-9-3-3-8 1-10-3 2-2 8-3 5-7l2 1c5 2 6 9 11 10 2 0 4-1 5-3 2-2-2-4-2-7l15-1c5-3 5 1 5 4 2 3 7 2 8 6-3 4-9 0-13 1-1 3-3 7 1 8 5 2 9 5 13 9 1 3 6 2 7 6s7 1 10 0l-2-4c4-2 8-2 13-2 5 5 11 9 14 16 5-2 6 2 8 5l14-2 10-1 6 9h-2c-2-2-3-8-7-5-5 2-13-3-16 2l5 4c1 4 6 6 8 9-4 4-9 6-14 8-3 0-2 4-1 5 3 3 6-2 9 0 5 2 11-1 14-5 3-3 9 3 10-2 1-3 4-4 7-5l-2-11c-4-1-8 2-11 0 4 0 9-3 13-1 1 3 2 7 6 7 0-2 0-5 3-6 4 3 9 1 14 2l5 10c5 0 1-5 3-7l10 2c5 5 5 13 2 19l-6 6c-5 1-9-2-14-2 0 3-2 7 0 10 2 2 5 7 2 9-5 1-10-1-13-4 2-5-1-6-4-7 0-2 2-5-1-5-4-1-5 5-9 4-3 0-4-7 0-7 4-2 8-6 11-10 3-2-1-6-4-5-3 2-6 2-9 1l-7 7-5-4-4 8c-3-1-6-3-8 1-4-2-7 0-10 2-4-1-11 1-9-5 4-1 5-4 5-8 4-3 14-2 13-9-4-2-5-7-10-8l-5 7c3 0 5 4 2 5-5 0-9 4-11 8l-6 1h-11c-4 2-7 4-12 3-1-2-2-5-5-6-3-3-9-1-12 1-3 1-5-1-7-3-3-1-6 1-6 4l5 9c1 3-2 5-3 7l5 2c0 3-1 9-6 6-8 0-17-4-25-2-6 0-14 1-19-3 0-7 2-13 4-19 3-2 7-3 5-8-1-4-6-7-10-8-1-3-4-5-7-5l-2 5-9-2c0-2 1-5 3-4 7 3 7-12 0-11-6 0-10 4-16 5-2-3 1-8-1-11-1-3 1-6 2-8-2-3-3-7-1-10 1-2 4-3 6-4 0-6 2-11 0-16v-3m197 64c-5 1 1 9-1 13-3 2-6 5-7 8 2 5 10 6 13 2l4-2c2 6 13 6 15-1-3-4-12-1-14-6 3-7-2-16-10-14z"/><path d="M868 82l3-3 2 3c6-1 12-4 18-2-2 3 1 5 3 6-7 12-11 25-20 36 1-3-4-2-5 0l-7 7c-3 1-9-2-11 2v6c-4 0-7 2-10 3-7 0-12 6-19 5-9-1-18 4-27 6-10 5-20 4-31 6l-13 2c-5 0-11 2-16 5-12 3-24 0-36 4-4-2-7 3-12 2-7 4-15 0-22-3-3-5-4-11-9-14s-12 1-17-3c-7-3-15-3-20-8-2-4-7-6-11-7l-14 3-8-1c-2 2-3 4-6 3 1-2 3-5 0-7-8 1-15-1-22 2l-11 2c-4 6-11 8-17 9-7-2-15-5-20 1-4 2-10 2-14 0-4 4-10 3-15 5-3-2-5-5-8-3-10-3-21-4-32-2-4 0-4 7-9 4-3 0-4 2-5 5l-10 1c-4-1-5-5-8-7l-29 1c-8-2-17 1-24-3-8 1-16-4-24-3-10 2-19 1-28 2-4 0-8-3-12-2l-11 5c-8 1-15-2-23 0-2 1-1 3-1 5l12 2c-2 3-6 6-10 5l-16 5c-6 3-13-1-19 2-14 1-27 3-39 9-8 3-17-2-25 1-4 1-8 0-12 2-2 2-6 1-8 4 10 2 21 1 31 1-2 2-6 4-9 3-5-2-9 3-15 2h-6c1 5-4 7-7 9-3 0-3-4-6-4-7-2-14 3-21 3l-4 3c-2 0-5-5-6-2 3 7-2 4-5 4-4 0-8 3-13 3-4-1-7 3-11 1-2-1-4 1-5 3-6-2-12-1-17 2-16 1-31 4-45 11v-6c5 0 10-4 15-3 7-1 14-6 22-6 11-2 23-5 34-10 6-1 12 0 16-4 6 2 11-1 17 0l14-5c4-2 10 1 13-4l-7-4c1-7 10-3 14-6 5-3 10-3 15-4 2-1 6-2 7 1 4 3 8-1 10-4 3-3 7 2 10 3 4 1 7-2 11-2 4 2 8-5 12-3 3 1 4-1 6-2 7 2 14-4 21-2l9-5c0-2 0-5 2-7 5-1 10 0 13-4 9-2 18 3 27 0 6-2 12-5 18-3 4 2 9 0 13 0 7 2 15-1 22-1l18 2c5-3 7 6 12 3 7 0 14 1 20-1 4-1 8 1 11-1 8-4 18 1 27-2 11-2 22 1 33-1 7 0 15 4 21-1 8 2 16-1 24 0 10-6 22-5 33-7l2-3c3 0 7 2 6-2 7-3 14-1 21-2h24c1 3 1 7 5 8 7-1 14-2 20-6 3 0 8-1 10 2v9c10 8 24 6 35 11 5 2 7 7 10 11 3 3 8 4 12 1 5 2 9-2 14 0 4 0 9 0 14-3 5-2 12 1 17-1l21-4c3 1 5-1 7-3 6 1 11 1 16-2-1-3-7-4-7-8 3 2 8 7 11 4l6-3c0 3 3 4 6 4 9-1 19-2 28-5 3-1 2-5 5-7 2-2 4-5 7-6 3 0 5 4 9 2 5-1 9-3 14-3 4 1 7-3 11-2l5-9 6-7c-1-3-5-2-6 0-5 1-2 7-5 10-4 1-6-3-6-6 6-6 14-10 19-18 2-1-1-3-2-4-2 1-3 3-5 3l2-3c3-2 4-7 2-10v-1z"/></g><path fill="#d8e5f3" d="M617 0h20c0 2-1 4-3 4-4 0-7 3-10 5-4-2-6-7-11-5-6 2-14 1-19 6-1 3 2 4 2 7-4 1-9 0-12 3 1 3-1 8 3 9 5 4 11 0 16 2 9 0 17-1 25-6-4-9 8-14 15-13 2-4 3-10 9-8 5-1 13 1 16-4h71v8c-1 2-5 4-1 6 2 3 12 0 11 6-4 3-10 3-14 4-8 6-19 5-28 5 0-2 2-3 1-5 0-3 3-3 4-5-1-2-4-4 1-5l4-5c-3-4-9-5-13-6-5 5-13 5-20 5-12 1-25-3-37-1l-4 7c-7-2-17 4-14 12l-15 6c-11-1-24 3-34-4-1-6 4-12 10-12 1-4 2-9 7-9 6-4 15-2 20-7z"/><path fill="#dbe7f4" d="M637 0h31c-3 5-11 3-16 4-6-2-7 4-9 8-7-1-19 4-15 13-8 5-16 6-25 6-5-2-11 2-16-2-4-1-2-6-3-9 3-3 8-2 12-3 0-3-3-4-2-7 5-5 13-4 19-6 5-2 7 3 11 5 3-2 6-5 10-5 2 0 3-2 3-4m-33 8l-5 1c0 3 3 7 0 9-4 1-9 1-12 3-2 5 3 9 7 9 7-5 15 1 22-2 3-1 9-1 10-5-1-7-10-3-15-4-2 1-5 4-7 2-1-5 3-9 5-13h-5z"/><g fill="#cfdff0"><path d="M743 0h89c2 3-2 4-4 6-3 5-9 6-12 11-5 9-17 9-26 8-3-2 3-5 2-8-2-2 1-6 4-5s7 0 10-1V9l-12-1-5 2c-3-1-7-4-11-3-3 3-8 4-12 5 0 3 4 3 4 6 0 5-6 2-9 3l-12 6v2h6c0 4-5 6-8 7-2 0-5 0-4 3l8 2v3c-7 2-12 10-21 8l-11-3c-10-1-20 3-30 3-3-2-7-2-11-1-4-2 0-4 2-6 0 1 0 4 2 4 15 3 30-5 45-2 3 4 10 5 13 1 2-4-2-7-5-8-6 0-12 2-17 5l-6-2 2-5 13-3c0-2 0-5 3-6 7-4 15-4 22-7 1-1 3-4 1-5-2-3-5-2-8-4-4-3-1-9-2-13zM830 103c0-5 3-9 6-12 2 4 6 7 11 8 2 2 4-1 6-3l2-2c3 2 6 3 9 2 2 0 3-2 5-3 1 1 4 3 2 4-5 8-13 12-19 18 0 3 2 7 6 6 3-3 0-9 5-10 1-2 5-3 6 0l-6 7-5 9c-4-1-7 3-11 2-5 0-9 2-14 3-4 2-6-2-9-2-3 1-5 4-7 6-3 2-2 6-5 7-9 3-19 4-28 5-3 0-6-1-6-4l2-4 1-2v-2c4-1 8-2 9-6l-1 6c4 1 6-3 9-3l12-3c4-3 10-5 15-7 3 0 5-3 7-4l2 4c3-2 2-5 3-7l4-2c3-1 7 1 9-1s1-6 1-9l-7 1c-4-3-9-2-14-2z"/></g><path fill="#c9dbee" d="M832 0h10l-7 6c-10 10-22 21-37 21l-25 1c-7 2-15 4-20 10 5 1 11 0 16 2-2 6-10 6-15 7-6-1-10 4-16 5h-15 7c9 2 14-6 21-8v-3l-8-2c-1-3 2-3 4-3 3-1 8-3 8-7h-6v-2l12-6c3-1 9 2 9-3 0-3-4-3-4-6 4-1 9-2 12-5 4-1 8 2 11 3l5-2 12 1v2c-3 1-7 2-10 1s-6 3-4 5c1 3-5 6-2 8 9 1 21 1 26-8 3-5 9-6 12-11 2-2 6-3 4-6z"/><path fill="#c3d8ed" d="M842 0h5c-2 3-5 6-9 7-3 2-3 6-6 8-14 13-34 14-51 17-3 1-4 4-3 7l-7 5c-7 2-14 6-22 6-6 3-13 5-20 6-7-2-14-5-22-4-8 0-15 4-23 2h-8c-8 4-3-4-7-5s-12 0-11-6c4-2 8-5 12-5l-4-3c0-3-1-7-6-5-5-3-11-2-17 0-3 3-7 6-11 7l-20 1c-11 1-23-2-33 1-4 1-7-1-11-1l-11 4c2 5 5 10 10 11 4 1 7-1 10-2 6 1 12-1 18 1-2 4 1 5 3 7 3 3 5 7 9 7 5 2 10 4 15 2 8 0 15-3 22-4 4 4 9 3 14 4 3-1 4-4 8-3l9-3c2 1 4 3 3 6-2 3-6 6-7 10 2 0 5-2 7-1 9 2 18 1 26-3 4-5 10-7 16-9l3-6c4 0 5 6 6 9 6 1 11 4 17 2 17 5 36 7 53 1h22c6 1 11-3 17-3v1h-2c-3 1-6 3-7 5l-2 4c-6 1-12-2-18-3-6 0-11 6-17 5-13-1-27-1-40-6-7-2-14-1-21 1-4-1-8-4-12-1-4 5-8 9-14 12-2 1-5 6-6 3-2-7-10-8-15-10-5-1-10 1-15 3l-5-3-6 2c-3-1-7-3-10-1-5 0-2-8-3-11-2-3-5 0-8 0-5 2-11 0-16 3-6 5-12-7-19-5-3-5-8-10-14-13-3-2-6 0-10 0-3-1-6 2-10 2-7 0-13-8-13-15 3-2 7-2 9-4 3-4 7 0 11 0 10-2 19 0 29-1 9 1 18-2 28-3 7-1 13-9 21-9 5 0 10-2 14 1l14 5c2 2 2 5 0 6-3 2-5 6-7 10-3 7 5 6 8 6 14 3 28-6 41 0h15c6-1 10-6 16-5 5-1 13-1 15-7-5-2-11-1-16-2 5-6 13-8 20-10l25-1c15 0 27-11 37-21l7-6z"/><path fill="#bad2ea" d="M847 0h11v6c0 2 3 3 3 5-3-1-7-1-10-3-4-5-9 1-13 2 0 6 6 11 6 18-7 1-14 5-22 4-2-2-3-7-7-4-11 1-21 5-32 6-3 1-3 4-3 6-1 2-3 2-5 3-4 4-10 4-14 9 3 0 11-1 9 5-6 2-11 3-17 3l1 4c17 2 33 0 50-2 11 0 22-4 34-3 5-1 12-1 15-6h1v2l-1 3-2 2c-3 0-6-1-7 2-6 1-13 3-19 0-12 4-24 5-37 5-6 2-13 2-19 3-7-1-16 1-22-4-5-1-7-6-7-10 5-4 11-5 17-5 4-3 10-3 14-7l7-5c-1-3 0-6 3-7 17-3 37-4 51-17 3-2 3-6 6-8 4-1 7-4 9-7z"/><path fill="#b4cde8" d="M858 0h20c-1 4-4 7-8 9-2 0-5 0-7 2-3 4-9 2-13 3-2 0-4 0-5 2-1 4 5 5 6 9-4 2-7 6-12 5l-21 6c-3-2 0-5-3-7l-22 4-7 4c-4-2-5 1-6 3 0-2 0-5 3-6 11-1 21-5 32-6 4-3 5 2 7 4 8 1 15-3 22-4 0-7-6-12-6-18 4-1 9-7 13-2 3 2 7 2 10 3 0-2-3-3-3-5V0z"/><path fill="#a9c7e5" d="M878 0h2c-3 3 1 12-7 9-2 2-7 4-7 8 7-1 15 2 20-3 4-1 3-6 3-9l10-3c-3 3-8 4-8 9l6 8c3 1 7-1 10 2l-1 4c-3 1-5-3-7-3-6 2-10-2-15-3-2 2 1 5-2 6l-5 7c-8-1-15 5-23 3-1-2-4-3-4-6 2-3 9-5 7-11 5-2 9-6 13-9 4-2 7-5 8-9z"/><path fill="#a2c2e2" d="M880 0h20l-1 2-10 3c0 3 1 8-3 9-5 5-13 2-20 3 0-4 5-6 7-8 8 3 4-6 7-9z"/><path fill="#afcbe7" d="M900 0h3c-2 4-5 6-8 8-2 8 7 10 12 7 3-2 6-2 10-2 1 3 1 6 5 6v3c-3 4-6 8-11 10-4 3-5 9-10 10-6-1-10 4-15 1-3 0-2-4-4-4-2-1-6 0-6-4-4-1-6 0-7 3l-2 3c-2-1-4-3-7-2l-8 6c-4 1 0 9-7 5-6 1-12 2-18 0l-16 2c-6 2-15 0-19 6h-12l1-2-11-6c2-2 5-4 5-7 2-1 4-1 5-3s2-5 6-3l7-4 22-4c3 2 0 5 3 7l21-6c5 1 8-3 12-5-1-4-7-5-6-9 1-2 3-2 5-2 4-1 10 1 13-3 2-2 5-2 7-2-4 3-8 7-13 9 2 6-5 8-7 11 0 3 3 4 4 6 8 2 15-4 23-3l5-7c3-1 0-4 2-6 5 1 9 5 15 3 2 0 4 4 7 3l1-4c-3-3-7-1-10-2l-6-8c0-5 5-6 8-9l1-2z"/><path fill="#f4e5e9" d="M59 10c2-5 11-1 9 4h-2a278 278 0 01-7-4z"/><path fill="#e6c5ca" d="M111 15c1-4 5-8 10-7l4 4-2 3-2-4-3 2h-1c-2-2-3 0-4 2h-2z"/><path fill="#b3cce7" d="M157 12c4-2 10-5 15-2 14 3 28 7 42 4 7-1 14-6 21-3 6 3 12 1 19 1 6 3 11 9 18 8l13 8v1l-5-1c-4-3-8-7-13-6-9-1-18-4-28-4-3-3-7-4-11-2-6 3-12 5-19 4-10-2-20-3-29-7-7-2-14-2-21-1h-2z"/><path fill="#e0eaf6" d="M604 8h5c-2 4-6 8-5 13 2 2 5-1 7-2 5 1 14-3 15 4-1 4-7 4-10 5-7 3-15-3-22 2-4 0-9-4-7-9 3-2 8-2 12-3 3-2 0-6 0-9l5-1z"/><g fill="#f5e3e7"><path d="M50 12c2 0 3-2 5-3l4 1c-1 4-4 7-8 7l-1-5zM47 97c1-3 3-6 6-7 0 2-2 5 1 3 5 2 10-2 15-1l-4 8c-3 1-3 3-2 6h-3c-3-3-7-4-11-5l1 4v1l-1 5-4 2h-1c-5 1-3-5-1-8l-1-6c2 0 4 0 5-2zM14 108c0-3 0-6 3-7 3 0 4 1 4 5 1 3-1 6-1 9h-1l-3-2-2-5z"/></g><path fill="#efcad0" d="M59 10l5 3c-2 0-4-1-5 1l-5 5h-2l-1-2c4 0 7-3 8-7z"/><path fill="#b1cbe7" d="M439 10h2l5 9c-1 2-2 6-6 3-3-2-3-8-9-5-3 1-3-2-3-4 2 0 4 2 7 1l4-4z"/><path fill="#d7968e" d="M118 13l3-2 2 4-2 3 3 1-1 2h-3c2-3-2-5-2-8z"/><path fill="#b7cee8" d="M139 17c2-3 6-5 9-6 3 0 6 2 9 1h2v1h-9c-3-1-5 2-7 3-3 3-1 8-3 11 2 6 8 8 13 10 6 1 10 7 16 7 8-1 17 1 25 1l15 6v7l-5 3h-1c-3-4-4-12-11-8h-1c0-2-2-4-5-5l-5 2 1-3-17-1-15-8c-5-2-7 4-9 8l2 2-4 1c0-3-2-4-4-6h-5c0-2-1-1-2-1-6-1-3-8-7-11-6-4-12 7-18 3 0-5-2-8-4-12H87v-1c1-4 4-2 6-1l6-3 4 1c4 2-2 5 0 8s4-1 6-2l5 1h4l6 1-2 2 4-1c4-4 10-5 13-10z"/><path fill="#bcd1ea" d="M159 12c7-1 14-1 21 1 9 4 19 5 29 7 7 1 13-1 19-4 4-2 8-1 11 2 10 0 19 3 28 4 5-1 9 3 13 6l5 4c1 3-2 6-5 6-3-1-6 2-10 2-5-2-10 1-15 0l-5-4c-3 0-6 2-9 4l-12 1-3 6c-2 1-5 1-4 4l-1-1v-1c0-2-1-2-2-3l-3-4c3-3 7-5 11-4l12-3c3-1 1-5 1-8l-6-3c-11 0-21 3-31-1-6-4-14-3-21-6-7-4-15-4-23-4v-1m94 11c-2 1-3 2-2 4 4 2 7 6 10 9l14 1c1-3 2-6 1-9-7-4-15-6-23-5z"/><path fill="#d89bac" d="M113 15c1-2 2-4 4-2-1 2-2 2-4 2z"/><path fill="#f5d4d8" d="M125 12c3 2 2 5 0 7h-1l-3-1 2-3 2-3z"/><path fill="#e2aeb1" d="M59 14c1-2 3-1 5-1l2 1-2 1-5-1z"/><path fill="#7b8088" d="M79 14l11-1-11 1z"/><path fill="#504546" d="M90 13l20 4 2 3-9-2-4-1c-8-1-17-3-25 0l-1-1c1-2 4-2 6-2l11-1z"/><path fill="#c7677a" d="M117 13h1c0 3 4 5 2 8-4 2-6-2-7-6 2 0 3 0 4-2z"/><path fill="#c0d4eb" d="M143 16c2-1 4-4 7-3h9c8 0 16 0 23 4 7 3 15 2 21 6 10 4 20 1 31 1l6 3c0 3 2 7-1 8l-12 3c-4-1-8 1-11 4l3 4-5 1c3-8-1-5-3-3l-2 4v3l-15-6c-8 0-17-2-25-1-6 0-10-6-16-7-5-2-11-4-13-10 2-3 0-8 3-11m16-2l-6 2c-7-3-12 8-6 12 3 1 5-3 8-3 1 3-2 4-4 5 0 2 0 4 2 4 6-1 10 4 15 7l20-1c5-2 12-3 17 0 5-1 4-8 1-11-8-6-19-8-28-12-6-2-13-3-19-3z"/><path fill="#e098aa" d="M54 19l5-5-1 4-1 2h-2l-1-1z"/><path fill="#d37a8c" d="M59 14l5 1v1c-3-1-5 0-6 2l1-4z"/><path fill="#d39c8c" d="M66 14h4c1 2 0 4-1 6l-2 1c0-1-1-3 1-3-1-2-2-2-4-2v-1l2-1z"/><path fill="#e4c6cb" d="M70 14l3 2 1 1-1 6v2h-4l-1-1 1-4c1-2 2-4 1-6z"/><path fill="#c7d9ed" d="M159 14c6 0 13 1 19 3 9 4 20 6 28 12 3 3 4 10-1 11-5-3-12-2-17 0l-20 1c-5-3-9-8-15-7-2 0-2-2-2-4 2-1 5-2 4-5-3 0-5 4-8 3-6-4-1-15 6-12l6-2m6 4c-5 0-4 7-5 11 6 4 10 10 18 9 4 3 7-2 7-5-2-6-7-10-12-13-3-1-4-4-8-2z"/><path fill="#c7656f" d="M58 18c1-2 3-3 6-2 2 0 3 0 4 2-2 0-1 2-1 3-2 2-5 2-7 1l4-1-2-3-3 3-2-1 1-2z"/><path fill="#d797a9" d="M111 15h2c1 4 3 8 7 6h3v1c-2 0-4 1-5 3h-4l-2-5-2-3 1-2z"/><path fill="#a8bfdc" d="M74 17c8-3 17-1 25 0l-6 3c-2-1-5-3-6 1-2 0-5-2-6 0l-1 2h-7l1-6z"/><path fill="#cbdcef" d="M496 21l4-4c0 3 1 4 5 3l11 5 1 1v2l-2-1c-5-2-9-4-14-4-5-1-11 2-16-1l11-1z"/><path fill="#af4054" d="M59 21l3-3 2 3-4 1h-1v-1z"/><path fill="#adc6e3" d="M103 18l9 2 2 5-5-1c-2 1-4 5-6 2s4-6 0-8z"/><path fill="#cfdef0" d="M165 18c4-2 5 1 8 2 5 3 10 7 12 13 0 3-3 8-7 5-8 1-12-5-18-9 1-4 0-11 5-11z"/><path fill="#f4dfe5" d="M50 22l2-3h2l1 1 3 8h-6l-2-6z"/><path fill="#6d6e78" d="M124 19h1l5 1 1 1h-8l1-2z"/><path fill="#f3d7de" d="M31 20c2 1 4 1 5 4h-1c-4-1 0 7-7 3l-1-2 4-5z"/><path fill="#f2d1d8" d="M43 20l5 3 1 7-2 4h-1l-3-4-1-1v-3c1-1 1-4-1-3-2 0-1 2 0 3-1 0-4 1-4-2l6-4z"/><path fill="#e7c0c9" d="M55 20h2l2 1v5c3 1 5-3 8-2-1 4-6 3-8 6l-1-2-3-8z"/><path fill="#db96a5" d="M67 21l2-1-1 4h-1c-3-1-5 3-8 2v-4h1c2 1 5 1 7-1z"/><path fill="#b65e6b" d="M81 21c1-2 4 0 6 0-1 1 0 3-2 5l3 3v1h-6c-1-1-2-1-2-3s4-1 4-3-2-2-3-3z"/><path fill="#85253f" d="M81 21c1 1 3 1 3 3s-4 1-4 3 1 2 2 3v3l-3-2v-1c0-2-2-5 1-7l1-2z"/><path fill="#c5a7a6" d="M85 26c2-2 1-4 2-5v1c0 2 3 1 4 2-1 2-1 4-3 5l-3-3z"/><path fill="#d9e6f4" d="M474 22l2-1h6l3 1c5 3 11 0 16 1 5 0 9 2 14 4 3 4-3 5-5 7 2 4 7 0 10 3 1 4-3 6-5 9 7 0 9 7 15 9 5-1 10 0 14 3-3 0-4 2-3 5 4 0 7-5 12-5 4 3 10 2 13 6 2 3 7 3 7 7 0 3 3 5 3 8l-6 3c0 5 2 9 6 12 2-1 3-3 5-3 4 2 9-1 7-5-1-3 4-6 0-8-2-4-6-6-9-9 0-5 2-14 8-12l15 15c3 2 8 4 10 7-2 4-5 7-8 9 2 7-5 8-8 12-6 4-14-1-20 3-4-5-11-6-15-11-4 0-7 3-8 6-4-2-9-2-13 0l1 13c-2 3-6 4-10 4-2 3-4 5-8 4-7 2-16 3-23 0l3-13c4-4 13-6 11-14-3-4-8-7-13-9l-2-7c-3-2-8-1-9-5 1-2 4-3 4-6 1-3-4-5-7-5s0-3 1-4h15c4-2 5-9 0-11 1-3 6-6 3-10l-13 4c-2-2-6-4-5-8-5 0-9 4-13 6-1-5-3-10-1-15m45 32c-1 2-1 6-5 5l-8 14c0 5 5 6 8 9l4 7 1 10c-4 4-9 5-13 9 0 3-2 7 0 10 7 2 15 0 22-2 2-3 4-4 8-3 4-5 0-12 3-17 3-1 7 0 9-3l2-8-9-7c0-3 2-6 0-9l-15-9c-2-3-3-7-7-6m67 8c-2 2-6 3-3 7 4 3 8 7 10 12 4 1 7 4 11 3 1-2 5-3 4-6-8-3-13-13-22-16z"/><path fill="#c0c8dc" d="M48 23l2-1 2 6-3 2-1-7z"/><path fill="#c1d4ea" d="M87 22h12c2 4 4 7 4 12 6 4 12-7 18-3 4 3 1 10 7 11v1l1 5 1 4-2 3c-2-1-1-4-1-6l-4-6a1596 1596 0 00-13-2l-7-6c-2-1-3 2-4 3l-5 1c0 4-2 8 0 11l-9 2c1-1 3-3 1-4-3-3 1-7 4-9s3-7 0-8l-2-1v-1c2-1 2-3 3-5-1-1-4 0-4-2z"/><path fill="#f6dae1" d="M118 25c1-2 3-3 5-3l2 2-1 2-6-1z"/><path fill="#b5cfe8" d="M911 32c5-2 8-6 11-10v9c-4 3-10 6-11 12l-22 7-5-3-1-1-1-7c2 0 1 4 4 4 5 3 9-2 15-1 5-1 6-7 10-10z"/><path fill="#b29a5e" d="M41 26c-1-1-2-3 0-3 2-1 2 2 1 3h-1z"/><path fill="#6f4844" d="M73 23h7c-3 2-1 5-1 7l-6-5v-2z"/><path fill="#c3d7ec" d="M253 23c8-1 16 1 23 5 1 3 0 6-1 9l-14-1c-3-3-6-7-10-9-1-2 0-3 2-4z"/><path fill="#c8dbef" d="M465 27l5-4h2v2c-1 5 0 14-7 16-4 2-4 7-7 9-3 3 1 6 2 8 0 6-1 12 3 17-2 10 10 14 17 16 6 3 13 3 17 7l-2 5c-2 2-1 7-4 7-3 2-5-1-8-2l-11 5c1 5 13 3 11 11l-6 3-28-1-2 4-56 3c-3 2-6 2-9 2l-21 1c-3-3-9-4-8-10-3-4-7-9-13-8l-19 1c-7 4-7-6-13-5-4 1-9-1-12 3-3 3-6-1-8-2l-26 1c-5 0-8 5-13 3-5 1-9 3-13 6-5 1-11-1-15-4l-7 6c-5 0-10-3-15-2l-2 7h-18c-2-4 5-4 4-7l-5-4c1-1 3-4 1-5-4-2-6 1-7 3-4 1-6-2-9-3-3 1-6 2-7 4l-1-1c2-2 5-5 9-4 6 1 12-3 18 1v6c4 4 14 8 17 1 3-2 8 0 12 0 8-1 11-10 19-10 3-3 7-4 11-6 4 0 7 2 10 4 5-2 9 1 13 1 11 1 22 2 33 1 5 1 11-2 16 1 2 0 4-3 6-2 6 2 12 4 19 4 4-1 9-2 13 1 3 2 4 7 8 7 4 3 8 1 13 0l4-7c6-2 11 5 17 3l3 4c5-1 10-4 15-2 4-3 8-1 12 0 6-4 13-2 20-2 7-4 17-4 25-3l-1-3 14-8c3-1 9 2 9-3-1-8-11-8-16-11-6-1-11-5-12-11 1-6-4-9-7-13-1-3-1-7-3-10-3-4 2-8 3-13-5-2-8-7-8-12 1-3 6-6 9-4 3 1 8 2 9-2z"/><path fill="#e7bfc4" d="M28 27c7 4 3-4 7-3v3c-2 1-3 2-3 4-2 0-4-2-5 0l-2 3v-4l1-5h1l1 2z"/><path fill="#e1ad94" d="M35 24h2c0 3 3 2 4 2h1v3c-1-2-2-2-3 0l-4-2v-3z"/><g fill="#f3e1e7"><path d="M67 24h1l1 1c2 5-2 7-5 9l-5-4c2-3 7-2 8-6zM150 114l4-2v3l-1 2-1 2c-4 3-7 0-9-3l7-2z"/></g><path fill="#c7d6ea" d="M69 25h4l6 5v1c0 3-3 2-5 3-3-2-4 4-8 3-4-2-8-4-11-8l-2-1h5l1 2 5 4c3-2 7-4 5-9z"/><path fill="#b3cce8" d="M425 24h10c0 3 3 8-2 8-4-1-11-2-8-8z"/><path fill="#cfe0f1" d="M465 41c7-2 6-11 7-16 2 5 0 10 0 16-2 1-5 2-6 4-2 3-1 7 1 10-1 2-3 5-2 8 2 3-1 8 1 11 6-1 10-5 16-5 7-1 7 14 0 11-2-1-3 2-3 4l9 2 2-5c3 0 6 2 7 5 4 1 9 4 10 8 2 5-2 6-5 8-2 6-4 12-4 19 5 4 13 3 19 3 8-2 17 2 25 2 5 3 6-3 6-6l-5-2c1-2 4-4 3-7l-5-9c0-3 3-5 6-4 2 2 4 4 7 3 3-2 9-4 12-1 3 1 4 4 5 6 5 1 8-1 12-3a213579 213579 0 001 2c-4 1-7 4-12 3-4-1-5-5-7-7-3 0-7-1-10 1-5 2-8-3-12-2 0 5 7 8 7 14-1 3 0 7 3 10l15 2c7 2 14-1 20 1 4 1 3 8 9 5 8 1 15-6 23-4 6-1 11 3 17 4-2 4-9 5-8 10 5 4 13 1 18 5l17 3c1 5 6 7 10 9 3 0 5-2 6-5l20-1c9-3 3 2 3 5-1 4 4-1 5-2l15-10c4-1 8-1 10-5l2-2c4 0 8 3 11-1h1c1 6 8 5 13 3h1v2c0 4 6 5 7 8-5 3-10 3-16 2-2 2-4 4-7 3l-21 4c-5 2-12-1-17 1-5 3-10 3-14 3-5-2-9 2-14 0-4 3-9 2-12-1-3-4-5-9-10-11-11-5-25-3-35-11v-9c-2-3-7-2-10-2-6 4-13 5-20 6-4-1-4-5-5-8h-24c-7 1-14-1-21 2 1 4-3 2-6 2l-2 3c-11 2-23 1-33 7-8-1-16 2-24 0-6 5-14 1-21 1-11 2-22-1-33 1-9 3-19-2-27 2-3 2-7 0-11 1-6 2-13 1-20 1-5 3-7-6-12-3l-18-2c-7 0-15 3-22 1-4 0-9 2-13 0-6-2-12 1-18 3-9 3-18-2-27 0-3 4-8 3-13 4-2 2-2 5-2 7l-9 5c-7-2-14 4-21 2-2 1-3 3-6 2-4-2-8 5-12 3-4 0-7 3-11 2-3-1-7-6-10-3-2 3-6 7-10 4-1-3-5-2-7-1-5 1-10 1-15 4-4 3-13-1-14 6l7 4c-3 5-9 2-13 4l-14 5c-6-1-11 2-17 0-4 4-10 3-16 4-11 5-23 8-34 10-8 0-15 5-22 6-5-1-10 3-15 3v-14l27-4c4 1 8-4 11-1 6-2 12-4 18-4 1-2 1-7 6-4 10-1 21 0 31-4l8-2-1-4h5l16-6c2-1 2-4 5-4 1 1 1 3 3 3 0-2-1-4-3-5l-3-3c0-2-1-5-4-5l6-7c8 2 16-1 23 2l10 1c6 3 12-3 18-2 0 4 4 5 8 5 9-2 18 4 28 1 4 0 13-4 8-9 3-2 7-2 10-1 3 0 5-4 0-5-3-3-6-1-10-1l-11-2c-2-4-5-6-9-5-5 0-7 5-11 7-2-1-7 0-5-3 2 1 4 1 5-1 4-4 11-6 17-4 4 2 7 6 12 5 5 1 11 1 15-2 4-4 12-3 15-9 3-3 7 0 9 3 6 0 13 2 19 1 2-3 4-5 8-6-5 5 5 7 5 3s5-7 9-5l8-2c0-3-2-6-3-8-5-2-6 2-8 5-4 2-10 1-13-3l10 2 7-6 10 1 5 6c5 1 13-3 13 4 3 1 4-2 5-4 7 0 14 2 17 9 4 3 5 9 11 10 6 0 12-2 18 0 4 2 8-2 12-1 3 1 6 2 9 0 4-2 9 0 13 0 11-3 23-2 35-2 5 0 10-3 15-2 7 4 12-6 17-2 4 2 8 0 11-3-1-4 1-8-3-10-1-2-6-5-3-7 2 0 5 2 7 0 5-4 5-11 8-15 4-5-1-5-3-7-11 1-20-5-29-9-4-1-3-5-5-8-4-5-3-11-3-17-1-2-5-5-2-8 3-2 3-7 7-9z"/><path fill="#db8f97" d="M32 31c0-2 1-3 3-4l4 2-3 3c-2-1-3-2-4 0v-1z"/><path fill="#c68c62" d="M39 29c1-2 2-2 3 0l1 1c-2 0-3 1-3 3s-3-1-4-1l3-3z"/><path fill="#524446" d="M49 30l3-2h1l2 1-6 6h-2v-1l2-4z"/><path fill="#bed5ec" d="M643 30c6-2 12-3 17 0 5-2 6 2 6 5l4 3c-4 0-8 3-12 5-1 6 7 5 11 6s-1 9 7 5h8c8 2 15-2 23-2 8-1 15 2 22 4 7-1 14-3 20-6 8 0 15-4 22-6-4 4-10 4-14 7-6 0-12 1-17 5 0 4 2 9 7 10 6 5 15 3 22 4 6-1 13-1 19-3 13 0 25-1 37-5 6 3 13 1 19 0l-1 2-1 3v1h-4c-6 0-11 4-17 3h-22c-17 6-36 4-53-1-6 2-11-1-17-2-1-3-2-9-6-9l-3 6c-6 2-12 4-16 9-8 4-17 5-26 3-2-1-5 1-7 1 1-4 5-7 7-10 1-3-1-5-3-6l-9 3c-4-1-5 2-8 3-5-1-10 0-14-4-7 1-14 4-22 4-5 2-10 0-15-2-4 0-6-4-9-7 4 0 6 6 11 6 5 2 10-1 15-1 7 0 14-5 21-3l18-2 3-8c-3-3-9-2-10-6 1-4 5-6 8-8 3-8-3-4-7-5-3-3-9-2-13-1-3 1-1 4-3 6-9 6-20 1-29 1l20-1c4-1 8-4 11-7m58 25c-4 0-9 0-14 2-2 5-5 10-5 16 2 0 5 2 7 0 9-2 17-8 24-14 3 0 4-4 2-5l-14 1z"/><path fill="#b8cee7" d="M55 29c3 4 7 6 11 8 4 1 5-5 8-3 2-1 5 0 5-3l3 2v-3h1c2 2 5 2 7 1 3 1 3 6 0 8s-7 6-4 9c2 1 0 3-1 4l-4 5c-1-3-5-3-8-3 2-5 8-8 11-12 6-2 1-7-2-5-4 2-8-1-11 1-5 4-9-2-14-1l-1 3c1-4-4-3-7-4v-1l6-6z"/><path fill="#c1a7a4" d="M83 30h5l2 1c-2 1-5 1-7-1z"/><path fill="#ecd2dc" d="M23 35l2-5v4l2-3c2 3 0 6-1 9l-1-1v-1c0-2-1-2-2-3z"/><path fill="#dca7b7" d="M27 31c1-2 3 0 5 0v4c-4-1-4 5 0 5a53 53 0 013 3l6 2c0 2-2 2-3 3-4-2-7-4-11-4l-1-4c1-3 3-6 1-9z"/><path fill="#cb6a7c" d="M32 32c1-2 2-1 4 0 1 0 4 3 4 1l3 2c2 2-1 5-1 7l-9-1-1-1v-5-3m1 3c-5 7 6 7 6 2l-2-2-2 3c-2 1 0-4-2-3z"/><path fill="#e7af9c" d="M40 33c0-2 1-3 3-3l3 4-3 1-3-2z"/><g fill="#bbd3eb"><path d="M644 31c4-1 10-2 13 1 4 1 10-3 7 5-3 2-7 4-8 8 1 4 7 3 10 6l-3 8-18 2c-7-2-14 3-21 3-5 0-10 3-15 1-5 0-7-6-11-6-2-2-5-3-3-7-6-2-12 0-18-1-3 1-6 3-10 2-5-1-8-6-10-11l11-4c4 0 7 2 11 1 10-3 22 0 33-1 9 0 20 5 29-1 2-2 0-5 3-6m1 1c-2 2-1 6-4 8-6 1-12 3-18 1-12-5-24 0-36-1-2 6-8 5-13 5l2 3c8-1 17-2 25 0 5 0 9 0 13-2 4-1 5 7 11 3 0-3 3-2 4-1 4 3 10 6 15 4 2 1 4 3 6 1 1-2 4 1 5-1s-3-3-2-5c2-4 4-9 9-10 1-5-3-2-6-2-2-4-7-3-11-3zM293 39c4-3 10 0 10 5-1 5-2 11 1 15 3 6 9 10 13 16 0 3-1 7 1 9 2 3 6 0 8 0 5 0 9 3 14 2 0-3-2-6 0-8 3 1 6 2 10 1l3-5c3 2 2 5 4 7l3 4c4-1 0-4-1-6 2-6 5-12 9-17 3-2 7-1 10-2-1 4-7 0-9 4l-7 10c-1 5 7 2 9 3 2-2-1-6 1-8 1-6 8-2 12 0 1 2-2 2-3 3-5 2 0 7 0 11l-9 3c-7-2-5 3-4 6 2 0 4-2 5 0l-1 4-11-1c1 1 2 4-1 3-2 1 0-4-2-2-3 3-5 0-6-3h-11c-3-4-8-6-13-7-4 1-8 3-12 2-7 0-13 3-19 2-2-4-6-5-10-4-1 4 5 6 4 10-2 2-6 2-9 3l-5-4V85c5-1 10-2 14-6 3-4 8-1 12 0 3 0 6-2 8-3 1-6-5-10-8-15-3-4-8-4-12-6-3 0-1 4-1 7-5-1-3 9-10 5-2 0-3 2-5 3l2 7c-4 3-10 2-12 7-3 9-13 10-21 14-5 3-12 0-17 2-6 1-11 7-18 6-5-2-12-4-17 0-2 2 0 5-3 6-5 2-11 0-16-1-5 5-13 1-19 4v-3l4-2h8c8 1 14-6 22-6 4-3 8-5 13-5 6 2 11 0 17-1 2 0 0-4 3-4l16-9c4-3 10 2 15-1l8-4-3-7c3-2 7 1 10-1 6 3 6-6 11-6 5 1 6-4 6-7l-4 2-5-4 1-7c2-3 6-2 8-5l9-6z"/></g><path fill="#bdd4eb" d="M911 43c1-6 7-9 11-12v22c-10 1-20-1-30 1h-2l-1-4 22-7z"/><g fill="#b7d1ea"><path d="M645 32c4 0 9-1 11 3 3 0 7-3 6 2-5 1-7 6-9 10-1 2 3 3 2 5s-4-1-5 1c-2 2-4 0-6-1-5 2-11-1-15-4-1-1-4-2-4 1-6 4-7-4-11-3-4 2-8 2-13 2-8-2-17-1-25 0l-2-3c5 0 11 1 13-5 12 1 24-4 36 1 6 2 12 0 18-1 3-2 2-6 4-8zM701 55l14-1c2 1 1 5-2 5-7 6-15 12-24 14-2 2-5 0-7 0 0-6 3-11 5-16 5-2 10-2 14-2z"/></g><path fill="#4a3c3a" d="M0 33a171 171 0 0120 2h3c1 1 2 1 2 3H10c7 6 17 8 20 18h-3l-3-5C17 45 9 41 1 37H0v-4z"/><path fill="#716c6a" d="M13 34c2-1 5-1 7 1-2 1-5 1-7-1z"/><path fill="#d37b91" d="M43 35l3-1h1v1l-4 8h-8l-2-2 9 1c0-2 3-5 1-7z"/><path fill="#cd858a" d="M32 40c-4 0-4-6 0-5v5z"/><path fill="#aa5461" d="M33 35c2-1 0 4 2 3l2-3 2 2c0 5-11 5-6-2z"/><path fill="#dc95a8" d="M43 43l4-8h1l-4 10-4 4-2-1c1-1 3-1 3-3l-6-2h8z"/><path fill="#ebb5c0" d="M48 35h1v1c0 3-3 6-3 10l-2-1 4-10z"/><path fill="#f6e4e9" d="M99 38c1-1 2-4 4-3l7 6-5 5-6-1c0 3-2 5-5 5-2-3 0-7 0-11l5-1z"/><path fill="#f6dfe4" d="M869 38c1-3 3-4 7-3 0 4 4 3 6 4l1 7c-2 5-6-4-9 0-1-3-2-7-5-8z"/><path fill="#f4d8e0" d="M49 36c3 1 8 0 7 4v1l-3 3-2 1-5 1c0-4 3-7 3-10z"/><g fill="#acc9e5"><path d="M82 37c3-2 8 3 2 5-3 4-9 7-11 12l-4 1 2-11c-2-3-4 3-6 0-2-2-5-4-9-3v-1l1-3c5-1 9 5 14 1 3-2 7 1 11-1zM69 89l3-1h1c1 3 1 5 3 7l12-1c3 5 8 7 12 11-6-2-13-2-20-2-4 2-5-2-8-3-2 1-6 3-7 0l4-8v-3z"/></g><path fill="#e7eff7" d="M0 37h1v61H0V37z"/><path fill="#9cbdde" d="M1 37c8 4 16 8 23 14l-5 3c-5-1-10-1-14-4l-4 1V37z"/><path fill="#9ebddd" d="M10 38h7l8 1 1 1 1 4c4 0 7 2 11 4l2 1c2 0 6 0 6-3l5-1 4 4c-3 0-6 2-8 4-2 1-3 2-3 4l-4-1-5-1-5 1c-3-10-13-12-20-18z"/><path fill="#727d91" d="M17 38h8v1l-8-1z"/><path fill="#aecae6" d="M141 46c2-4 4-10 9-8l15 8 17 1-1 3-1 3h-1c-9-5-22-3-29-11-2-1-3 2-4 4 2 1 4 3 3 5 0 3-4 2-6 2l1-3c1-1 1-2-1-2l-2-2z"/><path fill="#f2c4c6" d="M867 41l2-3c3 1 4 5 5 8v1c-3-1-4-3-7-3v-3z"/><path fill="#f6dee6" d="M860 39c3-1 5 1 7 2v3c-3 1-6 3-10 3-1 1-2 3-5 3v-5l8-6z"/><path fill="#a5c2df" d="M53 44l3-3c4-1 7 1 9 3 2 3 4-3 6 0l-2 11c-1 3-5 2-6 0h3l-5-5c-2-3-5-5-8-6z"/><path fill="#eeced4" d="M105 46l5-5c2 2 4 2 6 2v5c5 2 2 8 4 12l-4-2-4-13-9 4c-1 2-4 3-6 4l-2 3c-4-1-2 3-4 4l3 5-4 1-1 2-2-1-1-2c0-3-3-4-5-5v-3l4-5 9-2c3 0 5-2 5-5l6 1z"/><path fill="#e9ccd6" d="M128 42c1 0 2-1 2 1h5v1l-5 2-2-3v-1z"/><path fill="#a6c4e2" d="M146 46c1-2 2-5 4-4 7 8 20 6 29 11v2l-5 1-2 7-27 3c0-2-3-7-5-4l-4-1c1-5-5-4-8-6l3-2 2 1c3 4 6-1 10-1 2 0 6 1 6-2 1-2-1-4-3-5z"/><path fill="#efd2db" d="M211 44c2-2 6-5 3 3l5-1c1 1 2 1 2 3l-3 1-5-1-2-5z"/><g fill="#f7e3e9"><path d="M116 43h7l4 6c0 2-1 5 1 6 3 2 9 1 8 6l-1 3h-2l-5-3-7-1h-1c-2-4 1-10-4-12v-5zM59 76l2-3c5 1 7 6 5 11 5-2 5 1 6 4l-3 1-7-1-2-5h-1l-2-4 2-3z"/></g><path fill="#d59592" d="M128 43l2 3 5-2 2 5-1 1-2-4-5 2-1-5z"/><path fill="#bab3a7" d="M135 43c2 2 4 3 4 6h-2l-2-5v-1z"/><path fill="#b0cbe6" d="M252 45c6-5 14-1 20 1 1 3-3 2-4 2l-12 9c-2 0-2 2-2 4-5 1-10 3-14 6-2 4 2 10-3 13-8 5-17 6-26 8-4 3-7-6-12-3-4 0-6 3-10 5-3 1-2 7-6 7l-13 1c-3 4-8 3-12 5l-4-2h-1c1-5-4-8-9-5-2 2-5-1-7 1l-14-8 6-3 2-1c2 1 4 3 7 2l5-7c4 0 5 4 7 6 1 3 3 1 4-1 2 2 8 3 5-1v-1c0-2 2-4 3-5h-4c0-2 2-6-1-6l2-3c4 2 10 4 13 0l-1-3h2l3 1h1c-2 5 2 8 5 11 3 1 5-2 6-3l4 1c2 0 5 2 8 0 1 3 5 4 6 7a147 147 0 014 4v-3h3l5 1v-6c2-3-1-2-3-2l1-4 20 2-11-4-10-1-12-6 5-2 2-1 3 2 3 3c4 4 6 0 9-2 1 1 3 1 4-1l3-3c-2-3-6-3-9-2l-2-3c2-1 5 0 4-3l-3-1c5 2 6-1 8-5 4-1 7 2 10 3 4-1 9-1 12-4z"/><path fill="#b4cee8" d="M761 52c4-5 10-5 14-9 0 3-3 5-5 7l11 6-1 2h12c4-6 13-4 19-6l16-2c6 2 12 1 18 0 7 4 3-4 7-5v5l1 3c-3 5-10 5-15 6-12-1-23 3-34 3-17 2-33 4-50 2l-1-4c6 0 11-1 17-3 2-6-6-5-9-5z"/><path fill="#4a3e40" d="M51 45l2-1c3 1 6 3 8 6l-2 1-4-2-4-4z"/><path fill="#e0a5ad" d="M211 44l2 5 5 1-1 1-4 3-1-4-3-2 2-4z"/><path fill="#efcfd6" d="M857 47c4 0 7-2 10-3v2l-1 1-8 1c0 3-2 4-4 5h-1l-1-3c3 0 4-2 5-3z"/><path fill="#e4a1ae" d="M867 44c3 0 4 2 7 3 2 0 4 1 5 3h-2l-8-3-2-2v-1z"/><path fill="#ca7796" d="M40 49l4-4 2 1c0 3-4 3-6 3z"/><path fill="#e3b6bf" d="M103 49l9-4 4 13h-2l-3-3a262 262 0 011-7l-7 2c0 2 1 3-1 3h-7c2-1 5-2 6-4z"/><path fill="#d56a88" d="M867 45l2 2v4l-2 1v-7z"/><path fill="#e9bfc4" d="M874 46c3-4 7 5 9 0l1 1-2 11v1c-2-3-1-6-1-9h-2c-1-2-3-3-5-3v-1z"/><path fill="#c45370" d="M129 48l5-2 2 4-3 4a214 214 0 01-3-2l-1-4z"/><path fill="#dfa9b3" d="M866 47l1-1v6l-2 3h-8c2-2 4-4 7-4 2 0 2-2 2-4z"/><path fill="#e9bcc4" d="M858 48l8-1c0 2 0 4-2 4-3 0-5 2-7 4h-3v-2c2-1 4-2 4-5z"/><path fill="#db859b" d="M869 47l8 3-7 1h-1v-4z"/><path fill="#ecd8db" d="M884 47l5 3 1 4v2c-2-4-6 1-8 2l2-11z"/><path fill="#dc9bad" d="M105 50l7-2v4c-3-2-6 0-6 2h-2v-1c2 0 1-1 1-3z"/><path fill="#eccdd6" d="M139 49l4-1c2 0 2 1 1 2-1-2-4 0-6-1h1z"/><path fill="#f3e5e9" d="M181 50l5-2c3 1 5 3 5 5l-2 2-9-2 1-3z"/><path fill="#c7829b" d="M209 48l3 2-2 7v1h-1v-7-3z"/><path fill="#f7e4e9" d="M47 53c2-2 5-4 8-4l4 2c2 1 4 2 4 4 1 2 5 3 6 0l4-1c3 0 7 0 8 3v4h-1c-4 1-9 0-12 4-6 4-11-3-13-8-4 1-7-1-8-4z"/><path fill="#e1aab6" d="M137 49h1c2 1 5-1 6 1l-1 3c-4 0-7 5-10 1l3-4 1-1z"/><path fill="#d28881" d="M218 50l3-1v1c-1 2-4 6 0 5l2 3-3-1c0 3-4 3-5 5v-3l3-2c-3-1-1-4-1-6l1-1z"/><path fill="#d1e1f1" d="M430 49c4-3 9 2 6 5-1 4-6 6-9 8-2 2-7 1-3-4 0-4 3-7 6-9z"/><path fill="#a1c2e2" d="M1 51l4-1c4 3 9 3 14 4l5-3 3 5c-3 0-3 3-3 5-4 4-10 2-14 5l-9-1V51z"/><path fill="#756464" d="M61 50l5 5h-3c0-2-2-3-4-4l2-1z"/><path fill="#c04863" d="M210 57l2-7 1 4 4-3c0 2-2 5 1 6l-3 2c-2 0-4 0-5-2z"/><path fill="#b2b3a0" d="M221 55c-4 1-1-3 0-5l1 1 3 1c1 3-2 2-4 3z"/><path fill="#d17788" d="M870 51l7-1h2l-3 9c0 2 5 4 1 4-1-1-4-3-3 0-1 2-3 3-6 3h-1l-1-1v-3l1-6 2 7c2-2 1-4 1-7l4 2c-1-2-4-4-6-4l4-1-2-2z"/><path fill="#daa6a3" d="M879 50h2c0 3-1 6 1 9v5l-3 1 2 5c-3 1-3-2-4-4v-3c4 0-1-2-1-4l3-9z"/><path fill="#d87a95" d="M106 54c0-2 3-4 6-2l-1 3h-3l-2-1z"/><path fill="#c36e61" d="M867 52l2-1h1l2 2-4 1-1 2-1 6-1-7 2-3z"/><path fill="#89663e" d="M128 55l2-3 1 1-3 2z"/><path fill="#e8c7cf" d="M192 53c7-4 8 4 11 8l-3 3-1 1c-2 1-1 5-4 5-2 1-3 4-3 6l-4-1-7-8h6l1 3 1 3c2-1 5-4 4-7l3-2c1-1 4-4 1-4 3-1 0-3 0-5l-5-2z"/><path fill="#f1d4da" d="M44 57c0-2 1-3 3-4 1 3 4 5 8 4 2 5 7 12 13 8 3-4 8-3 12-4v2l-1 1c-3 1-7 1-9 3-1 2-4 1-6 1h-5l-5-5c-2-3-6-2-9-3l-1-3z"/><path fill="#e0acb5" d="M95 56l2-3c2 1 0 4-2 3z"/><path fill="#d58690" d="M97 53h7v1l-2 2-5 2-2-2c2 1 4-2 2-3z"/><path fill="#efcbcf" d="M179 53h1l9 2-7 1-2 11h-4c3-3 5-8 3-12v-2z"/><path fill="#d99a9e" d="M191 53h1l5 2-3 1-4 1-7 1v8h2l2 1h-7l2-11 7-1 2-2z"/><path fill="#756c67" d="M892 54c10-2 20 0 30-1v5h-2v-1l1-3h-29z"/><path fill="#c85c76" d="M102 56l2-2h2l2 1v1l-6 1c1 2 5 2 5 5l4-3v8c-3 2-6-1-9-2l-2-4-3-3 5-2z"/><path fill="#c66d5d" d="M108 55h3l3 3-2 6h-1v-5c1-2-2-2-3-3v-1z"/><path fill="#deeaf6" d="M519 54c4-1 5 3 7 6l15 9c2 3 0 6 0 9l9 7-2 8c-2 3-6 2-9 3-3 5 1 12-3 17-4-1-6 0-8 3-7 2-15 4-22 2-2-3 0-7 0-10 4-4 9-5 13-9l-1-10-4-7c-3-3-8-4-8-9l8-14c4 1 4-3 5-5m0 8l-3 4c-5 2-5 10 0 12 4 2 10 6 8 12 1 4-1 8 1 12v4l-12 1-4 9c2 2 6 2 8-1 4 1 7-1 11-1 2-2 3-5 7-3 2-5 0-10 1-15 3-3 9-4 9-9-3-5-7-9-13-9-1-3 3-5 5-6 1-3-5-2-4-5-3-4-9-6-14-5z"/><path fill="#b15166" d="M867 56l1-2c2 0 5 2 6 4l-4-2c0 3 1 5-1 7l-2-7z"/><path fill="#f6e8ed" d="M882 58c2-1 6-6 8-2v3c-2 3-4 4-7 5h-1v-6z"/><path fill="#554134" d="M890 54h14c-4 2-11-1-14 4v-2-2z"/><path fill="#382728" d="M904 54h17l-1 3c-7 0-14-1-20 1l-10 1v-1c3-5 10-2 14-4z"/><path fill="#f5e4ea" d="M30 56l5-1c1 4 2 9-1 12-2 0-4-2-6 0l3 6-3 4c-4-1-5-6-7-10-1-3 5-3 3-6 0-2 0-5 3-5h3z"/><path fill="#efd5dc" d="M35 55l5 1c0 5-2 10-6 13-2 1 2 3 1 5s-3 6-6 6l-1-3 3-4-3-6c2-2 4 0 6 0 3-3 2-8 1-12z"/><g fill="#f6e3e7"><path d="M174 56l5-1c2 4 0 9-3 12l-3-1-1-3 2-7zM112 64l4-1c4 1 2 6-1 8l2 6c-5 0-8 4-12 3-2 0-4-1-4 2l-5 2h-4l-1-4c-1-6 5 8 2-5 1-3 4-5 7-6h2c1 1 0 1-1 2l9 2v-3l1-3v-3h1z"/></g><path fill="#e3b5ae" d="M194 56l3-1c0 2 3 4 0 5 3 0 0 3-1 4l-1-2c1-2 0-4-1-5v-1z"/><path fill="#c0d7ed" d="M290 62c0-3-2-7 1-7 4 2 9 2 12 6 3 5 9 9 8 15-2 1-5 3-8 3-4-1-9-4-12 0-4 4-9 5-14 6v10l5 4c3-1 7-1 9-3 1-4-5-6-4-10 4-1 8 0 10 4 6 1 12-2 19-2 5 3 12-4 17 1 0 6 7 7 12 7 2 2 3 5 6 5 3 2 7 1 11 1 1 4 4 4 5 0l5 3c4 0 7-3 10-4l7 2 2-5c4 0 8 2 12 0 2-2 4 0 7 0 3-1 5-4 8-2 4 3 9-3 13-1l-4-8c1-3 2-6 6-7 4-3 9 1 12 3-2 4-6 7-7 11 3 3 7 1 11 2 7-2 13 0 19 2 1-6-10-6-10-12 1-6-5-10-8-14v-2c8 2 11 10 12 17 3 7 15 5 18 13 2 2-2 4-3 6-3-1-6-1-8 1-2-1-4-3-7-3-1 1-2 4-4 3-6-1-12-1-17 1-9-1-17-1-25 3-7-3-15-1-22-1-4 3-8-1-12 2-9-1-19 7-26 1-6-6-14-6-21-4l-29 1c-4 2-6-2-8-4-4-1-6 2-9 3-3 0-4-4-7-4s-4 5-8 4c-1-2-3-3-3-5 3-2 8-2 7-6l-7 2c-4-2-5 2-7 4h-17c-10-2-20 6-30 8l-10 1-2 6c-8 1-17 3-23-3-6-4-12 0-18-1-4-1-7 2-9 4l-2-2 1-2c6-3 14 1 19-4 5 1 11 3 16 1 3-1 1-4 3-6 5-4 12-2 17 0 7 1 12-5 18-6 5-2 12 1 17-2 8-4 18-5 21-14 2-5 8-4 12-7l-2-7c2-1 3-3 5-3 7 4 5-6 10-5z"/><path fill="#dda7b4" d="M854 55h1c2 3 4 8 8 7l1-3 2 3v3h-6c0-2-1-3-3-4l-4-3 1-3z"/><path fill="#d58ea2" d="M855 55h3c1 3 3 6 6 4l-1 3c-4 1-6-4-8-7z"/><path fill="#d0718c" d="M858 55h7l1 7-2-3c-3 2-5-1-6-4z"/><path fill="#e8c5cb" d="M40 56l4 1 1 3c-4 1-4 6-7 9s4 1 2 5l-1 1c-2 1-4 1-5 3v3c1 2 0 4 2 5l2 2c2 1 3 4 6 4l-1 5h4c-1 2-3 2-5 2l1 6c-2 3-4 9 1 8l-4 3h-1c-1-2-2-5-6-3l-6-2 2-2 9 3c1-3 3-6 0-9l2-4-1-6c-2 0-3 1-3 2-3-1-1-7-3-3-2-3-3-1-5 1l-2-3c-4-3-1-8 3-10 3 0 5-4 6-6s-3-4-1-5c4-3 6-8 6-13z"/><path fill="#e2b4a8" d="M91 60c2-1 0-5 4-4l2 2h-3l3 5-2 2h-1l-3-5z"/><path fill="#a2344a" d="M108 56c1 1 4 1 3 3l-4 3c0-3-4-3-5-5l6-1z"/><path fill="#c27f5f" d="M190 57l4-1v1l-1 3c-2 0-3-1-3-3z"/><path fill="#cc637c" d="M183 58l7-1c0 2 1 3 3 3l2 2-2 1c-1-2-4-1-5-3v1l-1 3-2-3v5h-2v-8z"/><path fill="#d48a88" d="M193 60l1-3c1 1 2 3 1 5l-2-2z"/><path fill="#c8607f" d="M210 57c1 2 3 2 5 2v3l-2 1-3-2v-4z"/><path fill="#e9afb2" d="M220 57l3 1c0 5 6 1 9 2l-3 3c0-4-5-2-7-1-1 0-3-2-3 0l-1 3-3-3c1-2 5-2 5-5z"/><path fill="#f6d5dd" d="M223 58c3-1 7-1 9 2-3-1-9 3-9-2z"/><path fill="#b9d3eb" d="M390 67c-1-6 5-10 10-10l8 3c1 3-2 6-3 8 1 4 6 4 10 4 2-2 4 1 6 1 3-2 7 2 11 0 2-2 4 1 6 1l4-6c0 3 5 2 6 5 2 2 4 6 2 8l-11-5-10 1c-2 2-2 4-2 7-3 2-7 3-8 6-2 1-3-2-5-2-1 2-5 3-6 0 0-4-5-5-8-5l-4-7c-2-3-3-7-6-9z"/><path fill="#949ead" d="M900 58c6-2 13-1 20-1v1h-20z"/><path fill="#d68d85" d="M94 58h3l3 3-3 2-3-5z"/><path fill="#dc839b" d="M114 58h2l4 2-2 2-2 1-4 1 2-6z"/><path fill="#806038" d="M204 61l5-3h1v3l-2 1-4-1z"/><path fill="#e7becb" d="M851 60l2-2 4 3-6-1z"/><path fill="#c0d6ec" d="M890 59l10-1h22v6c-7 2-13 5-18 11l1-4c-2-2-6-2-8 0v5l-15-3 1-9c3-1 5-2 7-5z"/><path fill="#dfacba" d="M38 69c3-3 3-8 7-9l2 4c-4 0-6 4-6 7h3v2l-4 1c2-4-5-2-2-5z"/><g fill="#eac5cc"><path d="M45 60c3 1 7 0 9 3l5 5-1 1h-2l-9-5-2-4zM42 117l3 1 2 10c-4-2-4-7-5-11z"/></g><path fill="#edb8bf" d="M81 60c2 1 5 2 5 5-2 0-3-3-5-4v-1z"/><path fill="#e5c4cd" d="M120 60h1l2 4c-2 3-4 6-1 9v1c-1 0-2 1-2 3 1 2 0 5 2 7 0-4 2 0 3 1-2 0 0 2 1 2l1-4 2 3-6 3-4-2-4-4 2-5c2-1 3-3 1-6 0-3 4-8 0-10l2-2z"/><path fill="#f0d2d7" d="M121 60l7 1 5 3v1l-2 1c-2-2-5-2-8-2l-2-4z"/><path fill="#be5960" d="M188 61v-1c1 2 4 1 5 3-1 0-2 2-1 3h-1l-4 1-2-1v-5l2 3c0 2 2 1 3 0l-2-3z"/><path fill="#f7dde5" d="M844 62c1-3 4-2 7-2l6 1c2 1 3 2 3 4l-1 4h-1c-3-1-6-2-8-5h-7l1-2z"/><path fill="#a7c6e3" d="M24 61c2 3-4 3-3 6 2 4 3 9 7 10l1 3c-4 2-7 7-3 10-3-1-5-1-7 2-3-1-6-2-5 2l3 1v6c-3 1-3 4-3 7L1 98V65l9 1c4-3 10-1 14-5z"/><path fill="#df98a9" d="M80 61h1c2 1 3 4 5 4l1 2c-3 0-5-2-7-4v-2z"/><path fill="#c07e5c" d="M100 61l2 4-3 2-4-2a28 28 0 005-4z"/><path fill="#f4d4d7" d="M136 61l4 1-2 8h-2c1-2 0-4-1-6l1-3z"/><path fill="#f6e5e8" d="M140 62c2-3 5 2 5 4-1 1-1 3 1 3 0 3-3 5-4 7-3-1-2-5-4-6l2-8z"/><path fill="#9f2f49" d="M187 64l1-3 2 3c-1 1-3 2-3 0z"/><path fill="#938e75" d="M203 61h1l4 1-5 2h-3l3-3z"/><path fill="#ebc2cc" d="M219 62c0-2 2 0 3 0 1 1 6 1 3 2-3 2-5 6-9 2l2-1 1-3z"/><path fill="#d79bab" d="M222 62c2-1 7-3 7 1-1 2-3 2-4 1 3-1-2-1-3-2z"/><path fill="#c5daef" d="M388 71c0-3-4-10 1-10l1 6c3 2 4 6 6 9v9c-6 0-12-3-15-7-1-4 4-6 7-7z"/><path fill="#cba069" d="M874 63c-1-3 2-1 3 0v3l-3-3z"/><path fill="#eed1d8" d="M116 63l2-1c4 2 0 7 0 10 2 3 1 5-1 6v-1l-2-6c3-2 5-7 1-8z"/><path fill="#d4808d" d="M193 63l2-1 1 2-3 2h-1c-1-1 0-3 1-3z"/><path fill="#d7819a" d="M213 63l2-1 3 3-2 1-3-3z"/><path fill="#e3edf7" d="M519 62c5-1 11 1 14 5-1 3 5 2 4 5-2 1-6 3-5 6 6 0 10 4 13 9 0 5-6 6-9 9-1 5 1 10-1 15-4-2-5 1-7 3-4 0-7 2-11 1-2 3-6 3-8 1l4-9 12-1v-4c-2-4 0-8-1-12 2-6-4-10-8-12-5-2-5-10 0-12l3-4z"/><path fill="#e0ebf6" d="M586 62c9 3 14 13 22 16 1 3-3 4-4 6-4 1-7-2-11-3-2-5-6-9-10-12-3-4 1-5 3-7z"/><path fill="#d87f94" d="M80 63c2 2 4 4 7 4l2 1c5 2 1 7 1 11h-3l2-9-5-1-5-1v-1-3l1-1z"/><path fill="#504547" d="M145 66l27-3 1 3h-2l-25 3c-2 0-2-2-1-3z"/><path fill="#dc9d9d" d="M874 63l3 3c-2 0-4 4-7 2l-2-2c3 0 5-1 6-3z"/><path fill="#dc92a7" d="M41 71c0-3 2-7 6-7l1 4c-2-2-5 0-4 3h-3z"/><path fill="#e1b3bb" d="M47 64l9 5c-3 2-6 1-8-1l-1-4z"/><path fill="#e9c4cb" d="M70 67c2-2 6-2 9-3v3c-2 0-5 1-6 3h-6l4 8c2 0 3 2 4 3-1 3 1 4 3 4 0 2 0 4 2 5v-3c1 1 1 3 3 3-1-1-1-3 1-4l2-1c1 2 1 8 4 5l-2-5 4 2c0 3-2 5-3 7h-1l-12 1c-2-2-2-4-3-7 2-2 0-8-4-6-1-4-1-11-7-11l2-3c2 0 5 1 6-1z"/><path fill="#dea3b4" d="M122 73c-3-3-1-6 1-9l2 3c-3-1-2 3-1 4l-2 2z"/><path fill="#e5bbc3" d="M123 64c3 0 6 0 8 2l-1 2-5-1-2-3z"/><path fill="#e9b3bd" d="M133 64h2c1 2 2 4 1 6-2-1 0-5-3-5v-1z"/><path fill="#4b3f41" d="M199 65l1-1h3l12 6 10 1 11 4-20-2h-3a187 187 0 00-14-8z"/><path fill="#eecbd3" d="M843 64h7c2 3 5 4 8 5v1l-3 1c-3-1-5-5-8-3l-5-1 1-3z"/><path fill="#eec3c8" d="M860 65h6l1 1c-5-1-2 6-5 9 4 1 2 6 6 7v1c0 4-5 3-8 5 0-2 2-3 4-4-1-3 0-8-4-8 2-2 0-5-1-7l1-4z"/><path fill="#e6c2c4" d="M879 65l3-1h1l-1 9c-3 1-6 4-10 2-2-2-3-4-2-7 3 2 5-2 7-2 1 2 1 5 4 4l-2-5z"/><path fill="#4c3d3a" d="M904 75c5-6 11-9 18-11v4c-9 4-15 12-22 19-8 8-12 18-16 28l-3 4-16 20v-2c3-3 4-7 6-11l3-4c9-11 13-24 20-36 4-3 8-6 10-11z"/><path fill="#cf918b" d="M90 66l4-1h1l4 2 3-2c3 1 6 4 9 2l-1 3c-2 0-5-2-8-1h-8l2-3h-6z"/><g fill="#dc889e"><path d="M131 66l2-1c3 0 1 4 3 5v4l-4-4-2-2 1-2zM89 142l5-9a73 73 0 010 10h-5v-1z"/></g><path fill="#f2e1e7" d="M195 70c3 0 2-4 4-5l2 1c1 3 0 7-1 10-3 2-6 0-8 0 0-2 1-5 3-6z"/><path fill="#e2b6b7" d="M90 66h6l-2 3h6c-3 1-6 3-7 6 3 13-3-1-2 5l-1-1c0-4 4-9-1-11l1-2z"/><path fill="#a8c1de" d="M146 69l25-3 1 3c-3 4-9 2-13 0l-2 3c3 0 1 4 1 6h-1v-3c-3 1-6 0-7 3l-7-1-1-1c1-2 4-4 4-7z"/><path fill="#d88198" d="M187 67l4-1c0 2-1 4-3 4l-1-3z"/><path fill="#e0aab9" d="M191 66h2c1 3-2 6-4 7l-1-3c2 0 3-2 3-4z"/><path fill="#adc3dd" d="M201 66l12 7-1 2c-2-4-3 1-5 2l-7-1c1-3 2-7 1-10z"/><path fill="#f9dfe4" d="M862 75c3-3 0-10 5-9h1l2 2c-1 3 0 5 2 7l-1 4-3 3c-4-1-2-6-6-7z"/><path fill="#d9718d" d="M44 71c-1-3 2-5 4-3s5 3 8 1h2c4 1-2 5 1 7l-2 3-1-2c0-3-1-7-5-6-3-3-4 0-5 2h-2v-2z"/><path fill="#dfacb5" d="M73 70c1-2 4-3 6-3v1l-3 3h-3v-1z"/><path fill="#d97f95" d="M124 71c-1-1-2-5 1-4l5 1c-2 1-5 1-6 3z"/><path fill="#f4e1e7" d="M177 67h4l7 8c-1 1-3 4-6 3-3-3-7-6-5-11z"/><path fill="#e6b7bf" d="M842 67l5 1c3-2 5 2 8 3l-3 3c-2-3-5-3-8-4h-1l-1-2v-1z"/><path fill="#dd92a5" d="M58 69l1-1h5l-2 3-1 2-2 3c-3-2 3-6-1-7z"/><path fill="#c37657" d="M76 71l3-3 5 1-5 2-3 3v-3z"/><path fill="#e3b7b6" d="M102 69c3-1 6 1 8 1v3l-9-2c1-1 2-1 1-2z"/><path fill="#c6606e" d="M130 68l2 2c1 2-1 2-2 1l-4-1v4l3-2v6l-3 1c-5 0 0-5-4-5v-1l2-2c1-2 4-2 6-3z"/><path fill="#e1b0bc" d="M838 68h2v11l4 1-1 3-2 1c0-2-2-3-3-4V68z"/><path fill="#d99aab" d="M840 68h2l1 2-1 7 4 2v1h-2l-4-1V68z"/><path fill="#c5d8ec" d="M900 87c7-7 13-15 22-19v6c-4 1-5 6-9 8-4 0-6 3-8 6l-5-1z"/><path fill="#e1afbc" d="M67 70h4v5l4 2v4c-1-1-2-3-4-3l-4-8z"/><path fill="#c95e76" d="M84 69l5 1-2 9h-2l-2 3c-2 1-5 2-5-2 3 0 3-3 4-5l3 2c0-2-1-4-3-5l-3-1 5-2z"/><path fill="#f4dce3" d="M829 74c1-2 4-4 7-5l-1 11 2 6h-2l-2-1-4-4c1-2 2-5 0-7z"/><path fill="#e8c4cb" d="M836 69h2v11c1 1 3 2 3 4v2c2 2 1 6 4 8l1-3c4-1 3 3 2 6 3 1 3-2 3-4l2 3c-2 2-4 5-6 3-5-1-9-4-11-8 1-2 2-3 1-5l-2-6 1-11z"/><path fill="#e8a6af" d="M858 69h1c1 2 3 5 1 7-3-1-2-4-2-6v-1z"/><path fill="#be784d" d="M46 73c1-2 2-5 5-2 4-1 5 3 5 6v3l-4-7c-1-2-4 0-6 0z"/><path fill="#d992a7" d="M71 70h2v1c0 2 1 3 3 3v3h-1l-4-2v-5z"/><path fill="#a03048" d="M126 70l4 1v8l-1-1v-6l-3 2v-4z"/><path fill="#d0677e" d="M132 70l4 4c-2 2-3 4-6 4v-7c1 1 3 1 2-1z"/><path fill="#e5b3b7" d="M136 70h2c2 5-1 8-4 11-1 1-1 0-2-1 1-2 6-3 4-6v-4z"/><path fill="#edd0d5" d="M138 70c2 1 1 5 4 6l1 1v2c-3-2-6 2-9 2 3-3 6-6 4-11z"/><path fill="#86888d" d="M215 70l10 1-10-1z"/><path fill="#d08299" d="M842 77l1-7h1v7h4v1l-2 1-4-2z"/><path fill="#dda5ae" d="M844 70c3 1 6 1 8 4v1h-1c-3 0-5-2-7-4v-1z"/><path fill="#d67b8f" d="M855 71l3-1c0 2-1 5 2 6l2 7c-2 2-5 4-8 3 0-2 0-4 2-2 0-2-2-3-3-4l-1-3 3 1c0-2-2-3-3-3v-1l3-3z"/><path fill="#c6d9ed" d="M897 71c2-2 6-2 8 0l-1 4c-2 5-6 8-10 11-2-1-5-3-3-6-6-2-12 1-18 2l-2-3 1-4c4 2 7-1 10-2l15 3v-5z"/><path fill="#efd3da" d="M62 71c6 0 6 7 7 11 4-2 6 4 4 6h-1c-1-3-1-6-6-4 2-5 0-10-5-11l1-2z"/><path fill="#d9718e" d="M73 71h3v3c-2 0-3-1-3-3z"/><path fill="#b6465e" d="M76 74l3-3v5c2 0 2-2 3-4 2 1 3 3 3 5l-3-2c-1 2-1 5-4 5v-4c-1 1-1 2-2 1v-3z"/><path fill="#992a44" d="M79 71l3 1c-1 2-1 4-3 4v-5z"/><path fill="#d16683" d="M844 71c2 2 4 4 7 4l-3 2h-4v-6z"/><path fill="#b84358" d="M46 73c2 0 5-2 6 0v1h-4l-4-1h2z"/><path fill="#ce607c" d="M40 74l4-1 4 1-3 3-3 1-3-3 1-1z"/><path fill="#992b45" d="M48 74h4a31 31 0 01-4 13l1-6 1-5c-2 1-3 3-5 1l3-3z"/><path fill="#d15f7b" d="M52 73l4 7a2222 2222 0 011-1l2 4-3 2c-2 1 0-3-2-3 0 2 1 5-2 4l-2-3 2-9v-1z"/><path fill="#932b4b" d="M207 77c2-1 3-6 5-2l1 1c-1 2-3 4-5 4l-1-2v-1z"/><path fill="#b57690" d="M213 73h3l-1 4-2-1-1-1 1-2z"/><path fill="#d5898d" d="M120 77c0-2 1-3 2-3 4 0-1 5 4 5v2l-4-1c0-1 0-3-2-3z"/><path fill="#d99898" d="M136 74c2 3-3 4-4 6l-1 5-2 1-2-3c1-1 4-1 3-4v-1c3 0 4-2 6-4z"/><path fill="#cfdeef" d="M722 75c5 1 10 1 15-1 13 0 25 7 38 9 8 3 17 2 26 3 3-1 5-3 8-3 6 0 13 2 19 0l1-2 4 4c-16 7-32 13-49 18 2-2 4-5 2-8l-3-6c-11-5-22-5-33-10-4-3-9 1-13-3-4 2-9 2-14 2-2 2-2 5-3 8l-7-2c0-2 4-3 4-5 1-2 2-4 5-4z"/><path fill="#d5e3f2" d="M913 82c4-2 5-7 9-8v18c-6 0-14 1-17 7 1 3 4 5 3 9-3 1-7-1-9 2-2 2 0 5 1 7-2 2-5 1-7 0l-9-2c4-10 8-20 16-28l5 1c2-3 4-6 8-6z"/><path fill="#d68f89" d="M34 78c1-2 3-2 5-3l3 3-2 1-2 5 5 1c1 2 0 3-1 4l-4-1-2-2c1-3 2-7-2-8z"/><path fill="#99324f" d="M150 78c1-3 4-2 7-3v3l-2 1c-2 1-4 2-4 4-1-1-2-3-1-5z"/><path fill="#c27b5a" d="M851 75h1c1 0 3 1 3 3l-3-1-4 1v-1l3-2z"/><path fill="#b54c61" d="M45 77c2 2 3 0 5-1l-1 5c1-3-3-2-3 0-2 2-4-1-6-2l2-1 3-1z"/><path fill="#d4838a" d="M76 77c1 1 1 0 2-1v4c0 4 3 3 5 2 2 0 2 2 3 3l-2 1-6-1c-2 0-4-1-3-4v-4h1z"/><path fill="#6a413c" d="M200 76l7 1v1l-1 5c-1-3-5-4-6-7z"/><path fill="#b65368" d="M208 80c2 0 4-2 5-4l2 1c-2 1-2 2-1 4-2 0-4 1-4 3v3l-3-3c3 1 1-2 1-4z"/><path fill="#dbe8f5" d="M631 77c4-3 5 3 7 5-4-3-8-2-13-3l-2 5c2 5 10 4 11 10-3 0-8 0-9 4 1 2 4 4 6 2 3-4 8-3 13-2 2-4 5-10 1-13-3 0-5-1-7-3h2c3 2 7-1 11 0l2 11c-3 1-6 2-7 5-1 5-7-1-10 2-3 4-9 7-14 5-3-2-6 3-9 0-1-1-2-5 1-5 5-2 10-4 14-8-2-3-7-5-8-9l-5-4c3-5 11 0 16-2z"/><path fill="#d7e5f3" d="M723 78c5 0 10 0 14-2 4 4 9 0 13 3 11 5 22 5 33 10l3 6c2 3 0 6-2 8l-3 1-7-3c-3-2-6 0-8 2l-2 1-2 1h-1l-3-1-3-1c-8 1-8-14-17-10l-4 1-2 1h-1a148 148 0 01-5-5l-4-3-2-1c1-3 1-6 3-8z"/><path fill="#dfa7aa" d="M860 76c4 0 3 5 4 8-2 1-4 2-4 4-1-1-4-1-4 1l-1 5-2 2-2-3v-1c1-1 4-2 3-5v-1c3 1 6-1 8-3l-2-7z"/><path fill="#adc7e0" d="M105 80c4 1 7-3 12-3v1l-2 5 4 4-14-7z"/><path fill="#e2b5ad" d="M120 77c2 0 2 2 2 3l4 1c0 1 1 3-1 4-1-1-3-5-3-1-2-2-1-5-2-7z"/><path fill="#683235" d="M143 77l7 1c-1 2 0 4 1 5l1 1-2 2c-2-2-3-6-7-6v-1-2z"/><path fill="#c09693" d="M215 77c2 0 5-1 3 2l-3 2h-1c-1-2-1-3 1-4z"/><path fill="#b45165" d="M848 78l4-1 1 3c0 2 0 2-1 0-2 3-4 1-6 0v-1l2-1z"/><path fill="#be8963" d="M126 79l3-1 1 1c1 3-2 3-3 4l-1 4c-1 0-3-2-1-2 2-1 1-3 1-4v-2z"/><path fill="#f4e6e9" d="M134 81c3 0 6-4 9-2v1l-5 7c-3 1-5-1-7-2l1-5c1 1 1 2 2 1z"/><path fill="#bd9798" d="M157 78h5c-1 1-3 3-3 5l-3-1-1-3 2-1z"/><path fill="#69142a" d="M207 78l1 2c0 2 2 5-1 4l-1-1 1-5z"/><path fill="#dfa6b1" d="M34 81v-3c4 1 3 5 2 8-2-1-1-3-2-5z"/><path fill="#c76975" d="M38 84l2-5c2 1 4 4 6 2 0-2 4-3 3 0l-1 6v1l-3 5-1-3c0-2 2-3 3-3-1-2-2-2-4-2l-5-1z"/><path fill="#bc8d43" d="M83 82l2-3 2 4-1 2c-1-1-1-3-3-3z"/><path fill="#c37368" d="M85 79h3c0 2 2 4-1 4l-2-4z"/><path fill="#cb9d87" d="M88 79h2l1 1 1 4v3l-4-2 2 5c-3 3-3-3-4-5l1-2c3 0 1-2 1-4z"/><path fill="#ba4b62" d="M151 83c0-2 2-3 4-4l1 3c-2 0-3 0-4 2l-1-1z"/><path fill="#b7b4b4" d="M215 81l3-2v6l-5-1c1-2 5-1 2-3z"/><path fill="#e4eef7" d="M625 79c5 1 9 0 13 3 2 2 4 3 7 3 4 3 1 9-1 13-5-1-10-2-13 2-2 2-5 0-6-2 1-4 6-4 9-4-1-6-9-5-11-10l2-5z"/><path fill="#524748" d="M101 82c0-3 2-2 4-2a140 140 0 0018 9l14 8-2 2-26-13-2-1-6-3z"/><path fill="#ca6c83" d="M844 80h2c2 1 4 3 6 0 1 2 1 2 1 0 1 1 3 2 3 4-2-2-2 0-2 2v1l-2-4-3 4c-3 0-4-2-6-4l1-3z"/><path fill="#b88870" d="M210 84c0-2 2-3 4-3h1c3 2-1 1-2 3h-3z"/><path fill="#cddff0" d="M662 82c2-2 4 0 6 1l10-2 1 6 5-2c6 0 12 1 15 6 2 4 4-1 6-2-1 4-3 9-1 13v4c-3 1-7 2-9 4v10c-5-1-11-3-16-1 0 5 4 8 8 10 2 5-4 6-7 7-7 3-11-6-19-4-1 3-3 6-7 6-2-2-6-4-5-7 2-3 7 2 9-2 1-2 1-6-1-9-4 2-8 1-12 2l-6 4c-2 2-1 8 4 4 2 1 1 3 1 5l-6 3c-1 2 1 3 2 4l7 2c7 1 13 2 19 5 6 5 14 2 20 2 4-1 8 0 11-2 3-3 7-1 10-2 2 0 5 1 5 3l-5 5-4 3c0-3 6-8-3-5l-20 1c-1 3-3 5-6 5-4-2-9-4-10-9l-17-3c-5-4-13-1-18-5-1-5 6-6 8-10-6-1-11-5-17-4-8-2-15 5-23 4-6 3-5-4-9-5-6-2-13 1-20-1l-15-2c-3-3-4-7-3-10 0-6-7-9-7-14 4-1 7 4 12 2-2 1-4 3-4 6l4 5 3 6c6-2 11 3 17 2 5-2 11 0 17-1 3 3 2 7 6 9 2 2 5-1 7-1 8-1 15-5 23-5l10-10c2-1 0-3 0-4-8 3-17 3-23 9l-4-5h-8c1-2 1-5 3-6-2 6 5 4 9 5 3-2 6-4 10-2 2-4 5-2 8-1l4-8 5 4 7-7c3 1 6 1 9-1 3-1 7 3 4 5-3 4-7 8-11 10-4 0-3 7 0 7 4 1 5-5 9-4 3 0 1 3 1 5 3 1 6 2 4 7 3 3 8 5 13 4 3-2 0-7-2-9-2-3 0-7 0-10 5 0 9 3 14 2l6-6c3-6 3-14-2-19l-10-2c-2 2 2 7-3 7l-5-10c-5-1-10 1-14-2z"/><path fill="#d77c91" d="M54 82c2 0 0 4 2 3l3-2h1v3c-4-2-8 6-12 2v-1l2-4 2 3c3 1 2-2 2-4z"/><path fill="#a8c3de" d="M96 84l5-2 6 3-7 1c-2 0-3 0-4-2z"/><path fill="#b57973" d="M152 84c1-2 2-2 4-2l3 1v1c-2-1-4-1-5 1s-3 4-4 1l2-2z"/><path fill="#cbdef0" d="M614 82c5 1 6 6 10 8 1 7-9 6-13 9 0 4-1 7-5 8-2 1-2 4-3 6h8l4 5c6-6 15-6 23-9 0 1 2 3 0 4l-10 10c-8 0-15 4-23 5-2 0-5 3-7 1-4-2-3-6-6-9-6 1-12-1-17 1-6 1-11-4-17-2l-3-6-4-5c0-3 2-5 4-6 3-2 7-1 10-1 2 2 3 6 7 7 5 1 8-2 12-3a2918 2918 0 0116-3c2-4 6-8 11-8 3-1 1-5-2-5l5-7z"/><path fill="#e5bec4" d="M60 83l2 5c-1 2-4 3-6 3-1-3 3-3 4-5v-3z"/><path fill="#b8a9ad" d="M154 85c1-2 3-2 5-1 3 4-3 3-5 1z"/><path fill="#d18d85" d="M841 84l2-1c2 2 3 4 6 4l3-4 2 4c1 3-2 4-3 5l-1-4c-1 1-3 2-4 1s-3-3-5-3v-2z"/><path fill="#efdcdf" d="M868 83c2 3 1 8-2 10-2-1-4-3-7-3l1-2c3-2 8-1 8-5z"/><path fill="#b1c3da" d="M92 84h3l1 4-3 4 1 4-5-2c1-2 3-4 3-7v-3z"/><path fill="#ba5767" d="M95 84h1c1 2 2 2 4 2l3 1c-3 1 0 2 0 5h-1c-2 0-6-1-6-4l-1-4z"/><path fill="#f5dce4" d="M713 84a20 20 0 019 3l-8 6-4-4c1 5-2 10-6 13-2-4 0-9 1-13 3-1 7-1 8-5z"/><path fill="#bb8a40" d="M43 85c2 0 3 0 4 2-1 0-3 1-3 3-1 1-3 2-2-1 1-1 2-2 1-4z"/><path fill="#dba29a" d="M48 88c4 4 8-4 12-2-1 2-5 2-4 5-2-1-2 0-2 2-3 2-1-1-1-3-3 1-5 4-6 7h-4l1-5c-3 0-4-3-6-4l4 1c-1 3 1 2 2 1l1 3 3-5z"/><path fill="#e4b2a8" d="M78 85l6 1c-2 1-2 3-1 4-2 0-2-2-3-3v3c-2-1-2-3-2-5z"/><path fill="#ca92a7" d="M100 86l7-1-4 2-3-1z"/><path fill="#e0c9d4" d="M107 85l2 1-2 2c0 2 0 4-2 5v-1l-2-5 4-2z"/><path fill="#443535" d="M784 103c17-5 33-11 49-18l2 1-2 3c-13 5-25 12-39 15l-10 4c-2-1-5-1-3-4l3-1z"/><path fill="#afcbe6" d="M109 86l26 13c-2 2 0 4 1 6l-2 3-12 3 1 4c-6-7-16-8-23-14v-6c2 2 4 1 5-2 2-1 2-3 2-5l2-2z"/><path fill="#d8e6f3" d="M669 86c8-2 13 7 10 14 2 5 11 2 14 6-2 7-13 7-15 1l-4 2c-3 4-11 3-13-2 1-3 4-6 7-8 2-4-4-12 1-13z"/><path fill="#62524b" d="M835 86h2c1 2 0 3-1 5-3 3-6 7-6 12l-2 3-3-1v-1c2-5 6-9 9-14l-1-1 2-3z"/><path fill="#e2afa8" d="M841 86c2 0 4 2 5 3v2l-1 3c-3-2-2-6-4-8z"/><path fill="#e09b9c" d="M103 92c0-3-3-4 0-5a347 347 0 010 5z"/><path fill="#efccd5" d="M714 93l8-6 4 3-10 7c-2-1-5-1-6 1 0 4-3 7-6 8v-4c4-3 7-8 6-13l4 4z"/><path fill="#ebc4b7" d="M856 89c0-2 3-2 4-1l-1 2c-1 2-2 0-3-1z"/><path fill="#eed5d9" d="M62 88l7 1v3c-5-1-10 3-15 1 0-2 0-3 2-2 2 0 5-1 6-3z"/><path fill="#d8949a" d="M93 92l3-4c0 3 4 4 6 4l-2 3c-3 0-2 4-1 5l-3-2c0-2 3-5 1-7-1 2-3 2-4 1z"/><path fill="#d2ad8f" d="M846 89c1 1 3 0 4-1l1 4v1c0 2 0 5-3 4 1-3 2-7-2-6v-2z"/><path fill="#f5e5e9" d="M19 92c2-3 4-3 7-2l2 3v2c-1-1-3 0-4 1l-7 3v-4l2-3z"/><path fill="#cadcee" d="M794 104c14-3 26-10 39-15l1 1c-3 5-7 9-9 14l-8-1-5 2-2 6c-2 1-4 3-4 6v5l6-2c1-2 2-4 4-4l2 6c3 0 6-4 7 0v1c-5 2-11 4-15 7l-12 3c-3 0-5 4-9 3l1-6c0-2-1-4 1-4 2-2 0-5-1-6 0-2-2-3-4-3l-3-1 1-8 10-4z"/><path fill="#faeaef" d="M856 89c1 1 2 3 3 1 3 0 5 2 7 3l-2 3c-3 1-6 0-9-2l1-5z"/><path fill="#d4928e" d="M28 93c2-2 3-4 5-1 2-4 0 2 3 3l4 4-2 4h-1v-5c-3 0-5-2-4-5-3 1-3 5-6 6l1-4v-2z"/><path fill="#e5b9c1" d="M716 97l10-7 2 2c-3 1-5 3-7 6h-1c-2 1-8 0-7 4 1 3-2 4-4 6-3 1-2 5-4 6h-3c-1 2 2 2 3 2 0 2-3 1-4 1l2 3c0-2 2-2 4-2 0 1-2 4 1 3h2c-1 3-3 5-6 4s-4 3-2 4l5-2s3 2 1 2-2 1-2 3c-3 0-6 0-8-3-3-2-2-6-3-9v-10c2-2 6-3 9-4s6-4 6-8c1-2 4-2 6-1z"/><path fill="#61534e" d="M14 94c-1-4 2-3 5-2l-2 3-3-1z"/><path fill="#e3bec9" d="M97 91c2 2-1 5-1 7l-2-2-1-4c1 1 3 1 4-1z"/><path fill="#b4b2a4" d="M100 95l2-3h3v1c-1 3-3 4-5 2z"/><path fill="#dc9eae" d="M721 98c2-3 4-5 7-6l2 2-9 4z"/><path fill="#cee0f1" d="M905 99c3-6 11-7 17-7v35c-2 1-5 0-7 2-1 4-1 10-7 7-2-2 0-6-2-8-6-2-12-1-17-4l-8-5 3-4 9 2c2 1 5 2 7 0-1-2-3-5-1-7 2-3 6-1 9-2 1-4-2-6-3-9z"/><path fill="#c5636a" d="M27 99c3-1 3-5 6-6-1 3 1 5 4 5v5l-2 2c-1 2-3 2-5 3h-1l-1-1-1-8m2 2l1 5c4 1 3-3 4-5-2 2-3 2-5 0z"/><path fill="#e5b5b2" d="M36 95c0-1 1-2 3-2l1 6-4-4z"/><path fill="#ecc3cb" d="M734 94l4-1c0 3 1 7 5 7l-1 16-2-1v-13l-5-2-1-6z"/><path fill="#f6d8e0" d="M738 93c9-4 9 11 17 10-3 3-4 7-8 9 1 3 2 7-2 9a76 76 0 01-3-5l1-16c-4 0-5-4-5-7z"/><path fill="#e3acb3" d="M24 96c1-1 3-2 4-1l-1 4c-3-1-5 1-3 4a594 594 0 010-7z"/><path fill="#524646" d="M88 94h1l5 2a94 94 0 005 4l1 1c7 6 17 7 23 14 1 2-2 0-3 0l-20-10c-4-4-9-6-12-11z"/><path fill="#d48a9e" d="M721 98l9-4 1 1-1 2c-2-2-4 2-6 2-2 1-4 3-5 6l-3-1c-1-3 3-4 4-6h1z"/><path fill="#e5b0b9" d="M732 95l2-1 1 6 5 2v13l-4-1v-10c-2-3-4-6-4-9z"/><path fill="#eaccd6" d="M99 100c-1-1-2-5 1-5v6l-1-1z"/><path fill="#f4e0e5" d="M144 96c5-3 10 0 9 5h-3l-6-3-3 5c-2 1-4 3-1 4 0 3 0 6 2 8h-6l-2-7 2-3c-1-2-3-4-1-6l2-2c2-2 5 1 7-1z"/><path fill="#dda0aa" d="M731 95h1c0 3 2 6 4 9v10h-2c-3-4-2-10-4-14v-3l1-2z"/><path fill="#e4c7cc" d="M17 99l7-3c-2 3-4 8 0 11v9l-4-1c0-3 2-6 1-9 0-4-1-5-4-5v-2z"/><path fill="#cb728c" d="M724 99c2 0 4-4 6-2v1c-4 2-9 4-8 9l-3-2c1-3 3-5 5-6z"/><path fill="#504342" d="M0 98h1l13 10 2 5c-7 0-9-9-15-11H0v-4z"/><path fill="#e7b8bd" d="M144 98l6 3c-2 1-5-2-6 0l-1 1-2 1 3-5z"/><path fill="#dba3ae" d="M713 102c-1-4 5-3 7-4-1 2-5 3-4 6l3 1-1 3h-9c2-2 5-3 4-6z"/><path fill="#c25879" d="M722 107c-1-5 4-7 8-9v2l-1 4c-3-3-7 1-6 4l-1-1z"/><path fill="#d27588" d="M24 103c-2-3 0-5 3-4l1 8-4-4z"/><path fill="#d79595" d="M144 101c1-2 4 1 6 0h4v2h-3l-7-2z"/><path fill="#d48f9b" d="M730 100c2 4 1 10 4 14-3 0-4-3-6-4l1-6 1-4z"/><path fill="#f3d6df" d="M766 103c2-2 5-4 8-2l7 3c-2 3 1 3 3 4l-1 8c-5 1-10-5-9-10-4 1-6-2-8-3z"/><path fill="#a83450" d="M29 101c2 2 3 2 5 0-1 2 0 6-4 5l-1-5z"/><path fill="#ebcccd" d="M49 101c4 1 8 2 11 5v1c-1 0-4 1-2-2h-8l-1-4z"/><path fill="#cb6978" d="M144 101l7 2v3l1 3c-3 1-7 3-9 0l-2-2c2-1 2-3 2-5l1-1m1 4l-1 3c1 2 3 0 5 0-1-1-2-4-4-3z"/><path fill="#e8c6cc" d="M154 101l4 2v7a153 153 0 01-15 6l-1-1c-2-2-2-5-2-8h1l2 2v5c3-1 7-2 9-5 2-1 1-3 1-5a5111 5111 0 011-3z"/><path fill="#eef3f9" d="M0 102h1v35c0 3 1 6-1 9v-44z"/><path fill="#b8d1e9" d="M1 102c6 2 8 11 15 11l3 2c-5 4-10 11-18 10v-23z"/><path fill="#e199a9" d="M141 103l2-1c0 2 0 4-2 5h-1c-3-1-1-3 1-4z"/><path fill="#dc879d" d="M24 103l4 4 1 1v1l-2 2h-1c-1-1 0-3-2-4v-4z"/><path fill="#dfaab7" d="M37 103h1c3 3 1 6 0 9l-9-3v-1h1l7 1c0-2 0-3-2-4l2-2z"/><path fill="#be9061" d="M151 103a345 345 0 002 1l-2 2v-3z"/><path fill="#c84068" d="M723 108c-1-3 3-7 6-4l-1 6h-4l-1-2z"/><path fill="#edc7d0" d="M755 103l3 1c-4 2-4 8-9 10 1 3 1 8-3 9l-1-2c4-2 3-6 2-9 4-2 5-6 8-9z"/><path fill="#edbec4" d="M764 104l2-1c2 1 4 4 8 3-1 5 4 11 9 10l3 1-2 6-2 1c-2 0-2 1-2 3h-1c-3-3 4-6 2-10a291 291 0 00-6 0c-2-2-3-5-3-8-3-1-6-2-8-5z"/><path fill="#cbada6" d="M812 105l5-2-1 2c-2 1 1 2 2 3 2 2-1 5 1 6 1 2 5-1 4 2 0 2 2 2 3 3l-1 3c-1-4-4 0-7 0a40 40 0 01-3-9c2-2 0-2-2-2l-1-6z"/><path fill="#b66b76" d="M817 103l8 1v1h-4l1 6c3 0 4 2 5 4v2l-1 2c-1-1-3-1-3-3 1-3-3 0-4-2 2-2 2-5 1-8l-4-1 1-2z"/><path fill="#cadcef" d="M828 106l2-3c5 0 10-1 14 2l7-1c0 3 1 7-1 9s-6 0-9 1l-4 2h-1l-5-6-3-4z"/><path fill="#d89591" d="M151 106l2-2c0 2 1 4-1 5l-1-3z"/><path fill="#e5b7be" d="M749 114c5-2 5-8 9-10l3 1c-4 1-3 7-7 9-6 1 1 5-2 8l-1 2-2 6 4 1v1l-1 4c2-2 3-4 4-1l1 2c0 2 0 5 3 4-5 2-12 3-13-3l-4-8v-5l-5 1-1-2c3 0 6 0 8-3l1 2c4-1 4-6 3-9m4 23c-2 1-1 4 1 3 2 0 1-3-1-3z"/><path fill="#e1a9b3" d="M762 105l2-1c2 3 5 4 8 5 0 3 1 6 3 8l-4 1c-1-3-3-7-7-9l-1-1-1-3z"/><path fill="#d77f93" d="M30 108c2-1 4-1 5-3 2 1 2 2 2 4l-7-1z"/><path fill="#dfa6a0" d="M50 105h8c-2 3 1 2 2 2l2 2h-3l-9-3v-1z"/><path fill="#af3b56" d="M145 105c2-1 3 2 4 3-2 0-4 2-5 0l1-3z"/><path fill="#ce8c98" d="M719 105l3 2 1 1 1 2-6-1v-1l1-3z"/><path fill="#d78fa2" d="M754 114c4-2 3-8 7-9h1l1 3h-3l-4 9c-2 0-2-2-2-3z"/><path fill="#dec4cf" d="M810 111l2-6 1 6-2 1-1-1z"/><path fill="#c68a90" d="M818 108c-1-1-4-2-2-3l4 1c1 3 1 6-1 8-2-1 1-4-1-6z"/><path fill="#974056" d="M821 105h4l3 1 3 4v4l-4-2v3c-1-2-2-4-5-4l-1-6z"/><path fill="#da889a" d="M49 111l1-5 9 3-2 2h-1c0-3-3-1-4-2-2-2-2 1-3 2z"/><path fill="#c29577" d="M60 106a323 323 0 006 0l-3 4c2 0 7-3 6 1h-4l-2 1c-1-1-2-2-1-3l-2-2v-1z"/><path fill="#e8c6cd" d="M66 106c3 0 5 2 7 4v12c-2 2-4 2-7 3-3-3-6 0-7 4-4-1-7 2-11 4l-2-1 1-3c3 1 6-1 9-1 2-1 1-3 1-5l6-1c1-2 3-3 5-3l-2-2c1 0 3 0 3-2l-4 1c2-1 2-3 0-5h4c1-4-4-1-6-1l3-4z"/><path fill="#e7aeb8" d="M24 107c2 1 1 3 2 4v1h-2v-5z"/><path fill="#cd768f" d="M760 108h2c0 2-4 5-2 8l1 2-5-1 4-9z"/><path fill="#cf5f78" d="M49 111c1-1 1-4 3-2 1 1 4-1 4 2l-4 4-3 2v-6z"/><path fill="#bad3eb" d="M122 111l12-3 2 7 1 3-12 6c-3-2-7-2-11-1-6 1-11-3-15-7-5-1-6 5-10 6l-12-3-4-5v-4c3 5 10 3 14 5 4 3 8-3 12-2 7 2 14 2 21 2 1 0 4 2 3 0l-1-4z"/><path fill="#da9897" d="M705 114c2-1 1-5 4-6 2 3 0 6-2 8 3 2 3 3 1 5-3 1-1-2-1-3-2 0-4 0-4 2l-2-3c1 0 4 1 4-1v-2z"/><path fill="#cf7678" d="M709 108h9v1h-2c-2 0-4 0-4 2l7 2h-4c-3 0-4 2-5 3 3 0 4 1 3 4 0 2-1 1-3 1h-2c2-2 2-3-1-5 2-2 4-5 2-8z"/><path fill="#c45d7c" d="M762 108h1l1 1 1 4c-3-2-4 1-5 3-2-3 2-6 2-8z"/><path fill="#c07a5d" d="M59 109h3c-1 1 0 2 1 3l-2 3-4-2v-2l2-2z"/><path fill="#dea4b2" d="M143 109c2 3 6 1 9 0-2 3-6 4-9 5v-5z"/><path fill="#c6506c" d="M712 111c0-2 2-2 4-2l8 4h-5l-7-2z"/><path fill="#ae2e4c" d="M716 109h2l6 1 5 5h-1l-8-1 4 2-3 1c-2-2-6-1-6-4a132 132 0 019 0l-8-4z"/><g fill="#b26230"><path d="M724 110h4l4 8-1 1c-1 1-2 3-3 2l1-6-5-5zM763 120c1-2 3-2 5-1h1c3 1 1 6 2 8l-3-6c-1-2-4-1-5-1z"/></g><path fill="#d795a0" d="M764 109c4 2 6 6 7 9l-2 1h-1l-3-6-1-4z"/><path fill="#cd496b" d="M728 110c2 1 3 4 6 4h2l4 1 2 1-2 2h-8l-4-8z"/><path fill="#aa7682" d="M831 110l5 6c0 4-3-1-5-1v-1-4z"/><path fill="#f1d4d9" d="M26 111h1l6 2c4-2 5 1 6 3-5 0-9-1-13-4v-1z"/><path fill="#db7791" d="M45 113l4-2v1c-2 2-4 4-1 7l-3-1-3-1c0-2 3-2 3-4z"/><path fill="#9f344a" d="M56 111h1v2l-5 2 4-4z"/><path fill="#e0aba4" d="M63 112l2-1c2 2 2 4 0 5l4-1c0 2-2 2-3 2l2 2c-2 0-4 1-5 3-1-3 2-7 0-10z"/><path fill="#daaab6" d="M806 117c0-3 2-5 4-6l1 1c-1 2-3 3-3 5l3-1c-1 2-4 4-5 1z"/><path fill="#d0909d" d="M811 112l2-1c2 0 4 0 2 2l-4 3-3 1c0-2 2-3 3-5z"/><path fill="#f7e4ea" d="M24 112h2c4 3 8 4 13 4 2 4-1 9 3 12l1 5c-4 1-7-1-9-5l-2-8c-3-1-7 0-8-4v-4z"/><path fill="#c37257" d="M49 112v5c0 2 2 2 3 3v1h-3l-1-2c-3-3-1-5 1-7z"/><path fill="#d68e8b" d="M61 115l2-3c2 3-1 7 0 10l-6 1v-1c2-2 6-4 4-7z"/><path fill="#c8476a" d="M760 116c1-2 2-5 5-3l3 6c-2-1-4-1-5 1h-2v-2l-1-2z"/><path fill="#be8b8b" d="M827 112l4 2v1l-1 2h-3v-2-3z"/><path fill="#de96a8" d="M44 113h1c0 2-3 2-3 4l-2-1 4-3z"/><path fill="#c95e77" d="M52 115l5-2 4 2c2 3-2 5-4 7h-3l-2-1v-1l6-1-6-4z"/><path fill="#e5bd76" d="M702 114h3v2c-1 0-4 0-3-2z"/><path fill="#b95069" d="M710 116c1-1 2-3 5-3 0 3 4 2 6 4v1l-6 2h-2c1-3 0-4-3-4z"/><path fill="#eac8d1" d="M811 116l4-3 1 3c-2 0-3 2-4 4l-6 2v-5c1 3 4 1 5-1z"/><path fill="#c5d9ed" d="M73 114l4 5 12 3c4-1 5-7 10-6 4 4 9 8 15 7 4-1 8-1 11 1l12-6-1-3h6l1 1c2 3 5 6 9 3 1 4 5 5 8 8-2 0-4 1-3 4l14 10c0 3 2 7-1 9h-21c-7 2-16 4-23-1 3 0 6 2 9-1-2 0-5-1-6-3 3-1 3-4 2-7-1-2-3-3-2-5h-2c-2-1-3 1-3 3-1 4-5 5-9 4-2-3 0-10-6-10a101 101 0 01-4 0c-1-3-3-7-6-7-4-1-5 2-7 4l-2 2h-5l-3 6-15-5-1-4v-1c3-1 5-1 7-3v-8z"/><path fill="#83132b" d="M720 114l8 1-3 5h-2c1-1 5-5 1-4l-4-2z"/><path fill="#dba4af" d="M752 122c3-3-4-7 2-8 0 1 0 3 2 3l1 3-3 2h-2z"/><path fill="#a2344c" d="M49 117l3-2 6 4-6 1c-1-1-3-1-3-3z"/><path fill="#db4474" d="M728 115h1l-1 6-2 1-1-2 3-5z"/><path fill="#caa6af" d="M830 117l1-2c2 0 5 5 5 1h1c-1 2 0 5-3 7l-2-4-2-2z"/><path fill="#f1d5db" d="M39 116h1l2 1c1 4 1 9 5 11v1l-1 3-3 1-1-5c-4-3-1-8-3-12z"/><path fill="#c2405b" d="M724 116c4-1 0 3-1 4h-1l-1-2v-1l3-1z"/><path fill="#df8c9c" d="M742 116l1 2-6 6 1 2v1l-7 5v-3l4-3 5-8 2-2z"/><path fill="#564a4a" d="M153 117l2 2 1 1c4 4 9 7 12 12l-1 1-7-6c-3-3-7-4-8-8l1-2z"/><path fill="#d2e2f2" d="M266 119c5-1 10-3 16-2l1 2c3 4 9 5 13 3 2-3 3-7 8-5 1 2 3 5 3 8l-8 2c-4-2-9 1-9 5s-10 2-5-3c-4 1-6 3-8 6-6 1-13-1-19-1-2-3-6-6-9-3-3 6-11 5-15 9-4 3-10 3-15 2-5 1-8-3-12-5-6-2-13 0-17 4-1 2-3 2-5 1l-4-5c2-2 4-5 8-3 8 1 14-2 21-5 6 0 11-2 16-3 5-3 9 4 14 1 9-2 16-8 26-8z"/><path fill="#cf5d7c" d="M732 118h3c1 4-2 6-4 9v-8l1-1z"/><path fill="#d0909b" d="M756 117l5 1v2h-4l-1-3z"/><path fill="#ca4e6e" d="M771 118l4-1h3c1 1 1 2-1 3l-5 1c2 4 2 7 2 11-4 1-5-3-8 0a364 364 0 011-6v-2l1-3 3 6c-1-2 1-7-2-8l2-1z"/><path fill="#dc999c" d="M778 117h3c2 4-5 7-2 10l-3 9-6 1-3 1c-1 1-2 0-2-1-2 1-4 2-4 4h-1c-3 1-3-2-3-4l2-2v3l4-5 1 2c3-2 7-1 11-1l2-14c2-1 2-2 1-3z"/><path fill="#f6d2d2" d="M786 117c2 0 4 1 4 3-1 2-3 4-6 3l2-6z"/><path fill="#e2c7cf" d="M827 117h3l2 2c-2 1-4 4-7 4v-1l1-3 1-2z"/><path fill="#e2b3be" d="M45 118l3 1 1 2a1132 1132 0 01-1 7c2-1 8-1 6-5h3c0 2 1 4-1 5-3 0-6 2-9 1v-1l-2-10z"/><path fill="#c7dcef" d="M679 119c5-2 11 0 16 1 1 3 0 7 3 9 2 3 5 3 8 3l4 1c-1 6 2 11 7 13l-5 4c0-2-3-3-5-3-3 1-7-1-10 2-3 2-7 1-11 2-6 0-14 3-20-2-6-3-12-4-19-5l-7-2c-1-1-3-2-2-4l6-3c0-2 1-4-1-5-5 4-6-2-4-4l6-4c4-1 8 0 12-2 2 3 2 7 1 9-2 4-7-1-9 2-1 3 3 5 5 7 4 0 6-3 7-6 8-2 12 7 19 4 3-1 9-2 7-7-4-2-8-5-8-10z"/><path fill="#d9627e" d="M715 120l6-2 1 2-4 2-1-1-2-1z"/><path fill="#d67088" d="M735 118h5l-5 8-4 3v-2c2-3 5-5 4-9z"/><path fill="#eca7ab" d="M743 118l2 3c-2 3-5 3-8 3l6-6z"/><path fill="#c34e6d" d="M728 121c1 1 2-1 3-2a157 157 0 000 10v1c-2 2-8-3-4-4l-1-4 2-1z"/><path fill="#d6e4f2" d="M865 139l16-20 8 5c5 3 11 2 17 4 2 2 0 6 2 8 6 3 6-3 7-7 2-2 5-1 7-2v20c-5 0-10 1-14-1-4 0-8 2-11 3-6-2-12 1-19 1l-11-4c0-2 2-4 0-5h-5l3-4v2z"/><path fill="#b8924a" d="M713 120h2l2 1-6 4-4 2-5 2c-2-1-1-5 2-4s5-1 6-4c2 0 3 1 3-1z"/><path fill="#9f2f4a" d="M718 122l4-2h2l-2 2-5 3 1-3z"/><path fill="#c34e69" d="M724 120h1l1 2c-2 1-1 5-4 5-2-1 0-4 0-5l2-2z"/><path fill="#c95271" d="M754 122l3-2h1a880 880 0 003 3l-4 1c-2 0-3 0-3-2z"/><path fill="#ac2145" d="M758 120h5c1 0 4-1 5 1l-1 3a880 880 0 01-9-4z"/><path fill="#d37083" d="M772 121l5-1-2 14c-4 0-8-1-11 1l-1-2v-1l3-3v3c3-3 4 1 8 0 0-4 0-7-2-11z"/><path fill="#f7dfe5" d="M784 123c3 1 5-1 6-3 1 1 3 4 1 6-2 0-1 2-1 4-1 4-5 5-9 6h-1l5-5c-2-2-4-4-3-7l2-1z"/><path fill="#d7e4f2" d="M869 122c1-2 6-3 5 0l-3 4c-1-4-5 1-5 4h-11c-3 2-1 6-1 9-3 1-6 0-9 2-2 2-5 4-8 3-4 1-4 8-10 5-7 1-18-2-23 5-6 5-15 3-22 5-11 0-21 6-32 5-7 3-15 3-21 7-7 2-15 0-21 1s-10 4-16 4c-8 2-17-2-26 0-5-6-6-16-11-22-4-3-10 2-14-1-8-4-16-4-24-9-1-4-5-6-8-7l-15 1 14-3c4 1 9 3 11 7 5 5 13 5 20 8 5 4 12 0 17 3s6 9 9 14c7 3 15 7 22 3 5 1 8-4 12-2 12-4 24-1 36-4 5-3 11-5 16-5l13-2c11-2 21-1 31-6 9-2 18-7 27-6 7 1 12-5 19-5 3-1 6-3 10-3v-6c2-4 8-1 11-2l7-7z"/><path fill="#d87d97" d="M49 121h3l2 1c0 2-3 4-6 2l1-3z"/><path fill="#c06d63" d="M717 121l1 1-1 3-1 1-5 2v-3l6-4z"/><path fill="#8e1a33" d="M764 122c3-2 4 0 3 2v2c-1-2-1-4-3-1l-3-2 3-1z"/><path fill="#cbddef" d="M17 123c1-2 2 2 4 2 5-1 8 5 13 5v-2c2 4 5 6 9 5l3-1 2 1 3 3 1 2c-2 2 4 4 1 6-6 0-13 5-19 1-5-2-11-3-17-3l-3-6c-4-3-9 0-13-1v-1l13-1c3 1 4 5 6 7 4 0 7 0 10-2 0-5-3-8-5-12-5 0-9-1-13 2-3 3-7 1-11 0v-2c6 2 11 1 16-3z"/><path fill="#dc9dae" d="M48 124c3 2 6 0 6-2h3v1h-3c2 4-4 4-6 5v-4z"/><path fill="#d16c78" d="M717 125l5-3c0 1-2 4 0 5 3 0 2-4 4-5l1 4c-4 1 2 6 4 4v2l-7-1c-1-4-6-2-8-5l1-1z"/><path fill="#cd6c76" d="M751 124l1-2h2c0 2 1 2 3 2l-1 4c3 0 6-1 8-3 2 2-1 4-2 6l-4-1-3 1-4-7z"/><path fill="#f5e6eb" d="M99 123c3 0 5 4 6 7l-4 2-1-2-8-3c2-2 3-5 7-4z"/><path fill="#b3455f" d="M757 124l4-1 3 2c-2 2-5 3-8 3l1-4z"/><path fill="#ab3851" d="M764 125c2-3 2-1 3 1l-1 3-3 3-1-1c1-2 4-4 2-6z"/><path fill="#f0d7de" d="M59 129c1-4 4-7 7-4v1c-3 1-4 4-5 7l-4-2c-3 1-5 3-6 5l-3-3c4-2 7-5 11-4z"/><path fill="#dc9a98" d="M749 130l2-6 4 7h-2l-4-1z"/><path fill="#f6ced6" d="M780 127c0-2 0-3 2-3-1 3 1 5 3 7l-5 5c-3-2 3-7 0-9z"/><path fill="#dae6f4" d="M866 130c0-3 4-8 5-4-2 4-3 8-6 11l-3 4h5c2 1 0 3 0 5l11 4c7 0 13-3 19-1 3-1 7-3 11-3 4 2 9 1 14 1v2l-17-1c-3 1-5 4-9 3-8 0-16 0-23 4-1-3-4-7-8-5 0 3 4 4 3 7l-8 3c-1-2-3-6-6-4-1-2-2-5-4-4-4-1 0 4-3 4-2-1-4 1-6 2-10-6-19 4-29 4-10-1-20 2-30 4-9-1-19-1-25 6-6 1-11 3-17 3-7-2-15 3-22 2l-29 4c-3 1-5-4-9-3-3 1-5-2-8 0-3 0-4 2-6 3l-7-5-1-10c-5-6-13-5-19-4l-22 3c-4 0-2-4-3-7l10-4c2-5-4-8-8-7-4 0-6-3-9-5-3 0-5 3-8 1-6-3-12 4-19 1-11 4-22 3-33 2-3 3 0 8-3 11-8 1-15 4-23 2l-17 3c-4 3-10 2-15 1-3 2-7 2-11 2l-3 4-6-2c-4 3-10 5-14 1-6-3-13-7-20-7l-18 1c-2 1-1 4-3 5h-8c1 2-1 3-3 4-4 4-10 3-15 4l-7-2 3-12c-4-4-11-1-16-2-2-1-2-4-4-6-11 0-23-1-34 1-6-3-12-2-18-2-4-1-8 1-10 4l7 1c3-1 6-3 10-3 2 1 1 4 1 5-1 6 1 11 1 16-4-1-8 4-11 2l-9 2c0 3 3 3 3 5-6 1-11 2-16 5-4-1-7 1-10 3l-4-5-21 3c-16 3-32 6-48 7-5 1-10 0-13 3-11 2-21 6-32 7-3 1-5-2-7 0-4 4-11 2-16 4l-5 7c-6 3-5-4-7-6-5-1-9 1-13 3-7-1-13 3-19 6-2-1-5-2-7-1l-37 10c-3 4-7 3-11 3s-7 3-10 4l2 5c-4 3-9 7-14 9-3 0-5-3-8-1H1v-17l21-6c3 0 3-6 7-5 5 2 10-2 16-2 8 0 16-3 24-5 12-4 24-4 36-8 7-2 14-1 20-3 4-1 5 5 9 4 3-3 6-8 11-10l23-1c2-1 5 1 8-1 8-2 17-1 25-5l6-1c6 3 6-6 12-3v-2h-6c3-3 6-5 8-9 7 0 14-3 21 0 4-2 7-6 12-8 6 3 12 5 19 4 3-3 9-5 12-2 2 1 2 3 2 5 1 5-4 6-5 10 0 1 2 3 3 2 3-2 7-3 8-7 3-4 9-5 13-10 2-2 6-3 5-7l-4-2c-3 0-5 5-8 2s-8-2-11-6c-3-5 3-10 8-9 8 2 16-1 24 0l59 4h8c0 2-2 4 1 5 3 3 6 1 10 1 11 4 23 1 34 1 5 0 5-8 11-5l3-2c-1-1-4 0-4-3 9-2 20-3 29 2 1 3-2 4-4 5 0 2 1 3 2 3 8-1 16-6 24-2 4 0 9 0 11-5 7 0 13-3 19-3 8 4 18 1 24-5 4-4 10-1 14-3 4-1 7 3 10 3 6-2 13 0 17-4l6-2 15-1c3 1 7 3 8 7 8 5 16 5 24 9 4 3 10-2 14 1 5 6 6 16 11 22 9-2 18 2 26 0 6 0 10-3 16-4s14 1 21-1c6-4 14-4 21-7 11 1 21-5 32-5 7-2 16 0 22-5 5-7 16-4 23-5 6 3 6-4 10-5 3 1 6-1 8-3 3-2 6-1 9-2 0-3-2-7 1-9h11z"/><path fill="#d69398" d="M711 125v3l5-2c2 3 7 1 8 5l7 1v3c-3 0-5-3-8-2-2 0-2-1-1-2-3 2-4-3-7-1-2 0-6-1-4 2l-1 1-4-1c0-2 0-3 2-3s-1-2-1-2l4-2z"/><path fill="#f4cdd4" d="M738 126l5-1v5l4 8h-1c-3-3-8-2-12 0-3-4 6-5 5-9l-1-2v-1z"/><path fill="#d2e1f2" d="M12 128c4-3 8-2 13-2 2 4 5 7 5 12-3 2-6 2-10 2-2-2-3-6-6-7l-13 1v-6c4 1 8 3 11 0z"/><path fill="#f6e6eb" d="M61 133c1-3 2-6 5-7l1 4c2 7-6 7-10 10l-5-2-1-2c1-2 3-4 6-5l4 2z"/><path fill="#f1d4d8" d="M90 129l2-2 8 3c-7-2-12 6-11 12v1h-4l-3-3 7-3c0-3 2-6 1-8z"/><path fill="#e1a4b1" d="M731 132l7-5 1 2c-3 1-7 4-7 8-4 0-6-3-9-4 3-1 5 2 8 2v-3z"/><path fill="#e5b0bb" d="M779 127h1c3 2-3 7 0 9h1v2l-11-1 6-1 3-9z"/><path fill="#f9e7eb" d="M85 129h5c1 2-1 5-1 8l-7 3-1-3 1-2 3-6z"/><path fill="#e5b7b9" d="M715 130c3-2 4 3 7 1-1 1-1 2 1 2 3 1 5 4 9 4 0-4 4-7 7-8 1 4-8 5-5 9l1 1-2 2-14-7h-3l2-3h-3v-1z"/><path fill="#c5d9ee" d="M57 140c4-3 12-3 10-10v2l14 5 1 3 3 3-1 2c-2 4-7 3-11 5-6 3-11-3-17-2-3-1-5 2-6 4-2 1-6 0-6 3 9 1 18 1 27 4 7 0 15 0 22 3 3 6-4 6-6 10-3-2-5-4-7-2-6 0-11 2-17 3h-6c2-3 5-5 5-9-4 0-7 1-10 3-5 3-11 4-16 8-4 4-10 0-13 4-3 2-7 2-8 6 8 4 18-2 25 3l-20 3c-4 1-5 6-10 4-3 1-7 0-9-2v-24l7-1c7 0 14-3 21-1 2-1 1-4 1-5-1-2 2-3 0-4-1-2-3 1-4 2-8 3-4-2-3-4-5 0-10 0-14-2-4 0-2-8 3-3 6 2 13-1 19 1l6-2c-6-4-13-6-20-7-3 0-5-3-6-5-3-2-7-1-10-1v-2c4 1 9-2 13 1l3 6c6 0 12 1 17 3 6 4 13-1 19-1 3-2-3-4-1-6l5 2z"/><path fill="#534544" d="M67 130l15 5-1 2-14-5v-2z"/><path fill="#e7b5bb" d="M100 130l1 2c-2 2-5-1-7 1l-5 9c-1-6 4-14 11-12z"/><path fill="#d0988e" d="M105 130h2l-1 3 4-1c1 2-2 2-3 3h-1l-3-1c-3 0-7 1-9-1 2-2 5 1 7-1l4-2z"/><path fill="#dcb4b5" d="M107 130h2l1 2-4 1 1-3z"/><path fill="#ebcbd2" d="M109 130c6 0 4 7 6 10l1 2c-2 0-4 1-5 3-3 1-4 2-4 5-4 0-6 2-7 5l-4-1-4-5-3-6h3l6 9 6-4 1-4h2l4-5c-2 0-2-1 0-1l-4-3c1-1 4-1 3-3l-1-2z"/><path fill="#c98f55" d="M711 132c-2-3 2-2 4-2v1l-4 1z"/><path fill="#bd8548" d="M758 130l4 1 1 1v1c-2-1-4-1-4 2l-2 2-1-2 1-1c1-1 2-2 1-4z"/><path fill="#f9e6eb" d="M711 132l4-1h3l-2 3h3c0 4 3 10-1 12h-1c-5-2-8-7-7-13l1-1z"/><path fill="#d39b66" d="M753 131h2l3-1c1 2 0 3-1 4 1-3-2-2-4-2v-1z"/><path fill="#7d7a80" d="M168 132c1 1 3 3 3 5l-4-4 1-1z"/><path fill="#dca599" d="M753 132c2 0 5-1 4 2l-1 1c-1-3-2-1-4 1l1-4z"/><path fill="#c27172" d="M759 135c0-3 2-3 4-2l-4 5v-3z"/><path fill="#d06a82" d="M94 133c2 2 6 1 9 1l-1 1c-2 1-3 3-3 0-2 1-2 3-2 4v1l-1-3-2 2v-6z"/><path fill="#bf8054" d="M103 134l3 1v1l-2 2-2-3 1-1z"/><path fill="#db9c9d" d="M124 136c0-2 1-4 3-3-2 3 1 5 3 6l-2 3c-3 1-1-1 0-3-2 0-3-1-4-3z"/><path fill="#eccbd5" d="M127 133h2c-1 2 1 3 2 5l-1 1c-2-1-5-3-3-6z"/><path fill="#d6e4f3" d="M558 135c7-3 14-1 22-2 3 2 1 5 0 7 3 1 4-1 6-3l8 1-6 2c-4 4-11 2-17 4-3 0-6-4-10-3-4 2-10-1-14 3-6 6-16 9-24 5-6 0-12 3-19 3-2 5-7 5-11 5-8-4-16 1-24 2-1 0-2-1-2-3 2-1 5-2 4-5-9-5-20-4-29-2 0 3 3 2 4 3l-3 2c-6-3-6 5-11 5-11 0-23 3-34-1-4 0-7 2-10-1-3-1-1-3-1-5h-8l-59-4c-8-1-16 2-24 0-5-1-11 4-8 9 3 4 8 3 11 6s5-2 8-2l4 2c1 4-3 5-5 7-4 5-10 6-13 10-1 4-5 5-8 7-1 1-3-1-3-2 1-4 6-5 5-10 0-2 0-4-2-5-3-3-9-1-12 2-7 1-13-1-19-4-5 2-8 6-12 8-7-3-14 0-21 0-2 4-5 6-8 9a1273 1273 0 006 2c-6-3-6 6-12 3l-6 1c-8 4-17 3-25 5-3 2-6 0-8 1l-23 1c-5 2-8 7-11 10-4 1-5-5-9-4-6 2-13 1-20 3-12 4-24 4-36 8-8 2-16 5-24 5-6 0-11 4-16 2-4-1-4 5-7 5l-21 6v-9c14-7 29-10 45-11 5-3 11-4 17-2 1-2 3-4 5-3 4 2 7-2 11-1 5 0 9-3 13-3 3 0 8 3 5-4 1-3 4 2 6 2l4-3c7 0 14-5 21-3 3 0 3 4 6 4 3-2 8-4 7-9h6c6 1 10-4 15-2 3 1 7-1 9-3-10 0-21 1-31-1 2-3 6-2 8-4 4-2 8-1 12-2 8-3 17 2 25-1 12-6 25-8 39-9 6-3 13 1 19-2l16-5c4 1 8-2 10-5l-12-2c0-2-1-4 1-5 8-2 15 1 23 0l11-5c4-1 8 2 12 2 9-1 18 0 28-2 8-1 16 4 24 3 7 4 16 1 24 3l29-1c3 2 4 6 8 7l10-1c1-3 2-5 5-5 5 3 5-4 9-4 11-2 22-1 32 2 3-2 5 1 8 3 5-2 11-1 15-5 4 2 10 2 14 0 5-6 13-3 20-1 6-1 13-3 17-9l11-2z"/><path fill="#ebd3d6" d="M719 134l14 7c-2 4-6 4-10 5h-5c4-2 1-8 1-12z"/><path fill="#c55e6d" d="M97 139c0-1 0-3 2-4 0 3 1 1 3 0l2 3c1 1 2 1 2 3-2 1-5 1-2 3h-1l-6 1-3-2v-4l2-2 1 3-1 3 5-1c-1-2-2-5-4-3z"/><path fill="#e4b4ad" d="M106 135h1l4 3c-2 0-2 1 0 1l-4 5c0-3 1-6-1-8v-1z"/><path fill="#d5888c" d="M104 138l2-2c2 2 1 5 1 8h-3c-3-2 0-2 2-3 0-2-1-2-2-3z"/><path fill="#b86671" d="M124 136c1 2 2 3 4 3-1 2-3 4 0 3l-1 2-5 1c0-3-4-2-6-3l-1-2c4 1 8 0 9-4z"/><path fill="#f7e0e8" d="M734 138c4-2 9-3 12 0-3 4-7 1-11 1l-1-1z"/><path fill="#bed4eb" d="M1 137c3 0 7-1 10 1 1 2 3 5 6 5 7 1 14 3 20 7l-6 2c-6-2-13 1-19-1-5-5-7 3-3 3 4 2 9 2 14 2-1 2-5 7 3 4 1-1 3-4 4-2 2 1-1 2 0 4 0 1 1 4-1 5-7-2-14 1-21 1l-7 1v-18c3 2 3 6 6 8 0-5-3-10-7-12v-1c2-3 1-6 1-9z"/><path fill="#978c45" d="M753 137c2 0 3 3 1 3-2 1-3-2-1-3z"/><path fill="#f8e6ec" d="M761 141c0-2 2-3 4-4 0 1 1 2 2 1l1 1 4 8c-3 3-8-2-11-4v-2z"/><path fill="#e7c6cb" d="M767 138l3-1 11 1-1 2-12-1-1-1z"/><path fill="#a6334e" d="M97 139c2-2 3 1 4 3l-5 1 1-3v-1z"/><path fill="#c4b2a1" d="M130 139l1-1c1 3 1 6-2 7l-2-1 1-2 2-3z"/><path fill="#eed9dc" d="M768 139l12 1-2 4-6 3-4-8z"/><path fill="#dee9f5" d="M580 144c7 3 13-4 19-1 3 2 5-1 8-1 3 2 5 5 9 5 4-1 10 2 8 7l-10 4c1 3-1 7 3 7l22-3c6-1 14-2 19 4l1 10 7 5c2-1 3-3 6-3 3-2 5 1 8 0 4-1 6 4 9 3l29-4c7 1 15-4 22-2 6 0 11-2 17-3 6-7 16-7 25-6 10-2 20-5 30-4 10 0 19-10 29-4 2-1 4-3 6-2 3 0-1-5 3-4 2-1 3 2 4 4 3-2 5 2 6 4l8-3c1-3-3-4-3-7 4-2 7 2 8 5 7-4 15-4 23-4 4 1 6-2 9-3l17 1v16l-9 1c-5 0-10 2-15 0-9 0-18 2-27 1-4 0-8 2-11 0-4-2-9 1-13 1-7-1-13-3-19-1-5 2-10-1-15 1l-15 6c-9 0-17 1-25 4-5-2-10 1-15-1-4-1-7-3-11-1-5 2-11-1-16 3s-11 2-16 5c-4 1-9 0-12 3-1 2-3 1-4 0-2 0-3 2-4 3l-7 1v-5c-2-2-6 0-9-1-2-2-3-7-8-5-2 3-4 7-9 5-4-1-5-5-8-7-3-3 2-9-1-11l-17-1c-8-1-16 3-24 0 1-3 1-9-4-8-4 2-10 3-13-1l-1-6c-5 0-6 9-12 6l-12-4c-5-1-10 0-15-3l-8-1c0 5 0 13-6 13-9 2-19 0-28 4-6 3-14-2-20 1l-1 1c-5 2-9 9-15 8-1-5-8-7-12-4-5 2-9 5-15 4-7 2-14 1-22 0l-15 1c-4 3-10 1-14 1-7-1-13 4-19 0-5 2-6-5-11-3-4-1-6-5-11-4l-9-1c-2 3-3 7-8 5-3 0-5 3-7 4l-17-1-7 4c3 3-1 6-2 9-3 3-7 1-10 1l-23 5c-7-4-16-1-23 1-3-2-5 0-7 3-10-1-21 0-30 4-6-2-12 2-19 3-5 1-12 0-16 4-8 1-18 1-26 5-2 0-4-2-6 0-3 2-7-1-10 1s-4 6-8 7l-7-3c-7 3-15 2-21 7-6-1-12-1-16 3-5-2-10 1-15 1-6 6-16 7-25 6-3 2-6 6-5 10-7 4-15 2-21 4-2 1-6 1-5 4 5 3 9 7 12 11-4 11-14 18-26 18v-2c9 0 16-5 21-12 1-5-3-9-6-12-5-2-10-1-15-2v-8h7c3-2 5 1 8 1 5-2 10-6 14-9l-2-5c3-1 6-4 10-4s8 1 11-3l37-10c2-1 5 0 7 1 6-3 12-7 19-6 4-2 8-4 13-3 2 2 1 9 7 6l5-7c5-2 12 0 16-4 2-2 4 1 7 0 11-1 21-5 32-7 3-3 8-2 13-3 16-1 32-4 48-7l21-3 4 5c3-2 6-4 10-3 5-3 10-4 16-5 0-2-3-2-3-5l9-2c3 2 7-3 11-2 0-5-2-10-1-16 0-1 1-4-1-5-4 0-7 2-10 3l-7-1c2-3 6-5 10-4 6 0 12-1 18 2 11-2 23-1 34-1 2 2 2 5 4 6 5 1 12-2 16 2l-3 12 7 2c5-1 11 0 15-4 2-1 4-2 3-4h8c2-1 1-4 3-5l18-1c7 0 14 4 20 7 4 4 10 2 14-1l6 2 3-4c4 0 8 0 11-2 5 1 11 2 15-1l17-3c8 2 15-1 23-2 3-3 0-8 3-11 11 1 22 2 33-2z"/><path fill="#f6e3e9" d="M85 143h4l3 6 4 5-6 2c-3-3-6-7-6-11l1-2z"/><path fill="#e3b5c0" d="M92 143h2l3 2c0 1-1 4 1 4 3 0 3-4 5-5h2l-1 4-6 4-6-9z"/><path fill="#da8ca3" d="M97 145l6-1c-2 1-2 5-5 5-2 0-1-3-1-4z"/><path fill="#e5aeb8" d="M122 145l5-1 2 1c1 2 4 3 6 3-3 3-6 1-9 1-2 0-4-2-4-4z"/><path fill="#caddef" d="M73 150c4-2 9-1 11-5 0 4 3 8 6 11l6-2 4 1 7 3c6 4 13 7 19 12l1-1c2 1 3 3 3 5-2 0-2-2-3-3-3 0-3 3-5 4l-16 6h-5l1 4-8 2c-10 4-21 3-31 4-5-3-5 2-6 4-6 0-12 2-18 4-3-3-7 2-11 1l-27 4v-11c2 2 6 3 9 2 5 2 6-3 10-4l20-3c-7-5-17 1-25-3 1-4 5-4 8-6 3-4 9 0 13-4 5-4 11-5 16-8 3-2 6-3 10-3 0 4-3 6-5 9h6c6-1 11-3 17-3 2-2 4 0 7 2 2-4 9-4 6-10-7-3-15-3-22-3-9-3-18-3-27-4 0-3 4-2 6-3 1-2 3-5 6-4 6-1 11 5 17 2z"/><path fill="#f4e4e9" d="M107 150c0-3 1-4 4-5l1 4c3 5-2 5-4 7l-1 2-7-3c1-3 3-5 7-5z"/><path fill="#4d3f3f" d="M717 146h6l-15 10-1-1 5-5 5-4z"/><path fill="#554b4d" d="M0 147c4 2 7 7 7 12-3-2-3-6-6-8l-1-1v-3z"/><path fill="#e2ecf7" d="M547 149l8 1c5 3 10 2 15 3l12 4c6 3 7-6 12-6l1 6c3 4 9 3 13 1 5-1 5 5 4 8 8 3 16-1 24 0l17 1c3 2-2 8 1 11 3 2 4 6 8 7 5 2 7-2 9-5 5-2 6 3 8 5 3 1 7-1 9 1v5l7-1c1-1 2-3 4-3 1 1 3 2 4 0 3-3 8-2 12-3 5-3 11-1 16-5s11-1 16-3c4-2 7 0 11 1 5 2 10-1 15 1 8-3 16-4 25-4l15-6c5-2 10 1 15-1 6-2 12 0 19 1 4 0 9-3 13-1 3 2 7 0 11 0 9 1 18-1 27-1 5 2 10 0 15 0l9-1v9h-12c-7-2-14 1-21 0-3-2-6 2-10 0-3-2-6 0-9 1-9 1-17-1-26-1l-4 2-9-6c-5 4-11-1-16 2l-15 6c-6-1-9 5-15 4-6 1-12 0-17 3-2-2-5-4-8-2-2-4-6-6-11-7l-7 3c-8-5-13 7-20 4-5 2-10 4-16 4-4 4-2 10-1 15l-7-5c-3-1-5 1-8 2l-1-5h-15c-5 1-10 4-15 7l1 5c-7 1-15 2-23 0l-2-3c5-3 14-3 17-9 1-2 0-4-2-5l1-7-7-10-32-4c-7 7-17 7-26 6-4-3 1-7 1-11-4-3-9-1-13-1-3 0-4-3-5-5l-13 2-8-2-2 5-4 7 1 5c-3 3-7 3-11 5-7 4-12-7-19-8s-13-5-20-4c6-3 14 2 20-1 9-4 19-2 28-4 6 0 6-8 6-13z"/><path fill="#f1f5fa" d="M0 150l1 1v82a1176 1176 0 000 29v26H0V150z"/><path fill="#605759" d="M703 158l4-3 1 1c-1 1-6 6-5 2z"/><path fill="#5b5050" d="M108 156a107 107 0 0119 13l-1 1c-6-5-13-8-19-12l1-2z"/><g fill="#e8eff8"><path d="M548 157l8 2 13-2c1 2 2 5 5 5 4 0 9-2 13 1 0 4-5 8-1 11 9 1 19 1 26-6l32 4 7 10-1 7c0 4-2 9-7 9-4 1-12 2-10 8 11 6 24 2 35 1 11 4 23 0 34 2 6-2 15 2 19-4 2-1 7 2 8-1 2-2 8-1 7-6h-4c-2-4 1-6 2-8-1-2-5-4-4-7l9-4 5 3h13l4 9c5-1 10 2 13-2 2-1 3-3 5-2 7 3 14-2 20-4 3 0 6 3 9 2l5-5h9l12-1c11-1 23-4 35-1 2 1 3-1 5-2 6 0 12 0 16 3 11 0 21-2 32-1v5c-6 2-11 1-17 2-4-3-9-1-13-1-4-2-9-3-13-6-4-1-7 2-8 5-5 1-9-1-13-3-7-3-14 3-22 2-7 0-13 4-19 6-6 1-11-3-16 0l-15 3c-5 2-9 5-14 5l-6 2c-3 0-6-2-8 0l2 10c2 3 8-1 10 2 0 5-6 2-9 3-3 2-8 0-11-2-4 4-10 3-16 4-12-3-24-1-36-3-7-2-15 1-22-1-4 1-9-4-13-1-6 4-14 2-21 4-3-3-7-4-11-4-3-2-1-7-2-10 3-4 7-8 7-13l-3-1-12 1c-1 2-1 5-4 5-4 0-8 5-11 2-3-2-4-3-5-6l-8-4c-6 4-14 6-20 2-5 4-13 5-18 0-2-2 0-5 0-7-5-3-11 2-16 1s-10 4-15 2c-5-5-11 0-15 3-4 0-6 6-7 10 8 5 19 0 27 6v2c-3 1-10-1-10 4-7-1-10-9-17-8-3 2-7 3-8 7 4 2 9-3 12 1l-11 1c-7-1-13 2-20 0-4 0-8 2-12 0-3-1-4 3-7 2-3-2-5 0-8 1-5-2-10-4-15-4-4 0-7-4-11-4h-16c-3 3-1 7 0 10-7 3-14 1-21-1-3 1-6 4-10 3-7-1-12 4-19 4-4 0-9 3-12 0-5 3-9 7-15 5-8 3-16 0-24 2-3 0-5 5-9 3l-11-1c0 1 0 5-2 3s-5 0-7 1l-7-2-4 3c-2 0-4-3-6-2-1 1-1 5-4 4-3-2-6 1-8 2-4 0-7 0-10 2s-6-2-8 0c-4 1-8-1-11 2-1 2-5-1-3 1 0 4-5 3-7 2-4-3-8 1-12 2l-15 2c-2-3-4-1-5 1-6 0-11 4-16 0-3 1-3 7-8 4h-6c-3 3-9-1-13 2l-6 4c-4 0-7-3-11-1 1 4-4 4-6 7l-11 7v-3l-6 5c-2 4-1 9 3 11l6-1 5 4H65c2-3-1-5-4-6-1-2 1-6-2-8l6 2 4-4-6-3 3-6 5 1c4-5 10-10 17-8 6-5 15-1 20-7l9-1c3 0 5-3 8-4l5 4 1-4c7 1 15-3 22-6h13c5-3 12-3 17-7l27 1c0-1 1-5 4-4 3-1 3 4 6 4v-4c3-2 6 1 8-1 3-2 7-1 11 0 6 0 12-3 19-3 3-2 7-1 11-3 3-2 10 0 10-6 2-1 3 2 5 1 6 0 13 4 16-2 6 2 13 2 18-1 4-3 9 1 12-3 4-2 9-2 14-3 5 4 12 1 18 0 3-1 7 1 10-1 1-5-4-8-8-7-7 2-14-1-21-1-8 2-15-3-22-1l-7-2c4-6 11-5 17-6 9 4 20 2 30-1 7 4 15 5 22 10l9-3 7 7 15-3 7 2c0-5-8-6-7-11 3-2 6-2 10-1 3-1 5-6 9-4 8 2 17 1 25 3 3 0 7 2 10 0-3-5-7-12-1-16 6-2 8 8 15 6 3-3 8-6 10-10l1-1c7-1 13 3 20 4s12 12 19 8c4-2 8-2 11-5l-1-5 4-7 2-5m-52 12c-4 2-6 10-1 12 3 1 3 5 6 4 3-5 11-5 13-11l-12-3c-2-1-4-3-6-2z"/><path d="M563 216c4 0 12-1 11 5-2 2-5 2-8 3-6 3-12 8-19 5-5-2-7 5-11 6-12 2-24 10-36 10-4 3-10 0-7-5 5-4 10-8 17-9 5-1 9-5 15-4 5-1 9-5 14-6 6-1 11-5 18-4 2 1 4 0 6-1z"/></g><g fill="#e5edf7"><path d="M477 176c6 1 10-6 15-8-2 4-7 7-10 10-7 2-9-8-15-6-6 4-2 11 1 16-3 2-7 0-10 0-8-2-17-1-25-3-4-2-6 3-9 4-4-1-7-1-10 1-1 5 7 6 7 11l-7-2-15 3-7-7-9 3c-7-5-15-6-22-10-10 3-21 5-30 1-6 1-13 0-17 6l7 2c7-2 14 3 22 1 7 0 14 3 21 1 4-1 9 2 8 7-3 2-7 0-10 1-6 1-13 4-18 0-5 1-10 1-14 3-3 4-8 0-12 3-5 3-12 3-18 1-3 6-10 2-16 2-2 1-3-2-5-1 0 6-7 4-10 6-4 2-8 1-11 3-7 0-13 3-19 3-4-1-8-2-11 0-2 2-5-1-8 1v4c-3 0-3-5-6-4-3-1-4 3-4 4l-27-1c-5 4-12 4-17 7h-13c-7 3-15 7-22 6l-1 4-5-4c-3 1-5 4-8 4l-9 1c-5 6-14 2-20 7-7-2-13 3-17 8l-5-1-3 6 6 3-4 4-6-2c3 2 1 6 2 8 3 1 6 3 4 6H26c1-6-10 4-5-6 1-2 4-2 6-3 1-8 10-11 15-15l-6 1 2-8 7 1 2-5 7 2 11-5c1-2 5-3 4 1 4-1 6-6 10-4 6-5 12-10 19-11 4 1 6-5 10-4 2 2 5-1 7-2 4 0 6-4 10-4 1 2 2 5 4 3 4 1 4-4 6-6l13 1 5-2c8 1 16-1 24 1 3-2 5-4 8-1 5-3 12-5 18-4 2 2 4-1 5-3 3-1 6 2 8 2l22-4c2-6 9-1 14-2 5-2 11-3 17-2l4-5c3 1 6 3 9 1 4-2 8-2 13-2 3-2 0-5-2-6 3-6 11-2 17-4 2-3 5-5 8-6l-1-7c6-3 5 2 7 5 7 2 15 6 22 4 3-2 8 1 10-3-3-1-6 0-9-2 0-5 8-6 11-6 5-2 11 2 12 7l-6 1c4 3 9 7 14 6 4 0 9 1 13-2l15 1c5-2 9-5 14-5l6-3h23l7-5c5 0 7-3 9-6 4-3 11-1 12 4zM815 172c5-3 11 2 16-2l9 6 4-2c9 0 17 2 26 1 3-1 6-3 9-1 4 2 7-2 10 0 7 1 14-2 21 0h12v4c-11-1-21 1-32 1-4-3-10-3-16-3-2 1-3 3-5 2-12-3-24 0-35 1l-12 1h-9l-5 5c-3 1-6-2-9-2-6 2-13 7-20 4-2-1-3 1-5 2-3 4-8 1-13 2l-4-9h-13l-5-3-9 4c-1 3 3 5 4 7-1 2-4 4-2 8h4c1 5-5 4-7 6-1 3-6 0-8 1-4 6-13 2-19 4-11-2-23 2-34-2-11 1-24 5-35-1-2-6 6-7 10-8 5 0 7-5 7-9 2 1 3 3 2 5-3 6-12 6-17 9l2 3c8 2 16 1 23 0l-1-5c5-3 10-6 15-7h15l1 5c3-1 5-3 8-2l7 5c-1-5-3-11 1-15 6 0 11-2 16-4 7 3 12-9 20-4l7-3c5 1 9 3 11 7 3-2 6 0 8 2 5-3 11-2 17-3 6 1 9-5 15-4l15-6z"/></g><path fill="#eef4fa" d="M496 169c2-1 4 1 6 2l12 3c-2 6-10 6-13 11-3 1-3-3-6-4-5-2-3-10 1-12z"/><path fill="#e1ebf6" d="M349 170l9 1c5-1 7 3 11 4 5-2 6 5 11 3 6 4 12-1 19 0 4 0 10 2 14-1l15-1c8 1 15 2 22 0 6 1 10-2 15-4-2 3-4 6-9 6l-7 5h-23l-6 3c-5 0-9 3-14 5l-15-1c-4 3-9 2-13 2-5 1-10-3-14-6l6-1c-1-5-7-9-12-7-3 0-11 1-11 6 3 2 6 1 9 2-2 4-7 1-10 3-7 2-15-2-22-4-2-3-1-8-7-5l1 7c-3 1-6 3-8 6-6 2-14-2-17 4 2 1 5 4 2 6-5 0-9 0-13 2-3 2-6 0-9-1l-4 5c-6-1-12 0-17 2-5 1-12-4-14 2l-22 4c-2 0-5-3-8-2-1 2-3 5-5 3-6-1-13 1-18 4-3-3-5-1-8 1-8-2-16 0-24-1l-5 2-13-1c-2 2-2 7-6 6-2 2-3-1-4-3-4 0-6 4-10 4-2 1-5 4-7 2-4-1-6 5-10 4-7 1-13 6-19 11-4-2-6 3-10 4 1-4-3-3-4-1l-11 5-7-2-2 5-7-1-2 8 6-1c-5 4-14 7-15 15-2 1-5 1-6 3-5 10 6 0 5 6H1v-2c12 0 22-7 26-18-3-4-7-8-12-11-1-3 3-3 5-4 6-2 14 0 21-4-1-4 2-8 5-10 9 1 19 0 25-6 5 0 10-3 15-1 4-4 10-4 16-3 6-5 14-4 21-7l7 3c4-1 5-5 8-7s7 1 10-1c2-2 4 0 6 0 8-4 18-4 26-5 4-4 11-3 16-4 7-1 13-5 19-3 9-4 20-5 30-4 2-3 4-5 7-3 7-2 16-5 23-1l23-5c3 0 7 2 10-1 1-3 5-6 2-9l7-4 17 1c2-1 4-4 7-4 5 2 6-2 8-5z"/><g fill="#edf3fa"><path d="M539 180c5 1 11-4 16-1 0 2-2 5 0 7 5 5 13 4 18 0 6 4 14 2 20-2l8 4c1 3 2 4 5 6 3 3 7-2 11-2 3 0 3-3 4-5l12-1c4 6-6 10-6 15 3 5-4 6-2 11l5 2c-3 4-5 10-10 13-2 3-5 5-9 6l-10 12c-6 2-14 1-19 6 1 4-1 8 2 11 2 2 0 5-1 8-5 2-10 5-15 3l-8 2c-12 3-26 5-35 13h-8c2-5 7-7 11-10a159 159 0 0147-8c4 0 9-3 7-7-3-3-8-5-6-10l-5-5c-4-1-7 1-10 2l-5-4c-3-1-3 3-5 3l2-13c-7-2-13 3-19 4-4 4-11 3-15 7l-6 3-5-1-21 2c-5 3-5-2-7-5-4 7-14 0-16-6 3 0 6 1 8 3l6-3c1-2-1-4-2-5l-27 1c-5 0-10 0-14-3-3-4-9-1-13-1-1 1-2 5-4 4-6-4-13 3-18 6v-3c-6 1-11 3-16 2 0 5 7 3 9 4-4 4-10 1-15 3 1-2 2-4-1-5 1 6-6 6-10 6-3-2-6-3-9-1-6 2-8 9-12 13l-6 9-5-1c-1-5 5-8 4-13-1-2 2-4 1-6-1-3-6-1-8 0l-9-2c-1 2-2 5-4 3-3-2-6 2-8 0-6-3-13 2-19 3 1-2 0-5-3-4 2 5-2 5-4 7h-23l-15 6c-2 1 0 3 0 5l-7-1c-3 0-3 5-6 4s-6 2-8-1c-2 2-1 5-1 8l-4-1c0 2-2 4 0 5 8-2 4 4 2 6h-82c-1-6 8-3 8-7-4 0-9 0-13-2-2-1-6-2-6-5 1-2 4 0 6 0 4-1 10 1 14-2h9c-1-3 1-7 4-7 4-3 11 1 14-3v-5c4-1 8 0 12-2 6-2 12 2 17-2 4 1 8 1 11-1 1-2 3 0 4 0 6 4 5-6 11-2l8-1c2 1 2-2 4-1l5-2c1 3 0 8 4 8l4-5 7 1c1-1 2-4 3-2l7 1 2-5 9-1c0 1 1 4 2 2h6c1-2 3-5 3-1s7 3 7 0c2-2-3-2-4-2-1-7 10-6 10-1 2-1 2-2 1-4 5 2 7-3 11-1l1-4 9 2-1-4c3-1 7 1 10-1s6 1 10 1c1-1 3-3 4-1 2 1 0 3-1 4-4 5-6 10-8 16-1 2-2 5 0 7 8-4 11-13 14-20 0-2-2-5 0-7 5-1 10-4 15-2l17 1c4-2 8-4 13-4 1 4 6 6 6 1l23-6c4-1 9 0 11-4 5 0 10 2 15 0 4 0 6-5 10-4 13 5 27 4 41 5 4 1 10-2 13 2 5-3 10-1 15-2 1-2 3-3 5-2 1-4-2-2-5-2-2-3-6-6-5-10 1-1 3-1 3-3-8-4-18-3-27-4l-3-2c0-3 4-5 3-8 4-3 10-8 15-3 5 2 10-3 15-2m24 36c-2 1-4 2-6 1-7-1-12 3-18 4-5 1-9 5-14 6-6-1-10 3-15 4-7 1-12 5-17 9-3 5 3 8 7 5 12 0 24-8 36-10 4-1 6-8 11-6 7 3 13-2 19-5 3-1 6-1 8-3 1-6-7-5-11-5zM908 205l14-7v12c-8 2-17 0-25-1-9 2-19 0-28-1-3 2-8 3-11 6-2 3-7 1-10 2-3 3-5-3-8-2l1 6c2 1 4 3 3 5-9-3-18 1-25 7-2 0-2-3-4-3l1 5h-10v4c-2 0-5-3-7-1s-4 0-6 0l-1 4-5-1c-2 1-4 4-7 3-2-3-5 0-8 1-2 2-4 0-6 0-1 3 4 1 3 4-2 2 1 3 3 4l5-4c0 2 0 4-2 5-3 1 0 8-7 5-3 0-5 3-8 2-3-2-7 1-9-2-3 2-5 4-8 3-5-3-12 2-11 8-3 1-4-1-5-3v-2c-7-2-13 1-20 2-2-1-3-3-5-3-4 0-8 2-11-1-5 0-9 0-13 3-4-2-6 1-9 3-2-3 3-5 1-8l2-5c5-1 10-3 15-2l5-4c-1-2-3-4-3-7l5 1c1-3 5-4 7-6 2-1 3 2 4 3 2-1 3-4 6-3 2 1 4 3 6 1 3-1 2-6 6-7 5 3 10 0 16 2 2-5 7-7 13-7 3 1 6 3 10 3v-3l11 2c3-2 6-6 10-4l18-2c2 0 5 2 6 0 2-4 6-5 8-8 3-4 8-4 13-3 3-1 6-4 9-4 5 1 10 2 16 1 8-1 15-4 24-2l10-3c7 1 14-1 21 2z"/></g><g fill="#ebf1f9"><path d="M871 183c1-3 4-6 8-5 4 3 9 4 13 6 4 0 9-2 13 1 6-1 11 0 17-2v15l-14 7c-7-3-14-1-21-2l-10 3c-9-2-16 1-24 2-6 1-11 0-16-1-3 0-6 3-9 4-5-1-10-1-13 3-2 3-6 4-8 8-1 2-4 0-6 0l-18 2c-4-2-7 2-10 4l-11-2v3c-4 0-7-2-10-3-6 0-11 2-13 7-6-2-11 1-16-2-4 1-3 6-6 7-2 2-4 0-6-1-3-1-4 2-6 3-1-1-2-4-4-3-2 2-6 3-7 6l-5-1c0 3 2 5 3 7l-5 4c-5-1-10 1-15 2l-2 5c-3 1-6-1-9 1-6 1-12 2-19 1l-1 4c6 3 13 4 20 4 0 7-11-2-12 3 1 7 12 1 15 7-3 2-5-1-8 0-4 0-5 5-4 8h-15c0-5 6-5 8-8-3 1-5 0-8-1 0-2 3-4 1-5-3 2-7 3-10 0-3 0-6-1-9 1-3-3-6-4-10-6-1 2-4 2-5 0 2-2 5-3 3-6 3 0 4 2 6 3 3-1 6-3 7-6 5 2 14 5 14-2l9-6c1 1 1 4 3 4l1-8c-4-2-9 0-14 0-6 0-11-2-17-3-6 3-13 2-20 2l-8 7c3 3 1 7 1 11 1 1 3 3 2 5-5 3-12 4-17 6l-14-1 8-2c5 2 10-1 15-3 1-3 3-6 1-8-3-3-1-7-2-11 5-5 13-4 19-6l10-12c4-1 7-3 9-6 5-3 7-9 10-13l-5-2c-2-5 5-6 2-11 0-5 10-9 6-15l3 1c0 5-4 9-7 13 1 3-1 8 2 10 4 0 8 1 11 4 7-2 15 0 21-4 4-3 9 2 13 1 7 2 15-1 22 1 12 2 24 0 36 3 6-1 12 0 16-4 3 2 8 4 11 2 3-1 9 2 9-3-2-3-8 1-10-2l-2-10c2-2 5 0 8 0l6-2c5 0 9-3 14-5l15-3c5-3 10 1 16 0 6-2 12-6 19-6 8 1 15-5 22-2 4 2 8 4 13 3m-237 35l-8 6-4 13 1 1c5-2 7 4 11 3 1-2 1-6 6-2 8 0 17-2 25 0 7-1 15-1 21-4 3-2 9-1 6-7-3 0-6-2-8-4l-4 1c-3-2-5 2-8 2-2-2 0-4-2-6h-11c-2-3-5-3-7-1h-7c-2-3-7-1-11-2zM502 195c1-4 3-10 7-10 1 3-3 5-3 8l3 2c9 1 19 0 27 4 0 2-2 2-3 3-1 4 3 7 5 10 3 0 6-2 5 2-2-1-4 0-5 2-5 1-10-1-15 2-3-4-9-1-13-2-14-1-28 0-41-5-4-1-6 4-10 4-5 2-10 0-15 0-2 4-7 3-11 4l-23 6c0 5-5 3-6-1-5 0-9 2-13 4l-17-1c-5-2-10 1-15 2-2 2 0 5 0 7-3 7-6 16-14 20-2-2-1-5 0-7 2-6 4-11 8-16 1-1 3-3 1-4-1-2-3 0-4 1-4 0-7-3-10-1s-7 0-10 1l1 4-9-2-1 4c-4-2-6 3-11 1 1 2 1 3-1 4 0-5-11-6-10 1 1 0 6 0 4 2 0 3-7 4-7 0s-2-1-3 1h-6c-1 2-2-1-2-2l-9 1-2 5-7-1c-1-2-2 1-3 2l-7-1-4 5c-4 0-3-5-4-8l-5 2c-2-1-2 2-4 1l-8 1c-6-4-5 6-11 2-1 0-3-2-4 0-3 2-7 2-11 1-5 4-11 0-17 2-4 2-8 1-12 2v5c-3 4-10 0-14 3-3 0-5 4-4 7h-9c-4 3-10 1-14 2-2 0-5-2-6 0 0 3 4 4 6 5 4 2 9 2 13 2 0 4-9 1-8 7h-34l-5-4-6 1c-4-2-5-7-3-11l6-5v3l11-7c2-3 7-3 6-7 4-2 7 1 11 1l6-4c4-3 10 1 13-2h6c5 3 5-3 8-4 5 4 10 0 16 0 1-2 3-4 5-1l15-2c4-1 8-5 12-2 2 1 7 2 7-2-2-2 2 1 3-1 3-3 7-1 11-2 2-2 5 2 8 0s6-2 10-2c2-1 5-4 8-2 3 1 3-3 4-4 2-1 4 2 6 2l4-3 7 2c2-1 5-3 7-1s2-2 2-3l11 1c4 2 6-3 9-3 8-2 16 1 24-2 6 2 10-2 15-5 3 3 8 0 12 0 7 0 12-5 19-4 4 1 7-2 10-3 7 2 14 4 21 1-1-3-3-7 0-10h16c4 0 7 4 11 4 5 0 10 2 15 4 3-1 5-3 8-1 3 1 4-3 7-2 4 2 8 0 12 0 7 2 13-1 20 0l11-1c-3-4-8 1-12-1 1-4 5-5 8-7 7-1 10 7 17 8 0-5 7-3 10-4v-2c-8-6-19-1-27-6z"/></g><g fill="#f0f4fa"><path d="M869 208c9 1 19 3 28 1 8 1 17 3 25 1v78h-95c2-4-3-4-6-5-1 1-3 2-5 0-3-1-2-5-2-8-3 0-2 3-2 5-3 1-3-1-2-3l-8-1-3 5-5-4-5 2c-2-1-4-4-6-2-3 2-7 3-11 2-2 0-3 4-6 3l-3-5c-5 0-7 6-12 5-5-3-10-3-16-4-1 1-1 3-3 3-3-1-5-3-8-3v-8c-1-2 1-3 3-4 1 2 2 4 5 3-1-6 6-11 11-8 3 1 5-1 8-3 2 3 6 0 9 2 3 1 5-2 8-2 7 3 4-4 7-5 2-1 2-3 2-5l-5 4c-2-1-5-2-3-4 1-3-4-1-3-4 2 0 4 2 6 0 3-1 6-4 8-1 3 1 5-2 7-3l5 1 1-4c2 0 4 2 6 0s5 1 7 1v-4h10l-1-5c2 0 2 3 4 3 7-6 16-10 25-7 1-2-1-4-3-5l-1-6c3-1 5 5 8 2 3-1 8 1 10-2 3-3 8-4 11-6zM422 232c4 0 10-3 13 1 4 3 9 3 14 3l27-1c1 1 3 3 2 5l-6 3c-2-2-5-3-8-3 2 6 12 13 16 6 2 3 2 8 7 5l21-2 5 1 6-3c4-4 11-3 15-7 6-1 12-6 19-4l-2 13c2 0 2-4 5-3l5 4c3-1 6-3 10-2l5 5c-2 5 3 7 6 10 2 4-3 7-7 7h-8c-13 1-26 4-39 8-4 3-9 5-11 10H223c2-2 6-8-2-6-2-1 0-3 0-5l4 1c0-3-1-6 1-8 2 3 5 0 8 1s3-4 6-4l7 1c0-2-2-4 0-5l15-6h23c2-2 6-2 4-7 3-1 4 2 3 4 6-1 13-6 19-3 2 2 5-2 8 0 2 2 3-1 4-3l9 2c2-1 7-3 8 0 1 2-2 4-1 6 1 5-5 8-4 13l5 1 6-9c4-4 6-11 12-13 3-2 6-1 9 1 4 0 11 0 10-6 3 1 2 3 1 5 5-2 11 1 15-3-2-1-9 1-9-4 5 1 10-1 16-2v3c5-3 12-10 18-6 2 1 3-3 4-4z"/></g><path fill="#e8eef8" d="M634 218c4 1 9-1 11 2h7c2-2 5-2 7 1h11c2 2 0 4 2 6 3 0 5-4 8-2l4-1c2 2 5 4 8 4 3 6-3 5-6 7-6 3-14 3-21 4-8-2-17 0-25 0-5-4-5 0-6 2-4 1-6-5-11-3l-1-1 4-13 8-6z"/><path fill="#d5deee" d="M1 258c5 1 10 0 15 2 3 3 7 7 6 12-5 7-12 12-21 12v-3c7 2 13-4 17-8 1-4-1-8-4-11H1v-4z"/><path fill="#eef1f8" d="M661 261c3-2 6 0 9-1 2 3-3 5-1 8 3-2 5-5 9-3 4-3 8-3 13-3 3 3 7 1 11 1 2 0 3 2 5 3 7-1 13-4 20-2v2c-2 1-4 2-3 4v8c3 0 5 2 8 3 2 0 2-2 3-3 6 1 11 1 16 4 5 1 7-5 12-5l3 5c3 1 4-3 6-3 4 1 8 0 11-2 2-2 4 1 6 2l5-2 5 4 3-5 8 1c-1 2-1 4 2 3 0-2-1-5 2-5 0 3-1 7 2 8 2 2 4 1 5 0 3 1 8 1 6 5H652c-1-3 0-8 4-8 3-1 5 2 8 0-3-6-14 0-15-7 1-5 12 4 12-3-7 0-14-1-20-4l1-4c7 1 13 0 19-1z"/><path fill="#c8d3e5" d="M1 262h13c3 3 5 7 4 11-4 4-10 10-17 8v-3l4 2 8-7c3-2 1-6 0-8H1v-3z"/><path fill="#bcc8dd" d="M1 265h12c1 2 3 6 0 8l-8 7-4-2v-13z"/></svg>