<svg xmlns="http://www.w3.org/2000/svg" viewBox="0 0 640 361"><path fill="#8b0000" d="M0 361l63-21c2 0 3-1 2-3a25 25 0 011-6l1 6c0 2 0 2 2 2l13-4c1 0 2 0 2-2l1-11 1-8a23 23 0 013-7 65 65 0 01-1 8 12 12 0 002 11l3 4c0-5-2-9-4-13l2 1a62 62 0 014 12c1 1 1 2 3 1a6 6 0 011 0c5-1 7-3 7-9a13 13 0 010-1c0-4 1-8-2-11l3 1v-7c1-3-1-4-2-7 2 0 1 4 4 1-1 5 1 8 4 11l10 9s1 2 2 1l1-3-4-6a21 21 0 01-3-8c0-3 0-4 3-5 2-1 4-1 5-3s-2-3-2-5a8 8 0 013 3c0 2 1 2 3 1s3-2 4-5a9 9 0 00-2-9c-3-2-5-5-5-10a4 4 0 012-3l12-7 3 1 5 10a3 3 0 003 2 19 19 0 019 3 3 3 0 003 0l10-8c2-1 2 0 3 1l7 12c2 2 1 5 1 7l-4 2c-1 0-2 1-2 3a69 69 0 010 16l3-15a94 94 0 01-1 16v6c1 0 2 1 3-1a30 30 0 013-7 9 9 0 001-7l-2-14 1 3 3 12c1 2 1 2 3 2-2 1-2 3-1 4l1 5 2 2a2 2 0 002-2v-10a128 128 0 00-3-14 3 3 0 010-2l5 15v-26l1 5a117 117 0 012 31c0 1-1 2 1 2l1-2v-2 1l1 2 2-4a19 19 0 015-5h2a20 20 0 00-6 7v2h4c2 0 1-2 1-2l1-7a14 14 0 000-10 29 29 0 011-22l4-8c2-3 4-7 4-11a2 2 0 010-2 52 52 0 017-4c3-1 1 2 2 3 2-2 4-3 7-3a11 11 0 017 1l1 2-2 1a22 22 0 01-3 0c-5-1-8 1-10 6a5 5 0 003-1l8-4c2-1 5-1 7 1a3 3 0 002 0c4-1 5 1 7 4l-1 3a2 2 0 01-3-1c-2-4-6-3-9-2a14 14 0 00-6 2l-2 2h3l6-1c3-1 4 0 4 3a5 5 0 002 2l1 2a5 5 0 011 4v1l-3-3c-3-5-7-6-12-3-3 2-6 5-6 9 0 3 2 5 5 4a33 33 0 009-3h2v3a8 8 0 01-3 3c-4 3-9 4-14 2-5-1-6 0-6 5l1 21 1 1v-11c2 2 1 4 2 6l5-15-1 8-3 10c0 1-1 2 1 2l1-2 1-6v5c1 1 0 2 2 2l1-1c3-4 3-8 0-12a7 7 0 010-1v-1l4 6c1-5-1-10 1-16a73 73 0 004 18l1-2a27 27 0 011 6c1 2 1 2 3 2h5a4 4 0 004-3 5 5 0 00-1-5 18 18 0 01-5-12h1c0 5 5 8 7 12l2 2 1-3 3-17 1-1-2 15v6l1 2 1-2c1-3 2-7 1-10l-1-43a10 10 0 00-1-5c-5-8-9-17-12-26a7 7 0 01-1-1l1-2h2a25 25 0 015 7c1 1 1 3 3 2l1-2a42 42 0 000-11l1-15a9 9 0 011-3c1-1 1-3 3-2s2 1 2 3a59 59 0 01-1 12 9 9 0 001 4l1-10a25 25 0 012-8c1-1 1-2 3-2s1 2 1 3a38 38 0 010 4l3-3 2 3c1 3 0 7-1 10l-2 9c2-1 3-3 3-5l4-6 2-1-1 3a151 151 0 00-7 26 132 132 0 000 32l3 33c0 2 0 5 2 7l8-22a7 7 0 01-1 4l-2 16v3c2 1 2-1 3-1l7-14a7 7 0 001-3v-9c1 0 1 2 2 1v-2c-1-6 1-12 2-18a196 196 0 003-28c1-12-2-23-5-34l-5-19a10 10 0 00-3-6c-4-4-4-10-4-16a3 3 0 012-3c2-1 3 1 4 2a17 17 0 012 6c1 4 3 7 6 10l1 1 1-2a57 57 0 00-2-10l-2-15a22 22 0 010-4c0-2 0-4 2-4s4 1 5 4l2 9a13 13 0 001 4l-2-11a28 28 0 010-8c0-1 0-3 2-4a5 5 0 015 3 10 10 0 012 5c0 8 3 16 4 23v-8c-1-5-2-9-1-13a16 16 0 011-6 3 3 0 013-2 3 3 0 013 2 27 27 0 013 9 215 215 0 011 23l1 13 1 4c1 1 3-1 4-2l4-5a14 14 0 019-7l3 1 1 3a6 6 0 01-3 4 14 14 0 00-6 8c-3 8-7 15-13 22a42 42 0 00-3 5 17 17 0 00-3 10l2 36c0 11 0 21 2 32v11a4 4 0 006 4v-2c-1-3-3-5-3-8-1-4 0-7 4-8-4 4-3 7-1 10l4 6 2 2 2-2a70 70 0 003-15 82 82 0 000-15l2 9a66 66 0 01-1 21l1 2 3-1 2-10a3 3 0 011-2l-1 10a20 20 0 000 2l1 1h1a26 26 0 002-14c0-7-1-13-3-20a29 29 0 00-3-7 12 12 0 00-8-6 11 11 0 01-8-6 4 4 0 01-1-3l1-2c2-1 2 1 2 1 2 3 4 4 7 3 2-1 4-3 3-7a33 33 0 00-5-12l-5-8c-2-2-1-4 1-4a7 7 0 015 2 23 23 0 016 9c1-3 0-6-1-9a8 8 0 01-2-4 3 3 0 012-3c1-1 2 0 3 1l4 8 2 8 1 1c1 1 1 0 1-1a10 10 0 001-6 70 70 0 01-2-7c0-2 0-5 2-5 2-1 3 1 4 2 4 5 5 11 4 18a4 4 0 000 1 7 7 0 003-4l1-7c0-1 1-2 2-1a5 5 0 013 5l-1 7-3 8a27 27 0 00-2 16l5 23 2-5v5a52 52 0 003 19v4l2 2 2-2a13 13 0 013-6 2 2 0 000-2l-1-5 2 3a109 109 0 00-2-22c2 2 2 3 2 5l2 25a12 12 0 000 4l3 1 1-2a80 80 0 00-2-14l-1-7 4 14 1-15 1 10a85 85 0 010 12c0 1 0 3 2 3l2-2a16 16 0 011-7v7h1a15 15 0 000-5c0-2 0-5 2-7a4 4 0 001-2l1-30 1-20c0-10-2-9-9-7-8 2-14-1-20-6a5 5 0 01-1-1v-4c1-1 2 0 3 1 3 1 5 4 8 4a14 14 0 002 0c8-1 10-6 6-12a18 18 0 00-10-7c-5-2-9 0-11 4a12 12 0 01-3 4l-2 1v-2a5 5 0 012-4 11 11 0 003-7c1-3 2-4 6-3a45 45 0 0011 3c-2-5-9-8-14-7a13 13 0 01-4 0c-2 0-3 1-4 3 0 2-2 2-4 1s-1-1 0-3c2-5 2-6 8-5a3 3 0 002-1c4-2 7-2 11-1a53 53 0 0110 6l3 2c-1-5-5-10-9-10h-8l-2-1 1-2a12 12 0 018-2c8 1 13 6 15 13 1 1 0 2 2 2l1-3c0-2-2-3-3-5l-4-3a2 2 0 010-3h2l7 5a3 3 0 012 3 25 25 0 003 11l7 14a33 33 0 012 26 59 59 0 00-3 22 96 96 0 010 11c-1 8 1 16 4 23 1-3 3-7-1-10 2 0 2 2 3 3 2-5 2-9 1-13l-2-6a5 5 0 010-3c0-1 0-2 2-2l1 2 1 3a18 18 0 011-7c1-1 2-3 4-3s0 3 0 5-1 3 1 5l3-10c5 2 1 5 2 9l3-4c1-1 2-2 3-1s0 2-1 3l-4 8c0 2-1 4 1 5s3 0 4-2h1v1a5 5 0 01-4 5c-3 1-4 2-3 5l1 18c2-1 2-4 4-4l-1 2v2a2 2 0 003 0c2-3 6-5 5-9a58 58 0 01-1-10l2 10c3-3 3-5 0-13 3 3 4 5 4 9l-2 13c0 1 0 2 2 2s3 1 4-1l1-8 6-20a3 3 0 011-2l-5 29 2-1-1 3 3-1-2 2a15 15 0 005 1c2 0 2-1 2-2l-1-13v-10l4 14c0-6 2-12 1-18l2 4c0 8 0 16-2 24 0 2 1 3 3 3l3 1a5 5 0 005-5l3-29c1-2 0-3-2-3l-8-2c-2 0-2-1-2-2l2-16c0-2 5-5 7-5l12 3c2 0 3 0 3-2l1-15c1-2 5-5 7-5l13 3c2 0 2 1 2 3v18c0 3 1 3 3 4l14 3c2 1 3 2 2 4l-2 14a7 7 0 01-9 5l-6-2c-2-1-3 0-4 2l-3 22-1 9c6-5 5-13 4-20l1 2a14 14 0 001 3c0 1-1 3 1 4v1c-1 2 0 4 1 7l17-17h1l-2 3-6 6c-2 2-4 5-1 8v9c1 0 2 2 3 1a72 72 0 007-8v-23a12 12 0 010-3c2 3 1 7 2 10l1 25a2 2 0 002 2l13 4c2 0 2-1 2-2a73 73 0 000-28 15 15 0 010-2v-1a121 121 0 013 15l2 17c0 2 1 3 3 3l10 3c3 1 3 1 3-2l1-12a44 44 0 011 13c0 3 0 3 3 2v1c1 2 3 2 4 2l30 10s0 2-1 1a4 4 0 00-1 0H0zm513-60l1-6c1-7 1-7-6-8-2 0-2 1-2 2l-1 12-1 21c0 2 1 2 3 3 2 0 2-2 2-3a129 129 0 002-22v-5l2 6zm-364 15a66 66 0 01-2-7c0-3-2-3-4-4l-1 1c0 2 0 4-2 5v2l3 7a2 2 0 002 2c2-1 4-3 4-6zm29-9a104 104 0 00-2-13c0-1 0-2-2-2l-1 2c1 4-1 8-2 12a2 2 0 000 2l5 7c0 1 1 1 1-1a31 31 0 001-7zm-60 17l1-1v1c1 0 0 2 2 2a3 3 0 002-4 90 90 0 00-10-12l5 17v-3zm430 7c1-3 2-6 0-8 0-2-1-2-2-1l-4 5a4 4 0 000 4c1 2 3 2 4 2v-3a14 14 0 010-4l2 5zm-439-14h-1a23 23 0 010 4c0 3 1 5 3 6a2 2 0 003 1v-2l-5-9zm198-23l-4 10v2a5 5 0 004 0l1-2-1-10zM87 323v9c1 3 3 1 4 1s2 0 1-2l-5-8zm67-15c-2 3-1 7-1 10 1 2 2 2 3 2 2-1 1-2 1-3a31 31 0 01-3-9zm-18 14l-1-5-1-2c-1 1-4 1-3 3l2 5h2a1 1 0 001-1zm424 6l-4 5c-2 2-2 2 1 3h2l1-1v-7zm-451-23c-1 6-1 11 4 15-1-5-4-10-4-15zm341-4l-2 12 1 2 1-1v-13zm-17-4h-1v12l1 2 2-2a3 3 0 000-2l-2-10zm-262-3l-4 7c-1 1 0 2 1 2l1-1c2-2 3-5 2-8zM351 34l-9 1c-3 1-5 1-5-2v-1c-4-1-3-5-6-7v-1c1-2 5-1 6 0 1 2 2 3 4 2l3 2c1 2 3 1 4 1a2 2 0 013 1l2 4h-2zM99 107v-1a5 5 0 00-6-1 2 2 0 01-2 0 4 4 0 00-4-1c-2 0-2 0-1-1 1-3 2-4 5-4a4 4 0 003 0l5-2 2-2c1-2 6-2 7-1v2a5 5 0 00-3 3 2 2 0 01-1 2 5 5 0 00-4 4l-1 2zm310 12c-2-2-5-3-7-1l-2-1a4 4 0 00-4-1c-2 1-2 0-1-2s3-3 6-3a3 3 0 002 0l4-2c2 1 3-1 3-2 2-2 6-2 7 0v1h-1c-1 5-7 6-7 11zm-245 4c-2-2-4-4-7-3l-1-1a5 5 0 00-4-1l-1-1 3-3a2 2 0 012-1c2 1 3 2 4 0h5l3-2c1-1 5-1 6 1v1a5 5 0 00-3 3l-1 1-4 2-2 4zm0-106c0-2 1-3 3-3a2 2 0 002-3 5 5 0 013-3l1-4c-1-2 3-5 5-4v2a4 4 0 001 4 2 2 0 01-1 2 5 5 0 000 5c1 1 0 2-1 2a5 5 0 00-5 2 2 2 0 01-2 2 4 4 0 00-3 1l-2 1-1-2v-2zm294 35a3 3 0 013 2 3 3 0 003 2c1 0 3 0 4 2l3 1c2-1 6 2 5 4v1h-1c-4 2-8-1-12 1-1 1-1 0-2-1a5 5 0 00-3-4l-1-2a5 5 0 00-2-3l-1-1 2-1 2-1z"/></svg>