<svg xmlns="http://www.w3.org/2000/svg" viewBox="0 0 512 150"><path fill="#0c7ade" d="M194 0h123l7 2c3 2 5 5 6 8l1 4v122c0 7-6 14-14 14H195c-3 0-7-2-9-4-3-3-5-7-5-10V13l1-4c1-3 3-5 6-7l6-2m34 30l-3 8-7 35-3 17-4 17c0 2 2 4 3 5 2 3 5 5 8 6l7 2 4-2 8-11 10-18 1-1 1 19c1 1 0 3 2 5l6 4 9 4c3 0 7 1 10-1 4-3 7-8 9-13a138 138 0 0012-48c0-8-4-16-11-21-5-4-11-6-17-7l-4 1c-2 1-5 3-6 6l-1 6c0 3 2 6 3 8l4 1c5 0 9 1 13 3l1 1v6l-4 23-7 14-2 1-1-10c-2-6-3-13-7-18l-7-5c-2 0-4 2-5 3l-6 8-10 15-2-1 2-8 2-6 3-10 7-24-1-3-4-5c-3-3-7-5-11-6h-2z"/><path fill="#fff" d="M47 31h3l11 5 4 5 1 3-2 8-5 17-3 10-2 6-3 9 3 1 10-16 6-8c1-1 3-3 5-3 3 1 6 3 7 5 4 5 5 12 7 19l1 10 2-2c3-4 6-9 7-14 2-8 4-15 4-23v-7c-5-2-9-4-13-4h-5l-3-8 1-7c1-3 4-5 7-6h3c6 1 12 3 17 6 7 5 12 13 11 22-1 17-5 33-12 49-2 5-4 9-9 12-2 2-6 2-10 1l-9-3-6-5c-2-1-1-3-2-5l-1-19-1 2a216 216 0 01-18 29l-5 2-7-2-8-6-2-5 3-17 3-18 7-36c1-2 1-5 3-7z"/></svg>